<svg width="12" height="11" viewBox="0 0 12 11" fill="none" xmlns="http://www.w3.org/2000/svg">
<circle cx="5.47302" cy="5.01172" r="4.5" fill="#7BA6C5"/>
<path d="M9.7108 6.32888L8.89351 6.16617L9.7108 6.32888ZM9.66622 6.55279L10.4835 6.7155L9.66622 6.55279ZM8.59056 8.42305L9.14993 9.04074L8.59056 8.42305ZM8.23908 8.74134L7.6797 8.12365L8.23908 8.74134ZM6.24469 9.49176L6.22519 10.3249L6.24469 9.49176ZM6.01194 9.48631L6.03144 8.65321L6.01194 9.48631ZM5.77919 9.48086L5.75969 10.314L5.77919 9.48086ZM3.68011 8.95915L3.29898 9.70022L3.68011 8.95915ZM3.28575 8.75633L3.66688 8.01526L3.28575 8.75633ZM1.64341 7.34811L0.974926 7.84567L1.64341 7.34811ZM1.50421 7.16109L2.1727 6.66353L1.50421 7.16109ZM1.36501 6.97407L0.696525 7.47164L1.36501 6.97407ZM0.874363 4.92943L0.0524132 4.79216L0.874363 4.92943ZM1.81247 2.44051L1.14628 1.93987L1.81247 2.44051ZM4.26844 0.908943L4.12084 0.0887852L4.26844 0.908943ZM6.31226 1.01547L6.55713 0.218925V0.218925L6.31226 1.01547ZM8.75681 2.22126L9.24858 1.5485L8.75681 2.22126ZM8.93915 2.35454L8.44738 3.0273L8.93915 2.35454ZM10.0331 3.83796L9.22358 4.03595L10.0331 3.83796ZM10.0748 4.0085L10.8842 3.81051L10.0748 4.0085ZM10.1165 4.17905L9.30701 4.37704L10.1165 4.17905ZM9.75538 6.10496L10.5727 6.26767L9.75538 6.10496ZM9.7108 6.32888L8.89351 6.16617L8.84893 6.39008L9.66622 6.55279L10.4835 6.7155L10.5281 6.49158L9.7108 6.32888ZM9.66622 6.55279L8.84893 6.39008C8.74016 6.93641 8.47609 7.40246 8.03118 7.80536L8.59056 8.42305L9.14993 9.04074C9.84906 8.40762 10.3021 7.62683 10.4835 6.7155L9.66622 6.55279ZM8.59056 8.42305L8.03118 7.80536L7.85544 7.9645L8.41482 8.5822L8.97419 9.19989L9.14993 9.04074L8.59056 8.42305ZM8.41482 8.5822L7.85544 7.9645L7.6797 8.12365L8.23908 8.74134L8.79845 9.35904L8.97419 9.19989L8.41482 8.5822ZM8.23908 8.74134L7.6797 8.12365C7.2627 8.50129 6.80402 8.67129 6.26419 8.65866L6.24469 9.49176L6.22519 10.3249C7.20052 10.3477 8.07143 10.0174 8.79845 9.35904L8.23908 8.74134ZM6.24469 9.49176L6.26419 8.65866L6.03144 8.65321L6.01194 9.48631L5.99244 10.3194L6.22519 10.3249L6.24469 9.49176ZM6.01194 9.48631L6.03144 8.65321L5.79869 8.64776L5.77919 9.48086L5.75969 10.314L5.99244 10.3194L6.01194 9.48631ZM5.77919 9.48086L5.79869 8.64776C5.1606 8.63282 4.5854 8.48765 4.06124 8.21808L3.68011 8.95915L3.29898 9.70022C4.05843 10.0908 4.88262 10.2934 5.75969 10.314L5.77919 9.48086ZM3.68011 8.95915L4.06124 8.21808L3.86406 8.11667L3.48293 8.85774L3.1018 9.59881L3.29898 9.70022L3.68011 8.95915ZM3.48293 8.85774L3.86406 8.11667L3.66688 8.01526L3.28575 8.75633L2.90462 9.4974L3.1018 9.59881L3.48293 8.85774ZM3.28575 8.75633L3.66688 8.01526C3.14401 7.74635 2.69305 7.36263 2.3119 6.85055L1.64341 7.34811L0.974926 7.84567C1.49994 8.55105 2.14387 9.10614 2.90462 9.4974L3.28575 8.75633ZM1.64341 7.34811L2.3119 6.85055L2.1727 6.66353L1.50421 7.16109L0.835726 7.65866L0.974926 7.84567L1.64341 7.34811ZM1.50421 7.16109L2.1727 6.66353L2.0335 6.47651L1.36501 6.97407L0.696525 7.47164L0.835726 7.65866L1.50421 7.16109ZM1.36501 6.97407L2.0335 6.47651C1.71702 6.05131 1.60735 5.59938 1.69631 5.0667L0.874363 4.92943L0.0524132 4.79216C-0.11059 5.76821 0.10684 6.67938 0.696525 7.47164L1.36501 6.97407ZM0.874363 4.92943L1.69631 5.0667L1.73502 4.83493L0.913069 4.69766L0.0911186 4.5604L0.0524132 4.79216L0.874363 4.92943ZM0.913069 4.69766L1.73502 4.83493L1.77372 4.60317L0.951774 4.4659L0.129824 4.32863L0.0911186 4.5604L0.913069 4.69766ZM0.951774 4.4659L1.77372 4.60317C1.87828 3.9771 2.1133 3.42731 2.47865 2.94115L1.81247 2.44051L1.14628 1.93987C0.616007 2.64549 0.277233 3.44596 0.129824 4.32863L0.951774 4.4659ZM1.81247 2.44051L2.47865 2.94115L2.61623 2.75808L1.95005 2.25744L1.28386 1.7568L1.14628 1.93987L1.81247 2.44051ZM1.95005 2.25744L2.61623 2.75808L2.75381 2.575L2.08763 2.07436L1.42144 1.57372L1.28386 1.7568L1.95005 2.25744ZM2.08763 2.07436L2.75381 2.575C3.07918 2.14205 3.47709 1.89808 3.9775 1.80802L3.8299 0.987865L3.6823 0.167708C2.75531 0.334535 1.9917 0.814895 1.42144 1.57372L2.08763 2.07436ZM3.8299 0.987865L3.9775 1.80802L4.19677 1.76856L4.04917 0.948404L3.90157 0.128246L3.6823 0.167708L3.8299 0.987865ZM4.04917 0.948404L4.19677 1.76856L4.41604 1.7291L4.26844 0.908943L4.12084 0.0887852L3.90157 0.128246L4.04917 0.948404ZM4.26844 0.908943L4.41604 1.7291C5.00807 1.62255 5.55423 1.65427 6.0674 1.81202L6.31226 1.01547L6.55713 0.218925C5.7726 -0.0222455 4.9562 -0.0615529 4.12084 0.0887852L4.26844 0.908943ZM6.31226 1.01547L6.0674 1.81202L6.26675 1.8733L6.51161 1.07675L6.75647 0.280205L6.55713 0.218925L6.31226 1.01547ZM6.51161 1.07675L6.26675 1.8733L6.46609 1.93458L6.71096 1.13803L6.95582 0.341485L6.75647 0.280205L6.51161 1.07675ZM6.71096 1.13803L6.46609 1.93458C7.01926 2.10463 7.55784 2.37707 8.0827 2.76073L8.57447 2.08797L9.06624 1.41521C8.40412 0.931211 7.70035 0.57036 6.95582 0.341485L6.71096 1.13803ZM8.57447 2.08797L8.0827 2.76073L8.26504 2.89401L8.75681 2.22126L9.24858 1.5485L9.06624 1.41521L8.57447 2.08797ZM8.75681 2.22126L8.26504 2.89401L8.44738 3.0273L8.93915 2.35454L9.43092 1.68178L9.24858 1.5485L8.75681 2.22126ZM8.93915 2.35454L8.44738 3.0273C8.92867 3.37911 9.14649 3.72075 9.22358 4.03595L10.0331 3.83796L10.8425 3.63997C10.6481 2.84494 10.1366 2.19763 9.43092 1.68178L8.93915 2.35454ZM10.0331 3.83796L9.22358 4.03595L9.2653 4.20649L10.0748 4.0085L10.8842 3.81051L10.8425 3.63997L10.0331 3.83796ZM10.0748 4.0085L9.2653 4.20649L9.30701 4.37704L10.1165 4.17905L10.926 3.98106L10.8842 3.81051L10.0748 4.0085ZM10.1165 4.17905L9.30701 4.37704C9.37282 4.6461 9.39734 4.79776 9.40201 4.86305C9.40531 4.90915 9.39363 4.84532 9.42276 4.73914C9.4382 4.68288 9.48254 4.54884 9.60745 4.41959C9.75523 4.26668 9.96093 4.17839 10.1761 4.17839V5.01172V5.84505C10.4153 5.84505 10.6413 5.74809 10.8059 5.57783C10.9476 5.43123 11.005 5.27117 11.03 5.18021C11.0782 5.00464 11.0711 4.83673 11.0644 4.74405C11.0492 4.53179 10.9959 4.26711 10.926 3.98106L10.1165 4.17905ZM10.1761 5.01172V4.17839H10.1466V5.01172V5.84505H10.1761V5.01172ZM10.1466 5.01172V4.17839H10.1171V5.01172V5.84505H10.1466V5.01172ZM10.1171 5.01172V4.17839C9.82818 4.17839 9.62638 4.3167 9.52531 4.40682C9.42404 4.49712 9.36008 4.59374 9.32411 4.65426C9.2509 4.77742 9.19994 4.91304 9.16347 5.02327C9.08668 5.25537 9.01236 5.56916 8.93808 5.94225L9.75538 6.10496L10.5727 6.26767C10.6435 5.91193 10.702 5.6791 10.7458 5.54678C10.7696 5.47481 10.7758 5.47378 10.7568 5.50584C10.7479 5.5208 10.7102 5.58326 10.6345 5.65078C10.559 5.71812 10.382 5.84505 10.1171 5.84505V5.01172ZM9.75538 6.10496L8.93808 5.94225L8.89351 6.16617L9.7108 6.32888L10.5281 6.49158L10.5727 6.26767L9.75538 6.10496Z" fill="#7BA6C5"/>
</svg>
