<svg width="117" height="24" viewBox="0 0 117 24" fill="none" xmlns="http://www.w3.org/2000/svg">
<circle cx="12" cy="12" r="10" fill="#97DE00" fill-opacity="0.3"/>
<path d="M21.8294 12.7896L22.8069 13.0007L21.8294 12.7896ZM21.7442 13.1844L20.7667 12.9733L21.7442 13.1844ZM21.5925 13.9731L22.5785 14.1394L21.5925 13.9731ZM21.526 14.367L20.5399 14.2007L21.526 14.367ZM21.4596 14.7609L22.4457 14.9272L21.4596 14.7609ZM21.1919 15.5001L22.0559 16.0036L21.1919 15.5001ZM20.7893 16.1908L19.9254 15.6873L20.7893 16.1908ZM20.4198 16.9L19.5122 16.4802L20.4198 16.9ZM20.0832 17.6276L20.9908 18.0475L20.0832 17.6276ZM19.7425 18.3909L18.8244 17.9947L19.7425 18.3909ZM19.3978 19.1899L20.3159 19.5861L19.3978 19.1899ZM18.798 19.7128L18.5206 18.752L18.798 19.7128ZM18.3705 19.8362L18.6479 20.797L18.3705 19.8362ZM17.9431 19.9596L18.2205 20.9204L17.9431 19.9596ZM17.148 20.2282L16.7809 19.298L17.148 20.2282ZM16.7803 20.3733L16.4132 19.4431L16.7803 20.3733ZM16.4126 20.5184L16.7797 21.4486L16.4126 20.5184ZM15.753 21.0483L14.9563 20.4439L15.753 21.0483ZM15.1691 21.8179L15.9658 22.4223L15.1691 21.8179ZM14.4375 22.1185L14.2494 23.1006L14.4375 22.1185ZM13.5583 21.95L13.7465 20.9679L13.5583 21.95ZM12.713 21.9628L12.4804 20.9902L12.713 21.9628ZM11.9015 22.1569L12.1341 23.1294L11.9015 22.1569ZM11.1152 22.0533L10.6488 22.9379L11.1152 22.0533ZM10.7347 21.8527L11.201 20.9681L10.7347 21.8527ZM10.3541 21.652L10.8205 20.7674L10.3541 21.652ZM9.57733 21.3948L9.43598 22.3848L9.57733 21.3948ZM8.78478 21.2817L8.92613 20.2917L8.78478 21.2817ZM7.96369 21.1583L8.11899 20.1704L7.96369 21.1583ZM7.53888 21.0915L7.38359 22.0794L7.53888 21.0915ZM6.41418 20.6325L5.65046 21.2781L6.41418 20.6325ZM5.86406 19.9817L5.10034 20.6273L5.86406 19.9817ZM5.31565 19.3603L4.58094 20.0387L5.31565 19.3603ZM4.76897 18.7682L5.50368 18.0898L4.76897 18.7682ZM4.11226 18.2386L3.59195 19.0926L4.11226 18.2386ZM3.34553 17.7714L2.82521 18.6254L3.34553 17.7714ZM3.06863 16.1091L2.0714 16.0347L3.06863 16.1091ZM2.84683 15.2944L2.05084 15.8997L2.84683 15.2944ZM2.58954 14.9561L1.79354 15.5614L2.58954 14.9561ZM2.33225 14.6177L3.12824 14.0124L2.33225 14.6177ZM1.94721 13.876L0.99388 14.178L1.94721 13.876ZM1.69172 13.0693L2.64505 12.7674L1.69172 13.0693ZM1.75638 12.2611L0.853158 11.8319L1.75638 12.2611ZM2.14119 11.4512L3.04441 11.8804L2.14119 11.4512ZM2.37042 10.6509L1.37473 10.5581L2.37042 10.6509ZM2.77375 7.41581L3.45736 8.14566L2.77375 7.41581ZM4.00436 6.24209L4.71551 6.94513L4.00436 6.24209ZM4.56729 5.67266L5.27844 6.3757L4.56729 5.67266ZM5.17098 5.16231L5.74458 5.98145L5.17098 5.16231ZM5.81541 4.71104L5.24181 3.89191L5.81541 4.71104ZM6.44919 4.25415L7.04521 5.05711L6.44919 4.25415ZM6.76074 4.02289L6.16472 3.21992L6.76074 4.02289ZM7.6952 3.27728L7.02249 2.53738L7.6952 3.27728ZM8.00656 2.9942L7.33384 2.2543L8.00656 2.9942ZM9.03077 2.34922L8.83816 1.36795L9.03077 2.34922ZM9.83376 2.19161L10.0264 3.17288L9.83376 2.19161ZM11.0428 1.9444L10.8387 0.965458L11.0428 1.9444ZM11.4466 1.8602L11.6508 2.83914L11.4466 1.8602ZM13.9393 1.83487L13.8444 2.83036L13.9393 1.83487ZM15.5971 2.13494L16.0173 1.22754L15.5971 2.13494ZM16.3694 2.49264L16.7896 1.58524L16.3694 2.49264ZM17.0325 3.0073L16.2611 3.64365L17.0325 3.0073ZM17.5866 3.67891L16.8152 4.31527L17.5866 3.67891ZM18.0777 4.36435L18.9305 3.84219L18.0777 4.36435ZM18.5058 5.0636L17.6529 5.58575L18.5058 5.0636ZM19.0088 5.67387L19.6786 4.93127L19.0088 5.67387ZM19.2978 5.93452L19.9676 5.19193L19.2978 5.93452ZM19.5869 6.19518L18.9171 6.93777L19.5869 6.19518ZM20.2146 6.72308L19.5951 7.50813L20.2146 6.72308ZM20.892 7.25759L21.5114 6.47254L20.892 7.25759ZM21.093 8.86022L20.0983 8.75767L21.093 8.86022ZM21.2034 9.66894L22.1221 9.27399L21.2034 9.66894ZM21.3597 10.0325L20.441 10.4275L21.3597 10.0325ZM21.516 10.3961L20.5973 10.7911L21.516 10.3961ZM21.8168 11.0698L22.7233 10.6476L21.8168 11.0698ZM22.1056 11.6899L21.1991 12.1121L22.1056 11.6899ZM21.9147 12.3948L22.8922 12.6059L21.9147 12.3948ZM21.8294 12.7896L20.852 12.5785L20.7667 12.9733L21.7442 13.1844L22.7216 13.3955L22.8069 13.0007L21.8294 12.7896ZM21.7442 13.1844L20.7667 12.9733C20.7067 13.2512 20.6532 13.529 20.6064 13.8068L21.5925 13.9731L22.5785 14.1394C22.6203 13.892 22.6679 13.644 22.7216 13.3955L21.7442 13.1844ZM21.5925 13.9731L20.6064 13.8068L20.5399 14.2007L21.526 14.367L22.5121 14.5333L22.5785 14.1394L21.5925 13.9731ZM21.526 14.367L20.5399 14.2007L20.4735 14.5946L21.4596 14.7609L22.4457 14.9272L22.5121 14.5333L21.526 14.367ZM21.4596 14.7609L20.4735 14.5946C20.4493 14.7382 20.4014 14.8704 20.3279 14.9966L21.1919 15.5001L22.0559 16.0036C22.2507 15.6693 22.3813 15.3087 22.4457 14.9272L21.4596 14.7609ZM21.1919 15.5001L20.3279 14.9966L20.1266 15.342L20.9906 15.8455L21.8546 16.349L22.0559 16.0036L21.1919 15.5001ZM20.9906 15.8455L20.1266 15.342L19.9254 15.6873L20.7893 16.1908L21.6533 16.6944L21.8546 16.349L20.9906 15.8455ZM20.7893 16.1908L19.9254 15.6873C19.7753 15.9448 19.6375 16.2092 19.5122 16.4802L20.4198 16.9L21.3274 17.3198C21.4264 17.1058 21.535 16.8973 21.6533 16.6944L20.7893 16.1908ZM20.4198 16.9L19.5122 16.4802L19.3439 16.844L20.2515 17.2638L21.1591 17.6837L21.3274 17.3198L20.4198 16.9ZM20.2515 17.2638L19.3439 16.844L19.1756 17.2078L20.0832 17.6276L20.9908 18.0475L21.1591 17.6837L20.2515 17.2638ZM20.0832 17.6276L19.1756 17.2078C19.0595 17.4588 18.9424 17.7212 18.8244 17.9947L19.7425 18.3909L20.6607 18.7871C20.7725 18.5281 20.8825 18.2816 20.9908 18.0475L20.0832 17.6276ZM19.7425 18.3909L18.8244 17.9947L18.652 18.3942L19.5702 18.7904L20.4883 19.1866L20.6607 18.7871L19.7425 18.3909ZM19.5702 18.7904L18.652 18.3942L18.4796 18.7937L19.3978 19.1899L20.3159 19.5861L20.4883 19.1866L19.5702 18.7904ZM19.3978 19.1899L18.4796 18.7937C18.4771 18.7996 18.4772 18.7977 18.482 18.791C18.487 18.784 18.4946 18.7752 18.5045 18.7666C18.5144 18.758 18.523 18.7526 18.528 18.75C18.5327 18.7475 18.5312 18.749 18.5206 18.752L18.798 19.7128L19.0754 20.6735C19.6401 20.5105 20.0795 20.134 20.3159 19.5861L19.3978 19.1899ZM18.798 19.7128L18.5206 18.752L18.0931 18.8755L18.3705 19.8362L18.6479 20.797L19.0754 20.6735L18.798 19.7128ZM18.3705 19.8362L18.0931 18.8755L17.6657 18.9989L17.9431 19.9596L18.2205 20.9204L18.6479 20.797L18.3705 19.8362ZM17.9431 19.9596L17.6657 18.9989C17.3541 19.0889 17.0588 19.1883 16.7809 19.298L17.148 20.2282L17.5151 21.1583C17.7274 21.0745 17.9622 20.995 18.2205 20.9204L17.9431 19.9596ZM17.148 20.2282L16.7809 19.298L16.4132 19.4431L16.7803 20.3733L17.1474 21.3034L17.5151 21.1583L17.148 20.2282ZM16.7803 20.3733L16.4132 19.4431L16.0455 19.5882L16.4126 20.5184L16.7797 21.4486L17.1474 21.3034L16.7803 20.3733ZM16.4126 20.5184L16.0455 19.5882C15.5959 19.7656 15.2371 20.0738 14.9563 20.4439L15.753 21.0483L16.5496 21.6527C16.6582 21.5097 16.7391 21.4646 16.7797 21.4486L16.4126 20.5184ZM15.753 21.0483L14.9563 20.4439L14.6644 20.8287L15.461 21.4331L16.2577 22.0375L16.5496 21.6527L15.753 21.0483ZM15.461 21.4331L14.6644 20.8287L14.3724 21.2135L15.1691 21.8179L15.9658 22.4223L16.2577 22.0375L15.461 21.4331ZM15.1691 21.8179L14.3724 21.2135C14.3591 21.231 14.3842 21.1917 14.4602 21.1605C14.5411 21.1272 14.6073 21.1328 14.6257 21.1363L14.4375 22.1185L14.2494 23.1006C14.5609 23.1603 14.8956 23.1438 15.2203 23.0104C15.5401 22.879 15.7844 22.6613 15.9658 22.4223L15.1691 21.8179ZM14.4375 22.1185L14.6257 21.1363L14.1861 21.0521L13.9979 22.0342L13.8098 23.0164L14.2494 23.1006L14.4375 22.1185ZM13.9979 22.0342L14.1861 21.0521L13.7465 20.9679L13.5583 21.95L13.3702 22.9322L13.8098 23.0164L13.9979 22.0342ZM13.5583 21.95L13.7465 20.9679C13.3244 20.887 12.8988 20.8902 12.4804 20.9902L12.713 21.9628L12.9456 22.9354C13.0682 22.9061 13.2061 22.9007 13.3702 22.9322L13.5583 21.95ZM12.713 21.9628L12.4804 20.9902L12.0747 21.0873L12.3072 22.0598L12.5398 23.0324L12.9456 22.9354L12.713 21.9628ZM12.3072 22.0598L12.0747 21.0873L11.6689 21.1843L11.9015 22.1569L12.1341 23.1294L12.5398 23.0324L12.3072 22.0598ZM11.9015 22.1569L11.6689 21.1843C11.6463 21.1897 11.6363 21.1885 11.6327 21.188C11.6286 21.1875 11.6126 21.185 11.5816 21.1687L11.1152 22.0533L10.6488 22.9379C11.1098 23.1809 11.6197 23.2524 12.1341 23.1294L11.9015 22.1569ZM11.1152 22.0533L11.5816 21.1687L11.201 20.9681L10.7347 21.8527L10.2683 22.7372L10.6488 22.9379L11.1152 22.0533ZM10.7347 21.8527L11.201 20.9681L10.8205 20.7674L10.3541 21.652L9.88778 22.5366L10.2683 22.7372L10.7347 21.8527ZM10.3541 21.652L10.8205 20.7674C10.4729 20.5842 10.1047 20.46 9.71868 20.4049L9.57733 21.3948L9.43598 22.3848C9.57838 22.4051 9.72797 22.4524 9.88778 22.5366L10.3541 21.652ZM9.57733 21.3948L9.71868 20.4049L9.32241 20.3483L9.18106 21.3382L9.03971 22.3282L9.43598 22.3848L9.57733 21.3948ZM9.18106 21.3382L9.32241 20.3483L8.92613 20.2917L8.78478 21.2817L8.64344 22.2716L9.03971 22.3282L9.18106 21.3382ZM8.78478 21.2817L8.92613 20.2917C8.66693 20.2547 8.39789 20.2143 8.11899 20.1704L7.96369 21.1583L7.8084 22.1462C8.09592 22.1914 8.37427 22.2332 8.64344 22.2716L8.78478 21.2817ZM7.96369 21.1583L8.11899 20.1704L7.69417 20.1037L7.53888 21.0915L7.38359 22.0794L7.8084 22.1462L7.96369 21.1583ZM7.53888 21.0915L7.69417 20.1037L7.26935 20.0369L7.11406 21.0247L6.95877 22.0126L7.38359 22.0794L7.53888 21.0915ZM7.11406 21.0247L7.26935 20.0369C7.22107 20.0293 7.2046 20.0186 7.1779 19.987L6.41418 20.6325L5.65046 21.2781C5.99051 21.6804 6.44063 21.9312 6.95877 22.0126L7.11406 21.0247ZM6.41418 20.6325L7.1779 19.987L6.90284 19.6616L6.13912 20.3071L5.3754 20.9527L5.65046 21.2781L6.41418 20.6325ZM6.13912 20.3071L6.90284 19.6616L6.62777 19.3362L5.86406 19.9817L5.10034 20.6273L5.3754 20.9527L6.13912 20.3071ZM5.86406 19.9817L6.62777 19.3362C6.4355 19.1087 6.24304 18.8906 6.05036 18.6819L5.31565 19.3603L4.58094 20.0387C4.75272 20.2247 4.92586 20.4209 5.10034 20.6273L5.86406 19.9817ZM5.31565 19.3603L6.05036 18.6819L5.77702 18.3859L5.04231 19.0642L4.3076 19.7426L4.58094 20.0387L5.31565 19.3603ZM5.04231 19.0642L5.77702 18.3859L5.50368 18.0898L4.76897 18.7682L4.03426 19.4466L4.3076 19.7426L5.04231 19.0642ZM4.76897 18.7682L5.50368 18.0898C5.25177 17.817 4.95851 17.5832 4.63258 17.3846L4.11226 18.2386L3.59195 19.0926C3.77718 19.2054 3.92172 19.3247 4.03426 19.4466L4.76897 18.7682ZM4.11226 18.2386L4.63258 17.3846L4.24921 17.151L3.7289 18.005L3.20858 18.859L3.59195 19.0926L4.11226 18.2386ZM3.7289 18.005L4.24921 17.151L3.86584 16.9174L3.34553 17.7714L2.82521 18.6254L3.20858 18.859L3.7289 18.005ZM3.34553 17.7714L3.86584 16.9174C3.8781 16.9249 3.92797 16.9619 3.96484 17.0371C3.9999 17.1086 3.99351 17.1543 3.99489 17.1359L2.99765 17.0616L2.00042 16.9873C1.97813 17.2863 2.01789 17.6091 2.16891 17.9172C2.32174 18.2291 2.55737 18.4622 2.82521 18.6254L3.34553 17.7714ZM2.99765 17.0616L3.99489 17.1359L4.03038 16.6596L3.03314 16.5853L2.03591 16.511L2.00042 16.9873L2.99765 17.0616ZM3.03314 16.5853L4.03038 16.6596L4.06587 16.1834L3.06863 16.1091L2.0714 16.0347L2.03591 16.511L3.03314 16.5853ZM3.06863 16.1091L4.06587 16.1834C4.10527 15.6546 3.98063 15.1334 3.64283 14.6891L2.84683 15.2944L2.05084 15.8997C2.05608 15.9066 2.07932 15.9285 2.0714 16.0347L3.06863 16.1091ZM2.84683 15.2944L3.64283 14.6891L3.38553 14.3508L2.58954 14.9561L1.79354 15.5614L2.05084 15.8997L2.84683 15.2944ZM2.58954 14.9561L3.38553 14.3508L3.12824 14.0124L2.33225 14.6177L1.53625 15.223L1.79354 15.5614L2.58954 14.9561ZM2.33225 14.6177L3.12824 14.0124C3.02585 13.8778 2.95089 13.7331 2.90054 13.5741L1.94721 13.876L0.99388 14.178C1.11386 14.5568 1.29559 14.9066 1.53625 15.223L2.33225 14.6177ZM1.94721 13.876L2.90054 13.5741L2.7728 13.1708L1.81947 13.4727L0.866135 13.7746L0.99388 14.178L1.94721 13.876ZM1.81947 13.4727L2.7728 13.1708L2.64505 12.7674L1.69172 13.0693L0.73839 13.3713L0.866135 13.7746L1.81947 13.4727ZM1.69172 13.0693L2.64505 12.7674C2.64203 12.7579 2.6412 12.7524 2.64095 12.7502C2.64071 12.7481 2.64071 12.7468 2.64083 12.7453C2.64094 12.744 2.64214 12.727 2.6596 12.6902L1.75638 12.2611L0.853158 11.8319C0.623384 12.3155 0.57196 12.8458 0.73839 13.3713L1.69172 13.0693ZM1.75638 12.2611L2.6596 12.6902L2.852 12.2853L1.94878 11.8561L1.04556 11.427L0.853158 11.8319L1.75638 12.2611ZM1.94878 11.8561L2.852 12.2853L3.04441 11.8804L2.14119 11.4512L1.23796 11.022L1.04556 11.427L1.94878 11.8561ZM2.14119 11.4512L3.04441 11.8804C3.21656 11.5181 3.32938 11.1379 3.36611 10.7436L2.37042 10.6509L1.37473 10.5581C1.36235 10.691 1.32235 10.8444 1.23796 11.022L2.14119 11.4512ZM2.37042 10.6509L3.36611 10.7436L3.40294 10.3482L2.40725 10.2554L1.41156 10.1627L1.37473 10.5581L2.37042 10.6509ZM2.40725 10.2554L3.40294 10.3482L3.43977 9.95273L2.44408 9.85999L1.44839 9.76725L1.41156 10.1627L2.40725 10.2554ZM2.44408 9.85999L3.43977 9.95273C3.46793 9.65043 3.47929 9.33696 3.47494 9.01302L2.47503 9.02645L1.47512 9.03988C1.47861 9.30009 1.46934 9.5423 1.44839 9.76725L2.44408 9.85999ZM2.47503 9.02645L3.47494 9.01302L3.46905 8.57492L2.46914 8.58835L1.46923 8.60178L1.47512 9.03988L2.47503 9.02645ZM2.46914 8.58835L3.46905 8.57492L3.46317 8.13682L2.46326 8.15025L1.46335 8.16368L1.46923 8.60178L2.46914 8.58835ZM2.46326 8.15025L3.46317 8.13682C3.46301 8.12491 3.46402 8.12066 3.46369 8.12242C3.46332 8.12443 3.46203 8.12984 3.45901 8.13699C3.45598 8.14416 3.45273 8.14945 3.45079 8.15217C3.44899 8.15471 3.45024 8.15233 3.45736 8.14566L2.77375 7.41581L2.09015 6.68596C1.67146 7.07812 1.45569 7.59384 1.46335 8.16368L2.46326 8.15025ZM2.77375 7.41581L3.45736 8.14566L3.77374 7.84933L3.09013 7.11948L2.40653 6.38963L2.09015 6.68596L2.77375 7.41581ZM3.09013 7.11948L3.77374 7.84933L4.09012 7.55299L3.40652 6.82314L2.72291 6.09329L2.40653 6.38963L3.09013 7.11948ZM3.40652 6.82314L4.09012 7.55299C4.30964 7.34738 4.51816 7.14476 4.71551 6.94513L4.00436 6.24209L3.29321 5.53905C3.11528 5.71904 2.92523 5.90378 2.72291 6.09329L3.40652 6.82314ZM4.00436 6.24209L4.71551 6.94513L4.99698 6.66042L4.28583 5.95738L3.57468 5.25434L3.29321 5.53905L4.00436 6.24209ZM4.28583 5.95738L4.99698 6.66042L5.27844 6.3757L4.56729 5.67266L3.85614 4.96962L3.57468 5.25434L4.28583 5.95738ZM4.56729 5.67266L5.27844 6.3757C5.42458 6.22789 5.57989 6.09678 5.74458 5.98145L5.17098 5.16231L4.59737 4.34318C4.33245 4.5287 4.0853 4.73782 3.85614 4.96962L4.56729 5.67266ZM5.17098 5.16231L5.74458 5.98145L6.0668 5.75581L5.4932 4.93668L4.91959 4.11755L4.59737 4.34318L5.17098 5.16231ZM5.4932 4.93668L6.0668 5.75581L6.38902 5.53017L5.81541 4.71104L5.24181 3.89191L4.91959 4.11755L5.4932 4.93668ZM5.81541 4.71104L6.38902 5.53017C6.61127 5.37454 6.83001 5.21685 7.04521 5.05711L6.44919 4.25415L5.85316 3.45118C5.65296 3.59979 5.44918 3.7467 5.24181 3.89191L5.81541 4.71104ZM6.44919 4.25415L7.04521 5.05711L7.35676 4.82585L6.76074 4.02289L6.16472 3.21992L5.85316 3.45118L6.44919 4.25415ZM6.76074 4.02289L7.35676 4.82585L7.66832 4.59459L7.07229 3.79163L6.47627 2.98866L6.16472 3.21992L6.76074 4.02289ZM7.07229 3.79163L7.66832 4.59459C7.90473 4.41911 8.13788 4.22634 8.36792 4.01718L7.6952 3.27728L7.02249 2.53738C6.83739 2.70567 6.65526 2.8558 6.47627 2.98866L7.07229 3.79163ZM7.6952 3.27728L8.36792 4.01718L8.67928 3.7341L8.00656 2.9942L7.33384 2.2543L7.02249 2.53738L7.6952 3.27728ZM8.00656 2.9942L8.67928 3.7341L8.99063 3.45101L8.31792 2.71111L7.6452 1.97121L7.33384 2.2543L8.00656 2.9942ZM8.31792 2.71111L8.99063 3.45101C9.06723 3.38137 9.14005 3.34685 9.22338 3.3305L9.03077 2.34922L8.83816 1.36795C8.38616 1.45667 7.98375 1.6634 7.6452 1.97121L8.31792 2.71111ZM9.03077 2.34922L9.22338 3.3305L9.62487 3.25169L9.43227 2.27042L9.23966 1.28914L8.83816 1.36795L9.03077 2.34922ZM9.43227 2.27042L9.62487 3.25169L10.0264 3.17288L9.83376 2.19161L9.64116 1.21033L9.23966 1.28914L9.43227 2.27042ZM9.83376 2.19161L10.0264 3.17288C10.2979 3.11959 10.5702 3.06447 10.8432 3.00754L10.639 2.0286L10.4349 1.04966C10.1695 1.105 9.90494 1.15856 9.64116 1.21033L9.83376 2.19161ZM10.639 2.0286L10.8432 3.00754L11.247 2.92334L11.0428 1.9444L10.8387 0.965458L10.4349 1.04966L10.639 2.0286ZM11.0428 1.9444L11.247 2.92334L11.6508 2.83914L11.4466 1.8602L11.2425 0.881257L10.8387 0.965458L11.0428 1.9444ZM11.4466 1.8602L11.6508 2.83914C11.8485 2.7979 12.0497 2.77827 12.2556 2.78055L12.2667 1.78061L12.2778 0.780675C11.9286 0.776803 11.5831 0.810228 11.2425 0.881257L11.4466 1.8602ZM12.2667 1.78061L12.2556 2.78055L12.6718 2.78517L12.6829 1.78523L12.694 0.785292L12.2778 0.780675L12.2667 1.78061ZM12.6829 1.78523L12.6718 2.78517L13.0881 2.78979L13.0992 1.78985L13.1103 0.789908L12.694 0.785292L12.6829 1.78523ZM13.0992 1.78985L13.0881 2.78979C13.337 2.79255 13.5891 2.80602 13.8444 2.83036L13.9393 1.83487L14.0342 0.839385C13.7244 0.80985 13.4164 0.793303 13.1103 0.789908L13.0992 1.78985ZM13.9393 1.83487L13.8444 2.83036L14.2683 2.87077L14.3632 1.87528L14.4581 0.879794L14.0342 0.839385L13.9393 1.83487ZM14.3632 1.87528L14.2683 2.87077L14.6921 2.91118L14.787 1.91569L14.8819 0.920202L14.4581 0.879794L14.3632 1.87528ZM14.787 1.91569L14.6921 2.91118C14.8621 2.92738 15.0221 2.9707 15.1768 3.04235L15.5971 2.13494L16.0173 1.22754C15.6571 1.06073 15.2771 0.957875 14.8819 0.920202L14.787 1.91569ZM15.5971 2.13494L15.1768 3.04235L15.5629 3.2212L15.9832 2.31379L16.4035 1.40639L16.0173 1.22754L15.5971 2.13494ZM15.9832 2.31379L15.5629 3.2212L15.9491 3.40004L16.3694 2.49264L16.7896 1.58524L16.4035 1.40639L15.9832 2.31379ZM16.3694 2.49264L15.9491 3.40004C16.0675 3.45488 16.1695 3.53254 16.2611 3.64365L17.0325 3.0073L17.8039 2.37094C17.5262 2.03431 17.1861 1.76887 16.7896 1.58524L16.3694 2.49264ZM17.0325 3.0073L16.2611 3.64365L16.5382 3.97946L17.3096 3.34311L18.081 2.70675L17.8039 2.37094L17.0325 3.0073ZM17.3096 3.34311L16.5382 3.97946L16.8152 4.31527L17.5866 3.67891L18.358 3.04256L18.081 2.70675L17.3096 3.34311ZM17.5866 3.67891L16.8152 4.31527C16.9719 4.50524 17.108 4.69572 17.2248 4.8865L18.0777 4.36435L18.9305 3.84219C18.7619 3.56681 18.5706 3.30034 18.358 3.04256L17.5866 3.67891ZM18.0777 4.36435L17.2248 4.8865L17.4389 5.23612L18.2917 4.71397L19.1446 4.19182L18.9305 3.84219L18.0777 4.36435ZM18.2917 4.71397L17.4389 5.23612L17.6529 5.58575L18.5058 5.0636L19.3586 4.54144L19.1446 4.19182L18.2917 4.71397ZM18.5058 5.0636L17.6529 5.58575C17.8431 5.89635 18.0714 6.17504 18.3391 6.41647L19.0088 5.67387L19.6786 4.93127C19.5609 4.82516 19.4539 4.69701 19.3586 4.54144L18.5058 5.0636ZM19.0088 5.67387L18.3391 6.41647L18.6281 6.67712L19.2978 5.93452L19.9676 5.19193L19.6786 4.93127L19.0088 5.67387ZM19.2978 5.93452L18.6281 6.67712L18.9171 6.93777L19.5869 6.19518L20.2566 5.45258L19.9676 5.19193L19.2978 5.93452ZM19.5869 6.19518L18.9171 6.93777C19.1277 7.12772 19.3539 7.3178 19.5951 7.50813L20.2146 6.72308L20.834 5.93803C20.6236 5.77202 20.4313 5.61017 20.2566 5.45258L19.5869 6.19518ZM20.2146 6.72308L19.5951 7.50813L19.9338 7.77538L20.5533 6.99033L21.1727 6.20529L20.834 5.93803L20.2146 6.72308ZM20.5533 6.99033L19.9338 7.77538L20.2725 8.04263L20.892 7.25759L21.5114 6.47254L21.1727 6.20529L20.5533 6.99033ZM20.892 7.25759L20.2725 8.04263C20.2671 8.03831 20.2337 8.00815 20.2096 7.94948C20.1862 7.89248 20.1912 7.85652 20.1901 7.86742L21.1848 7.96996L22.1795 8.07251C22.2436 7.45049 22.0179 6.87218 21.5114 6.47254L20.892 7.25759ZM21.1848 7.96996L20.1901 7.86742L20.1442 8.31254L21.1389 8.41509L22.1336 8.51764L22.1795 8.07251L21.1848 7.96996ZM21.1389 8.41509L20.1442 8.31254L20.0983 8.75767L21.093 8.86022L22.0877 8.96277L22.1336 8.51764L21.1389 8.41509ZM21.093 8.86022L20.0983 8.75767C20.0525 9.2015 20.1048 9.64529 20.2847 10.0639L21.2034 9.66894L22.1221 9.27399C22.0937 9.20779 22.0723 9.11243 22.0877 8.96277L21.093 8.86022ZM21.2034 9.66894L20.2847 10.0639L20.441 10.4275L21.3597 10.0325L22.2784 9.63759L22.1221 9.27399L21.2034 9.66894ZM21.3597 10.0325L20.441 10.4275L20.5973 10.7911L21.516 10.3961L22.4348 10.0012L22.2784 9.63759L21.3597 10.0325ZM21.516 10.3961L20.5973 10.7911C20.7049 11.0412 20.8092 11.275 20.9103 11.492L21.8168 11.0698L22.7233 10.6476C22.6318 10.4512 22.5356 10.2358 22.4348 10.0012L21.516 10.3961ZM21.8168 11.0698L20.9103 11.492L21.0547 11.8021L21.9612 11.3799L22.8677 10.9577L22.7233 10.6476L21.8168 11.0698ZM21.9612 11.3799L21.0547 11.8021L21.1991 12.1121L22.1056 11.6899L23.0121 11.2677L22.8677 10.9577L21.9612 11.3799ZM22.1056 11.6899L21.1991 12.1121C21.2437 12.2079 21.242 12.2176 21.2315 12.1779C21.2276 12.1631 21.2195 12.1304 21.2136 12.0851C21.2085 12.0456 21.1995 11.957 21.2154 11.8429C21.2303 11.7351 21.2807 11.5119 21.4732 11.3082C21.6917 11.0771 21.9692 11 22.1875 11V12V13C22.4163 13 22.702 12.9197 22.9266 12.6821C23.1252 12.472 23.1795 12.239 23.1963 12.1183C23.227 11.8972 23.1778 11.7149 23.1651 11.6671C23.1273 11.524 23.0638 11.3787 23.0121 11.2677L22.1056 11.6899ZM22.1875 12V11H22.125V12V13H22.1875V12ZM22.125 12V11H22.0625V12V13H22.125V12ZM22.0625 12V11C21.5166 11 21.2439 11.403 21.2071 11.4562C21.1266 11.5727 21.0807 11.6868 21.0578 11.7481C21.0071 11.8835 20.9685 12.0393 20.9373 12.1837L21.9147 12.3948L22.8922 12.6059C22.9178 12.4871 22.9323 12.4455 22.9308 12.4493C22.9293 12.4533 22.9239 12.4674 22.914 12.4882C22.9049 12.5072 22.8853 12.5458 22.8525 12.5931C22.8231 12.6358 22.7585 12.7216 22.6491 12.8042C22.5349 12.8905 22.3338 13 22.0625 13V12ZM21.9147 12.3948L20.9373 12.1837L20.852 12.5785L21.8294 12.7896L22.8069 13.0007L22.8922 12.6059L21.9147 12.3948Z" fill="#97DE00"/>
<circle cx="45" cy="14" r="8" fill="#848484" fill-opacity="0.3"/>
<path d="M52.7287 14.7658L51.7861 14.4318L52.7287 14.7658ZM52.593 15.1487L53.5356 15.4826L52.593 15.1487ZM52.5143 15.9723L53.506 15.8442L52.5143 15.9723ZM52.6282 16.8539L51.6365 16.982L52.6282 16.8539ZM52.3211 17.5534L51.7419 16.7382L52.3211 17.5534ZM51.1359 18.7853L52.1159 18.9847L51.1359 18.7853ZM51.0432 19.2411L52.0231 19.4405L51.0432 19.2411ZM50.9504 19.6969L49.9705 19.4974L50.9504 19.6969ZM50.3848 20.2023L50.4892 21.1968L50.3848 20.2023ZM48.6372 20.5454L49.1451 21.4067L48.6372 20.5454ZM47.9785 20.9338L47.4706 20.0724L47.9785 20.9338ZM47.2784 21.2306L47.5451 22.1944L47.2784 21.2306ZM46.5366 21.4359L46.2699 20.4721L46.5366 21.4359ZM45.7788 21.5945L45.6356 20.6048L45.7788 21.5945ZM45.0049 21.7065L44.8617 20.7168L45.0049 21.7065ZM44.2194 21.7435L44.1718 22.7423L44.2194 21.7435ZM43.4223 21.7055L43.4699 20.7066L43.4223 21.7055ZM41.1031 21.121L40.2437 21.6322L41.1031 21.121ZM40.6412 20.3443L39.7817 20.8555L40.6412 20.3443ZM40.0619 19.757L39.5659 20.6253L40.0619 19.757ZM39.3653 19.3591L39.8613 18.4908L39.3653 19.3591ZM38.6418 18.9147L38.0944 19.7516L38.6418 18.9147ZM38.2667 18.6694L38.8141 17.8325L38.2667 18.6694ZM37.4378 17.7514L36.4543 17.9325L37.4378 17.7514ZM37.2804 16.897L36.297 17.0781L37.2804 16.897ZM36.8758 15.2631L35.9104 15.5239L36.8758 15.2631ZM36.713 14.4375L35.7211 14.5643L36.713 14.4375ZM37.3566 11.1847L36.3756 10.9905L37.3566 11.1847ZM37.8624 9.59004L37.066 8.98516L37.8624 9.59004ZM40.9245 6.67326L40.1208 6.07812L40.9245 6.67326ZM41.6465 6.35026L41.5664 7.34705L41.6465 6.35026ZM44.9901 6.40599L44.6433 5.46807L44.9901 6.40599ZM46.5541 6.16579L46.0594 7.0349L46.5541 6.16579ZM47.2743 6.57571L47.769 5.7066L47.2743 6.57571ZM47.9549 6.99694L47.3954 7.8258L47.9549 6.99694ZM48.5957 7.42948L49.1552 6.60062L48.5957 7.42948ZM50.2751 7.84494L50.1301 8.83437L50.2751 7.84494ZM50.9977 8.23548L50.2289 8.87495L50.9977 8.23548ZM51.2673 8.55961L52.0362 7.92014L51.2673 8.55961ZM51.5369 8.88375L50.7681 9.52322L51.5369 8.88375ZM51.8973 9.62496L52.8744 9.41245L51.8973 9.62496ZM51.988 10.042L51.0108 10.2545L51.988 10.042ZM52.0787 10.4591L53.0558 10.2466L52.0787 10.4591ZM52.3048 11.2493L51.3648 11.5905L52.3048 11.2493ZM52.5756 11.9956L53.5156 11.6545L52.5756 11.9956ZM52.8624 12.7642L53.7963 12.4067L52.8624 12.7642ZM53.1651 13.555L54.099 13.1975L53.1651 13.555ZM53.2373 13.9628L53.0825 12.9749L53.2373 13.9628ZM53.0791 13.9876L53.2339 14.9756L53.0791 13.9876ZM52.8643 14.3829L51.9218 14.0489L52.8643 14.3829ZM52.7287 14.7658L51.7861 14.4318L51.6504 14.8147L52.593 15.1487L53.5356 15.4826L53.6712 15.0998L52.7287 14.7658ZM52.593 15.1487L51.6504 14.8147C51.5027 15.2316 51.4664 15.6658 51.5225 16.1005L52.5143 15.9723L53.506 15.8442C53.4863 15.6912 53.5024 15.5763 53.5356 15.4826L52.593 15.1487ZM52.5143 15.9723L51.5225 16.1005L51.5795 16.5413L52.5712 16.4131L53.563 16.285L53.506 15.8442L52.5143 15.9723ZM52.5712 16.4131L51.5795 16.5413L51.6365 16.982L52.6282 16.8539L53.62 16.7257L53.563 16.285L52.5712 16.4131ZM52.6282 16.8539L51.6365 16.982C51.6365 16.9822 51.6346 16.9675 51.6378 16.9416C51.641 16.9147 51.649 16.8818 51.6643 16.8471C51.6795 16.8123 51.6982 16.7846 51.7152 16.7646C51.7316 16.7453 51.7429 16.7374 51.7419 16.7382L52.3211 17.5534L52.9002 18.3686C53.1438 18.1955 53.3601 17.9596 53.4955 17.6512C53.6311 17.3425 53.6584 17.0231 53.62 16.7257L52.6282 16.8539ZM52.3211 17.5534L51.7419 16.7382L51.3777 16.9969L51.9569 17.8121L52.5361 18.6273L52.9002 18.3686L52.3211 17.5534ZM51.9569 17.8121L51.3777 16.9969L51.0136 17.2556L51.5928 18.0708L52.172 18.886L52.5361 18.6273L51.9569 17.8121ZM51.5928 18.0708L51.0136 17.2556C50.5548 17.5816 50.2662 18.0447 50.156 18.5858L51.1359 18.7853L52.1159 18.9847C52.1246 18.9417 52.1353 18.9233 52.139 18.9175C52.1423 18.9123 52.1497 18.9018 52.172 18.886L51.5928 18.0708ZM51.1359 18.7853L50.156 18.5858L50.0633 19.0416L51.0432 19.2411L52.0231 19.4405L52.1159 18.9847L51.1359 18.7853ZM51.0432 19.2411L50.0633 19.0416L49.9705 19.4974L50.9504 19.6969L51.9303 19.8963L52.0231 19.4405L51.0432 19.2411ZM50.9504 19.6969L49.9705 19.4974C49.9726 19.4871 49.9964 19.3948 50.0963 19.3055C50.1944 19.2178 50.2827 19.2075 50.2805 19.2078L50.3848 20.2023L50.4892 21.1968C50.8022 21.164 51.1424 21.0529 51.429 20.7968C51.7174 20.539 51.8664 20.2106 51.9303 19.8963L50.9504 19.6969ZM50.3848 20.2023L50.2805 19.2078L49.8077 19.2574L49.9121 20.2519L50.0164 21.2465L50.4892 21.1968L50.3848 20.2023ZM49.9121 20.2519L49.8077 19.2574L49.3349 19.307L49.4393 20.3015L49.5436 21.2961L50.0164 21.2465L49.9121 20.2519ZM49.4393 20.3015L49.3349 19.307C48.9109 19.3515 48.4984 19.4662 48.1292 19.684L48.6372 20.5454L49.1451 21.4067C49.215 21.3655 49.3372 21.3177 49.5436 21.2961L49.4393 20.3015ZM48.6372 20.5454L48.1292 19.684L47.7999 19.8782L48.3079 20.7396L48.8158 21.6009L49.1451 21.4067L48.6372 20.5454ZM48.3079 20.7396L47.7999 19.8782L47.4706 20.0724L47.9785 20.9338L48.4865 21.7951L48.8158 21.6009L48.3079 20.7396ZM47.9785 20.9338L47.4706 20.0724C47.3271 20.157 47.1749 20.2217 47.0116 20.2668L47.2784 21.2306L47.5451 22.1944C47.8763 22.1027 48.1909 21.9695 48.4865 21.7951L47.9785 20.9338ZM47.2784 21.2306L47.0116 20.2668L46.6408 20.3695L46.9075 21.3332L47.1742 22.297L47.5451 22.1944L47.2784 21.2306ZM46.9075 21.3332L46.6408 20.3695L46.2699 20.4721L46.5366 21.4359L46.8034 22.3996L47.1742 22.297L46.9075 21.3332ZM46.5366 21.4359L46.2699 20.4721C46.0639 20.5291 45.8526 20.5734 45.6356 20.6048L45.7788 21.5945L45.922 22.5842C46.221 22.5409 46.5149 22.4795 46.8034 22.3996L46.5366 21.4359ZM45.7788 21.5945L45.6356 20.6048L45.2487 20.6608L45.3919 21.6505L45.535 22.6402L45.922 22.5842L45.7788 21.5945ZM45.3919 21.6505L45.2487 20.6608L44.8617 20.7168L45.0049 21.7065L45.1481 22.6962L45.535 22.6402L45.3919 21.6505ZM45.0049 21.7065L44.8617 20.7168C44.6681 20.7448 44.4702 20.7543 44.267 20.7446L44.2194 21.7435L44.1718 22.7423C44.4999 22.758 44.8257 22.7428 45.1481 22.6962L45.0049 21.7065ZM44.2194 21.7435L44.267 20.7446L43.8684 20.7256L43.8209 21.7245L43.7733 22.7234L44.1718 22.7423L44.2194 21.7435ZM43.8209 21.7245L43.8684 20.7256L43.4699 20.7066L43.4223 21.7055L43.3748 22.7044L43.7733 22.7234L43.8209 21.7245ZM43.4223 21.7055L43.4699 20.7066C43.2243 20.695 42.9696 20.6754 42.7057 20.6477L42.6014 21.6422L42.4971 22.6368C42.7964 22.6682 43.089 22.6908 43.3748 22.7044L43.4223 21.7055ZM42.6014 21.6422L42.7057 20.6477L42.2832 20.6034L42.1789 21.5979L42.0746 22.5925L42.4971 22.6368L42.6014 21.6422ZM42.1789 21.5979L42.2832 20.6034L41.8608 20.5591L41.7565 21.5536L41.6522 22.5482L42.0746 22.5925L42.1789 21.5979ZM41.7565 21.5536L41.8608 20.5591C41.8615 20.5592 41.8708 20.5602 41.8859 20.5655C41.9013 20.5709 41.9181 20.5789 41.934 20.5895C41.9685 20.6123 41.9745 20.6298 41.9626 20.6098L41.1031 21.121L40.2437 21.6322C40.547 22.1422 41.0341 22.4833 41.6522 22.5482L41.7565 21.5536ZM41.1031 21.121L41.9626 20.6098L41.7317 20.2215L40.8722 20.7327L40.0127 21.2438L40.2437 21.6322L41.1031 21.121ZM40.8722 20.7327L41.7317 20.2215L41.5007 19.8332L40.6412 20.3443L39.7817 20.8555L40.0127 21.2438L40.8722 20.7327ZM40.6412 20.3443L41.5007 19.8332C41.2698 19.4449 40.9583 19.1174 40.5579 18.8887L40.0619 19.757L39.5659 20.6253C39.63 20.6619 39.7047 20.726 39.7817 20.8555L40.6412 20.3443ZM40.0619 19.757L40.5579 18.8887L40.2096 18.6897L39.7136 19.5581L39.2176 20.4264L39.5659 20.6253L40.0619 19.757ZM39.7136 19.5581L40.2096 18.6897L39.8613 18.4908L39.3653 19.3591L38.8693 20.2274L39.2176 20.4264L39.7136 19.5581ZM39.3653 19.3591L39.8613 18.4908C39.6484 18.3691 39.4244 18.2317 39.1892 18.0779L38.6418 18.9147L38.0944 19.7516C38.3594 19.9249 38.6177 20.0837 38.8693 20.2274L39.3653 19.3591ZM38.6418 18.9147L39.1892 18.0779L38.8141 17.8325L38.2667 18.6694L37.7193 19.5062L38.0944 19.7516L38.6418 18.9147ZM38.2667 18.6694L38.8141 17.8325L38.439 17.5871L37.8916 18.424L37.3442 19.2609L37.7193 19.5062L38.2667 18.6694ZM37.8916 18.424L38.439 17.5871C38.4255 17.5783 38.4192 17.5725 38.4174 17.5708C38.4158 17.5692 38.4171 17.5703 38.4195 17.5739C38.422 17.5775 38.4235 17.5807 38.4241 17.5821C38.4246 17.5833 38.423 17.58 38.4213 17.5703L37.4378 17.7514L36.4543 17.9325C36.5581 18.4959 36.8734 18.9529 37.3442 19.2609L37.8916 18.424ZM37.4378 17.7514L38.4213 17.5703L38.3426 17.1431L37.3591 17.3242L36.3757 17.5053L36.4543 17.9325L37.4378 17.7514ZM37.3591 17.3242L38.3426 17.1431L38.2639 16.7159L37.2804 16.897L36.297 17.0781L36.3757 17.5053L37.3591 17.3242ZM37.2804 16.897L38.2639 16.7159C38.2067 16.4054 38.1384 16.1023 38.0585 15.8067L37.0931 16.0675L36.1277 16.3284C36.1928 16.5691 36.2493 16.8189 36.297 17.0781L37.2804 16.897ZM37.0931 16.0675L38.0585 15.8067L37.9498 15.4045L36.9845 15.6653L36.0191 15.9262L36.1277 16.3284L37.0931 16.0675ZM36.9845 15.6653L37.9498 15.4045L37.8412 15.0023L36.8758 15.2631L35.9104 15.5239L36.0191 15.9262L36.9845 15.6653ZM36.8758 15.2631L37.8412 15.0023C37.7809 14.7793 37.7354 14.5489 37.7049 14.3107L36.713 14.4375L35.7211 14.5643C35.7628 14.8907 35.8258 15.2107 35.9104 15.5239L36.8758 15.2631ZM36.713 14.4375L37.7049 14.3107L37.6508 13.8873L36.6589 14.0141L35.6669 14.1409L35.7211 14.5643L36.713 14.4375ZM36.6589 14.0141L37.6508 13.8873L37.5967 13.4639L36.6047 13.5907L35.6128 13.7175L35.6669 14.1409L36.6589 14.0141ZM36.6047 13.5907L37.5967 13.4639C37.5846 13.3698 37.5967 13.2876 37.639 13.196L36.7314 12.7763L35.8237 12.3566C35.625 12.7862 35.5527 13.247 35.6128 13.7175L36.6047 13.5907ZM36.7314 12.7763L37.639 13.196L37.8198 12.805L36.9121 12.3853L36.0044 11.9657L35.8237 12.3566L36.7314 12.7763ZM36.9121 12.3853L37.8198 12.805L38.0006 12.414L37.0929 11.9944L36.1852 11.5747L36.0044 11.9657L36.9121 12.3853ZM37.0929 11.9944L38.0006 12.414C38.154 12.0821 38.2667 11.7366 38.3375 11.3789L37.3566 11.1847L36.3756 10.9905C36.3359 11.1911 36.2727 11.3854 36.1852 11.5747L37.0929 11.9944ZM37.3566 11.1847L38.3375 11.3789L38.4204 10.9602L37.4395 10.766L36.4585 10.5717L36.3756 10.9905L37.3566 11.1847ZM37.4395 10.766L38.4204 10.9602L38.5033 10.5415L37.5224 10.3472L36.5414 10.153L36.4585 10.5717L37.4395 10.766ZM37.5224 10.3472L38.5033 10.5415C38.5292 10.4108 38.5797 10.299 38.6587 10.1949L37.8624 9.59004L37.066 8.98516C36.8023 9.33241 36.6261 9.72538 36.5414 10.153L37.5224 10.3472ZM37.8624 9.59004L38.6587 10.1949L38.9158 9.85645L38.1195 9.25157L37.3231 8.64669L37.066 8.98516L37.8624 9.59004ZM38.1195 9.25157L38.9158 9.85645L39.1729 9.51798L38.3766 8.9131L37.5802 8.30822L37.3231 8.64669L38.1195 9.25157ZM38.3766 8.9131L39.1729 9.51798C39.2597 9.40373 39.3628 9.31453 39.4895 9.2447L39.0066 8.36899L38.5238 7.49328C38.1532 7.69764 37.8363 7.97117 37.5802 8.30822L38.3766 8.9131ZM39.0066 8.36899L39.4895 9.2447L39.8624 9.03906L39.3796 8.16335L38.8968 7.28764L38.5238 7.49328L39.0066 8.36899ZM39.3796 8.16335L39.8624 9.03906L40.2354 8.83342L39.7526 7.95771L39.2697 7.082L38.8968 7.28764L39.3796 8.16335ZM39.7526 7.95771L40.2354 8.83342C40.6162 8.62343 40.9368 8.33684 41.1955 7.9876L40.3918 7.39246L39.5882 6.79733C39.4918 6.92756 39.3862 7.0178 39.2697 7.082L39.7526 7.95771ZM40.3918 7.39246L41.1955 7.9876L41.4618 7.628L40.6581 7.03286L39.8545 6.43772L39.5882 6.79733L40.3918 7.39246ZM40.6581 7.03286L41.4618 7.628L41.7281 7.26839L40.9245 6.67326L40.1208 6.07812L39.8545 6.43772L40.6581 7.03286ZM40.9245 6.67326L41.7281 7.26839C41.7283 7.26816 41.7027 7.30036 41.6465 7.32552C41.5912 7.35024 41.5555 7.34617 41.5664 7.34705L41.6465 6.35026L41.7265 5.35347C41.0877 5.30215 40.5092 5.55368 40.1208 6.07812L40.9245 6.67326ZM41.6465 6.35026L41.5664 7.34705L42.0221 7.38365L42.1022 6.38687L42.1822 5.39008L41.7265 5.35347L41.6465 6.35026ZM42.1022 6.38687L42.0221 7.38365L42.4778 7.42026L42.5578 6.42347L42.6379 5.42669L42.1822 5.39008L42.1022 6.38687ZM42.5578 6.42347L42.4778 7.42026C42.7873 7.44513 43.0773 7.46569 43.3476 7.48187L43.4074 6.48366L43.4671 5.48544C43.2123 5.47019 42.936 5.45063 42.6379 5.42669L42.5578 6.42347ZM43.4074 6.48366L43.3476 7.48187L43.7414 7.50544L43.8012 6.50723L43.861 5.50902L43.4671 5.48544L43.4074 6.48366ZM43.8012 6.50723L43.7414 7.50544L44.1353 7.52902L44.195 6.53081L44.2548 5.53259L43.861 5.50902L43.8012 6.50723ZM44.195 6.53081L44.1353 7.52902C44.5474 7.55369 44.9506 7.48678 45.337 7.34391L44.9901 6.40599L44.6433 5.46807C44.4946 5.52306 44.3678 5.53936 44.2548 5.53259L44.195 6.53081ZM44.9901 6.40599L45.337 7.34391L45.7382 7.19552L45.3914 6.2576L45.0445 5.31968L44.6433 5.46807L44.9901 6.40599ZM45.3914 6.2576L45.7382 7.19552L46.1395 7.04714L45.7926 6.10921L45.4458 5.17129L45.0445 5.31968L45.3914 6.2576ZM45.7926 6.10921L46.1395 7.04714C46.1483 7.04388 46.149 7.04451 46.1425 7.04551C46.1357 7.04657 46.1242 7.0475 46.1095 7.04641C46.0948 7.04532 46.0816 7.04253 46.0711 7.03923C46.0609 7.03602 46.0569 7.03346 46.0594 7.0349L46.5541 6.16579L47.0487 5.29668C46.5426 5.00865 45.9799 4.97379 45.4458 5.17129L45.7926 6.10921ZM46.5541 6.16579L46.0594 7.0349L46.4196 7.23986L46.9142 6.37075L47.4088 5.50164L47.0487 5.29668L46.5541 6.16579ZM46.9142 6.37075L46.4196 7.23986L46.7797 7.44482L47.2743 6.57571L47.769 5.7066L47.4088 5.50164L46.9142 6.37075ZM47.2743 6.57571L46.7797 7.44482C46.9993 7.56977 47.2044 7.69683 47.3954 7.8258L47.9549 6.99694L48.5144 6.16808C48.2782 6.00869 48.0296 5.85494 47.769 5.7066L47.2743 6.57571ZM47.9549 6.99694L47.3954 7.8258L47.7159 8.04207L48.2753 7.21321L48.8348 6.38435L48.5144 6.16808L47.9549 6.99694ZM48.2753 7.21321L47.7159 8.04207L48.0363 8.25834L48.5957 7.42948L49.1552 6.60062L48.8348 6.38435L48.2753 7.21321ZM48.5957 7.42948L48.0363 8.25834C48.3951 8.50054 48.8008 8.63952 49.2241 8.70157L49.3691 7.71214L49.5142 6.72272C49.3335 6.69623 49.2236 6.64677 49.1552 6.60062L48.5957 7.42948ZM49.3691 7.71214L49.2241 8.70157L49.6771 8.76797L49.8221 7.77854L49.9672 6.78912L49.5142 6.72272L49.3691 7.71214ZM49.8221 7.77854L49.6771 8.76797L50.1301 8.83437L50.2751 7.84494L50.4202 6.85552L49.9672 6.78912L49.8221 7.77854ZM50.2751 7.84494L50.1301 8.83437C50.1786 8.84148 50.2004 8.85204 50.2068 8.85551C50.212 8.85833 50.2184 8.86231 50.2289 8.87495L50.9977 8.23548L51.7666 7.59601C51.415 7.17339 50.9434 6.93221 50.4202 6.85552L50.2751 7.84494ZM50.9977 8.23548L50.2289 8.87495L50.4985 9.19908L51.2673 8.55961L52.0362 7.92014L51.7666 7.59601L50.9977 8.23548ZM51.2673 8.55961L50.4985 9.19908L50.7681 9.52322L51.5369 8.88375L52.3058 8.24428L52.0362 7.92014L51.2673 8.55961ZM51.5369 8.88375L50.7681 9.52322C50.8438 9.61421 50.8933 9.71438 50.9201 9.83747L51.8973 9.62496L52.8744 9.41245C52.7802 8.97944 52.5896 8.58547 52.3058 8.24428L51.5369 8.88375ZM51.8973 9.62496L50.9201 9.83747L51.0108 10.2545L51.988 10.042L52.9651 9.82953L52.8744 9.41245L51.8973 9.62496ZM51.988 10.042L51.0108 10.2545L51.1015 10.6716L52.0787 10.4591L53.0558 10.2466L52.9651 9.82953L51.988 10.042ZM52.0787 10.4591L51.1015 10.6716C51.1708 10.9901 51.2582 11.2967 51.3648 11.5905L52.3048 11.2493L53.2448 10.9082C53.1708 10.7044 53.1075 10.4842 53.0558 10.2466L52.0787 10.4591ZM52.3048 11.2493L51.3648 11.5905L51.5002 11.9636L52.4402 11.6225L53.3802 11.2813L53.2448 10.9082L52.3048 11.2493ZM52.4402 11.6225L51.5002 11.9636L51.6356 12.3368L52.5756 11.9956L53.5156 11.6545L53.3802 11.2813L52.4402 11.6225ZM52.5756 11.9956L51.6356 12.3368C51.728 12.5913 51.8256 12.853 51.9285 13.1216L52.8624 12.7642L53.7963 12.4067C53.6974 12.1482 53.6038 11.8974 53.5156 11.6545L52.5756 11.9956ZM52.8624 12.7642L51.9285 13.1216L52.0798 13.5171L53.0137 13.1596L53.9477 12.8021L53.7963 12.4067L52.8624 12.7642ZM53.0137 13.1596L52.0798 13.5171L52.2311 13.9125L53.1651 13.555L54.099 13.1975L53.9477 12.8021L53.0137 13.1596ZM53.1651 13.555L52.2311 13.9125C52.2773 14.033 52.2795 14.0594 52.2741 14.0291C52.2741 14.0289 52.2482 13.9061 52.2816 13.7378C52.3 13.6454 52.3481 13.4779 52.4857 13.313C52.6404 13.1277 52.8547 13.0106 53.0825 12.9749L53.2373 13.9628L53.3921 14.9508C53.6331 14.913 53.8582 14.7898 54.0213 14.5945C54.1672 14.4195 54.2213 14.238 54.2433 14.1276C54.2839 13.9232 54.2556 13.7484 54.2435 13.6802C54.214 13.514 54.1538 13.3407 54.099 13.1975L53.1651 13.555ZM53.2373 13.9628L53.0825 12.9749L53.0034 12.9873L53.1582 13.9752L53.313 14.9632L53.3921 14.9508L53.2373 13.9628ZM53.1582 13.9752L53.0034 12.9873L52.9243 12.9997L53.0791 13.9876L53.2339 14.9756L53.313 14.9632L53.1582 13.9752ZM53.0791 13.9876L52.9243 12.9997C52.5637 13.0562 52.3533 13.2797 52.2882 13.353C52.2012 13.451 52.1425 13.5502 52.1072 13.6152C52.034 13.7499 51.9729 13.9045 51.9218 14.0489L52.8643 14.3829L53.8069 14.7169C53.8462 14.606 53.8661 14.5671 53.8645 14.57C53.8627 14.5735 53.8564 14.5848 53.8453 14.6015C53.8348 14.6174 53.8147 14.6462 53.7838 14.6809C53.7544 14.714 53.7012 14.7687 53.6215 14.8229C53.5417 14.8772 53.4109 14.9478 53.2339 14.9756L53.0791 13.9876ZM52.8643 14.3829L51.9218 14.0489L51.7861 14.4318L52.7287 14.7658L53.6712 15.0998L53.8069 14.7169L52.8643 14.3829Z" fill="#848484"/>
<circle cx="76" cy="14" r="8" fill="#848484" fill-opacity="0.3"/>
<path d="M83.8223 15.1955L84.8114 15.3425L83.8223 15.1955ZM83.7196 16.0089L82.7251 15.9048L83.7196 16.0089ZM83.6762 16.4238L84.6708 16.5278L83.6762 16.4238ZM83.6328 16.8387L84.6274 16.9427L83.6328 16.8387ZM83.2777 17.5423L82.5981 16.8087L83.2777 17.5423ZM82.9659 17.8311L82.2863 17.0975L82.9659 17.8311ZM82.6542 18.1199L83.3338 18.8535L82.6542 18.1199ZM82.1742 18.7952L81.2573 18.3961L82.1742 18.7952ZM82.0059 19.1818L81.089 18.7826L82.0059 19.1818ZM81.8376 19.5684L82.7544 19.9675L81.8376 19.5684ZM81.3689 20.2541L82.0746 20.9626L81.3689 20.2541ZM80.7681 20.8526L80.0623 20.1441L80.7681 20.8526ZM80.0734 21.3082L79.7047 20.3787L80.0734 21.3082ZM79.2849 21.621L79.6537 22.5505L79.2849 21.621ZM77.5959 21.5912L77.4536 22.5811L77.5959 21.5912ZM76.7746 21.653L76.4719 20.6999L76.7746 21.653ZM76.3848 21.7768L76.6875 22.7299L76.3848 21.7768ZM75.995 21.9006L76.2977 22.8537L75.995 21.9006ZM75.204 21.9627L75.0522 22.9512L75.204 21.9627ZM74.4016 21.8395L74.2498 22.8279L74.4016 21.8395ZM73.5912 21.6955L73.7885 20.7152L73.5912 21.6955ZM72.7729 21.5309L72.9702 20.5506L72.7729 21.5309ZM72.1057 21.1009L72.9087 20.5049L72.1057 21.1009ZM71.5896 20.4056L70.7867 21.0016L71.5896 20.4056ZM70.9168 19.9079L71.257 18.9675L70.9168 19.9079ZM70.0871 19.6077L69.7469 20.5481L70.0871 19.6077ZM69.4463 19.1026L68.6027 19.6396L69.4463 19.1026ZM68.9944 18.3926L69.838 17.8557L68.9944 18.3926ZM68.6622 17.6345L67.6952 17.8892L68.6622 17.6345ZM68.4498 16.8281L67.4828 17.0829L68.4498 16.8281ZM68.1387 16.0402L69.0213 15.5702L68.1387 16.0402ZM67.9338 15.6555L67.0512 16.1255L67.9338 15.6555ZM67.729 15.2708L68.6116 14.8008L67.729 15.2708ZM68.17 11.9885L67.1711 11.9413L68.17 11.9885ZM68.413 11.2311L69.253 11.7737L68.413 11.2311ZM68.6367 10.8849L67.7967 10.3423L68.6367 10.8849ZM69.3255 9.87693L68.5314 9.26916L69.3255 9.87693ZM70.2889 8.59687L69.476 8.01448L70.2889 8.59687ZM70.7662 7.93068L71.5791 8.51307L70.7662 7.93068ZM71.3748 7.4246L71.7984 8.33046L71.3748 7.4246ZM73.5956 6.43569L73.2061 5.5147L73.5956 6.43569ZM75.9835 6.26581L76.2418 7.23187L75.9835 6.26581ZM76.3879 6.15768L76.1296 5.19161L76.3879 6.15768ZM77.6246 5.9637L77.5726 6.96235L77.6246 5.9637ZM78.4804 6.00827L78.4284 7.00692L78.4804 6.00827ZM79.6921 7.19679L78.8621 7.75458L79.6921 7.19679ZM80.2642 7.80814L79.682 8.62119L80.2642 7.80814ZM80.5751 8.03073L81.1572 7.21767L80.5751 8.03073ZM80.8859 8.25333L80.3037 9.06638L80.8859 8.25333ZM81.6229 8.64224L81.2592 9.57378L81.6229 8.64224ZM82.049 8.80856L82.4126 7.87702L82.049 8.80856ZM82.475 8.97488L82.8387 8.04334L82.475 8.97488ZM83.102 9.51656L83.9837 9.04473L83.102 9.51656ZM83.3028 9.89192L84.1845 9.42009L83.3028 9.89192ZM83.5037 10.2673L82.622 10.7391L83.5037 10.2673ZM83.591 11.0984L82.6207 10.8566L83.591 11.0984ZM83.3638 12.01L84.3341 12.2518L83.3638 12.01ZM83.4344 12.8374L84.3304 12.3934L83.4344 12.8374ZM83.8028 13.5807L84.6988 13.1367L83.8028 13.5807ZM83.9902 13.9643L84.9547 13.7001L83.9902 13.9643ZM83.9967 13.9881L83.0323 14.2523L83.9967 13.9881ZM83.9408 14.3985L82.9516 14.2515L83.9408 14.3985ZM83.8815 14.797L82.8924 14.65L82.8332 15.0485L83.8223 15.1955L84.8114 15.3425L84.8707 14.944L83.8815 14.797ZM83.8223 15.1955L82.8332 15.0485C82.7915 15.3289 82.7555 15.6144 82.7251 15.9048L83.7196 16.0089L84.7142 16.113C84.7417 15.8502 84.7741 15.5934 84.8114 15.3425L83.8223 15.1955ZM83.7196 16.0089L82.7251 15.9048L82.6816 16.3197L83.6762 16.4238L84.6708 16.5278L84.7142 16.113L83.7196 16.0089ZM83.6762 16.4238L82.6816 16.3197L82.6382 16.7346L83.6328 16.8387L84.6274 16.9427L84.6708 16.5278L83.6762 16.4238ZM83.6328 16.8387L82.6382 16.7346C82.6356 16.7593 82.6309 16.7688 82.6296 16.7715C82.6281 16.7744 82.6215 16.787 82.5981 16.8087L83.2777 17.5423L83.9573 18.2759C84.3392 17.922 84.5727 17.4653 84.6274 16.9427L83.6328 16.8387ZM83.2777 17.5423L82.5981 16.8087L82.2863 17.0975L82.9659 17.8311L83.6455 18.5647L83.9573 18.2759L83.2777 17.5423ZM82.9659 17.8311L82.2863 17.0975L81.9746 17.3863L82.6542 18.1199L83.3338 18.8535L83.6455 18.5647L82.9659 17.8311ZM82.6542 18.1199L81.9746 17.3863C81.6663 17.672 81.4251 18.0107 81.2573 18.3961L82.1742 18.7952L83.091 19.1944C83.1477 19.0644 83.2265 18.9529 83.3338 18.8535L82.6542 18.1199ZM82.1742 18.7952L81.2573 18.3961L81.089 18.7826L82.0059 19.1818L82.9227 19.581L83.091 19.1944L82.1742 18.7952ZM82.0059 19.1818L81.089 18.7826L80.9207 19.1692L81.8376 19.5684L82.7544 19.9675L82.9227 19.581L82.0059 19.1818ZM81.8376 19.5684L80.9207 19.1692C80.8591 19.3107 80.7747 19.4345 80.6632 19.5456L81.3689 20.2541L82.0746 20.9626C82.3636 20.6748 82.5917 20.3414 82.7544 19.9675L81.8376 19.5684ZM81.3689 20.2541L80.6632 19.5456L80.3628 19.8449L81.0685 20.5534L81.7742 21.2619L82.0746 20.9626L81.3689 20.2541ZM81.0685 20.5534L80.3628 19.8449L80.0623 20.1441L80.7681 20.8526L81.4738 21.5611L81.7742 21.2619L81.0685 20.5534ZM80.7681 20.8526L80.0623 20.1441C79.9583 20.2478 79.8414 20.3244 79.7047 20.3787L80.0734 21.3082L80.4421 22.2377C80.8311 22.0834 81.1773 21.8564 81.4738 21.5611L80.7681 20.8526ZM80.0734 21.3082L79.7047 20.3787L79.3104 20.535L79.6792 21.4646L80.0479 22.3941L80.4421 22.2377L80.0734 21.3082ZM79.6792 21.4646L79.3104 20.535L78.9162 20.6914L79.2849 21.621L79.6537 22.5505L80.0479 22.3941L79.6792 21.4646ZM79.2849 21.621L78.9162 20.6914C78.8202 20.7295 78.7215 20.7428 78.6014 20.7255L78.4591 21.7153L78.3168 22.7051C78.7721 22.7706 79.224 22.721 79.6537 22.5505L79.2849 21.621ZM78.4591 21.7153L78.6014 20.7255L78.1698 20.6634L78.0275 21.6533L77.8852 22.6431L78.3168 22.7051L78.4591 21.7153ZM78.0275 21.6533L78.1698 20.6634L77.7382 20.6014L77.5959 21.5912L77.4536 22.5811L77.8852 22.6431L78.0275 21.6533ZM77.5959 21.5912L77.7382 20.6014C77.3114 20.54 76.8848 20.5687 76.4719 20.6999L76.7746 21.653L77.0773 22.6061C77.1841 22.5722 77.305 22.5597 77.4536 22.5811L77.5959 21.5912ZM76.7746 21.653L76.4719 20.6999L76.0821 20.8237L76.3848 21.7768L76.6875 22.7299L77.0773 22.6061L76.7746 21.653ZM76.3848 21.7768L76.0821 20.8237L75.6923 20.9475L75.995 21.9006L76.2977 22.8537L76.6875 22.7299L76.3848 21.7768ZM75.995 21.9006L75.6923 20.9475C75.5781 20.9838 75.4699 20.9919 75.3559 20.9743L75.204 21.9627L75.0522 22.9512C75.4731 23.0158 75.8923 22.9824 76.2977 22.8537L75.995 21.9006ZM75.204 21.9627L75.3559 20.9743L74.9546 20.9127L74.8028 21.9011L74.651 22.8895L75.0522 22.9512L75.204 21.9627ZM74.8028 21.9011L74.9546 20.9127L74.5534 20.8511L74.4016 21.8395L74.2498 22.8279L74.651 22.8895L74.8028 21.9011ZM74.4016 21.8395L74.5534 20.8511C74.3016 20.8124 74.0466 20.7671 73.7885 20.7152L73.5912 21.6955L73.394 22.6759C73.6814 22.7337 73.9667 22.7844 74.2498 22.8279L74.4016 21.8395ZM73.5912 21.6955L73.7885 20.7152L73.3793 20.6329L73.1821 21.6132L72.9849 22.5936L73.394 22.6759L73.5912 21.6955ZM73.1821 21.6132L73.3793 20.6329L72.9702 20.5506L72.7729 21.5309L72.5757 22.5113L72.9849 22.5936L73.1821 21.6132ZM72.7729 21.5309L72.9702 20.5506C72.959 20.5483 72.9525 20.546 72.9494 20.5448C72.9464 20.5436 72.9447 20.5426 72.9433 20.5417C72.942 20.5409 72.9296 20.533 72.9087 20.5049L72.1057 21.1009L71.3028 21.6969C71.6162 22.1192 72.0506 22.4056 72.5757 22.5113L72.7729 21.5309ZM72.1057 21.1009L72.9087 20.5049L72.6507 20.1573L71.8477 20.7533L71.0447 21.3493L71.3028 21.6969L72.1057 21.1009ZM71.8477 20.7533L72.6507 20.1573L72.3926 19.8096L71.5896 20.4056L70.7867 21.0016L71.0447 21.3493L71.8477 20.7533ZM71.5896 20.4056L72.3926 19.8096C72.1012 19.4169 71.7145 19.133 71.257 18.9675L70.9168 19.9079L70.5766 20.8482C70.6721 20.8828 70.734 20.9307 70.7867 21.0016L71.5896 20.4056ZM70.9168 19.9079L71.257 18.9675L70.8421 18.8174L70.5019 19.7578L70.1617 20.6981L70.5766 20.8482L70.9168 19.9079ZM70.5019 19.7578L70.8421 18.8174L70.4273 18.6673L70.0871 19.6077L69.7469 20.5481L70.1617 20.6981L70.5019 19.7578ZM70.0871 19.6077L70.4273 18.6673C70.3477 18.6386 70.3159 18.6065 70.2899 18.5657L69.4463 19.1026L68.6027 19.6396C68.878 20.0721 69.2734 20.3767 69.7469 20.5481L70.0871 19.6077ZM69.4463 19.1026L70.2899 18.5657L70.064 18.2107L69.2204 18.7476L68.3768 19.2846L68.6027 19.6396L69.4463 19.1026ZM69.2204 18.7476L70.064 18.2107L69.838 17.8557L68.9944 18.3926L68.1508 18.9296L68.3768 19.2846L69.2204 18.7476ZM68.9944 18.3926L69.838 17.8557C69.7423 17.7053 69.6735 17.5477 69.6292 17.3797L68.6622 17.6345L67.6952 17.8892C67.7926 18.2588 67.9452 18.6066 68.1508 18.9296L68.9944 18.3926ZM68.6622 17.6345L69.6292 17.3797L69.523 16.9765L68.556 17.2313L67.589 17.4861L67.6952 17.8892L68.6622 17.6345ZM68.556 17.2313L69.523 16.9765L69.4168 16.5733L68.4498 16.8281L67.4828 17.0829L67.589 17.4861L68.556 17.2313ZM68.4498 16.8281L69.4168 16.5733C69.3254 16.2264 69.1926 15.8918 69.0213 15.5702L68.1387 16.0402L67.256 16.5102C67.3579 16.7015 67.4325 16.8922 67.4828 17.0829L68.4498 16.8281ZM68.1387 16.0402L69.0213 15.5702L68.8165 15.1855L67.9338 15.6555L67.0512 16.1255L67.256 16.5102L68.1387 16.0402ZM67.9338 15.6555L68.8165 15.1855L68.6116 14.8008L67.729 15.2708L66.8463 15.7408L67.0512 16.1255L67.9338 15.6555ZM67.729 15.2708L68.6116 14.8008C68.6068 14.7917 68.6062 14.7886 68.6069 14.791C68.6077 14.7936 68.6089 14.799 68.6094 14.806C68.6099 14.813 68.6095 14.8178 68.6093 14.819C68.6091 14.82 68.6097 14.8149 68.614 14.803L67.671 14.47L66.7281 14.1371C66.5381 14.675 66.5762 15.2335 66.8463 15.7408L67.729 15.2708ZM67.671 14.47L68.614 14.803L68.7609 14.3869L67.8179 14.054L66.875 13.721L66.7281 14.1371L67.671 14.47ZM67.8179 14.054L68.7609 14.3869L68.9077 13.9709L67.9648 13.6379L67.0218 13.305L66.875 13.721L67.8179 14.054ZM67.9648 13.6379L68.9077 13.9709C69.0358 13.6081 69.1121 13.2363 69.13 12.858L68.1311 12.8108L67.1322 12.7636C67.1242 12.9334 67.0896 13.1131 67.0218 13.305L67.9648 13.6379ZM68.1311 12.8108L69.13 12.858L69.1494 12.4468L68.1505 12.3996L67.1517 12.3524L67.1322 12.7636L68.1311 12.8108ZM68.1505 12.3996L69.1494 12.4468L69.1689 12.0357L68.17 11.9885L67.1711 11.9413L67.1517 12.3524L68.1505 12.3996ZM68.17 11.9885L69.1689 12.0357C69.1735 11.9381 69.1995 11.8565 69.253 11.7737L68.413 11.2311L67.5731 10.6885C67.3283 11.0673 67.1924 11.4907 67.1711 11.9413L68.17 11.9885ZM68.413 11.2311L69.253 11.7737L69.4766 11.4276L68.6367 10.8849L67.7967 10.3423L67.5731 10.6885L68.413 11.2311ZM68.6367 10.8849L69.4766 11.4276L69.7003 11.0814L68.8603 10.5388L68.0203 9.99615L67.7967 10.3423L68.6367 10.8849ZM68.8603 10.5388L69.7003 11.0814C69.8355 10.8721 69.9753 10.6733 70.1196 10.4847L69.3255 9.87693L68.5314 9.26916C68.3536 9.50146 68.1833 9.74386 68.0203 9.99615L68.8603 10.5388ZM69.3255 9.87693L70.1196 10.4847L70.3612 10.169L69.5671 9.56128L68.773 8.95351L68.5314 9.26916L69.3255 9.87693ZM69.5671 9.56128L70.3612 10.169L70.6028 9.85339L69.8087 9.24562L69.0146 8.63785L68.773 8.95351L69.5671 9.56128ZM69.8087 9.24562L70.6028 9.85339C70.7704 9.63435 70.9368 9.40963 71.1018 9.17927L70.2889 8.59687L69.476 8.01448C69.3228 8.22825 69.169 8.43603 69.0146 8.63785L69.8087 9.24562ZM70.2889 8.59687L71.1018 9.17927L71.3404 8.84617L70.5275 8.26378L69.7146 7.68138L69.476 8.01448L70.2889 8.59687ZM70.5275 8.26378L71.3404 8.84617L71.5791 8.51307L70.7662 7.93068L69.9533 7.34829L69.7146 7.68138L70.5275 8.26378ZM70.7662 7.93068L71.5791 8.51307C71.6386 8.42996 71.7076 8.37288 71.7984 8.33046L71.3748 7.4246L70.9512 6.51873C70.5487 6.70696 70.2119 6.98728 69.9533 7.34829L70.7662 7.93068ZM71.3748 7.4246L71.7984 8.33046L72.1683 8.15747L71.7447 7.25161L71.3212 6.34574L70.9512 6.51873L71.3748 7.4246ZM71.7447 7.25161L72.1683 8.15747L72.5383 7.98448L72.1147 7.07862L71.6911 6.17275L71.3212 6.34574L71.7447 7.25161ZM72.1147 7.07862L72.5383 7.98448C72.7739 7.87433 73.0093 7.7695 73.2446 7.66998L72.855 6.74898L72.4654 5.82799C72.2069 5.93733 71.9488 6.05226 71.6911 6.17275L72.1147 7.07862ZM72.855 6.74898L73.2446 7.66998L73.6149 7.51333L73.2253 6.59234L72.8357 5.67134L72.4654 5.82799L72.855 6.74898ZM73.2253 6.59234L73.6149 7.51333L73.9852 7.35668L73.5956 6.43569L73.2061 5.5147L72.8357 5.67134L73.2253 6.59234ZM73.5956 6.43569L73.9852 7.35668C74.0899 7.3124 74.1943 7.29421 74.3105 7.30104L74.3692 6.30277L74.428 5.30449C74.0065 5.2797 73.5952 5.35012 73.2061 5.5147L73.5956 6.43569ZM74.3692 6.30277L74.3105 7.30104L74.7138 7.32476L74.7725 6.32649L74.8312 5.32822L74.428 5.30449L74.3692 6.30277ZM74.7725 6.32649L74.7138 7.32476L75.1171 7.34849L75.1758 6.35021L75.2345 5.35194L74.8312 5.32822L74.7725 6.32649ZM75.1758 6.35021L75.1171 7.34849C75.4965 7.37081 75.8727 7.33056 76.2418 7.23187L75.9835 6.26581L75.7252 5.29974C75.5551 5.34523 75.3928 5.36125 75.2345 5.35194L75.1758 6.35021ZM75.9835 6.26581L76.2418 7.23187L76.6462 7.12375L76.3879 6.15768L76.1296 5.19161L75.7252 5.29974L75.9835 6.26581ZM76.3879 6.15768L76.6462 7.12375L77.0506 7.01562L76.7923 6.04955L76.534 5.08348L76.1296 5.19161L76.3879 6.15768ZM76.7923 6.04955L77.0506 7.01562C77.2168 6.9712 77.3894 6.95281 77.5726 6.96235L77.6246 5.9637L77.6767 4.96506C77.2894 4.94489 76.9071 4.98373 76.534 5.08348L76.7923 6.04955ZM77.6246 5.9637L77.5726 6.96235L78.0005 6.98463L78.0525 5.98599L78.1045 4.98734L77.6767 4.96506L77.6246 5.9637ZM78.0525 5.98599L78.0005 6.98463L78.4284 7.00692L78.4804 6.00827L78.5324 5.00962L78.1045 4.98734L78.0525 5.98599ZM78.4804 6.00827L78.4284 7.00692C78.4265 7.00682 78.4165 7.00602 78.4011 7.00148C78.3854 6.99685 78.3692 6.98983 78.3544 6.98101C78.3229 6.9622 78.3212 6.94968 78.3396 6.97709L79.1696 6.4193L79.9995 5.86151C79.6688 5.3693 79.1643 5.04253 78.5324 5.00962L78.4804 6.00827ZM79.1696 6.4193L78.3396 6.97709L78.6008 7.36584L79.4308 6.80805L80.2608 6.25026L79.9995 5.86151L79.1696 6.4193ZM79.4308 6.80805L78.6008 7.36584L78.8621 7.75458L79.6921 7.19679L80.5221 6.63901L80.2608 6.25026L79.4308 6.80805ZM79.6921 7.19679L78.8621 7.75458C79.0884 8.09137 79.3585 8.38951 79.682 8.62119L80.2642 7.80814L80.8464 6.99508C80.7554 6.92997 80.6441 6.82055 80.5221 6.63901L79.6921 7.19679ZM80.2642 7.80814L79.682 8.62119L79.9929 8.84379L80.5751 8.03073L81.1572 7.21767L80.8464 6.99508L80.2642 7.80814ZM80.5751 8.03073L79.9929 8.84379L80.3037 9.06638L80.8859 8.25333L81.4681 7.44027L81.1572 7.21767L80.5751 8.03073ZM80.8859 8.25333L80.3037 9.06638C80.5903 9.27158 80.9123 9.43837 81.2592 9.57378L81.6229 8.64224L81.9865 7.7107C81.7653 7.62435 81.596 7.53187 81.4681 7.44027L80.8859 8.25333ZM81.6229 8.64224L81.2592 9.57378L81.6853 9.7401L82.049 8.80856L82.4126 7.87702L81.9865 7.7107L81.6229 8.64224ZM82.049 8.80856L81.6853 9.7401L82.1114 9.90642L82.475 8.97488L82.8387 8.04334L82.4126 7.87702L82.049 8.80856ZM82.475 8.97488L82.1114 9.90642C82.1913 9.93763 82.2075 9.96449 82.2203 9.98839L83.102 9.51656L83.9837 9.04473C83.7286 8.56815 83.3268 8.23389 82.8387 8.04334L82.475 8.97488ZM83.102 9.51656L82.2203 9.98839L82.4212 10.3638L83.3028 9.89192L84.1845 9.42009L83.9837 9.04473L83.102 9.51656ZM83.3028 9.89192L82.4212 10.3638L82.622 10.7391L83.5037 10.2673L84.3854 9.79545L84.1845 9.42009L83.3028 9.89192ZM83.5037 10.2673L82.622 10.7391C82.6292 10.7524 82.6307 10.7597 82.6314 10.7672C82.6324 10.7763 82.6338 10.8039 82.6207 10.8566L83.591 11.0984L84.5613 11.3403C84.6903 10.8226 84.6488 10.2876 84.3854 9.79545L83.5037 10.2673ZM83.591 11.0984L82.6207 10.8566L82.5071 11.3124L83.4774 11.5542L84.4477 11.796L84.5613 11.3403L83.591 11.0984ZM83.4774 11.5542L82.5071 11.3124L82.3935 11.7681L83.3638 12.01L84.3341 12.2518L84.4477 11.796L83.4774 11.5542ZM83.3638 12.01L82.3935 11.7681C82.2685 12.2698 82.2963 12.793 82.5384 13.2814L83.4344 12.8374L84.3304 12.3934C84.3269 12.3863 84.3077 12.3579 84.3341 12.2518L83.3638 12.01ZM83.4344 12.8374L82.5384 13.2814L82.7226 13.6531L83.6186 13.2091L84.5146 12.765L84.3304 12.3934L83.4344 12.8374ZM83.6186 13.2091L82.7226 13.6531L82.9068 14.0247L83.8028 13.5807L84.6988 13.1367L84.5146 12.765L83.6186 13.2091ZM83.8028 13.5807L82.9068 14.0247C82.9679 14.1482 83.0133 14.2401 83.0433 14.3015C83.0585 14.3326 83.0685 14.3534 83.0744 14.3657C83.0776 14.3724 83.0778 14.3729 83.0763 14.3698C83.0758 14.3687 83.0726 14.3616 83.0683 14.3514C83.0662 14.3465 83.0619 14.3361 83.0566 14.3225C83.054 14.3156 83.05 14.305 83.0454 14.2919C83.0414 14.2803 83.0337 14.2576 83.0257 14.2284L83.9902 13.9643L84.9547 13.7001C84.9409 13.6496 84.9258 13.611 84.923 13.6038C84.9174 13.5893 84.9126 13.5777 84.9099 13.5713C84.9044 13.5583 84.8994 13.5474 84.8968 13.5416C84.8911 13.5289 84.885 13.5162 84.8802 13.5059C84.8698 13.4843 84.8562 13.4562 84.8402 13.4233C84.8077 13.3569 84.7604 13.261 84.6988 13.1367L83.8028 13.5807ZM83.9902 13.9643L83.0257 14.2284L83.029 14.2403L83.9935 13.9762L84.9579 13.712L84.9547 13.7001L83.9902 13.9643ZM83.9935 13.9762L83.029 14.2403L83.0323 14.2523L83.9967 13.9881L84.9612 13.7239L84.9579 13.712L83.9935 13.9762ZM83.9967 13.9881L83.0323 14.2523C83.0235 14.2202 83.0176 14.1924 83.0136 14.171C83.0096 14.1492 83.0068 14.1302 83.0048 14.1149C83.001 14.085 82.9993 14.0602 82.9984 14.0437C82.9966 14.0114 82.9968 13.986 82.9971 13.9733C82.9973 13.9588 82.9979 13.9472 82.9983 13.9399C82.9987 13.9322 82.9991 13.926 82.9994 13.9218C83 13.9137 83.0006 13.9081 83.0007 13.9064C83.0009 13.9044 83.001 13.9038 83.0009 13.9051C83.0001 13.912 82.9979 13.9294 82.9935 13.9615C82.9851 14.0238 82.9712 14.1196 82.9516 14.2515L83.9408 14.3985L84.9299 14.5455C84.9498 14.4117 84.965 14.3063 84.9752 14.2318C84.9802 14.1955 84.9847 14.1606 84.988 14.1314C84.9896 14.118 84.9919 14.0963 84.9937 14.0724C84.9945 14.0617 84.9962 14.0381 84.9967 14.0089C84.997 13.9947 84.9972 13.968 84.9954 13.9347C84.9944 13.9165 84.9902 13.8298 84.9612 13.7239L83.9967 13.9881ZM83.9408 14.3985L82.9516 14.2515L82.8924 14.65L83.8815 14.797L84.8707 14.944L84.9299 14.5455L83.9408 14.3985Z" fill="#848484"/>
<circle cx="107" cy="14" r="8" fill="#848484" fill-opacity="0.3"/>
<path d="M115.182 14.8583L116.16 14.6513L115.182 14.8583ZM115.272 15.2874L114.294 15.4943L115.272 15.2874ZM115.203 16.115L114.275 15.7419L115.203 16.115ZM114.882 16.912L115.81 17.2851L114.882 16.912ZM114.382 17.5887L115.016 18.3623L114.382 17.5887ZM113.703 18.145L113.069 17.3713L113.703 18.145ZM113.094 18.706L112.37 18.017L113.094 18.706ZM112.826 18.9888L113.55 19.6778L112.826 18.9888ZM112.557 19.2716L111.832 18.5826L112.557 19.2716ZM112.048 19.8978L111.228 19.3246L112.048 19.8978ZM111.568 20.5844L112.387 21.1575L111.568 20.5844ZM110.941 21.0673L111.281 22.0078L110.941 21.0673ZM110.169 21.3462L110.508 22.2868L110.169 21.3462ZM109.382 21.5248L109.479 22.5201L109.382 21.5248ZM108.982 21.5639L108.885 20.5686L108.982 21.5639ZM108.582 21.6029L108.485 20.6077L108.582 21.6029ZM107.785 21.7935L107.428 20.8592L107.785 21.7935ZM107.388 21.9449L107.745 22.8792L107.388 21.9449ZM106.991 22.0964L106.635 21.1622L106.991 22.0964ZM106.229 21.9998L105.667 22.8269L106.229 21.9998ZM105.864 21.7518L106.426 20.9247L105.864 21.7518ZM105.499 21.5037L104.937 22.3308L105.499 21.5037ZM104.777 21.1289L104.443 22.0712L104.777 21.1289ZM104.063 20.8753L104.398 19.9329L104.063 20.8753ZM103.362 20.5768L102.916 21.4718L103.362 20.5768ZM103.017 20.4052L103.463 19.5102L103.017 20.4052ZM102.673 20.2335L102.227 21.1286L102.673 20.2335ZM101.983 19.8513L101.463 20.705L101.983 19.8513ZM101.293 19.4302L101.814 18.5765L101.293 19.4302ZM100.637 18.9329L101.316 18.1981L100.637 18.9329ZM100.016 18.3594L99.338 19.0942L100.016 18.3594ZM99.5575 15.9101L98.8358 16.6024L99.5575 15.9101ZM99.2285 15.5672L98.5069 16.2594L99.2285 15.5672ZM98.8996 15.2242L99.6212 14.532L98.8996 15.2242ZM98.7029 14.4661L99.6557 14.7698L98.7029 14.4661ZM98.9675 13.6359L98.0147 13.3322L98.9675 13.6359ZM99.2848 12.8603L98.3952 12.4036L99.2848 12.8603ZM99.9978 11.4357L100.906 11.8535L99.9978 11.4357ZM100.552 9.98289L99.5702 9.79467L100.552 9.98289ZM100.715 9.13618L99.7324 8.94797L100.715 9.13618ZM101.181 8.54054L100.773 7.62757L101.181 8.54054ZM103.323 7.43698L102.811 6.57778L103.323 7.43698ZM103.948 6.87837L103.173 6.24585L103.948 6.87837ZM104.244 6.51532L103.47 5.8828L104.244 6.51532ZM104.541 6.15228L105.315 6.7848L104.541 6.15228ZM105.272 5.926L104.972 6.87995L105.272 5.926ZM106.142 6.19953L105.842 7.15348L106.142 6.19953ZM108.62 5.95456L108.467 6.94281L108.62 5.95456ZM110.126 6.52488L109.304 7.09318L110.126 6.52488ZM110.387 6.90246L111.21 6.33416L110.387 6.90246ZM110.648 7.28004L109.825 7.84834L110.648 7.28004ZM111.327 7.75964L111.09 8.73119L111.327 7.75964ZM111.746 7.86167L111.983 6.89013L111.746 7.86167ZM112.164 7.9637L111.927 8.93525L112.164 7.9637ZM113.294 8.567L112.717 9.38424L113.294 8.567ZM113.649 8.81763L114.225 8.0004L113.649 8.81763ZM114.121 9.48752L115.084 9.22039L114.121 9.48752ZM114.353 10.326L113.39 10.5932L114.353 10.326ZM114.538 11.1494L115.524 10.9812L114.538 11.1494ZM114.676 11.9575L113.69 12.1257L114.676 11.9575ZM114.886 12.7588L115.828 12.425L114.886 12.7588ZM115.167 13.5533L116.11 13.2194L115.167 13.5533ZM115.231 13.9629L115.072 12.9755L115.231 13.9629ZM115.154 13.9752L114.995 12.9879L115.154 13.9752ZM115.077 13.9876L114.918 13.0003L115.077 13.9876ZM115.091 14.4291L116.069 14.2222L115.091 14.4291ZM115.182 14.8583L114.203 15.0652L114.294 15.4943L115.272 15.2874L116.251 15.0805L116.16 14.6513L115.182 14.8583ZM115.272 15.2874L114.294 15.4943C114.314 15.5907 114.306 15.6644 114.275 15.7419L115.203 16.115L116.131 16.4881C116.313 16.0343 116.351 15.5563 116.251 15.0805L115.272 15.2874ZM115.203 16.115L114.275 15.7419L114.115 16.1404L115.043 16.5135L115.97 16.8866L116.131 16.4881L115.203 16.115ZM115.043 16.5135L114.115 16.1404L113.955 16.5389L114.882 16.912L115.81 17.2851L115.97 16.8866L115.043 16.5135ZM114.882 16.912L113.955 16.5389C113.912 16.6448 113.848 16.7337 113.749 16.815L114.382 17.5887L115.016 18.3623C115.37 18.0727 115.639 17.7105 115.81 17.2851L114.882 16.912ZM114.382 17.5887L113.749 16.815L113.409 17.0932L114.043 17.8668L114.676 18.6405L115.016 18.3623L114.382 17.5887ZM114.043 17.8668L113.409 17.0932L113.069 17.3713L113.703 18.145L114.337 18.9187L114.676 18.6405L114.043 17.8668ZM113.703 18.145L113.069 17.3713C112.815 17.5799 112.581 17.7949 112.37 18.017L113.094 18.706L113.819 19.395C113.967 19.24 114.138 19.081 114.337 18.9187L113.703 18.145ZM113.094 18.706L112.37 18.017L112.101 18.2998L112.826 18.9888L113.55 19.6778L113.819 19.395L113.094 18.706ZM112.826 18.9888L112.101 18.2998L111.832 18.5826L112.557 19.2716L113.281 19.9606L113.55 19.6778L112.826 18.9888ZM112.557 19.2716L111.832 18.5826C111.616 18.8099 111.415 19.0578 111.228 19.3246L112.048 19.8978L112.867 20.4709C113.001 20.2799 113.139 20.1104 113.281 19.9606L112.557 19.2716ZM112.048 19.8978L111.228 19.3246L110.988 19.668L111.808 20.2411L112.627 20.8142L112.867 20.4709L112.048 19.8978ZM111.808 20.2411L110.988 19.668L110.748 20.0113L111.568 20.5844L112.387 21.1575L112.627 20.8142L111.808 20.2411ZM111.568 20.5844L110.748 20.0113C110.704 20.0748 110.661 20.1053 110.601 20.1267L110.941 21.0673L111.281 22.0078C111.736 21.8433 112.111 21.5518 112.387 21.1575L111.568 20.5844ZM110.941 21.0673L110.601 20.1267L110.215 20.2662L110.555 21.2067L110.894 22.1473L111.281 22.0078L110.941 21.0673ZM110.555 21.2067L110.215 20.2662L109.829 20.4057L110.169 21.3462L110.508 22.2868L110.894 22.1473L110.555 21.2067ZM110.169 21.3462L109.829 20.4057C109.648 20.471 109.467 20.5117 109.285 20.5295L109.382 21.5248L109.479 22.5201C109.831 22.4858 110.174 22.4074 110.508 22.2868L110.169 21.3462ZM109.382 21.5248L109.285 20.5295L108.885 20.5686L108.982 21.5639L109.079 22.5591L109.479 22.5201L109.382 21.5248ZM108.982 21.5639L108.885 20.5686L108.485 20.6077L108.582 21.6029L108.679 22.5982L109.079 22.5591L108.982 21.5639ZM108.582 21.6029L108.485 20.6077C108.124 20.6429 107.771 20.7282 107.428 20.8592L107.785 21.7935L108.141 22.7277C108.327 22.6568 108.506 22.6151 108.679 22.5982L108.582 21.6029ZM107.785 21.7935L107.428 20.8592L107.031 21.0107L107.388 21.9449L107.745 22.8792L108.141 22.7277L107.785 21.7935ZM107.388 21.9449L107.031 21.0107L106.635 21.1622L106.991 22.0964L107.348 23.0307L107.745 22.8792L107.388 21.9449ZM106.991 22.0964L106.635 21.1622C106.635 21.162 106.645 21.1583 106.663 21.1559C106.682 21.1534 106.704 21.1529 106.728 21.1559C106.779 21.1624 106.802 21.1801 106.791 21.1727L106.229 21.9998L105.667 22.8269C106.168 23.1674 106.764 23.2535 107.348 23.0307L106.991 22.0964ZM106.229 21.9998L106.791 21.1727L106.426 20.9247L105.864 21.7518L105.302 22.5789L105.667 22.8269L106.229 21.9998ZM105.864 21.7518L106.426 20.9247L106.061 20.6766L105.499 21.5037L104.937 22.3308L105.302 22.5789L105.864 21.7518ZM105.499 21.5037L106.061 20.6766C105.759 20.471 105.442 20.3039 105.112 20.1866L104.777 21.1289L104.443 22.0712C104.588 22.123 104.753 22.2057 104.937 22.3308L105.499 21.5037ZM104.777 21.1289L105.112 20.1866L104.755 20.0597L104.42 21.0021L104.086 21.9444L104.443 22.0712L104.777 21.1289ZM104.42 21.0021L104.755 20.0597L104.398 19.9329L104.063 20.8753L103.729 21.8176L104.086 21.9444L104.42 21.0021ZM104.063 20.8753L104.398 19.9329C104.199 19.8621 104.002 19.7785 103.808 19.6818L103.362 20.5768L102.916 21.4718C103.181 21.604 103.452 21.7193 103.729 21.8176L104.063 20.8753ZM103.362 20.5768L103.808 19.6818L103.463 19.5102L103.017 20.4052L102.571 21.3002L102.916 21.4718L103.362 20.5768ZM103.017 20.4052L103.463 19.5102L103.119 19.3385L102.673 20.2335L102.227 21.1286L102.571 21.3002L103.017 20.4052ZM102.673 20.2335L103.119 19.3385C102.916 19.2374 102.711 19.124 102.504 18.9977L101.983 19.8513L101.463 20.705C101.716 20.8595 101.971 21.0008 102.227 21.1286L102.673 20.2335ZM101.983 19.8513L102.504 18.9977L102.159 18.7871L101.638 19.6407L101.117 20.4944L101.463 20.705L101.983 19.8513ZM101.638 19.6407L102.159 18.7871L101.814 18.5765L101.293 19.4302L100.772 20.2838L101.117 20.4944L101.638 19.6407ZM101.293 19.4302L101.814 18.5765C101.643 18.472 101.477 18.3465 101.316 18.1981L100.637 18.9329L99.9591 19.6676C100.212 19.9015 100.483 20.1075 100.772 20.2838L101.293 19.4302ZM100.637 18.9329L101.316 18.1981L101.005 17.9114L100.327 18.6461L99.6486 19.3809L99.9591 19.6676L100.637 18.9329ZM100.327 18.6461L101.005 17.9114L100.695 17.6247L100.016 18.3594L99.338 19.0942L99.6486 19.3809L100.327 18.6461ZM100.016 18.3594L100.695 17.6247C100.696 17.626 100.703 17.633 100.712 17.6466C100.722 17.6604 100.73 17.6766 100.736 17.6937C100.749 17.7303 100.743 17.7444 100.746 17.7166L99.751 17.6178L98.7558 17.519C98.6977 18.1049 98.8795 18.6709 99.338 19.0942L100.016 18.3594ZM99.751 17.6178L100.746 17.7166L100.791 17.2617L99.7961 17.1629L98.801 17.0641L98.7558 17.519L99.751 17.6178ZM99.7961 17.1629L100.791 17.2617L100.836 16.8068L99.8413 16.708L98.8462 16.6092L98.801 17.0641L99.7961 17.1629ZM99.8413 16.708L100.836 16.8068C100.897 16.1996 100.692 15.648 100.279 15.2179L99.5575 15.9101L98.8358 16.6024C98.8484 16.6155 98.8534 16.6231 98.8543 16.6245C98.855 16.6256 98.8531 16.6227 98.8508 16.6162C98.8484 16.6097 98.8473 16.6037 98.8469 16.6001C98.8465 16.5967 98.8472 16.5992 98.8462 16.6092L99.8413 16.708ZM99.5575 15.9101L100.279 15.2179L99.9502 14.8749L99.2285 15.5672L98.5069 16.2594L98.8358 16.6024L99.5575 15.9101ZM99.2285 15.5672L99.9502 14.8749L99.6212 14.532L98.8996 15.2242L98.1779 15.9164L98.5069 16.2594L99.2285 15.5672ZM98.8996 15.2242L99.6212 14.532C99.6049 14.5149 99.6354 14.5408 99.6539 14.6121C99.6627 14.6462 99.666 14.6806 99.6646 14.7119C99.6633 14.7424 99.658 14.7625 99.6557 14.7698L98.7029 14.4661L97.7501 14.1625C97.6554 14.4597 97.6326 14.7852 97.7179 15.1143C97.802 15.4383 97.9749 15.7048 98.1779 15.9164L98.8996 15.2242ZM98.7029 14.4661L99.6557 14.7698L99.788 14.3546L98.8352 14.051L97.8824 13.7474L97.7501 14.1625L98.7029 14.4661ZM98.8352 14.051L99.788 14.3546L99.9203 13.9395L98.9675 13.6359L98.0147 13.3322L97.8824 13.7474L98.8352 14.051ZM98.9675 13.6359L99.9203 13.9395C99.9929 13.7115 100.078 13.5046 100.174 13.317L99.2848 12.8603L98.3952 12.4036C98.2448 12.6966 98.1184 13.0067 98.0147 13.3322L98.9675 13.6359ZM99.2848 12.8603L100.174 13.317L100.359 12.9565L99.4699 12.4998L98.5802 12.0431L98.3952 12.4036L99.2848 12.8603ZM99.4699 12.4998L100.359 12.9565L100.545 12.596L99.6549 12.1393L98.7653 11.6827L98.5802 12.0431L99.4699 12.4998ZM99.6549 12.1393L100.545 12.596C100.674 12.3438 100.795 12.0963 100.906 11.8535L99.9978 11.4357L99.0892 11.0179C98.9905 11.2327 98.8825 11.4543 98.7653 11.6827L99.6549 12.1393ZM99.9978 11.4357L100.906 11.8535L101.064 11.5104L100.156 11.0926L99.247 10.6748L99.0892 11.0179L99.9978 11.4357ZM100.156 11.0926L101.064 11.5104L101.222 11.1672L100.313 10.7494L99.4048 10.3316L99.247 10.6748L100.156 11.0926ZM100.313 10.7494L101.222 11.1672C101.365 10.8557 101.467 10.5216 101.534 10.1711L100.552 9.98289L99.5702 9.79467C99.5292 10.0086 99.472 10.1856 99.4048 10.3316L100.313 10.7494ZM100.552 9.98289L101.534 10.1711L101.616 9.74775L100.633 9.55953L99.6513 9.37132L99.5702 9.79467L100.552 9.98289ZM100.633 9.55953L101.616 9.74775L101.697 9.32439L100.715 9.13618L99.7324 8.94797L99.6513 9.37132L100.633 9.55953ZM100.715 9.13618L101.697 9.32439C101.698 9.31764 101.692 9.34981 101.659 9.3923C101.644 9.4119 101.627 9.42745 101.612 9.43867C101.598 9.4496 101.589 9.45368 101.589 9.45352L101.181 8.54054L100.773 7.62757C100.211 7.87901 99.8465 8.35285 99.7324 8.94797L100.715 9.13618ZM101.181 8.54054L101.589 9.45352L101.975 9.28123L101.567 8.36826L101.159 7.45528L100.773 7.62757L101.181 8.54054ZM101.567 8.36826L101.975 9.28123L102.36 9.10894L101.952 8.19597L101.544 7.28299L101.159 7.45528L101.567 8.36826ZM101.952 8.19597L102.36 9.10894C102.649 8.97982 102.922 8.83956 103.178 8.68731L102.666 7.82812L102.154 6.96892C101.972 7.07743 101.769 7.1824 101.544 7.28299L101.952 8.19597ZM102.666 7.82812L103.178 8.68731L103.506 8.49174L102.995 7.63255L102.483 6.77335L102.154 6.96892L102.666 7.82812ZM102.995 7.63255L103.506 8.49174L103.835 8.29618L103.323 7.43698L102.811 6.57778L102.483 6.77335L102.995 7.63255ZM103.323 7.43698L103.835 8.29618C104.174 8.09437 104.467 7.82349 104.722 7.51089L103.948 6.87837L103.173 6.24585C103.033 6.41731 102.91 6.51884 102.811 6.57778L103.323 7.43698ZM103.948 6.87837L104.722 7.51089L105.019 7.14784L104.244 6.51532L103.47 5.8828L103.173 6.24585L103.948 6.87837ZM104.244 6.51532L105.019 7.14784L105.315 6.7848L104.541 6.15228L103.766 5.51976L103.47 5.8828L104.244 6.51532ZM104.541 6.15228L105.315 6.7848C105.318 6.78169 105.272 6.83719 105.167 6.86951C105.061 6.90256 104.983 6.8834 104.972 6.87995L105.272 5.926L105.572 4.97205C105.271 4.87742 104.927 4.85038 104.576 4.95886C104.228 5.0666 103.961 5.28084 103.766 5.51976L104.541 6.15228ZM105.272 5.926L104.972 6.87995L105.407 7.01671L105.707 6.06277L106.007 5.10882L105.572 4.97205L105.272 5.926ZM105.707 6.06277L105.407 7.01671L105.842 7.15348L106.142 6.19953L106.442 5.24559L106.007 5.10882L105.707 6.06277ZM106.142 6.19953L105.842 7.15348C106.3 7.29741 106.777 7.31845 107.248 7.18924L106.984 6.22481L106.72 5.26037C106.649 5.27983 106.564 5.28402 106.442 5.24559L106.142 6.19953ZM106.984 6.22481L107.248 7.18924L107.655 7.07774L107.391 6.11331L107.126 5.14888L106.72 5.26037L106.984 6.22481ZM107.391 6.11331L107.655 7.07774L108.062 6.96625L107.797 6.00181L107.533 5.03738L107.126 5.14888L107.391 6.11331ZM107.797 6.00181L108.062 6.96625C108.198 6.92901 108.33 6.92159 108.467 6.94281L108.62 5.95456L108.773 4.96632C108.356 4.90188 107.94 4.92596 107.533 5.03738L107.797 6.00181ZM108.62 5.95456L108.467 6.94281L108.882 7.00706L109.035 6.01881L109.188 5.03056L108.773 4.96632L108.62 5.95456ZM109.035 6.01881L108.882 7.00706L109.297 7.07131L109.45 6.08306L109.603 5.09481L109.188 5.03056L109.035 6.01881ZM109.45 6.08306L109.297 7.07131C109.301 7.07185 109.299 7.07191 109.294 7.07002C109.289 7.06809 109.284 7.06543 109.28 7.06276C109.276 7.06016 109.276 7.05944 109.28 7.063C109.283 7.06673 109.292 7.07589 109.304 7.09318L110.126 6.52488L110.949 5.95658C110.635 5.50185 110.178 5.18374 109.603 5.09481L109.45 6.08306ZM110.126 6.52488L109.304 7.09318L109.564 7.47076L110.387 6.90246L111.21 6.33416L110.949 5.95658L110.126 6.52488ZM110.387 6.90246L109.564 7.47076L109.825 7.84834L110.648 7.28004L111.471 6.71174L111.21 6.33416L110.387 6.90246ZM110.648 7.28004L109.825 7.84834C110.128 8.28741 110.557 8.60111 111.09 8.73119L111.327 7.75964L111.564 6.7881C111.54 6.78214 111.515 6.77611 111.471 6.71174L110.648 7.28004ZM111.327 7.75964L111.09 8.73119L111.509 8.83322L111.746 7.86167L111.983 6.89013L111.564 6.7881L111.327 7.75964ZM111.746 7.86167L111.509 8.83322L111.927 8.93525L112.164 7.9637L112.401 6.99216L111.983 6.89013L111.746 7.86167ZM112.164 7.9637L111.927 8.93525C112.083 8.97328 112.226 9.03807 112.362 9.1336L112.938 8.31637L113.515 7.49913C113.176 7.26049 112.803 7.09017 112.401 6.99216L112.164 7.9637ZM112.938 8.31637L112.362 9.1336L112.717 9.38424L113.294 8.567L113.87 7.74976L113.515 7.49913L112.938 8.31637ZM113.294 8.567L112.717 9.38424L113.073 9.63487L113.649 8.81763L114.225 8.0004L113.87 7.74976L113.294 8.567ZM113.649 8.81763L113.073 9.63487C113.121 9.66878 113.141 9.69766 113.157 9.75465L114.121 9.48752L115.084 9.22039C114.945 8.71837 114.651 8.30066 114.225 8.0004L113.649 8.81763ZM114.121 9.48752L113.157 9.75465L113.273 10.1739L114.237 9.90677L115.201 9.63964L115.084 9.22039L114.121 9.48752ZM114.237 9.90677L113.273 10.1739L113.39 10.5932L114.353 10.326L115.317 10.0589L115.201 9.63964L114.237 9.90677ZM114.353 10.326L113.39 10.5932C113.458 10.842 113.513 11.0834 113.553 11.3175L114.538 11.1494L115.524 10.9812C115.472 10.6765 115.403 10.369 115.317 10.0589L114.353 10.326ZM114.538 11.1494L113.553 11.3175L113.621 11.7216L114.607 11.5534L115.593 11.3853L115.524 10.9812L114.538 11.1494ZM114.607 11.5534L113.621 11.7216L113.69 12.1257L114.676 11.9575L115.662 11.7894L115.593 11.3853L114.607 11.5534ZM114.676 11.9575L113.69 12.1257C113.746 12.453 113.831 12.7755 113.943 13.0927L114.886 12.7588L115.828 12.425C115.753 12.2125 115.698 12.0008 115.662 11.7894L114.676 11.9575ZM114.886 12.7588L113.943 13.0927L114.084 13.4899L115.026 13.156L115.969 12.8222L115.828 12.425L114.886 12.7588ZM115.026 13.156L114.084 13.4899L114.225 13.8871L115.167 13.5533L116.11 13.2194L115.969 12.8222L115.026 13.156ZM115.167 13.5533L114.225 13.8871C114.267 14.0079 114.27 14.0359 114.265 14.008C114.263 13.9962 114.26 13.9684 114.258 13.9292C114.257 13.8934 114.258 13.8211 114.277 13.7293C114.295 13.6417 114.342 13.4797 114.474 13.3185C114.624 13.1363 114.837 13.0134 115.072 12.9755L115.231 13.9629L115.39 14.9502C115.638 14.9102 115.861 14.7812 116.019 14.589C116.16 14.4178 116.213 14.2416 116.235 14.1359C116.276 13.9385 116.252 13.7687 116.242 13.7005C116.216 13.5361 116.161 13.3634 116.11 13.2194L115.167 13.5533ZM115.231 13.9629L115.072 12.9755L114.995 12.9879L115.154 13.9752L115.313 14.9625L115.39 14.9502L115.231 13.9629ZM115.154 13.9752L114.995 12.9879L114.918 13.0003L115.077 13.9876L115.236 14.9749L115.313 14.9625L115.154 13.9752ZM115.077 13.9876L114.918 13.0003C114.339 13.0935 114.139 13.573 114.091 13.732C114.039 13.907 114.04 14.0636 114.042 14.1354C114.048 14.3008 114.079 14.4799 114.112 14.6361L115.091 14.4291L116.069 14.2222C116.042 14.0923 116.041 14.0547 116.041 14.073C116.042 14.0819 116.042 14.1052 116.039 14.1386C116.037 14.1692 116.03 14.2305 116.007 14.3077C115.985 14.3801 115.934 14.5161 115.815 14.653C115.682 14.8065 115.483 14.9351 115.236 14.9749L115.077 13.9876ZM115.091 14.4291L114.112 14.6361L114.203 15.0652L115.182 14.8583L116.16 14.6513L116.069 14.2222L115.091 14.4291Z" fill="#848484"/>
</svg>
