<svg width="20" height="18" viewBox="0 0 20 18" fill="none" xmlns="http://www.w3.org/2000/svg">
<circle cx="10" cy="9" r="8" fill="#848484" fill-opacity="0.3"/>
<path d="M17.7287 9.76578L16.7861 9.4318L17.7287 9.76578ZM17.593 10.1487L18.5356 10.4826L17.593 10.1487ZM17.5143 10.9723L18.506 10.8442L17.5143 10.9723ZM17.6282 11.8539L16.6365 11.982L17.6282 11.8539ZM17.3211 12.5534L16.7419 11.7382L17.3211 12.5534ZM16.1359 13.7853L17.1159 13.9847L16.1359 13.7853ZM16.0432 14.2411L17.0231 14.4405L16.0432 14.2411ZM15.9504 14.6969L14.9705 14.4974L15.9504 14.6969ZM15.3848 15.2023L15.4892 16.1968L15.3848 15.2023ZM13.6372 15.5454L14.1451 16.4067L13.6372 15.5454ZM12.9785 15.9338L12.4706 15.0724L12.9785 15.9338ZM12.2784 16.2306L12.5451 17.1944L12.2784 16.2306ZM11.5366 16.4359L11.2699 15.4721L11.5366 16.4359ZM10.7788 16.5945L10.6356 15.6048L10.7788 16.5945ZM10.0049 16.7065L9.86169 15.7168L10.0049 16.7065ZM9.21939 16.7435L9.17182 17.7423L9.21939 16.7435ZM8.42233 16.7055L8.46989 15.7066L8.42233 16.7055ZM6.10313 16.121L5.24365 16.6322L6.10313 16.121ZM5.64122 15.3443L4.78174 15.8555L5.64122 15.3443ZM5.06193 14.757L4.56594 15.6253L5.06193 14.757ZM4.36526 14.3591L4.86125 13.4908L4.36526 14.3591ZM3.64181 13.9147L3.0944 14.7516L3.64181 13.9147ZM3.26669 13.6694L3.81409 12.8325L3.26669 13.6694ZM2.43779 12.7514L1.45432 12.9325L2.43779 12.7514ZM2.28045 11.897L1.29698 12.0781L2.28045 11.897ZM1.87579 10.2631L0.910404 10.5239L1.87579 10.2631ZM1.713 9.43751L0.721073 9.56432L1.713 9.43751ZM2.35655 6.18469L1.37559 5.99046L2.35655 6.18469ZM2.86237 4.59004L2.06605 3.98516L2.86237 4.59004ZM5.92446 1.67326L5.12084 1.07812L5.92446 1.67326ZM6.64646 1.35026L6.56639 2.34705L6.64646 1.35026ZM9.99012 1.40599L9.64327 0.468071L9.99012 1.40599ZM11.5541 1.16579L11.0594 2.0349L11.5541 1.16579ZM12.2743 1.57571L12.769 0.706603L12.2743 1.57571ZM12.9549 1.99694L12.3954 2.8258L12.9549 1.99694ZM13.5957 2.42948L14.1552 1.60062L13.5957 2.42948ZM15.2751 2.84494L15.1301 3.83437L15.2751 2.84494ZM15.9977 3.23548L15.2289 3.87495L15.9977 3.23548ZM16.2673 3.55961L17.0362 2.92014L16.2673 3.55961ZM16.5369 3.88375L15.7681 4.52322L16.5369 3.88375ZM16.8973 4.62496L17.8744 4.41245L16.8973 4.62496ZM16.988 5.04204L16.0108 5.25454L16.988 5.04204ZM17.0787 5.45911L18.0558 5.2466L17.0787 5.45911ZM17.3048 6.24933L16.3648 6.59047L17.3048 6.24933ZM17.5756 6.99562L18.5156 6.65448L17.5756 6.99562ZM17.8624 7.76418L18.7963 7.40672L17.8624 7.76418ZM18.1651 8.55501L19.099 8.19755L18.1651 8.55501ZM18.2373 8.96282L18.0825 7.97487L18.2373 8.96282ZM18.0791 8.98761L18.2339 9.97555L18.0791 8.98761ZM17.8643 9.38289L16.9218 9.04891L17.8643 9.38289ZM17.7287 9.76578L16.7861 9.4318L16.6504 9.81469L17.593 10.1487L18.5356 10.4826L18.6712 10.0998L17.7287 9.76578ZM17.593 10.1487L16.6504 9.81469C16.5027 10.2316 16.4664 10.6658 16.5225 11.1005L17.5143 10.9723L18.506 10.8442C18.4863 10.6912 18.5024 10.5763 18.5356 10.4826L17.593 10.1487ZM17.5143 10.9723L16.5225 11.1005L16.5795 11.5413L17.5712 11.4131L18.563 11.285L18.506 10.8442L17.5143 10.9723ZM17.5712 11.4131L16.5795 11.5413L16.6365 11.982L17.6282 11.8539L18.62 11.7257L18.563 11.285L17.5712 11.4131ZM17.6282 11.8539L16.6365 11.982C16.6365 11.9822 16.6346 11.9675 16.6378 11.9416C16.641 11.9147 16.649 11.8818 16.6643 11.8471C16.6795 11.8123 16.6982 11.7846 16.7152 11.7646C16.7316 11.7453 16.7429 11.7374 16.7419 11.7382L17.3211 12.5534L17.9002 13.3686C18.1438 13.1955 18.3601 12.9596 18.4955 12.6512C18.6311 12.3425 18.6584 12.0231 18.62 11.7257L17.6282 11.8539ZM17.3211 12.5534L16.7419 11.7382L16.3777 11.9969L16.9569 12.8121L17.5361 13.6273L17.9002 13.3686L17.3211 12.5534ZM16.9569 12.8121L16.3777 11.9969L16.0136 12.2556L16.5928 13.0708L17.172 13.886L17.5361 13.6273L16.9569 12.8121ZM16.5928 13.0708L16.0136 12.2556C15.5548 12.5816 15.2662 13.0447 15.156 13.5858L16.1359 13.7853L17.1159 13.9847C17.1246 13.9417 17.1353 13.9233 17.139 13.9175C17.1423 13.9123 17.1497 13.9018 17.172 13.886L16.5928 13.0708ZM16.1359 13.7853L15.156 13.5858L15.0633 14.0416L16.0432 14.2411L17.0231 14.4405L17.1159 13.9847L16.1359 13.7853ZM16.0432 14.2411L15.0633 14.0416L14.9705 14.4974L15.9504 14.6969L16.9303 14.8963L17.0231 14.4405L16.0432 14.2411ZM15.9504 14.6969L14.9705 14.4974C14.9726 14.4871 14.9964 14.3948 15.0963 14.3055C15.1944 14.2178 15.2827 14.2075 15.2805 14.2078L15.3848 15.2023L15.4892 16.1968C15.8022 16.164 16.1424 16.0529 16.429 15.7968C16.7174 15.539 16.8664 15.2106 16.9303 14.8963L15.9504 14.6969ZM15.3848 15.2023L15.2805 14.2078L14.8077 14.2574L14.9121 15.2519L15.0164 16.2465L15.4892 16.1968L15.3848 15.2023ZM14.9121 15.2519L14.8077 14.2574L14.3349 14.307L14.4393 15.3015L14.5436 16.2961L15.0164 16.2465L14.9121 15.2519ZM14.4393 15.3015L14.3349 14.307C13.9109 14.3515 13.4984 14.4662 13.1292 14.684L13.6372 15.5454L14.1451 16.4067C14.215 16.3655 14.3372 16.3177 14.5436 16.2961L14.4393 15.3015ZM13.6372 15.5454L13.1292 14.684L12.7999 14.8782L13.3079 15.7396L13.8158 16.6009L14.1451 16.4067L13.6372 15.5454ZM13.3079 15.7396L12.7999 14.8782L12.4706 15.0724L12.9785 15.9338L13.4865 16.7951L13.8158 16.6009L13.3079 15.7396ZM12.9785 15.9338L12.4706 15.0724C12.3271 15.157 12.1749 15.2217 12.0116 15.2668L12.2784 16.2306L12.5451 17.1944C12.8763 17.1027 13.1909 16.9695 13.4865 16.7951L12.9785 15.9338ZM12.2784 16.2306L12.0116 15.2668L11.6408 15.3695L11.9075 16.3332L12.1742 17.297L12.5451 17.1944L12.2784 16.2306ZM11.9075 16.3332L11.6408 15.3695L11.2699 15.4721L11.5366 16.4359L11.8034 17.3996L12.1742 17.297L11.9075 16.3332ZM11.5366 16.4359L11.2699 15.4721C11.0639 15.5291 10.8526 15.5734 10.6356 15.6048L10.7788 16.5945L10.922 17.5842C11.221 17.5409 11.5149 17.4795 11.8034 17.3996L11.5366 16.4359ZM10.7788 16.5945L10.6356 15.6048L10.2487 15.6608L10.3919 16.6505L10.535 17.6402L10.922 17.5842L10.7788 16.5945ZM10.3919 16.6505L10.2487 15.6608L9.86169 15.7168L10.0049 16.7065L10.1481 17.6962L10.535 17.6402L10.3919 16.6505ZM10.0049 16.7065L9.86169 15.7168C9.66814 15.7448 9.47021 15.7543 9.26695 15.7446L9.21939 16.7435L9.17182 17.7423C9.49994 17.758 9.82567 17.7428 10.1481 17.6962L10.0049 16.7065ZM9.21939 16.7435L9.26695 15.7446L8.86842 15.7256L8.82086 16.7245L8.77329 17.7234L9.17182 17.7423L9.21939 16.7435ZM8.82086 16.7245L8.86842 15.7256L8.46989 15.7066L8.42233 16.7055L8.37476 17.7044L8.77329 17.7234L8.82086 16.7245ZM8.42233 16.7055L8.46989 15.7066C8.22433 15.695 7.96963 15.6754 7.70568 15.6477L7.60137 16.6422L7.49707 17.6368C7.79635 17.6682 8.08896 17.6908 8.37476 17.7044L8.42233 16.7055ZM7.60137 16.6422L7.70568 15.6477L7.28325 15.6034L7.17894 16.5979L7.07464 17.5925L7.49707 17.6368L7.60137 16.6422ZM7.17894 16.5979L7.28325 15.6034L6.86082 15.5591L6.75652 16.5536L6.65221 17.5482L7.07464 17.5925L7.17894 16.5979ZM6.75652 16.5536L6.86082 15.5591C6.86147 15.5592 6.87075 15.5602 6.88586 15.5655C6.90129 15.5709 6.91806 15.5789 6.93405 15.5895C6.96845 15.6123 6.97447 15.6298 6.96262 15.6098L6.10313 16.121L5.24365 16.6322C5.54696 17.1422 6.03406 17.4833 6.65221 17.5482L6.75652 16.5536ZM6.10313 16.121L6.96262 15.6098L6.73166 15.2215L5.87218 15.7327L5.01269 16.2438L5.24365 16.6322L6.10313 16.121ZM5.87218 15.7327L6.73166 15.2215L6.5007 14.8332L5.64122 15.3443L4.78174 15.8555L5.01269 16.2438L5.87218 15.7327ZM5.64122 15.3443L6.5007 14.8332C6.2698 14.4449 5.9583 14.1174 5.55793 13.8887L5.06193 14.757L4.56594 15.6253C4.63001 15.6619 4.7047 15.726 4.78174 15.8555L5.64122 15.3443ZM5.06193 14.757L5.55793 13.8887L5.20959 13.6897L4.7136 14.5581L4.2176 15.4264L4.56594 15.6253L5.06193 14.757ZM4.7136 14.5581L5.20959 13.6897L4.86125 13.4908L4.36526 14.3591L3.86927 15.2274L4.2176 15.4264L4.7136 14.5581ZM4.36526 14.3591L4.86125 13.4908C4.64836 13.3691 4.42439 13.2317 4.18921 13.0779L3.64181 13.9147L3.0944 14.7516C3.35938 14.9249 3.61771 15.0837 3.86927 15.2274L4.36526 14.3591ZM3.64181 13.9147L4.18921 13.0779L3.81409 12.8325L3.26669 13.6694L2.71928 14.5062L3.0944 14.7516L3.64181 13.9147ZM3.26669 13.6694L3.81409 12.8325L3.43898 12.5871L2.89157 13.424L2.34417 14.2609L2.71928 14.5062L3.26669 13.6694ZM2.89157 13.424L3.43898 12.5871C3.4255 12.5783 3.41916 12.5725 3.41739 12.5708C3.41579 12.5692 3.41712 12.5703 3.41953 12.5739C3.42198 12.5775 3.4235 12.5807 3.42406 12.5821C3.42455 12.5833 3.42304 12.58 3.42125 12.5703L2.43779 12.7514L1.45432 12.9325C1.55806 13.4959 1.87338 13.9529 2.34417 14.2609L2.89157 13.424ZM2.43779 12.7514L3.42125 12.5703L3.34258 12.1431L2.35912 12.3242L1.37565 12.5053L1.45432 12.9325L2.43779 12.7514ZM2.35912 12.3242L3.34258 12.1431L3.26391 11.7159L2.28045 11.897L1.29698 12.0781L1.37565 12.5053L2.35912 12.3242ZM2.28045 11.897L3.26391 11.7159C3.20674 11.4054 3.13835 11.1023 3.05851 10.8067L2.09312 11.0675L1.12773 11.3284C1.19276 11.5691 1.24926 11.8189 1.29698 12.0781L2.28045 11.897ZM2.09312 11.0675L3.05851 10.8067L2.94984 10.4045L1.98446 10.6653L1.01907 10.9262L1.12773 11.3284L2.09312 11.0675ZM1.98446 10.6653L2.94984 10.4045L2.84118 10.0023L1.87579 10.2631L0.910404 10.5239L1.01907 10.9262L1.98446 10.6653ZM1.87579 10.2631L2.84118 10.0023C2.78092 9.77926 2.73538 9.54886 2.70493 9.31069L1.713 9.43751L0.721073 9.56432C0.7628 9.89071 0.825785 10.2107 0.910404 10.5239L1.87579 10.2631ZM1.713 9.43751L2.70493 9.31069L2.65079 8.88727L1.65887 9.01409L0.666941 9.1409L0.721073 9.56432L1.713 9.43751ZM1.65887 9.01409L2.65079 8.88727L2.59666 8.46385L1.60474 8.59067L0.612809 8.71748L0.666941 9.1409L1.65887 9.01409ZM1.60474 8.59067L2.59666 8.46385C2.58464 8.36981 2.59667 8.28761 2.63904 8.19595L1.73136 7.77629L0.823685 7.35662C0.625048 7.78625 0.552657 8.24697 0.612809 8.71748L1.60474 8.59067ZM1.73136 7.77629L2.63904 8.19595L2.8198 7.80499L1.91212 7.38533L1.00445 6.96566L0.823685 7.35662L1.73136 7.77629ZM1.91212 7.38533L2.8198 7.80499L3.00056 7.41403L2.09288 6.99437L1.18521 6.5747L1.00445 6.96566L1.91212 7.38533ZM2.09288 6.99437L3.00056 7.41403C3.15404 7.08208 3.2667 6.73655 3.33751 6.37891L2.35655 6.18469L1.37559 5.99046C1.33586 6.19112 1.27274 6.38538 1.18521 6.5747L2.09288 6.99437ZM2.35655 6.18469L3.33751 6.37891L3.42041 5.96019L2.43946 5.76596L1.4585 5.57174L1.37559 5.99046L2.35655 6.18469ZM2.43946 5.76596L3.42041 5.96019L3.50332 5.54146L2.52236 5.34724L1.5414 5.15301L1.4585 5.57174L2.43946 5.76596ZM2.52236 5.34724L3.50332 5.54146C3.52919 5.41079 3.57965 5.29896 3.65868 5.19492L2.86237 4.59004L2.06605 3.98516C1.80228 4.33241 1.62607 4.72538 1.5414 5.15301L2.52236 5.34724ZM2.86237 4.59004L3.65868 5.19492L3.91578 4.85645L3.11947 4.25157L2.32315 3.64669L2.06605 3.98516L2.86237 4.59004ZM3.11947 4.25157L3.91578 4.85645L4.17289 4.51798L3.37657 3.9131L2.58025 3.30822L2.32315 3.64669L3.11947 4.25157ZM3.37657 3.9131L4.17289 4.51798C4.25967 4.40373 4.36283 4.31453 4.48947 4.2447L4.00663 3.36899L3.52379 2.49328C3.15315 2.69764 2.83627 2.97117 2.58025 3.30822L3.37657 3.9131ZM4.00663 3.36899L4.48947 4.2447L4.86243 4.03906L4.37959 3.16335L3.89676 2.28764L3.52379 2.49328L4.00663 3.36899ZM4.37959 3.16335L4.86243 4.03906L5.2354 3.83342L4.75256 2.95771L4.26972 2.082L3.89676 2.28764L4.37959 3.16335ZM4.75256 2.95771L5.2354 3.83342C5.61624 3.62343 5.93682 3.33684 6.19546 2.9876L5.39183 2.39246L4.58821 1.79733C4.49176 1.92756 4.38616 2.0178 4.26972 2.082L4.75256 2.95771ZM5.39183 2.39246L6.19546 2.9876L6.46177 2.628L5.65815 2.03286L4.85452 1.43772L4.58821 1.79733L5.39183 2.39246ZM5.65815 2.03286L6.46177 2.628L6.72808 2.26839L5.92446 1.67326L5.12084 1.07812L4.85452 1.43772L5.65815 2.03286ZM5.92446 1.67326L6.72808 2.26839C6.72825 2.26816 6.70272 2.30036 6.64648 2.32552C6.59122 2.35024 6.55547 2.34617 6.56639 2.34705L6.64646 1.35026L6.72654 0.353469C6.08767 0.302146 5.50922 0.55368 5.12084 1.07812L5.92446 1.67326ZM6.64646 1.35026L6.56639 2.34705L7.02208 2.38365L7.10215 1.38687L7.18223 0.390077L6.72654 0.353469L6.64646 1.35026ZM7.10215 1.38687L7.02208 2.38365L7.47777 2.42026L7.55785 1.42347L7.63792 0.426685L7.18223 0.390077L7.10215 1.38687ZM7.55785 1.42347L7.47777 2.42026C7.7873 2.44513 8.07732 2.46569 8.34762 2.48187L8.40737 1.48366L8.46712 0.485443C8.21231 0.47019 7.93598 0.45063 7.63792 0.426685L7.55785 1.42347ZM8.40737 1.48366L8.34762 2.48187L8.74145 2.50544L8.8012 1.50723L8.86095 0.509018L8.46712 0.485443L8.40737 1.48366ZM8.8012 1.50723L8.74145 2.50544L9.13528 2.52902L9.19503 1.53081L9.25478 0.532593L8.86095 0.509018L8.8012 1.50723ZM9.19503 1.53081L9.13528 2.52902C9.5474 2.55369 9.95065 2.48678 10.337 2.34391L9.99012 1.40599L9.64327 0.468071C9.49458 0.523058 9.36777 0.539356 9.25478 0.532593L9.19503 1.53081ZM9.99012 1.40599L10.337 2.34391L10.7382 2.19552L10.3914 1.2576L10.0445 0.319682L9.64327 0.468071L9.99012 1.40599ZM10.3914 1.2576L10.7382 2.19552L11.1395 2.04714L10.7926 1.10921L10.4458 0.171294L10.0445 0.319682L10.3914 1.2576ZM10.7926 1.10921L11.1395 2.04714C11.1483 2.04388 11.149 2.04451 11.1425 2.04551C11.1357 2.04657 11.1242 2.0475 11.1095 2.04641C11.0948 2.04532 11.0816 2.04253 11.0711 2.03923C11.0609 2.03602 11.0569 2.03346 11.0594 2.0349L11.5541 1.16579L12.0487 0.296679C11.5426 0.00865322 10.9799 -0.0262098 10.4458 0.171294L10.7926 1.10921ZM11.5541 1.16579L11.0594 2.0349L11.4196 2.23986L11.9142 1.37075L12.4088 0.501641L12.0487 0.296679L11.5541 1.16579ZM11.9142 1.37075L11.4196 2.23986L11.7797 2.44482L12.2743 1.57571L12.769 0.706603L12.4088 0.501641L11.9142 1.37075ZM12.2743 1.57571L11.7797 2.44482C11.9993 2.56977 12.2044 2.69683 12.3954 2.8258L12.9549 1.99694L13.5144 1.16808C13.2782 1.00869 13.0296 0.85494 12.769 0.706603L12.2743 1.57571ZM12.9549 1.99694L12.3954 2.8258L12.7159 3.04207L13.2753 2.21321L13.8348 1.38435L13.5144 1.16808L12.9549 1.99694ZM13.2753 2.21321L12.7159 3.04207L13.0363 3.25834L13.5957 2.42948L14.1552 1.60062L13.8348 1.38435L13.2753 2.21321ZM13.5957 2.42948L13.0363 3.25834C13.3951 3.50054 13.8008 3.63952 14.2241 3.70157L14.3691 2.71214L14.5142 1.72272C14.3335 1.69623 14.2236 1.64677 14.1552 1.60062L13.5957 2.42948ZM14.3691 2.71214L14.2241 3.70157L14.6771 3.76797L14.8221 2.77854L14.9672 1.78912L14.5142 1.72272L14.3691 2.71214ZM14.8221 2.77854L14.6771 3.76797L15.1301 3.83437L15.2751 2.84494L15.4202 1.85552L14.9672 1.78912L14.8221 2.77854ZM15.2751 2.84494L15.1301 3.83437C15.1786 3.84148 15.2004 3.85204 15.2068 3.85551C15.212 3.85833 15.2184 3.86231 15.2289 3.87495L15.9977 3.23548L16.7666 2.59601C16.415 2.17339 15.9434 1.93221 15.4202 1.85552L15.2751 2.84494ZM15.9977 3.23548L15.2289 3.87495L15.4985 4.19908L16.2673 3.55961L17.0362 2.92014L16.7666 2.59601L15.9977 3.23548ZM16.2673 3.55961L15.4985 4.19908L15.7681 4.52322L16.5369 3.88375L17.3058 3.24428L17.0362 2.92014L16.2673 3.55961ZM16.5369 3.88375L15.7681 4.52322C15.8438 4.61421 15.8933 4.71438 15.9201 4.83747L16.8973 4.62496L17.8744 4.41245C17.7802 3.97944 17.5896 3.58547 17.3058 3.24428L16.5369 3.88375ZM16.8973 4.62496L15.9201 4.83747L16.0108 5.25454L16.988 5.04204L17.9651 4.82953L17.8744 4.41245L16.8973 4.62496ZM16.988 5.04204L16.0108 5.25454L16.1015 5.67162L17.0787 5.45911L18.0558 5.2466L17.9651 4.82953L16.988 5.04204ZM17.0787 5.45911L16.1015 5.67162C16.1708 5.9901 16.2582 6.29671 16.3648 6.59047L17.3048 6.24933L18.2448 5.90819C18.1708 5.70443 18.1075 5.48423 18.0558 5.2466L17.0787 5.45911ZM17.3048 6.24933L16.3648 6.59047L16.5002 6.96362L17.4402 6.62247L18.3802 6.28133L18.2448 5.90819L17.3048 6.24933ZM17.4402 6.62247L16.5002 6.96362L16.6356 7.33676L17.5756 6.99562L18.5156 6.65448L18.3802 6.28133L17.4402 6.62247ZM17.5756 6.99562L16.6356 7.33676C16.728 7.59133 16.8256 7.85296 16.9285 8.12164L17.8624 7.76418L18.7963 7.40672C18.6974 7.14817 18.6038 6.89744 18.5156 6.65448L17.5756 6.99562ZM17.8624 7.76418L16.9285 8.12164L17.0798 8.51706L18.0137 8.15959L18.9477 7.80213L18.7963 7.40672L17.8624 7.76418ZM18.0137 8.15959L17.0798 8.51706L17.2311 8.91247L18.1651 8.55501L19.099 8.19755L18.9477 7.80213L18.0137 8.15959ZM18.1651 8.55501L17.2311 8.91247C17.2773 9.03295 17.2795 9.05936 17.2741 9.02909C17.2741 9.0289 17.2482 8.9061 17.2816 8.73776C17.3 8.64539 17.3481 8.47789 17.4857 8.313C17.6404 8.12771 17.8547 8.01056 18.0825 7.97487L18.2373 8.96282L18.3921 9.95077C18.6331 9.91301 18.8582 9.7898 19.0213 9.59447C19.1672 9.41953 19.2213 9.238 19.2433 9.1276C19.2839 8.92322 19.2556 8.7484 19.2435 8.68024C19.214 8.51405 19.1538 8.34068 19.099 8.19755L18.1651 8.55501ZM18.2373 8.96282L18.0825 7.97487L18.0034 7.98726L18.1582 8.97521L18.313 9.96316L18.3921 9.95077L18.2373 8.96282ZM18.1582 8.97521L18.0034 7.98726L17.9243 7.99966L18.0791 8.98761L18.2339 9.97555L18.313 9.96316L18.1582 8.97521ZM18.0791 8.98761L17.9243 7.99966C17.5637 8.05616 17.3533 8.27973 17.2882 8.35301C17.2012 8.45103 17.1425 8.55018 17.1072 8.61521C17.034 8.74991 16.9729 8.90447 16.9218 9.04891L17.8643 9.38289L18.8069 9.71687C18.8462 9.60605 18.8661 9.5671 18.8645 9.57004C18.8627 9.57347 18.8564 9.58484 18.8453 9.60153C18.8348 9.61736 18.8147 9.64616 18.7838 9.68091C18.7544 9.71396 18.7012 9.76865 18.6215 9.82295C18.5417 9.87725 18.4109 9.94782 18.2339 9.97555L18.0791 8.98761ZM17.8643 9.38289L16.9218 9.04891L16.7861 9.4318L17.7287 9.76578L18.6712 10.0998L18.8069 9.71687L17.8643 9.38289Z" fill="#848484"/>
</svg>
