<svg width="24" height="24" viewBox="0 0 24 24" fill="none" xmlns="http://www.w3.org/2000/svg">
<circle cx="12" cy="12" r="10" fill="#97DE00" fill-opacity="0.3"/>
<path d="M21.8294 12.7896L22.8069 13.0007L21.8294 12.7896ZM21.7442 13.1844L20.7667 12.9733L21.7442 13.1844ZM21.5925 13.9731L22.5785 14.1394L21.5925 13.9731ZM21.526 14.367L20.5399 14.2007L21.526 14.367ZM21.4596 14.7609L22.4457 14.9272L21.4596 14.7609ZM21.1919 15.5001L22.0559 16.0036L21.1919 15.5001ZM20.7893 16.1908L19.9254 15.6873L20.7893 16.1908ZM20.4198 16.9L19.5122 16.4802L20.4198 16.9ZM20.0832 17.6276L20.9908 18.0475L20.0832 17.6276ZM19.7425 18.3909L18.8244 17.9947L19.7425 18.3909ZM19.3978 19.1899L20.3159 19.5861L19.3978 19.1899ZM18.798 19.7128L18.5206 18.752L18.798 19.7128ZM18.3705 19.8362L18.6479 20.797L18.3705 19.8362ZM17.9431 19.9596L18.2205 20.9204L17.9431 19.9596ZM17.148 20.2282L16.7809 19.298L17.148 20.2282ZM16.7803 20.3733L16.4132 19.4431L16.7803 20.3733ZM16.4126 20.5184L16.7797 21.4486L16.4126 20.5184ZM15.753 21.0483L14.9563 20.4439L15.753 21.0483ZM15.1691 21.8179L15.9658 22.4223L15.1691 21.8179ZM14.4375 22.1185L14.2494 23.1006L14.4375 22.1185ZM13.5583 21.95L13.7465 20.9679L13.5583 21.95ZM12.713 21.9628L12.4804 20.9902L12.713 21.9628ZM11.9015 22.1569L12.1341 23.1294L11.9015 22.1569ZM11.1152 22.0533L10.6488 22.9379L11.1152 22.0533ZM10.7347 21.8527L11.201 20.9681L10.7347 21.8527ZM10.3541 21.652L10.8205 20.7674L10.3541 21.652ZM9.57733 21.3948L9.43598 22.3848L9.57733 21.3948ZM8.78478 21.2817L8.92613 20.2917L8.78478 21.2817ZM7.96369 21.1583L8.11899 20.1704L7.96369 21.1583ZM7.53888 21.0915L7.38359 22.0794L7.53888 21.0915ZM6.41418 20.6325L5.65046 21.2781L6.41418 20.6325ZM5.86406 19.9817L5.10034 20.6273L5.86406 19.9817ZM5.31565 19.3603L4.58094 20.0387L5.31565 19.3603ZM4.76897 18.7682L5.50368 18.0898L4.76897 18.7682ZM4.11226 18.2386L3.59195 19.0926L4.11226 18.2386ZM3.34553 17.7714L2.82521 18.6254L3.34553 17.7714ZM3.06863 16.1091L2.0714 16.0347L3.06863 16.1091ZM2.84683 15.2944L2.05084 15.8997L2.84683 15.2944ZM2.58954 14.9561L1.79354 15.5614L2.58954 14.9561ZM2.33225 14.6177L3.12824 14.0124L2.33225 14.6177ZM1.94721 13.876L0.99388 14.178L1.94721 13.876ZM1.69172 13.0693L2.64505 12.7674L1.69172 13.0693ZM1.75638 12.2611L0.853158 11.8319L1.75638 12.2611ZM2.14119 11.4512L3.04441 11.8804L2.14119 11.4512ZM2.37042 10.6509L1.37473 10.5581L2.37042 10.6509ZM2.77375 7.41581L3.45736 8.14566L2.77375 7.41581ZM4.00436 6.24209L4.71551 6.94513L4.00436 6.24209ZM4.56729 5.67266L5.27844 6.3757L4.56729 5.67266ZM5.17098 5.16231L5.74458 5.98145L5.17098 5.16231ZM5.81541 4.71104L5.24181 3.89191L5.81541 4.71104ZM6.44919 4.25415L7.04521 5.05711L6.44919 4.25415ZM6.76074 4.02289L6.16472 3.21992L6.76074 4.02289ZM7.6952 3.27728L7.02249 2.53738L7.6952 3.27728ZM8.00656 2.9942L7.33384 2.2543L8.00656 2.9942ZM9.03077 2.34922L8.83816 1.36795L9.03077 2.34922ZM9.83376 2.19161L10.0264 3.17288L9.83376 2.19161ZM11.0428 1.9444L10.8387 0.965458L11.0428 1.9444ZM11.4466 1.8602L11.6508 2.83914L11.4466 1.8602ZM13.9393 1.83487L13.8444 2.83036L13.9393 1.83487ZM15.5971 2.13494L16.0173 1.22754L15.5971 2.13494ZM16.3694 2.49264L16.7896 1.58524L16.3694 2.49264ZM17.0325 3.0073L16.2611 3.64365L17.0325 3.0073ZM17.5866 3.67891L16.8152 4.31527L17.5866 3.67891ZM18.0777 4.36435L18.9305 3.84219L18.0777 4.36435ZM18.5058 5.0636L17.6529 5.58575L18.5058 5.0636ZM19.0088 5.67387L19.6786 4.93127L19.0088 5.67387ZM19.2978 5.93452L19.9676 5.19193L19.2978 5.93452ZM19.5869 6.19518L18.9171 6.93777L19.5869 6.19518ZM20.2146 6.72308L19.5951 7.50813L20.2146 6.72308ZM20.892 7.25759L21.5114 6.47254L20.892 7.25759ZM21.093 8.86022L20.0983 8.75767L21.093 8.86022ZM21.2034 9.66894L22.1221 9.27399L21.2034 9.66894ZM21.3597 10.0325L20.441 10.4275L21.3597 10.0325ZM21.516 10.3961L20.5973 10.7911L21.516 10.3961ZM21.8168 11.0698L22.7233 10.6476L21.8168 11.0698ZM22.1056 11.6899L21.1991 12.1121L22.1056 11.6899ZM21.9147 12.3948L22.8922 12.6059L21.9147 12.3948ZM21.8294 12.7896L20.852 12.5785L20.7667 12.9733L21.7442 13.1844L22.7216 13.3955L22.8069 13.0007L21.8294 12.7896ZM21.7442 13.1844L20.7667 12.9733C20.7067 13.2512 20.6532 13.529 20.6064 13.8068L21.5925 13.9731L22.5785 14.1394C22.6203 13.892 22.6679 13.644 22.7216 13.3955L21.7442 13.1844ZM21.5925 13.9731L20.6064 13.8068L20.5399 14.2007L21.526 14.367L22.5121 14.5333L22.5785 14.1394L21.5925 13.9731ZM21.526 14.367L20.5399 14.2007L20.4735 14.5946L21.4596 14.7609L22.4457 14.9272L22.5121 14.5333L21.526 14.367ZM21.4596 14.7609L20.4735 14.5946C20.4493 14.7382 20.4014 14.8704 20.3279 14.9966L21.1919 15.5001L22.0559 16.0036C22.2507 15.6693 22.3813 15.3087 22.4457 14.9272L21.4596 14.7609ZM21.1919 15.5001L20.3279 14.9966L20.1266 15.342L20.9906 15.8455L21.8546 16.349L22.0559 16.0036L21.1919 15.5001ZM20.9906 15.8455L20.1266 15.342L19.9254 15.6873L20.7893 16.1908L21.6533 16.6944L21.8546 16.349L20.9906 15.8455ZM20.7893 16.1908L19.9254 15.6873C19.7753 15.9448 19.6375 16.2092 19.5122 16.4802L20.4198 16.9L21.3274 17.3198C21.4264 17.1058 21.535 16.8973 21.6533 16.6944L20.7893 16.1908ZM20.4198 16.9L19.5122 16.4802L19.3439 16.844L20.2515 17.2638L21.1591 17.6837L21.3274 17.3198L20.4198 16.9ZM20.2515 17.2638L19.3439 16.844L19.1756 17.2078L20.0832 17.6276L20.9908 18.0475L21.1591 17.6837L20.2515 17.2638ZM20.0832 17.6276L19.1756 17.2078C19.0595 17.4588 18.9424 17.7212 18.8244 17.9947L19.7425 18.3909L20.6607 18.7871C20.7725 18.5281 20.8825 18.2816 20.9908 18.0475L20.0832 17.6276ZM19.7425 18.3909L18.8244 17.9947L18.652 18.3942L19.5702 18.7904L20.4883 19.1866L20.6607 18.7871L19.7425 18.3909ZM19.5702 18.7904L18.652 18.3942L18.4796 18.7937L19.3978 19.1899L20.3159 19.5861L20.4883 19.1866L19.5702 18.7904ZM19.3978 19.1899L18.4796 18.7937C18.4771 18.7996 18.4772 18.7977 18.482 18.791C18.487 18.784 18.4946 18.7752 18.5045 18.7666C18.5144 18.758 18.523 18.7526 18.528 18.75C18.5327 18.7475 18.5312 18.749 18.5206 18.752L18.798 19.7128L19.0754 20.6735C19.6401 20.5105 20.0795 20.134 20.3159 19.5861L19.3978 19.1899ZM18.798 19.7128L18.5206 18.752L18.0931 18.8755L18.3705 19.8362L18.6479 20.797L19.0754 20.6735L18.798 19.7128ZM18.3705 19.8362L18.0931 18.8755L17.6657 18.9989L17.9431 19.9596L18.2205 20.9204L18.6479 20.797L18.3705 19.8362ZM17.9431 19.9596L17.6657 18.9989C17.3541 19.0889 17.0588 19.1883 16.7809 19.298L17.148 20.2282L17.5151 21.1583C17.7274 21.0745 17.9622 20.995 18.2205 20.9204L17.9431 19.9596ZM17.148 20.2282L16.7809 19.298L16.4132 19.4431L16.7803 20.3733L17.1474 21.3034L17.5151 21.1583L17.148 20.2282ZM16.7803 20.3733L16.4132 19.4431L16.0455 19.5882L16.4126 20.5184L16.7797 21.4486L17.1474 21.3034L16.7803 20.3733ZM16.4126 20.5184L16.0455 19.5882C15.5959 19.7656 15.2371 20.0738 14.9563 20.4439L15.753 21.0483L16.5496 21.6527C16.6582 21.5097 16.7391 21.4646 16.7797 21.4486L16.4126 20.5184ZM15.753 21.0483L14.9563 20.4439L14.6644 20.8287L15.461 21.4331L16.2577 22.0375L16.5496 21.6527L15.753 21.0483ZM15.461 21.4331L14.6644 20.8287L14.3724 21.2135L15.1691 21.8179L15.9658 22.4223L16.2577 22.0375L15.461 21.4331ZM15.1691 21.8179L14.3724 21.2135C14.3591 21.231 14.3842 21.1917 14.4602 21.1605C14.5411 21.1272 14.6073 21.1328 14.6257 21.1363L14.4375 22.1185L14.2494 23.1006C14.5609 23.1603 14.8956 23.1438 15.2203 23.0104C15.5401 22.879 15.7844 22.6613 15.9658 22.4223L15.1691 21.8179ZM14.4375 22.1185L14.6257 21.1363L14.1861 21.0521L13.9979 22.0342L13.8098 23.0164L14.2494 23.1006L14.4375 22.1185ZM13.9979 22.0342L14.1861 21.0521L13.7465 20.9679L13.5583 21.95L13.3702 22.9322L13.8098 23.0164L13.9979 22.0342ZM13.5583 21.95L13.7465 20.9679C13.3244 20.887 12.8988 20.8902 12.4804 20.9902L12.713 21.9628L12.9456 22.9354C13.0682 22.9061 13.2061 22.9007 13.3702 22.9322L13.5583 21.95ZM12.713 21.9628L12.4804 20.9902L12.0747 21.0873L12.3072 22.0598L12.5398 23.0324L12.9456 22.9354L12.713 21.9628ZM12.3072 22.0598L12.0747 21.0873L11.6689 21.1843L11.9015 22.1569L12.1341 23.1294L12.5398 23.0324L12.3072 22.0598ZM11.9015 22.1569L11.6689 21.1843C11.6463 21.1897 11.6363 21.1885 11.6327 21.188C11.6286 21.1875 11.6126 21.185 11.5816 21.1687L11.1152 22.0533L10.6488 22.9379C11.1098 23.1809 11.6197 23.2524 12.1341 23.1294L11.9015 22.1569ZM11.1152 22.0533L11.5816 21.1687L11.201 20.9681L10.7347 21.8527L10.2683 22.7372L10.6488 22.9379L11.1152 22.0533ZM10.7347 21.8527L11.201 20.9681L10.8205 20.7674L10.3541 21.652L9.88778 22.5366L10.2683 22.7372L10.7347 21.8527ZM10.3541 21.652L10.8205 20.7674C10.4729 20.5842 10.1047 20.46 9.71868 20.4049L9.57733 21.3948L9.43598 22.3848C9.57838 22.4051 9.72797 22.4524 9.88778 22.5366L10.3541 21.652ZM9.57733 21.3948L9.71868 20.4049L9.32241 20.3483L9.18106 21.3382L9.03971 22.3282L9.43598 22.3848L9.57733 21.3948ZM9.18106 21.3382L9.32241 20.3483L8.92613 20.2917L8.78478 21.2817L8.64344 22.2716L9.03971 22.3282L9.18106 21.3382ZM8.78478 21.2817L8.92613 20.2917C8.66693 20.2547 8.39789 20.2143 8.11899 20.1704L7.96369 21.1583L7.8084 22.1462C8.09592 22.1914 8.37427 22.2332 8.64344 22.2716L8.78478 21.2817ZM7.96369 21.1583L8.11899 20.1704L7.69417 20.1037L7.53888 21.0915L7.38359 22.0794L7.8084 22.1462L7.96369 21.1583ZM7.53888 21.0915L7.69417 20.1037L7.26935 20.0369L7.11406 21.0247L6.95877 22.0126L7.38359 22.0794L7.53888 21.0915ZM7.11406 21.0247L7.26935 20.0369C7.22107 20.0293 7.2046 20.0186 7.1779 19.987L6.41418 20.6325L5.65046 21.2781C5.99051 21.6804 6.44063 21.9312 6.95877 22.0126L7.11406 21.0247ZM6.41418 20.6325L7.1779 19.987L6.90284 19.6616L6.13912 20.3071L5.3754 20.9527L5.65046 21.2781L6.41418 20.6325ZM6.13912 20.3071L6.90284 19.6616L6.62777 19.3362L5.86406 19.9817L5.10034 20.6273L5.3754 20.9527L6.13912 20.3071ZM5.86406 19.9817L6.62777 19.3362C6.4355 19.1087 6.24304 18.8906 6.05036 18.6819L5.31565 19.3603L4.58094 20.0387C4.75272 20.2247 4.92586 20.4209 5.10034 20.6273L5.86406 19.9817ZM5.31565 19.3603L6.05036 18.6819L5.77702 18.3859L5.04231 19.0642L4.3076 19.7426L4.58094 20.0387L5.31565 19.3603ZM5.04231 19.0642L5.77702 18.3859L5.50368 18.0898L4.76897 18.7682L4.03426 19.4466L4.3076 19.7426L5.04231 19.0642ZM4.76897 18.7682L5.50368 18.0898C5.25177 17.817 4.95851 17.5832 4.63258 17.3846L4.11226 18.2386L3.59195 19.0926C3.77718 19.2054 3.92172 19.3247 4.03426 19.4466L4.76897 18.7682ZM4.11226 18.2386L4.63258 17.3846L4.24921 17.151L3.7289 18.005L3.20858 18.859L3.59195 19.0926L4.11226 18.2386ZM3.7289 18.005L4.24921 17.151L3.86584 16.9174L3.34553 17.7714L2.82521 18.6254L3.20858 18.859L3.7289 18.005ZM3.34553 17.7714L3.86584 16.9174C3.8781 16.9249 3.92797 16.9619 3.96484 17.0371C3.9999 17.1086 3.99351 17.1543 3.99489 17.1359L2.99765 17.0616L2.00042 16.9873C1.97813 17.2863 2.01789 17.6091 2.16891 17.9172C2.32174 18.2291 2.55737 18.4622 2.82521 18.6254L3.34553 17.7714ZM2.99765 17.0616L3.99489 17.1359L4.03038 16.6596L3.03314 16.5853L2.03591 16.511L2.00042 16.9873L2.99765 17.0616ZM3.03314 16.5853L4.03038 16.6596L4.06587 16.1834L3.06863 16.1091L2.0714 16.0347L2.03591 16.511L3.03314 16.5853ZM3.06863 16.1091L4.06587 16.1834C4.10527 15.6546 3.98063 15.1334 3.64283 14.6891L2.84683 15.2944L2.05084 15.8997C2.05608 15.9066 2.07932 15.9285 2.0714 16.0347L3.06863 16.1091ZM2.84683 15.2944L3.64283 14.6891L3.38553 14.3508L2.58954 14.9561L1.79354 15.5614L2.05084 15.8997L2.84683 15.2944ZM2.58954 14.9561L3.38553 14.3508L3.12824 14.0124L2.33225 14.6177L1.53625 15.223L1.79354 15.5614L2.58954 14.9561ZM2.33225 14.6177L3.12824 14.0124C3.02585 13.8778 2.95089 13.7331 2.90054 13.5741L1.94721 13.876L0.99388 14.178C1.11386 14.5568 1.29559 14.9066 1.53625 15.223L2.33225 14.6177ZM1.94721 13.876L2.90054 13.5741L2.7728 13.1708L1.81947 13.4727L0.866135 13.7746L0.99388 14.178L1.94721 13.876ZM1.81947 13.4727L2.7728 13.1708L2.64505 12.7674L1.69172 13.0693L0.73839 13.3713L0.866135 13.7746L1.81947 13.4727ZM1.69172 13.0693L2.64505 12.7674C2.64203 12.7579 2.6412 12.7524 2.64095 12.7502C2.64071 12.7481 2.64071 12.7468 2.64083 12.7453C2.64094 12.744 2.64214 12.727 2.6596 12.6902L1.75638 12.2611L0.853158 11.8319C0.623384 12.3155 0.57196 12.8458 0.73839 13.3713L1.69172 13.0693ZM1.75638 12.2611L2.6596 12.6902L2.852 12.2853L1.94878 11.8561L1.04556 11.427L0.853158 11.8319L1.75638 12.2611ZM1.94878 11.8561L2.852 12.2853L3.04441 11.8804L2.14119 11.4512L1.23796 11.022L1.04556 11.427L1.94878 11.8561ZM2.14119 11.4512L3.04441 11.8804C3.21656 11.5181 3.32938 11.1379 3.36611 10.7436L2.37042 10.6509L1.37473 10.5581C1.36235 10.691 1.32235 10.8444 1.23796 11.022L2.14119 11.4512ZM2.37042 10.6509L3.36611 10.7436L3.40294 10.3482L2.40725 10.2554L1.41156 10.1627L1.37473 10.5581L2.37042 10.6509ZM2.40725 10.2554L3.40294 10.3482L3.43977 9.95273L2.44408 9.85999L1.44839 9.76725L1.41156 10.1627L2.40725 10.2554ZM2.44408 9.85999L3.43977 9.95273C3.46793 9.65043 3.47929 9.33696 3.47494 9.01302L2.47503 9.02645L1.47512 9.03988C1.47861 9.30009 1.46934 9.5423 1.44839 9.76725L2.44408 9.85999ZM2.47503 9.02645L3.47494 9.01302L3.46905 8.57492L2.46914 8.58835L1.46923 8.60178L1.47512 9.03988L2.47503 9.02645ZM2.46914 8.58835L3.46905 8.57492L3.46317 8.13682L2.46326 8.15025L1.46335 8.16368L1.46923 8.60178L2.46914 8.58835ZM2.46326 8.15025L3.46317 8.13682C3.46301 8.12491 3.46402 8.12066 3.46369 8.12242C3.46332 8.12443 3.46203 8.12984 3.45901 8.13699C3.45598 8.14416 3.45273 8.14945 3.45079 8.15217C3.44899 8.15471 3.45024 8.15233 3.45736 8.14566L2.77375 7.41581L2.09015 6.68596C1.67146 7.07812 1.45569 7.59384 1.46335 8.16368L2.46326 8.15025ZM2.77375 7.41581L3.45736 8.14566L3.77374 7.84933L3.09013 7.11948L2.40653 6.38963L2.09015 6.68596L2.77375 7.41581ZM3.09013 7.11948L3.77374 7.84933L4.09012 7.55299L3.40652 6.82314L2.72291 6.09329L2.40653 6.38963L3.09013 7.11948ZM3.40652 6.82314L4.09012 7.55299C4.30964 7.34738 4.51816 7.14476 4.71551 6.94513L4.00436 6.24209L3.29321 5.53905C3.11528 5.71904 2.92523 5.90378 2.72291 6.09329L3.40652 6.82314ZM4.00436 6.24209L4.71551 6.94513L4.99698 6.66042L4.28583 5.95738L3.57468 5.25434L3.29321 5.53905L4.00436 6.24209ZM4.28583 5.95738L4.99698 6.66042L5.27844 6.3757L4.56729 5.67266L3.85614 4.96962L3.57468 5.25434L4.28583 5.95738ZM4.56729 5.67266L5.27844 6.3757C5.42458 6.22789 5.57989 6.09678 5.74458 5.98145L5.17098 5.16231L4.59737 4.34318C4.33245 4.5287 4.0853 4.73782 3.85614 4.96962L4.56729 5.67266ZM5.17098 5.16231L5.74458 5.98145L6.0668 5.75581L5.4932 4.93668L4.91959 4.11755L4.59737 4.34318L5.17098 5.16231ZM5.4932 4.93668L6.0668 5.75581L6.38902 5.53017L5.81541 4.71104L5.24181 3.89191L4.91959 4.11755L5.4932 4.93668ZM5.81541 4.71104L6.38902 5.53017C6.61127 5.37454 6.83001 5.21685 7.04521 5.05711L6.44919 4.25415L5.85316 3.45118C5.65296 3.59979 5.44918 3.7467 5.24181 3.89191L5.81541 4.71104ZM6.44919 4.25415L7.04521 5.05711L7.35676 4.82585L6.76074 4.02289L6.16472 3.21992L5.85316 3.45118L6.44919 4.25415ZM6.76074 4.02289L7.35676 4.82585L7.66832 4.59459L7.07229 3.79163L6.47627 2.98866L6.16472 3.21992L6.76074 4.02289ZM7.07229 3.79163L7.66832 4.59459C7.90473 4.41911 8.13788 4.22634 8.36792 4.01718L7.6952 3.27728L7.02249 2.53738C6.83739 2.70567 6.65526 2.8558 6.47627 2.98866L7.07229 3.79163ZM7.6952 3.27728L8.36792 4.01718L8.67928 3.7341L8.00656 2.9942L7.33384 2.2543L7.02249 2.53738L7.6952 3.27728ZM8.00656 2.9942L8.67928 3.7341L8.99063 3.45101L8.31792 2.71111L7.6452 1.97121L7.33384 2.2543L8.00656 2.9942ZM8.31792 2.71111L8.99063 3.45101C9.06723 3.38137 9.14005 3.34685 9.22338 3.3305L9.03077 2.34922L8.83816 1.36795C8.38616 1.45667 7.98375 1.6634 7.6452 1.97121L8.31792 2.71111ZM9.03077 2.34922L9.22338 3.3305L9.62487 3.25169L9.43227 2.27042L9.23966 1.28914L8.83816 1.36795L9.03077 2.34922ZM9.43227 2.27042L9.62487 3.25169L10.0264 3.17288L9.83376 2.19161L9.64116 1.21033L9.23966 1.28914L9.43227 2.27042ZM9.83376 2.19161L10.0264 3.17288C10.2979 3.11959 10.5702 3.06447 10.8432 3.00754L10.639 2.0286L10.4349 1.04966C10.1695 1.105 9.90494 1.15856 9.64116 1.21033L9.83376 2.19161ZM10.639 2.0286L10.8432 3.00754L11.247 2.92334L11.0428 1.9444L10.8387 0.965458L10.4349 1.04966L10.639 2.0286ZM11.0428 1.9444L11.247 2.92334L11.6508 2.83914L11.4466 1.8602L11.2425 0.881257L10.8387 0.965458L11.0428 1.9444ZM11.4466 1.8602L11.6508 2.83914C11.8485 2.7979 12.0497 2.77827 12.2556 2.78055L12.2667 1.78061L12.2778 0.780675C11.9286 0.776803 11.5831 0.810228 11.2425 0.881257L11.4466 1.8602ZM12.2667 1.78061L12.2556 2.78055L12.6718 2.78517L12.6829 1.78523L12.694 0.785292L12.2778 0.780675L12.2667 1.78061ZM12.6829 1.78523L12.6718 2.78517L13.0881 2.78979L13.0992 1.78985L13.1103 0.789908L12.694 0.785292L12.6829 1.78523ZM13.0992 1.78985L13.0881 2.78979C13.337 2.79255 13.5891 2.80602 13.8444 2.83036L13.9393 1.83487L14.0342 0.839385C13.7244 0.80985 13.4164 0.793303 13.1103 0.789908L13.0992 1.78985ZM13.9393 1.83487L13.8444 2.83036L14.2683 2.87077L14.3632 1.87528L14.4581 0.879794L14.0342 0.839385L13.9393 1.83487ZM14.3632 1.87528L14.2683 2.87077L14.6921 2.91118L14.787 1.91569L14.8819 0.920202L14.4581 0.879794L14.3632 1.87528ZM14.787 1.91569L14.6921 2.91118C14.8621 2.92738 15.0221 2.9707 15.1768 3.04235L15.5971 2.13494L16.0173 1.22754C15.6571 1.06073 15.2771 0.957875 14.8819 0.920202L14.787 1.91569ZM15.5971 2.13494L15.1768 3.04235L15.5629 3.2212L15.9832 2.31379L16.4035 1.40639L16.0173 1.22754L15.5971 2.13494ZM15.9832 2.31379L15.5629 3.2212L15.9491 3.40004L16.3694 2.49264L16.7896 1.58524L16.4035 1.40639L15.9832 2.31379ZM16.3694 2.49264L15.9491 3.40004C16.0675 3.45488 16.1695 3.53254 16.2611 3.64365L17.0325 3.0073L17.8039 2.37094C17.5262 2.03431 17.1861 1.76887 16.7896 1.58524L16.3694 2.49264ZM17.0325 3.0073L16.2611 3.64365L16.5382 3.97946L17.3096 3.34311L18.081 2.70675L17.8039 2.37094L17.0325 3.0073ZM17.3096 3.34311L16.5382 3.97946L16.8152 4.31527L17.5866 3.67891L18.358 3.04256L18.081 2.70675L17.3096 3.34311ZM17.5866 3.67891L16.8152 4.31527C16.9719 4.50524 17.108 4.69572 17.2248 4.8865L18.0777 4.36435L18.9305 3.84219C18.7619 3.56681 18.5706 3.30034 18.358 3.04256L17.5866 3.67891ZM18.0777 4.36435L17.2248 4.8865L17.4389 5.23612L18.2917 4.71397L19.1446 4.19182L18.9305 3.84219L18.0777 4.36435ZM18.2917 4.71397L17.4389 5.23612L17.6529 5.58575L18.5058 5.0636L19.3586 4.54144L19.1446 4.19182L18.2917 4.71397ZM18.5058 5.0636L17.6529 5.58575C17.8431 5.89635 18.0714 6.17504 18.3391 6.41647L19.0088 5.67387L19.6786 4.93127C19.5609 4.82516 19.4539 4.69701 19.3586 4.54144L18.5058 5.0636ZM19.0088 5.67387L18.3391 6.41647L18.6281 6.67712L19.2978 5.93452L19.9676 5.19193L19.6786 4.93127L19.0088 5.67387ZM19.2978 5.93452L18.6281 6.67712L18.9171 6.93777L19.5869 6.19518L20.2566 5.45258L19.9676 5.19193L19.2978 5.93452ZM19.5869 6.19518L18.9171 6.93777C19.1277 7.12772 19.3539 7.3178 19.5951 7.50813L20.2146 6.72308L20.834 5.93803C20.6236 5.77202 20.4313 5.61017 20.2566 5.45258L19.5869 6.19518ZM20.2146 6.72308L19.5951 7.50813L19.9338 7.77538L20.5533 6.99033L21.1727 6.20529L20.834 5.93803L20.2146 6.72308ZM20.5533 6.99033L19.9338 7.77538L20.2725 8.04263L20.892 7.25759L21.5114 6.47254L21.1727 6.20529L20.5533 6.99033ZM20.892 7.25759L20.2725 8.04263C20.2671 8.03831 20.2337 8.00815 20.2096 7.94948C20.1862 7.89248 20.1912 7.85652 20.1901 7.86742L21.1848 7.96996L22.1795 8.07251C22.2436 7.45049 22.0179 6.87218 21.5114 6.47254L20.892 7.25759ZM21.1848 7.96996L20.1901 7.86742L20.1442 8.31254L21.1389 8.41509L22.1336 8.51764L22.1795 8.07251L21.1848 7.96996ZM21.1389 8.41509L20.1442 8.31254L20.0983 8.75767L21.093 8.86022L22.0877 8.96277L22.1336 8.51764L21.1389 8.41509ZM21.093 8.86022L20.0983 8.75767C20.0525 9.2015 20.1048 9.64529 20.2847 10.0639L21.2034 9.66894L22.1221 9.27399C22.0937 9.20779 22.0723 9.11243 22.0877 8.96277L21.093 8.86022ZM21.2034 9.66894L20.2847 10.0639L20.441 10.4275L21.3597 10.0325L22.2784 9.63759L22.1221 9.27399L21.2034 9.66894ZM21.3597 10.0325L20.441 10.4275L20.5973 10.7911L21.516 10.3961L22.4348 10.0012L22.2784 9.63759L21.3597 10.0325ZM21.516 10.3961L20.5973 10.7911C20.7049 11.0412 20.8092 11.275 20.9103 11.492L21.8168 11.0698L22.7233 10.6476C22.6318 10.4512 22.5356 10.2358 22.4348 10.0012L21.516 10.3961ZM21.8168 11.0698L20.9103 11.492L21.0547 11.8021L21.9612 11.3799L22.8677 10.9577L22.7233 10.6476L21.8168 11.0698ZM21.9612 11.3799L21.0547 11.8021L21.1991 12.1121L22.1056 11.6899L23.0121 11.2677L22.8677 10.9577L21.9612 11.3799ZM22.1056 11.6899L21.1991 12.1121C21.2437 12.2079 21.242 12.2176 21.2315 12.1779C21.2276 12.1631 21.2195 12.1304 21.2136 12.0851C21.2085 12.0456 21.1995 11.957 21.2154 11.8429C21.2303 11.7351 21.2807 11.5119 21.4732 11.3082C21.6917 11.0771 21.9692 11 22.1875 11V12V13C22.4163 13 22.702 12.9197 22.9266 12.6821C23.1252 12.472 23.1795 12.239 23.1963 12.1183C23.227 11.8972 23.1778 11.7149 23.1651 11.6671C23.1273 11.524 23.0638 11.3787 23.0121 11.2677L22.1056 11.6899ZM22.1875 12V11H22.125V12V13H22.1875V12ZM22.125 12V11H22.0625V12V13H22.125V12ZM22.0625 12V11C21.5166 11 21.2439 11.403 21.2071 11.4562C21.1266 11.5727 21.0807 11.6868 21.0578 11.7481C21.0071 11.8835 20.9685 12.0393 20.9373 12.1837L21.9147 12.3948L22.8922 12.6059C22.9178 12.4871 22.9323 12.4455 22.9308 12.4493C22.9293 12.4533 22.9239 12.4674 22.914 12.4882C22.9049 12.5072 22.8853 12.5458 22.8525 12.5931C22.8231 12.6358 22.7585 12.7216 22.6491 12.8042C22.5349 12.8905 22.3338 13 22.0625 13V12ZM21.9147 12.3948L20.9373 12.1837L20.852 12.5785L21.8294 12.7896L22.8069 13.0007L22.8922 12.6059L21.9147 12.3948Z" fill="#97DE00"/>
</svg>
