<svg width="34.5009" height="27.3117" viewBox="0 0 34.5009 27.3117" fill="none" xmlns="http://www.w3.org/2000/svg">
<g id="Group 7133">
<path id="Vector 271" d="M31.5031 15.4653C33.1599 15.464 34.5021 14.1199 34.5009 12.4631C34.4997 10.8062 33.1555 9.46404 31.4987 9.46525L31.5009 12.4653L31.5031 15.4653ZM31.4009 12.4653L31.3987 9.46532L31.2758 9.46542L31.1533 9.47556L31.4009 12.4653ZM29.2011 12.6475L29.4487 15.6373L29.2011 12.6475ZM25.8766 12.5981L25.2716 15.5365L25.8766 12.5981ZM21.3771 12.1172L20.817 9.16999V9.16999L21.3771 12.1172ZM16.876 12.8482L16.6384 9.85766L16.876 12.8482ZM7.87318 12.4444L7.86216 9.4444L7.87318 12.4444ZM6.74802 12.4485L6.75904 15.4485L6.74802 12.4485ZM5.62286 12.4526L5.63388 15.4526L5.62286 12.4526ZM4.38251 12.4987L3.35596 9.67982L2.04301 10.158L1.56416 11.4706L4.38251 12.4987ZM4.36732 12.5404L4.37675 15.5403L6.46875 15.5338L7.18567 13.5684L4.36732 12.5404ZM4.2579 9.54068C2.60105 9.54589 1.26213 10.8933 1.26734 12.5501C1.27254 14.2069 2.6199 15.5459 4.27675 15.5407L4.26732 12.5407L4.2579 9.54068ZM31.5009 12.4653L31.4987 9.46525L31.3987 9.46532L31.4009 12.4653L31.4031 15.4653L31.5031 15.4653L31.5009 12.4653ZM31.4009 12.4653L31.1533 9.47556L28.9535 9.65774L29.2011 12.6475L29.4487 15.6373L31.6485 15.4551L31.4009 12.4653ZM29.2011 12.6475L28.9535 9.65774C27.5607 9.77309 26.7999 9.7253 26.4816 9.65975L25.8766 12.5981L25.2716 15.5365C26.4528 15.7797 27.9084 15.7648 29.4487 15.6373L29.2011 12.6475ZM25.8766 12.5981L26.4816 9.65975L25.3568 9.42817L24.7518 12.3665L24.1468 15.3049L25.2716 15.5365L25.8766 12.5981ZM24.7518 12.3665L25.3568 9.42817L24.2321 9.1966L23.6271 12.135L23.0221 15.0733L24.1468 15.3049L24.7518 12.3665ZM23.6271 12.135L24.2321 9.1966C23.0992 8.96334 21.9534 8.95402 20.817 9.16999L21.3771 12.1172L21.9372 15.0645C22.3012 14.9953 22.6554 14.9978 23.0221 15.0733L23.6271 12.135ZM21.3771 12.1172L20.817 9.16999L19.6917 9.38385L20.2518 12.3311L20.8119 15.2784L21.9372 15.0645L21.3771 12.1172ZM20.2518 12.3311L19.6917 9.38385L18.5664 9.59771L19.1265 12.545L19.6866 15.4922L20.8119 15.2784L20.2518 12.3311ZM19.1265 12.545L18.5664 9.59771C17.9212 9.72032 17.2787 9.80678 16.6384 9.85766L16.876 12.8482L17.1137 15.8388C17.9736 15.7705 18.8313 15.6547 19.6866 15.4922L19.1265 12.545ZM16.876 12.8482L16.6384 9.85766L15.5133 9.94708L15.7509 12.9376L15.9886 15.9282L17.1137 15.8388L16.876 12.8482ZM15.7509 12.9376L15.5133 9.94708L14.3881 10.0365L14.6258 13.0271L14.8635 16.0176L15.9886 15.9282L15.7509 12.9376ZM14.6258 13.0271L14.3881 10.0365C13.8679 10.0778 13.3469 10.0597 12.8207 9.98069L12.3751 12.9474L11.9295 15.9141C12.9041 16.0605 13.8835 16.0955 14.8635 16.0176L14.6258 13.0271ZM12.3751 12.9474L12.8207 9.98069L11.6951 9.81164L11.2495 12.7784L10.8039 15.7451L11.9295 15.9141L12.3751 12.9474ZM11.2495 12.7784L11.6951 9.81164L10.5695 9.64258L10.1239 12.6093L9.67834 15.576L10.8039 15.7451L11.2495 12.7784ZM10.1239 12.6093L10.5695 9.64258C9.66975 9.50744 8.76686 9.44107 7.86216 9.4444L7.87318 12.4444L7.8842 15.4444C8.47972 15.4422 9.07733 15.4858 9.67834 15.576L10.1239 12.6093ZM7.87318 12.4444L7.86216 9.4444L6.737 9.44853L6.74802 12.4485L6.75904 15.4485L7.8842 15.4444L7.87318 12.4444ZM6.74802 12.4485L6.737 9.44853L5.61184 9.45266L5.62286 12.4526L5.63388 15.4526L6.75904 15.4485L6.74802 12.4485ZM5.62286 12.4526L5.61184 9.45266C5.23184 9.45406 4.92481 9.45691 4.70092 9.46166C4.59223 9.46397 4.48037 9.46717 4.38084 9.47231C4.3342 9.47472 4.25974 9.47906 4.17631 9.4873C4.13582 9.49129 4.06391 9.49902 3.9768 9.51298C3.93672 9.51941 3.69782 9.55533 3.41355 9.65885L4.4401 12.4777L5.46665 15.2966C5.37893 15.3286 5.30363 15.3513 5.24794 15.3669C5.19095 15.3828 5.14153 15.3947 5.10274 15.4034C5.02714 15.4204 4.96531 15.4311 4.92615 15.4374C4.84939 15.4497 4.79062 15.4558 4.76605 15.4582C4.7367 15.4611 4.71542 15.4627 4.70609 15.4633C4.70066 15.4637 4.69664 15.464 4.69424 15.4641C4.6918 15.4642 4.69048 15.4643 4.6904 15.4643C4.6903 15.4643 4.69111 15.4643 4.69293 15.4642C4.69473 15.4641 4.69731 15.464 4.70073 15.4639C4.70768 15.4636 4.71713 15.4632 4.7294 15.4629C4.75423 15.4621 4.78683 15.4612 4.82825 15.4603C4.99862 15.4567 5.26376 15.454 5.63388 15.4526L5.62286 12.4526ZM4.4401 12.4777L3.41355 9.65885L3.35596 9.67982L4.38251 12.4987L5.40906 15.3176L5.46665 15.2966L4.4401 12.4777ZM4.38251 12.4987L1.56416 11.4706L1.54898 11.5123L4.36732 12.5404L7.18567 13.5684L7.20085 13.5268L4.38251 12.4987ZM4.36732 12.5404L4.35789 9.54037L4.2579 9.54068L4.26732 12.5407L4.27675 15.5407L4.37675 15.5403L4.36732 12.5404Z" fill="#E4E0D3"/>
<path id="Vector 272" d="M16.7091 4.20344C17.3733 2.68556 16.6813 0.916609 15.1634 0.252385C13.6455 -0.411839 11.8765 0.28019 11.2123 1.79807L13.9607 3.00076L16.7091 4.20344ZM13.9206 3.09237L15.8527 5.38734L16.3883 4.93644L16.669 4.29505L13.9206 3.09237ZM7.44899 7.45439L6.12702 4.76136L7.44899 7.45439ZM5.02179 9.74201L2.66027 7.89183L5.02179 9.74201ZM3.43208 12.3546L0.510732 11.6721L3.43208 12.3546ZM3.04365 14.0173L0.122304 13.3349L3.04365 14.0173ZM3.55815 15.6874L1.26677 17.6237L3.55815 15.6874ZM4.26687 16.526L6.55825 14.5896L4.26687 16.526ZM4.97559 17.3646L2.68421 19.301L4.97559 17.3646ZM6.63772 18.8018L5.04277 21.3427L6.63772 18.8018ZM7.59114 19.4002L9.18609 16.8593L7.59114 19.4002ZM8.54455 19.9987L6.9496 22.5396L8.54455 19.9987ZM10.5428 21.0424L9.36683 23.8023L10.5428 21.0424ZM11.5876 21.4875L12.7635 18.7276L11.5876 21.4875ZM12.6324 21.9327L11.4564 24.6926L12.6324 21.9327ZM14.1647 22.7982L12.2057 25.0703L14.1647 22.7982ZM14.6522 23.2185L12.6932 25.4906L14.6522 23.2185ZM15.5793 24.1222L17.9688 25.9361L15.5793 24.1222ZM15.5315 24.1852L16.3315 27.0766L17.3082 26.8063L17.9209 25.9992L15.5315 24.1852ZM15.3831 24.2262L14.5831 21.3349L10.7244 22.4026L12.8328 25.8061L15.3831 24.2262ZM12.8855 25.8911C13.758 27.2996 15.6071 27.7341 17.0156 26.8616C18.4241 25.989 18.8586 24.1399 17.9861 22.7314L15.4358 24.3113L12.8855 25.8911ZM13.9607 3.00076L11.2123 1.79807L11.1722 1.88969L13.9206 3.09237L16.669 4.29505L16.7091 4.20344L13.9607 3.00076ZM13.9206 3.09237L11.9885 0.797399L10.3002 2.21875L12.2323 4.51372L14.1645 6.80869L15.8527 5.38734L13.9206 3.09237ZM12.2323 4.51372L10.3002 2.21875C9.22371 3.12505 8.542 3.57588 8.1904 3.74848L9.51237 6.44151L10.8343 9.13454C11.8583 8.63187 12.9899 7.79752 14.1645 6.80869L12.2323 4.51372ZM9.51237 6.44151L8.1904 3.74848L7.15871 4.25492L8.48068 6.94795L9.80265 9.64098L10.8343 9.13454L9.51237 6.44151ZM8.48068 6.94795L7.15871 4.25492L6.12702 4.76136L7.44899 7.45439L8.77095 10.1474L9.80265 9.64098L8.48068 6.94795ZM7.44899 7.45439L6.12702 4.76136C5.04031 5.29481 4.10635 6.04609 3.35802 7.00124L5.71954 8.85142L8.08107 10.7016C8.26307 10.4693 8.48208 10.2892 8.77095 10.1474L7.44899 7.45439ZM5.71954 8.85142L3.35802 7.00124L2.66027 7.89183L5.02179 9.74201L7.38332 11.5922L8.08107 10.7016L5.71954 8.85142ZM5.02179 9.74201L2.66027 7.89183L1.96252 8.78242L4.32404 10.6326L6.68557 12.4828L7.38332 11.5922L5.02179 9.74201ZM4.32404 10.6326L1.96252 8.78242C1.31147 9.6134 0.766355 10.5779 0.510732 11.6721L3.43208 12.3546L6.35343 13.037C6.35676 13.0228 6.40628 12.8393 6.68557 12.4828L4.32404 10.6326ZM3.43208 12.3546L0.510732 11.6721L0.316518 12.5035L3.23787 13.186L6.15921 13.8684L6.35343 13.037L3.43208 12.3546ZM3.23787 13.186L0.316518 12.5035L0.122304 13.3349L3.04365 14.0173L5.965 14.6998L6.15921 13.8684L3.23787 13.186ZM3.04365 14.0173L0.122304 13.3349C-0.282792 15.069 0.374823 16.5683 1.26677 17.6237L3.55815 15.6874L5.84954 13.751C5.8095 13.7036 5.88264 13.7739 5.94219 13.9672C6.00907 14.1843 6.02409 14.4468 5.965 14.6998L3.04365 14.0173ZM3.55815 15.6874L1.26677 17.6237L1.97549 18.4624L4.26687 16.526L6.55825 14.5896L5.84954 13.751L3.55815 15.6874ZM4.26687 16.526L1.97549 18.4624L2.68421 19.301L4.97559 17.3646L7.26697 15.4283L6.55825 14.5896L4.26687 16.526ZM4.97559 17.3646L2.68421 19.301C3.36131 20.1023 4.15193 20.7835 5.04277 21.3427L6.63772 18.8018L8.23267 16.2609C7.85229 16.0221 7.53482 15.7452 7.26697 15.4283L4.97559 17.3646ZM6.63772 18.8018L5.04277 21.3427L5.99618 21.9411L7.59114 19.4002L9.18609 16.8593L8.23267 16.2609L6.63772 18.8018ZM7.59114 19.4002L5.99618 21.9411L6.9496 22.5396L8.54455 19.9987L10.1395 17.4578L9.18609 16.8593L7.59114 19.4002ZM8.54455 19.9987L6.9496 22.5396C7.72009 23.0232 8.52637 23.4442 9.36683 23.8023L10.5428 21.0424L11.7187 18.2824C11.1661 18.047 10.6402 17.7721 10.1395 17.4578L8.54455 19.9987ZM10.5428 21.0424L9.36683 23.8023L10.4116 24.2475L11.5876 21.4875L12.7635 18.7276L11.7187 18.2824L10.5428 21.0424ZM11.5876 21.4875L10.4116 24.2475L11.4564 24.6926L12.6324 21.9327L13.8083 19.1728L12.7635 18.7276L11.5876 21.4875ZM12.6324 21.9327L11.4564 24.6926C11.73 24.8092 11.9272 24.9074 12.0625 24.9838C12.2038 25.0636 12.2359 25.0963 12.2057 25.0703L14.1647 22.7982L16.1237 20.5261C15.4508 19.946 14.6073 19.5132 13.8083 19.1728L12.6324 21.9327ZM14.1647 22.7982L12.2057 25.0703L12.6932 25.4906L14.6522 23.2185L16.6112 20.9464L16.1237 20.5261L14.1647 22.7982ZM14.6522 23.2185L12.6932 25.4906L13.1807 25.9109L15.1397 23.6388L17.0987 21.3667L16.6112 20.9464L14.6522 23.2185ZM15.1397 23.6388L13.1807 25.9109C13.3214 26.0322 13.3271 26.0467 13.2741 25.9884C13.2658 25.9793 13.1104 25.8143 12.9572 25.5428C12.8852 25.4152 12.7111 25.0883 12.6289 24.6238C12.5421 24.134 12.5182 23.193 13.1899 22.3082L15.5793 24.1222L17.9688 25.9361C18.6484 25.0409 18.6269 24.0856 18.537 23.5778C18.4516 23.0954 18.2688 22.7468 18.1824 22.5938C18.0006 22.2716 17.7942 22.0408 17.7126 21.9512C17.5131 21.7318 17.283 21.5257 17.0987 21.3667L15.1397 23.6388ZM15.5793 24.1222L13.1899 22.3082L13.142 22.3712L15.5315 24.1852L17.9209 25.9992L17.9688 25.9361L15.5793 24.1222ZM15.5315 24.1852L14.7315 21.2938L14.5831 21.3349L15.3831 24.2262L16.1831 27.1176L16.3315 27.0766L15.5315 24.1852ZM15.3831 24.2262L12.8328 25.8061L12.8855 25.8911L15.4358 24.3113L17.9861 22.7314L17.9334 22.6464L15.3831 24.2262Z" fill="#E4E0D3"/>
</g>
</svg>
