<svg width="30" height="30" viewBox="0 0 30 30" fill="none" xmlns="http://www.w3.org/2000/svg">
<g clip-path="url(#clip0_178_3365)">
<path d="M12.9245 17.5C12.068 17.5 11.6079 18.5064 12.1681 19.1542L16.5236 24.1902C16.8688 24.5893 16.8445 25.1879 16.4681 25.5577L15.7071 26.3054C15.3155 26.69 14.6872 26.6872 14.2991 26.2991L3.70711 15.7071C3.31658 15.3166 3.31658 14.6834 3.70711 14.2929L14.2991 3.70088C14.6872 3.31279 15.3155 3.31001 15.7071 3.69465L16.4681 4.44232C16.8445 4.81211 16.8688 5.41071 16.5236 5.80981L12.1681 10.8458C11.6079 11.4936 12.068 12.5 12.9245 12.5H28C28.5523 12.5 29 12.9477 29 13.5V16.5C29 17.0523 28.5523 17.5 28 17.5H12.9245Z" fill="#848484" fill-opacity="0.3"/>
<path d="M12.7352 19.5148L13.2719 18.6711L12.7352 19.5148ZM13.47 20.2444L12.6261 20.781L13.47 20.2444ZM13.5046 20.2988L14.3484 19.7622L13.5046 20.2988ZM13.5392 20.3532L12.6953 20.8898L13.5392 20.3532ZM13.9843 21.3332L14.9405 21.0406L13.9843 21.3332ZM14.0047 21.3999L13.0485 21.6925L14.0047 21.3999ZM14.0251 21.4666L14.9814 21.174L14.0251 21.4666ZM14.6382 22.3013L15.1883 21.4663L14.6382 22.3013ZM14.7489 22.3743L14.1987 23.2094L14.7489 22.3743ZM15.5455 23.0503L14.8079 23.7255L15.5455 23.0503ZM15.5886 23.0974L16.3262 22.4221L15.5886 23.0974ZM15.6317 23.1444L14.8941 23.8197L15.6317 23.1444ZM16.1939 23.9778L15.2895 24.4045L16.1939 23.9778ZM16.2466 24.0897L17.151 23.663L16.2466 24.0897ZM16.3997 24.9069L17.3862 25.0704L16.3997 24.9069ZM16.3922 24.9519L15.4057 24.7884L16.3922 24.9519ZM16.3847 24.997L15.3982 24.8334L16.3847 24.997ZM16.073 25.8395L16.9582 26.3049L16.073 25.8395ZM16.042 25.8986L15.1568 25.4333L16.042 25.8986ZM16.0109 25.9577L16.896 26.423L16.0109 25.9577ZM15.1859 26.5788L15.4282 27.549L15.1859 26.5788ZM15.115 26.5965L14.8728 25.6263L15.115 26.5965ZM15.0441 26.6143L15.2864 27.5845L15.0441 26.6143ZM14.0776 26.3632L13.3691 27.0689L14.0776 26.3632ZM14.029 26.3144L14.7375 25.6087L14.029 26.3144ZM13.9805 26.2657L13.272 26.9714L13.9805 26.2657ZM13.2661 25.4629L12.4804 26.0816L13.2661 25.4629ZM13.2263 25.4124L14.012 24.7938L13.2263 25.4124ZM13.1866 25.3619L13.9722 24.7433L13.1866 25.3619ZM12.4262 24.6623L11.8732 25.4955L12.4262 24.6623ZM12.3719 24.6263L11.819 25.4595L12.3719 24.6263ZM12.3177 24.5903L12.8707 23.7571L12.3177 24.5903ZM11.672 23.776L12.602 23.4082L11.672 23.776ZM11.6464 23.7113L10.7165 24.079L11.6464 23.7113ZM11.6209 23.6467L12.5508 23.2789L11.6209 23.6467ZM10.9355 22.872L11.4006 21.9868L10.9355 22.872ZM10.8763 22.841L10.4111 23.7262L10.8763 22.841ZM10.8172 22.8099L11.2823 21.9247L10.8172 22.8099ZM10.0497 22.1173L9.21318 22.6652L10.0497 22.1173ZM10.014 22.0628L10.8506 21.5149L10.014 22.0628ZM9.97831 22.0082L9.14176 22.5561L9.97831 22.0082ZM9.22786 21.2987L8.72507 22.1631L9.22786 21.2987ZM9.11377 21.2323L9.61657 20.3679L9.11377 21.2323ZM8.36255 20.5235L9.19799 19.9739L8.36255 20.5235ZM8.29095 20.4146L7.45551 20.9642L8.29095 20.4146ZM7.65868 19.5869L6.90957 20.2493L7.65868 19.5869ZM7.574 19.4911L8.32311 18.8287L7.574 19.4911ZM6.88694 18.7181L7.63266 18.0519L6.88694 18.7181ZM6.84436 18.6705L6.09864 19.3367L6.84436 18.6705ZM6.80179 18.6228L7.54752 17.9566L6.80179 18.6228ZM6.11312 17.8515L6.85931 17.1857L6.11312 17.8515ZM6.07057 17.8038L5.32438 18.4695L6.07057 17.8038ZM6.02803 17.7561L5.28184 18.4218L6.02803 17.7561ZM5.2795 17.0446L4.65218 17.8233L5.2795 17.0446ZM5.22953 17.0043L5.85686 16.2256L5.22953 17.0043ZM5.17956 16.9641L4.55223 17.7428L5.17956 16.9641ZM4.39675 16.2869L3.71623 17.0196L4.39675 16.2869ZM4.30319 16.2L4.98371 15.4672L4.30319 16.2ZM3.83367 15.4333L4.81047 15.2191L3.83367 15.4333ZM3.81118 15.3307L2.83438 15.5449L3.81118 15.3307ZM3.86162 14.474L4.81394 14.7791L3.86162 14.474ZM3.87911 14.4194L2.92679 14.1143L3.87911 14.4194ZM3.89659 14.3649L2.94427 14.0598L3.89659 14.3649ZM4.34965 13.5049L3.54762 12.9076L4.34965 13.5049ZM4.42668 13.4015L5.22871 13.9987L4.42668 13.4015ZM5.15652 12.6713L5.75417 13.473L5.15652 12.6713ZM5.25991 12.5942L4.66226 11.7925L5.25991 12.5942ZM6.15728 12.0315L5.69338 11.1457L6.15728 12.0315ZM6.2165 12.0005L6.6804 12.8864L6.2165 12.0005ZM6.27571 11.9695L5.81182 11.0836L6.27571 11.9695ZM7.05782 11.2916L6.24226 10.7129L7.05782 11.2916ZM7.09527 11.2388L7.91084 11.8175L7.09527 11.2388ZM7.13272 11.186L6.31715 10.6074L7.13272 11.186ZM7.77626 10.3696L7.02348 9.71129L7.77626 10.3696ZM7.86045 10.2733L8.61323 10.9315L7.86045 10.2733ZM8.52088 9.47369L7.73236 8.85869L8.52088 9.47369ZM8.56042 9.423L9.34895 10.038L8.56042 9.423ZM8.59996 9.37231L7.81143 8.75731L8.59996 9.37231ZM9.33046 8.64278L8.71651 7.85344L9.33046 8.64278ZM9.38122 8.60331L9.99517 9.39265L9.38122 8.60331ZM9.43197 8.56383L8.81802 7.77449L9.43197 8.56383ZM10.1867 7.8585L10.9331 8.52397L10.1867 7.8585ZM10.2292 7.8108L9.48277 7.14534L10.2292 7.8108ZM10.2717 7.7631L11.0182 8.42857L10.2717 7.7631ZM11.0128 7.04413L11.6555 7.81025L11.0128 7.04413ZM11.0619 7.00297L10.4192 6.23685L11.0619 7.00297ZM11.1109 6.96181L11.7536 7.72793L11.1109 6.96181ZM11.9061 6.297L11.2661 5.52869L11.9061 6.297ZM11.9554 6.256L11.3153 5.48768L11.9554 6.256ZM12.0046 6.21499L12.6447 6.98331L12.0046 6.21499ZM12.7501 5.50044L12.0094 4.82856L12.7501 5.50044ZM12.8359 5.40582L13.5766 6.0777L12.8359 5.40582ZM13.4131 4.52301L14.3216 4.94086L13.4131 4.52301ZM13.4416 4.4612L12.533 4.04335L13.4416 4.4612ZM13.47 4.3994L14.3785 4.81726L13.47 4.3994ZM14.2113 3.7611L13.9502 2.79577L14.2113 3.7611ZM14.2745 3.74401L14.5355 4.70934L14.2745 3.74401ZM14.3377 3.72692L14.0766 2.76159L14.3377 3.72692ZM15.1893 3.80124L14.6595 4.64937L15.1893 3.80124ZM15.2314 3.82752L15.7612 2.97939L15.2314 3.82752ZM15.2734 3.85379L14.7436 4.70192L15.2734 3.85379ZM16.0715 4.33476L16.5773 3.47212L16.0715 4.33476ZM16.128 4.36793L16.6339 3.50529L16.128 4.36793ZM16.1846 4.4011L15.6788 5.26374L16.1846 4.4011ZM16.6271 5.17201L15.6276 5.14186L16.6271 5.17201ZM16.6253 5.23412L17.6248 5.26428L16.6253 5.23412ZM16.6234 5.29623L15.6239 5.26608L16.6234 5.29623ZM16.3367 6.24843L15.4807 5.73147L16.3367 6.24843ZM16.3031 6.30401L17.1591 6.82097L16.3031 6.30401ZM16.2695 6.35958L17.1256 6.87654L16.2695 6.35958ZM15.6822 7.2186L16.4739 7.82944L15.6822 7.2186ZM15.6431 7.26919L14.8514 6.65835L15.6431 7.26919ZM15.6041 7.31978L16.3959 7.93062L15.6041 7.31978ZM14.9256 8.09791L15.6386 8.79911L14.9256 8.09791ZM14.8808 8.1435L14.1678 7.4423L14.8808 8.1435ZM14.8359 8.18908L15.5489 8.89027L14.8359 8.18908ZM14.0549 8.87853L14.6633 9.67219L14.0549 8.87853ZM14.0032 8.91817L13.3948 8.12451L14.0032 8.91817ZM13.9515 8.9578L14.5599 9.75146L13.9515 8.9578ZM13.2465 9.71306L14.0813 10.2636L13.2465 9.71306ZM13.1757 9.82049L12.3409 9.26992L13.1757 9.82049ZM12.511 10.6083L11.8283 9.87757L12.511 10.6083ZM12.4643 10.6519L13.1469 11.3827L12.4643 10.6519ZM12.4175 10.6956L13.1002 11.4263L12.4175 10.6956ZM12.0806 11.6683L11.0828 11.7346L12.0806 11.6683ZM12.5969 12.3741L12.1997 13.2919L12.5969 12.3741ZM12.6566 12.4L13.0538 11.4822L12.6566 12.4ZM12.7164 12.4258L12.3192 13.3436L12.7164 12.4258ZM13.7158 12.6741L13.6403 13.6712L13.7158 12.6741ZM13.8434 12.6837L13.9189 11.6866L13.8434 12.6837ZM14.8758 12.5778L14.6053 11.6151L14.8758 12.5778ZM14.9396 12.5599L15.2101 13.5226L14.9396 12.5599ZM15.0034 12.542L14.7329 11.5792L15.0034 12.542ZM16.0358 12.3106L16.2008 13.2968L16.0358 12.3106ZM16.0996 12.2999L15.9346 11.3136L16.0996 12.2999ZM16.1634 12.2892L16.3284 13.2755L16.1634 12.2892ZM17.1958 12.4261L17.5928 11.5083L17.1958 12.4261ZM17.2596 12.4537L16.8626 13.3715L17.2596 12.4537ZM17.3234 12.4813L17.7204 11.5635L17.3234 12.4813ZM18.3558 12.6056L18.5443 13.5876L18.3558 12.6056ZM18.4196 12.5933L18.2311 11.6112L18.4196 12.5933ZM18.4834 12.5811L18.6719 13.5631L18.4834 12.5811ZM19.5158 12.5788L19.7 11.5959L19.5158 12.5788ZM19.6434 12.6027L19.4592 13.5856L19.6434 12.6027ZM20.6758 12.4782L20.2819 11.5591L20.6758 12.4782ZM20.8034 12.4235L21.1973 13.3427L20.8034 12.4235ZM21.8358 12.2288L21.7846 13.2275L21.8358 12.2288ZM21.8996 12.232L21.9508 11.2334L21.8996 12.232ZM21.9634 12.2353L21.9122 13.234L21.9634 12.2353ZM22.9958 12.3L22.9221 13.2972L22.9958 12.3ZM23.1234 12.3094L23.1971 11.3121L23.1234 12.3094ZM24.1558 12.3054L24.0743 11.3087L24.1558 12.3054ZM24.2196 12.3001L24.3011 13.2968L24.2196 12.3001ZM24.2834 12.2949L24.2019 11.2983L24.2834 12.2949ZM25.3158 12.4925L24.8946 13.3994L25.3158 12.4925ZM25.4434 12.5517L25.8646 11.6448L25.4434 12.5517ZM26.4758 12.6024L26.8198 13.5414L26.4758 12.6024ZM26.5396 12.579L26.1956 11.64L26.5396 12.579ZM26.6034 12.5557L26.9474 13.4946L26.6034 12.5557ZM27.589 12.601L27.1422 13.4956L27.589 12.601ZM27.647 12.63L28.0938 11.7353L27.647 12.63ZM27.705 12.6589L27.2582 13.5536L27.705 12.6589ZM28.6454 13.091L28.2586 14.0131L28.6454 13.091ZM28.7037 13.1154L29.0905 12.1933L28.7037 13.1154ZM28.7619 13.1398L28.375 14.062L28.7619 13.1398ZM29.1367 13.8676L30.1206 14.0462L29.1367 13.8676ZM29.1248 13.9331L28.1409 13.7544L29.1248 13.9331ZM29.1129 13.9986L30.0968 14.1773L29.1129 13.9986ZM29.0288 15.0449L30.0285 15.0214L29.0288 15.0449ZM29.0318 15.1725L28.032 15.196L29.0318 15.1725ZM28.9869 16.1979L29.9807 16.3092L28.9869 16.1979ZM28.9728 16.3238L27.979 16.2125L28.9728 16.3238ZM28.5323 17.0696L28.0073 16.2185L28.5323 17.0696ZM28.4849 17.0988L29.0099 17.9499L28.4849 17.0988ZM28.4375 17.128L27.9125 16.277L28.4375 17.128ZM27.5414 17.5605L27.1844 16.6264L27.5414 17.5605ZM27.478 17.5847L27.835 18.5188L27.478 17.5847ZM27.4147 17.6089L27.0577 16.6748L27.4147 17.6089ZM26.3859 17.6503L26.6727 16.6923L26.3859 17.6503ZM26.3221 17.6312L26.0353 18.5892L26.3221 17.6312ZM26.2583 17.6121L26.5451 16.6541L26.2583 17.6121ZM25.2259 17.5617L25.0281 16.5815L25.2259 17.5617ZM25.1621 17.5746L25.36 18.5548L25.1621 17.5746ZM25.0983 17.5875L24.9005 16.6072L25.0983 17.5875ZM24.0659 17.6767L24.0369 18.6762L24.0659 17.6767ZM24.0021 17.6748L24.0312 16.6752L24.0021 17.6748ZM23.9383 17.673L23.9674 16.6734L23.9383 17.673ZM22.9059 17.595L23.027 16.6023L22.9059 17.595ZM22.8421 17.5872L22.721 18.5798L22.8421 17.5872ZM22.7783 17.5794L22.8994 16.5868L22.7783 17.5794ZM21.7459 17.6106L21.9254 18.5944L21.7459 17.6106ZM21.6821 17.6223L21.5026 16.6385L21.6821 17.6223ZM21.6183 17.6339L21.7978 18.6177L21.6183 17.6339ZM20.5221 17.5949L20.7458 16.6203L20.5221 17.5949ZM20.4583 17.5803L20.2346 18.555L20.4583 17.5803ZM19.4259 17.45L19.403 18.4497L19.4259 17.45ZM19.3621 17.4485L19.3851 16.4488L19.3621 17.4485ZM19.2983 17.447L19.2754 18.4468L19.2983 17.447ZM18.2659 17.5445L18.4732 18.5228L18.2659 17.5445ZM18.1383 17.5716L17.9311 16.5933L18.1383 17.5716ZM17.1059 17.4451L16.6904 18.3547L17.1059 17.4451ZM16.9783 17.3868L17.3939 16.4772L16.9783 17.3868ZM15.9459 17.3982L15.514 16.4962L15.9459 17.3982ZM15.8183 17.4593L16.2502 18.3612L15.8183 17.4593ZM14.7859 17.542L14.4825 18.4949L14.7859 17.542ZM14.7221 17.5217L14.4187 18.4746L14.7221 17.5217ZM14.6583 17.5014L14.9618 16.5486L14.6583 17.5014ZM13.6259 17.346L13.6085 16.3462L13.6259 17.346ZM13.5621 17.3471L13.5796 18.347L13.5621 17.3471ZM13.4983 17.3483L13.4809 16.3484L13.4983 17.3483ZM12.688 17.7293L13.4726 18.3494L12.688 17.7293ZM12.6517 17.7753L11.8672 17.1552L12.6517 17.7753ZM12.6154 17.8213L13.3999 18.4414L12.6154 17.8213ZM12.1195 18.7173L13.0527 19.0767L12.1195 18.7173ZM12.0696 18.8468L11.1364 18.4874L12.0696 18.8468ZM12.0014 19.2744L12.5865 20.0854L12.0014 19.2744ZM12.018 19.2625L11.4329 18.4515L12.018 19.2625ZM12.0345 19.2506L12.6195 20.0616L12.0345 19.2506ZM12.6228 19.4434L12.0862 20.2872L12.6228 19.4434ZM12.679 19.4791L12.1424 20.3229L12.1986 20.3586L12.7352 19.5148L13.2719 18.6711L13.2157 18.6353L12.679 19.4791ZM12.7352 19.5148L12.1986 20.3586C12.3822 20.4754 12.5207 20.6152 12.6261 20.781L13.47 20.2444L14.3138 19.7078C14.0459 19.2864 13.6945 18.9399 13.2719 18.6711L12.7352 19.5148ZM13.47 20.2444L12.6261 20.781L12.6607 20.8354L13.5046 20.2988L14.3484 19.7622L14.3138 19.7078L13.47 20.2444ZM13.5046 20.2988L12.6607 20.8354L12.6953 20.8898L13.5392 20.3532L14.383 19.8166L14.3484 19.7622L13.5046 20.2988ZM13.5392 20.3532L12.6953 20.8898C12.83 21.1015 12.9422 21.345 13.0281 21.6258L13.9843 21.3332L14.9405 21.0406C14.8063 20.6018 14.6217 20.192 14.383 19.8166L13.5392 20.3532ZM13.9843 21.3332L13.0281 21.6258L13.0485 21.6925L14.0047 21.3999L14.961 21.1073L14.9405 21.0406L13.9843 21.3332ZM14.0047 21.3999L13.0485 21.6925L13.0689 21.7592L14.0251 21.4666L14.9814 21.174L14.961 21.1073L14.0047 21.3999ZM14.0251 21.4666L13.0689 21.7592C13.2432 22.329 13.5843 22.8046 14.088 23.1364L14.6382 22.3013L15.1883 21.4663C15.0948 21.4046 15.0272 21.3238 14.9814 21.174L14.0251 21.4666ZM14.6382 22.3013L14.088 23.1364L14.1434 23.1729L14.6935 22.3378L15.2437 21.5027L15.1883 21.4663L14.6382 22.3013ZM14.6935 22.3378L14.1434 23.1729L14.1987 23.2094L14.7489 22.3743L15.299 21.5392L15.2437 21.5027L14.6935 22.3378ZM14.7489 22.3743L14.1987 23.2094C14.4312 23.3625 14.6332 23.5347 14.8079 23.7255L15.5455 23.0503L16.2831 22.3751C15.9929 22.058 15.6638 21.7795 15.299 21.5392L14.7489 22.3743ZM15.5455 23.0503L14.8079 23.7255L14.851 23.7726L15.5886 23.0974L16.3262 22.4221L16.2831 22.3751L15.5455 23.0503ZM15.5886 23.0974L14.851 23.7726L14.8941 23.8197L15.6317 23.1444L16.3693 22.4692L16.3262 22.4221L15.5886 23.0974ZM15.6317 23.1444L14.8941 23.8197C15.061 24.002 15.1913 24.1965 15.2895 24.4045L16.1939 23.9778L17.0983 23.5512C16.9118 23.1558 16.6673 22.7948 16.3693 22.4692L15.6317 23.1444ZM16.1939 23.9778L15.2895 24.4045L15.3158 24.4605L16.2202 24.0338L17.1246 23.6071L17.0983 23.5512L16.1939 23.9778ZM16.2202 24.0338L15.3158 24.4605L15.3422 24.5164L16.2466 24.0897L17.151 23.663L17.1246 23.6071L16.2202 24.0338ZM16.2466 24.0897L15.3422 24.5164C15.4278 24.6978 15.4103 24.7604 15.4131 24.7433L16.3997 24.9069L17.3862 25.0704C17.4696 24.5671 17.3501 24.0849 17.151 23.663L16.2466 24.0897ZM16.3997 24.9069L15.4131 24.7433L15.4057 24.7884L16.3922 24.9519L17.3787 25.1155L17.3862 25.0704L16.3997 24.9069ZM16.3922 24.9519L15.4057 24.7884L15.3982 24.8334L16.3847 24.997L17.3712 25.1606L17.3787 25.1155L16.3922 24.9519ZM16.3847 24.997L15.3982 24.8334C15.3814 24.9347 15.3264 25.1107 15.1879 25.3742L16.073 25.8395L16.9582 26.3049C17.1546 25.9312 17.3074 25.5455 17.3712 25.1606L16.3847 24.997ZM16.073 25.8395L15.1879 25.3742L15.1568 25.4333L16.042 25.8986L16.9271 26.3639L16.9582 26.3049L16.073 25.8395ZM16.042 25.8986L15.1568 25.4333L15.1258 25.4923L16.0109 25.9577L16.896 26.423L16.9271 26.3639L16.042 25.8986ZM16.0109 25.9577L15.1258 25.4923C15.1044 25.533 15.0792 25.5748 14.9437 25.6086L15.1859 26.5788L15.4282 27.549C16.0576 27.3919 16.5824 27.0195 16.896 26.423L16.0109 25.9577ZM15.1859 26.5788L14.9437 25.6086L14.8728 25.6263L15.115 26.5965L15.3573 27.5668L15.4282 27.549L15.1859 26.5788ZM15.115 26.5965L14.8728 25.6263L14.8018 25.644L15.0441 26.6143L15.2864 27.5845L15.3573 27.5668L15.115 26.5965ZM15.0441 26.6143L14.8018 25.644C14.7714 25.6516 14.7554 25.6524 14.7518 25.6524C14.75 25.6525 14.7508 25.6523 14.7538 25.6527C14.7569 25.653 14.7615 25.6538 14.767 25.6552C14.7726 25.6567 14.7783 25.6586 14.7836 25.6608C14.7889 25.663 14.793 25.6652 14.7956 25.6668C14.8012 25.6701 14.7977 25.6691 14.7861 25.6575L14.0776 26.3632L13.3691 27.0689C13.8975 27.5994 14.5884 27.7587 15.2864 27.5845L15.0441 26.6143ZM14.0776 26.3632L14.7861 25.6575L14.7375 25.6087L14.029 26.3144L13.3205 27.0201L13.3691 27.0689L14.0776 26.3632ZM14.029 26.3144L14.7375 25.6087L14.689 25.56L13.9805 26.2657L13.272 26.9714L13.3205 27.0201L14.029 26.3144ZM13.9805 26.2657L14.689 25.56C14.4526 25.3226 14.2405 25.084 14.0517 24.8442L13.2661 25.4629L12.4804 26.0816C12.7204 26.3864 12.9846 26.6829 13.272 26.9714L13.9805 26.2657ZM13.2661 25.4629L14.0517 24.8442L14.012 24.7938L13.2263 25.4124L12.4407 26.0311L12.4804 26.0816L13.2661 25.4629ZM13.2263 25.4124L14.012 24.7938L13.9722 24.7433L13.1866 25.3619L12.4009 25.9806L12.4407 26.0311L13.2263 25.4124ZM13.1866 25.3619L13.9722 24.7433C13.6913 24.3865 13.3589 24.0812 12.9791 23.8291L12.4262 24.6623L11.8732 25.4955C12.0784 25.6317 12.2531 25.7929 12.4009 25.9806L13.1866 25.3619ZM12.4262 24.6623L12.9791 23.8291L12.9249 23.7931L12.3719 24.6263L11.819 25.4595L11.8732 25.4955L12.4262 24.6623ZM12.3719 24.6263L12.9249 23.7931L12.8707 23.7571L12.3177 24.5903L11.7647 25.4235L11.819 25.4595L12.3719 24.6263ZM12.3177 24.5903L12.8707 23.7571C12.7602 23.6839 12.6701 23.5807 12.602 23.4082L11.672 23.776L10.7421 24.1437C10.9497 24.6688 11.2901 25.1085 11.7647 25.4235L12.3177 24.5903ZM11.672 23.776L12.602 23.4082L12.5764 23.3436L11.6464 23.7113L10.7165 24.079L10.7421 24.1437L11.672 23.776ZM11.6464 23.7113L12.5764 23.3436L12.5508 23.2789L11.6209 23.6467L10.6909 24.0144L10.7165 24.079L11.6464 23.7113ZM11.6209 23.6467L12.5508 23.2789C12.3288 22.7175 11.9407 22.2706 11.4006 21.9868L10.9355 22.872L10.4703 23.7573C10.5683 23.8087 10.6371 23.8783 10.6909 24.0144L11.6209 23.6467ZM10.9355 22.872L11.4006 21.9868L11.3415 21.9557L10.8763 22.841L10.4111 23.7262L10.4703 23.7573L10.9355 22.872ZM10.8763 22.841L11.3415 21.9557L11.2823 21.9247L10.8172 22.8099L10.352 23.6951L10.4111 23.7262L10.8763 22.841ZM10.8172 22.8099L11.2823 21.9247C11.1098 21.834 10.9833 21.7176 10.8863 21.5694L10.0497 22.1173L9.21318 22.6652C9.50131 23.1051 9.88648 23.4505 10.352 23.6951L10.8172 22.8099ZM10.0497 22.1173L10.8863 21.5694L10.8506 21.5149L10.014 22.0628L9.17747 22.6107L9.21318 22.6652L10.0497 22.1173ZM10.014 22.0628L10.8506 21.5149L10.8149 21.4604L9.97831 22.0082L9.14176 22.5561L9.17747 22.6107L10.014 22.0628ZM9.97831 22.0082L10.8149 21.4604C10.536 21.0346 10.1709 20.6904 9.73066 20.4343L9.22786 21.2987L8.72507 22.1631C8.90019 22.2649 9.03541 22.3938 9.14176 22.5561L9.97831 22.0082ZM9.22786 21.2987L9.73066 20.4343L9.67362 20.4011L9.17082 21.2655L8.66802 22.1299L8.72507 22.1631L9.22786 21.2987ZM9.17082 21.2655L9.67362 20.4011L9.61657 20.3679L9.11377 21.2323L8.61098 22.0967L8.66802 22.1299L9.17082 21.2655ZM9.11377 21.2323L9.61657 20.3679C9.44081 20.2657 9.30493 20.1365 9.19799 19.9739L8.36255 20.5235L7.52711 21.0731C7.8064 21.4976 8.17134 21.841 8.61098 22.0967L9.11377 21.2323ZM8.36255 20.5235L9.19799 19.9739L9.16219 19.9195L8.32675 20.4691L7.49131 21.0186L7.52711 21.0731L8.36255 20.5235ZM8.32675 20.4691L9.16219 19.9195L9.12639 19.8651L8.29095 20.4146L7.45551 20.9642L7.49131 21.0186L8.32675 20.4691ZM8.29095 20.4146L9.12639 19.8651C8.90771 19.5326 8.6682 19.2189 8.4078 18.9244L7.65868 19.5869L6.90957 20.2493C7.10595 20.4714 7.28796 20.7095 7.45551 20.9642L8.29095 20.4146ZM7.65868 19.5869L8.4078 18.9244L8.36545 18.8765L7.61634 19.539L6.86722 20.2014L6.90957 20.2493L7.65868 19.5869ZM7.61634 19.539L8.36545 18.8765L8.32311 18.8287L7.574 19.4911L6.82488 20.1535L6.86722 20.2014L7.61634 19.539ZM7.574 19.4911L8.32311 18.8287C8.09359 18.5691 7.86344 18.3102 7.63266 18.0519L6.88694 18.7181L6.14121 19.3844C6.36972 19.6401 6.59761 19.8965 6.82488 20.1535L7.574 19.4911ZM6.88694 18.7181L7.63266 18.0519L7.59009 18.0042L6.84436 18.6705L6.09864 19.3367L6.14121 19.3844L6.88694 18.7181ZM6.84436 18.6705L7.59009 18.0042L7.54752 17.9566L6.80179 18.6228L6.05606 19.2891L6.09864 19.3367L6.84436 18.6705ZM6.80179 18.6228L7.54752 17.9566C7.31803 17.6997 7.08862 17.4428 6.85931 17.1857L6.11312 17.8515L5.36693 18.5172C5.59655 18.7746 5.82626 19.0319 6.05606 19.2891L6.80179 18.6228ZM6.11312 17.8515L6.85931 17.1857L6.81676 17.138L6.07057 17.8038L5.32438 18.4695L5.36693 18.5172L6.11312 17.8515ZM6.07057 17.8038L6.81676 17.138L6.77422 17.0904L6.02803 17.7561L5.28184 18.4218L5.32438 18.4695L6.07057 17.8038ZM6.02803 17.7561L6.77422 17.0904C6.50814 16.7921 6.21885 16.5172 5.90683 16.2658L5.2795 17.0446L4.65218 17.8233C4.87925 18.0063 5.08898 18.2057 5.28184 18.4218L6.02803 17.7561ZM5.2795 17.0446L5.90683 16.2658L5.85686 16.2256L5.22953 17.0043L4.6022 17.7831L4.65218 17.8233L5.2795 17.0446ZM5.22953 17.0043L5.85686 16.2256L5.80689 16.1853L5.17956 16.9641L4.55223 17.7428L4.6022 17.7831L5.22953 17.0043ZM5.17956 16.9641L5.80689 16.1853C5.55552 15.9828 5.31233 15.7724 5.07727 15.5541L4.39675 16.2869L3.71623 17.0196C3.98583 17.27 4.26452 17.5111 4.55223 17.7428L5.17956 16.9641ZM4.39675 16.2869L5.07727 15.5541L5.03049 15.5107L4.34997 16.2434L3.66945 16.9761L3.71623 17.0196L4.39675 16.2869ZM4.34997 16.2434L5.03049 15.5107L4.98371 15.4672L4.30319 16.2L3.62267 16.9327L3.66945 16.9761L4.34997 16.2434ZM4.30319 16.2L4.98371 15.4672C4.84801 15.3412 4.81886 15.2574 4.81047 15.2191L3.83367 15.4333L2.85688 15.6475C2.96985 16.1627 3.25371 16.59 3.62267 16.9327L4.30319 16.2ZM3.83367 15.4333L4.81047 15.2191L4.79922 15.1678L3.82242 15.382L2.84563 15.5962L2.85688 15.6475L3.83367 15.4333ZM3.82242 15.382L4.79922 15.1678L4.78797 15.1165L3.81118 15.3307L2.83438 15.5449L2.84563 15.5962L3.82242 15.382ZM3.81118 15.3307L4.78797 15.1165C4.76844 15.0274 4.76838 14.9213 4.81394 14.7791L3.86162 14.474L2.9093 14.1689C2.76624 14.6154 2.73255 15.0804 2.83438 15.5449L3.81118 15.3307ZM3.86162 14.474L4.81394 14.7791L4.83142 14.7245L3.87911 14.4194L2.92679 14.1143L2.9093 14.1689L3.86162 14.474ZM3.87911 14.4194L4.83142 14.7245L4.84891 14.67L3.89659 14.3649L2.94427 14.0598L2.92679 14.1143L3.87911 14.4194ZM3.89659 14.3649L4.84891 14.67C4.90565 14.4929 5.00166 14.3036 5.15169 14.1022L4.34965 13.5049L3.54762 12.9076C3.28218 13.2641 3.07615 13.6481 2.94427 14.0598L3.89659 14.3649ZM4.34965 13.5049L5.15169 14.1022L5.1902 14.0505L4.38817 13.4532L3.58613 12.8559L3.54762 12.9076L4.34965 13.5049ZM4.38817 13.4532L5.1902 14.0505L5.22871 13.9987L4.42668 13.4015L3.62464 12.8042L3.58613 12.8559L4.38817 13.4532ZM4.42668 13.4015L5.22871 13.9987C5.37858 13.7975 5.55302 13.623 5.75417 13.473L5.15652 12.6713L4.55888 11.8695C4.20236 12.1353 3.89023 12.4475 3.62464 12.8042L4.42668 13.4015ZM5.15652 12.6713L5.75417 13.473L5.80586 13.4345L5.20822 12.6327L4.61057 11.831L4.55888 11.8695L5.15652 12.6713ZM5.20822 12.6327L5.80586 13.4345L5.85756 13.396L5.25991 12.5942L4.66226 11.7925L4.61057 11.831L5.20822 12.6327ZM5.25991 12.5942L5.85756 13.396C6.09257 13.2208 6.34679 13.0611 6.62118 12.9174L6.15728 12.0315L5.69338 11.1457C5.32894 11.3365 4.98491 11.5519 4.66226 11.7925L5.25991 12.5942ZM6.15728 12.0315L6.62118 12.9174L6.6804 12.8864L6.2165 12.0005L5.7526 11.1147L5.69338 11.1457L6.15728 12.0315ZM6.2165 12.0005L6.6804 12.8864L6.73961 12.8554L6.27571 11.9695L5.81182 11.0836L5.7526 11.1147L6.2165 12.0005ZM6.27571 11.9695L6.73961 12.8554C7.19409 12.6174 7.57701 12.288 7.87339 11.8703L7.05782 11.2916L6.24226 10.7129C6.13466 10.8646 5.99617 10.9871 5.81182 11.0836L6.27571 11.9695ZM7.05782 11.2916L7.87339 11.8703L7.91084 11.8175L7.09527 11.2388L6.2797 10.6602L6.24226 10.7129L7.05782 11.2916ZM7.09527 11.2388L7.91084 11.8175L7.94829 11.7647L7.13272 11.186L6.31715 10.6074L6.2797 10.6602L7.09527 11.2388ZM7.13272 11.186L7.94829 11.7647C8.13095 11.5073 8.32454 11.2617 8.52905 11.0278L7.77626 10.3696L7.02348 9.71129C6.77391 9.99669 6.53847 10.2955 6.31715 10.6074L7.13272 11.186ZM7.77626 10.3696L8.52905 11.0278L8.57114 10.9797L7.81835 10.3214L7.06557 9.66316L7.02348 9.71129L7.77626 10.3696ZM7.81835 10.3214L8.57114 10.9797L8.61323 10.9315L7.86045 10.2733L7.10766 9.61502L7.06557 9.66316L7.81835 10.3214ZM7.86045 10.2733L8.61323 10.9315C8.85265 10.6578 9.08471 10.3768 9.30941 10.0887L8.52088 9.47369L7.73236 8.85869C7.53055 9.11744 7.32232 9.36954 7.10766 9.61502L7.86045 10.2733ZM8.52088 9.47369L9.30941 10.0887L9.34895 10.038L8.56042 9.423L7.77189 8.808L7.73236 8.85869L8.52088 9.47369ZM8.56042 9.423L9.34895 10.038L9.38848 9.98731L8.59996 9.37231L7.81143 8.75731L7.77189 8.808L8.56042 9.423ZM8.59996 9.37231L9.38848 9.98731C9.55096 9.77899 9.73582 9.59437 9.94442 9.43212L9.33046 8.64278L8.71651 7.85344C8.3776 8.11704 8.07546 8.41877 7.81143 8.75731L8.59996 9.37231ZM9.33046 8.64278L9.94442 9.43212L9.99517 9.39265L9.38122 8.60331L8.76726 7.81396L8.71651 7.85344L9.33046 8.64278ZM9.38122 8.60331L9.99517 9.39265L10.0459 9.35317L9.43197 8.56383L8.81802 7.77449L8.76726 7.81396L9.38122 8.60331ZM9.43197 8.56383L10.0459 9.35317C10.3672 9.10328 10.6632 8.82676 10.9331 8.52397L10.1867 7.8585L9.44025 7.19304C9.25142 7.40483 9.04424 7.59853 8.81802 7.77449L9.43197 8.56383ZM10.1867 7.8585L10.9331 8.52397L10.9756 8.47627L10.2292 7.8108L9.48277 7.14534L9.44025 7.19304L10.1867 7.8585ZM10.2292 7.8108L10.9756 8.47627L11.0182 8.42857L10.2717 7.7631L9.5253 7.09764L9.48277 7.14534L10.2292 7.8108ZM10.2717 7.7631L11.0182 8.42857C11.2154 8.20736 11.4277 8.00133 11.6555 7.81025L11.0128 7.04413L10.3701 6.27801C10.0686 6.53097 9.78686 6.80426 9.5253 7.09764L10.2717 7.7631ZM11.0128 7.04413L11.6555 7.81025L11.7046 7.76909L11.0619 7.00297L10.4192 6.23685L10.3701 6.27801L11.0128 7.04413ZM11.0619 7.00297L11.7046 7.76909L11.7536 7.72793L11.1109 6.96181L10.4682 6.19569L10.4192 6.23685L11.0619 7.00297ZM11.1109 6.96181L11.7536 7.72793C12.0174 7.50664 12.2816 7.28577 12.5462 7.06532L11.9061 6.297L11.2661 5.52869C10.9997 5.7506 10.7338 5.97293 10.4682 6.19569L11.1109 6.96181ZM11.9061 6.297L12.5462 7.06532L12.5954 7.02431L11.9554 6.256L11.3153 5.48768L11.2661 5.52869L11.9061 6.297ZM11.9554 6.256L12.5954 7.02431L12.6447 6.98331L12.0046 6.21499L11.3645 5.44668L11.3153 5.48768L11.9554 6.256ZM12.0046 6.21499L12.6447 6.98331C12.9458 6.73245 13.2279 6.46205 13.4907 6.17232L12.7501 5.50044L12.0094 4.82856C11.8093 5.0492 11.5944 5.25517 11.3645 5.44668L12.0046 6.21499ZM12.7501 5.50044L13.4907 6.17232L13.5336 6.12501L12.793 5.45313L12.0523 4.78125L12.0094 4.82856L12.7501 5.50044ZM12.793 5.45313L13.5336 6.12501L13.5766 6.0777L12.8359 5.40582L12.0952 4.73394L12.0523 4.78125L12.793 5.45313ZM12.8359 5.40582L13.5766 6.0777C13.881 5.74214 14.1284 5.36093 14.3216 4.94086L13.4131 4.52301L12.5046 4.10515C12.3912 4.35179 12.2538 4.55913 12.0952 4.73394L12.8359 5.40582ZM13.4131 4.52301L14.3216 4.94086L14.3501 4.87906L13.4416 4.4612L12.533 4.04335L12.5046 4.10515L13.4131 4.52301ZM13.4416 4.4612L14.3501 4.87906L14.3785 4.81726L13.47 4.3994L12.5615 3.98154L12.533 4.04335L13.4416 4.4612ZM13.47 4.3994L14.3785 4.81726C14.4027 4.76457 14.4209 4.74926 14.4228 4.74759C14.4238 4.7467 14.4341 4.73677 14.4723 4.72643L14.2113 3.7611L13.9502 2.79577C13.3104 2.9688 12.8332 3.39083 12.5615 3.98154L13.47 4.3994ZM14.2113 3.7611L14.4723 4.72643L14.5355 4.70934L14.2745 3.74401L14.0134 2.77868L13.9502 2.79577L14.2113 3.7611ZM14.2745 3.74401L14.5355 4.70934L14.5987 4.69225L14.3377 3.72692L14.0766 2.76159L14.0134 2.77868L14.2745 3.74401ZM14.3377 3.72692L14.5987 4.69225C14.6819 4.66974 14.7184 4.67251 14.7193 4.67258C14.7193 4.67259 14.7173 4.67241 14.7136 4.67166C14.7098 4.6709 14.7047 4.66965 14.6985 4.66764C14.6855 4.66339 14.6719 4.65712 14.6595 4.64937L15.1893 3.80124L15.7191 2.95311C15.1874 2.62098 14.5958 2.62119 14.0766 2.76159L14.3377 3.72692ZM15.1893 3.80124L14.6595 4.64937L14.7016 4.67565L15.2314 3.82752L15.7612 2.97939L15.7191 2.95311L15.1893 3.80124ZM15.2314 3.82752L14.7016 4.67565L14.7436 4.70192L15.2734 3.85379L15.8032 3.00566L15.7612 2.97939L15.2314 3.82752ZM15.2734 3.85379L14.7436 4.70192C14.9805 4.84987 15.2548 5.01516 15.5656 5.1974L16.0715 4.33476L16.5773 3.47212C16.2778 3.29652 16.0201 3.14116 15.8032 3.00566L15.2734 3.85379ZM16.0715 4.33476L15.5656 5.1974L15.6222 5.23057L16.128 4.36793L16.6339 3.50529L16.5773 3.47212L16.0715 4.33476ZM16.128 4.36793L15.6222 5.23057L15.6788 5.26374L16.1846 4.4011L16.6904 3.53846L16.6339 3.50529L16.128 4.36793ZM16.1846 4.4011L15.6788 5.26374C15.7103 5.28224 15.6851 5.27521 15.6568 5.22588C15.6437 5.20309 15.6354 5.18035 15.6311 5.16148C15.6269 5.14339 15.6278 5.1355 15.6276 5.14186L16.6271 5.17201L17.6267 5.20217C17.6366 4.87466 17.5688 4.53931 17.3914 4.23017C17.2155 3.92387 16.964 3.69889 16.6904 3.53846L16.1846 4.4011ZM16.6271 5.17201L15.6276 5.14186L15.6257 5.20397L16.6253 5.23412L17.6248 5.26428L17.6267 5.20217L16.6271 5.17201ZM16.6253 5.23412L15.6257 5.20397L15.6239 5.26608L16.6234 5.29623L17.6229 5.32639L17.6248 5.26428L16.6253 5.23412ZM16.6234 5.29623L15.6239 5.26608C15.6192 5.42134 15.5769 5.57205 15.4807 5.73147L16.3367 6.24843L17.1927 6.76539C17.4585 6.32525 17.6074 5.84116 17.6229 5.32639L16.6234 5.29623ZM16.3367 6.24843L15.4807 5.73147L15.4471 5.78705L16.3031 6.30401L17.1591 6.82097L17.1927 6.76539L16.3367 6.24843ZM16.3031 6.30401L15.4471 5.78705L15.4135 5.84262L16.2695 6.35958L17.1256 6.87654L17.1591 6.82097L16.3031 6.30401ZM16.2695 6.35958L15.4135 5.84262C15.2518 6.11044 15.0774 6.36539 14.8904 6.60776L15.6822 7.2186L16.4739 7.82944C16.708 7.52601 16.9252 7.20829 17.1256 6.87654L16.2695 6.35958ZM15.6822 7.2186L14.8904 6.60776L14.8514 6.65835L15.6431 7.26919L16.4349 7.88003L16.4739 7.82944L15.6822 7.2186ZM15.6431 7.26919L14.8514 6.65835L14.8124 6.70894L15.6041 7.31978L16.3959 7.93062L16.4349 7.88003L15.6431 7.26919ZM15.6041 7.31978L14.8124 6.70894C14.6263 6.95015 14.4264 7.17936 14.2126 7.39672L14.9256 8.09791L15.6386 8.79911C15.9084 8.52475 16.1609 8.2352 16.3959 7.93062L15.6041 7.31978ZM14.9256 8.09791L14.2126 7.39672L14.1678 7.4423L14.8808 8.1435L15.5937 8.84469L15.6386 8.79911L14.9256 8.09791ZM14.8808 8.1435L14.1678 7.4423L14.123 7.48788L14.8359 8.18908L15.5489 8.89027L15.5937 8.84469L14.8808 8.1435ZM14.8359 8.18908L14.123 7.48788C13.9145 7.69989 13.6892 7.8989 13.4465 8.08488L14.0549 8.87853L14.6633 9.67219C14.9784 9.43061 15.2738 9.16998 15.5489 8.89027L14.8359 8.18908ZM14.0549 8.87853L13.4465 8.08488L13.3948 8.12451L14.0032 8.91817L14.6116 9.71183L14.6633 9.67219L14.0549 8.87853ZM14.0032 8.91817L13.3948 8.12451L13.3431 8.16414L13.9515 8.9578L14.5599 9.75146L14.6116 9.71183L14.0032 8.91817ZM13.9515 8.9578L13.3431 8.16414C12.9769 8.4449 12.665 8.7785 12.4117 9.16249L13.2465 9.71306L14.0813 10.2636C14.2102 10.0682 14.3683 9.89826 14.5599 9.75146L13.9515 8.9578ZM13.2465 9.71306L12.4117 9.16249L12.3763 9.21621L13.2111 9.76677L14.0459 10.3173L14.0813 10.2636L13.2465 9.71306ZM13.2111 9.76677L12.3763 9.21621L12.3409 9.26992L13.1757 9.82049L14.0105 10.3711L14.0459 10.3173L13.2111 9.76677ZM13.1757 9.82049L12.3409 9.26992C12.193 9.49422 12.0224 9.69627 11.8283 9.87757L12.511 10.6083L13.1937 11.339C13.5037 11.0494 13.7762 10.7262 14.0105 10.3711L13.1757 9.82049ZM12.511 10.6083L11.8283 9.87757L11.7816 9.92123L12.4643 10.6519L13.1469 11.3827L13.1937 11.339L12.511 10.6083ZM12.4643 10.6519L11.7816 9.92123L11.7348 9.96489L12.4175 10.6956L13.1002 11.4263L13.1469 11.3827L12.4643 10.6519ZM12.4175 10.6956L11.7348 9.96489C11.2734 10.396 11.0319 10.9678 11.0747 11.6118L12.0725 11.5455L13.0703 11.4792C13.0692 11.4636 13.0703 11.4565 13.0704 11.4558C13.0705 11.4554 13.0701 11.4577 13.0688 11.4609C13.0675 11.4639 13.0672 11.4634 13.0705 11.4588C13.074 11.4539 13.0826 11.4427 13.1002 11.4263L12.4175 10.6956ZM12.0725 11.5455L11.0747 11.6118L11.0788 11.6732L12.0766 11.6069L13.0744 11.5406L13.0703 11.4792L12.0725 11.5455ZM12.0766 11.6069L11.0788 11.6732L11.0828 11.7346L12.0806 11.6683L13.0784 11.602L13.0744 11.5406L12.0766 11.6069ZM12.0806 11.6683L11.0828 11.7346C11.1046 12.0625 11.2062 12.3924 11.4191 12.6835C11.6298 12.9715 11.9087 13.1659 12.1997 13.2919L12.5969 12.3741L12.9941 11.4564C12.9629 11.4429 12.9947 11.4499 13.0333 11.5027C13.0513 11.5273 13.0638 11.5527 13.0713 11.5745C13.0785 11.5954 13.0787 11.6063 13.0784 11.602L12.0806 11.6683ZM12.5969 12.3741L12.1997 13.2919L12.2594 13.3177L12.6566 12.4L13.0538 11.4822L12.9941 11.4564L12.5969 12.3741ZM12.6566 12.4L12.2594 13.3177L12.3192 13.3436L12.7164 12.4258L13.1135 11.5081L13.0538 11.4822L12.6566 12.4ZM12.7164 12.4258L12.3192 13.3436C12.7416 13.5264 13.1833 13.6366 13.6403 13.6712L13.7158 12.6741L13.7913 11.6769C13.56 11.6594 13.3354 11.6041 13.1135 11.5081L12.7164 12.4258ZM13.7158 12.6741L13.6403 13.6712L13.7041 13.676L13.7796 12.6789L13.8551 11.6818L13.7913 11.6769L13.7158 12.6741ZM13.7796 12.6789L13.7041 13.676L13.7679 13.6809L13.8434 12.6837L13.9189 11.6866L13.8551 11.6818L13.7796 12.6789ZM13.8434 12.6837L13.7679 13.6809C14.2326 13.7161 14.6938 13.6677 15.1463 13.5405L14.8758 12.5778L14.6053 11.6151C14.3695 11.6813 14.1425 11.7035 13.9189 11.6866L13.8434 12.6837ZM14.8758 12.5778L15.1463 13.5405L15.2101 13.5226L14.9396 12.5599L14.6691 11.5972L14.6053 11.6151L14.8758 12.5778ZM14.9396 12.5599L15.2101 13.5226L15.2739 13.5047L15.0034 12.542L14.7329 11.5792L14.6691 11.5972L14.9396 12.5599ZM15.0034 12.542L15.2739 13.5047C15.5842 13.4175 15.8931 13.3483 16.2008 13.2968L16.0358 12.3106L15.8708 11.3243C15.4902 11.3879 15.1109 11.473 14.7329 11.5792L15.0034 12.542ZM16.0358 12.3106L16.2008 13.2968L16.2646 13.2862L16.0996 12.2999L15.9346 11.3136L15.8708 11.3243L16.0358 12.3106ZM16.0996 12.2999L16.2646 13.2862L16.3284 13.2755L16.1634 12.2892L15.9984 11.3029L15.9346 11.3136L16.0996 12.2999ZM16.1634 12.2892L16.3284 13.2755C16.4682 13.2521 16.6177 13.2656 16.7988 13.3439L17.1958 12.4261L17.5928 11.5083C17.0856 11.2889 16.5468 11.2112 15.9984 11.3029L16.1634 12.2892ZM17.1958 12.4261L16.7988 13.3439L16.8626 13.3715L17.2596 12.4537L17.6566 11.5359L17.5928 11.5083L17.1958 12.4261ZM17.2596 12.4537L16.8626 13.3715L16.9264 13.3991L17.3234 12.4813L17.7204 11.5635L17.6566 11.5359L17.2596 12.4537ZM17.3234 12.4813L16.9264 13.3991C17.4412 13.6219 17.9889 13.6942 18.5443 13.5876L18.3558 12.6056L18.1673 11.6235C18.0344 11.649 17.8938 11.6386 17.7204 11.5635L17.3234 12.4813ZM18.3558 12.6056L18.5443 13.5876L18.6081 13.5754L18.4196 12.5933L18.2311 11.6112L18.1673 11.6235L18.3558 12.6056ZM18.4196 12.5933L18.6081 13.5754L18.6719 13.5631L18.4834 12.5811L18.2949 11.599L18.2311 11.6112L18.4196 12.5933ZM18.4834 12.5811L18.6719 13.5631C18.893 13.5207 19.1107 13.5202 19.3316 13.5616L19.5158 12.5788L19.7 11.5959C19.2326 11.5083 18.762 11.5093 18.2949 11.599L18.4834 12.5811ZM19.5158 12.5788L19.3316 13.5616L19.3954 13.5736L19.5796 12.5907L19.7638 11.6078L19.7 11.5959L19.5158 12.5788ZM19.5796 12.5907L19.3954 13.5736L19.4592 13.5856L19.6434 12.6027L19.8276 11.6198L19.7638 11.6078L19.5796 12.5907ZM19.6434 12.6027L19.4592 13.5856C20.0118 13.6891 20.5567 13.6172 21.0697 13.3974L20.6758 12.4782L20.2819 11.5591C20.1066 11.6342 19.9633 11.6452 19.8276 11.6198L19.6434 12.6027ZM20.6758 12.4782L21.0697 13.3974L21.1335 13.37L20.7396 12.4509L20.3457 11.5317L20.2819 11.5591L20.6758 12.4782ZM20.7396 12.4509L21.1335 13.37L21.1973 13.3427L20.8034 12.4235L20.4095 11.5044L20.3457 11.5317L20.7396 12.4509ZM20.8034 12.4235L21.1973 13.3427C21.4134 13.2501 21.6058 13.2183 21.7846 13.2275L21.8358 12.2288L21.887 11.2301C21.3775 11.204 20.8816 11.302 20.4095 11.5044L20.8034 12.4235ZM21.8358 12.2288L21.7846 13.2275L21.8484 13.2307L21.8996 12.232L21.9508 11.2334L21.887 11.2301L21.8358 12.2288ZM21.8996 12.232L21.8484 13.2307L21.9122 13.234L21.9634 12.2353L22.0146 11.2366L21.9508 11.2334L21.8996 12.232ZM21.9634 12.2353L21.9122 13.234C22.2488 13.2513 22.5854 13.2723 22.9221 13.2972L22.9958 12.3L23.0695 11.3027C22.7179 11.2767 22.3663 11.2547 22.0146 11.2366L21.9634 12.2353ZM22.9958 12.3L22.9221 13.2972L22.9859 13.3019L23.0596 12.3047L23.1333 11.3074L23.0695 11.3027L22.9958 12.3ZM23.0596 12.3047L22.9859 13.3019L23.0497 13.3067L23.1234 12.3094L23.1971 11.3121L23.1333 11.3074L23.0596 12.3047ZM23.1234 12.3094L23.0497 13.3067C23.4455 13.3359 23.8415 13.3344 24.2373 13.302L24.1558 12.3054L24.0743 11.3087C23.7818 11.3326 23.4896 11.3337 23.1971 11.3121L23.1234 12.3094ZM24.1558 12.3054L24.2373 13.302L24.3011 13.2968L24.2196 12.3001L24.1381 11.3035L24.0743 11.3087L24.1558 12.3054ZM24.2196 12.3001L24.3011 13.2968L24.3649 13.2916L24.2834 12.2949L24.2019 11.2983L24.1381 11.3035L24.2196 12.3001ZM24.2834 12.2949L24.3649 13.2916C24.5198 13.2789 24.6915 13.3051 24.8946 13.3994L25.3158 12.4925L25.737 11.5855C25.2518 11.3602 24.7353 11.2547 24.2019 11.2983L24.2834 12.2949ZM25.3158 12.4925L24.8946 13.3994L24.9584 13.4291L25.3796 12.5221L25.8008 11.6152L25.737 11.5855L25.3158 12.4925ZM25.3796 12.5221L24.9584 13.4291L25.0222 13.4587L25.4434 12.5517L25.8646 11.6448L25.8008 11.6152L25.3796 12.5221ZM25.4434 12.5517L25.0222 13.4587C25.5975 13.7259 26.2167 13.7623 26.8198 13.5414L26.4758 12.6024L26.1318 11.6634C26.0466 11.6946 25.9776 11.6972 25.8646 11.6448L25.4434 12.5517ZM26.4758 12.6024L26.8198 13.5414L26.8836 13.518L26.5396 12.579L26.1956 11.64L26.1318 11.6634L26.4758 12.6024ZM26.5396 12.579L26.8836 13.518L26.9474 13.4946L26.6034 12.5557L26.2594 11.6167L26.1956 11.64L26.5396 12.579ZM26.6034 12.5557L26.9474 13.4946C27.0469 13.4582 27.0884 13.4688 27.1422 13.4956L27.589 12.601L28.0358 11.7063C27.4637 11.4206 26.8481 11.401 26.2594 11.6167L26.6034 12.5557ZM27.589 12.601L27.1422 13.4956L27.2002 13.5246L27.647 12.63L28.0938 11.7353L28.0358 11.7063L27.589 12.601ZM27.647 12.63L27.2002 13.5246L27.2582 13.5536L27.705 12.6589L28.1518 11.7643L28.0938 11.7353L27.647 12.63ZM27.705 12.6589L27.2582 13.5536C27.5903 13.7194 27.9237 13.8726 28.2586 14.0131L28.6454 13.091L29.0323 12.1688C28.7391 12.0458 28.4456 11.911 28.1518 11.7643L27.705 12.6589ZM28.6454 13.091L28.2586 14.0131L28.3168 14.0375L28.7037 13.1154L29.0905 12.1933L29.0323 12.1688L28.6454 13.091ZM28.7037 13.1154L28.3168 14.0375L28.375 14.062L28.7619 13.1398L29.1488 12.2177L29.0905 12.1933L28.7037 13.1154ZM28.7619 13.1398L28.375 14.062C28.3707 14.0601 28.2719 14.0139 28.2021 13.8784C28.1358 13.7497 28.1579 13.6604 28.1528 13.6889L29.1367 13.8676L30.1206 14.0462C30.1796 13.7213 30.1713 13.334 29.9801 12.9627C29.7854 12.5847 29.4671 12.3513 29.1488 12.2177L28.7619 13.1398ZM29.1367 13.8676L28.1528 13.6889L28.1409 13.7544L29.1248 13.9331L30.1087 14.1117L30.1206 14.0462L29.1367 13.8676ZM29.1248 13.9331L28.1409 13.7544L28.129 13.82L29.1129 13.9986L30.0968 14.1773L30.1087 14.1117L29.1248 13.9331ZM29.1129 13.9986L28.129 13.82C28.0532 14.2372 28.0193 14.6537 28.029 15.0684L29.0288 15.0449L30.0285 15.0214C30.0221 14.7479 30.0442 14.4669 30.0968 14.1773L29.1129 13.9986ZM29.0288 15.0449L28.029 15.0684L28.0305 15.1322L29.0303 15.1087L30.03 15.0852L30.0285 15.0214L29.0288 15.0449ZM29.0303 15.1087L28.0305 15.1322L28.032 15.196L29.0318 15.1725L30.0315 15.149L30.03 15.0852L29.0303 15.1087ZM29.0318 15.1725L28.032 15.196C28.0391 15.4955 28.0261 15.7923 27.9931 16.0867L28.9869 16.1979L29.9807 16.3092C30.0237 15.9246 30.0406 15.5378 30.0315 15.149L29.0318 15.1725ZM28.9869 16.1979L27.9931 16.0867L27.9861 16.1496L28.9798 16.2609L29.9736 16.3721L29.9807 16.3092L28.9869 16.1979ZM28.9798 16.2609L27.9861 16.1496L27.979 16.2125L28.9728 16.3238L29.9666 16.435L29.9736 16.3721L28.9798 16.2609ZM28.9728 16.3238L27.979 16.2125C27.9759 16.2402 27.9718 16.2556 27.9699 16.2615C27.9682 16.267 27.9685 16.2641 27.9732 16.2562C27.978 16.248 27.9849 16.2388 27.9932 16.2304C27.9971 16.2265 28.0006 16.2235 28.0033 16.2214C28.0059 16.2193 28.0074 16.2184 28.0073 16.2185L28.5323 17.0696L29.0573 17.9206C29.6128 17.578 29.8997 17.0326 29.9666 16.435L28.9728 16.3238ZM28.5323 17.0696L28.0073 16.2185L27.9599 16.2477L28.4849 17.0988L29.0099 17.9499L29.0573 17.9206L28.5323 17.0696ZM28.4849 17.0988L27.9599 16.2477L27.9125 16.277L28.4375 17.128L28.9625 17.9791L29.0099 17.9499L28.4849 17.0988ZM28.4375 17.128L27.9125 16.277C27.7201 16.3956 27.4798 16.5135 27.1844 16.6264L27.5414 17.5605L27.8984 18.4946C28.2864 18.3463 28.6435 18.1759 28.9625 17.9791L28.4375 17.128ZM27.5414 17.5605L27.1844 16.6264L27.1211 16.6506L27.478 17.5847L27.835 18.5188L27.8984 18.4946L27.5414 17.5605ZM27.478 17.5847L27.1211 16.6506L27.0577 16.6748L27.4147 17.6089L27.7717 18.543L27.835 18.5188L27.478 17.5847ZM27.4147 17.6089L27.0577 16.6748C26.918 16.7282 26.8013 16.7308 26.6727 16.6923L26.3859 17.6503L26.0991 18.6083C26.6588 18.7758 27.228 18.7508 27.7717 18.543L27.4147 17.6089ZM26.3859 17.6503L26.6727 16.6923L26.6089 16.6732L26.3221 17.6312L26.0353 18.5892L26.0991 18.6083L26.3859 17.6503ZM26.3221 17.6312L26.6089 16.6732L26.5451 16.6541L26.2583 17.6121L25.9715 18.5701L26.0353 18.5892L26.3221 17.6312ZM26.2583 17.6121L26.5451 16.6541C26.0475 16.5051 25.537 16.4788 25.0281 16.5815L25.2259 17.5617L25.4238 18.542C25.6031 18.5058 25.7809 18.513 25.9715 18.5701L26.2583 17.6121ZM25.2259 17.5617L25.0281 16.5815L24.9643 16.5944L25.1621 17.5746L25.36 18.5548L25.4238 18.542L25.2259 17.5617ZM25.1621 17.5746L24.9643 16.5944L24.9005 16.6072L25.0983 17.5875L25.2962 18.5677L25.36 18.5548L25.1621 17.5746ZM25.0983 17.5875L24.9005 16.6072C24.6295 16.6619 24.3615 16.6848 24.095 16.6771L24.0659 17.6767L24.0369 18.6762C24.4586 18.6885 24.8789 18.6519 25.2962 18.5677L25.0983 17.5875ZM24.0659 17.6767L24.095 16.6771L24.0312 16.6752L24.0021 17.6748L23.9731 18.6744L24.0369 18.6762L24.0659 17.6767ZM24.0021 17.6748L24.0312 16.6752L23.9674 16.6734L23.9383 17.673L23.9093 18.6725L23.9731 18.6744L24.0021 17.6748ZM23.9383 17.673L23.9674 16.6734C23.6542 16.6643 23.3408 16.6406 23.027 16.6023L22.9059 17.595L22.7848 18.5876C23.1593 18.6333 23.5342 18.6616 23.9093 18.6725L23.9383 17.673ZM22.9059 17.595L23.027 16.6023L22.9632 16.5946L22.8421 17.5872L22.721 18.5798L22.7848 18.5876L22.9059 17.595ZM22.8421 17.5872L22.9632 16.5946L22.8994 16.5868L22.7783 17.5794L22.6572 18.5721L22.721 18.5798L22.8421 17.5872ZM22.7783 17.5794L22.8994 16.5868C22.4543 16.5325 22.0088 16.5461 21.5664 16.6269L21.7459 17.6106L21.9254 18.5944C22.1713 18.5495 22.4141 18.5424 22.6572 18.5721L22.7783 17.5794ZM21.7459 17.6106L21.5664 16.6269L21.5026 16.6385L21.6821 17.6223L21.8616 18.606L21.9254 18.5944L21.7459 17.6106ZM21.6821 17.6223L21.5026 16.6385L21.4388 16.6501L21.6183 17.6339L21.7978 18.6177L21.8616 18.606L21.6821 17.6223ZM21.6183 17.6339L21.4388 16.6501C21.2296 16.6883 21.0227 16.6838 20.8096 16.6349L20.5859 17.6096L20.3622 18.5842C20.8374 18.6933 21.3188 18.7051 21.7978 18.6177L21.6183 17.6339ZM20.5859 17.6096L20.8096 16.6349L20.7458 16.6203L20.5221 17.5949L20.2984 18.5696L20.3622 18.5842L20.5859 17.6096ZM20.5221 17.5949L20.7458 16.6203L20.682 16.6056L20.4583 17.5803L20.2346 18.555L20.2984 18.5696L20.5221 17.5949ZM20.4583 17.5803L20.682 16.6056C20.2737 16.5119 19.8623 16.4597 19.4489 16.4502L19.4259 17.45L19.403 18.4497C19.6778 18.456 19.9547 18.4907 20.2346 18.555L20.4583 17.5803ZM19.4259 17.45L19.4489 16.4502L19.3851 16.4488L19.3621 17.4485L19.3392 18.4482L19.403 18.4497L19.4259 17.45ZM19.3621 17.4485L19.3851 16.4488L19.3213 16.4473L19.2983 17.447L19.2754 18.4468L19.3392 18.4482L19.3621 17.4485ZM19.2983 17.447L19.3213 16.4473C18.8981 16.4376 18.4768 16.4777 18.0587 16.5663L18.2659 17.5445L18.4732 18.5228C18.7433 18.4656 19.0102 18.4407 19.2754 18.4468L19.2983 17.447ZM18.2659 17.5445L18.0587 16.5663L17.9949 16.5798L18.2021 17.5581L18.4094 18.5364L18.4732 18.5228L18.2659 17.5445ZM18.2021 17.5581L17.9949 16.5798L17.9311 16.5933L18.1383 17.5716L18.3456 18.5499L18.4094 18.5364L18.2021 17.5581ZM18.1383 17.5716L17.9311 16.5933C17.8127 16.6184 17.6864 16.6108 17.5215 16.5355L17.1059 17.4451L16.6904 18.3547C17.2138 18.5938 17.7756 18.6706 18.3456 18.5499L18.1383 17.5716ZM17.1059 17.4451L17.5215 16.5355L17.4577 16.5064L17.0421 17.4159L16.6266 18.3255L16.6904 18.3547L17.1059 17.4451ZM17.0421 17.4159L17.4577 16.5064L17.3939 16.4772L16.9783 17.3868L16.5628 18.2964L16.6266 18.3255L17.0421 17.4159ZM16.9783 17.3868L17.3939 16.4772C16.7775 16.1956 16.1229 16.2047 15.514 16.4962L15.9459 17.3982L16.3778 18.3001C16.4328 18.2737 16.462 18.2718 16.4731 18.2717C16.484 18.2715 16.5111 18.2727 16.5628 18.2964L16.9783 17.3868ZM15.9459 17.3982L15.514 16.4962L15.4502 16.5268L15.8821 17.4287L16.314 18.3306L16.3778 18.3001L15.9459 17.3982ZM15.8821 17.4287L15.4502 16.5268L15.3864 16.5573L15.8183 17.4593L16.2502 18.3612L16.314 18.3306L15.8821 17.4287ZM15.8183 17.4593L15.3864 16.5573C15.2577 16.619 15.1762 16.6169 15.0894 16.5892L14.7859 17.542L14.4825 18.4949C15.0839 18.6865 15.6907 18.6291 16.2502 18.3612L15.8183 17.4593ZM14.7859 17.542L15.0894 16.5892L15.0256 16.5689L14.7221 17.5217L14.4187 18.4746L14.4825 18.4949L14.7859 17.542ZM14.7221 17.5217L15.0256 16.5689L14.9618 16.5486L14.6583 17.5014L14.3549 18.4543L14.4187 18.4746L14.7221 17.5217ZM14.6583 17.5014L14.9618 16.5486C14.5191 16.4076 14.0667 16.3382 13.6085 16.3462L13.6259 17.346L13.6434 18.3459C13.8734 18.3419 14.1093 18.376 14.3549 18.4543L14.6583 17.5014ZM13.6259 17.346L13.6085 16.3462L13.5447 16.3473L13.5621 17.3471L13.5796 18.347L13.6434 18.3459L13.6259 17.346ZM13.5621 17.3471L13.5447 16.3473L13.4809 16.3484L13.4983 17.3483L13.5158 18.3481L13.5796 18.347L13.5621 17.3471ZM13.4983 17.3483L13.4809 16.3484C12.8673 16.3591 12.3034 16.6033 11.9035 17.1092L12.688 17.7293L13.4726 18.3494C13.4778 18.3428 13.4791 18.3425 13.4758 18.3451C13.4724 18.3479 13.4677 18.3508 13.4632 18.353C13.4589 18.355 13.4589 18.3543 13.4658 18.3528C13.473 18.3512 13.489 18.3486 13.5158 18.3481L13.4983 17.3483ZM12.688 17.7293L11.9035 17.1092L11.8672 17.1552L12.6517 17.7753L13.4362 18.3954L13.4726 18.3494L12.688 17.7293ZM12.6517 17.7753L11.8672 17.1552L11.8308 17.2012L12.6154 17.8213L13.3999 18.4414L13.4362 18.3954L12.6517 17.7753ZM12.6154 17.8213L11.8308 17.2012C11.5622 17.5411 11.3505 17.9315 11.1863 18.3579L12.1195 18.7173L13.0527 19.0767C13.1575 18.8045 13.2764 18.5976 13.3999 18.4414L12.6154 17.8213ZM12.1195 18.7173L11.1863 18.3579L11.1614 18.4227L12.0945 18.7821L13.0277 19.1415L13.0527 19.0767L12.1195 18.7173ZM12.0945 18.7821L11.1614 18.4227L11.1364 18.4874L12.0696 18.8468L13.0028 19.2062L13.0277 19.1415L12.0945 18.7821ZM12.0696 18.8468L11.1364 18.4874C11.0714 18.6561 10.9941 18.87 10.9641 19.0583C10.9557 19.111 10.9436 19.2047 10.95 19.317C10.9546 19.3967 10.9756 19.6745 11.193 19.9307C11.4888 20.2794 11.9013 20.3246 12.1747 20.2683C12.3885 20.2243 12.5349 20.1226 12.5865 20.0854L12.0014 19.2744L11.4164 18.4634C11.4457 18.4423 11.5733 18.3501 11.7718 18.3093C11.8828 18.2865 12.0467 18.2734 12.234 18.3261C12.432 18.3819 12.5978 18.4951 12.7181 18.6369C12.9273 18.8834 12.9434 19.145 12.9467 19.2019C12.9519 19.2915 12.9419 19.3561 12.9392 19.3731C12.9319 19.4189 12.9332 19.3869 13.0028 19.2062L12.0696 18.8468ZM12.0014 19.2744L12.5865 20.0854L12.603 20.0735L12.018 19.2625L11.4329 18.4515L11.4164 18.4634L12.0014 19.2744ZM12.018 19.2625L12.603 20.0735L12.6195 20.0616L12.0345 19.2506L11.4494 18.4396L11.4329 18.4515L12.018 19.2625ZM12.0345 19.2506L12.6195 20.0616C12.427 20.2005 12.2333 20.2265 12.1214 20.2265C12.0155 20.2265 11.9476 20.2043 11.937 20.2008C11.9184 20.1947 11.9613 20.2077 12.0862 20.2872L12.6228 19.4434L13.1595 18.5996C12.9812 18.4862 12.7745 18.3706 12.5598 18.3003C12.4092 18.2509 11.9113 18.1064 11.4494 18.4396L12.0345 19.2506ZM12.6228 19.4434L12.0862 20.2872L12.1424 20.3229L12.679 19.4791L13.2157 18.6353L13.1595 18.5996L12.6228 19.4434Z" fill="#848484"/>
</g>
<defs>
<clipPath id="clip0_178_3365">
<rect width="30" height="30" fill="white"/>
</clipPath>
</defs>
</svg>
