<svg width="349" height="308" viewBox="0 0 349 308" fill="none" xmlns="http://www.w3.org/2000/svg">
<path d="M3 3H346V305H3V3Z" fill="#F6F2DF"/>
<path d="M344.168 93.668L344.191 92.543C344.2 91.953 344.332 91.3838 344.566 90.8438L344.801 90.2812L345.047 89.7188C345.106 89.5826 345.116 89.4883 345.105 89.4141L345.012 88.8516L344.93 88.2891C344.849 87.7543 344.861 87.2167 344.953 86.6836L345.141 85.5586C345.163 85.4307 345.154 85.3006 345.105 85.1484L344.754 84.0234C344.617 83.5946 344.499 83.1565 344.414 82.7227L344.309 82.1602L344.191 81.5977C344.042 80.8299 344.205 80.0958 344.566 79.4531L344.883 78.8906L345.141 78.4102L344.965 77.9648L344.73 77.4023C344.536 76.946 344.376 76.4807 344.273 76.0078L344.039 74.8828C343.864 74.0681 344.054 73.2954 344.461 72.6445L345.164 71.5195C345.286 71.3249 345.313 71.1942 345.316 71.1211L345.363 69.9961V69.9844C345.355 69.9606 345.33 69.9043 345.27 69.8203L344.449 68.6953C344.189 68.3367 343.987 67.8897 343.945 67.3711C343.904 66.8427 344.041 66.3502 344.273 65.9414L344.906 64.8164C344.941 64.7542 344.951 64.7199 344.953 64.7109V64.6992L344.859 64.1367L344.754 63.5742C344.654 63.012 344.662 62.4458 344.777 61.8867L344.895 61.3242L345 60.7852C344.994 60.7726 344.991 60.7495 344.977 60.7266L344.273 59.6016C343.877 58.963 343.68 58.2097 343.828 57.4102L344.039 56.2852C344.118 55.8593 344.219 55.4299 344.344 55.0078L344.672 53.8828C344.713 53.7426 344.722 53.6217 344.695 53.4961L344.461 52.3711C344.361 51.8981 344.31 51.421 344.309 50.9414V50.3789L344.297 49.8164C344.295 49.2651 344.398 48.723 344.578 48.1992L344.766 47.6367L344.965 47.0742V47.0273C344.963 47.0208 344.96 47.0092 344.953 46.9922L344.508 45.8672C344.201 45.0876 344.256 44.2725 344.613 43.5352L344.883 42.9727L345.117 42.4688L344.906 41.9883L344.66 41.4258C344.334 40.6965 344.3 39.9084 344.59 39.1523L344.801 38.5898L345.023 38.0273C345.054 37.9489 345.05 37.9022 345.035 37.8516L344.707 36.7266C344.506 36.0306 344.534 35.3218 344.789 34.6523L345.012 34.0898L345.223 33.5273C345.287 33.3583 345.306 33.2195 345.293 33.0938L345.176 31.9688C345.154 31.7607 345.096 31.534 344.988 31.2891L344.742 30.7266L344.484 30.1641C344.131 29.3564 344.179 28.5 344.578 27.7383L344.883 27.1758L345.047 26.8359L344.789 26.4609L344.414 25.8984C343.929 25.1791 343.745 24.2968 344.086 23.4023L344.309 22.8398L344.52 22.2773C344.585 22.1048 344.602 21.9614 344.59 21.832L344.531 21.2695L344.484 20.707C344.428 20.1196 344.492 19.5329 344.672 18.9727L344.848 18.4102L345.035 17.8477V17.8125C345.034 17.8045 345.035 17.7828 345.023 17.7539L344.555 16.6289C344.303 16.0144 344.22 15.3513 344.332 14.6836L344.52 13.5586C344.542 13.418 344.532 13.2733 344.484 13.1133L344.156 11.9883C344.017 11.5211 343.917 11.049 343.875 10.5703L343.781 9.44531C343.724 8.78201 343.857 8.13618 344.133 7.54688L344.391 6.98438L344.613 6.50391L344.379 6.03516L344.109 5.47266C344.021 5.29205 343.945 5.0827 343.863 4.88672L343.723 4.875L343.16 4.81641C342.855 4.78545 342.55 4.77021 342.246 4.78125L341.121 4.82812C340.596 4.84743 340.073 4.78442 339.562 4.65234L339 4.51172L338.438 4.35938C338.234 4.30679 338.041 4.2922 337.852 4.3125L337.289 4.38281L336.727 4.44141C336.133 4.5059 335.546 4.43562 334.98 4.25391L334.418 4.07812L333.855 3.89062C333.7 3.84061 333.564 3.83421 333.434 3.85547L332.309 4.04297C332.096 4.07818 331.86 4.15056 331.605 4.27734L330.48 4.83984C329.894 5.13216 329.254 5.28638 328.582 5.23828L328.02 5.19141L327.457 5.15625C327.13 5.13251 326.8 5.12654 326.473 5.13281H325.91L325.348 5.14453C324.704 5.15722 324.085 5.00468 323.52 4.72266L322.395 4.16016C322.141 4.0334 321.905 3.96276 321.691 3.92578L321.129 3.82031L320.566 3.72656H320.531C320.516 3.72938 320.48 3.74909 320.414 3.78516L319.289 4.39453C318.682 4.72838 317.994 4.90573 317.273 4.82812L316.711 4.76953L316.148 4.69922C315.871 4.66958 315.593 4.66478 315.316 4.6875L314.191 4.78125C313.863 4.80855 313.525 4.85161 313.195 4.91016L312.633 5.01562L312.07 5.10938C311.49 5.21188 310.908 5.20045 310.336 5.0625L309.773 4.92188L309.211 4.79297C308.797 4.6932 308.38 4.57509 307.969 4.44141L307.406 4.25391L306.844 4.07812L306.832 4.06641H306.82C306.814 4.06804 306.794 4.06937 306.773 4.07812L305.648 4.57031C304.834 4.91756 303.978 4.85954 303.223 4.45312L302.66 4.14844L302.145 3.86719L301.688 4.06641L301.125 4.28906C300.676 4.4718 300.216 4.6211 299.754 4.72266L299.191 4.85156L298.629 4.96875C298.015 5.1027 297.394 5.08724 296.789 4.92188L295.664 4.61719C295.43 4.55321 295.203 4.52777 294.984 4.53516L294.422 4.54688L293.859 4.57031C293.405 4.58544 292.952 4.55813 292.5 4.5L291.375 4.35938C291.163 4.33204 290.948 4.33996 290.73 4.38281L290.168 4.48828L289.605 4.60547C288.912 4.7427 288.223 4.65583 287.59 4.38281L286.465 3.89062C286.333 3.83484 286.245 3.83285 286.172 3.84375L285.609 3.9375L285.047 4.01953C284.48 4.10803 283.907 4.09053 283.348 3.96094L282.785 3.82031L282.223 3.69141C282.081 3.6588 281.946 3.6669 281.801 3.70312L280.676 3.98438C280.118 4.12362 279.546 4.14662 278.977 4.06641L278.414 3.99609L277.863 3.91406C277.846 3.92053 277.817 3.94129 277.77 3.97266L276.645 4.72266C276.05 5.11643 275.348 5.35188 274.582 5.29688L274.02 5.25L273.457 5.21484C273.04 5.18429 272.619 5.12957 272.203 5.0625L271.641 4.96875L271.078 4.88672C270.789 4.84 270.497 4.81258 270.211 4.81641L269.086 4.83984C268.784 4.84404 268.476 4.8615 268.172 4.91016L267.047 5.09766C266.269 5.22115 265.542 5.02104 264.914 4.64062L263.789 3.96094C263.591 3.84061 263.447 3.80264 263.355 3.79688L262.793 3.77344L262.23 3.73828C262.078 3.72956 261.907 3.74866 261.715 3.82031L260.59 4.24219C260.153 4.40581 259.711 4.54217 259.266 4.64062L258.703 4.75781L258.141 4.88672C257.692 4.98569 257.235 5.04616 256.781 5.07422L255.656 5.14453C255.274 5.1681 254.89 5.19759 254.508 5.21484L253.383 5.26172C253.001 5.27894 252.616 5.29665 252.234 5.30859L251.672 5.32031L251.109 5.34375C250.68 5.35719 250.25 5.34367 249.82 5.30859L248.695 5.21484C248.205 5.17456 247.718 5.07098 247.242 4.92188L246.117 4.57031C245.913 4.50635 245.722 4.48839 245.543 4.5L244.98 4.53516L244.418 4.58203C243.978 4.61179 243.534 4.6099 243.094 4.58203L241.969 4.51172C241.539 4.48441 241.108 4.43437 240.68 4.35938L240.117 4.25391L239.555 4.16016C239.173 4.09324 238.788 4.02118 238.406 3.94922L237.281 3.73828C237.055 3.69586 236.835 3.68909 236.613 3.71484L236.051 3.77344L235.488 3.84375C235.092 3.89012 234.69 3.93207 234.293 3.96094L233.73 3.99609L233.168 4.04297C232.87 4.06486 232.569 4.10461 232.266 4.17188L231.703 4.30078L231.141 4.41797C230.62 4.53369 230.088 4.58029 229.559 4.53516L228.996 4.47656L228.434 4.42969C228.276 4.41651 228.107 4.43593 227.918 4.5L227.355 4.69922L226.793 4.88672C226.028 5.14575 225.251 5.07309 224.543 4.73438L223.418 4.19531L223.371 4.18359L222.82 4.35938L222.258 4.52344C221.765 4.67454 221.256 4.77277 220.746 4.79297L220.184 4.80469L219.621 4.82812C219.044 4.8509 218.477 4.76329 217.934 4.57031L216.809 4.17188C216.572 4.08807 216.351 4.05065 216.141 4.04297L215.016 3.99609C214.615 3.98238 214.209 3.9613 213.809 3.92578L213.246 3.87891L212.684 3.82031C212.645 3.81689 212.563 3.82125 212.414 3.90234L211.852 4.21875L211.289 4.52344C210.506 4.9542 209.619 4.99909 208.793 4.60547L207.668 4.06641C207.467 3.97059 207.3 3.93931 207.164 3.9375L206.602 3.92578H206.039C205.914 3.92462 205.76 3.94247 205.57 4.03125L205.008 4.30078L204.445 4.55859C203.609 4.94924 202.724 4.89308 201.949 4.45312L201.387 4.125L201.082 3.94922L200.73 4.19531L200.168 4.59375C199.576 5.00743 198.868 5.27092 198.082 5.21484L197.52 5.16797L196.957 5.13281C196.576 5.1053 196.189 5.07102 195.809 5.03906L194.684 4.94531C194.173 4.90216 193.672 4.79194 193.184 4.61719L192.059 4.21875C192.024 4.20628 192.004 4.20703 192 4.20703C191.994 4.20726 191.972 4.2077 191.941 4.21875L190.816 4.61719C190.359 4.78186 189.892 4.90468 189.422 4.98047L188.297 5.16797C187.632 5.27424 186.975 5.18497 186.363 4.93359L185.238 4.46484C185.085 4.40247 184.964 4.39409 184.863 4.40625L183.738 4.54688C183.309 4.59844 182.879 4.62639 182.449 4.62891H181.324C180.864 4.63147 180.398 4.59795 179.941 4.52344L178.816 4.33594C178.664 4.31167 178.505 4.32395 178.336 4.37109L177.773 4.52344L177.211 4.6875C176.538 4.87423 175.851 4.8437 175.195 4.61719L174.633 4.42969L174.07 4.23047C173.889 4.16794 173.727 4.14578 173.578 4.16016L172.453 4.27734C172.19 4.30302 171.921 4.35319 171.645 4.44141L171.082 4.62891L170.52 4.80469C170.032 4.96036 169.535 5.05437 169.031 5.08594L167.906 5.15625C167.451 5.18477 166.99 5.17766 166.535 5.13281L165.973 5.07422L165.41 5.02734C164.85 4.97149 164.306 4.81266 163.793 4.57031L162.668 4.03125C162.547 3.97497 162.478 3.97684 162.434 3.98438L161.309 4.17188C160.973 4.22887 160.637 4.29995 160.301 4.38281L159.176 4.66406C158.411 4.85247 157.661 4.73012 156.996 4.38281L156.434 4.08984L155.871 3.78516C155.694 3.69202 155.563 3.67843 155.473 3.67969L154.348 3.70312C154.001 3.71035 153.651 3.72401 153.305 3.75L152.742 3.79688L152.18 3.83203C151.893 3.85365 151.595 3.91036 151.301 3.98438L150.176 4.26562C149.645 4.39888 149.103 4.44167 148.559 4.39453L147.434 4.30078C147.122 4.2738 146.807 4.26433 146.496 4.27734L145.371 4.32422C144.929 4.34253 144.488 4.33065 144.047 4.28906L143.484 4.23047L142.922 4.18359C142.748 4.16714 142.567 4.18392 142.371 4.24219L141.809 4.40625L141.246 4.58203C140.56 4.78739 139.854 4.76251 139.184 4.52344L138.059 4.125C137.85 4.05043 137.661 4.01517 137.484 4.01953L136.922 4.04297L136.359 4.05469C136.138 4.06091 135.9 4.10286 135.656 4.18359L135.094 4.37109L134.531 4.54688C134.023 4.71516 133.504 4.81598 132.973 4.82812L131.848 4.85156C131.438 4.86085 131.027 4.8595 130.617 4.83984L130.055 4.80469L129.492 4.78125C129.071 4.76102 128.646 4.72267 128.227 4.66406L127.664 4.58203L127.102 4.51172C126.863 4.47858 126.625 4.46825 126.387 4.5L125.824 4.58203L125.262 4.65234C124.837 4.70907 124.41 4.74451 123.984 4.75781L123.422 4.78125L122.859 4.79297C122.478 4.80487 122.092 4.82115 121.711 4.82812L121.148 4.83984H120.586C120.054 4.84917 119.529 4.78059 119.016 4.62891L118.453 4.46484L117.891 4.28906C117.748 4.24661 117.619 4.25136 117.492 4.27734L116.93 4.38281L116.367 4.5C116.025 4.57037 115.679 4.65302 115.336 4.74609L114.211 5.05078C113.604 5.21556 112.975 5.23454 112.359 5.09766L111.797 4.98047L111.234 4.85156C111.059 4.81275 110.891 4.80692 110.719 4.83984L110.156 4.94531L109.594 5.0625C108.818 5.21065 108.079 5.03518 107.438 4.66406L106.875 4.33594L106.312 4.01953C106.163 3.93336 106.089 3.9355 106.066 3.9375L104.941 4.03125C104.643 4.05815 104.343 4.11097 104.039 4.18359L103.477 4.32422L102.914 4.45312C102.292 4.60225 101.655 4.59769 101.039 4.42969L100.477 4.27734L99.9141 4.11328C99.8963 4.10884 99.8853 4.11292 99.8789 4.11328C99.8713 4.11392 99.8436 4.11647 99.7969 4.13672L99.2344 4.38281L98.6719 4.64062C97.8513 5.00299 96.9852 4.93863 96.2227 4.52344L95.6602 4.20703L95.168 3.9375L94.6992 4.13672L94.1367 4.37109C93.3876 4.68089 92.5944 4.66525 91.8516 4.34766L91.2891 4.11328L90.9023 3.9375L90.4688 4.25391L89.9062 4.64062C89.5488 4.88301 89.1098 5.05732 88.6172 5.09766C88.1189 5.13748 87.6506 5.02487 87.2461 4.81641L86.6836 4.53516L86.1211 4.24219C85.8737 4.11499 85.6534 4.03999 85.4531 4.00781L84.8906 3.91406L84.3633 3.83203C84.3482 3.83912 84.3263 3.85628 84.293 3.87891L83.168 4.65234C82.6045 5.03968 81.9459 5.30334 81.2227 5.32031L80.0977 5.34375C79.505 5.35765 78.9235 5.2466 78.375 5.02734L77.8125 4.80469L77.25 4.57031C77.1497 4.53129 77.0869 4.53344 77.0273 4.54688L75.9023 4.80469C75.2955 4.94495 74.678 4.9439 74.0742 4.79297L72.9492 4.51172C72.9126 4.50255 72.8742 4.49725 72.7852 4.53516L72.2227 4.78125L71.6602 5.01562C71.0774 5.26688 70.4511 5.38755 69.8086 5.33203L68.6836 5.23828C68.3515 5.20952 68.0191 5.1914 67.6875 5.19141H66.5625C66.2307 5.19141 65.8987 5.20961 65.5664 5.23828L64.4414 5.33203C63.9485 5.37455 63.4551 5.35893 62.9648 5.28516L62.4023 5.20312L61.8398 5.10938C61.392 5.0419 60.945 4.9494 60.5039 4.81641L59.9414 4.64062L59.3789 4.47656C59.0884 4.38895 58.8042 4.32122 58.5234 4.28906L57.9609 4.23047L57.3984 4.16016C57.2196 4.13985 57.0313 4.15428 56.8359 4.20703L56.2734 4.35938L55.7109 4.52344C55.2781 4.64154 54.8359 4.72982 54.3984 4.79297L53.2734 4.95703C52.7334 5.03455 52.1924 5.01304 51.6562 4.91016L50.5312 4.69922C50.2822 4.65138 50.036 4.63595 49.793 4.65234L49.2305 4.6875L48.668 4.73438C48.0371 4.77759 47.4253 4.65134 46.8516 4.40625L46.2891 4.17188L45.7266 3.92578C45.5956 3.86978 45.5046 3.86699 45.4336 3.87891L44.3086 4.06641C43.8455 4.14411 43.381 4.18043 42.9141 4.17188L42.3516 4.16016H41.7891C41.4746 4.15419 41.1551 4.16447 40.8398 4.19531L40.2773 4.25391L39.7148 4.30078C39.4509 4.32677 39.1724 4.38703 38.8945 4.47656L38.332 4.65234L37.7695 4.83984C37.0587 5.06804 36.3248 5.03884 35.6367 4.76953L35.0742 4.54688L34.5469 4.33594L34.0078 4.59375L33.4453 4.85156C32.8532 5.12686 32.2124 5.25516 31.5469 5.19141L30.9844 5.14453L30.4219 5.08594C30.1184 5.05656 29.8106 5.04808 29.5078 5.0625L28.9453 5.08594L28.3828 5.12109C27.9453 5.14188 27.5075 5.13191 27.0703 5.09766L25.9453 5.00391C25.6605 4.98161 25.3752 4.98681 25.0898 5.01562L23.9648 5.13281C23.4693 5.183 22.9704 5.17892 22.4766 5.10938L21.3516 4.94531C20.9736 4.89208 20.5928 4.83724 20.2148 4.78125L19.0898 4.61719C18.8875 4.58748 18.687 4.58837 18.4805 4.62891L17.918 4.74609L17.3555 4.85156C16.7139 4.97832 16.0703 4.93137 15.457 4.72266L14.8945 4.52344L14.332 4.33594C14.3002 4.32504 14.2768 4.32416 14.2734 4.32422C14.2656 4.32489 14.2442 4.32481 14.2148 4.33594L13.6523 4.54688L13.0898 4.76953C12.4711 5.00303 11.8153 5.07144 11.1562 4.94531L10.5938 4.82812L10.0312 4.72266C9.72535 4.66387 9.41952 4.63188 9.11719 4.61719L8.55469 4.58203L7.99219 4.55859C7.46726 4.53325 6.94716 4.42707 6.44531 4.25391L5.88281 4.06641L5.32031 3.86719C5.25623 3.84555 5.21681 3.84722 5.15625 3.86719L4.03125 4.24219H3.99609C3.99222 4.2823 3.99902 4.3372 3.99609 4.39453L3.97266 4.95703L3.9375 5.51953C3.92907 5.69794 3.95149 5.88793 4.01953 6.09375L4.39453 7.21875C4.63899 7.95977 4.58556 8.72173 4.27734 9.42188L4.03125 9.98438L3.79688 10.5117L4.01953 11.0391L4.25391 11.6016C4.53544 12.2707 4.60195 12.9962 4.40625 13.7109L4.10156 14.8359C4.06928 14.9545 4.05915 15.0589 4.08984 15.1758L4.39453 16.3008C4.57042 16.9621 4.54933 17.6357 4.33594 18.2812L3.96094 19.4062C3.88793 19.6261 3.85187 19.8336 3.85547 20.0273L3.87891 21.1523C3.8798 21.1953 3.89768 21.3062 4.01953 21.4922L4.38281 22.0547L4.75781 22.6172C5.14459 23.2086 5.38034 23.9002 5.33203 24.6562L5.29688 25.2188L5.25 25.7812C5.20752 26.4327 4.9944 27.0402 4.66406 27.5859L4.32422 28.1484L4.01953 28.6289L4.20703 29.0625L4.42969 29.625C4.67373 30.2269 4.7674 30.8694 4.67578 31.5234L4.59375 32.0859L4.52344 32.6484C4.48339 32.9352 4.46567 33.2195 4.47656 33.5039L4.52344 34.6289C4.53253 34.8653 4.57272 35.1128 4.65234 35.3672L5.00391 36.4922C5.28634 37.3986 5.0483 38.2602 4.55859 38.9414L4.16016 39.5039L3.99609 39.7148L4.18359 39.9609L4.60547 40.5234C5.09931 41.1682 5.3981 42.0014 5.17969 42.9141L5.03906 43.4766L4.91016 44.0391C4.86115 44.2445 4.85168 44.4422 4.875 44.6367L4.93359 45.1992L5.00391 45.7617C5.0655 46.2775 5.05359 46.7955 4.96875 47.3086L4.78125 48.4336C4.72696 48.7623 4.68705 49.0908 4.66406 49.418L4.59375 50.543C4.57317 50.8359 4.56713 51.1286 4.59375 51.4219L4.65234 51.9844L4.69922 52.5469C4.74844 53.0847 4.71636 53.6252 4.59375 54.1523L4.45312 54.7148L4.32422 55.2773C4.31694 55.3086 4.31651 55.3459 4.35938 55.4414L4.60547 56.0039L4.86328 56.5664C5.13269 57.163 5.25267 57.811 5.17969 58.4766L5.12109 59.0391L5.05078 59.6016C5.02174 59.8672 5.02225 60.1329 5.05078 60.3984L5.12109 60.9609L5.17969 61.5234C5.24179 62.0971 5.18591 62.6685 5.02734 63.2227L4.69922 64.3477C4.65387 64.5057 4.65082 64.651 4.67578 64.793L4.88672 65.918C4.99835 66.5379 4.94409 67.1599 4.75781 67.7578L4.59375 68.3203L4.41797 68.8828C4.34851 69.1058 4.31856 69.3152 4.32422 69.5156L4.33594 70.0781L4.35938 70.6406C4.36468 70.8197 4.39841 71.0186 4.48828 71.2383L4.95703 72.3633C5.23668 73.0432 5.27594 73.7795 5.0625 74.4961L4.73438 75.6211C4.64391 75.9256 4.57758 76.2259 4.53516 76.5234L4.37109 77.6484C4.36181 77.7136 4.36655 77.8036 4.42969 77.9414L4.94531 79.0664C5.22558 79.6798 5.33934 80.3494 5.23828 81.0352L5.07422 82.1602C5.03686 82.4157 5.02792 82.6686 5.05078 82.9219L5.09766 83.4844L5.15625 84.0469C5.20043 84.5296 5.1929 85.0184 5.13281 85.5L4.99219 86.625C4.93138 87.1114 4.81811 87.5959 4.65234 88.0664L4.25391 89.1914C4.19299 89.3661 4.1805 89.52 4.19531 89.6602L4.3125 90.7852C4.35113 91.1505 4.38531 91.5213 4.42969 91.8867L4.57031 93.0117C4.64447 93.6289 4.56728 94.236 4.35938 94.8164L3.96094 95.9414L4.47656 97.0664C4.75435 97.6802 4.85903 98.351 4.75781 99.0352L4.59375 100.16C4.56186 100.378 4.56849 100.597 4.60547 100.816L4.79297 101.941C4.89436 102.546 4.8488 103.149 4.67578 103.734L4.34766 104.859C4.25242 105.181 4.16955 105.503 4.11328 105.82L4.01953 106.383L3.91406 106.945C3.9087 106.976 3.9028 107.038 3.96094 107.156L4.52344 108.281C4.84232 108.933 4.94726 109.654 4.78125 110.391L4.65234 110.953L4.53516 111.516C4.45324 111.878 4.3726 112.244 4.30078 112.605L4.18359 113.168L4.07812 113.73C4.01001 114.074 3.94739 114.419 3.90234 114.762L3.76172 115.887C3.7472 116 3.74936 116.129 3.80859 116.285L4.03125 116.848L4.24219 117.41C4.38791 117.795 4.52882 118.185 4.66406 118.57L5.0625 119.695C5.28528 120.333 5.31728 121.001 5.15625 121.664L5.02734 122.227L4.88672 122.789C4.77389 123.252 4.61329 123.711 4.41797 124.16L4.17188 124.723L3.9375 125.285C3.88276 125.411 3.88002 125.49 3.89062 125.555L4.07812 126.68C4.17676 127.254 4.16411 127.835 4.03125 128.402L3.89062 128.965L3.76172 129.527C3.72623 129.678 3.72773 129.823 3.76172 129.973L4.01953 131.098C4.08185 131.369 4.18078 131.651 4.3125 131.941L4.55859 132.504L4.81641 133.066C5.15431 133.811 5.17662 134.622 4.86328 135.387L4.62891 135.949L4.40625 136.512C4.28131 136.817 4.18314 137.12 4.11328 137.414L3.97266 137.977L3.84375 138.539C3.7958 138.743 3.78509 138.943 3.80859 139.137L3.94922 140.262C4.00103 140.691 4.0281 141.121 4.03125 141.551V142.676C4.03297 142.913 4.06634 143.162 4.13672 143.414L4.30078 143.977L4.45312 144.539C4.63086 145.178 4.63338 145.834 4.45312 146.473L4.28906 147.035L4.13672 147.598C4.08218 147.792 4.07031 147.973 4.08984 148.148L4.20703 149.273C4.24371 149.603 4.3039 149.938 4.37109 150.27L4.47656 150.832L4.59375 151.395C4.66661 151.754 4.74463 152.113 4.82812 152.473L4.95703 153.035L5.09766 153.598C5.20298 154.051 5.26882 154.509 5.29688 154.969L5.36719 156.094C5.41519 156.884 5.13202 157.591 4.71094 158.18L3.91406 159.305C3.85059 159.393 3.81939 159.461 3.80859 159.492C3.80476 159.504 3.79783 159.511 3.79688 159.516L3.82031 160.09L3.83203 160.652C3.83765 160.889 3.8741 161.137 3.94922 161.391L4.27734 162.516C4.41884 162.994 4.51671 163.477 4.54688 163.969L4.57031 164.531L4.60547 165.094C4.63281 165.541 4.63134 165.994 4.59375 166.441L4.5 167.566C4.46405 167.993 4.40466 168.42 4.32422 168.844L4.11328 169.969C4.11069 169.981 4.09667 170.019 4.14844 170.121L4.73438 171.246C5.17269 172.097 5.12475 173.024 4.65234 173.824L4.3125 174.387L4.11328 174.703L4.72266 175.617C5.19209 176.335 5.35471 177.21 5.02734 178.09L4.60547 179.215C4.5297 179.42 4.50735 179.608 4.51172 179.777L4.53516 180.902C4.54894 181.453 4.47037 181.994 4.30078 182.52L4.11328 183.082L3.9375 183.645C3.89124 183.787 3.88047 183.913 3.90234 184.031L4.11328 185.156C4.21199 185.679 4.23483 186.21 4.17188 186.738L4.03125 187.863C4.03088 187.866 4.03968 187.873 4.04297 187.887C4.04745 187.905 4.05648 187.954 4.10156 188.027L4.45312 188.59L4.79297 189.152C5.17249 189.77 5.37366 190.492 5.27344 191.262L5.13281 192.387C5.05142 193.005 4.81547 193.584 4.48828 194.109L4.14844 194.672L3.79688 195.234C3.70483 195.382 3.7022 195.445 3.70312 195.457L3.73828 196.02L3.78516 196.582C3.81614 197.027 3.81686 197.473 3.78516 197.918L3.73828 198.48L3.70312 199.043C3.6825 199.331 3.68676 199.621 3.71484 199.91L3.77344 200.473L3.82031 201.035C3.85657 201.404 3.89762 201.779 3.9375 202.148L4.05469 203.273C4.0897 203.598 4.14971 203.931 4.21875 204.258L4.45312 205.383C4.54467 205.817 4.60477 206.258 4.64062 206.695L4.73438 207.82C4.78781 208.484 4.6505 209.12 4.37109 209.707L4.11328 210.27L3.84375 210.832C3.82175 210.878 3.81001 210.904 3.80859 210.914C3.80808 210.919 3.80414 210.931 3.80859 210.949L3.96094 211.512L4.10156 212.074C4.2488 212.662 4.25568 213.261 4.13672 213.855L4.03125 214.418L3.91406 214.98C3.90309 215.035 3.90155 215.102 3.94922 215.215L4.44141 216.34C4.64417 216.81 4.79486 217.301 4.88672 217.793L5.09766 218.918C5.2229 219.596 5.13426 220.263 4.875 220.887L4.40625 222.012C4.30209 222.262 4.24139 222.497 4.21875 222.715L4.10156 223.84C4.05885 224.254 4.00243 224.669 3.92578 225.082L3.71484 226.207C3.68244 226.381 3.68712 226.556 3.72656 226.734L3.85547 227.297L3.97266 227.859C4.09643 228.416 4.12006 228.984 4.03125 229.547L3.9375 230.109L3.85547 230.672C3.81141 230.951 3.78663 231.228 3.79688 231.504L3.84375 232.629C3.85248 232.861 3.89199 233.104 3.97266 233.355L4.16016 233.918L4.33594 234.48C4.51508 235.039 4.57829 235.618 4.52344 236.203L4.47656 236.766L4.41797 237.328C4.4071 237.446 4.43169 237.581 4.5 237.75L4.94531 238.875C5.24257 239.609 5.25226 240.389 4.95703 241.125L4.73438 241.688L4.5 242.25C4.36343 242.591 4.24556 242.931 4.13672 243.27L3.94922 243.832L3.77344 244.395C3.71106 244.588 3.69006 244.766 3.70312 244.934L3.79688 246.059C3.82235 246.368 3.87069 246.683 3.9375 246.996L4.17188 248.121C4.27097 248.584 4.33538 249.058 4.34766 249.527L4.37109 250.652C4.38521 251.211 4.30325 251.762 4.125 252.293L3.92578 252.855L3.78516 253.254L4.14844 253.758L4.54688 254.32C5.05759 255.047 5.24672 255.96 4.875 256.875L4.40625 258C4.27918 258.311 4.18751 258.625 4.11328 258.926L3.83203 260.051C3.77005 260.303 3.73567 260.548 3.73828 260.789L3.76172 261.914C3.76687 262.327 3.75374 262.744 3.72656 263.156L3.69141 263.719L3.64453 264.281C3.63179 264.474 3.65339 264.678 3.71484 264.891L4.04297 266.016C4.12776 266.307 4.24759 266.612 4.39453 266.918L4.93359 268.043C5.23497 268.672 5.35162 269.36 5.22656 270.07L5.13281 270.633L5.02734 271.195C4.94492 271.662 4.81976 272.124 4.65234 272.578L4.45312 273.141L4.24219 273.703C4.16251 273.919 4.1247 274.118 4.125 274.301V274.863L4.13672 275.426C4.13835 275.771 4.1498 276.123 4.17188 276.469L4.24219 277.594C4.2546 277.784 4.29595 277.996 4.39453 278.227L4.64062 278.789L4.875 279.352C5.17463 280.054 5.21716 280.808 4.96875 281.543L4.59375 282.668C4.50474 282.931 4.44974 283.184 4.42969 283.43L4.33594 284.555C4.30243 284.97 4.25101 285.394 4.18359 285.809L4.10156 286.371L4.00781 286.934C3.98971 287.049 3.99121 287.172 4.04297 287.32L4.44141 288.445C4.67112 289.105 4.69373 289.796 4.5 290.473L4.17188 291.598C4.16227 291.631 4.15271 291.664 4.18359 291.738L4.65234 292.863C4.98083 293.653 4.94243 294.48 4.57031 295.23L4.28906 295.793L4.04297 296.273L4.26562 296.754L4.52344 297.316C4.777 297.873 4.91881 298.468 4.91016 299.086L4.88672 300.211C4.88047 300.649 4.85567 301.087 4.79297 301.523L4.62891 302.648C4.58652 302.943 4.58245 303.128 4.59375 303.223V303.258L5.13281 303.34C5.4896 303.388 5.85439 303.434 6.21094 303.469L6.77344 303.516L7.33594 303.574C7.78413 303.618 8.22926 303.698 8.67188 303.809L9.79688 304.09C10.0807 304.161 10.3651 304.204 10.6406 304.219L11.2031 304.242L11.7656 304.277C11.8619 304.282 11.9913 304.267 12.1641 304.184L13.2891 303.645L13.8633 303.434C14.2523 303.336 14.6505 303.324 15.0469 303.398L15.6445 303.574L16.207 303.809L16.5703 303.949L17.0156 303.656L17.5781 303.258C17.9622 302.99 18.4505 302.799 19.0078 302.801C19.2852 302.802 19.5445 302.846 19.7812 302.93L20.4258 303.27L20.9883 303.656L21.5508 304.055C21.7385 304.186 21.834 304.195 21.8555 304.195L22.418 304.207L22.9805 304.23C23.0638 304.232 23.1808 304.206 23.3555 304.113L23.918 303.82L24.4805 303.516C25.0918 303.192 25.7558 303.119 26.3906 303.281L27.0234 303.527L27.5859 303.82L27.9727 304.031L28.3828 303.809L28.9453 303.492C29.4417 303.212 29.998 303.052 30.5742 303.07L31.1602 303.152L31.7227 303.281L32.2852 303.422C32.5024 303.473 32.7115 303.477 32.918 303.457L33.4805 303.41L34.043 303.352C34.569 303.301 35.0945 303.338 35.6133 303.445L36.1758 303.562L36.7383 303.668C37.1243 303.748 37.5125 303.837 37.8984 303.926L39.0234 304.184C39.0699 304.194 39.1227 304.202 39.2227 304.16L39.7852 303.914L40.3477 303.68L40.9336 303.492C41.5242 303.375 42.1256 303.453 42.6914 303.715L43.2539 303.973L43.5703 304.113L43.9922 303.82L44.5547 303.41C45.1523 302.973 45.8814 302.689 46.6992 302.766L47.2617 302.824L47.8242 302.871C48.248 302.911 48.6798 302.977 49.1016 303.059L49.6641 303.164L50.2266 303.281C50.4111 303.317 50.5926 303.317 50.7773 303.281L51.3398 303.164L51.9023 303.059C52.6619 302.911 53.3924 303.058 54.0352 303.41L54.5977 303.727L55.0664 303.973L55.5234 303.785L56.0859 303.539C56.6984 303.272 57.3365 303.238 57.9375 303.41L58.5234 303.656L59.0859 303.949L59.6133 304.23L60.1172 304.066L60.6797 303.867C61.023 303.745 61.377 303.606 61.7227 303.457L62.2852 303.211L62.8477 302.977C63.5489 302.674 64.302 302.624 65.0391 302.871L66.1641 303.246C66.5203 303.365 66.8749 303.482 67.2305 303.586L68.3555 303.914C68.3627 303.912 68.381 303.901 68.4023 303.891L69.5273 303.352L70.125 303.129C70.5266 303.032 70.9393 303.029 71.3438 303.117L71.9414 303.328L72.5039 303.586L72.9258 303.773L73.3945 303.527L73.957 303.223L74.5195 302.977C74.9042 302.854 75.307 302.806 75.7148 302.859L76.3359 303.012L77.4609 303.434C77.5 303.448 77.5242 303.445 77.5312 303.445C77.5401 303.445 77.5623 303.455 77.5898 303.445L78.1523 303.246L78.7148 303.059C79.403 302.829 80.1164 302.833 80.8008 303.07L81.9258 303.469C82.113 303.534 82.2879 303.552 82.4414 303.539L83.5664 303.445C83.9245 303.415 84.2863 303.37 84.6445 303.328L85.207 303.27L85.7695 303.199C86.1323 303.157 86.4965 303.12 86.8594 303.07L87.9844 302.906C88.5417 302.83 89.1 302.862 89.6484 302.988L90.7734 303.246C91.1719 303.338 91.5712 303.439 91.9688 303.551L92.5312 303.703L93.0938 303.867C93.3797 303.947 93.661 303.996 93.9375 304.02L95.0625 304.113C95.4326 304.145 95.8057 304.179 96.1758 304.207L96.7383 304.254L97.3008 304.289C97.4762 304.302 97.6624 304.282 97.8633 304.219L98.9883 303.867C99.6621 303.655 100.357 303.66 101.027 303.879L101.59 304.066L102.152 304.242C102.336 304.302 102.5 304.316 102.656 304.301L103.219 304.242L103.781 304.195C103.893 304.184 104.059 304.13 104.273 303.996L104.836 303.656L105.398 303.305L105.996 303.012C106.215 302.939 106.451 302.903 106.699 302.895C107.193 302.878 107.646 303.007 108.035 303.223L108.598 303.539L109.055 303.797L109.5 303.586L110.062 303.328L110.719 303.117C111.163 303.039 111.604 303.088 112.02 303.234L112.617 303.527L113.18 303.891L113.402 304.031L113.707 303.809L114.27 303.375L114.82 303.035C115.213 302.844 115.649 302.738 116.109 302.766L116.812 302.906L117.938 303.305C118.166 303.384 118.38 303.419 118.582 303.422L119.145 303.434H119.707C120.273 303.442 120.83 303.557 121.359 303.762L121.922 303.984L122.344 304.137L122.836 303.844L123.398 303.504L123.961 303.234C124.344 303.094 124.75 303.03 125.168 303.07L125.789 303.211L126.352 303.398L126.891 303.574H126.902L128.027 303.035C128.683 302.717 129.411 302.607 130.148 302.777L131.273 303.035C131.489 303.085 131.701 303.104 131.906 303.082L133.031 302.965C133.471 302.919 133.915 302.895 134.355 302.906L134.918 302.918L135.48 302.941C136.099 302.958 136.691 303.123 137.238 303.398L138.363 303.961C138.503 304.03 138.582 304.025 138.633 304.02L139.195 303.961L139.758 303.891C140.068 303.854 140.381 303.794 140.695 303.715L141.82 303.434C142.28 303.318 142.747 303.252 143.215 303.223L144.34 303.152C144.866 303.12 145.395 303.158 145.91 303.281L146.473 303.422L147.035 303.551C147.434 303.646 147.833 303.763 148.23 303.879L148.793 304.031L149.273 304.172L149.824 303.82L150.387 303.469L150.996 303.176C151.217 303.102 151.459 303.054 151.711 303.047C152.213 303.033 152.67 303.175 153.059 303.398L153.621 303.727L153.949 303.914L154.312 303.691L154.875 303.328C155.375 303.007 155.952 302.821 156.562 302.836L157.172 302.918L158.297 303.199C158.754 303.314 159.212 303.465 159.656 303.656L160.219 303.902L160.688 304.102L161.191 303.855L161.754 303.562C162.305 303.278 162.905 303.108 163.535 303.094L164.098 303.07L164.66 303.059C165.297 303.046 165.902 303.207 166.465 303.48L167.027 303.75L167.461 303.949L167.918 303.715L168.48 303.422L169.113 303.164C169.545 303.055 169.986 303.07 170.414 303.188L171.047 303.445L172.172 304.078C172.353 304.179 172.477 304.195 172.559 304.195H173.684C173.976 304.195 174.278 304.174 174.574 304.125L175.699 303.938C176.185 303.858 176.675 303.833 177.164 303.867L177.727 303.914L178.289 303.949C178.485 303.963 178.695 303.94 178.91 303.879L179.473 303.727L180.035 303.562C180.53 303.423 181.037 303.346 181.547 303.34H182.109L182.672 303.328C182.978 303.324 183.29 303.303 183.598 303.258L184.723 303.094C185.33 303.004 185.933 303.05 186.516 303.234L187.078 303.41L187.641 303.598C187.895 303.678 188.143 303.717 188.379 303.727L189.504 303.773C189.846 303.788 190.193 303.793 190.535 303.785L191.66 303.762C191.898 303.756 192.146 303.718 192.398 303.645L193.523 303.316C194.218 303.116 194.929 303.145 195.598 303.398L196.16 303.621L196.723 303.832C196.801 303.861 196.845 303.858 196.898 303.844L197.461 303.68L198.023 303.527C198.389 303.423 198.759 303.31 199.125 303.199L199.688 303.035L200.25 302.859C200.805 302.691 201.383 302.627 201.961 302.684L203.086 302.801C203.532 302.844 203.981 302.917 204.422 303.023L204.984 303.152L205.547 303.293C205.835 303.363 206.121 303.405 206.402 303.422L207.527 303.492C207.698 303.502 207.879 303.477 208.078 303.41L209.203 303.035C209.735 302.856 210.295 302.763 210.855 302.777L211.98 302.801C212.608 302.817 213.2 302.997 213.75 303.281L214.875 303.867C215.098 303.983 215.291 304.029 215.449 304.043L216.574 304.137C216.729 304.15 216.893 304.141 217.078 304.078L217.641 303.879L218.203 303.691C218.726 303.514 219.271 303.42 219.82 303.422H220.383L220.945 303.434C221.297 303.435 221.648 303.424 222 303.41L223.125 303.363C223.668 303.342 224.207 303.421 224.73 303.574L225.855 303.902C226.148 303.988 226.439 304.046 226.723 304.078L227.848 304.195C228.106 304.224 228.374 304.227 228.633 304.195L229.758 304.055C230.024 304.021 230.298 303.963 230.578 303.867L231.141 303.668L231.703 303.48C232.169 303.321 232.641 303.202 233.121 303.141L234.246 303C234.636 302.951 235.028 302.909 235.418 302.871L235.98 302.812L236.543 302.766C237.215 302.701 237.859 302.835 238.453 303.117L239.578 303.656C239.689 303.709 239.745 303.698 239.777 303.691L240.902 303.48C241.486 303.368 242.082 303.38 242.66 303.516L243.785 303.773C243.91 303.802 244.027 303.799 244.16 303.762L245.285 303.457C245.694 303.343 246.105 303.247 246.516 303.164L247.641 302.93C248.192 302.818 248.75 302.804 249.305 302.895L250.43 303.082C250.653 303.119 250.875 303.126 251.098 303.094L252.223 302.93C252.928 302.828 253.61 302.954 254.227 303.258L255.352 303.82C255.582 303.934 255.783 303.989 255.961 304.008L257.086 304.125H257.098C257.114 304.12 257.153 304.092 257.227 304.043L257.789 303.68L258.352 303.305L258.961 302.988C259.378 302.835 259.824 302.793 260.273 302.871L260.953 303.082L261.516 303.352L262.078 303.609C262.218 303.675 262.306 303.687 262.371 303.68L263.496 303.539C264.09 303.464 264.684 303.516 265.254 303.691L265.816 303.867L266.379 304.031C266.423 304.045 266.453 304.056 266.52 304.031L267.082 303.809L267.645 303.598C268.286 303.351 268.969 303.289 269.648 303.445L270.773 303.703C270.82 303.714 270.874 303.721 270.973 303.68L271.535 303.434L272.098 303.199C272.677 302.953 273.301 302.843 273.938 302.895L274.5 302.93L275.062 302.977C275.35 303 275.642 303.003 275.93 302.977L276.492 302.93L277.055 302.871C277.631 302.819 278.201 302.888 278.754 303.059L279.316 303.223L279.879 303.398C279.949 303.42 280.001 303.424 280.078 303.398L280.641 303.211L281.203 303.012C281.853 302.792 282.54 302.773 283.207 302.953L284.332 303.258C284.727 303.364 285.121 303.483 285.516 303.609L286.078 303.785L286.641 303.973C286.671 303.982 286.694 303.973 286.699 303.973C286.708 303.972 286.727 303.973 286.758 303.961L287.883 303.516C288.512 303.267 289.189 303.192 289.863 303.328L290.988 303.562C291.191 303.603 291.388 303.603 291.586 303.574L292.711 303.41C293.302 303.322 293.895 303.365 294.469 303.527L295.031 303.68L295.594 303.844C295.806 303.904 296.01 303.928 296.203 303.914L297.328 303.82C297.753 303.789 298.18 303.785 298.605 303.797L299.168 303.809L299.73 303.832C299.944 303.838 300.167 303.805 300.398 303.738L301.523 303.41C302.055 303.257 302.601 303.189 303.152 303.223L304.277 303.293C304.483 303.306 304.7 303.283 304.922 303.223L306.047 302.918C306.583 302.772 307.134 302.72 307.688 302.766L308.812 302.859C309.088 302.882 309.368 302.879 309.645 302.848L310.207 302.777L310.77 302.719C311.214 302.668 311.659 302.647 312.105 302.66L312.668 302.672L313.23 302.695C313.884 302.715 314.503 302.907 315.059 303.223L315.621 303.539L316.043 303.785L316.453 303.586L317.016 303.305C317.568 303.028 318.165 302.916 318.762 303.012L319.359 303.176L320.484 303.621C320.793 303.741 321.099 303.833 321.398 303.902L322.523 304.16C322.605 304.179 322.692 304.189 322.805 304.148L323.367 303.938L323.93 303.738C324.384 303.574 324.845 303.443 325.312 303.363L326.438 303.176C326.842 303.107 327.251 303.055 327.656 303.012L328.219 302.953L328.781 302.883C329.401 302.817 330.008 302.913 330.586 303.129L331.711 303.551C331.856 303.605 331.97 303.603 332.074 303.586L332.637 303.504L333.199 303.41C333.75 303.322 334.304 303.336 334.852 303.445L335.414 303.551L335.977 303.668C336.345 303.742 336.721 303.81 337.09 303.879L338.215 304.09C338.408 304.126 338.596 304.125 338.789 304.09L339.352 303.984L339.914 303.891C340.136 303.85 340.38 303.764 340.641 303.633L341.766 303.07L342.457 302.836C342.697 302.793 342.949 302.788 343.207 302.824C343.682 302.891 344.084 303.095 344.414 303.34C344.418 303.274 344.446 303.218 344.438 303.164L344.273 302.039C344.222 301.7 344.15 301.36 344.074 301.02L343.957 300.457L343.828 299.895C343.717 299.397 343.669 298.889 343.688 298.383L343.711 297.82L343.723 297.258C343.737 296.856 343.768 296.453 343.805 296.051L343.898 294.926C343.926 294.618 343.936 294.307 343.922 294L343.875 292.875C343.844 292.168 344.047 291.512 344.391 290.93L344.719 290.367L345.059 289.805L345.082 289.746L344.953 289.207L344.836 288.645C344.7 288.045 344.693 287.437 344.836 286.84L344.977 286.277L345.105 285.715C345.171 285.443 345.206 285.169 345.211 284.906L345.234 283.781C345.24 283.477 345.223 283.173 345.188 282.867L345.117 282.305L345.059 281.742C345 281.24 345 280.731 345.07 280.23L345.234 279.105C345.261 278.918 345.256 278.727 345.211 278.531L344.953 277.406C344.889 277.132 344.791 276.843 344.66 276.551L344.402 275.988L344.156 275.426C343.89 274.832 343.771 274.188 343.84 273.527L343.957 272.402C344 271.996 344.052 271.589 344.121 271.184L344.309 270.059C344.365 269.727 344.411 269.393 344.438 269.062L344.531 267.938C344.572 267.442 344.668 266.952 344.824 266.473L345.199 265.348C345.251 265.187 345.255 265.048 345.234 264.914L345.152 264.352L345.059 263.789C345.016 263.515 344.951 263.233 344.848 262.945L344.648 262.383L344.438 261.82C344.262 261.332 344.154 260.83 344.109 260.32L344.016 259.195C343.959 258.552 344.068 257.927 344.32 257.344L344.812 256.219C344.929 255.95 344.996 255.688 345.035 255.445L345.223 254.32C345.256 254.109 345.258 253.899 345.223 253.688L345.035 252.562C344.962 252.123 344.909 251.68 344.895 251.238L344.883 250.676L344.859 250.113C344.851 249.859 344.815 249.595 344.742 249.328L344.438 248.203C344.331 247.811 344.235 247.413 344.145 247.02L344.016 246.457L343.875 245.895C343.713 245.189 343.805 244.491 344.086 243.844L344.32 243.281L344.566 242.719L344.578 242.695L344.379 242.133L344.168 241.57C343.91 240.85 343.926 240.099 344.203 239.391L344.648 238.266C344.704 238.125 344.71 238.02 344.695 237.926L344.508 236.801C344.438 236.365 344.405 235.927 344.391 235.488L344.344 234.363C344.331 233.955 344.341 233.541 344.355 233.133L344.367 232.57L344.391 232.008C344.407 231.54 344.464 231.075 344.566 230.613L344.824 229.488V229.465C344.823 229.457 344.816 229.425 344.789 229.371L344.496 228.809L344.215 228.246C344.009 227.84 343.903 227.371 343.945 226.875C343.988 226.384 344.172 225.954 344.414 225.598L344.789 225.035L345.176 224.473C345.297 224.295 345.293 224.205 345.293 224.191V223.066C345.292 222.854 345.262 222.633 345.188 222.398L345 221.836L344.824 221.273C344.675 220.808 344.572 220.333 344.52 219.855L344.449 219.293L344.391 218.73C344.355 218.409 344.308 218.082 344.238 217.758L344.109 217.195L343.992 216.633C343.84 215.931 343.925 215.236 344.203 214.594L344.449 214.031L344.684 213.469C344.704 213.422 344.707 213.392 344.707 213.387C344.707 213.381 344.712 213.369 344.707 213.352L344.379 212.227C344.197 211.593 344.186 210.942 344.355 210.305L344.66 209.18C344.709 208.996 344.72 208.822 344.695 208.652L344.531 207.527C344.474 207.13 344.43 206.729 344.391 206.332L344.273 205.207C344.217 204.632 344.273 204.061 344.438 203.508L344.613 202.945L344.777 202.383C344.799 202.311 344.794 202.255 344.766 202.172L344.391 201.047C344.195 200.469 344.129 199.863 344.203 199.254L344.262 198.691L344.332 198.129C344.389 197.659 344.491 197.193 344.637 196.734L344.824 196.172L344.953 195.727L344.625 195.188L344.262 194.625C343.857 193.995 343.638 193.249 343.77 192.445L343.957 191.32C344.044 190.79 344.21 190.277 344.449 189.785L344.73 189.223L344.918 188.801L344.684 188.379L344.355 187.816C343.989 187.181 343.81 186.441 343.945 185.672L344.051 185.109L344.145 184.547C344.181 184.334 344.188 184.125 344.156 183.914L343.992 182.789C343.922 182.323 343.892 181.852 343.91 181.383L344.004 179.133L344.016 178.57L344.039 178.008C344.053 177.643 344.068 177.271 344.074 176.906L344.086 176.344V175.781C344.095 175.292 344.166 174.807 344.285 174.328L344.566 173.203C344.656 172.845 344.735 172.483 344.812 172.125L344.941 171.562L345.059 171C345.058 170.999 345.055 170.964 345.023 170.906L344.414 169.781C344.107 169.221 343.918 168.607 343.91 167.953L343.898 167.391V166.828C343.894 166.492 343.869 166.157 343.84 165.82L343.746 164.695C343.705 164.233 343.705 163.763 343.746 163.301L343.84 162.176C343.877 161.754 343.937 161.33 344.016 160.91L344.227 159.785C344.316 159.304 344.457 158.83 344.648 158.367L345.117 157.242C345.192 157.062 345.208 156.913 345.199 156.785L345.129 155.66C345.111 155.392 345.066 155.119 344.988 154.84L344.836 154.277L344.672 153.715C344.568 153.343 344.461 152.973 344.355 152.602L344.203 152.039L344.039 151.477C343.873 150.891 343.842 150.285 343.945 149.684L344.133 148.559C344.211 148.101 344.331 147.647 344.484 147.199L344.684 146.637L344.871 146.074C344.976 145.769 345.063 145.469 345.117 145.172L345.211 144.609L345.316 144.047C345.358 143.819 345.366 143.591 345.34 143.367L345.27 142.805L345.211 142.242C345.177 141.956 345.111 141.658 345.023 141.363L344.695 140.238C344.583 139.863 344.466 139.489 344.355 139.113L344.027 137.988C343.878 137.483 343.795 136.964 343.793 136.441V135.316C343.791 134.829 343.84 134.343 343.945 133.863L344.062 133.301L344.191 132.738C344.239 132.519 344.249 132.304 344.227 132.094L344.109 130.969C344.04 130.319 344.15 129.684 344.402 129.094L344.637 128.531L344.871 127.98L344.648 127.453L344.402 126.891C344.206 126.422 344.068 125.938 343.98 125.449L343.77 124.324C343.63 123.542 343.822 122.804 344.203 122.168L344.543 121.605L344.871 121.043C344.99 120.845 345.03 120.703 345.035 120.609L345.059 120.047L345.094 119.484C345.099 119.395 345.084 119.268 345 119.098L344.438 117.973C344.012 117.106 344.094 116.179 344.578 115.395L344.93 114.832L345.27 114.27C345.289 114.238 345.31 114.214 345.316 114.199V114.188L345.211 113.648L345.117 113.086C345.026 112.591 344.99 112.086 345.023 111.586L345.059 111.023L345.105 110.461L345.012 110.273L344.637 109.711L344.25 109.148C343.85 108.553 343.605 107.848 343.664 107.074L343.758 105.949C343.81 105.273 344.051 104.655 344.414 104.109L344.801 103.547L345.023 103.207L344.836 102.902L344.496 102.34C344.15 101.767 343.937 101.116 343.945 100.418V99.8555L343.957 99.293C343.962 98.8827 343.98 98.4724 344.016 98.0625L344.062 97.5L344.121 96.9375C344.15 96.6068 344.156 96.2716 344.156 95.9414V94.8164C344.157 94.4355 344.163 94.0489 344.168 93.668ZM346.723 123.797L346.934 124.922C346.98 125.182 347.062 125.45 347.18 125.73L347.648 126.855C347.963 127.606 347.956 128.406 347.637 129.152L347.402 129.715L347.156 130.277C347.089 130.435 347.075 130.553 347.086 130.652L347.145 131.215L347.215 131.777C347.273 132.315 347.237 132.853 347.121 133.383L346.992 133.945L346.875 134.508C346.816 134.777 346.792 135.043 346.793 135.305V136.43C346.794 136.656 346.827 136.889 346.898 137.133L347.227 138.258C347.337 138.631 347.455 139.009 347.566 139.383L347.895 140.508C348.03 140.963 348.133 141.427 348.188 141.891L348.258 142.453L348.316 143.016C348.378 143.539 348.364 144.067 348.27 144.586L348.059 145.711C347.976 146.161 347.858 146.606 347.707 147.047L347.52 147.609L347.32 148.172C347.217 148.473 347.148 148.771 347.098 149.062L346.992 149.625L346.898 150.188C346.873 150.336 346.887 150.492 346.934 150.656L347.086 151.219L347.25 151.781C347.356 152.156 347.462 152.531 347.566 152.906L347.719 153.469L347.883 154.031C348.014 154.501 348.086 154.981 348.117 155.461L348.164 156.023L348.199 156.586C348.24 157.208 348.13 157.821 347.895 158.391L347.426 159.516C347.309 159.798 347.229 160.071 347.18 160.336L346.969 161.461C346.908 161.789 346.857 162.119 346.828 162.445L346.734 163.57C346.709 163.856 346.71 164.14 346.734 164.426L346.828 165.551C346.864 165.963 346.893 166.38 346.898 166.793V167.355L346.91 167.918C346.911 168.014 346.935 168.15 347.039 168.34L347.344 168.902L347.66 169.465C348.018 170.118 348.155 170.864 347.988 171.633L347.754 172.758C347.669 173.148 347.57 173.54 347.473 173.93L347.191 175.055C347.125 175.321 347.09 175.583 347.086 175.84V176.402L347.074 176.965C347.068 177.348 347.053 177.73 347.039 178.113L346.992 179.238C346.978 179.615 346.972 179.999 346.957 180.375L346.91 181.5C346.899 181.779 346.915 182.062 346.957 182.344L347.121 183.469C347.201 184.003 347.191 184.542 347.098 185.074L346.91 186.199V186.211C346.914 186.225 346.926 186.263 346.957 186.316L347.273 186.879L347.602 187.441C348.054 188.228 348.106 189.131 347.695 189.973L347.426 190.535L347.145 191.098C347.021 191.351 346.946 191.585 346.91 191.801L346.828 192.363L346.734 192.902L346.781 192.996L347.508 194.121C347.954 194.814 348.13 195.653 347.859 196.512L347.684 197.074L347.496 197.637C347.404 197.926 347.343 198.213 347.309 198.492L347.25 199.055L347.18 199.617C347.163 199.758 347.168 199.914 347.227 200.086L347.426 200.648L347.613 201.211C347.837 201.874 347.849 202.564 347.648 203.238L347.32 204.363C347.262 204.559 347.245 204.74 347.262 204.914L347.32 205.477L347.367 206.039C347.402 206.39 347.445 206.742 347.496 207.094L347.66 208.219C347.744 208.799 347.705 209.387 347.555 209.953L347.414 210.516L347.262 211.078C347.233 211.186 347.23 211.282 347.262 211.395L347.59 212.52C347.798 213.244 347.729 213.976 347.438 214.652L347.203 215.215L346.957 215.777C346.911 215.885 346.911 215.951 346.922 216L347.039 216.562L347.168 217.125C347.259 217.548 347.332 217.976 347.379 218.402L347.496 219.527C347.526 219.797 347.581 220.077 347.672 220.359L347.859 220.922L348.035 221.484C348.199 221.996 348.291 222.52 348.293 223.055V224.18C348.296 224.916 348.05 225.588 347.66 226.16L347.273 226.723L347.004 227.109L347.18 227.449L347.461 228.012C347.791 228.663 347.918 229.389 347.754 230.133L347.496 231.258C347.432 231.545 347.401 231.833 347.391 232.113L347.344 233.238C347.332 233.58 347.333 233.928 347.344 234.27L347.367 234.832L347.379 235.395C347.389 235.702 347.423 236.01 347.473 236.32L347.66 237.445C347.766 238.1 347.675 238.747 347.438 239.355L347.215 239.918L347.004 240.48C346.998 240.495 346.994 240.51 346.992 240.516V240.551L347.203 241.113L347.402 241.676C347.67 242.421 347.632 243.199 347.32 243.914L346.828 245.039C346.786 245.136 346.795 245.186 346.805 245.227L347.062 246.352C347.145 246.707 347.235 247.062 347.332 247.418L347.637 248.543C347.767 249.024 347.843 249.514 347.859 250.008L347.883 250.57L347.895 251.133C347.905 251.441 347.936 251.76 347.988 252.07L348.176 253.195C348.264 253.729 348.273 254.267 348.188 254.801L348 255.926C347.918 256.433 347.775 256.933 347.566 257.414L347.074 258.539C347.005 258.7 346.996 258.822 347.004 258.926L347.098 260.051C347.119 260.289 347.169 260.542 347.262 260.801L347.473 261.363L347.672 261.926C347.837 262.386 347.951 262.859 348.023 263.332L348.117 263.895L348.199 264.457C348.293 265.072 348.238 265.686 348.047 266.273L347.859 266.836L347.684 267.398C347.596 267.667 347.54 267.931 347.52 268.184L347.426 269.309C347.392 269.727 347.344 270.146 347.273 270.562L347.18 271.125L347.074 271.688C347.016 272.031 346.969 272.376 346.934 272.719L346.816 273.844C346.807 273.932 346.819 274.042 346.887 274.195L347.145 274.758L347.391 275.32C347.596 275.778 347.761 276.251 347.871 276.727L348.129 277.852C348.257 278.403 348.291 278.967 348.211 279.527L348.047 280.652C348.012 280.899 348.007 281.145 348.035 281.391L348.105 281.953L348.164 282.516C348.215 282.956 348.242 283.398 348.234 283.84L348.211 284.965C348.202 285.45 348.137 285.93 348.023 286.406L347.895 286.969L347.754 287.531C347.718 287.682 347.721 287.828 347.754 287.977L348.012 289.102C348.193 289.9 348.025 290.67 347.637 291.328L347.309 291.891L346.969 292.453C346.873 292.617 346.873 292.707 346.875 292.746L346.922 293.871C346.942 294.313 346.927 294.754 346.887 295.195L346.793 296.32C346.762 296.667 346.735 297.017 346.723 297.363L346.699 297.926L346.688 298.488C346.679 298.732 346.701 298.986 346.758 299.238L346.875 299.801L347.004 300.363C347.095 300.769 347.176 301.175 347.238 301.582L347.402 302.707C347.497 303.33 347.438 303.953 347.25 304.547L346.875 305.742C346.757 306.114 346.398 306.905 345.469 307.102C344.657 307.271 344.017 306.836 343.758 306.633L343.195 306.188L342.82 305.895L342.551 306.035L341.988 306.316C341.499 306.562 340.981 306.735 340.453 306.832L339.328 307.043C338.775 307.144 338.217 307.146 337.664 307.043L336.539 306.832C336.158 306.761 335.772 306.686 335.391 306.609L334.828 306.492L334.266 306.387C334.067 306.347 333.875 306.344 333.68 306.375L333.117 306.469L332.555 306.551C331.909 306.654 331.261 306.578 330.656 306.352L329.531 305.93C329.364 305.868 329.224 305.858 329.098 305.871L327.973 305.988C327.63 306.025 327.285 306.071 326.941 306.129L326.379 306.234L325.816 306.328C325.535 306.376 325.243 306.444 324.949 306.551L324.387 306.762L323.824 306.961C323.187 307.192 322.512 307.245 321.844 307.09L320.719 306.832C320.272 306.728 319.832 306.581 319.395 306.41L318.832 306.199L318.316 305.988L317.801 306.27L317.238 306.551C316.401 306.971 315.491 306.921 314.695 306.469L313.57 305.836C313.376 305.725 313.233 305.698 313.137 305.695L312.574 305.672L312.012 305.66C311.712 305.651 311.411 305.661 311.109 305.695L310.547 305.766L309.984 305.824C309.513 305.878 309.039 305.887 308.566 305.848L307.441 305.754C307.247 305.738 307.044 305.755 306.832 305.812L305.707 306.117C305.181 306.261 304.644 306.326 304.102 306.293L302.977 306.223C302.78 306.211 302.571 306.231 302.355 306.293L301.23 306.621C300.713 306.771 300.184 306.835 299.648 306.82L298.523 306.797C298.2 306.788 297.874 306.796 297.551 306.82L296.988 306.855L296.426 306.902C295.869 306.944 295.312 306.88 294.773 306.727L294.211 306.574L293.648 306.41C293.474 306.361 293.313 306.352 293.156 306.375L292.031 306.539C291.483 306.621 290.934 306.613 290.391 306.504L289.266 306.27C289.19 306.255 289.105 306.257 288.984 306.305L287.859 306.75C287.171 307.021 286.439 307.049 285.727 306.82L284.602 306.469C284.249 306.356 283.898 306.247 283.547 306.152L282.422 305.848C282.339 305.825 282.264 305.826 282.164 305.859L281.039 306.234C280.37 306.46 279.677 306.477 279 306.27L277.875 305.918C277.679 305.858 277.496 305.844 277.324 305.859L276.762 305.906L276.199 305.965C275.739 306.007 275.277 306.014 274.816 305.977L273.691 305.883C273.578 305.874 273.44 305.881 273.27 305.953L272.707 306.199L272.145 306.434C271.498 306.708 270.806 306.782 270.105 306.621L268.98 306.363C268.911 306.347 268.831 306.345 268.723 306.387L268.16 306.609L267.598 306.82C266.919 307.081 266.203 307.118 265.5 306.902L264.938 306.727L264.375 306.562C264.195 306.507 264.027 306.496 263.871 306.516L262.746 306.656C262.064 306.741 261.406 306.612 260.801 306.328L260.238 306.059L259.875 305.883L259.453 306.176L258.891 306.551C258.285 306.952 257.565 307.182 256.781 307.102L256.219 307.043L255.656 306.996C255.087 306.937 254.544 306.759 254.027 306.504L253.465 306.234L252.902 305.953C252.774 305.89 252.7 305.889 252.656 305.895L251.531 306.059C251.006 306.134 250.473 306.132 249.949 306.047L248.824 305.859C248.631 305.828 248.435 305.831 248.238 305.871L247.676 305.988L247.113 306.094C246.775 306.162 246.433 306.245 246.094 306.34L245.531 306.504L244.969 306.656C244.353 306.828 243.717 306.838 243.094 306.691L241.969 306.434C241.8 306.394 241.64 306.391 241.477 306.422L240.352 306.633C239.634 306.771 238.926 306.667 238.289 306.363L237.164 305.824C237.013 305.753 236.912 305.736 236.836 305.742L235.711 305.859C235.351 305.894 234.981 305.931 234.621 305.977L233.496 306.117C233.229 306.151 232.957 306.22 232.676 306.316L232.113 306.504L231.551 306.703C231.083 306.864 230.604 306.971 230.121 307.031L228.996 307.172C228.505 307.233 228.011 307.238 227.52 307.184L226.957 307.125L226.395 307.055C225.93 307.003 225.467 306.907 225.012 306.773L223.887 306.445C223.663 306.38 223.447 306.355 223.242 306.363L222.117 306.41C221.723 306.426 221.328 306.435 220.934 306.434L220.371 306.422H219.809C219.608 306.421 219.391 306.462 219.164 306.539L218.039 306.914C217.478 307.104 216.897 307.178 216.305 307.125L215.18 307.031C214.588 306.978 214.019 306.801 213.492 306.527L212.367 305.941C212.17 305.84 212.018 305.804 211.898 305.801L210.773 305.777C210.584 305.773 210.381 305.798 210.164 305.871L209.039 306.246C208.492 306.43 207.928 306.514 207.352 306.48L206.789 306.457L206.227 306.422C205.759 306.395 205.292 306.323 204.832 306.211L204.27 306.07L203.707 305.941C203.399 305.867 203.096 305.807 202.793 305.777L202.23 305.73L201.668 305.672C201.498 305.655 201.322 305.673 201.129 305.73L200.566 305.906L200.004 306.07C199.62 306.187 199.227 306.301 198.844 306.41L198.281 306.574L197.719 306.727C197.026 306.923 196.322 306.885 195.656 306.633L194.531 306.211C194.451 306.181 194.41 306.184 194.355 306.199L193.23 306.527C192.736 306.671 192.229 306.751 191.719 306.762L190.594 306.785C190.188 306.794 189.781 306.79 189.375 306.773L188.25 306.727C187.738 306.705 187.232 306.613 186.738 306.457L186.176 306.281L185.613 306.094C185.447 306.041 185.297 306.038 185.156 306.059L184.031 306.223C183.591 306.288 183.149 306.323 182.707 306.328L182.145 306.34H181.582C181.344 306.343 181.097 306.386 180.844 306.457L180.281 306.609L179.719 306.773C179.185 306.924 178.631 306.976 178.078 306.938L176.953 306.867C176.697 306.85 176.44 306.86 176.18 306.902L175.055 307.09C174.601 307.164 174.14 307.195 173.684 307.195H172.559C171.893 307.195 171.271 307.007 170.707 306.691L170.145 306.375L169.734 306.141L169.336 306.363L168.773 306.668C167.984 307.092 167.096 307.125 166.277 306.727L165.715 306.445L165.152 306.176C164.969 306.087 164.829 306.056 164.719 306.059L163.594 306.082C163.475 306.085 163.322 306.121 163.125 306.223L162 306.809C161.243 307.199 160.399 307.246 159.598 306.902L158.473 306.41C158.168 306.279 157.863 306.179 157.57 306.105L157.008 305.965L156.504 305.836L156.492 305.848L155.367 306.574C154.997 306.811 154.555 306.979 154.055 306.996C153.547 307.013 153.075 306.87 152.684 306.645L152.121 306.328L151.781 306.129L151.43 306.352L150.867 306.715C150.185 307.148 149.37 307.323 148.523 307.078L147.398 306.75C147.046 306.647 146.683 306.553 146.332 306.469L145.77 306.34L145.207 306.199C144.975 306.144 144.748 306.127 144.527 306.141L143.402 306.211C143.123 306.229 142.834 306.28 142.547 306.352L141.422 306.633C140.989 306.741 140.547 306.815 140.109 306.867L138.984 307.008C138.289 307.089 137.621 306.948 137.016 306.645L136.453 306.352L135.891 306.07C135.69 305.969 135.528 305.945 135.398 305.941L134.836 305.918L134.273 305.906C133.965 305.898 133.657 305.909 133.348 305.941L132.223 306.059C131.678 306.116 131.128 306.089 130.594 305.965L130.031 305.824L129.469 305.695C129.454 305.692 129.441 305.694 129.434 305.695C129.421 305.697 129.389 305.707 129.34 305.73L128.215 306.27C127.506 306.614 126.723 306.695 125.953 306.434L125.391 306.234L124.922 306.07L124.406 306.41L123.844 306.75C123.113 307.197 122.25 307.328 121.395 306.996L120.832 306.785L120.27 306.562C120.051 306.478 119.854 306.437 119.672 306.434H119.109L118.547 306.422C118.001 306.414 117.46 306.31 116.941 306.129L116.379 305.93L116.016 305.801L115.547 306.188L114.984 306.621C114.623 306.901 114.156 307.134 113.602 307.172C113.038 307.21 112.532 307.033 112.125 306.773L111.562 306.41L111.117 306.129L110.754 306.316L110.191 306.574C109.363 306.958 108.482 306.899 107.707 306.469L107.145 306.164L106.781 305.965L106.418 306.199L105.855 306.551C105.32 306.884 104.724 307.107 104.086 307.172L102.961 307.289C102.371 307.349 101.788 307.284 101.227 307.102L100.102 306.727C100.024 306.701 99.9649 306.703 99.8906 306.727L98.7656 307.078C98.2181 307.251 97.651 307.332 97.0781 307.289L95.9531 307.195C95.5734 307.166 95.1844 307.134 94.8047 307.102L93.6797 307.008C93.21 306.967 92.7454 306.879 92.2852 306.75L91.7227 306.598L91.1602 306.434C90.8088 306.335 90.456 306.245 90.1055 306.164L88.9805 305.906C88.7804 305.86 88.5858 305.857 88.3945 305.883L87.832 305.965L87.2695 306.035C86.8839 306.088 86.4951 306.143 86.1094 306.188L85.5469 306.246L84.9844 306.316C84.5944 306.361 84.2026 306.401 83.8125 306.434L82.6875 306.527C82.0915 306.578 81.5037 306.489 80.9414 306.293L80.3789 306.105L79.8164 305.906C79.7558 305.885 79.7215 305.887 79.6641 305.906L78.5391 306.281C77.8356 306.518 77.11 306.503 76.418 306.246L75.8555 306.035L75.375 305.848L74.8594 306.152L74.2969 306.469C73.521 306.901 72.6309 306.948 71.8008 306.562L71.2383 306.305L70.7578 306.082L70.2773 306.316L69.7148 306.598C69.0307 306.929 68.2678 307.018 67.5117 306.797L66.3867 306.469C65.9951 306.354 65.6058 306.225 65.2148 306.094L64.0898 305.719C64.0782 305.715 64.0667 305.707 64.0664 305.707C64.0605 305.709 64.049 305.723 64.0312 305.73L63.4688 305.965L62.9062 306.211C62.5022 306.386 62.0939 306.547 61.6875 306.691L60.5625 307.09C59.7602 307.375 58.9483 307.287 58.2305 306.902L57.668 306.598L57.1875 306.328L56.7305 306.539L56.168 306.785C55.3454 307.144 54.4798 307.073 53.7188 306.656L52.5938 306.047C52.5323 306.013 52.4962 306.001 52.4883 306H52.4766L51.9141 306.117L51.3516 306.223C50.7878 306.332 50.2162 306.332 49.6523 306.223L49.0898 306.117L48.5273 306C48.1992 305.936 47.8691 305.89 47.543 305.859L46.9805 305.812L46.4414 305.754C46.4224 305.762 46.3851 305.791 46.3242 305.836L45.1992 306.656C44.4523 307.203 43.5014 307.393 42.5625 306.961L42 306.691L41.4727 306.445L40.9688 306.68L40.4062 306.914C39.7595 307.19 39.057 307.273 38.3555 307.113L37.793 306.984L37.2305 306.844C36.8664 306.76 36.4928 306.684 36.1289 306.609L35.0039 306.375C34.7772 306.329 34.5556 306.319 34.3359 306.34L33.7734 306.398L33.2109 306.445C32.6694 306.497 32.1242 306.465 31.5938 306.34L31.0312 306.199L30.4805 306.07C30.4692 306.074 30.4494 306.09 30.4219 306.105L29.2969 306.738C28.4831 307.196 27.5642 307.218 26.7305 306.773L26.168 306.469L25.7461 306.246L25.3242 306.469L24.7617 306.773C24.1905 307.075 23.5621 307.248 22.8984 307.23L22.3359 307.207L21.7734 307.195C21.0463 307.175 20.3895 306.909 19.8281 306.516L19.2656 306.117L18.9961 305.918L18.7266 306.117L18.1641 306.504C17.4295 307.014 16.522 307.192 15.6094 306.809L15.0469 306.574L14.5312 306.363L14.0273 306.609L13.4648 306.891C12.8897 307.168 12.2644 307.311 11.6133 307.277L11.0508 307.242L10.4883 307.219C10.0143 307.194 9.53599 307.113 9.07031 306.996L7.94531 306.715C7.64191 306.639 7.3408 306.592 7.04297 306.562L5.91797 306.445C5.52451 306.407 5.12759 306.37 4.73438 306.316L4.17188 306.234L3.60938 306.164C3.27418 306.119 2.84684 305.996 2.46094 305.695C2.02959 305.359 1.77201 304.884 1.71094 304.371L1.61719 303.574C1.56561 303.139 1.58715 302.68 1.65234 302.227L1.81641 301.102C1.86133 300.79 1.88238 300.474 1.88672 300.164L1.91016 299.039C1.91164 298.908 1.8806 298.751 1.79297 298.559L1.27734 297.434C0.916787 296.641 0.941568 295.791 1.32422 295.02L1.86328 293.941L1.65234 293.449L1.41797 292.887C1.13804 292.213 1.08438 291.492 1.28906 290.777L1.61719 289.652C1.63759 289.582 1.63589 289.517 1.60547 289.43L1.20703 288.305C0.998662 287.706 0.940235 287.073 1.04297 286.441L1.23047 285.316C1.28438 284.984 1.32087 284.652 1.34766 284.32L1.44141 283.195C1.48199 282.692 1.58221 282.192 1.74609 281.707L1.93359 281.145L2.13281 280.582V280.559C2.13107 280.552 2.12766 280.539 2.12109 280.523L1.875 279.961L1.64062 279.398C1.41996 278.881 1.27783 278.339 1.24219 277.781L1.17188 276.656C1.14622 276.254 1.13871 275.852 1.13672 275.449L1.125 274.887V274.324C1.12233 273.759 1.23363 273.204 1.42969 272.672L1.62891 272.109L1.83984 271.547C1.94836 271.253 2.02424 270.961 2.07422 270.68L2.17969 270.117L2.27344 269.555C2.27994 269.518 2.28404 269.452 2.22656 269.332L1.6875 268.207C1.47545 267.765 1.30499 267.315 1.17188 266.859L0.84375 265.734C0.687872 265.199 0.620121 264.649 0.65625 264.094L0.726562 262.969C0.748712 262.634 0.765769 262.295 0.761719 261.961L0.738281 260.836C0.731955 260.33 0.791815 259.819 0.914062 259.324L1.19531 258.199C1.30565 257.753 1.45073 257.311 1.62891 256.875L1.86328 256.312L2.01562 255.949L1.69922 255.492L1.30078 254.93C0.812734 254.235 0.599146 253.36 0.902344 252.457L1.27734 251.332C1.34971 251.115 1.37604 250.912 1.37109 250.723L1.34766 249.598C1.34013 249.319 1.30285 249.038 1.24219 248.754L1.125 248.191L0.996094 247.629C0.903114 247.194 0.844976 246.755 0.808594 246.316L0.714844 245.191C0.66703 244.611 0.7364 244.034 0.914062 243.48L1.08984 242.918L1.27734 242.355C1.40904 241.946 1.55936 241.532 1.72266 241.125L2.16797 240L1.94531 239.438L1.71094 238.875C1.4763 238.295 1.38229 237.678 1.44141 237.047L1.48828 236.484L1.54688 235.922C1.56205 235.758 1.53773 235.585 1.47656 235.395L1.30078 234.832L1.11328 234.27C0.95394 233.772 0.863393 233.263 0.84375 232.746L0.820312 232.184L0.808594 231.621C0.79078 231.148 0.816537 230.673 0.890625 230.203L0.972656 229.641L1.06641 229.078C1.09565 228.892 1.08564 228.708 1.04297 228.516L0.925781 227.953L0.796875 227.391C0.670303 226.822 0.655791 226.241 0.761719 225.668L0.972656 224.543C1.03501 224.208 1.09055 223.869 1.125 223.535L1.18359 222.973L1.23047 222.41C1.28524 221.879 1.43254 221.363 1.64062 220.863L2.10938 219.738C2.16107 219.614 2.15744 219.526 2.14453 219.457L1.93359 218.332C1.88551 218.077 1.80629 217.811 1.6875 217.535L1.19531 216.41C0.921795 215.776 0.834223 215.088 0.972656 214.395L1.08984 213.832L1.19531 213.27C1.22611 213.116 1.22418 212.962 1.18359 212.801L0.902344 211.676C0.717384 210.938 0.820643 210.207 1.13672 209.543L1.39453 208.98L1.66406 208.418C1.74098 208.256 1.75302 208.139 1.74609 208.055L1.65234 206.93C1.62679 206.621 1.58948 206.305 1.52344 205.992L1.39453 205.43L1.27734 204.867C1.18863 204.447 1.12392 204.024 1.07812 203.602L1.01953 203.039L0.949219 202.477C0.908366 202.098 0.869181 201.718 0.832031 201.34L0.785156 200.777L0.726562 200.215C0.681541 199.756 0.670421 199.291 0.703125 198.832L0.75 198.27L0.785156 197.707C0.806914 197.403 0.806323 197.097 0.785156 196.793L0.714844 195.668C0.6631 194.925 0.871766 194.235 1.24219 193.641L1.94531 192.516C2.08334 192.293 2.13948 192.117 2.15625 191.988L2.29688 190.863V190.852C2.29248 190.835 2.2805 190.791 2.23828 190.723L1.89844 190.16L1.54688 189.598C1.17057 188.985 0.96399 188.275 1.05469 187.512L1.19531 186.387C1.22169 186.167 1.21397 185.944 1.17188 185.719L0.960938 184.594C0.842364 183.965 0.883359 183.335 1.07812 182.73L1.26562 182.168L1.44141 181.605C1.51319 181.384 1.54023 181.169 1.53516 180.973L1.51172 179.848C1.49729 179.27 1.60314 178.702 1.80469 178.16L2.00391 177.598L2.16797 177.176L1.83984 176.695L1.47656 176.133C1.23221 175.76 1.04752 175.31 1.03125 174.797C1.01507 174.281 1.1742 173.818 1.40625 173.426L1.98047 172.441L1.78125 172.066L1.48828 171.504C1.15883 170.865 1.02004 170.145 1.16016 169.406L1.26562 168.844L1.38281 168.281C1.44416 167.957 1.48466 167.63 1.51172 167.309L1.60547 166.184C1.63062 165.883 1.63544 165.582 1.61719 165.281L1.54688 164.156C1.53118 163.899 1.48646 163.63 1.40625 163.359L1.24219 162.797L1.06641 162.234C0.920096 161.739 0.844093 161.234 0.832031 160.723L0.820312 160.16L0.796875 159.598C0.778847 158.83 1.06393 158.148 1.47656 157.57L2.27344 156.445L2.36719 156.281L2.29688 155.156C2.27931 154.867 2.23658 154.573 2.16797 154.277L1.91016 153.152C1.81986 152.764 1.73118 152.369 1.65234 151.98L1.54688 151.418L1.42969 150.855C1.34535 150.439 1.277 150.02 1.23047 149.602L1.17188 149.039L1.10156 148.477C1.03813 147.904 1.09741 147.332 1.25391 146.777L1.40625 146.215L1.57031 145.652C1.6004 145.544 1.60055 145.444 1.57031 145.336L1.40625 144.773L1.25391 144.211C1.11573 143.715 1.03503 143.21 1.03125 142.699V141.574C1.02894 141.256 0.999635 140.932 0.960938 140.613L0.902344 140.051L0.832031 139.488C0.765485 138.935 0.796944 138.378 0.925781 137.836L1.05469 137.273L1.19531 136.711C1.30315 136.258 1.44783 135.805 1.62891 135.363L1.86328 134.801L2.07422 134.273L1.82812 133.746L1.57031 133.184C1.36219 132.725 1.19994 132.255 1.08984 131.777L0.832031 130.652C0.694466 130.054 0.703578 129.445 0.84375 128.848L1.10156 127.723C1.14399 127.543 1.15412 127.368 1.125 127.195L1.03125 126.633L0.925781 126.07C0.808182 125.386 0.912988 124.712 1.18359 124.09L1.67578 122.965C1.80592 122.666 1.89898 122.371 1.96875 122.086L2.25 120.961C2.27049 120.877 2.26507 120.789 2.22656 120.68L1.82812 119.555C1.70107 119.193 1.5668 118.827 1.42969 118.465L1.00781 117.34C0.784357 116.749 0.701666 116.123 0.785156 115.488L0.925781 114.363C0.979374 113.957 1.05622 113.55 1.13672 113.145L1.24219 112.582L1.35938 112.02C1.43615 111.633 1.51803 111.246 1.60547 110.859L1.86328 109.734C1.86683 109.719 1.86418 109.707 1.86328 109.699C1.86195 109.689 1.85593 109.65 1.82812 109.594L1.54688 109.031L1.27734 108.469C0.968167 107.839 0.834877 107.147 0.960938 106.43L1.06641 105.867L1.16016 105.305C1.23638 104.874 1.33881 104.442 1.46484 104.016L1.64062 103.453L1.80469 102.891C1.85279 102.728 1.85225 102.577 1.82812 102.434L1.64062 101.309C1.55194 100.78 1.55052 100.245 1.62891 99.7148L1.79297 98.5898C1.80218 98.5245 1.79492 98.4425 1.73438 98.3086L1.48828 97.7461L1.23047 97.1836C0.906216 96.4671 0.866209 95.6882 1.13672 94.9336L1.53516 93.8086C1.59521 93.6413 1.60957 93.4935 1.59375 93.3633L1.45312 92.2383C1.40688 91.8573 1.36447 91.4709 1.32422 91.0898L1.20703 89.9648C1.14371 89.3579 1.21649 88.7555 1.41797 88.1836L1.81641 87.0586C1.91383 86.7811 1.98297 86.5117 2.01562 86.25L2.15625 85.125C2.18934 84.8586 2.19196 84.5934 2.16797 84.3281L2.12109 83.7656L2.0625 83.2031C2.01727 82.7089 2.03689 82.2067 2.10938 81.7148L2.27344 80.5898C2.282 80.5274 2.27558 80.4412 2.21484 80.3086L1.69922 79.1836C1.42003 78.5724 1.30891 77.91 1.40625 77.2266L1.48828 76.6641L1.55859 76.1016C1.62278 75.6509 1.73115 75.1975 1.86328 74.7539L2.19141 73.6289C2.19844 73.6038 2.2035 73.5887 2.20312 73.582C2.20231 73.5724 2.19535 73.5506 2.17969 73.5117L1.71094 72.3867C1.49382 71.8589 1.37654 71.3033 1.35938 70.7344L1.33594 70.1719L1.32422 69.6094C1.30799 69.061 1.38325 68.5179 1.54688 67.9922L1.89844 66.8672C1.94527 66.7168 1.95612 66.5857 1.93359 66.457L1.72266 65.332C1.61369 64.7269 1.64812 64.1164 1.81641 63.5273L2.14453 62.4023C2.2002 62.2083 2.21002 62.0261 2.19141 61.8516L2.07422 60.7266C2.02193 60.2435 2.02126 59.7564 2.07422 59.2734L2.13281 58.7109L2.20312 58.1484C2.21209 58.065 2.19989 57.9588 2.13281 57.8086L1.61719 56.6836C1.32221 56.0303 1.23887 55.3162 1.40625 54.5977L1.66406 53.4727C1.71555 53.2516 1.72981 53.0386 1.71094 52.8281L1.66406 52.2656L1.60547 51.7031C1.5638 51.2479 1.56173 50.7877 1.59375 50.332L1.64062 49.7695L1.67578 49.207C1.70545 48.7849 1.75859 48.362 1.82812 47.9414L1.92188 47.3789L2.00391 46.8164C2.04285 46.5806 2.0553 46.3464 2.02734 46.1133L1.88672 44.9883C1.82069 44.4343 1.86224 43.8789 1.99219 43.3359L2.12109 42.7734L2.22656 42.3516L1.79297 41.7891L1.37109 41.2266C1.08487 40.8528 0.845652 40.3643 0.832031 39.7852C0.818379 39.2022 1.03228 38.6984 1.3125 38.3086L1.72266 37.7461L2.09766 37.2305L1.95703 36.8203L1.78125 36.2578C1.62694 35.7637 1.54323 35.2581 1.52344 34.7461L1.47656 33.6211C1.45868 33.1565 1.48213 32.6888 1.54688 32.2266L1.71094 31.1016C1.72369 31.0066 1.71162 30.8962 1.65234 30.75L1.41797 30.1875L1.19531 29.625C0.849395 28.7711 0.97004 27.904 1.41797 27.1641L2.09766 26.0391C2.21932 25.8384 2.25475 25.6908 2.26172 25.5938L2.33203 24.4688C2.33232 24.4643 2.33947 24.4471 2.33203 24.4219C2.32362 24.3938 2.30262 24.3383 2.25 24.2578L1.875 23.6953L1.51172 23.1328C1.14295 22.5698 0.894439 21.9282 0.878906 21.2227L0.855469 20.0977C0.843899 19.5435 0.938343 18.9965 1.11328 18.4688L1.48828 17.3438C1.52218 17.2417 1.52257 17.1604 1.5 17.0742L1.19531 15.9492C1.02728 15.3175 1.03448 14.6693 1.20703 14.0391L1.51172 12.9141C1.52093 12.88 1.52076 12.8513 1.48828 12.7734L1.01953 11.6484C0.700616 10.8905 0.713157 10.0773 1.04297 9.32812L1.53516 8.20312C1.54257 8.18577 1.54565 8.17292 1.54688 8.16797V8.15625L1.17188 7.03125C0.993279 6.49 0.908429 5.92452 0.9375 5.35547L0.972656 4.79297L0.996094 4.23047C1.00785 4.00351 1.03553 3.76829 1.07812 3.55078C1.11631 3.35711 1.18996 3.05491 1.37109 2.76562L1.5 2.57812L1.61719 2.39062C1.85934 2.00634 2.19877 1.7927 2.39062 1.6875C2.61424 1.56496 2.85973 1.47172 3.09375 1.39453L4.21875 1.01953C4.90687 0.792783 5.62115 0.795389 6.30469 1.03125L6.86719 1.23047L7.42969 1.41797C7.67655 1.50303 7.9088 1.54756 8.13281 1.55859L8.69531 1.59375L9.25781 1.61719C9.70438 1.63874 10.1508 1.69618 10.5938 1.78125L11.7188 1.99219C11.8069 2.00912 11.9063 2.00587 12.0352 1.95703L13.1602 1.53516C13.8557 1.27226 14.5851 1.25867 15.293 1.5L16.418 1.875C16.552 1.92082 16.6639 1.93067 16.7695 1.91016L17.332 1.79297L17.8945 1.6875C18.4363 1.58047 18.9891 1.57145 19.5352 1.65234L20.6602 1.81641C21.0306 1.87127 21.4031 1.91659 21.7734 1.96875L22.8984 2.13281C23.1538 2.16864 23.4065 2.17015 23.6602 2.14453L24.2227 2.08594L24.7852 2.03906C25.2491 1.99208 25.7152 1.97924 26.1797 2.01562L27.3047 2.10938C27.617 2.13384 27.9302 2.13595 28.2422 2.12109L28.8047 2.09766L29.3672 2.0625C29.8126 2.04134 30.2584 2.05481 30.7031 2.09766L31.8281 2.21484C31.9114 2.2229 32.0228 2.20575 32.1797 2.13281L33.3047 1.61719C33.8557 1.36097 34.444 1.27098 35.0273 1.37109L35.6133 1.53516L36.1758 1.75781L36.7383 1.96875C36.7707 1.98126 36.7876 1.99133 36.7969 1.99219C36.8024 1.99238 36.8248 1.99034 36.8555 1.98047L37.418 1.80469L37.9805 1.61719C38.4499 1.46618 38.9269 1.36044 39.4102 1.3125L39.9727 1.26562L40.5352 1.20703C40.9665 1.16456 41.4037 1.15215 41.8359 1.16016L42.3984 1.17188H42.9609C43.2419 1.17721 43.5316 1.16112 43.8164 1.11328L44.9414 0.925781C45.6186 0.812457 46.2808 0.908313 46.8984 1.17188L47.4609 1.40625L48.0234 1.65234C48.1978 1.7269 48.3392 1.74202 48.457 1.73438L49.582 1.66406C50.0878 1.62942 50.5941 1.66189 51.0938 1.75781L52.2188 1.96875C52.4311 2.00954 52.6431 2.01056 52.8516 1.98047L53.9766 1.81641C54.2863 1.77152 54.5998 1.71448 54.9141 1.62891L55.4766 1.47656L56.0391 1.3125C56.5904 1.16207 57.1585 1.11978 57.7266 1.18359L58.2891 1.25391L58.8516 1.3125C59.3193 1.36559 59.7882 1.46735 60.2461 1.60547L61.3711 1.93359C61.6793 2.02655 61.9837 2.09906 62.2852 2.14453L62.8477 2.22656L63.4102 2.32031C63.6694 2.35936 63.927 2.36588 64.1836 2.34375L64.7461 2.29688L65.3086 2.23828C65.7261 2.20226 66.1445 2.19141 66.5625 2.19141H67.6875C68.1055 2.1914 68.5239 2.20215 68.9414 2.23828L69.5039 2.29688L70.0664 2.34375C70.1732 2.353 70.2988 2.33299 70.4648 2.26172L71.0273 2.02734L71.5898 1.78125C72.2488 1.49711 72.9628 1.42703 73.6758 1.60547L74.8008 1.88672C74.9458 1.92295 75.0808 1.91919 75.2227 1.88672L76.3477 1.62891C77.0361 1.4698 77.7306 1.53539 78.375 1.79297L79.5 2.23828C79.6995 2.31742 79.8712 2.34741 80.0273 2.34375L81.1523 2.32031C81.1789 2.31969 81.2726 2.30582 81.457 2.17969L82.582 1.40625C83.2069 0.976702 83.9693 0.735658 84.7969 0.867188L85.3594 0.960938L85.9219 1.04297C86.4704 1.13049 87.003 1.31217 87.5039 1.57031L88.0664 1.86328L88.3945 2.03906L88.7812 1.76953L89.3438 1.39453C90.0854 0.890891 90.9958 0.727539 91.8984 1.11328L92.4609 1.34766L93 1.59375L93.5508 1.35938L94.1133 1.125L94.7344 0.949219C95.3527 0.84699 95.9668 0.971342 96.5273 1.27734L97.0898 1.58203L97.5586 1.83984L98.0156 1.64062L98.5781 1.39453C99.2496 1.098 99.9846 1.0207 100.711 1.21875L101.273 1.38281L101.836 1.53516C101.968 1.57033 102.085 1.56517 102.211 1.53516L102.773 1.40625L103.336 1.26562C103.78 1.15912 104.234 1.08318 104.684 1.04297L105.809 0.949219C106.534 0.885333 107.213 1.0714 107.812 1.41797L108.375 1.74609L108.938 2.0625L109.031 2.10938L110.156 1.89844C110.734 1.78793 111.317 1.79427 111.891 1.92188L112.453 2.05078L113.016 2.16797C113.149 2.19739 113.273 2.194 113.414 2.15625L114.539 1.85156C114.943 1.74201 115.353 1.65369 115.758 1.57031L116.883 1.33594C117.504 1.20818 118.129 1.23914 118.734 1.41797L119.859 1.74609C120.093 1.81553 120.324 1.84377 120.539 1.83984H121.102L121.664 1.82812C122.031 1.82139 122.398 1.80443 122.766 1.79297L123.328 1.78125L123.891 1.75781C124.214 1.74772 124.539 1.73079 124.863 1.6875L125.426 1.60547L125.988 1.53516C126.498 1.46708 127.014 1.46398 127.523 1.53516L128.648 1.69922C128.977 1.74497 129.306 1.76545 129.633 1.78125L130.195 1.81641L130.758 1.83984C131.097 1.85616 131.438 1.85922 131.777 1.85156L132.902 1.82812C133.121 1.82318 133.353 1.77914 133.594 1.69922L134.156 1.52344L134.719 1.33594C135.223 1.16894 135.739 1.06997 136.266 1.05469L136.828 1.04297L137.391 1.01953C137.962 1.00347 138.528 1.09692 139.066 1.28906L139.629 1.5L140.191 1.69922C140.27 1.72731 140.317 1.71755 140.379 1.69922L141.504 1.37109C142.056 1.20584 142.629 1.14116 143.203 1.19531L143.766 1.25391L144.328 1.30078C144.636 1.32979 144.947 1.33707 145.254 1.32422L146.379 1.27734C146.817 1.25919 147.254 1.27462 147.691 1.3125L148.816 1.40625C149.021 1.42395 149.232 1.41413 149.449 1.35938L150.012 1.20703L150.574 1.06641C151.027 0.952618 151.485 0.878647 151.945 0.84375L152.508 0.808594L153.07 0.761719C153.471 0.731557 153.876 0.711564 154.277 0.703125L155.402 0.679688C156.061 0.665945 156.685 0.838765 157.254 1.13672L158.379 1.72266C158.402 1.73495 158.426 1.74201 158.438 1.74609L158.449 1.75781L159.574 1.47656C159.984 1.37546 160.405 1.28867 160.816 1.21875L161.941 1.03125C162.645 0.912744 163.332 1.02917 163.957 1.32422L164.52 1.58203L165.082 1.85156C165.316 1.9615 165.528 2.02064 165.715 2.03906L166.277 2.08594L166.84 2.14453C167.133 2.17321 167.426 2.18628 167.719 2.16797L168.844 2.09766C169.09 2.08226 169.343 2.02932 169.605 1.94531L170.168 1.76953L170.73 1.58203C171.202 1.43134 171.686 1.33598 172.172 1.28906L172.734 1.23047L173.297 1.18359C173.896 1.12612 174.488 1.19875 175.055 1.39453L175.617 1.59375L176.18 1.78125C176.271 1.81277 176.339 1.81394 176.414 1.79297L176.977 1.64062L177.539 1.47656C178.117 1.31584 178.715 1.28591 179.309 1.38281L179.871 1.46484L180.434 1.55859C180.725 1.60587 181.013 1.63032 181.301 1.62891H182.426C182.743 1.62714 183.068 1.59702 183.387 1.55859L183.949 1.5L184.512 1.42969C185.159 1.35231 185.794 1.4554 186.387 1.69922L186.949 1.92188L187.512 2.15625C187.647 2.21129 187.745 2.21644 187.828 2.20312L188.391 2.10938L188.953 2.02734C189.231 1.98241 189.518 1.89771 189.809 1.79297L190.934 1.39453C191.635 1.14262 192.364 1.14338 193.066 1.39453L194.191 1.79297C194.451 1.88586 194.703 1.93706 194.941 1.95703L196.066 2.05078C196.434 2.0816 196.801 2.11798 197.168 2.14453L198.293 2.21484H198.305C198.326 2.20745 198.381 2.1863 198.457 2.13281L199.02 1.74609L199.582 1.34766L200.18 1.01953C200.402 0.934339 200.648 0.883915 200.906 0.867188C201.165 0.850751 201.411 0.878776 201.645 0.9375L202.301 1.19531L202.863 1.52344L203.309 1.78125L203.742 1.58203L204.305 1.3125C204.862 1.05252 205.464 0.91747 206.086 0.925781H206.648L207.211 0.9375C207.824 0.946214 208.409 1.09778 208.957 1.35938L209.52 1.62891L209.941 1.83984L210.398 1.58203L210.961 1.27734C211.559 0.948282 212.232 0.769915 212.941 0.832031L213.504 0.890625L214.066 0.9375C214.413 0.968269 214.763 0.984171 215.109 0.996094L216.234 1.04297C216.772 1.06136 217.305 1.16626 217.816 1.34766L218.941 1.74609C219.146 1.81842 219.332 1.84666 219.504 1.83984L220.629 1.79297C220.867 1.78347 221.113 1.74159 221.367 1.66406L222.492 1.3125L223.066 1.19531C223.631 1.13545 224.19 1.24141 224.707 1.48828L225.832 2.02734L225.844 2.03906L226.395 1.85156L226.957 1.66406C227.517 1.47406 228.1 1.39101 228.691 1.44141L229.816 1.53516C230.036 1.55374 230.256 1.53901 230.484 1.48828L231.047 1.37109L231.609 1.24219C232.054 1.14328 232.508 1.07566 232.957 1.04297L233.52 1.00781L234.082 0.960938C234.433 0.935338 234.785 0.908247 235.137 0.867188L236.262 0.726562C236.789 0.664918 237.321 0.686552 237.844 0.785156L238.969 0.996094C239.337 1.0655 239.703 1.1425 240.07 1.20703L241.195 1.39453C241.516 1.45084 241.838 1.49143 242.156 1.51172L243.281 1.58203C243.589 1.6016 243.899 1.60271 244.207 1.58203L245.332 1.51172C245.9 1.47329 246.464 1.54089 247.008 1.71094L248.133 2.0625C248.405 2.14778 248.672 2.20495 248.93 2.22656L250.055 2.32031C250.373 2.34652 250.697 2.3537 251.016 2.34375L251.578 2.32031L252.141 2.30859C252.508 2.29711 252.875 2.27826 253.242 2.26172L254.367 2.21484C254.733 2.19833 255.103 2.17881 255.469 2.15625L256.594 2.08594C256.888 2.06781 257.185 2.02276 257.484 1.95703L258.047 1.82812L258.609 1.71094C258.912 1.64408 259.224 1.54641 259.535 1.42969L260.098 1.21875L260.66 1.01953C261.216 0.811312 261.799 0.704839 262.395 0.738281L263.52 0.808594C264.176 0.846066 264.787 1.06232 265.336 1.39453L266.461 2.07422C266.528 2.11518 266.571 2.13113 266.578 2.13281L267.141 2.03906L267.703 1.95703C268.147 1.88612 268.592 1.84618 269.039 1.83984L270.164 1.81641C270.626 1.80999 271.089 1.84813 271.547 1.92188L272.109 2.01562L272.672 2.09766C273.003 2.15111 273.338 2.19058 273.668 2.21484L274.23 2.26172L274.793 2.29688C274.794 2.29692 274.807 2.30323 274.828 2.29688C274.853 2.28933 274.902 2.26634 274.98 2.21484L275.543 1.83984L276.105 1.47656C276.572 1.16766 277.11 0.961211 277.688 0.925781L278.273 0.9375L279.398 1.10156C279.578 1.12659 279.758 1.11416 279.949 1.06641L281.074 0.785156C281.678 0.634452 282.295 0.632797 282.902 0.773438L284.027 1.03125C284.217 1.07512 284.397 1.08263 284.578 1.05469L285.141 0.972656L285.703 0.878906C286.379 0.773521 287.046 0.872144 287.66 1.13672L288.785 1.62891C288.897 1.67608 288.964 1.67472 289.02 1.66406L289.582 1.54688L290.145 1.44141C290.675 1.33632 291.214 1.31413 291.75 1.38281L292.875 1.52344C293.17 1.56152 293.472 1.58022 293.766 1.57031L294.328 1.54688L294.891 1.53516C295.42 1.51764 295.947 1.58208 296.461 1.72266L297.586 2.02734C297.729 2.06607 297.862 2.06849 297.996 2.03906L298.559 1.91016L299.121 1.79297C299.407 1.72984 299.701 1.63318 300 1.51172L300.562 1.28906L301.125 1.05469L301.734 0.878906C302.146 0.811615 302.559 0.84389 302.953 0.960938L303.527 1.19531L304.09 1.5L304.57 1.76953L305.039 1.57031L305.602 1.32422C306.297 1.02741 307.049 0.980723 307.781 1.21875L308.344 1.40625L308.906 1.58203C309.244 1.69177 309.579 1.79411 309.914 1.875L310.477 2.00391L311.039 2.14453C311.216 2.18711 311.386 2.18617 311.555 2.15625L312.117 2.0625L312.68 1.95703C313.097 1.88318 313.515 1.82792 313.934 1.79297L315.059 1.69922C315.529 1.66013 316.007 1.67212 316.477 1.72266L317.602 1.83984C317.632 1.8428 317.699 1.84422 317.836 1.76953L318.398 1.46484L318.961 1.14844C319.592 0.801114 320.31 0.647399 321.059 0.773438L322.184 0.960938C322.717 1.05165 323.237 1.23058 323.73 1.47656L324.855 2.03906C325.036 2.12922 325.173 2.14571 325.277 2.14453H325.84L326.402 2.13281C326.822 2.12454 327.248 2.12592 327.668 2.15625L328.23 2.20312L328.793 2.23828C328.87 2.24386 328.982 2.23725 329.145 2.15625L330.27 1.59375C330.764 1.34772 331.281 1.17858 331.816 1.08984L332.941 0.902344C333.56 0.800066 334.176 0.852416 334.77 1.04297L335.332 1.21875L335.895 1.40625C336.078 1.46508 336.242 1.4699 336.398 1.45312L337.523 1.33594C338.083 1.2751 338.642 1.31237 339.188 1.45312L339.75 1.60547L340.312 1.74609C340.55 1.80758 340.78 1.83603 341.004 1.82812L342.129 1.78125C342.573 1.76491 343.022 1.78314 343.465 1.82812L344.59 1.94531C344.831 1.96989 345.139 2.01366 345.434 2.13281C345.679 2.23241 346.316 2.55354 346.5 3.33984L346.582 3.66797C346.587 3.68142 346.598 3.71633 346.617 3.76172C346.656 3.85262 346.721 3.97779 346.805 4.14844L347.074 4.71094L347.355 5.27344C347.737 6.05193 347.748 6.90873 347.379 7.69922L347.109 8.26172L346.852 8.82422C346.776 8.9849 346.762 9.10081 346.77 9.1875L346.863 10.3125C346.887 10.5805 346.944 10.8533 347.027 11.1328L347.191 11.6953L347.367 12.2578C347.543 12.8457 347.586 13.4549 347.484 14.0625L347.379 14.625L347.285 15.1875C347.272 15.2671 347.278 15.3601 347.332 15.4922L347.801 16.6172C348.085 17.3089 348.115 18.0511 347.883 18.7734L347.531 19.8984C347.471 20.0859 347.446 20.2532 347.461 20.4141L347.578 21.5391C347.638 22.1581 347.54 22.7681 347.32 23.3438L347.109 23.9062L346.945 24.293L347.273 24.7852L347.66 25.3477C347.903 25.7071 348.091 26.1412 348.129 26.6367C348.167 27.1372 348.047 27.6044 347.836 28.0078L347.531 28.5703L347.273 29.0508L347.484 29.5195L347.73 30.082C347.951 30.5853 348.095 31.1122 348.152 31.6523L348.27 32.7773C348.335 33.4007 348.244 34.0139 348.023 34.5938L347.602 35.7188C347.571 35.7978 347.575 35.8421 347.59 35.8945L347.918 37.0195C348.121 37.7182 348.082 38.4346 347.824 39.1055L347.602 39.668L347.391 40.207L347.648 40.7578L347.895 41.3203C348.245 42.1043 348.228 42.9457 347.859 43.7109L347.578 44.2734L347.32 44.8008L347.531 45.3281L347.742 45.8906C348.017 46.5903 348.046 47.3298 347.801 48.0469L347.602 48.6094L347.414 49.1719C347.337 49.3966 347.297 49.6072 347.297 49.8047L347.309 50.3672V50.9297C347.309 51.1988 347.333 51.4744 347.391 51.75L347.625 52.875C347.756 53.4983 347.734 54.13 347.555 54.7383L347.227 55.8633C347.13 56.1894 347.052 56.5135 346.992 56.8359L346.887 57.3984L346.781 57.9375C346.786 57.9497 346.791 57.9788 346.816 58.0195L347.52 59.1445C347.923 59.7927 348.121 60.5609 347.953 61.3711L347.719 62.4961C347.68 62.683 347.675 62.8631 347.707 63.0469L347.812 63.6094L347.906 64.1719C348.042 64.9366 347.881 65.6681 347.52 66.3047L347.203 66.8672L347.027 67.1484L347.285 67.5L347.695 68.0625C348.116 68.6441 348.397 69.3418 348.363 70.125L348.316 71.25C348.287 71.9269 348.055 72.5579 347.707 73.1133L347.004 74.2383L346.969 74.2734L347.086 74.8125L347.215 75.375C347.274 75.6482 347.361 75.9292 347.484 76.2188L347.719 76.7812L347.965 77.3438C348.319 78.1734 348.236 79.0389 347.812 79.793L347.18 80.918C347.145 80.9792 347.145 81.0188 347.145 81.0234L347.355 82.1484C347.417 82.4645 347.499 82.7882 347.602 83.1094L347.789 83.6719L347.965 84.2344C348.155 84.8287 348.2 85.4437 348.094 86.0625L347.906 87.1875C347.869 87.4023 347.863 87.6189 347.895 87.832L347.988 88.3945L348.07 88.957C348.173 89.6325 348.067 90.3014 347.801 90.9141L347.309 92.0391C347.221 92.2437 347.194 92.4215 347.191 92.5781L347.168 93.7031C347.163 94.0716 347.157 94.4479 347.156 94.8164V95.9414C347.156 96.3586 347.146 96.7786 347.109 97.1953L347.051 97.7578L347.004 98.3203C346.975 98.6564 346.961 98.9925 346.957 99.3281L346.945 99.8906V100.453C346.945 100.505 346.956 100.616 347.062 100.793L347.742 101.918C347.977 102.31 348.134 102.781 348.117 103.301C348.1 103.819 347.909 104.276 347.66 104.648L346.91 105.773C346.78 105.969 346.753 106.1 346.746 106.172L346.652 107.297V107.309L346.664 107.32C346.671 107.342 346.692 107.392 346.746 107.473L347.496 108.598C347.896 109.19 348.145 109.89 348.094 110.66L348.023 111.785C348.007 112.035 348.024 112.292 348.07 112.547L348.164 113.109L348.27 113.672C348.414 114.467 348.218 115.214 347.824 115.852L347.484 116.414L347.215 116.824L347.414 117.211L347.684 117.773C347.97 118.353 348.129 118.988 348.094 119.648L348.023 120.773C347.987 121.426 347.777 122.031 347.449 122.578L346.77 123.703C346.741 123.75 346.727 123.783 346.723 123.797Z" fill="#1E1E1E"/>
</svg>
