<svg width="101" height="36" viewBox="0 0 101 36" fill="none" xmlns="http://www.w3.org/2000/svg">
<path d="M31.8951 15.5263C32.4216 14.2073 32.458 12.6961 32.0351 9.12894C31.9641 8.53019 32.4291 8 33.032 8H90C96.0751 8 101 12.9249 101 19C101 25.0751 96.0751 30 90 30H22.3774C21.4918 30 21.0432 28.9337 21.6626 28.3007L25.558 24.3192C25.6285 24.2472 25.7105 24.186 25.7986 24.1372C28.8461 22.4499 30.0736 20.2399 31.8951 15.5263Z" fill="#FF3C1A" fill-opacity="0.3"/>
<path d="M18 31.5L15.825 29.55C13.3 27.275 11.2125 25.3125 9.5625 23.6625C7.9125 22.0125 6.6 20.5312 5.625 19.2187C4.65 17.9062 3.96875 16.7 3.58125 15.6C3.19375 14.5 3 13.375 3 12.225C3 9.87498 3.7875 7.91248 5.3625 6.33748C6.9375 4.76248 8.9 3.97498 11.25 3.97498C12.55 3.97498 13.7875 4.24998 14.9625 4.79998C16.1375 5.34998 17.15 10.647 18 11.647C18.85 10.647 19.8625 5.34998 21.0375 4.79998C22.2125 4.24998 23.45 3.97498 24.75 3.97498C27.1 3.97498 29.0625 4.76248 30.6375 6.33748C32.2125 7.91248 33 9.87498 33 12.225C33 13.375 32.8063 14.5 32.4188 15.6C32.0313 16.7 31.35 17.9062 30.375 19.2187C29.4 20.5312 28.0875 22.0125 26.4375 23.6625C24.7875 25.3125 22.7 27.275 20.175 29.55L18 31.5Z" fill="#FF3C1A" fill-opacity="0.6"/>
<path d="M11.0039 2.21716C12.429 2.33502 13.8309 2.67894 15.1875 3.26013C15.9908 3.60449 16.6865 4.1128 17.2031 4.80701C17.6589 5.42077 17.8901 6.13147 18 6.88123C18.2644 6.21491 18.5816 5.55031 18.9375 4.88904C19.3634 4.09882 19.9639 3.42537 20.7891 3.02576C21.6225 2.62353 22.5321 2.57598 23.4141 2.75623C24.5145 2.98079 25.6177 3.01718 26.7305 2.86169C28.5205 2.61129 30.092 3.20233 31.2422 4.59607C32.0952 5.63068 32.8723 6.70132 33.5625 7.80701C34.4479 9.22569 34.6493 10.8004 34.1602 12.4008C33.8505 13.4129 33.7227 14.4836 33.7852 15.6117C33.8763 17.2798 33.378 18.7874 32.2852 20.0297C31.4453 20.9842 30.589 21.902 29.7188 22.7836C28.8783 23.635 28.0486 24.4929 27.2344 25.3617C26.2897 26.3697 25.1842 27.1988 23.9297 27.8461C23.0277 28.3116 22.2945 28.9375 21.7148 29.7328C20.9832 30.7382 20.3329 31.5346 19.793 32.0531C19.5665 32.2705 19.3622 32.4677 19.1953 32.6039C19.1211 32.6643 19.0037 32.7589 18.8672 32.8383C18.8094 32.8718 18.6492 32.9604 18.4336 33.014C18.3007 33.0468 17.5255 33.2164 16.9336 32.557L17.0391 32.6625L17.0156 32.6508C16.9573 32.6055 16.8691 32.5325 16.7461 32.4398C16.5009 32.2552 16.1373 31.9875 15.6562 31.6312C14.5463 30.8092 13.6015 29.8058 12.8203 28.6429C12.2537 27.7998 11.5378 27.1277 10.6758 26.6039C9.55601 25.9238 8.50508 25.1559 7.52344 24.307C6.47096 23.3967 5.60265 22.3207 4.92188 21.0961C4.32306 20.0188 3.74027 18.9529 3.17578 17.8969C2.5729 16.7689 2.05858 15.5719 1.64062 14.3226C1.15271 12.863 1.11693 11.3691 1.53516 9.88123C1.9596 8.37312 2.80262 7.1285 4.04297 6.20154C4.93727 5.53379 5.79554 4.76616 6.60938 3.90466C7.78943 2.65627 9.29306 2.07694 11.0039 2.21716ZM10.7578 5.20544C9.96012 5.14032 9.34721 5.37632 8.78906 5.96716C7.86272 6.94771 6.87511 7.82797 5.83594 8.60388C5.14645 9.11964 4.68211 9.79511 4.42969 10.6898C4.17157 11.6069 4.19257 12.4896 4.48828 13.3734C4.85474 14.4685 5.29206 15.5051 5.8125 16.4789C6.37031 17.5225 6.95434 18.577 7.54688 19.6429C8.05793 20.5615 8.6991 21.3571 9.48047 22.0336C10.3346 22.7723 11.2553 23.4428 12.2344 24.0375C13.4704 24.7884 14.4963 25.7755 15.3047 26.9789C15.8986 27.8624 16.6106 28.6045 17.4375 29.2172C17.6324 29.3615 17.8069 29.4981 17.9648 29.6156C18.2911 29.2579 18.7397 28.7299 19.2891 27.975C20.1496 26.7924 21.2469 25.8626 22.5586 25.1859C23.5194 24.6902 24.3407 24.0601 25.043 23.3109C25.8754 22.4226 26.7269 21.5444 27.5859 20.6742C28.4143 19.835 29.2325 18.9615 30.0352 18.0492C30.5843 17.425 30.8354 16.6968 30.7852 15.7758C30.7041 14.3111 30.8716 12.8866 31.2891 11.5219C31.5256 10.7468 31.4306 10.0783 31.0078 9.40076C30.3897 8.41058 29.6939 7.44257 28.9219 6.50623C28.4481 5.93347 27.9231 5.72006 27.1523 5.82654C25.7022 6.02939 24.2508 5.99007 22.8164 5.69763C22.4347 5.61963 22.2205 5.66502 22.1016 5.72107C21.9785 5.78047 21.7814 5.93377 21.5742 6.31873C20.992 7.40137 20.5712 8.46018 20.2969 9.49451C20.2049 9.84151 20.0857 10.185 19.9336 10.4906C19.7888 10.7805 19.5535 11.1515 19.1719 11.4281C18.7304 11.7474 18.1636 11.8847 17.5898 11.7445C17.096 11.6226 16.7328 11.3332 16.5 11.1C15.5903 10.1883 15.2049 8.85979 15.082 7.45544C15.0476 7.06115 14.9435 6.79305 14.8008 6.59998C14.6552 6.40399 14.4128 6.20132 14.0039 6.02576C12.9296 5.56549 11.8455 5.2954 10.7578 5.20544Z" fill="#FF3C1A"/>
</svg>
