<svg width="32" height="32" viewBox="0 0 32 32" fill="none" xmlns="http://www.w3.org/2000/svg">
<path d="M11.913 25.9702L12.0157 26.7913C12.1972 28.2435 13.4317 29.3333 14.8952 29.3333H17.0724C18.5545 29.3333 19.8047 28.2296 19.9886 26.7589L20.0891 25.9548C20.1577 25.4056 20.522 24.9455 21.0001 24.6666C21.4909 24.3803 22.0868 24.3022 22.6099 24.5239L23.3025 24.8174C24.6721 25.3977 26.2595 24.8671 27.0048 23.5798L28.1511 21.5998C28.8454 20.4005 28.5372 18.8718 27.4325 18.0352L26.2973 17.1755C26.078 17.0094 26.0001 16.7251 26.0001 16.45V15.55C26.0001 15.2713 26.1046 14.9956 26.3268 14.8273L27.3399 14.0601C28.5166 13.169 28.8448 11.5408 28.1053 10.2635L27.0477 8.43676C26.2964 7.13898 24.6976 6.60185 23.3151 7.18273L22.598 7.48403C22.082 7.70084 21.4949 7.62431 21.0168 7.33329C20.5379 7.0418 20.1567 6.58603 20.0872 6.02973L19.9845 5.20864C19.803 3.75642 18.5685 2.66663 17.105 2.66663H14.9278C13.4457 2.66663 12.1955 3.77028 12.0116 5.24097L11.9111 6.04512C11.8425 6.59434 11.4782 7.0544 11.0001 7.33329C10.5091 7.6197 9.91327 7.69877 9.38923 7.47859L8.6851 7.18273C7.30261 6.60185 5.70382 7.13899 4.95248 8.43676L3.89491 10.2635C3.15539 11.5408 3.48363 13.169 4.6603 14.0601L5.6734 14.8273C5.89559 14.9956 6.0001 15.2713 6.0001 15.55V16.45C6.0001 16.7287 5.89559 17.0043 5.6734 17.1726L4.6603 17.9398C3.48363 18.8309 3.15539 20.4591 3.89491 21.7365L4.95248 23.5632C5.70382 24.8609 7.30261 25.3981 8.6851 24.8172L9.40218 24.5159C9.91818 24.2991 10.5053 24.3756 10.9834 24.6666C11.4623 24.9581 11.8435 25.4139 11.913 25.9702Z" fill="#848484" fill-opacity="0.3"/>
<path d="M11.7246 26.0159L10.7884 26.3674L11.7246 26.0159ZM11.5383 25.5197L12.4744 25.1682L11.5383 25.5197ZM11.1826 25.0473L10.5722 25.8393L11.1826 25.0473ZM10.2908 24.36L10.9013 23.5679L10.2908 24.36ZM8.71831 24.8781L8.24437 23.9975L8.71831 24.8781ZM8.09996 25.0593L8.02381 24.0622L8.09996 25.0593ZM6.93297 25.1484L6.85682 24.1513L6.93297 25.1484ZM6.36217 24.9574L5.69709 25.7042L6.36217 24.9574ZM5.49965 24.1892L4.83456 24.936L5.49965 24.1892ZM5.09571 23.7057L4.23945 24.2223L5.09571 23.7057ZM4.52201 22.7547L5.37827 22.2381L4.52201 22.7547ZM4.1804 22.2186L3.35003 22.7758L4.1804 22.2186ZM3.85996 21.7411L4.69034 21.1839L3.85996 21.7411ZM3.53952 21.2635L4.3699 20.7063L3.53952 21.2635ZM3.39786 20.6695L2.40481 20.5518L3.39786 20.6695ZM3.53503 19.5126L2.54199 19.3949L3.53503 19.5126ZM3.81563 18.993L4.44155 19.7729L3.81563 18.993ZM4.24588 18.6477L3.61996 17.8678L4.24588 18.6477ZM4.67613 18.3024L5.30205 19.0823L4.67613 18.3024ZM5.05726 17.842L4.17104 17.3788L5.05726 17.842ZM5.30457 17.3689L6.19079 17.8322L5.30457 17.3689ZM5.55188 16.8958L4.66567 16.4326L5.55188 16.8958ZM5.70163 16.3457L4.70233 16.3083L5.70163 16.3457ZM5.73944 15.3358L6.73874 15.3732L5.73944 15.3358ZM5.48092 14.8906L4.96723 15.7486L5.48092 14.8906ZM5.00242 14.6041L5.51611 13.7461L5.00242 14.6041ZM4.52391 14.3176L5.0376 13.4596L4.52391 14.3176ZM4.15198 13.8435L5.10208 13.5315L4.15198 13.8435ZM3.78658 12.7306L2.83648 13.0426L3.78658 12.7306ZM3.67953 12.1126L4.67943 12.0985L3.67953 12.1126ZM3.79233 10.4374L4.69963 10.8579L3.79233 10.4374ZM4.02752 9.92991L3.12022 9.50943L4.02752 9.92991ZM4.54689 8.84481L3.65962 8.38356L4.54689 8.84481ZM4.81692 8.32538L5.70419 8.78663L4.81692 8.32538ZM5.56654 7.46875L5.43045 6.47805L5.56654 7.46875ZM6.14912 7.38872L6.01302 6.39802L6.14912 7.38872ZM6.73169 7.30869L6.86779 8.29939L6.73169 7.30869ZM7.3816 7.19406L7.59279 8.1715L7.3816 7.19406ZM8.52724 6.94653L8.31604 5.96908L8.52724 6.94653ZM9.12437 6.99925L9.53094 6.08563L9.12437 6.99925ZM9.61313 7.21675L9.20657 8.13037L9.61313 7.21675ZM10.5901 7.3633L11.2616 8.10427L10.5901 7.3633ZM10.9692 7.01967L11.6408 7.76064L10.9692 7.01967ZM11.3484 6.67604L10.6769 5.93508L11.3484 6.67604ZM11.7073 6.20748L10.8233 5.73991L11.7073 6.20748ZM12.225 5.22875L13.1089 5.69631L12.225 5.22875ZM12.4361 4.62895L13.4163 4.82671L12.4361 4.62895ZM12.6688 3.47509L11.6886 3.27733L12.6688 3.47509ZM14.1845 2.63856L14.5175 3.58152L14.1845 2.63856ZM15.3838 2.54953L15.3573 3.54918L15.3838 2.54953ZM15.9476 2.56448L15.9741 1.56483L15.9476 2.56448ZM18.2411 2.89394L17.4868 3.5505L18.2411 2.89394ZM18.6038 3.31068L19.3581 2.65411L18.6038 3.31068ZM18.9666 3.72741L19.7209 3.07085L18.9666 3.72741ZM19.3277 4.21799L18.4753 4.74078L19.3277 4.21799ZM19.8863 5.12878L20.7388 4.60599L19.8863 5.12878ZM20.1474 5.66532L19.2099 6.01318L20.1474 5.66532ZM20.5173 6.66221L21.4549 6.31434L20.5173 6.66221ZM20.9016 7.12087L21.4384 6.27719L20.9016 7.12087ZM21.3997 7.43783L21.9365 6.59415L21.3997 7.43783ZM21.8978 7.75479L21.361 8.59848L21.8978 7.75479ZM22.4586 7.73658L23.0322 8.55573L22.4586 7.73658ZM22.9575 7.38724L22.384 6.56809L22.9575 7.38724ZM25.7214 7.31974L25.0341 8.04609L25.7214 7.31974ZM26.1121 7.68941L26.7994 6.96305L26.1121 7.68941ZM26.5027 8.05907L25.8154 8.78542L26.5027 8.05907ZM26.9246 8.50772L26.1586 9.15067L26.9246 8.50772ZM27.2838 8.93565L28.0497 8.2927L27.2838 8.93565ZM27.643 9.36358L26.8771 10.0065L27.643 9.36358ZM28.4514 10.9241L27.5427 11.3415L28.4514 10.9241ZM28.465 11.4979L29.3868 11.8855L28.465 11.4979ZM28.0402 12.5082L27.1184 12.1207L28.0402 12.5082ZM27.8065 13.0931L26.8717 12.7377L27.8065 13.0931ZM27.4001 14.1621L26.4654 13.8067L27.4001 14.1621ZM27.0024 14.6433L26.4651 13.7999L27.0024 14.6433ZM25.9947 15.2853L26.532 16.1287L25.9947 15.2853ZM25.7877 15.7966L24.8133 16.0216L25.7877 15.7966ZM25.9235 16.3845L26.8978 16.1594L25.9235 16.3845ZM26.0593 16.9724L27.0336 16.7473L26.0593 16.9724ZM26.4484 17.4225L26.0916 18.3567L26.4484 17.4225ZM27.0044 17.6349L27.3612 16.7007L27.0044 17.6349ZM27.5603 17.8472L27.2036 18.7814L27.5603 17.8472ZM28.0381 18.2697L28.9163 17.7913L28.0381 18.2697ZM28.6249 19.347L27.7468 19.8253L28.6249 19.347ZM28.6623 19.9515L27.7415 19.5615L28.6623 19.9515ZM28.2083 21.0235L29.1291 21.4134L28.2083 21.0235ZM27.9572 21.6123L28.8759 22.007L27.9572 21.6123ZM27.7377 22.123L26.8189 21.7283L27.7377 22.123ZM27.5182 22.6338L26.5995 22.239L27.5182 22.6338ZM27.2166 23.178L26.395 22.608L27.2166 23.178ZM26.583 24.0913L27.4046 24.6613L26.583 24.0913ZM26.1183 24.4582L26.4765 25.3918L26.1183 24.4582ZM25.6089 24.6536L25.9672 25.5872L25.6089 24.6536ZM25.0995 24.8491L24.7412 23.9155L25.0995 24.8491ZM24.5199 24.8966L24.3114 25.8746L24.5199 24.8966ZM23.999 24.7855L23.7904 25.7635L23.999 24.7855ZM23.478 24.6744L23.6866 23.6964L23.478 24.6744ZM22.8609 24.5409L22.6471 25.5178L22.8609 24.5409ZM21.204 24.4759L20.3852 23.9019L21.204 24.4759ZM20.8824 24.9347L21.7013 25.5087L20.8824 24.9347ZM20.5608 25.3935L21.3797 25.9675L20.5608 25.3935ZM20.2949 25.9468L21.2558 26.2236L20.2949 25.9468ZM20.1436 26.4718L19.1827 26.195L20.1436 26.4718ZM19.9924 26.9968L20.9534 27.2736L19.9924 26.9968ZM19.7622 27.5894L18.8636 27.1508L19.7622 27.5894ZM19.5042 28.118L20.4029 28.5566L19.5042 28.118ZM19.2463 28.6467L20.1449 29.0853L19.2463 28.6467ZM18.7771 28.9972L18.939 29.984L18.7771 28.9972ZM18.201 29.0918L18.039 28.105L18.201 29.0918ZM17.6248 29.1863L17.4629 28.1995L17.6248 29.1863ZM15.8796 29.3291L15.8167 28.331L15.8796 29.3291ZM15.2573 29.3147L15.366 28.3207L15.2573 29.3147ZM14.1538 29.194L14.2626 28.1999L14.1538 29.194ZM13.5737 28.9852L14.1176 28.146L13.5737 28.9852ZM13.0942 28.6744L12.5503 29.5135L13.0942 28.6744ZM12.6146 28.3635L13.1585 27.5244L12.6146 28.3635ZM12.263 27.94L11.3131 28.2524L12.263 27.94ZM11.9722 27.0557L11.0223 27.3681L11.9722 27.0557ZM11.913 26.8041L11.7889 25.8118L11.913 26.8041ZM11.9931 26.7941L12.1172 27.7864L11.9931 26.7941ZM11.9109 26.5122L12.8471 26.1607L11.9109 26.5122ZM16.9124 20.4989L17.1069 21.4798L16.9124 20.4989ZM17.4536 20.3916L17.6482 21.3725L17.4536 20.3916ZM18.0564 20.2056L17.6684 19.2839L18.0564 20.2056ZM19.1172 19.759L18.7292 18.8373L19.1172 19.759ZM19.5945 19.361L20.4302 19.9102L19.5945 19.361ZM19.9127 18.8768L20.7484 19.426L19.9127 18.8768ZM20.2309 18.3927L19.3952 17.8435L20.2309 18.3927ZM20.4624 17.2439L21.4606 17.3037L20.4624 17.2439ZM20.496 16.683L19.4978 16.6232L20.496 16.683ZM20.543 16.0538L21.539 16.1429L20.543 16.0538ZM20.5929 15.496L19.5969 15.4068L20.5929 15.496ZM20.6429 14.9383L19.6469 14.8491L20.6429 14.9383ZM20.5014 14.3581L21.3451 13.8213L20.5014 14.3581ZM19.8985 13.4104L19.0548 13.9472L19.8985 13.4104ZM19.4744 12.9756L18.9228 13.8097L19.4744 12.9756ZM19.0218 12.6763L19.5734 11.8422L19.0218 12.6763ZM18.5692 12.377L18.0177 13.2111L18.5692 12.377ZM18.0393 12.1135L17.7125 13.0585L18.0393 12.1135ZM17.5499 11.9442L17.8768 10.9991L17.5499 11.9442ZM17.0605 11.775L17.3873 10.8299L17.0605 11.775ZM16.4927 11.6914L16.5325 12.6906L16.4927 11.6914ZM15.4526 11.7328L15.4924 12.7321L15.4526 11.7328ZM14.8925 11.8517L14.5206 10.9234L14.8925 11.8517ZM13.9409 12.2329L14.3127 13.1612L13.9409 12.2329ZM13.367 12.473L13.7649 13.3904L13.367 12.473ZM12.8226 12.7091L12.4247 11.7917L12.8226 12.7091ZM12.2782 12.9452L12.6761 13.8627L12.2782 12.9452ZM11.8824 13.395L10.9201 13.123L11.8824 13.395ZM11.4725 15.152L12.4724 15.1578L11.4725 15.152ZM11.4692 15.7083L12.4692 15.7142L11.4692 15.7083ZM11.4659 16.2647L10.466 16.2589L11.4659 16.2647ZM11.8674 17.9301L10.909 18.2158L11.8674 17.9301ZM12.1772 18.4392L11.4849 19.1609L12.1772 18.4392ZM12.5707 18.8166L13.2629 18.095L12.5707 18.8166ZM12.9641 19.1941L12.2719 19.9157L12.9641 19.1941ZM13.4181 19.6254L12.7327 20.3536L13.4181 19.6254ZM13.8319 20.0148L14.5173 19.2867L13.8319 20.0148ZM14.2456 20.4042L13.5602 21.1324L14.2456 20.4042ZM14.7642 20.6012L14.6872 19.6042L14.7642 20.6012ZM15.2725 20.562L15.3495 21.559L15.2725 20.562ZM16.3712 20.6062L16.1767 19.6254L16.3712 20.6062ZM11.7246 26.0159L12.6608 25.6644L12.4744 25.1682L11.5383 25.5197L10.6021 25.8712L10.7884 26.3674L11.7246 26.0159ZM11.5383 25.5197L12.4744 25.1682C12.335 24.7968 12.0982 24.4904 11.7931 24.2552L11.1826 25.0473L10.5722 25.8393C10.5897 25.8529 10.5964 25.8613 10.598 25.8634C10.5993 25.8652 10.6004 25.8668 10.6021 25.8712L11.5383 25.5197ZM11.1826 25.0473L11.7931 24.2552L11.3472 23.9116L10.7367 24.7036L10.1263 25.4957L10.5722 25.8393L11.1826 25.0473ZM10.7367 24.7036L11.3472 23.9116L10.9013 23.5679L10.2908 24.36L9.6804 25.152L10.1263 25.4957L10.7367 24.7036ZM10.2908 24.36L10.9013 23.5679C10.6882 23.4037 10.4172 23.2783 10.0987 23.2564C9.78333 23.2347 9.50285 23.3202 9.27594 23.4423L9.74988 24.3228L10.2238 25.2034C10.1903 25.2214 10.0967 25.261 9.96168 25.2517C9.82352 25.2422 9.72629 25.1874 9.6804 25.152L10.2908 24.36ZM9.74988 24.3228L9.27594 23.4423L8.76016 23.7199L9.2341 24.6004L9.70804 25.481L10.2238 25.2034L9.74988 24.3228ZM9.2341 24.6004L8.76016 23.7199L8.24437 23.9975L8.71831 24.8781L9.19225 25.7586L9.70804 25.481L9.2341 24.6004ZM8.71831 24.8781L8.24437 23.9975C8.17383 24.0355 8.1032 24.0561 8.02381 24.0622L8.09996 25.0593L8.17611 26.0564C8.53434 26.029 8.87595 25.9289 9.19225 25.7586L8.71831 24.8781ZM8.09996 25.0593L8.02381 24.0622L7.44032 24.1068L7.51647 25.1038L7.59262 26.1009L8.17611 26.0564L8.09996 25.0593ZM7.51647 25.1038L7.44032 24.1068L6.85682 24.1513L6.93297 25.1484L7.00913 26.1455L7.59262 26.1009L7.51647 25.1038ZM6.93297 25.1484L6.85682 24.1513C6.86795 24.1505 6.9006 24.1505 6.94347 24.1649C6.98663 24.1793 7.01515 24.1999 7.02726 24.2107L6.36217 24.9574L5.69709 25.7042C6.06467 26.0316 6.52357 26.1826 7.00913 26.1455L6.93297 25.1484ZM6.36217 24.9574L7.02726 24.2107L6.596 23.8266L5.93091 24.5733L5.26582 25.3201L5.69709 25.7042L6.36217 24.9574ZM5.93091 24.5733L6.596 23.8266L6.16474 23.4425L5.49965 24.1892L4.83456 24.936L5.26582 25.3201L5.93091 24.5733ZM5.49965 24.1892L6.16474 23.4425C6.07492 23.3625 6.00569 23.2782 5.95198 23.1892L5.09571 23.7057L4.23945 24.2223C4.40088 24.4899 4.60094 24.7279 4.83456 24.936L5.49965 24.1892ZM5.09571 23.7057L5.95198 23.1892L5.66512 22.7137L4.80886 23.2302L3.9526 23.7467L4.23945 24.2223L5.09571 23.7057ZM4.80886 23.2302L5.66512 22.7137L5.37827 22.2381L4.52201 22.7547L3.66575 23.2712L3.9526 23.7467L4.80886 23.2302ZM4.52201 22.7547L5.37827 22.2381C5.26211 22.0456 5.13958 21.8533 5.01078 21.6614L4.1804 22.2186L3.35003 22.7758C3.46156 22.942 3.56676 23.1072 3.66575 23.2712L4.52201 22.7547ZM4.1804 22.2186L5.01078 21.6614L4.69034 21.1839L3.85996 21.7411L3.02959 22.2983L3.35003 22.7758L4.1804 22.2186ZM3.85996 21.7411L4.69034 21.1839L4.3699 20.7063L3.53952 21.2635L2.70915 21.8207L3.02959 22.2983L3.85996 21.7411ZM3.53952 21.2635L4.3699 20.7063C4.37229 20.7099 4.38102 20.7249 4.3867 20.7487C4.39233 20.7723 4.39088 20.7875 4.3909 20.7873L3.39786 20.6695L2.40481 20.5518C2.35136 21.0025 2.45402 21.4405 2.70915 21.8207L3.53952 21.2635ZM3.39786 20.6695L4.3909 20.7873L4.45949 20.2088L3.46645 20.0911L2.4734 19.9733L2.40481 20.5518L3.39786 20.6695ZM3.46645 20.0911L4.45949 20.2088L4.52808 19.6304L3.53503 19.5126L2.54199 19.3949L2.4734 19.9733L3.46645 20.0911ZM3.53503 19.5126L4.52808 19.6304C4.52772 19.6334 4.52375 19.6593 4.50438 19.6952C4.48447 19.732 4.45964 19.7584 4.44155 19.7729L3.81563 18.993L3.18971 18.2131C2.81163 18.5166 2.59667 18.9338 2.54199 19.3949L3.53503 19.5126ZM3.81563 18.993L4.44155 19.7729L4.8718 19.4276L4.24588 18.6477L3.61996 17.8678L3.18971 18.2131L3.81563 18.993ZM4.24588 18.6477L4.8718 19.4276L5.30205 19.0823L4.67613 18.3024L4.05021 17.5225L3.61996 17.8678L4.24588 18.6477ZM4.67613 18.3024L5.30205 19.0823C5.5674 18.8693 5.78461 18.6092 5.94348 18.3053L5.05726 17.842L4.17104 17.3788C4.14443 17.4297 4.10755 17.4765 4.05021 17.5225L4.67613 18.3024ZM5.05726 17.842L5.94348 18.3053L6.19079 17.8322L5.30457 17.3689L4.41835 16.9057L4.17104 17.3788L5.05726 17.842ZM5.30457 17.3689L6.19079 17.8322L6.4381 17.3591L5.55188 16.8958L4.66567 16.4326L4.41835 16.9057L5.30457 17.3689ZM5.55188 16.8958L6.4381 17.3591C6.59575 17.0575 6.68796 16.7294 6.70093 16.3831L5.70163 16.3457L4.70233 16.3083C4.70112 16.3407 4.6935 16.3793 4.66567 16.4326L5.55188 16.8958ZM5.70163 16.3457L6.70093 16.3831L6.71984 15.8781L5.72054 15.8407L4.72124 15.8033L4.70233 16.3083L5.70163 16.3457ZM5.72054 15.8407L6.71984 15.8781L6.73874 15.3732L5.73944 15.3358L4.74014 15.2984L4.72124 15.8033L5.72054 15.8407ZM5.73944 15.3358L6.73874 15.3732C6.76114 14.7751 6.44747 14.3038 5.99461 14.0326L5.48092 14.8906L4.96723 15.7486C4.94323 15.7342 4.87402 15.6856 4.81536 15.5846C4.75374 15.4785 4.73738 15.3723 4.74014 15.2984L5.73944 15.3358ZM5.48092 14.8906L5.99461 14.0326L5.51611 13.7461L5.00242 14.6041L4.48872 15.4621L4.96723 15.7486L5.48092 14.8906ZM5.00242 14.6041L5.51611 13.7461L5.0376 13.4596L4.52391 14.3176L4.01022 15.1756L4.48872 15.4621L5.00242 14.6041ZM4.52391 14.3176L5.0376 13.4596C5.0485 13.4662 5.06652 13.4801 5.08316 13.5013C5.09933 13.5219 5.10345 13.5357 5.10208 13.5315L4.15198 13.8435L3.20189 14.1554C3.34136 14.5802 3.61338 14.938 4.01022 15.1756L4.52391 14.3176ZM4.15198 13.8435L5.10208 13.5315L4.91937 12.9751L3.96928 13.287L3.01919 13.599L3.20189 14.1554L4.15198 13.8435ZM3.96928 13.287L4.91937 12.9751L4.73667 12.4186L3.78658 12.7306L2.83648 13.0426L3.01919 13.599L3.96928 13.287ZM3.78658 12.7306L4.73667 12.4186C4.69724 12.2986 4.68075 12.1929 4.67943 12.0985L3.67953 12.1126L2.67963 12.1266C2.68401 12.439 2.73889 12.7454 2.83648 13.0426L3.78658 12.7306ZM3.67953 12.1126L4.67943 12.0985L4.67182 11.5562L3.67192 11.5702L2.67202 11.5843L2.67963 12.1266L3.67953 12.1126ZM3.67192 11.5702L4.67182 11.5562L4.66422 11.0139L3.66432 11.0279L2.66442 11.0419L2.67202 11.5843L3.67192 11.5702ZM3.66432 11.0279L4.66422 11.0139C4.66354 10.9652 4.67247 10.9165 4.69963 10.8579L3.79233 10.4374L2.88503 10.0169C2.73581 10.3389 2.6594 10.6838 2.66442 11.0419L3.66432 11.0279ZM3.79233 10.4374L4.69963 10.8579L4.93482 10.3504L4.02752 9.92991L3.12022 9.50943L2.88503 10.0169L3.79233 10.4374ZM4.02752 9.92991L4.93482 10.3504L5.17001 9.84293L4.26271 9.42244L3.35541 9.00196L3.12022 9.50943L4.02752 9.92991ZM4.26271 9.42244L5.17001 9.84293C5.25155 9.66698 5.33956 9.48803 5.43416 9.30606L4.54689 8.84481L3.65962 8.38356C3.5517 8.59116 3.45026 8.7973 3.35541 9.00196L4.26271 9.42244ZM4.54689 8.84481L5.43416 9.30606L5.70419 8.78663L4.81692 8.32538L3.92965 7.86413L3.65962 8.38356L4.54689 8.84481ZM4.81692 8.32538L5.70419 8.78663L5.97422 8.2672L5.08695 7.80595L4.19968 7.3447L3.92965 7.86413L4.81692 8.32538ZM5.08695 7.80595L5.97422 8.2672C5.96015 8.29427 5.9246 8.34674 5.85795 8.3936C5.79145 8.44035 5.73092 8.45556 5.70263 8.45945L5.56654 7.46875L5.43045 6.47805C4.89224 6.55199 4.45141 6.86047 4.19968 7.3447L5.08695 7.80595ZM5.56654 7.46875L5.70263 8.45945L6.28521 8.37942L6.14912 7.38872L6.01302 6.39802L5.43045 6.47805L5.56654 7.46875ZM6.14912 7.38872L6.28521 8.37942L6.86779 8.29939L6.73169 7.30869L6.5956 6.31799L6.01302 6.39802L6.14912 7.38872ZM6.73169 7.30869L6.86779 8.29939C7.11136 8.26593 7.35305 8.2233 7.59279 8.1715L7.3816 7.19406L7.17041 6.21661C6.98055 6.25763 6.78896 6.29143 6.5956 6.31799L6.73169 7.30869ZM7.3816 7.19406L7.59279 8.1715L8.16561 8.04774L7.95442 7.07029L7.74323 6.09285L7.17041 6.21661L7.3816 7.19406ZM7.95442 7.07029L8.16561 8.04774L8.73843 7.92397L8.52724 6.94653L8.31604 5.96908L7.74323 6.09285L7.95442 7.07029ZM8.52724 6.94653L8.73843 7.92397C8.74819 7.92186 8.75353 7.92139 8.75489 7.9213C8.75617 7.92121 8.75422 7.92143 8.74967 7.92102C8.74505 7.92062 8.73927 7.9197 8.73296 7.91807C8.72665 7.91643 8.72146 7.9145 8.71781 7.91288L9.12437 6.99925L9.53094 6.08563C9.13509 5.90948 8.71746 5.88235 8.31604 5.96908L8.52724 6.94653ZM9.12437 6.99925L8.71781 7.91288L9.20657 8.13037L9.61313 7.21675L10.0197 6.30313L9.53094 6.08563L9.12437 6.99925ZM9.61313 7.21675L9.20657 8.13037L9.69533 8.34787L10.1019 7.43425L10.5085 6.52063L10.0197 6.30313L9.61313 7.21675ZM10.1019 7.43425L9.69533 8.34787C9.92145 8.4485 10.1995 8.51172 10.5052 8.46729C10.8144 8.42235 11.0684 8.27936 11.2616 8.10427L10.5901 7.3633L9.91855 6.62234C9.96956 6.57611 10.0711 6.50937 10.2176 6.48808C10.3606 6.4673 10.4656 6.50157 10.5085 6.52063L10.1019 7.43425ZM10.5901 7.3633L11.2616 8.10427L11.6408 7.76064L10.9692 7.01967L10.2977 6.27871L9.91855 6.62234L10.5901 7.3633ZM10.9692 7.01967L11.6408 7.76064L12.0199 7.41701L11.3484 6.67604L10.6769 5.93508L10.2977 6.27871L10.9692 7.01967ZM11.3484 6.67604L12.0199 7.41701C12.2551 7.20389 12.4443 6.95291 12.5912 6.67505L11.7073 6.20748L10.8233 5.73991C10.7762 5.82907 10.7261 5.89047 10.6769 5.93508L11.3484 6.67604ZM11.7073 6.20748L12.5912 6.67505L12.8501 6.18568L11.9661 5.71811L11.0822 5.25054L10.8233 5.73991L11.7073 6.20748ZM11.9661 5.71811L12.8501 6.18568L13.1089 5.69631L12.225 5.22875L11.341 4.76118L11.0822 5.25054L11.9661 5.71811ZM12.225 5.22875L13.1089 5.69631C13.2536 5.42276 13.3549 5.13122 13.4163 4.82671L12.4361 4.62895L11.4558 4.43119C11.4299 4.55939 11.3905 4.66771 11.341 4.76118L12.225 5.22875ZM12.4361 4.62895L13.4163 4.82671L13.5327 4.24978L12.5524 4.05202L11.5722 3.85426L11.4558 4.43119L12.4361 4.62895ZM12.5524 4.05202L13.5327 4.24978L13.6491 3.67285L12.6688 3.47509L11.6886 3.27733L11.5722 3.85426L12.5524 4.05202ZM12.6688 3.47509L13.6491 3.67285C13.6412 3.71197 13.6155 3.78765 13.5488 3.86358C13.4828 3.93871 13.4146 3.97087 13.3856 3.98113L13.0527 3.03817L12.7197 2.09522C12.1837 2.28447 11.8035 2.70767 11.6886 3.27733L12.6688 3.47509ZM13.0527 3.03817L13.3856 3.98113L13.9515 3.78132L13.6186 2.83837L13.2857 1.89541L12.7197 2.09522L13.0527 3.03817ZM13.6186 2.83837L13.9515 3.78132L14.5175 3.58152L14.1845 2.63856L13.8516 1.6956L13.2857 1.89541L13.6186 2.83837ZM14.1845 2.63856L14.5175 3.58152C14.6218 3.54467 14.712 3.53207 14.7935 3.53423L14.82 2.53458L14.8465 1.53493C14.5052 1.52588 14.1717 1.58259 13.8516 1.6956L14.1845 2.63856ZM14.82 2.53458L14.7935 3.53423L15.3573 3.54918L15.3838 2.54953L15.4103 1.54988L14.8465 1.53493L14.82 2.53458ZM15.3838 2.54953L15.3573 3.54918L15.9211 3.56413L15.9476 2.56448L15.9741 1.56483L15.4103 1.54988L15.3838 2.54953ZM15.9476 2.56448L15.9211 3.56413C16.125 3.56953 16.3296 3.57725 16.5349 3.58729L16.5837 2.58848L16.6326 1.58967C16.4125 1.57892 16.193 1.57063 15.9741 1.56483L15.9476 2.56448ZM16.5837 2.58848L16.5349 3.58729L17.1021 3.61501L17.1509 2.61621L17.1997 1.6174L16.6326 1.58967L16.5837 2.58848ZM17.1509 2.61621L17.1021 3.61501L17.6692 3.64274L17.718 2.64393L17.7669 1.64512L17.1997 1.6174L17.1509 2.61621ZM17.718 2.64393L17.6692 3.64274C17.6565 3.64211 17.6214 3.63763 17.5771 3.61646C17.5322 3.59502 17.502 3.56793 17.4868 3.5505L18.2411 2.89394L18.9954 2.23738C18.6751 1.86942 18.243 1.66839 17.7669 1.64512L17.718 2.64393ZM18.2411 2.89394L17.4868 3.5505L17.8496 3.96724L18.6038 3.31068L19.3581 2.65411L18.9954 2.23738L18.2411 2.89394ZM18.6038 3.31068L17.8496 3.96724L18.2123 4.38398L18.9666 3.72741L19.7209 3.07085L19.3581 2.65411L18.6038 3.31068ZM18.9666 3.72741L18.2123 4.38398C18.3132 4.49989 18.4005 4.61883 18.4753 4.74078L19.3277 4.21799L20.1802 3.6952C20.0455 3.4756 19.892 3.26749 19.7209 3.07085L18.9666 3.72741ZM19.3277 4.21799L18.4753 4.74078L18.7546 5.19618L19.607 4.67339L20.4595 4.15059L20.1802 3.6952L19.3277 4.21799ZM19.607 4.67339L18.7546 5.19618L19.0339 5.65158L19.8863 5.12878L20.7388 4.60599L20.4595 4.15059L19.607 4.67339ZM19.8863 5.12878L19.0339 5.65158C19.1048 5.76722 19.1633 5.8875 19.2099 6.01318L20.1474 5.66532L21.085 5.31745C20.9929 5.06931 20.8773 4.8319 20.7388 4.60599L19.8863 5.12878ZM20.1474 5.66532L19.2099 6.01318L19.3948 6.51163L20.3324 6.16376L21.2699 5.8159L21.085 5.31745L20.1474 5.66532ZM20.3324 6.16376L19.3948 6.51163L19.5798 7.01007L20.5173 6.66221L21.4549 6.31434L21.2699 5.8159L20.3324 6.16376ZM20.5173 6.66221L19.5798 7.01007C19.7334 7.42417 20.0153 7.74221 20.3647 7.96456L20.9016 7.12087L21.4384 6.27719C21.422 6.26677 21.4234 6.26467 21.432 6.2749C21.436 6.27974 21.4406 6.28608 21.445 6.29364C21.4494 6.30121 21.4527 6.30837 21.4549 6.31434L20.5173 6.66221ZM20.9016 7.12087L20.3647 7.96456L20.8628 8.28152L21.3997 7.43783L21.9365 6.59415L21.4384 6.27719L20.9016 7.12087ZM21.3997 7.43783L20.8628 8.28152L21.361 8.59848L21.8978 7.75479L22.4347 6.91111L21.9365 6.59415L21.3997 7.43783ZM21.8978 7.75479L21.361 8.59848C21.5923 8.74565 21.8813 8.84955 22.2106 8.83886C22.5372 8.82825 22.8151 8.7078 23.0322 8.55573L22.4586 7.73658L21.8851 6.91743C21.9151 6.89636 22.006 6.84445 22.1457 6.83991C22.288 6.83529 22.3902 6.88279 22.4347 6.91111L21.8978 7.75479ZM22.4586 7.73658L23.0322 8.55573L23.5311 8.20639L22.9575 7.38724L22.384 6.56809L21.8851 6.91743L22.4586 7.73658ZM22.9575 7.38724L23.5311 8.20639L24.03 7.85705L23.4564 7.0379L22.8829 6.21875L22.384 6.56809L22.9575 7.38724ZM23.4564 7.0379L24.03 7.85705C24.0339 7.85434 24.0188 7.86544 23.9862 7.87349C23.9524 7.88184 23.922 7.88141 23.9032 7.87853L24.0547 6.89007L24.2062 5.90161C23.722 5.82741 23.2655 5.95083 22.8829 6.21875L23.4564 7.0379ZM24.0547 6.89007L23.9032 7.87853L24.4679 7.96506L24.6194 6.9766L24.7708 5.98814L24.2062 5.90161L24.0547 6.89007ZM24.6194 6.9766L24.4679 7.96506L25.0326 8.05159L25.1841 7.06313L25.3355 6.07467L24.7708 5.98814L24.6194 6.9766ZM25.1841 7.06313L25.0326 8.05159C25.0413 8.05293 25.0461 8.05426 25.0478 8.05476C25.0494 8.05524 25.0486 8.05514 25.0463 8.05401C25.0439 8.05287 25.0411 8.05129 25.0384 8.04942C25.0371 8.04854 25.0361 8.04774 25.0353 8.04711C25.0349 8.04679 25.0346 8.04654 25.0344 8.04637C25.0342 8.04619 25.0341 8.04609 25.0341 8.04609L25.7214 7.31974L26.4087 6.59339C26.105 6.30601 25.7352 6.13592 25.3355 6.07467L25.1841 7.06313ZM25.7214 7.31974L25.0341 8.04609L25.4248 8.41576L26.1121 7.68941L26.7994 6.96305L26.4087 6.59339L25.7214 7.31974ZM26.1121 7.68941L25.4248 8.41576L25.8154 8.78542L26.5027 8.05907L27.1901 7.33272L26.7994 6.96305L26.1121 7.68941ZM26.5027 8.05907L25.8154 8.78542C25.9331 8.89678 26.0476 9.01835 26.1586 9.15067L26.9246 8.50772L27.6905 7.86477C27.5321 7.67614 27.3654 7.49861 27.1901 7.33272L26.5027 8.05907ZM26.9246 8.50772L26.1586 9.15067L26.5179 9.5786L27.2838 8.93565L28.0497 8.2927L27.6905 7.86477L26.9246 8.50772ZM27.2838 8.93565L26.5179 9.5786L26.8771 10.0065L27.643 9.36358L28.4089 8.72063L28.0497 8.2927L27.2838 8.93565ZM27.643 9.36358L26.8771 10.0065C26.9535 10.0976 27.0175 10.1983 27.0695 10.3114L27.9782 9.894L28.8869 9.47656C28.7614 9.20339 28.6019 8.95055 28.4089 8.72063L27.643 9.36358ZM27.9782 9.894L27.0695 10.3114L27.3061 10.8265L28.2148 10.409L29.1235 9.99159L28.8869 9.47656L27.9782 9.894ZM28.2148 10.409L27.3061 10.8265L27.5427 11.3415L28.4514 10.9241L29.3601 10.5066L29.1235 9.99159L28.2148 10.409ZM28.4514 10.9241L27.5427 11.3415C27.5365 11.3282 27.5229 11.2909 27.5216 11.2361C27.5203 11.1805 27.5324 11.1359 27.5432 11.1104L28.465 11.4979L29.3868 11.8855C29.5792 11.4279 29.5612 10.9445 29.3601 10.5066L28.4514 10.9241ZM28.465 11.4979L27.5432 11.1104L27.3308 11.6155L28.2526 12.0031L29.1744 12.3907L29.3868 11.8855L28.465 11.4979ZM28.2526 12.0031L27.3308 11.6155L27.1184 12.1207L28.0402 12.5082L28.9621 12.8958L29.1744 12.3907L28.2526 12.0031ZM28.0402 12.5082L27.1184 12.1207C27.0341 12.3212 26.9519 12.5269 26.8717 12.7377L27.8065 13.0931L28.7412 13.4484C28.8135 13.2583 28.8871 13.0741 28.9621 12.8958L28.0402 12.5082ZM27.8065 13.0931L26.8717 12.7377L26.6685 13.2722L27.6033 13.6276L28.538 13.9829L28.7412 13.4484L27.8065 13.0931ZM27.6033 13.6276L26.6685 13.2722L26.4654 13.8067L27.4001 14.1621L28.3348 14.5174L28.538 13.9829L27.6033 13.6276ZM27.4001 14.1621L26.4654 13.8067C26.4649 13.808 26.4652 13.8069 26.4668 13.8041C26.4684 13.8013 26.4705 13.7983 26.4727 13.7957C26.4749 13.793 26.4762 13.7919 26.4757 13.7923C26.4752 13.7928 26.472 13.7955 26.4651 13.7999L27.0024 14.6433L27.5397 15.4867C27.9015 15.2562 28.1786 14.9285 28.3348 14.5174L27.4001 14.1621ZM27.0024 14.6433L26.4651 13.7999L25.9612 14.1209L26.4985 14.9643L27.0359 15.8077L27.5397 15.4867L27.0024 14.6433ZM26.4985 14.9643L25.9612 14.1209L25.4574 14.4419L25.9947 15.2853L26.532 16.1287L27.0359 15.8077L26.4985 14.9643ZM25.9947 15.2853L25.4574 14.4419C25.2265 14.589 25.0026 14.8113 24.8743 15.1281C24.7465 15.4439 24.7524 15.7579 24.8133 16.0216L25.7877 15.7966L26.762 15.5715C26.772 15.6148 26.787 15.7333 26.7281 15.8787C26.6689 16.0251 26.5739 16.102 26.532 16.1287L25.9947 15.2853ZM25.7877 15.7966L24.8133 16.0216L24.9491 16.6096L25.9235 16.3845L26.8978 16.1594L26.762 15.5715L25.7877 15.7966ZM25.9235 16.3845L24.9491 16.6096L25.0849 17.1975L26.0593 16.9724L27.0336 16.7473L26.8978 16.1594L25.9235 16.3845ZM26.0593 16.9724L25.0849 17.1975C25.2095 17.737 25.5669 18.1563 26.0916 18.3567L26.4484 17.4225L26.8052 16.4884C26.8357 16.5 26.8951 16.5314 26.9513 16.5963C27.007 16.6608 27.0277 16.7215 27.0336 16.7473L26.0593 16.9724ZM26.4484 17.4225L26.0916 18.3567L26.6476 18.5691L27.0044 17.6349L27.3612 16.7007L26.8052 16.4884L26.4484 17.4225ZM27.0044 17.6349L26.6476 18.5691L27.2036 18.7814L27.5603 17.8472L27.9171 16.913L27.3612 16.7007L27.0044 17.6349ZM27.5603 17.8472L27.2036 18.7814C27.2033 18.7813 27.1995 18.7798 27.1934 18.7761C27.1871 18.7724 27.1803 18.7675 27.1738 18.7617C27.1594 18.749 27.156 18.7407 27.16 18.748L28.0381 18.2697L28.9163 17.7913C28.6961 17.3871 28.3555 17.0805 27.9171 16.913L27.5603 17.8472ZM28.0381 18.2697L27.16 18.748L27.4534 19.2867L28.3315 18.8083L29.2097 18.33L28.9163 17.7913L28.0381 18.2697ZM28.3315 18.8083L27.4534 19.2867L27.7468 19.8253L28.6249 19.347L29.5031 18.8686L29.2097 18.33L28.3315 18.8083ZM28.6249 19.347L27.7468 19.8253C27.7416 19.8158 27.7227 19.7756 27.7187 19.7113C27.7146 19.6452 27.7287 19.5917 27.7415 19.5615L28.6623 19.9515L29.5831 20.3414C29.7944 19.8426 29.75 19.3218 29.5031 18.8686L28.6249 19.347ZM28.6623 19.9515L27.7415 19.5615L27.5145 20.0975L28.4353 20.4875L29.3561 20.8774L29.5831 20.3414L28.6623 19.9515ZM28.4353 20.4875L27.5145 20.0975L27.2875 20.6335L28.2083 21.0235L29.1291 21.4134L29.3561 20.8774L28.4353 20.4875ZM28.2083 21.0235L27.2875 20.6335C27.203 20.833 27.12 21.0276 27.0384 21.2175L27.9572 21.6123L28.8759 22.007C28.959 21.8138 29.0434 21.616 29.1291 21.4134L28.2083 21.0235ZM27.9572 21.6123L27.0384 21.2175L26.8189 21.7283L27.7377 22.123L28.6565 22.5178L28.8759 22.007L27.9572 21.6123ZM27.7377 22.123L26.8189 21.7283L26.5995 22.239L27.5182 22.6338L28.437 23.0286L28.6565 22.5178L27.7377 22.123ZM27.5182 22.6338L26.5995 22.239C26.5436 22.3691 26.4756 22.4917 26.395 22.608L27.2166 23.178L28.0382 23.748C28.1952 23.5217 28.3283 23.2816 28.437 23.0286L27.5182 22.6338ZM27.2166 23.178L26.395 22.608L26.0781 23.0646L26.8998 23.6346L27.7214 24.2046L28.0382 23.748L27.2166 23.178ZM26.8998 23.6346L26.0781 23.0646L25.7613 23.5213L26.583 24.0913L27.4046 24.6613L27.7214 24.2046L26.8998 23.6346ZM26.583 24.0913L25.7613 23.5213C25.758 23.5262 25.756 23.5283 25.7557 23.5286C25.7555 23.5288 25.7564 23.5279 25.7581 23.5265C25.7599 23.5252 25.7615 23.5241 25.7626 23.5235C25.7636 23.5229 25.763 23.5234 25.76 23.5245L26.1183 24.4582L26.4765 25.3918C26.8587 25.2451 27.1737 24.9943 27.4046 24.6613L26.583 24.0913ZM26.1183 24.4582L25.76 23.5245L25.2506 23.72L25.6089 24.6536L25.9672 25.5872L26.4765 25.3918L26.1183 24.4582ZM25.6089 24.6536L25.2506 23.72L24.7412 23.9155L25.0995 24.8491L25.4578 25.7827L25.9672 25.5872L25.6089 24.6536ZM25.0995 24.8491L24.7412 23.9155C24.735 23.9179 24.7313 23.9189 24.7299 23.9192C24.7285 23.9195 24.7286 23.9194 24.7297 23.9193C24.7309 23.9192 24.7319 23.9192 24.7324 23.9193C24.7329 23.9193 24.7317 23.9193 24.7285 23.9186L24.5199 24.8966L24.3114 25.8746C24.7008 25.9576 25.0907 25.9236 25.4578 25.7827L25.0995 24.8491ZM24.5199 24.8966L24.7285 23.9186L24.2075 23.8075L23.999 24.7855L23.7904 25.7635L24.3114 25.8746L24.5199 24.8966ZM23.999 24.7855L24.2075 23.8075L23.6866 23.6964L23.478 24.6744L23.2694 25.6524L23.7904 25.7635L23.999 24.7855ZM23.478 24.6744L23.6866 23.6964C23.4931 23.6551 23.2892 23.611 23.0747 23.5641L22.8609 24.5409L22.6471 25.5178C22.8647 25.5654 23.0721 25.6103 23.2694 25.6524L23.478 24.6744ZM22.8609 24.5409L23.0747 23.5641L22.4987 23.438L22.2849 24.4149L22.0711 25.3917L22.6471 25.5178L22.8609 24.5409ZM22.2849 24.4149L22.4987 23.438L21.9227 23.3119L21.7089 24.2888L21.4951 25.2657L22.0711 25.3917L22.2849 24.4149ZM21.7089 24.2888L21.9227 23.3119C21.6712 23.2569 21.3744 23.2508 21.0731 23.3624C20.7678 23.4756 20.5416 23.6787 20.3852 23.9019L21.204 24.4759L22.0229 25.0499C21.987 25.1011 21.9053 25.187 21.7682 25.2378C21.6352 25.2871 21.5306 25.2734 21.4951 25.2657L21.7089 24.2888ZM21.204 24.4759L20.3852 23.9019L20.0636 24.3607L20.8824 24.9347L21.7013 25.5087L22.0229 25.0499L21.204 24.4759ZM20.8824 24.9347L20.0636 24.3607L19.742 24.8194L20.5608 25.3935L21.3797 25.9675L21.7013 25.5087L20.8824 24.9347ZM20.5608 25.3935L19.742 24.8194C19.5595 25.0797 19.422 25.3642 19.3339 25.67L20.2949 25.9468L21.2558 26.2236C21.2811 26.1357 21.3209 26.0513 21.3797 25.9675L20.5608 25.3935ZM20.2949 25.9468L19.3339 25.67L19.1827 26.195L20.1436 26.4718L21.1046 26.7486L21.2558 26.2236L20.2949 25.9468ZM20.1436 26.4718L19.1827 26.195L19.0315 26.72L19.9924 26.9968L20.9534 27.2736L21.1046 26.7486L20.1436 26.4718ZM19.9924 26.9968L19.0315 26.72C18.992 26.8571 18.9368 27.0007 18.8636 27.1508L19.7622 27.5894L20.6609 28.028C20.7811 27.7817 20.8795 27.5301 20.9534 27.2736L19.9924 26.9968ZM19.7622 27.5894L18.8636 27.1508L18.6056 27.6794L19.5042 28.118L20.4029 28.5566L20.6609 28.028L19.7622 27.5894ZM19.5042 28.118L18.6056 27.6794L18.3476 28.2081L19.2463 28.6467L20.1449 29.0853L20.4029 28.5566L19.5042 28.118ZM19.2463 28.6467L18.3476 28.2081C18.3598 28.183 18.3929 28.1305 18.4579 28.0819C18.5231 28.0331 18.5843 28.0155 18.6151 28.0104L18.7771 28.9972L18.939 29.984C19.4779 29.8956 19.9073 29.5722 20.1449 29.0853L19.2463 28.6467ZM18.7771 28.9972L18.6151 28.0104L18.039 28.105L18.201 29.0918L18.3629 30.0786L18.939 29.984L18.7771 28.9972ZM18.201 29.0918L18.039 28.105L17.4629 28.1995L17.6248 29.1863L17.7868 30.1731L18.3629 30.0786L18.201 29.0918ZM17.6248 29.1863L17.4629 28.1995C17.278 28.2299 17.0991 28.2503 16.9259 28.2612L16.9888 29.2592L17.0517 30.2572C17.2945 30.2419 17.5396 30.2137 17.7868 30.1731L17.6248 29.1863ZM16.9888 29.2592L16.9259 28.2612L16.3713 28.2961L16.4342 29.2941L16.4971 30.2921L17.0517 30.2572L16.9888 29.2592ZM16.4342 29.2941L16.3713 28.2961L15.8167 28.331L15.8796 29.3291L15.9424 30.3271L16.4971 30.2921L16.4342 29.2941ZM15.8796 29.3291L15.8167 28.331C15.6659 28.3405 15.5159 28.3371 15.366 28.3207L15.2573 29.3147L15.1485 30.3088C15.4124 30.3377 15.6773 30.3438 15.9424 30.3271L15.8796 29.3291ZM15.2573 29.3147L15.366 28.3207L14.8143 28.2603L14.7055 29.2544L14.5967 30.2484L15.1485 30.3088L15.2573 29.3147ZM14.7055 29.2544L14.8143 28.2603L14.2626 28.1999L14.1538 29.194L14.045 30.1881L14.5967 30.2484L14.7055 29.2544ZM14.1538 29.194L14.2626 28.1999C14.2155 28.1948 14.1705 28.1803 14.1176 28.146L13.5737 28.9852L13.0298 29.8243C13.3366 30.0232 13.6783 30.1479 14.045 30.1881L14.1538 29.194ZM13.5737 28.9852L14.1176 28.146L13.6381 27.8352L13.0942 28.6744L12.5503 29.5135L13.0298 29.8243L13.5737 28.9852ZM13.0942 28.6744L13.6381 27.8352L13.1585 27.5244L12.6146 28.3635L12.0707 29.2027L12.5503 29.5135L13.0942 28.6744ZM12.6146 28.3635L13.1585 27.5244C13.1396 27.5121 13.1455 27.5125 13.1613 27.5316C13.1786 27.5524 13.1991 27.5853 13.213 27.6276L12.263 27.94L11.3131 28.2524C11.454 28.6809 11.7443 28.9911 12.0707 29.2027L12.6146 28.3635ZM12.263 27.94L13.213 27.6276L13.0676 27.1854L12.1176 27.4978L11.1677 27.8102L11.3131 28.2524L12.263 27.94ZM12.1176 27.4978L13.0676 27.1854L12.9222 26.7432L11.9722 27.0557L11.0223 27.3681L11.1677 27.8102L12.1176 27.4978ZM11.9722 27.0557L12.9222 26.7432C12.8968 26.666 12.8894 26.6372 12.8899 26.6391C12.8905 26.6417 12.893 26.6524 12.8959 26.6689C12.8983 26.6827 12.9041 26.718 12.9067 26.7659C12.9083 26.7941 12.916 26.9226 12.8711 27.0812C12.8474 27.165 12.7925 27.3171 12.6609 27.4665C12.5119 27.6356 12.2953 27.7641 12.037 27.7964L11.913 26.8041L11.7889 25.8118C11.1917 25.8865 10.9904 26.3824 10.9468 26.5362C10.9003 26.7003 10.9076 26.837 10.9097 26.8759C10.9154 26.9782 10.9353 27.0645 10.9432 27.0977C10.9634 27.1835 10.9932 27.2795 11.0223 27.3681L11.9722 27.0557ZM11.913 26.8041L12.037 27.7964L12.0771 27.7914L11.9531 26.7991L11.829 25.8068L11.7889 25.8118L11.913 26.8041ZM11.9531 26.7991L12.0771 27.7914L12.1172 27.7864L11.9931 26.7941L11.8691 25.8018L11.829 25.8068L11.9531 26.7991ZM11.9931 26.7941L12.1172 27.7864C12.816 27.699 12.9635 27.0649 12.9814 26.9638C13.0092 26.807 12.9924 26.6799 12.9882 26.6473C12.9763 26.5548 12.9536 26.4758 12.9438 26.4421C12.9191 26.3574 12.8838 26.2585 12.8471 26.1607L11.9109 26.5122L10.9747 26.8637C10.9902 26.9048 11.002 26.9375 11.0107 26.9626C11.015 26.975 11.0182 26.9846 11.0205 26.9918C11.0229 26.9991 11.0239 27.0023 11.0239 27.0023C11.0238 27.0021 11.0234 27.0006 11.0226 26.9977C11.0219 26.995 11.0206 26.9901 11.0191 26.9836C11.0167 26.9738 11.01 26.9446 11.0047 26.9036C11.002 26.8829 10.9854 26.7649 11.0122 26.6144C11.0257 26.5383 11.0633 26.3745 11.1863 26.2051C11.3315 26.0051 11.5685 25.8394 11.8691 25.8018L11.9931 26.7941ZM11.9109 26.5122L12.8471 26.1607L12.6608 25.6644L11.7246 26.0159L10.7884 26.3674L10.9747 26.8637L11.9109 26.5122ZM16.9124 20.4989L17.1069 21.4798L17.6482 21.3725L17.4536 20.3916L17.2591 19.4107L16.7179 19.518L16.9124 20.4989ZM17.4536 20.3916L17.6482 21.3725C17.9202 21.3185 18.1859 21.2361 18.4444 21.1272L18.0564 20.2056L17.6684 19.2839C17.5291 19.3426 17.3929 19.3841 17.2591 19.4107L17.4536 20.3916ZM18.0564 20.2056L18.4444 21.1272L18.9748 20.9039L18.5868 19.9823L18.1988 19.0606L17.6684 19.2839L18.0564 20.2056ZM18.5868 19.9823L18.9748 20.9039L19.5052 20.6806L19.1172 19.759L18.7292 18.8373L18.1988 19.0606L18.5868 19.9823ZM19.1172 19.759L19.5052 20.6806C19.8883 20.5193 20.2027 20.2564 20.4302 19.9102L19.5945 19.361L18.7588 18.8118C18.7505 18.8245 18.7458 18.8282 18.7453 18.8286C18.745 18.8289 18.7412 18.8323 18.7292 18.8373L19.1172 19.759ZM19.5945 19.361L20.4302 19.9102L20.7484 19.426L19.9127 18.8768L19.077 18.3277L18.7588 18.8118L19.5945 19.361ZM19.9127 18.8768L20.7484 19.426L21.0666 18.9419L20.2309 18.3927L19.3952 17.8435L19.077 18.3277L19.9127 18.8768ZM20.2309 18.3927L21.0666 18.9419C21.2788 18.6189 21.4036 18.2551 21.427 17.8647L20.4288 17.8048L19.4305 17.745C19.4287 17.7752 19.4216 17.8033 19.3952 17.8435L20.2309 18.3927ZM20.4288 17.8048L21.427 17.8647L21.4606 17.3037L20.4624 17.2439L19.4642 17.1841L19.4305 17.745L20.4288 17.8048ZM20.4624 17.2439L21.4606 17.3037L21.4942 16.7428L20.496 16.683L19.4978 16.6232L19.4642 17.1841L20.4624 17.2439ZM20.496 16.683L21.4942 16.7428C21.5062 16.5422 21.5212 16.3423 21.539 16.1429L20.543 16.0538L19.547 15.9646C19.5274 16.1835 19.511 16.4031 19.4978 16.6232L20.496 16.683ZM20.543 16.0538L21.539 16.1429L21.589 15.5852L20.5929 15.496L19.5969 15.4068L19.547 15.9646L20.543 16.0538ZM20.5929 15.496L21.589 15.5852L21.6389 15.0275L20.6429 14.9383L19.6469 14.8491L19.5969 15.4068L20.5929 15.496ZM20.6429 14.9383L21.6389 15.0275C21.6774 14.5979 21.5762 14.1845 21.3451 13.8213L20.5014 14.3581L19.6577 14.8948C19.6587 14.8963 19.6576 14.8949 19.6557 14.8906C19.6538 14.8862 19.6517 14.8803 19.65 14.8732C19.6483 14.8662 19.6474 14.8599 19.6471 14.8548C19.6467 14.8499 19.647 14.8478 19.6469 14.8491L20.6429 14.9383ZM20.5014 14.3581L21.3451 13.8213L21.0437 13.3475L20.2 13.8842L19.3563 14.421L19.6577 14.8948L20.5014 14.3581ZM20.2 13.8842L21.0437 13.3475L20.7423 12.8737L19.8985 13.4104L19.0548 13.9472L19.3563 14.421L20.2 13.8842ZM19.8985 13.4104L20.7423 12.8737C20.5565 12.5817 20.317 12.3339 20.026 12.1414L19.4744 12.9756L18.9228 13.8097C18.9712 13.8417 19.0145 13.8838 19.0548 13.9472L19.8985 13.4104ZM19.4744 12.9756L20.026 12.1414L19.5734 11.8422L19.0218 12.6763L18.4702 13.5104L18.9228 13.8097L19.4744 12.9756ZM19.0218 12.6763L19.5734 11.8422L19.1208 11.5429L18.5692 12.377L18.0177 13.2111L18.4702 13.5104L19.0218 12.6763ZM18.5692 12.377L19.1208 11.5429C18.8844 11.3866 18.6327 11.2605 18.3662 11.1684L18.0393 12.1135L17.7125 13.0585C17.8131 13.0933 17.9146 13.143 18.0177 13.2111L18.5692 12.377ZM18.0393 12.1135L18.3662 11.1684L17.8768 10.9991L17.5499 11.9442L17.2231 12.8893L17.7125 13.0585L18.0393 12.1135ZM17.5499 11.9442L17.8768 10.9991L17.3873 10.8299L17.0605 11.775L16.7337 12.72L17.2231 12.8893L17.5499 11.9442ZM17.0605 11.775L17.3873 10.8299C17.0854 10.7255 16.7718 10.6795 16.4529 10.6922L16.4927 11.6914L16.5325 12.6906C16.6036 12.6878 16.6685 12.6975 16.7337 12.72L17.0605 11.775ZM16.4927 11.6914L16.4529 10.6922L15.9329 10.7129L15.9727 11.7121L16.0125 12.7113L16.5325 12.6906L16.4927 11.6914ZM15.9727 11.7121L15.9329 10.7129L15.4128 10.7336L15.4526 11.7328L15.4924 12.7321L16.0125 12.7113L15.9727 11.7121ZM15.4526 11.7328L15.4128 10.7336C15.1057 10.7459 14.8065 10.8089 14.5206 10.9234L14.8925 11.8517L15.2644 12.78C15.3353 12.7516 15.4096 12.7354 15.4924 12.7321L15.4526 11.7328ZM14.8925 11.8517L14.5206 10.9234L14.0448 11.1141L14.4167 12.0423L14.7885 12.9706L15.2644 12.78L14.8925 11.8517ZM14.4167 12.0423L14.0448 11.1141L13.569 11.3047L13.9409 12.2329L14.3127 13.1612L14.7885 12.9706L14.4167 12.0423ZM13.9409 12.2329L13.569 11.3047C13.3806 11.3801 13.1805 11.4638 12.9691 11.5556L13.367 12.473L13.7649 13.3904C13.9617 13.305 14.1443 13.2287 14.3127 13.1612L13.9409 12.2329ZM13.367 12.473L12.9691 11.5556L12.4247 11.7917L12.8226 12.7091L13.2205 13.6265L13.7649 13.3904L13.367 12.473ZM12.8226 12.7091L12.4247 11.7917L11.8803 12.0278L12.2782 12.9452L12.6761 13.8627L13.2205 13.6265L12.8226 12.7091ZM12.2782 12.9452L11.8803 12.0278C11.4049 12.234 11.0628 12.6183 10.9201 13.123L11.8824 13.395L12.8447 13.667C12.838 13.6906 12.819 13.7368 12.7769 13.7847C12.735 13.8323 12.6936 13.8551 12.6761 13.8627L12.2782 12.9452ZM11.8824 13.395L10.9201 13.123L10.7608 13.6865L11.7231 13.9585L12.6854 14.2305L12.8447 13.667L11.8824 13.395ZM11.7231 13.9585L10.7608 13.6865L10.6016 14.25L11.5639 14.522L12.5262 14.794L12.6854 14.2305L11.7231 13.9585ZM11.5639 14.522L10.6016 14.25C10.5186 14.5434 10.4742 14.8429 10.4725 15.1461L11.4725 15.152L12.4724 15.1578C12.4731 15.0438 12.4896 14.9233 12.5262 14.794L11.5639 14.522ZM11.4725 15.152L10.4725 15.1461L10.4692 15.7025L11.4692 15.7083L12.4692 15.7142L12.4724 15.1578L11.4725 15.152ZM11.4692 15.7083L10.4692 15.7025L10.466 16.2589L11.4659 16.2647L12.4659 16.2706L12.4692 15.7142L11.4692 15.7083ZM11.4659 16.2647L10.466 16.2589C10.4642 16.5652 10.5068 16.8668 10.5943 17.1603L11.5526 16.8745L12.5109 16.5888C12.4804 16.4865 12.4653 16.3815 12.4659 16.2706L11.4659 16.2647ZM11.5526 16.8745L10.5943 17.1603L10.7517 17.688L11.71 17.4023L12.6683 17.1166L12.5109 16.5888L11.5526 16.8745ZM11.71 17.4023L10.7517 17.688L10.909 18.2158L11.8674 17.9301L12.8257 17.6443L12.6683 17.1166L11.71 17.4023ZM11.8674 17.9301L10.909 18.2158C11.017 18.5778 11.2112 18.8983 11.4849 19.1609L12.1772 18.4392L12.8694 17.7176C12.8481 17.6971 12.8357 17.6781 12.8257 17.6443L11.8674 17.9301ZM12.1772 18.4392L11.4849 19.1609L11.8784 19.5383L12.5707 18.8166L13.2629 18.095L12.8694 17.7176L12.1772 18.4392ZM12.5707 18.8166L11.8784 19.5383L12.2719 19.9157L12.9641 19.1941L13.6564 18.4724L13.2629 18.095L12.5707 18.8166ZM12.9641 19.1941L12.2719 19.9157C12.4218 20.0595 12.5754 20.2055 12.7327 20.3536L13.4181 19.6254L14.1036 18.8973C13.9506 18.7533 13.8015 18.6117 13.6564 18.4724L12.9641 19.1941ZM13.4181 19.6254L12.7327 20.3536L13.1465 20.743L13.8319 20.0148L14.5173 19.2867L14.1036 18.8973L13.4181 19.6254ZM13.8319 20.0148L13.1465 20.743L13.5602 21.1324L14.2456 20.4042L14.931 19.6761L14.5173 19.2867L13.8319 20.0148ZM14.2456 20.4042L13.5602 21.1324C13.8942 21.4468 14.3361 21.6372 14.8412 21.5982L14.7642 20.6012L14.6872 19.6042C14.7336 19.6006 14.7907 19.6069 14.8466 19.6282C14.9 19.6484 14.9274 19.6727 14.931 19.6761L14.2456 20.4042ZM14.7642 20.6012L14.8412 21.5982L15.3495 21.559L15.2725 20.562L15.1955 19.5649L14.6872 19.6042L14.7642 20.6012ZM15.2725 20.562L15.3495 21.559L15.8578 21.5198L15.7808 20.5227L15.7039 19.5257L15.1955 19.5649L15.2725 20.562ZM15.7808 20.5227L15.8578 21.5198C15.9456 21.513 15.9745 21.5134 15.968 21.5133C15.9638 21.5132 15.9502 21.5127 15.9301 21.5108C15.9127 21.5091 15.872 21.5046 15.819 21.492C15.7811 21.4831 15.6546 21.4521 15.5148 21.3607C15.3668 21.2639 15.0668 20.997 15.0668 20.5305H16.0668H17.0668C17.0668 20.059 16.7637 19.7878 16.6098 19.687C16.4641 19.5917 16.3286 19.5574 16.2788 19.5456C16.1643 19.5186 16.0633 19.5151 16.0226 19.514C15.9207 19.5112 15.8067 19.5178 15.7039 19.5257L15.7808 20.5227ZM16.0668 20.5305H15.0668V20.5836H16.0668H17.0668V20.5305H16.0668ZM16.0668 20.5836H15.0668V20.6368H16.0668H17.0668V20.5836H16.0668ZM16.0668 20.6368H15.0668C15.0668 21.1754 15.4506 21.4524 15.6325 21.5413C15.7976 21.622 15.9446 21.6371 15.9902 21.6415C16.1042 21.6524 16.2031 21.643 16.2426 21.6391C16.3431 21.629 16.4579 21.6085 16.5657 21.5871L16.3712 20.6062L16.1767 19.6254C16.133 19.634 16.0994 19.6401 16.0746 19.6442C16.0482 19.6486 16.0394 19.6494 16.0432 19.649C16.0454 19.6488 16.0568 19.6477 16.0748 19.6471C16.0898 19.6465 16.1289 19.6456 16.1814 19.6506C16.2143 19.6538 16.3518 19.6668 16.5105 19.7443C16.5966 19.7864 16.734 19.8691 16.8545 20.0226C16.9873 20.1918 17.0668 20.4066 17.0668 20.6368H16.0668ZM16.3712 20.6062L16.5657 21.5871L17.1069 21.4798L16.9124 20.4989L16.7179 19.518L16.1767 19.6254L16.3712 20.6062Z" fill="#848484"/>
</svg>
