<svg width="28" height="29" viewBox="0 0 28 29" fill="none" xmlns="http://www.w3.org/2000/svg">
<path fill-rule="evenodd" clip-rule="evenodd" d="M13.0196 0.0155679L13.5831 0.0311929C13.8017 0.0369945 14.0214 0.0448635 14.2413 0.055607L14.8086 0.0839273L15.376 0.111271C15.7924 0.131776 16.1759 0.287951 16.4795 0.573185L16.6045 0.703068L16.9668 1.12006L17.3301 1.53705C17.5011 1.7335 17.6546 1.94172 17.7891 2.16108L18.0684 2.61713L18.3477 3.07221C18.4861 3.29796 18.6024 3.53519 18.6944 3.78315L18.879 4.28217L19.0498 4.74506L19.5459 5.06049L19.7598 5.19623L19.9932 5.03412L20.4922 4.68451L20.6387 4.59174C20.9389 4.4186 21.2775 4.33036 21.6348 4.34955L21.8155 4.36811L22.3799 4.45404L22.9444 4.54096C23.3439 4.60226 23.714 4.77226 24.0176 5.05951L24.4082 5.42963L24.7989 5.79877C24.9741 5.96459 25.1416 6.14247 25.2998 6.331L25.6582 6.75873L26.0176 7.18647C26.2105 7.41626 26.3707 7.66932 26.4961 7.94233L26.7325 8.45795L26.9688 8.9726C27.1698 9.41032 27.1884 9.89405 26.9961 10.3515L26.7832 10.8564L26.5713 11.3622C26.4964 11.5405 26.4219 11.725 26.3497 11.915L25.9434 12.9833C25.7872 13.3943 25.5101 13.7226 25.1485 13.9531L24.6446 14.2734L24.4532 14.3945L24.5069 14.6259L24.5987 15.0244L24.9698 15.1669L25.5264 15.3788C25.9097 15.5254 26.219 15.7787 26.4375 16.1103L26.5254 16.2578L26.8184 16.7958L27.1123 17.3349C27.3589 17.7879 27.4035 18.309 27.1924 18.8076L26.9649 19.3437L26.7383 19.8798C26.6526 20.0823 26.5674 20.2804 26.4844 20.4736L26.2657 20.9843L26.0459 21.4951C25.9373 21.7478 25.8043 21.9878 25.6475 22.2138L25.3301 22.6708L25.0137 23.1279C24.7828 23.4606 24.4669 23.7117 24.085 23.8583L23.5762 24.0537L23.0665 24.249C22.6996 24.3897 22.3092 24.4237 21.92 24.3408L21.3995 24.2294L20.878 24.1181C20.6809 24.0761 20.4732 24.0319 20.2559 23.9843L19.6797 23.8583L19.4297 23.8027L19.3106 23.9746L18.9883 24.4335C18.9296 24.5173 18.8896 24.6016 18.8643 24.6894L18.7139 25.2148L18.5625 25.7392C18.4887 25.9957 18.3898 26.2478 18.2696 26.4941L18.0118 27.0224L17.754 27.5517C17.5163 28.0384 17.0864 28.3616 16.5479 28.4501L15.3956 28.6396C15.1486 28.6801 14.9028 28.7083 14.6602 28.7236L14.1055 28.7587L13.5518 28.7929C13.287 28.8096 13.0215 28.8041 12.7579 28.7753L11.6543 28.6542C11.2877 28.6141 10.9454 28.4887 10.6387 28.29L9.67973 27.6689C9.35342 27.4574 9.06287 27.147 8.92192 26.7187L8.6309 25.8339C8.60184 25.7455 8.57198 25.649 8.5518 25.5634C8.54391 25.5299 8.52421 25.4436 8.5186 25.3417C8.51725 25.3172 8.51437 25.2545 8.52348 25.1708L8.3975 24.8339L8.21098 24.3369C8.20961 24.3333 8.2082 24.3315 8.20707 24.33C8.2055 24.3279 8.19801 24.319 8.18071 24.3056L7.73539 23.9619L7.5518 23.8203L7.31743 23.9472L6.80082 24.2246C6.48476 24.3946 6.14314 24.495 5.7852 24.5224L5.20122 24.5673L4.61821 24.6113C4.13277 24.6483 3.67324 24.4971 3.30571 24.1699L2.87504 23.7861L2.4434 23.4023C2.2099 23.1943 2.01006 22.9559 1.84868 22.6884L1.27446 21.7372C1.17559 21.5734 1.07041 21.4081 0.959028 21.2421L0.318403 20.2871C0.0632751 19.9068 -0.0397312 19.4683 0.0137152 19.0175L0.150434 17.8613L0.178754 17.6904C0.261679 17.2974 0.468048 16.9452 0.798871 16.6796L1.22856 16.3339L1.65922 15.9882C1.71628 15.9423 1.75378 15.8954 1.78032 15.8447L2.02739 15.372L2.27446 14.8984C2.30214 14.8453 2.31035 14.8067 2.31157 14.7744L2.33012 14.2695L2.33696 14.0712L2.0977 13.9287L1.61918 13.6415C1.22253 13.404 0.950107 13.0465 0.81059 12.622L0.445356 11.5087C0.347767 11.2115 0.292516 10.9051 0.288129 10.5927L0.281293 10.0507L0.273481 9.50776C0.268507 9.14985 0.345055 8.80519 0.494184 8.48334L0.729536 7.97553L0.963911 7.46772C1.05872 7.26314 1.16072 7.05706 1.2686 6.84955L1.53813 6.33002L1.80864 5.81049L1.91215 5.63764C2.17248 5.25347 2.56844 5.00901 3.03911 4.94428L3.62211 4.8642L4.20414 4.78412C4.39736 4.75757 4.58961 4.72355 4.77934 4.68256L5.35258 4.55854L5.92485 4.43549C6.32608 4.34888 6.74403 4.37568 7.13969 4.5517L7.62895 4.76947L7.79692 4.84369L7.90629 4.74506L8.28618 4.40131C8.33528 4.35673 8.38562 4.29493 8.43266 4.206L8.95024 3.22748C8.99963 3.13407 9.03865 3.02548 9.0645 2.8974L9.18071 2.32026L9.29789 1.74311L9.35258 1.53705C9.50964 1.07176 9.86005 0.727082 10.3291 0.561466L10.8946 0.361271L11.461 0.162052C11.7808 0.0492334 12.1141 -0.0080805 12.4551 0.000919505L13.0196 0.0155679ZM13.6748 9.50385C12.2806 9.50389 11.1046 9.9881 10.1475 10.957C9.19052 11.9259 8.71196 13.0962 8.71196 14.4667C8.71203 15.8371 9.1907 17.0068 10.1475 17.9755C11.1046 18.9444 12.2806 19.4296 13.6748 19.4296C15.0455 19.4296 16.2157 18.9444 17.1846 17.9755C18.1533 17.0067 18.6377 15.8371 18.6377 14.4667C18.6377 13.0961 18.1535 11.9259 17.1846 10.957C16.2157 9.98806 15.0455 9.50385 13.6748 9.50385Z" fill="#7BA6C5"/>
</svg>
