<svg width="175.735" height="115.235" viewBox="0 0 175.735 115.235" fill="none" xmlns="http://www.w3.org/2000/svg">
<g id="Group 237">
<path id="Vector 224" d="M1.37503 22.3969C0.688128 22.3279 0.075352 22.8288 0.00635321 23.5157C-0.0626456 24.2026 0.438262 24.8154 1.12516 24.8844L1.25009 23.6406L1.37503 22.3969ZM1.34959 23.6506L1.22466 24.8944L1.34527 24.9065L1.46596 24.8952L1.34959 23.6506ZM4.54079 23.6037L4.4346 24.8491L4.54079 23.6037ZM5.95088 23.6985L5.87811 24.9464L5.95088 23.6985ZM6.42153 23.726L6.49429 22.4781L6.42153 23.726ZM7.80845 23.9851L7.50199 25.197L7.80845 23.9851ZM8.26659 24.101L8.57306 22.8891L8.26659 24.101ZM9.6419 24.4279L9.36156 25.6461L9.6419 24.4279ZM10.1005 24.5335L10.3808 23.3153L10.1005 24.5335ZM11.4944 24.7184L11.3886 25.964L11.4944 24.7184ZM11.962 24.7582L12.0678 23.5126L11.962 24.7582ZM12.9053 24.7978L12.905 23.5478L12.9053 24.7978ZM13.8566 24.7975L13.857 26.0475L13.8566 24.7975ZM15.2061 25.2437L14.6374 26.3569V26.3569L15.2061 25.2437ZM15.643 25.4669L16.2116 24.3537L15.643 25.4669ZM17.4692 25.9178L17.267 27.1513L17.4692 25.9178ZM18.3883 26.0963L18.6627 24.8767L18.3883 26.0963ZM19.3002 26.3015L19.5747 25.082L19.3002 26.3015ZM20.2256 26.4487L20.344 25.2044L20.2256 26.4487ZM20.695 26.4934L20.8134 25.249L20.695 26.4934ZM21.1644 26.5381L21.046 27.7824L21.1644 26.5381ZM22.0892 26.6927L21.7957 27.9078L22.0892 26.6927ZM22.9999 26.9127L23.2934 25.6976L22.9999 26.9127ZM23.9355 27.0221L23.9371 28.2721L23.9355 27.0221ZM24.4158 27.0215L24.4174 28.2715L24.4158 27.0215ZM26.2904 27.2358L26.0035 28.4525L26.2904 27.2358ZM26.7474 27.3436L26.4605 28.5602V28.5602L26.7474 27.3436ZM28.0792 27.8277L27.5852 28.9759L28.0792 27.8277ZM28.5166 28.0158L29.0105 26.8676L28.5166 28.0158ZM29.4242 28.2528L29.2951 29.4961L29.4242 28.2528ZM30.3647 28.3505L30.4938 27.1072L30.3647 28.3505ZM31.2896 28.5194L30.9705 29.728L31.2896 28.5194ZM31.7443 28.6395L31.4252 29.848L31.7443 28.6395ZM32.199 28.7595L32.5182 27.551L32.199 28.7595ZM33.1132 28.9723L33.3603 27.747L33.1132 28.9723ZM33.5726 29.065L33.3255 30.2903L33.5726 29.065ZM34.0321 29.1577L33.7849 30.383L34.0321 29.1577ZM34.9509 29.346L35.2057 28.1223L34.9509 29.346ZM35.4101 29.4416L35.665 28.2179L35.4101 29.4416ZM35.8694 29.5373L35.6145 30.761L35.8694 29.5373ZM36.7818 29.7545L36.458 30.9618L36.7818 29.7545ZM37.6881 29.9976L38.012 28.7902L37.6881 29.9976ZM38.5718 30.327L39.1154 29.2014L38.5718 30.327ZM39.0022 30.5349L38.4586 31.6605L39.0022 30.5349ZM39.4327 30.7429L39.9764 29.6173L39.4327 30.7429ZM40.2987 31.1375L40.7914 29.9887L40.2987 31.1375ZM40.7342 31.3243L40.2415 32.4731L40.7342 31.3243ZM41.1697 31.5111L41.6624 30.3623L41.1697 31.5111ZM42.0888 31.7064L42.1108 30.4566L42.0888 31.7064ZM43.0559 31.7234L43.0779 30.4736L43.0559 31.7234ZM43.9841 31.8841L44.3889 30.7015L43.9841 31.8841ZM44.4288 32.0363L44.024 33.219L44.4288 32.0363ZM44.8734 32.1885L45.2782 31.0059L44.8734 32.1885ZM45.7747 32.4491L45.4859 33.6653L45.7747 32.4491ZM46.6878 32.6659L46.3991 33.8821L46.6878 32.6659ZM47.5911 32.9175L47.9729 31.7272L47.5911 32.9175ZM48.0379 33.0608L48.4196 31.8705L48.0379 33.0608ZM48.4846 33.204L48.1029 34.3943L48.4846 33.204ZM49.3545 33.5716L49.9399 32.4671L49.3545 33.5716ZM51.0829 34.3446L51.3495 33.1233L51.0829 34.3446ZM52.0001 34.5448L51.7335 35.766L52.0001 34.5448ZM52.9252 34.7187L53.1205 33.484L52.9252 34.7187ZM53.3917 34.7925L53.1965 36.0271L53.3917 34.7925ZM53.8583 34.8663L53.663 36.1009L53.8583 34.8663ZM54.777 35.0632L54.4484 36.2693L54.777 35.0632ZM55.6815 35.3096L56.01 34.1036L55.6815 35.3096ZM56.603 35.4995L56.4274 36.7371L56.603 35.4995ZM57.0724 35.5661L57.248 34.3285L57.0724 35.5661ZM57.5417 35.6327L57.7174 34.3951L57.5417 35.6327ZM58.417 35.9762L59.1215 34.9437L58.417 35.9762ZM58.8229 36.2532L59.5274 35.2206L58.8229 36.2532ZM59.2288 36.5301L58.5243 37.5627L59.2288 36.5301ZM60.101 36.8849L60.3068 35.6519L60.101 36.8849ZM61.0336 37.0405L61.2394 35.8076L61.0336 37.0405ZM61.9304 37.3128L62.4448 36.1735L61.9304 37.3128ZM62.361 37.5072L62.8754 36.3679L62.361 37.5072ZM62.7916 37.7016L62.2773 38.8409L62.7916 37.7016ZM63.6779 38.01L63.9811 36.7973L63.6779 38.01ZM65.4853 38.5149L65.9194 37.3427L65.4853 38.5149ZM65.9257 38.678L66.3598 37.5058L65.9257 38.678ZM66.3661 38.8411L65.932 40.0133L66.3661 38.8411ZM67.295 39.0148L67.3222 37.7651L67.295 39.0148ZM68.272 39.0361L68.2449 40.2858L68.272 39.0361ZM69.199 39.2139L69.6443 38.0459V38.0459L69.199 39.2139ZM70.0758 39.5482L70.5212 38.3802L70.0758 39.5482ZM70.9622 39.854L71.3318 38.6599L70.9622 39.854ZM71.858 40.1313L72.2275 38.9372L71.858 40.1313ZM72.722 40.5055L73.3378 39.4177L72.722 40.5055ZM73.5543 40.9767L74.1701 39.8889L73.5543 40.9767ZM74.4124 41.3694L74.8311 40.1916L74.4124 41.3694ZM74.8544 41.5266L75.2731 40.3487L74.8544 41.5266ZM75.2965 41.6837L74.8778 42.8615L75.2965 41.6837ZM76.2014 41.9358L76.4527 40.7114V40.7114L76.2014 41.9358ZM76.6642 42.0308L76.4128 43.2553L76.6642 42.0308ZM77.1271 42.1259L76.8757 43.3503L77.1271 42.1259ZM78.0495 42.3243L77.775 43.5438L78.0495 42.3243ZM78.509 42.4277L78.7834 41.2082L78.509 42.4277ZM78.9685 42.5311L78.694 43.7506L78.9685 42.5311ZM79.848 42.8555L80.4299 41.7492L79.848 42.8555ZM80.2679 43.0764L79.6859 44.1827L80.2679 43.0764ZM80.6878 43.2973L81.2698 42.191L80.6878 43.2973ZM81.5582 43.6505L81.206 44.8499L81.5582 43.6505ZM82.4592 43.915L82.107 45.1144L82.4592 43.915ZM83.3447 44.2244L82.8735 45.3822L83.3447 44.2244ZM84.2149 44.5785L84.6861 43.4207L84.2149 44.5785ZM85.0698 44.9739L84.4932 46.0829L85.0698 44.9739ZM85.9094 45.4104L86.4861 44.3013L85.9094 45.4104ZM86.8068 45.6844L86.9518 44.4429L86.8068 45.6844ZM87.7619 45.796L87.617 47.0375L87.7619 45.796ZM88.6738 46.0297L89.1478 44.8731L88.6738 46.0297ZM89.1081 46.2077L89.5821 45.0511L89.1081 46.2077ZM89.5424 46.3857L89.0684 47.5423V47.5423L89.5424 46.3857ZM90.3998 46.7726L89.8463 47.8934L90.3998 46.7726ZM92.1483 47.4536L92.2887 46.2115L92.1483 47.4536ZM92.6276 47.5078L92.7679 46.2657L92.6276 47.5078ZM93.1068 47.5619L92.9665 48.804L93.1068 47.5619ZM94.0131 47.8134L93.4886 48.9481L94.0131 47.8134ZM94.4401 48.0108L94.9646 46.8762L94.4401 48.0108ZM94.8671 48.2082L94.3426 49.3428L94.8671 48.2082ZM95.7315 48.5746L95.2809 49.7406L95.7315 48.5746ZM96.169 48.7436L96.6195 47.5777L96.169 48.7436ZM96.6064 48.9127L96.1558 50.0786L96.6064 48.9127ZM97.4399 49.3614L96.7189 50.3825L97.4399 49.3614ZM97.836 49.6411L97.115 50.6622L97.836 49.6411ZM98.2322 49.9209L98.9532 48.8998L98.2322 49.9209ZM99.0678 50.3631L99.5014 49.1908L99.0678 50.3631ZM99.5072 50.5257L99.0736 51.6981L99.5072 50.5257ZM99.9467 50.6883L99.5131 51.8606L99.9467 50.6883ZM100.865 50.9088L101.015 49.6678L100.865 50.9088ZM101.823 51.0246L101.673 52.2656V52.2656L101.823 51.0246ZM102.753 51.2161L102.398 52.4146L102.753 51.2161ZM103.204 51.3496L103.559 50.1511L103.204 51.3496ZM103.655 51.4831L104.01 50.2846L103.655 51.4831ZM104.493 51.9179L105.261 50.9315L104.493 51.9179ZM105.267 52.5204L106.035 51.534L105.267 52.5204ZM106.117 52.9223L106.382 51.7008L106.117 52.9223ZM107.043 53.1237L107.308 51.9022L107.043 53.1237ZM107.958 53.3547L107.612 54.5559L107.958 53.3547ZM108.411 53.485L108.757 52.2838L108.411 53.485ZM108.863 53.6153L108.517 54.8165L108.863 53.6153ZM109.711 54.0245L108.99 55.0457L109.711 54.0245ZM110.106 54.3034L110.827 53.2822L110.106 54.3034ZM110.501 54.5823L111.222 53.5611L110.501 54.5823ZM111.378 54.9124L111.51 53.6694L111.378 54.9124ZM111.861 54.9636L111.729 56.2066L111.861 54.9636ZM112.344 55.0148L112.475 53.7718L112.344 55.0148ZM113.262 55.2382L112.802 56.4007L113.262 55.2382ZM114.133 55.5826L114.593 54.4201L114.133 55.5826ZM114.963 56.0361L115.689 55.0189L114.963 56.0361ZM115.75 56.5988L115.024 57.616L115.75 56.5988ZM116.642 56.8939L116.677 55.6444L116.642 56.8939ZM117.639 56.9215L117.604 58.171L117.639 56.9215ZM118.549 57.1689L119.166 56.0816L118.549 57.1689ZM118.961 57.4026L118.344 58.4899L118.961 57.4026ZM119.373 57.6363L118.756 58.7236L119.373 57.6363ZM120.688 58.134L120.337 59.3338L120.688 58.134ZM121.14 58.266L121.49 57.0662L121.14 58.266ZM121.973 58.706L122.758 57.7328L121.973 58.706ZM122.737 59.3218L121.953 60.295L122.737 59.3218ZM123.585 59.7273L123.841 58.5038L123.585 59.7273ZM124.517 59.9224L124.261 61.1458L124.517 59.9224ZM125.426 60.1748L125.839 58.9948L125.426 60.1748ZM125.869 60.3297L125.457 61.5097L125.869 60.3297ZM126.313 60.4846L125.9 61.6646L126.313 60.4846ZM127.187 60.8237L127.678 59.6741L127.187 60.8237ZM128.05 61.1921L128.541 60.0425L128.05 61.1921ZM128.895 61.6076L129.506 60.5172L128.895 61.6076ZM129.307 61.8388L128.696 62.9293L129.307 61.8388ZM129.72 62.0701L129.109 63.1605L129.72 62.0701ZM130.605 62.3796L130.401 63.6128L130.605 62.3796ZM131.078 62.4578L130.874 63.6911L131.078 62.4578ZM131.551 62.5361L131.755 61.3028L131.551 62.5361ZM132.463 62.7781L132.026 63.9492L132.463 62.7781ZM132.902 62.9419L133.339 61.7708L132.902 62.9419ZM134.228 63.4101L134.602 62.2175L134.228 63.4101ZM135.124 63.6913L134.75 64.884L135.124 63.6913ZM135.945 64.162L136.773 63.2255L135.945 64.162ZM136.692 64.822L135.864 65.7585L136.692 64.822ZM137.538 65.2316L137.745 63.9988L137.538 65.2316ZM138.484 65.3905L138.277 66.6232L138.484 65.3905ZM139.419 65.5749L139.143 66.7939L139.419 65.5749ZM139.882 65.6797L140.158 64.4607L139.882 65.6797ZM140.345 65.7846L140.621 64.5656L140.345 65.7846ZM141.236 66.0808L141.745 64.9395L141.236 66.0808ZM141.664 66.2721L142.174 65.1308L141.664 66.2721ZM142.092 66.4634L141.582 67.6047L142.092 66.4634ZM142.937 66.8749L142.353 67.9801L142.937 66.8749ZM143.77 67.3154L144.355 66.2102L143.77 67.3154ZM144.649 67.6429L144.366 68.8605L144.649 67.6429ZM145.573 67.8576L145.291 69.0751L145.573 67.8576ZM146.43 68.2474L147.158 67.2312L146.43 68.2474ZM147.218 68.8124L146.491 69.8286L147.218 68.8124ZM148.046 69.2765L148.529 68.1237L148.046 69.2765ZM148.912 69.6397L148.429 70.7925L148.912 69.6397ZM149.782 69.9887L149.336 71.1561L149.782 69.9887ZM150.657 70.3234L151.104 69.156L150.657 70.3234ZM151.525 70.678L151.026 71.8242L151.525 70.678ZM151.955 70.8653L152.454 69.7191L151.955 70.8653ZM152.385 71.0525L152.884 69.9064L152.385 71.0525ZM153.274 71.3533L153.575 70.1398L153.274 71.3533ZM153.733 71.4667L154.033 70.2533L153.733 71.4667ZM154.192 71.5802L153.892 72.7936L154.192 71.5802ZM155.134 71.7349L155.241 70.4894L155.134 71.7349ZM155.618 71.7762L155.724 70.5307L155.618 71.7762ZM156.101 71.8174L155.994 73.0629L156.101 71.8174ZM157.434 72.2578L157.965 71.1264L157.434 72.2578ZM157.859 72.4574L157.327 73.5888L157.859 72.4574ZM158.71 72.855L158.185 73.989L158.71 72.855ZM159.565 73.2511L160.09 72.1171L159.565 73.2511ZM160.458 73.5326L160.678 72.3021L160.458 73.5326ZM161.392 73.6995L161.172 74.93L161.392 73.6995ZM162.306 73.9197L162.671 72.7244L162.306 73.9197ZM163.2 74.1933L162.835 75.3886L163.2 74.1933ZM164.088 74.4911L164.517 73.3174L164.088 74.4911ZM164.527 74.6522L164.097 75.826V75.826L164.527 74.6522ZM164.967 74.8133L165.397 73.6396L164.967 74.8133ZM165.841 75.161L166.335 74.0127L165.841 75.161ZM166.708 75.5341L166.214 76.6824L166.708 75.5341ZM168.465 76.2372L168.011 77.4016L168.465 76.2372ZM169.371 76.4844L169.171 77.7184V77.7184L169.371 76.4844ZM170.299 76.6345L170.499 75.4005V75.4005L170.299 76.6345ZM171.021 76.7226L170.957 77.971L171.021 76.7226ZM171.534 76.7489L171.598 75.5005L171.534 76.7489ZM171.792 76.7608L173.01 77.0403L171.792 76.7608ZM171.792 76.7595L173.01 77.039L173.272 75.896L172.148 75.5615L171.792 76.7595ZM171.696 76.731L172.022 75.5241L171.339 77.929L171.696 76.731ZM171.467 77.9639C172.133 78.1437 172.82 77.7492 172.999 77.0826C173.179 76.4161 172.785 75.73 172.118 75.5502L171.792 76.757L171.467 77.9639ZM1.25009 23.6406L1.12516 24.8844L1.22466 24.8944L1.34959 23.6506L1.47453 22.4069L1.37503 22.3969L1.25009 23.6406ZM1.34959 23.6506L1.46596 24.8952L2.35837 24.8118L2.242 23.5672L2.12564 22.3226L1.23322 22.4061L1.34959 23.6506ZM2.242 23.5672L2.35837 24.8118C2.9329 24.7581 3.29774 24.7522 3.49702 24.7692L3.60321 23.5237L3.70939 22.2782C3.28362 22.2419 2.74099 22.2651 2.12564 22.3226L2.242 23.5672ZM3.60321 23.5237L3.49702 24.7692L3.96581 24.8092L4.072 23.5637L4.17819 22.3182L3.70939 22.2782L3.60321 23.5237ZM4.072 23.5637L3.96581 24.8092L4.4346 24.8491L4.54079 23.6037L4.64698 22.3582L4.17819 22.3182L4.072 23.5637ZM4.54079 23.6037L4.4346 24.8491C4.75828 24.8767 5.08257 24.9 5.40747 24.919L5.48023 23.6711L5.553 22.4232C5.25036 22.4055 4.94835 22.3839 4.64698 22.3582L4.54079 23.6037ZM5.48023 23.6711L5.40747 24.919L5.87811 24.9464L5.95088 23.6985L6.02365 22.4506L5.553 22.4232L5.48023 23.6711ZM5.95088 23.6985L5.87811 24.9464L6.34876 24.9738L6.42153 23.726L6.49429 22.4781L6.02365 22.4506L5.95088 23.6985ZM6.42153 23.726L6.34876 24.9738C6.58348 24.9875 6.81483 25.0232 7.04385 25.0811L7.35032 23.8693L7.65678 22.6574C7.27495 22.5609 6.88711 22.501 6.49429 22.4781L6.42153 23.726ZM7.35032 23.8693L7.04385 25.0811L7.50199 25.197L7.80845 23.9851L8.11492 22.7733L7.65678 22.6574L7.35032 23.8693ZM7.80845 23.9851L7.50199 25.197L7.96013 25.3128L8.26659 24.101L8.57306 22.8891L8.11492 22.7733L7.80845 23.9851ZM8.26659 24.101L7.96013 25.3128C8.2742 25.3923 8.58848 25.4682 8.90297 25.5405L9.18332 24.3224L9.46366 23.1042C9.1667 23.0359 8.86983 22.9642 8.57306 22.8891L8.26659 24.101ZM9.18332 24.3224L8.90297 25.5405L9.36156 25.6461L9.6419 24.4279L9.92225 23.2098L9.46366 23.1042L9.18332 24.3224ZM9.6419 24.4279L9.36156 25.6461L9.82015 25.7516L10.1005 24.5335L10.3808 23.3153L9.92225 23.2098L9.6419 24.4279ZM10.1005 24.5335L9.82015 25.7516C10.1832 25.8352 10.5503 25.8928 10.9209 25.9242L11.0267 24.6787L11.1325 23.4332C10.8797 23.4117 10.6293 23.3725 10.3808 23.3153L10.1005 24.5335ZM11.0267 24.6787L10.9209 25.9242L11.3886 25.964L11.4944 24.7184L11.6002 23.4729L11.1325 23.4332L11.0267 24.6787ZM11.4944 24.7184L11.3886 25.964L11.8562 26.0037L11.962 24.7582L12.0678 23.5126L11.6002 23.4729L11.4944 24.7184ZM11.962 24.7582L11.8562 26.0037C12.2038 26.0332 12.5536 26.0478 12.9057 26.0478L12.9053 24.7978L12.905 23.5478C12.6228 23.5478 12.3438 23.5361 12.0678 23.5126L11.962 24.7582ZM12.9053 24.7978L12.9057 26.0478L13.3813 26.0476L13.381 24.7976L13.3806 23.5476L12.905 23.5478L12.9053 24.7978ZM13.381 24.7976L13.3813 26.0476L13.857 26.0475L13.8566 24.7975L13.8563 23.5475L13.3806 23.5476L13.381 24.7976ZM13.8566 24.7975L13.857 26.0475C13.9699 26.0474 14.0797 26.072 14.2005 26.1337L14.7692 25.0205L15.3378 23.9074C14.8761 23.6715 14.3775 23.5473 13.8563 23.5475L13.8566 24.7975ZM14.7692 25.0205L14.2005 26.1337L14.6374 26.3569L15.2061 25.2437L15.7747 24.1305L15.3378 23.9074L14.7692 25.0205ZM15.2061 25.2437L14.6374 26.3569L15.0743 26.5801L15.643 25.4669L16.2116 24.3537L15.7747 24.1305L15.2061 25.2437ZM15.643 25.4669L15.0743 26.5801C15.4755 26.785 15.8987 26.9271 16.3408 26.9995L16.543 25.766L16.7451 24.5324C16.5698 24.5037 16.393 24.4464 16.2116 24.3537L15.643 25.4669ZM16.543 25.766L16.3408 26.9995L16.8039 27.0754L17.0061 25.8419L17.2082 24.6083L16.7451 24.5324L16.543 25.766ZM17.0061 25.8419L16.8039 27.0754L17.267 27.1513L17.4692 25.9178L17.6713 24.6842L17.2082 24.6083L17.0061 25.8419ZM17.4692 25.9178L17.267 27.1513C17.5516 27.1979 17.8339 27.2528 18.1138 27.3158L18.3883 26.0963L18.6627 24.8767C18.3346 24.8029 18.0042 24.7388 17.6713 24.6842L17.4692 25.9178ZM18.3883 26.0963L18.1138 27.3158L18.5698 27.4184L18.8442 26.1989L19.1187 24.9794L18.6627 24.8767L18.3883 26.0963ZM18.8442 26.1989L18.5698 27.4184L19.0258 27.521L19.3002 26.3015L19.5747 25.082L19.1187 24.9794L18.8442 26.1989ZM19.3002 26.3015L19.0258 27.521C19.3817 27.6011 19.7423 27.6584 20.1072 27.6931L20.2256 26.4487L20.344 25.2044C20.0831 25.1795 19.8268 25.1387 19.5747 25.082L19.3002 26.3015ZM20.2256 26.4487L20.1072 27.6931L20.5766 27.7378L20.695 26.4934L20.8134 25.249L20.344 25.2044L20.2256 26.4487ZM20.695 26.4934L20.5766 27.7378L21.046 27.7824L21.1644 26.5381L21.2828 25.2937L20.8134 25.249L20.695 26.4934ZM21.1644 26.5381L21.046 27.7824C21.3004 27.8066 21.5501 27.8485 21.7957 27.9078L22.0892 26.6927L22.3827 25.4777C22.0211 25.3903 21.6544 25.329 21.2828 25.2937L21.1644 26.5381ZM22.0892 26.6927L21.7957 27.9078L22.251 28.0178L22.5445 26.8027L22.838 25.5876L22.3827 25.4777L22.0892 26.6927ZM22.5445 26.8027L22.251 28.0178L22.7064 28.1277L22.9999 26.9127L23.2934 25.6976L22.838 25.5876L22.5445 26.8027ZM22.9999 26.9127L22.7064 28.1277C23.109 28.225 23.52 28.2726 23.9371 28.2721L23.9355 27.0221L23.934 25.7721C23.7106 25.7724 23.4979 25.747 23.2934 25.6976L22.9999 26.9127ZM23.9355 27.0221L23.9371 28.2721L24.4174 28.2715L24.4158 27.0215L24.4143 25.7715L23.934 25.7721L23.9355 27.0221ZM24.4158 27.0215L24.4174 28.2715L24.8977 28.2709L24.8961 27.0209L24.8945 25.7709L24.4143 25.7715L24.4158 27.0215ZM24.8961 27.0209L24.8977 28.2709C25.123 28.2706 25.3385 28.2956 25.5465 28.3447L25.8334 27.1281L26.1203 25.9114C25.719 25.8168 25.3096 25.7704 24.8945 25.7709L24.8961 27.0209ZM25.8334 27.1281L25.5465 28.3447L26.0035 28.4525L26.2904 27.2358L26.5773 26.0192L26.1203 25.9114L25.8334 27.1281ZM26.2904 27.2358L26.0035 28.4525L26.4605 28.5602L26.7474 27.3436L27.0344 26.127L26.5773 26.0192L26.2904 27.2358ZM26.7474 27.3436L26.4605 28.5602C26.6934 28.6151 26.9222 28.6907 27.1479 28.7878L27.6418 27.6395L28.1358 26.4913C27.7783 26.3375 27.4109 26.2158 27.0344 26.127L26.7474 27.3436ZM27.6418 27.6395L27.1479 28.7878L27.5852 28.9759L28.0792 27.8277L28.5731 26.6794L28.1358 26.4913L27.6418 27.6395ZM28.0792 27.8277L27.5852 28.9759L28.0226 29.1641L28.5166 28.0158L29.0105 26.8676L28.5731 26.6794L28.0792 27.8277ZM28.5166 28.0158L28.0226 29.1641C28.4295 29.3391 28.8549 29.4504 29.2951 29.4961L29.4242 28.2528L29.5533 27.0095C29.3664 26.9901 29.1868 26.9434 29.0105 26.8676L28.5166 28.0158ZM29.4242 28.2528L29.2951 29.4961L29.7653 29.5449L29.8944 28.3016L30.0236 27.0583L29.5533 27.0095L29.4242 28.2528ZM29.8944 28.3016L29.7653 29.5449L30.2356 29.5938L30.3647 28.3505L30.4938 27.1072L30.0236 27.0583L29.8944 28.3016ZM30.3647 28.3505L30.2356 29.5938C30.4853 29.6197 30.73 29.6645 30.9705 29.728L31.2896 28.5194L31.6088 27.3108C31.243 27.2142 30.8711 27.1463 30.4938 27.1072L30.3647 28.3505ZM31.2896 28.5194L30.9705 29.728L31.4252 29.848L31.7443 28.6395L32.0635 27.4309L31.6088 27.3108L31.2896 28.5194ZM31.7443 28.6395L31.4252 29.848L31.8798 29.9681L32.199 28.7595L32.5182 27.551L32.0635 27.4309L31.7443 28.6395ZM32.199 28.7595L31.8798 29.9681C32.2067 30.0544 32.5354 30.1309 32.866 30.1976L33.1132 28.9723L33.3603 27.747C33.0782 27.6901 32.7975 27.6248 32.5182 27.551L32.199 28.7595ZM33.1132 28.9723L32.866 30.1976L33.3255 30.2903L33.5726 29.065L33.8198 27.8397L33.3603 27.747L33.1132 28.9723ZM33.5726 29.065L33.3255 30.2903L33.7849 30.383L34.0321 29.1577L34.2793 27.9324L33.8198 27.8397L33.5726 29.065ZM34.0321 29.1577L33.7849 30.383C34.0887 30.4443 34.3924 30.5065 34.696 30.5697L34.9509 29.346L35.2057 28.1223C34.897 28.058 34.5882 27.9947 34.2793 27.9324L34.0321 29.1577ZM34.9509 29.346L34.696 30.5697L35.1553 30.6654L35.4101 29.4416L35.665 28.2179L35.2057 28.1223L34.9509 29.346ZM35.4101 29.4416L35.1553 30.6654L35.6145 30.761L35.8694 29.5373L36.1242 28.3135L35.665 28.2179L35.4101 29.4416ZM35.8694 29.5373L35.6145 30.761C35.8976 30.82 36.1787 30.8869 36.458 30.9618L36.7818 29.7545L37.1056 28.5471C36.7807 28.46 36.4536 28.3821 36.1242 28.3135L35.8694 29.5373ZM36.7818 29.7545L36.458 30.9618L36.9112 31.0833L37.235 29.876L37.5588 28.6687L37.1056 28.5471L36.7818 29.7545ZM37.235 29.876L36.9112 31.0833L37.3643 31.2049L37.6881 29.9976L38.012 28.7902L37.5588 28.6687L37.235 29.876ZM37.6881 29.9976L37.3643 31.2049C37.5893 31.2652 37.8104 31.3474 38.0281 31.4526L38.5718 30.327L39.1154 29.2014C38.7592 29.0294 38.3912 28.8919 38.012 28.7902L37.6881 29.9976ZM38.5718 30.327L38.0281 31.4526L38.4586 31.6605L39.0022 30.5349L39.5459 29.4094L39.1154 29.2014L38.5718 30.327ZM39.0022 30.5349L38.4586 31.6605L38.8891 31.8684L39.4327 30.7429L39.9764 29.6173L39.5459 29.4094L39.0022 30.5349ZM39.4327 30.7429L38.8891 31.8684C39.1927 32.0151 39.4983 32.1544 39.806 32.2863L40.2987 31.1375L40.7914 29.9887C40.5183 29.8716 40.2467 29.7478 39.9764 29.6173L39.4327 30.7429ZM40.2987 31.1375L39.806 32.2863L40.2415 32.4731L40.7342 31.3243L41.2269 30.1755L40.7914 29.9887L40.2987 31.1375ZM40.7342 31.3243L40.2415 32.4731L40.677 32.6599L41.1697 31.5111L41.6624 30.3623L41.2269 30.1755L40.7342 31.3243ZM41.1697 31.5111L40.677 32.6599C41.1193 32.8496 41.5859 32.9477 42.0668 32.9562L42.0888 31.7064L42.1108 30.4566C41.9469 30.4537 41.8007 30.4216 41.6624 30.3623L41.1697 31.5111ZM42.0888 31.7064L42.0668 32.9562L42.5504 32.9647L42.5724 31.7149L42.5943 30.4651L42.1108 30.4566L42.0888 31.7064ZM42.5724 31.7149L42.5504 32.9647L43.0339 32.9732L43.0559 31.7234L43.0779 30.4736L42.5943 30.4651L42.5724 31.7149ZM43.0559 31.7234L43.0339 32.9732C43.2298 32.9767 43.4098 33.0087 43.5793 33.0668L43.9841 31.8841L44.3889 30.7015C43.9656 30.5566 43.5268 30.4815 43.0779 30.4736L43.0559 31.7234ZM43.9841 31.8841L43.5793 33.0668L44.024 33.219L44.4288 32.0363L44.8336 30.8537L44.3889 30.7015L43.9841 31.8841ZM44.4288 32.0363L44.024 33.219L44.4686 33.3712L44.8734 32.1885L45.2782 31.0059L44.8336 30.8537L44.4288 32.0363ZM44.8734 32.1885L44.4686 33.3712C44.8031 33.4856 45.1423 33.5837 45.4859 33.6653L45.7747 32.4491L46.0634 31.2329C45.7982 31.17 45.5366 31.0943 45.2782 31.0059L44.8734 32.1885ZM45.7747 32.4491L45.4859 33.6653L45.9425 33.7737L46.2312 32.5575L46.52 31.3413L46.0634 31.2329L45.7747 32.4491ZM46.2312 32.5575L45.9425 33.7737L46.3991 33.8821L46.6878 32.6659L46.9765 31.4497L46.52 31.3413L46.2312 32.5575ZM46.6878 32.6659L46.3991 33.8821C46.6722 33.9469 46.9423 34.0221 47.2094 34.1078L47.5911 32.9175L47.9729 31.7272C47.6444 31.6219 47.3123 31.5294 46.9765 31.4497L46.6878 32.6659ZM47.5911 32.9175L47.2094 34.1078L47.6561 34.2511L48.0379 33.0608L48.4196 31.8705L47.9729 31.7272L47.5911 32.9175ZM48.0379 33.0608L47.6561 34.2511L48.1029 34.3943L48.4846 33.204L48.8663 32.0137L48.4196 31.8705L48.0379 33.0608ZM48.4846 33.204L48.1029 34.3943C48.3289 34.4668 48.5509 34.5604 48.7692 34.6761L49.3545 33.5716L49.9399 32.4671C49.5939 32.2837 49.2358 32.1323 48.8663 32.0137L48.4846 33.204ZM49.3545 33.5716L48.7692 34.6761L49.1925 34.9004L49.7778 33.7959L50.3631 32.6914L49.9399 32.4671L49.3545 33.5716ZM49.7778 33.7959L49.1925 34.9004L49.6157 35.1247L50.201 34.0202L50.7863 32.9157L50.3631 32.6914L49.7778 33.7959ZM50.201 34.0202L49.6157 35.1247C49.9962 35.3263 50.3972 35.4743 50.8163 35.5658L51.0829 34.3446L51.3495 33.1233C51.157 33.0813 50.9701 33.0131 50.7863 32.9157L50.201 34.0202ZM51.0829 34.3446L50.8163 35.5658L51.2749 35.6659L51.5415 34.4447L51.8081 33.2235L51.3495 33.1233L51.0829 34.3446ZM51.5415 34.4447L51.2749 35.6659L51.7335 35.766L52.0001 34.5448L52.2667 33.3236L51.8081 33.2235L51.5415 34.4447ZM52.0001 34.5448L51.7335 35.766C52.063 35.838 52.3952 35.9004 52.73 35.9534L52.9252 34.7187L53.1205 33.484C52.8332 33.4386 52.5486 33.3851 52.2667 33.3236L52.0001 34.5448ZM52.9252 34.7187L52.73 35.9534L53.1965 36.0271L53.3917 34.7925L53.587 33.5578L53.1205 33.484L52.9252 34.7187ZM53.3917 34.7925L53.1965 36.0271L53.663 36.1009L53.8583 34.8663L54.0535 33.6316L53.587 33.5578L53.3917 34.7925ZM53.8583 34.8663L53.663 36.1009C53.9294 36.143 54.1912 36.1992 54.4484 36.2693L54.777 35.0632L55.1056 33.8572C54.7599 33.763 54.4091 33.6878 54.0535 33.6316L53.8583 34.8663ZM54.777 35.0632L54.4484 36.2693L54.9007 36.3925L55.2292 35.1864L55.5578 33.9804L55.1056 33.8572L54.777 35.0632ZM55.2292 35.1864L54.9007 36.3925L55.3529 36.5157L55.6815 35.3096L56.01 34.1036L55.5578 33.9804L55.2292 35.1864ZM55.6815 35.3096L55.3529 36.5157C55.7052 36.6117 56.0635 36.6854 56.4274 36.7371L56.603 35.4995L56.7787 34.2619C56.5168 34.2247 56.2607 34.1719 56.01 34.1036L55.6815 35.3096ZM56.603 35.4995L56.4274 36.7371L56.8967 36.8037L57.0724 35.5661L57.248 34.3285L56.7787 34.2619L56.603 35.4995ZM57.0724 35.5661L56.8967 36.8037L57.3661 36.8703L57.5417 35.6327L57.7174 34.3951L57.248 34.3285L57.0724 35.5661ZM57.5417 35.6327L57.3661 36.8703C57.4823 36.8868 57.5942 36.9281 57.7125 37.0088L58.417 35.9762L59.1215 34.9437C58.6986 34.6552 58.227 34.4674 57.7174 34.3951L57.5417 35.6327ZM58.417 35.9762L57.7125 37.0088L58.1184 37.2857L58.8229 36.2532L59.5274 35.2206L59.1215 34.9437L58.417 35.9762ZM58.8229 36.2532L58.1184 37.2857L58.5243 37.5627L59.2288 36.5301L59.9333 35.4975L59.5274 35.2206L58.8229 36.2532ZM59.2288 36.5301L58.5243 37.5627C58.9386 37.8453 59.3984 38.0349 59.8952 38.1178L60.101 36.8849L60.3068 35.6519C60.1818 35.6311 60.0602 35.5841 59.9333 35.4975L59.2288 36.5301ZM60.101 36.8849L59.8952 38.1178L60.3615 38.1956L60.5673 36.9627L60.7731 35.7298L60.3068 35.6519L60.101 36.8849ZM60.5673 36.9627L60.3615 38.1956L60.8277 38.2735L61.0336 37.0405L61.2394 35.8076L60.7731 35.7298L60.5673 36.9627ZM61.0336 37.0405L60.8277 38.2735C61.0322 38.3076 61.2275 38.3669 61.4161 38.4521L61.9304 37.3128L62.4448 36.1735C62.0593 35.9995 61.6566 35.8773 61.2394 35.8076L61.0336 37.0405ZM61.9304 37.3128L61.4161 38.4521L61.8467 38.6465L62.361 37.5072L62.8754 36.3679L62.4448 36.1735L61.9304 37.3128ZM62.361 37.5072L61.8467 38.6465L62.2773 38.8409L62.7916 37.7016L63.306 36.5623L62.8754 36.3679L62.361 37.5072ZM62.7916 37.7016L62.2773 38.8409C62.632 39.001 62.998 39.1284 63.3746 39.2226L63.6779 38.01L63.9811 36.7973C63.7502 36.7396 63.5254 36.6614 63.306 36.5623L62.7916 37.7016ZM63.6779 38.01L63.3746 39.2226L63.8303 39.3366L64.1335 38.1239L64.4368 36.9113L63.9811 36.7973L63.6779 38.01ZM64.1335 38.1239L63.8303 39.3366L64.2859 39.4505L64.5892 38.2379L64.8925 37.0252L64.4368 36.9113L64.1335 38.1239ZM64.5892 38.2379L64.2859 39.4505C64.5454 39.5154 64.8004 39.5943 65.0512 39.6871L65.4853 38.5149L65.9194 37.3427C65.5829 37.2181 65.2405 37.1123 64.8925 37.0252L64.5892 38.2379ZM65.4853 38.5149L65.0512 39.6871L65.4916 39.8502L65.9257 38.678L66.3598 37.5058L65.9194 37.3427L65.4853 38.5149ZM65.9257 38.678L65.4916 39.8502L65.932 40.0133L66.3661 38.8411L66.8002 37.6689L66.3598 37.5058L65.9257 38.678ZM66.3661 38.8411L65.932 40.0133C66.3612 40.1723 66.8089 40.2546 67.2679 40.2645L67.295 39.0148L67.3222 37.7651C67.1299 37.7609 66.9582 37.7274 66.8002 37.6689L66.3661 38.8411ZM67.295 39.0148L67.2679 40.2645L67.7564 40.2751L67.7835 39.0254L67.8107 37.7757L67.3222 37.7651L67.295 39.0148ZM67.7835 39.0254L67.7564 40.2751L68.2449 40.2858L68.272 39.0361L68.2992 37.7864L67.8107 37.7757L67.7835 39.0254ZM68.272 39.0361L68.2449 40.2858C68.4334 40.2899 68.6005 40.3234 68.7536 40.3818L69.199 39.2139L69.6443 38.0459C69.2128 37.8814 68.7619 37.7964 68.2992 37.7864L68.272 39.0361ZM69.199 39.2139L68.7536 40.3818L69.1921 40.549L69.6374 39.381L70.0828 38.2131L69.6443 38.0459L69.199 39.2139ZM69.6374 39.381L69.1921 40.549L69.6305 40.7162L70.0758 39.5482L70.5212 38.3802L70.0828 38.2131L69.6374 39.381ZM70.0758 39.5482L69.6305 40.7162C69.9477 40.8371 70.2685 40.9478 70.5926 41.0481L70.9622 39.854L71.3318 38.6599C71.0587 38.5754 70.7886 38.4822 70.5212 38.3802L70.0758 39.5482ZM70.9622 39.854L70.5926 41.0481L71.0405 41.1868L71.4101 39.9926L71.7797 38.7985L71.3318 38.6599L70.9622 39.854ZM71.4101 39.9926L71.0405 41.1868L71.4884 41.3254L71.858 40.1313L72.2275 38.9372L71.7797 38.7985L71.4101 39.9926ZM71.858 40.1313L71.4884 41.3254C71.6996 41.3908 71.9052 41.4795 72.1061 41.5933L72.722 40.5055L73.3378 39.4177C72.9839 39.2174 72.6135 39.0566 72.2275 38.9372L71.858 40.1313ZM72.722 40.5055L72.1061 41.5933L72.5223 41.8289L73.1381 40.7411L73.754 39.6533L73.3378 39.4177L72.722 40.5055ZM73.1381 40.7411L72.5223 41.8289L72.9384 42.0645L73.5543 40.9767L74.1701 39.8889L73.754 39.6533L73.1381 40.7411ZM73.5543 40.9767L72.9384 42.0645C73.2776 42.2565 73.6295 42.4178 73.9938 42.5472L74.4124 41.3694L74.8311 40.1916C74.6059 40.1116 74.3858 40.011 74.1701 39.8889L73.5543 40.9767ZM74.4124 41.3694L73.9938 42.5472L74.4358 42.7044L74.8544 41.5266L75.2731 40.3487L74.8311 40.1916L74.4124 41.3694ZM74.8544 41.5266L74.4358 42.7044L74.8778 42.8615L75.2965 41.6837L75.7151 40.5059L75.2731 40.3487L74.8544 41.5266ZM75.2965 41.6837L74.8778 42.8615C75.2275 42.9858 75.5851 43.0854 75.95 43.1603L76.2014 41.9358L76.4527 40.7114C76.2005 40.6596 75.9548 40.5911 75.7151 40.5059L75.2965 41.6837ZM76.2014 41.9358L75.95 43.1603L76.4128 43.2553L76.6642 42.0308L76.9156 40.8064L76.4527 40.7114L76.2014 41.9358ZM76.6642 42.0308L76.4128 43.2553L76.8757 43.3503L77.1271 42.1259L77.3784 40.9014L76.9156 40.8064L76.6642 42.0308ZM77.1271 42.1259L76.8757 43.3503C77.1766 43.4121 77.4763 43.4766 77.775 43.5438L78.0495 42.3243L78.3239 41.1048C78.0099 41.0341 77.6947 40.9663 77.3784 40.9014L77.1271 42.1259ZM78.0495 42.3243L77.775 43.5438L78.2345 43.6472L78.509 42.4277L78.7834 41.2082L78.3239 41.1048L78.0495 42.3243ZM78.509 42.4277L78.2345 43.6472L78.694 43.7506L78.9685 42.5311L79.243 41.3116L78.7834 41.2082L78.509 42.4277ZM78.9685 42.5311L78.694 43.7506C78.8926 43.7953 79.0824 43.8652 79.266 43.9617L79.848 42.8555L80.4299 41.7492C80.0536 41.5512 79.6571 41.4049 79.243 41.3116L78.9685 42.5311ZM79.848 42.8555L79.266 43.9617L79.6859 44.1827L80.2679 43.0764L80.8499 41.9701L80.4299 41.7492L79.848 42.8555ZM80.2679 43.0764L79.6859 44.1827L80.1058 44.4036L80.6878 43.2973L81.2698 42.191L80.8499 41.9701L80.2679 43.0764ZM80.6878 43.2973L80.1058 44.4036C80.4583 44.589 80.8254 44.7381 81.206 44.8499L81.5582 43.6505L81.9104 42.4511C81.6904 42.3865 81.4772 42.3002 81.2698 42.191L80.6878 43.2973ZM81.5582 43.6505L81.206 44.8499L81.6565 44.9821L82.0087 43.7828L82.3609 42.5834L81.9104 42.4511L81.5582 43.6505ZM82.0087 43.7828L81.6565 44.9821L82.107 45.1144L82.4592 43.915L82.8113 42.7157L82.3609 42.5834L82.0087 43.7828ZM82.4592 43.915L82.107 45.1144C82.3669 45.1907 82.6224 45.28 82.8735 45.3822L83.3447 44.2244L83.8159 43.0666C83.4869 42.9327 83.152 42.8157 82.8113 42.7157L82.4592 43.915ZM83.3447 44.2244L82.8735 45.3822L83.3086 45.5592L83.7798 44.4015L84.251 43.2437L83.8159 43.0666L83.3447 44.2244ZM83.7798 44.4015L83.3086 45.5592L83.7437 45.7363L84.2149 44.5785L84.6861 43.4207L84.251 43.2437L83.7798 44.4015ZM84.2149 44.5785L83.7437 45.7363C83.9976 45.8397 84.2474 45.9552 84.4932 46.0829L85.0698 44.9739L85.6464 43.8648C85.3324 43.7016 85.0123 43.5535 84.6861 43.4207L84.2149 44.5785ZM85.0698 44.9739L84.4932 46.0829L84.913 46.3012L85.4896 45.1921L86.0662 44.0831L85.6464 43.8648L85.0698 44.9739ZM85.4896 45.1921L84.913 46.3012L85.3328 46.5195L85.9094 45.4104L86.4861 44.3013L86.0662 44.0831L85.4896 45.1921ZM85.9094 45.4104L85.3328 46.5195C85.7496 46.7361 86.1952 46.8715 86.6619 46.926L86.8068 45.6844L86.9518 44.4429C86.7817 44.423 86.6291 44.3757 86.4861 44.3013L85.9094 45.4104ZM86.8068 45.6844L86.6619 46.926L87.1394 46.9818L87.2844 45.7402L87.4294 44.4986L86.9518 44.4429L86.8068 45.6844ZM87.2844 45.7402L87.1394 46.9818L87.617 47.0375L87.7619 45.796L87.9069 44.5544L87.4294 44.4986L87.2844 45.7402ZM87.7619 45.796L87.617 47.0375C87.8251 47.0618 88.0181 47.1119 88.1998 47.1864L88.6738 46.0297L89.1478 44.8731C88.7504 44.7102 88.3355 44.6045 87.9069 44.5544L87.7619 45.796ZM88.6738 46.0297L88.1998 47.1864L88.6341 47.3643L89.1081 46.2077L89.5821 45.0511L89.1478 44.8731L88.6738 46.0297ZM89.1081 46.2077L88.6341 47.3643L89.0684 47.5423L89.5424 46.3857L90.0164 45.229L89.5821 45.0511L89.1081 46.2077ZM89.5424 46.3857L89.0684 47.5423C89.3309 47.6499 89.5902 47.7669 89.8463 47.8934L90.3998 46.7726L90.9533 45.6519C90.6454 45.4997 90.3331 45.3588 90.0164 45.229L89.5424 46.3857ZM90.3998 46.7726L89.8463 47.8934L90.2694 48.1023L90.8229 46.9816L91.3764 45.8608L90.9533 45.6519L90.3998 46.7726ZM90.8229 46.9816L90.2694 48.1023L90.6925 48.3113L91.246 47.1905L91.7995 46.0697L91.3764 45.8608L90.8229 46.9816ZM91.246 47.1905L90.6925 48.3113C91.1071 48.516 91.548 48.6437 92.008 48.6957L92.1483 47.4536L92.2887 46.2115C92.1096 46.1913 91.949 46.1436 91.7995 46.0697L91.246 47.1905ZM92.1483 47.4536L92.008 48.6957L92.4872 48.7498L92.6276 47.5078L92.7679 46.2657L92.2887 46.2115L92.1483 47.4536ZM92.6276 47.5078L92.4872 48.7498L92.9665 48.804L93.1068 47.5619L93.2472 46.3198L92.7679 46.2657L92.6276 47.5078ZM93.1068 47.5619L92.9665 48.804C93.1564 48.8255 93.3285 48.8741 93.4886 48.9481L94.0131 47.8134L94.5376 46.6788C94.1284 46.4896 93.6962 46.3705 93.2472 46.3198L93.1068 47.5619ZM94.0131 47.8134L93.4886 48.9481L93.9156 49.1454L94.4401 48.0108L94.9646 46.8762L94.5376 46.6788L94.0131 47.8134ZM94.4401 48.0108L93.9156 49.1454L94.3426 49.3428L94.8671 48.2082L95.3916 47.0735L94.9646 46.8762L94.4401 48.0108ZM94.8671 48.2082L94.3426 49.3428C94.6515 49.4856 94.9643 49.6182 95.2809 49.7406L95.7315 48.5746L96.1821 47.4086C95.9155 47.3056 95.652 47.1939 95.3916 47.0735L94.8671 48.2082ZM95.7315 48.5746L95.2809 49.7406L95.7184 49.9096L96.169 48.7436L96.6195 47.5777L96.1821 47.4086L95.7315 48.5746ZM96.169 48.7436L95.7184 49.9096L96.1558 50.0786L96.6064 48.9127L97.057 47.7467L96.6195 47.5777L96.169 48.7436ZM96.6064 48.9127L96.1558 50.0786C96.3485 50.1531 96.5358 50.2532 96.7189 50.3825L97.4399 49.3614L98.161 48.3403C97.8159 48.0967 97.4476 47.8977 97.057 47.7467L96.6064 48.9127ZM97.4399 49.3614L96.7189 50.3825L97.115 50.6622L97.836 49.6411L98.5571 48.6201L98.161 48.3403L97.4399 49.3614ZM97.836 49.6411L97.115 50.6622L97.5111 50.9419L98.2322 49.9209L98.9532 48.8998L98.5571 48.6201L97.836 49.6411ZM98.2322 49.9209L97.5111 50.9419C97.8609 51.1889 98.2356 51.3881 98.6341 51.5355L99.0678 50.3631L99.5014 49.1908C99.3139 49.1214 99.1316 49.0257 98.9532 48.8998L98.2322 49.9209ZM99.0678 50.3631L98.6341 51.5355L99.0736 51.6981L99.5072 50.5257L99.9409 49.3533L99.5014 49.1908L99.0678 50.3631ZM99.5072 50.5257L99.0736 51.6981L99.5131 51.8606L99.9467 50.6883L100.38 49.5159L99.9409 49.3533L99.5072 50.5257ZM99.9467 50.6883L99.5131 51.8606C99.9003 52.0039 100.302 52.0997 100.715 52.1497L100.865 50.9088L101.015 49.6678C100.79 49.6406 100.579 49.5894 100.38 49.5159L99.9467 50.6883ZM100.865 50.9088L100.715 52.1497L101.194 52.2077L101.344 50.9667L101.494 49.7257L101.015 49.6678L100.865 50.9088ZM101.344 50.9667L101.194 52.2077L101.673 52.2656L101.823 51.0246L101.974 49.7837L101.494 49.7257L101.344 50.9667ZM101.823 51.0246L101.673 52.2656C101.925 52.296 102.167 52.346 102.398 52.4146L102.753 51.2161L103.108 50.0175C102.739 49.9082 102.36 49.8305 101.974 49.7837L101.823 51.0246ZM102.753 51.2161L102.398 52.4146L102.849 52.5481L103.204 51.3496L103.559 50.1511L103.108 50.0175L102.753 51.2161ZM103.204 51.3496L102.849 52.5481L103.3 52.6817L103.655 51.4831L104.01 50.2846L103.559 50.1511L103.204 51.3496ZM103.655 51.4831L103.3 52.6817C103.445 52.7245 103.585 52.7951 103.725 52.9043L104.493 51.9179L105.261 50.9315C104.885 50.639 104.467 50.4198 104.01 50.2846L103.655 51.4831ZM104.493 51.9179L103.725 52.9043L104.112 53.2055L104.88 52.2191L105.648 51.2328L105.261 50.9315L104.493 51.9179ZM104.88 52.2191L104.112 53.2055L104.499 53.5067L105.267 52.5204L106.035 51.534L105.648 51.2328L104.88 52.2191ZM105.267 52.5204L104.499 53.5067C104.899 53.8184 105.353 54.0355 105.851 54.1438L106.117 52.9223L106.382 51.7008C106.263 51.6749 106.15 51.624 106.035 51.534L105.267 52.5204ZM106.117 52.9223L105.851 54.1438L106.314 54.2444L106.58 53.023L106.845 51.8015L106.382 51.7008L106.117 52.9223ZM106.58 53.023L106.314 54.2444L106.777 54.3451L107.043 53.1237L107.308 51.9022L106.845 51.8015L106.58 53.023ZM107.043 53.1237L106.777 54.3451C107.059 54.4064 107.338 54.4767 107.612 54.5559L107.958 53.3547L108.304 52.1535C107.976 52.059 107.644 51.9752 107.308 51.9022L107.043 53.1237ZM107.958 53.3547L107.612 54.5559L108.065 54.6862L108.411 53.485L108.757 52.2838L108.304 52.1535L107.958 53.3547ZM108.411 53.485L108.065 54.6862L108.517 54.8165L108.863 53.6153L109.209 52.4141L108.757 52.2838L108.411 53.485ZM108.863 53.6153L108.517 54.8165C108.681 54.8636 108.837 54.938 108.99 55.0457L109.711 54.0245L110.431 53.0033C110.057 52.7391 109.648 52.5407 109.209 52.4141L108.863 53.6153ZM109.711 54.0245L108.99 55.0457L109.385 55.3246L110.106 54.3034L110.827 53.2822L110.431 53.0033L109.711 54.0245ZM110.106 54.3034L109.385 55.3246L109.78 55.6035L110.501 54.5823L111.222 53.5611L110.827 53.2822L110.106 54.3034ZM110.501 54.5823L109.78 55.6035C110.218 55.9129 110.714 56.0989 111.247 56.1554L111.378 54.9124L111.51 53.6694C111.4 53.6577 111.31 53.6236 111.222 53.5611L110.501 54.5823ZM111.378 54.9124L111.247 56.1554L111.729 56.2066L111.861 54.9636L111.993 53.7206L111.51 53.6694L111.378 54.9124ZM111.861 54.9636L111.729 56.2066L112.212 56.2578L112.344 55.0148L112.475 53.7718L111.993 53.7206L111.861 54.9636ZM112.344 55.0148L112.212 56.2578C112.425 56.2805 112.621 56.3289 112.802 56.4007L113.262 55.2382L113.721 54.0757C113.322 53.9179 112.905 53.8174 112.475 53.7718L112.344 55.0148ZM113.262 55.2382L112.802 56.4007L113.238 56.5729L113.697 55.4104L114.157 54.2479L113.721 54.0757L113.262 55.2382ZM113.697 55.4104L113.238 56.5729L113.674 56.745L114.133 55.5826L114.593 54.4201L114.157 54.2479L113.697 55.4104ZM114.133 55.5826L113.674 56.745C113.866 56.8212 114.053 56.9229 114.236 57.0533L114.963 56.0361L115.689 55.0189C115.347 54.7742 114.981 54.5735 114.593 54.4201L114.133 55.5826ZM114.963 56.0361L114.236 57.0533L114.63 57.3346L115.357 56.3175L116.083 55.3003L115.689 55.0189L114.963 56.0361ZM115.357 56.3175L114.63 57.3346L115.024 57.616L115.75 56.5988L116.477 55.5816L116.083 55.3003L115.357 56.3175ZM115.75 56.5988L115.024 57.616C115.495 57.9526 116.035 58.1276 116.608 58.1434L116.642 56.8939L116.677 55.6444C116.586 55.6419 116.531 55.6202 116.477 55.5816L115.75 56.5988ZM116.642 56.8939L116.608 58.1434L117.106 58.1572L117.141 56.9077L117.175 55.6582L116.677 55.6444L116.642 56.8939ZM117.141 56.9077L117.106 58.1572L117.604 58.171L117.639 56.9215L117.673 55.672L117.175 55.6582L117.141 56.9077ZM117.639 56.9215L117.604 58.171C117.743 58.1748 117.845 58.2066 117.932 58.2563L118.549 57.1689L119.166 56.0816C118.704 55.8197 118.199 55.6865 117.673 55.672L117.639 56.9215ZM118.549 57.1689L117.932 58.2563L118.344 58.4899L118.961 57.4026L119.578 56.3153L119.166 56.0816L118.549 57.1689ZM118.961 57.4026L118.344 58.4899L118.756 58.7236L119.373 57.6363L119.99 56.549L119.578 56.3153L118.961 57.4026ZM119.373 57.6363L118.756 58.7236C119.115 58.9267 119.492 59.0865 119.886 59.2018L120.237 58.002L120.587 56.8022C120.38 56.7415 120.181 56.6575 119.99 56.549L119.373 57.6363ZM120.237 58.002L119.886 59.2018L120.337 59.3338L120.688 58.134L121.039 56.9342L120.587 56.8022L120.237 58.002ZM120.688 58.134L120.337 59.3338L120.789 59.4658L121.14 58.266L121.49 57.0662L121.039 56.9342L120.688 58.134ZM121.14 58.266L120.789 59.4658C120.925 59.5056 121.057 59.5727 121.189 59.6791L121.973 58.706L122.758 57.7328C122.38 57.4286 121.956 57.2024 121.49 57.0662L121.14 58.266ZM121.973 58.706L121.189 59.6791L121.571 59.9871L122.355 59.0139L123.14 58.0407L122.758 57.7328L121.973 58.706ZM122.355 59.0139L121.571 59.9871L121.953 60.295L122.737 59.3218L123.522 58.3486L123.14 58.0407L122.355 59.0139ZM122.737 59.3218L121.953 60.295C122.356 60.6204 122.819 60.844 123.329 60.9508L123.585 59.7273L123.841 58.5038C123.73 58.4805 123.627 58.4338 123.522 58.3486L122.737 59.3218ZM123.585 59.7273L123.329 60.9508L123.795 61.0483L124.051 59.8248L124.307 58.6013L123.841 58.5038L123.585 59.7273ZM124.051 59.8248L123.795 61.0483L124.261 61.1458L124.517 59.9224L124.773 58.6989L124.307 58.6013L124.051 59.8248ZM124.517 59.9224L124.261 61.1458C124.519 61.1999 124.77 61.2696 125.014 61.3548L125.426 60.1748L125.839 58.9948C125.491 58.8734 125.136 58.7748 124.773 58.6989L124.517 59.9224ZM125.426 60.1748L125.014 61.3548L125.457 61.5097L125.869 60.3297L126.282 59.1496L125.839 58.9948L125.426 60.1748ZM125.869 60.3297L125.457 61.5097L125.9 61.6646L126.313 60.4846L126.725 59.3045L126.282 59.1496L125.869 60.3297ZM126.313 60.4846L125.9 61.6646C126.169 61.7586 126.435 61.8615 126.697 61.9733L127.187 60.8237L127.678 59.6741C127.365 59.5402 127.047 59.417 126.725 59.3045L126.313 60.4846ZM127.187 60.8237L126.697 61.9733L127.128 62.1575L127.619 61.0079L128.11 59.8583L127.678 59.6741L127.187 60.8237ZM127.619 61.0079L127.128 62.1575L127.56 62.3417L128.05 61.1921L128.541 60.0425L128.11 59.8583L127.619 61.0079ZM128.05 61.1921L127.56 62.3417C127.806 62.4468 128.047 62.5655 128.283 62.698L128.895 61.6076L129.506 60.5172C129.192 60.3413 128.87 60.183 128.541 60.0425L128.05 61.1921ZM128.895 61.6076L128.283 62.698L128.696 62.9293L129.307 61.8388L129.918 60.7484L129.506 60.5172L128.895 61.6076ZM129.307 61.8388L128.696 62.9293L129.109 63.1605L129.72 62.0701L130.331 60.9797L129.918 60.7484L129.307 61.8388ZM129.72 62.0701L129.109 63.1605C129.512 63.3865 129.945 63.5374 130.401 63.6128L130.605 62.3796L130.809 61.1464C130.635 61.1175 130.478 61.0621 130.331 60.9797L129.72 62.0701ZM130.605 62.3796L130.401 63.6128L130.874 63.6911L131.078 62.4578L131.282 61.2246L130.809 61.1464L130.605 62.3796ZM131.078 62.4578L130.874 63.6911L131.347 63.7693L131.551 62.5361L131.755 61.3028L131.282 61.2246L131.078 62.4578ZM131.551 62.5361L131.347 63.7693C131.585 63.8086 131.811 63.8688 132.026 63.9492L132.463 62.7781L132.9 61.607C132.53 61.469 132.148 61.3678 131.755 61.3028L131.551 62.5361ZM132.463 62.7781L132.026 63.9492L132.465 64.113L132.902 62.9419L133.339 61.7708L132.9 61.607L132.463 62.7781ZM132.902 62.9419L132.465 64.113L132.904 64.2768L133.341 63.1057L133.778 61.9346L133.339 61.7708L132.902 62.9419ZM133.341 63.1057L132.904 64.2768C133.217 64.3938 133.534 64.5024 133.854 64.6028L134.228 63.4101L134.602 62.2175C134.325 62.1304 134.05 62.0361 133.778 61.9346L133.341 63.1057ZM134.228 63.4101L133.854 64.6028L134.302 64.7434L134.676 63.5507L135.05 62.3581L134.602 62.2175L134.228 63.4101ZM134.676 63.5507L134.302 64.7434L134.75 64.884L135.124 63.6913L135.498 62.4987L135.05 62.3581L134.676 63.5507ZM135.124 63.6913L134.75 64.884C134.871 64.9219 134.992 64.9875 135.117 65.0984L135.945 64.162L136.773 63.2255C136.401 62.8964 135.975 62.6482 135.498 62.4987L135.124 63.6913ZM135.945 64.162L135.117 65.0984L135.491 65.4285L136.319 64.492L137.146 63.5555L136.773 63.2255L135.945 64.162ZM136.319 64.492L135.491 65.4285L135.864 65.7585L136.692 64.822L137.52 63.8855L137.146 63.5555L136.319 64.492ZM136.692 64.822L135.864 65.7585C136.281 66.1271 136.776 66.371 137.331 66.4643L137.538 65.2316L137.745 63.9988C137.67 63.9862 137.601 63.9571 137.52 63.8855L136.692 64.822ZM137.538 65.2316L137.331 66.4643L137.804 66.5437L138.011 65.311L138.218 64.0783L137.745 63.9988L137.538 65.2316ZM138.011 65.311L137.804 66.5437L138.277 66.6232L138.484 65.3905L138.691 64.1578L138.218 64.0783L138.011 65.311ZM138.484 65.3905L138.277 66.6232C138.569 66.6723 138.858 66.7293 139.143 66.7939L139.419 65.5749L139.696 64.3558C139.364 64.2806 139.029 64.2146 138.691 64.1578L138.484 65.3905ZM139.419 65.5749L139.143 66.7939L139.606 66.8988L139.882 65.6797L140.158 64.4607L139.696 64.3558L139.419 65.5749ZM139.882 65.6797L139.606 66.8988L140.068 67.0037L140.345 65.7846L140.621 64.5656L140.158 64.4607L139.882 65.6797ZM140.345 65.7846L140.068 67.0037C140.297 67.0556 140.516 67.1285 140.726 67.2221L141.236 66.0808L141.745 64.9395C141.384 64.778 141.009 64.6534 140.621 64.5656L140.345 65.7846ZM141.236 66.0808L140.726 67.2221L141.154 67.4134L141.664 66.2721L142.174 65.1308L141.745 64.9395L141.236 66.0808ZM141.664 66.2721L141.154 67.4134L141.582 67.6047L142.092 66.4634L142.602 65.3221L142.174 65.1308L141.664 66.2721ZM142.092 66.4634L141.582 67.6047C141.843 67.721 142.099 67.846 142.353 67.9801L142.937 66.8749L143.521 65.7697C143.219 65.6101 142.913 65.4609 142.602 65.3221L142.092 66.4634ZM142.937 66.8749L142.353 67.9801L142.77 68.2003L143.354 67.0951L143.938 65.99L143.521 65.7697L142.937 66.8749ZM143.354 67.0951L142.77 68.2003L143.186 68.4205L143.77 67.3154L144.355 66.2102L143.938 65.99L143.354 67.0951ZM143.77 67.3154L143.186 68.4205C143.56 68.6179 143.954 68.7647 144.366 68.8605L144.649 67.6429L144.932 66.4253C144.728 66.378 144.537 66.3064 144.355 66.2102L143.77 67.3154ZM144.649 67.6429L144.366 68.8605L144.828 68.9678L145.111 67.7502L145.394 66.5326L144.932 66.4253L144.649 67.6429ZM145.111 67.7502L144.828 68.9678L145.291 69.0751L145.573 67.8576L145.856 66.64L145.394 66.5326L145.111 67.7502ZM145.573 67.8576L145.291 69.0751C145.435 69.1086 145.569 69.1687 145.702 69.2635L146.43 68.2474L147.158 67.2312C146.764 66.9493 146.328 66.7496 145.856 66.64L145.573 67.8576ZM146.43 68.2474L145.702 69.2635L146.096 69.546L146.824 68.5299L147.552 67.5137L147.158 67.2312L146.43 68.2474ZM146.824 68.5299L146.096 69.546L146.491 69.8286L147.218 68.8124L147.946 67.7962L147.552 67.5137L146.824 68.5299ZM147.218 68.8124L146.491 69.8286C146.827 70.0696 147.185 70.2708 147.563 70.4293L148.046 69.2765L148.529 68.1237C148.33 68.0401 148.136 67.9318 147.946 67.7962L147.218 68.8124ZM148.046 69.2765L147.563 70.4293L147.996 70.6108L148.479 69.4581L148.962 68.3053L148.529 68.1237L148.046 69.2765ZM148.479 69.4581L147.996 70.6108L148.429 70.7925L148.912 69.6397L149.395 68.4869L148.962 68.3053L148.479 69.4581ZM148.912 69.6397L148.429 70.7925C148.73 70.9186 149.032 71.0398 149.336 71.1561L149.782 69.9887L150.229 68.8212C149.95 68.7144 149.672 68.6029 149.395 68.4869L148.912 69.6397ZM149.782 69.9887L149.336 71.1561L149.773 71.3234L150.22 70.156L150.667 68.9886L150.229 68.8212L149.782 69.9887ZM150.22 70.156L149.773 71.3234L150.21 71.4908L150.657 70.3234L151.104 69.156L150.667 68.9886L150.22 70.156ZM150.657 70.3234L150.21 71.4908C150.484 71.5957 150.756 71.7068 151.026 71.8242L151.525 70.678L152.023 69.5318C151.719 69.3996 151.413 69.2743 151.104 69.156L150.657 70.3234ZM151.525 70.678L151.026 71.8242L151.456 72.0115L151.955 70.8653L152.454 69.7191L152.023 69.5318L151.525 70.678ZM151.955 70.8653L151.456 72.0115L151.887 72.1987L152.385 71.0525L152.884 69.9064L152.454 69.7191L151.955 70.8653ZM152.385 71.0525L151.887 72.1987C152.238 72.3517 152.601 72.4744 152.974 72.5667L153.274 71.3533L153.575 70.1398C153.336 70.0809 153.106 70.0031 152.884 69.9064L152.385 71.0525ZM153.274 71.3533L152.974 72.5667L153.433 72.6802L153.733 71.4667L154.033 70.2533L153.575 70.1398L153.274 71.3533ZM153.733 71.4667L153.433 72.6802L153.892 72.7936L154.192 71.5802L154.492 70.3667L154.033 70.2533L153.733 71.4667ZM154.192 71.5802L153.892 72.7936C154.263 72.8854 154.642 72.9474 155.028 72.9804L155.134 71.7349L155.241 70.4894C154.982 70.4673 154.733 70.4262 154.492 70.3667L154.192 71.5802ZM155.134 71.7349L155.028 72.9804L155.511 73.0216L155.618 71.7762L155.724 70.5307L155.241 70.4894L155.134 71.7349ZM155.618 71.7762L155.511 73.0216L155.994 73.0629L156.101 71.8174L156.207 70.5719L155.724 70.5307L155.618 71.7762ZM156.101 71.8174L155.994 73.0629C156.174 73.0782 156.333 73.1216 156.477 73.1896L157.009 72.0582L157.54 70.9269C157.119 70.7288 156.672 70.6116 156.207 70.5719L156.101 71.8174ZM157.009 72.0582L156.477 73.1896L156.902 73.3892L157.434 72.2578L157.965 71.1264L157.54 70.9269L157.009 72.0582ZM157.434 72.2578L156.902 73.3892L157.327 73.5888L157.859 72.4574L158.39 71.326L157.965 71.1264L157.434 72.2578ZM157.859 72.4574L157.327 73.5888C157.612 73.7227 157.898 73.8561 158.185 73.989L158.71 72.855L159.236 71.721C158.954 71.5899 158.671 71.4582 158.39 71.326L157.859 72.4574ZM158.71 72.855L158.185 73.989L158.612 74.187L159.137 73.0531L159.663 71.9191L159.236 71.721L158.71 72.855ZM159.137 73.0531L158.612 74.187L159.039 74.3851L159.565 73.2511L160.09 72.1171L159.663 71.9191L159.137 73.0531ZM159.565 73.2511L159.039 74.3851C159.421 74.5626 159.822 74.6887 160.238 74.7631L160.458 73.5326L160.678 72.3021C160.472 72.2652 160.277 72.2036 160.09 72.1171L159.565 73.2511ZM160.458 73.5326L160.238 74.7631L160.705 74.8466L160.925 73.6161L161.145 72.3856L160.678 72.3021L160.458 73.5326ZM160.925 73.6161L160.705 74.8466L161.172 74.93L161.392 73.6995L161.612 72.469L161.145 72.3856L160.925 73.6161ZM161.392 73.6995L161.172 74.93C161.435 74.977 161.691 75.0387 161.94 75.1151L162.306 73.9197L162.671 72.7244C162.325 72.6184 161.972 72.5333 161.612 72.469L161.392 73.6995ZM162.306 73.9197L161.94 75.1151L162.388 75.2519L162.753 74.0565L163.119 72.8611L162.671 72.7244L162.306 73.9197ZM162.753 74.0565L162.388 75.2519L162.835 75.3886L163.2 74.1933L163.566 72.9979L163.119 72.8611L162.753 74.0565ZM163.2 74.1933L162.835 75.3886C163.111 75.4732 163.386 75.5652 163.658 75.6649L164.088 74.4911L164.517 73.3174C164.203 73.2022 163.886 73.0957 163.566 72.9979L163.2 74.1933ZM164.088 74.4911L163.658 75.6649L164.097 75.826L164.527 74.6522L164.957 73.4785L164.517 73.3174L164.088 74.4911ZM164.527 74.6522L164.097 75.826L164.537 75.9871L164.967 74.8133L165.397 73.6396L164.957 73.4785L164.527 74.6522ZM164.967 74.8133L164.537 75.9871C164.809 76.0865 165.079 76.1939 165.347 76.3092L165.841 75.161L166.335 74.0127C166.025 73.8793 165.712 73.7549 165.397 73.6396L164.967 74.8133ZM165.841 75.161L165.347 76.3092L165.781 76.4958L166.275 75.3475L166.768 74.1992L166.335 74.0127L165.841 75.161ZM166.275 75.3475L165.781 76.4958L166.214 76.6824L166.708 75.5341L167.202 74.3858L166.768 74.1992L166.275 75.3475ZM166.708 75.5341L166.214 76.6824C166.517 76.8123 166.821 76.9373 167.129 77.0572L167.583 75.8928L168.038 74.7284C167.757 74.6187 167.478 74.5045 167.202 74.3858L166.708 75.5341ZM167.583 75.8928L167.129 77.0572L167.57 77.2294L168.024 76.065L168.479 74.9006L168.038 74.7284L167.583 75.8928ZM168.024 76.065L167.57 77.2294L168.011 77.4016L168.465 76.2372L168.92 75.0728L168.479 74.9006L168.024 76.065ZM168.465 76.2372L168.011 77.4016C168.387 77.5484 168.774 77.6543 169.171 77.7184L169.371 76.4844L169.57 75.2504C169.348 75.2146 169.132 75.1557 168.92 75.0728L168.465 76.2372ZM169.371 76.4844L169.171 77.7184L169.636 77.7935L169.835 76.5595L170.034 75.3254L169.57 75.2504L169.371 76.4844ZM169.835 76.5595L169.636 77.7935L170.1 77.8685L170.299 76.6345L170.499 75.4005L170.034 75.3254L169.835 76.5595ZM170.299 76.6345L170.1 77.8685C170.424 77.9208 170.717 77.9587 170.957 77.971L171.021 76.7226L171.085 75.4743C170.981 75.469 170.794 75.4481 170.499 75.4005L170.299 76.6345ZM171.021 76.7226L170.957 77.971L171.214 77.9841L171.278 76.7358L171.341 75.4874L171.085 75.4743L171.021 76.7226ZM171.278 76.7358L171.214 77.9841L171.471 77.9973L171.534 76.7489L171.598 75.5005L171.341 75.4874L171.278 76.7358ZM171.534 76.7489L171.471 77.9973C171.557 78.0017 171.623 78.005 171.669 78.0071C171.692 78.0082 171.713 78.0091 171.73 78.0097C171.737 78.01 171.751 78.0105 171.767 78.0107C171.772 78.0108 171.792 78.0112 171.818 78.0106C171.826 78.0104 171.864 78.0097 171.912 78.005C171.929 78.0034 171.998 77.9968 172.084 77.9763C172.12 77.9676 172.226 77.9412 172.35 77.8791C172.389 77.8599 172.873 77.6358 173.01 77.0403L171.792 76.7608L170.573 76.4813C170.646 76.1631 170.822 75.9554 170.94 75.8458C171.057 75.7366 171.17 75.674 171.233 75.6425C171.357 75.5804 171.463 75.5541 171.5 75.5454C171.585 75.5248 171.654 75.5183 171.67 75.5167C171.718 75.5121 171.756 75.5114 171.763 75.5112C171.788 75.5107 171.806 75.511 171.809 75.5111C171.818 75.5112 171.824 75.5115 171.821 75.5114C171.817 75.5112 171.805 75.5107 171.785 75.5098C171.745 75.508 171.684 75.5049 171.598 75.5005L171.534 76.7489ZM171.792 76.7608L173.01 77.0403L173.01 77.039L171.792 76.7595L170.574 76.4801L170.573 76.4813L171.792 76.7608ZM171.792 76.7595L172.148 75.5615L172.053 75.5329L171.696 76.731L171.339 77.929L171.435 77.9576L171.792 76.7595ZM171.696 76.731L171.37 77.9378L171.467 77.9639L171.792 76.757L172.118 75.5502L172.022 75.5241L171.696 76.731Z" fill="#232323"/>
<path id="Vector 225" d="M27.9531 47.8637C27.2756 47.7309 26.6188 48.1725 26.486 48.85C26.3533 49.5274 26.7949 50.1843 27.4723 50.317L27.7127 49.0903L27.9531 47.8637ZM27.8108 49.1096L27.5705 50.3362L27.6233 50.3466L27.6769 50.3524L27.8108 49.1096ZM30.9933 49.3525L30.9466 50.6016L30.9933 49.3525ZM31.8937 49.6246L31.253 50.6979L31.8937 49.6246ZM32.3197 49.879L32.9605 48.8057L32.3197 49.879ZM32.7458 50.1333L32.1051 51.2066L32.7458 50.1333ZM33.6331 50.4671L33.4209 51.699L33.6331 50.4671ZM34.5555 50.626L34.7677 49.3942L34.5555 50.626ZM35.5068 50.6606L35.6208 51.9054L35.5068 50.6606ZM36.4871 50.5709L36.3732 49.3261L36.4871 50.5709ZM37.4104 50.7394L37.9628 49.6181L37.4104 50.7394ZM37.8435 50.9528L37.291 52.0741L37.8435 50.9528ZM39.1548 51.5323L39.5605 50.35L39.1548 51.5323ZM40.045 51.8378L40.4507 50.6555L40.045 51.8378ZM40.9505 52.0845L40.7004 53.3093L40.9505 52.0845ZM41.4108 52.1785L41.6608 50.9538L41.4108 52.1785ZM41.8712 52.2725L41.6211 53.4972L41.8712 52.2725ZM43.2731 52.4437L43.1708 53.6896L43.2731 52.4437ZM43.7439 52.4824L43.8461 51.2366L43.7439 52.4824ZM44.6508 52.7116L45.1514 51.5662L44.6508 52.7116ZM45.5232 53.0928L46.0237 51.9474L45.5232 53.0928ZM46.451 53.2448L46.353 51.9986L46.451 53.2448ZM46.9425 53.2061L47.0405 54.4523L46.9425 53.2061ZM47.4341 53.1675L47.3362 51.9213L47.4341 53.1675ZM48.3805 53.2434L48.075 54.4555L48.3805 53.2434ZM48.8353 53.3581L48.5298 54.5702L48.8353 53.3581ZM49.2901 53.4727L49.5956 52.2606L49.2901 53.4727ZM51.9832 54.3207L51.3635 55.4063L51.9832 54.3207ZM52.8301 54.8042L52.2103 55.8898L52.8301 54.8042ZM53.7401 55.035L53.7683 56.2847L53.7401 55.035ZM55.6336 55.1975L55.1201 56.3372L55.6336 55.1975ZM56.0673 55.3929L56.5808 54.2533L56.0673 55.3929ZM56.5011 55.5884L55.9876 56.728L56.5011 55.5884ZM57.4012 55.8522L57.2199 57.0889L57.4012 55.8522ZM58.3339 55.9889L58.5152 54.7521L58.3339 55.9889ZM59.2655 56.131L59.4614 54.8965L59.2655 56.131ZM60.1958 56.2787L59.9999 57.5132L60.1958 56.2787ZM61.1079 56.4958L61.4894 55.3054L61.1079 56.4958ZM61.5549 56.639L61.9364 55.4486L61.5549 56.639ZM62.0018 56.7822L61.6203 57.9726L62.0018 56.7822ZM62.896 57.0676L62.5175 58.2589L62.896 57.0676ZM63.7906 57.3519L64.1692 56.1606L63.7906 57.3519ZM64.6844 57.6395L64.2972 58.828L64.6844 57.6395ZM65.5774 57.9304L65.9647 56.7419L65.5774 57.9304ZM66.4937 58.137L66.3327 59.3765L66.4937 58.137ZM67.4333 58.259L67.5943 57.0194L67.4333 58.259ZM68.3152 58.592L67.6268 59.6353L68.3152 58.592ZM69.1393 59.1357L68.451 60.1791L69.1393 59.1357ZM70.0054 59.5235L69.6962 60.7347L70.0054 59.5235ZM70.4593 59.6394L70.7685 58.4282L70.4593 59.6394ZM71.818 59.998L71.4793 61.2013L71.818 59.998ZM72.7196 60.2518L72.3809 61.4551L72.7196 60.2518ZM73.6255 60.4913L73.9257 59.2779L73.6255 60.4913ZM74.0806 60.604L74.3809 59.3905L74.0806 60.604ZM74.5358 60.7166L74.2355 61.93L74.5358 60.7166ZM75.4712 60.854L75.5355 59.6056L75.4712 60.854ZM76.4318 60.9035L76.3675 62.1518L76.4318 60.9035ZM77.3577 61.0767L76.9626 62.2626L77.3577 61.0767ZM77.8033 61.2251L78.1984 60.0392L77.8033 61.2251ZM78.2489 61.3736L77.8539 62.5595L78.2489 61.3736ZM79.1621 61.5918L79.3466 60.3555L79.1621 61.5918ZM80.097 61.7314L79.9125 62.9677L80.097 61.7314ZM80.9821 62.0458L80.3503 63.1244L80.9821 62.0458ZM81.3996 62.2904L82.0314 61.2118L81.3996 62.2904ZM81.8171 62.535L81.1853 63.6135L81.8171 62.535ZM82.6828 62.9174L82.3152 64.1122L82.6828 62.9174ZM83.5792 63.1933L83.9468 61.9985L83.5792 63.1933ZM84.4841 63.4394L84.7722 62.223L84.4841 63.4394ZM84.9409 63.5476L85.229 62.3312L84.9409 63.5476ZM85.3977 63.6558L85.1096 64.8721L85.3977 63.6558ZM86.3275 63.8162L86.1903 65.0586L86.3275 63.8162ZM86.8006 63.8685L86.9378 62.626L86.8006 63.8685ZM87.2736 63.9207L87.4108 62.6783L87.2736 63.9207ZM88.1989 64.097L88.5295 62.8915L88.1989 64.097ZM89.1035 64.345L88.7729 65.5505L89.1035 64.345ZM89.974 64.7092L89.3516 65.7932L89.974 64.7092ZM90.8106 65.1895L91.433 64.1055L90.8106 65.1895ZM91.7117 65.4496L91.7633 64.2007L91.7117 65.4496ZM92.1946 65.4696L92.2462 64.2206L92.1946 65.4696ZM92.6776 65.4895L92.626 66.7384V66.7384L92.6776 65.4895ZM93.5927 65.7001L93.0882 66.8438L93.5927 65.7001ZM94.4573 66.0815L94.9618 64.9379L94.4573 66.0815ZM95.3084 66.5086L95.9227 65.4199L95.3084 66.5086ZM95.7272 66.7449L96.3415 65.6562L95.7272 66.7449ZM96.146 66.9812L95.5318 68.0699L96.146 66.9812ZM97.0637 67.1869L97.1404 68.4345L97.0637 67.1869ZM98.0614 67.1256L97.9847 65.8779L98.0614 67.1256ZM98.9803 67.3266L98.3766 68.4212L98.9803 67.3266ZM99.8204 67.79L100.424 66.6954L99.8204 67.79ZM100.678 68.1941L101.136 67.0312L100.678 68.1941ZM101.553 68.5389L101.094 69.7018L101.553 68.5389ZM102.465 68.7606L102.594 67.5173L102.465 68.7606ZM102.939 68.8099L103.068 67.5666V67.5666L102.939 68.8099ZM103.413 68.8592L103.284 70.1025L103.413 68.8592ZM104.306 69.1459L104.923 68.0592L104.306 69.1459ZM105.141 69.6208L105.759 68.5341L105.141 69.6208ZM106.011 69.9836L105.678 71.1882L106.011 69.9836ZM106.464 70.109L106.13 71.3136L106.464 70.109ZM106.916 70.2343L107.25 69.0297L106.916 70.2343ZM107.81 70.5181L108.232 69.3414L107.81 70.5181ZM108.694 70.8348L109.116 69.6581L108.694 70.8348ZM109.612 71.0435L109.48 72.2865L109.612 71.0435ZM110.562 71.1441L110.694 69.901L110.562 71.1441ZM111.475 71.3664L111.933 70.2033L111.475 71.3664ZM111.912 71.5385L111.454 72.7017L111.912 71.5385ZM112.349 71.7106L111.891 72.8738L112.349 71.7106ZM113.226 72.0467L112.789 73.2178L113.226 72.0467ZM114.105 72.3746L113.668 73.5458L114.105 72.3746ZM115.008 72.6266L115.241 71.3985L115.008 72.6266ZM115.935 72.8026L115.702 74.0307L115.935 72.8026ZM116.864 72.9752L116.64 74.205L116.864 72.9752ZM117.794 73.1445L118.018 71.9147L117.794 73.1445ZM118.663 73.5029L117.962 74.5375L118.663 73.5029ZM119.471 74.0504L120.172 73.0159L119.471 74.0504ZM120.318 74.4756L119.914 75.6586L120.318 74.4756ZM120.762 74.627L121.165 73.444L120.762 74.627ZM121.205 74.7784L121.609 73.5954L121.205 74.7784ZM123.004 75.3132L122.664 76.516L123.004 75.3132ZM123.918 75.5389L123.659 76.7618L123.918 75.5389ZM124.38 75.6367L124.122 76.8596V76.8596L124.38 75.6367ZM124.843 75.7346L125.102 74.5116L124.843 75.7346ZM125.73 76.0388L126.276 74.9146L125.73 76.0388ZM126.579 76.4516L126.032 77.5758L126.579 76.4516ZM127.488 76.6939L127.58 75.4473L127.488 76.6939ZM127.972 76.7298L128.065 75.4832L127.972 76.7298ZM128.457 76.7657L128.364 78.0123L128.457 76.7657ZM129.792 77.2007L130.323 76.069L129.792 77.2007ZM130.217 77.4003L129.687 78.532L130.217 77.4003ZM131.082 77.7694L130.631 78.9354L131.082 77.7694ZM131.96 78.1085L132.41 76.9424L131.96 78.1085ZM132.825 78.474L133.347 77.3383L132.825 78.474ZM133.251 78.67L133.773 77.5343L133.251 78.67ZM133.678 78.866L133.156 80.0018L133.678 78.866ZM134.51 79.3129L133.852 80.376L134.51 79.3129ZM134.915 79.5638L135.573 78.5007L134.915 79.5638ZM136.169 80.217L136.574 79.0345L136.169 80.217ZM137.053 80.5199L136.648 81.7025L137.053 80.5199ZM137.924 80.8626L138.434 79.7212L137.924 80.8626ZM139.675 81.5399L139.946 80.3197L139.675 81.5399ZM140.14 81.6432L139.868 82.8634L140.14 81.6432ZM140.605 81.7466L140.876 80.5264L140.605 81.7466ZM141.462 82.1235L142.177 81.0983L141.462 82.1235ZM141.854 82.397L141.139 83.4223L141.854 82.397ZM142.246 82.6706L142.961 81.6453L142.246 82.6706ZM143.11 83.0359L142.871 84.2628L143.11 83.0359ZM144.052 83.2195L144.291 81.9925L144.052 83.2195ZM144.962 83.4779L144.518 84.6464L144.962 83.4779ZM145.401 83.6446L144.957 84.8131L145.401 83.6446ZM145.84 83.8112L145.396 84.9798L145.84 83.8112ZM147.447 84.8082L146.723 85.8271L147.447 84.8082ZM148.292 85.2136L148.632 84.0106L148.292 85.2136ZM149.204 85.4709L149.544 84.2679L149.204 85.4709ZM150.041 85.8967L149.273 86.8824L150.041 85.8967ZM150.803 86.4909L151.572 85.5052L150.803 86.4909ZM151.66 86.8699L151.872 85.638L151.66 86.8699ZM152.135 86.9517L151.923 88.1836L152.135 86.9517ZM153.521 87.2895L153.057 88.45L153.521 87.2895ZM154.391 87.6374L154.855 86.4768L154.391 87.6374ZM155.221 88.085L154.51 89.1129L155.221 88.085ZM156.012 88.6323L155.301 89.6602L156.012 88.6323ZM156.848 89.0685L156.415 90.2412L156.848 89.0685ZM157.729 89.3937L158.162 88.221L157.729 89.3937ZM158.633 89.6544L158.892 88.4314L158.633 89.6544ZM159.562 89.8506L159.303 91.0736L159.562 89.8506ZM160.46 90.1255L160.931 88.9677L160.46 90.1255ZM160.895 90.3023L160.423 91.4601L160.895 90.3023ZM161.329 90.4791L161.8 89.3212L161.329 90.4791ZM162.226 90.7541L162.486 89.5314V89.5314L162.226 90.7541ZM162.688 90.8524L162.428 92.075V92.075L162.688 90.8524ZM163.15 90.9507L162.89 92.1733L163.15 90.9507ZM164.01 91.3328L164.736 90.3152L164.01 91.3328ZM165.69 92.2125L165.617 93.4604L165.69 92.2125ZM166.175 92.2405L166.247 90.9926L166.175 92.2405ZM166.661 92.2686L166.733 91.0207L166.661 92.2686ZM167.587 92.4569L167.159 93.6315L167.587 92.4569ZM168.027 92.6172L168.455 91.4426L168.027 92.6172ZM168.467 92.7775L168.895 91.6029L168.467 92.7775ZM169.317 93.1954L169.983 92.1378L169.317 93.1954ZM169.726 93.4531L169.06 94.5107L169.726 93.4531ZM170.135 93.7107L169.469 94.7684L170.135 93.7107ZM171.035 93.9724L171.046 92.7225L171.035 93.9724ZM171.527 93.9765L171.516 95.2264L171.527 93.9765ZM172.018 93.9805L172.028 92.7305L172.018 93.9805ZM172.951 94.1413L172.533 95.3193L172.951 94.1413ZM173.393 94.2981L172.975 95.4761L173.393 94.2981ZM173.835 94.4548L174.253 93.2768L173.835 94.4548ZM174.329 94.6814L173.326 95.427L174.329 94.6814ZM174.381 94.7513L175.627 94.6499L175.598 94.293L175.384 94.0057L174.381 94.7513ZM174.39 94.8596L173.144 94.9609L173.211 95.7871L173.998 96.0467L174.39 94.8596ZM174.093 96.078C174.749 96.2942 175.455 95.938 175.672 95.2824C175.888 94.6268 175.532 93.92 174.876 93.7038L174.484 94.8909L174.093 96.078ZM27.7127 49.0903L27.4723 50.317L27.5705 50.3362L27.8108 49.1096L28.0512 47.8829L27.9531 47.8637L27.7127 49.0903ZM27.8108 49.1096L27.6769 50.3524L28.5567 50.4472L28.6906 49.2044L28.8246 47.9616L27.9448 47.8668L27.8108 49.1096ZM28.6906 49.2044L28.5567 50.4472C29.152 50.5114 29.6377 50.5527 29.998 50.5661L30.0447 49.317L30.0915 48.0679C29.8194 48.0577 29.4023 48.0239 28.8246 47.9616L28.6906 49.2044ZM30.0447 49.317L29.998 50.5661L30.4723 50.5839L30.519 49.3348L30.5658 48.0856L30.0915 48.0679L30.0447 49.317ZM30.519 49.3348L30.4723 50.5839L30.9466 50.6016L30.9933 49.3525L31.0401 48.1034L30.5658 48.0856L30.519 49.3348ZM30.9933 49.3525L30.9466 50.6016C31.0435 50.6053 31.1405 50.6308 31.253 50.6979L31.8937 49.6246L32.5344 48.5513C32.0787 48.2793 31.5755 48.1234 31.0401 48.1034L30.9933 49.3525ZM31.8937 49.6246L31.253 50.6979L31.679 50.9523L32.3197 49.879L32.9605 48.8057L32.5344 48.5513L31.8937 49.6246ZM32.3197 49.879L31.679 50.9523L32.1051 51.2066L32.7458 50.1333L33.3865 49.06L32.9605 48.8057L32.3197 49.879ZM32.7458 50.1333L32.1051 51.2066C32.513 51.4501 32.9531 51.6184 33.4209 51.699L33.6331 50.4671L33.8453 49.2353C33.6982 49.2099 33.5467 49.1557 33.3865 49.06L32.7458 50.1333ZM33.6331 50.4671L33.4209 51.699L33.8821 51.7784L34.0943 50.5466L34.3065 49.3147L33.8453 49.2353L33.6331 50.4671ZM34.0943 50.5466L33.8821 51.7784L34.3433 51.8579L34.5555 50.626L34.7677 49.3942L34.3065 49.3147L34.0943 50.5466ZM34.5555 50.626L34.3433 51.8579C34.7639 51.9303 35.1908 51.9448 35.6208 51.9054L35.5068 50.6606L35.3929 49.4158C35.1693 49.4363 34.9621 49.4276 34.7677 49.3942L34.5555 50.626ZM35.5068 50.6606L35.6208 51.9054L36.1109 51.8605L35.997 50.6157L35.883 49.3709L35.3929 49.4158L35.5068 50.6606ZM35.997 50.6157L36.1109 51.8605L36.6011 51.8157L36.4871 50.5709L36.3732 49.3261L35.883 49.3709L35.997 50.6157ZM36.4871 50.5709L36.6011 51.8157C36.7033 51.8063 36.7799 51.8222 36.8579 51.8607L37.4104 50.7394L37.9628 49.6181C37.4634 49.372 36.9245 49.2756 36.3732 49.3261L36.4871 50.5709ZM37.4104 50.7394L36.8579 51.8607L37.291 52.0741L37.8435 50.9528L38.3959 49.8315L37.9628 49.6181L37.4104 50.7394ZM37.8435 50.9528L37.291 52.0741L37.7241 52.2875L38.2766 51.1662L38.829 50.0449L38.3959 49.8315L37.8435 50.9528ZM38.2766 51.1662L37.7241 52.2875C38.0592 52.4525 38.4009 52.5951 38.7491 52.7146L39.1548 51.5323L39.5605 50.35C39.3152 50.2658 39.0714 50.1643 38.829 50.0449L38.2766 51.1662ZM39.1548 51.5323L38.7491 52.7146L39.1942 52.8674L39.5999 51.685L40.0056 50.5027L39.5605 50.35L39.1548 51.5323ZM39.5999 51.685L39.1942 52.8674L39.6393 53.0201L40.045 51.8378L40.4507 50.6555L40.0056 50.5027L39.5999 51.685ZM40.045 51.8378L39.6393 53.0201C39.9869 53.1394 40.3407 53.2358 40.7004 53.3093L40.9505 52.0845L41.2005 50.8598C40.9464 50.8079 40.6966 50.7398 40.4507 50.6555L40.045 51.8378ZM40.9505 52.0845L40.7004 53.3093L41.1608 53.4032L41.4108 52.1785L41.6608 50.9538L41.2005 50.8598L40.9505 52.0845ZM41.4108 52.1785L41.1608 53.4032L41.6211 53.4972L41.8712 52.2725L42.1212 51.0477L41.6608 50.9538L41.4108 52.1785ZM41.8712 52.2725L41.6211 53.4972C41.9771 53.5699 42.3368 53.6211 42.7 53.6509L42.8023 52.4051L42.9046 51.1593C42.6401 51.1376 42.379 51.1004 42.1212 51.0477L41.8712 52.2725ZM42.8023 52.4051L42.7 53.6509L43.1708 53.6896L43.2731 52.4437L43.3753 51.1979L42.9046 51.1593L42.8023 52.4051ZM43.2731 52.4437L43.1708 53.6896L43.6416 53.7282L43.7439 52.4824L43.8461 51.2366L43.3753 51.1979L43.2731 52.4437ZM43.7439 52.4824L43.6416 53.7282C43.817 53.7426 43.9849 53.7847 44.1503 53.8571L44.6508 52.7116L45.1514 51.5662C44.7352 51.3844 44.2984 51.2737 43.8461 51.2366L43.7439 52.4824ZM44.6508 52.7116L44.1503 53.8571L44.5865 54.0476L45.087 52.9022L45.5875 51.7568L45.1514 51.5662L44.6508 52.7116ZM45.087 52.9022L44.5865 54.0476L45.0227 54.2382L45.5232 53.0928L46.0237 51.9474L45.5875 51.7568L45.087 52.9022ZM45.5232 53.0928L45.0227 54.2382C45.5086 54.4506 46.0241 54.5322 46.5489 54.4909L46.451 53.2448L46.353 51.9986C46.2224 52.0089 46.1194 51.9892 46.0237 51.9474L45.5232 53.0928ZM46.451 53.2448L46.5489 54.4909L47.0405 54.4523L46.9425 53.2061L46.8446 51.96L46.353 51.9986L46.451 53.2448ZM46.9425 53.2061L47.0405 54.4523L47.5321 54.4136L47.4341 53.1675L47.3362 51.9213L46.8446 51.96L46.9425 53.2061ZM47.4341 53.1675L47.5321 54.4136C47.7314 54.398 47.9102 54.414 48.075 54.4555L48.3805 53.2434L48.686 52.0313C48.2444 51.9201 47.7923 51.8855 47.3362 51.9213L47.4341 53.1675ZM48.3805 53.2434L48.075 54.4555L48.5298 54.5702L48.8353 53.3581L49.1408 52.1459L48.686 52.0313L48.3805 53.2434ZM48.8353 53.3581L48.5298 54.5702L48.9846 54.6848L49.2901 53.4727L49.5956 52.2606L49.1408 52.1459L48.8353 53.3581ZM49.2901 53.4727L48.9846 54.6848C49.2807 54.7594 49.5764 54.8367 49.8717 54.9167L50.1986 53.7102L50.5255 52.5037C50.2159 52.4198 49.9059 52.3388 49.5956 52.2606L49.2901 53.4727ZM50.1986 53.7102L49.8717 54.9167L50.3255 55.0396L50.6523 53.8331L50.9792 52.6266L50.5255 52.5037L50.1986 53.7102ZM50.6523 53.8331L50.3255 55.0396L50.7792 55.1626L51.1061 53.9561L51.4329 52.7496L50.9792 52.6266L50.6523 53.8331ZM51.1061 53.9561L50.7792 55.1626C50.9756 55.2158 51.1698 55.2957 51.3635 55.4063L51.9832 54.3207L52.603 53.2352C52.232 53.0234 51.8416 52.8603 51.4329 52.7496L51.1061 53.9561ZM51.9832 54.3207L51.3635 55.4063L51.7869 55.648L52.4067 54.5625L53.0264 53.477L52.603 53.2352L51.9832 54.3207ZM52.4067 54.5625L51.7869 55.648L52.2103 55.8898L52.8301 54.8042L53.4499 53.7187L53.0264 53.477L52.4067 54.5625ZM52.8301 54.8042L52.2103 55.8898C52.6893 56.1633 53.2166 56.2971 53.7683 56.2847L53.7401 55.035L53.7119 53.7853C53.6148 53.7875 53.5354 53.7676 53.4499 53.7187L52.8301 54.8042ZM53.7401 55.035L53.7683 56.2847L54.2549 56.2737L54.2267 55.024L54.1985 53.7744L53.7119 53.7853L53.7401 55.035ZM54.2267 55.024L54.2549 56.2737L54.7415 56.2627L54.7133 55.0131L54.6851 53.7634L54.1985 53.7744L54.2267 55.024ZM54.7133 55.0131L54.7415 56.2627C54.8838 56.2595 55.005 56.2853 55.1201 56.3372L55.6336 55.1975L56.1471 54.0579C55.6838 53.8491 55.1915 53.7519 54.6851 53.7634L54.7133 55.0131ZM55.6336 55.1975L55.1201 56.3372L55.5538 56.5326L56.0673 55.3929L56.5808 54.2533L56.1471 54.0579L55.6336 55.1975ZM56.0673 55.3929L55.5538 56.5326L55.9876 56.728L56.5011 55.5884L57.0146 54.4487L56.5808 54.2533L56.0673 55.3929ZM56.5011 55.5884L55.9876 56.728C56.3814 56.9055 56.7932 57.0264 57.2199 57.0889L57.4012 55.8522L57.5824 54.6154C57.3873 54.5868 57.199 54.5318 57.0146 54.4487L56.5011 55.5884ZM57.4012 55.8522L57.2199 57.0889L57.6863 57.1573L57.8675 55.9205L58.0488 54.6837L57.5824 54.6154L57.4012 55.8522ZM57.8675 55.9205L57.6863 57.1573L58.1526 57.2257L58.3339 55.9889L58.5152 54.7521L58.0488 54.6837L57.8675 55.9205ZM58.3339 55.9889L58.1526 57.2257C58.4587 57.2705 58.7643 57.3172 59.0695 57.3656L59.2655 56.131L59.4614 54.8965C59.1464 54.8465 58.831 54.7984 58.5152 54.7521L58.3339 55.9889ZM59.2655 56.131L59.0695 57.3656L59.5347 57.4394L59.7306 56.2049L59.9266 54.9703L59.4614 54.8965L59.2655 56.131ZM59.7306 56.2049L59.5347 57.4394L59.9999 57.5132L60.1958 56.2787L60.3918 55.0441L59.9266 54.9703L59.7306 56.2049ZM60.1958 56.2787L59.9999 57.5132C60.2473 57.5525 60.4893 57.6101 60.7264 57.6861L61.1079 56.4958L61.4894 55.3054C61.1306 55.1904 60.7645 55.1033 60.3918 55.0441L60.1958 56.2787ZM61.1079 56.4958L60.7264 57.6861L61.1734 57.8294L61.5549 56.639L61.9364 55.4486L61.4894 55.3054L61.1079 56.4958ZM61.5549 56.639L61.1734 57.8294L61.6203 57.9726L62.0018 56.7822L62.3833 55.5919L61.9364 55.4486L61.5549 56.639ZM62.0018 56.7822L61.6203 57.9726C61.9192 58.0684 62.2183 58.1639 62.5175 58.2589L62.896 57.0676L63.2746 55.8763C62.9774 55.7819 62.6803 55.6871 62.3833 55.5919L62.0018 56.7822ZM62.896 57.0676L62.5175 58.2589L62.9648 58.401L63.3433 57.2097L63.7219 56.0184L63.2746 55.8763L62.896 57.0676ZM63.3433 57.2097L62.9648 58.401L63.4121 58.5432L63.7906 57.3519L64.1692 56.1606L63.7219 56.0184L63.3433 57.2097ZM63.7906 57.3519L63.4121 58.5432C63.7074 58.637 64.0024 58.7319 64.2972 58.828L64.6844 57.6395L65.0717 56.451C64.7711 56.353 64.4703 56.2562 64.1692 56.1606L63.7906 57.3519ZM64.6844 57.6395L64.2972 58.828L64.7437 58.9735L65.1309 57.785L65.5182 56.5964L65.0717 56.451L64.6844 57.6395ZM65.1309 57.785L64.7437 58.9735L65.1902 59.1189L65.5774 57.9304L65.9647 56.7419L65.5182 56.5964L65.1309 57.785ZM65.5774 57.9304L65.1902 59.1189C65.5622 59.2401 65.9434 59.326 66.3327 59.3765L66.4937 58.137L66.6548 56.8974C66.4177 56.8666 66.1881 56.8147 65.9647 56.7419L65.5774 57.9304ZM66.4937 58.137L66.3327 59.3765L66.8025 59.4376L66.9635 58.198L67.1246 56.9584L66.6548 56.8974L66.4937 58.137ZM66.9635 58.198L66.8025 59.4376L67.2722 59.4986L67.4333 58.259L67.5943 57.0194L67.1246 56.9584L66.9635 58.198ZM67.4333 58.259L67.2722 59.4986C67.389 59.5138 67.5037 59.5542 67.6268 59.6353L68.3152 58.592L69.0035 57.5486C68.5771 57.2672 68.1039 57.0857 67.5943 57.0194L67.4333 58.259ZM68.3152 58.592L67.6268 59.6353L68.0389 59.9072L68.7273 58.8638L69.4156 57.8205L69.0035 57.5486L68.3152 58.592ZM68.7273 58.8638L68.0389 59.9072L68.451 60.1791L69.1393 59.1357L69.8277 58.0923L69.4156 57.8205L68.7273 58.8638ZM69.1393 59.1357L68.451 60.1791C68.8356 60.4328 69.2516 60.6211 69.6962 60.7347L70.0054 59.5235L70.3146 58.3123C70.1539 58.2713 69.9926 58.2011 69.8277 58.0923L69.1393 59.1357ZM70.0054 59.5235L69.6962 60.7347L70.1502 60.8505L70.4593 59.6394L70.7685 58.4282L70.3146 58.3123L70.0054 59.5235ZM70.4593 59.6394L70.1502 60.8505L70.6041 60.9664L70.9133 59.7553L71.2225 58.5441L70.7685 58.4282L70.4593 59.6394ZM70.9133 59.7553L70.6041 60.9664C70.8969 61.0412 71.1886 61.1195 71.4793 61.2013L71.818 59.998L72.1567 58.7948C71.8464 58.7075 71.535 58.6239 71.2225 58.5441L70.9133 59.7553ZM71.818 59.998L71.4793 61.2013L71.9301 61.3282L72.2688 60.1249L72.6075 58.9217L72.1567 58.7948L71.818 59.998ZM72.2688 60.1249L71.9301 61.3282L72.3809 61.4551L72.7196 60.2518L73.0583 59.0486L72.6075 58.9217L72.2688 60.1249ZM72.7196 60.2518L72.3809 61.4551C72.6942 61.5432 73.0089 61.6265 73.3252 61.7047L73.6255 60.4913L73.9257 59.2779C73.6352 59.206 73.346 59.1296 73.0583 59.0486L72.7196 60.2518ZM73.6255 60.4913L73.3252 61.7047L73.7804 61.8174L74.0806 60.604L74.3809 59.3905L73.9257 59.2779L73.6255 60.4913ZM74.0806 60.604L73.7804 61.8174L74.2355 61.93L74.5358 60.7166L74.836 59.5032L74.3809 59.3905L74.0806 60.604ZM74.5358 60.7166L74.2355 61.93C74.6183 62.0247 75.0092 62.0818 75.4069 62.1023L75.4712 60.854L75.5355 59.6056C75.2929 59.5931 75.0602 59.5586 74.836 59.5032L74.5358 60.7166ZM75.4712 60.854L75.4069 62.1023L75.8872 62.127L75.9515 60.8787L76.0158 59.6304L75.5355 59.6056L75.4712 60.854ZM75.9515 60.8787L75.8872 62.127L76.3675 62.1518L76.4318 60.9035L76.4961 59.6551L76.0158 59.6304L75.9515 60.8787ZM76.4318 60.9035L76.3675 62.1518C76.5778 62.1626 76.775 62.2001 76.9626 62.2626L77.3577 61.0767L77.7528 59.8907C77.3462 59.7553 76.9262 59.6773 76.4961 59.6551L76.4318 60.9035ZM77.3577 61.0767L76.9626 62.2626L77.4082 62.411L77.8033 61.2251L78.1984 60.0392L77.7528 59.8907L77.3577 61.0767ZM77.8033 61.2251L77.4082 62.411L77.8539 62.5595L78.2489 61.3736L78.644 60.1877L78.1984 60.0392L77.8033 61.2251ZM78.2489 61.3736L77.8539 62.5595C78.22 62.6815 78.5948 62.771 78.9775 62.8281L79.1621 61.5918L79.3466 60.3555C79.106 60.3196 78.8721 60.2636 78.644 60.1877L78.2489 61.3736ZM79.1621 61.5918L78.9775 62.8281L79.445 62.8979L79.6295 61.6616L79.8141 60.4253L79.3466 60.3555L79.1621 61.5918ZM79.6295 61.6616L79.445 62.8979L79.9125 62.9677L80.097 61.7314L80.2816 60.4951L79.8141 60.4253L79.6295 61.6616ZM80.097 61.7314L79.9125 62.9677C80.0626 62.9901 80.2062 63.04 80.3503 63.1244L80.9821 62.0458L81.6139 60.9672C81.2012 60.7255 80.7548 60.5658 80.2816 60.4951L80.097 61.7314ZM80.9821 62.0458L80.3503 63.1244L80.7678 63.369L81.3996 62.2904L82.0314 61.2118L81.6139 60.9672L80.9821 62.0458ZM81.3996 62.2904L80.7678 63.369L81.1853 63.6135L81.8171 62.535L82.4489 61.4564L82.0314 61.2118L81.3996 62.2904ZM81.8171 62.535L81.1853 63.6135C81.5443 63.8238 81.9213 63.9909 82.3152 64.1122L82.6828 62.9174L83.0505 61.7227C82.8468 61.6601 82.6467 61.5722 82.4489 61.4564L81.8171 62.535ZM82.6828 62.9174L82.3152 64.1122L82.7634 64.2501L83.131 63.0554L83.4986 61.8606L83.0505 61.7227L82.6828 62.9174ZM83.131 63.0554L82.7634 64.2501L83.2115 64.388L83.5792 63.1933L83.9468 61.9985L83.4986 61.8606L83.131 63.0554ZM83.5792 63.1933L83.2115 64.388C83.5366 64.488 83.8648 64.5773 84.196 64.6557L84.4841 63.4394L84.7722 62.223C84.4944 62.1572 84.2193 62.0824 83.9468 61.9985L83.5792 63.1933ZM84.4841 63.4394L84.196 64.6557L84.6528 64.7639L84.9409 63.5476L85.229 62.3312L84.7722 62.223L84.4841 63.4394ZM84.9409 63.5476L84.6528 64.7639L85.1096 64.8721L85.3977 63.6558L85.6858 62.4394L85.229 62.3312L84.9409 63.5476ZM85.3977 63.6558L85.1096 64.8721C85.4645 64.9562 85.8249 65.0183 86.1903 65.0586L86.3275 63.8162L86.4648 62.5738C86.1995 62.5445 85.94 62.4996 85.6858 62.4394L85.3977 63.6558ZM86.3275 63.8162L86.1903 65.0586L86.6633 65.1109L86.8006 63.8685L86.9378 62.626L86.4648 62.5738L86.3275 63.8162ZM86.8006 63.8685L86.6633 65.1109L87.1363 65.1632L87.2736 63.9207L87.4108 62.6783L86.9378 62.626L86.8006 63.8685ZM87.2736 63.9207L87.1363 65.1632C87.3873 65.1909 87.6311 65.2374 87.8683 65.3025L88.1989 64.097L88.5295 62.8915C88.1636 62.7912 87.7905 62.7202 87.4108 62.6783L87.2736 63.9207ZM88.1989 64.097L87.8683 65.3025L88.3206 65.4265L88.6512 64.221L88.9818 63.0155L88.5295 62.8915L88.1989 64.097ZM88.6512 64.221L88.3206 65.4265L88.7729 65.5505L89.1035 64.345L89.434 63.1395L88.9818 63.0155L88.6512 64.221ZM89.1035 64.345L88.7729 65.5505C88.9696 65.6045 89.1619 65.6843 89.3516 65.7932L89.974 64.7092L90.5965 63.6252C90.2285 63.4139 89.8405 63.251 89.434 63.1395L89.1035 64.345ZM89.974 64.7092L89.3516 65.7932L89.7699 66.0334L90.3923 64.9494L91.0147 63.8654L90.5965 63.6252L89.974 64.7092ZM90.3923 64.9494L89.7699 66.0334L90.1881 66.2735L90.8106 65.1895L91.433 64.1055L91.0147 63.8654L90.3923 64.9494ZM90.8106 65.1895L90.1881 66.2735C90.6416 66.5339 91.1379 66.677 91.6602 66.6986L91.7117 65.4496L91.7633 64.2007C91.6417 64.1957 91.5372 64.1653 91.433 64.1055L90.8106 65.1895ZM91.7117 65.4496L91.6602 66.6986L92.1431 66.7185L92.1946 65.4696L92.2462 64.2206L91.7633 64.2007L91.7117 65.4496ZM92.1946 65.4696L92.1431 66.7185L92.626 66.7384L92.6776 65.4895L92.7291 64.2405L92.2462 64.2206L92.1946 65.4696ZM92.6776 65.4895L92.626 66.7384C92.7954 66.7454 92.9464 66.7812 93.0882 66.8438L93.5927 65.7001L94.0973 64.5565C93.6627 64.3647 93.2036 64.2601 92.7291 64.2405L92.6776 65.4895ZM93.5927 65.7001L93.0882 66.8438L93.5205 67.0345L94.025 65.8908L94.5295 64.7472L94.0973 64.5565L93.5927 65.7001ZM94.025 65.8908L93.5205 67.0345L93.9528 67.2252L94.4573 66.0815L94.9618 64.9379L94.5295 64.7472L94.025 65.8908ZM94.4573 66.0815L93.9528 67.2252C94.2028 67.3355 94.4499 67.4594 94.6941 67.5972L95.3084 66.5086L95.9227 65.4199C95.6084 65.2426 95.2881 65.0818 94.9618 64.9379L94.4573 66.0815ZM95.3084 66.5086L94.6941 67.5972L95.1129 67.8335L95.7272 66.7449L96.3415 65.6562L95.9227 65.4199L95.3084 66.5086ZM95.7272 66.7449L95.1129 67.8335L95.5318 68.0699L96.146 66.9812L96.7603 65.8926L96.3415 65.6562L95.7272 66.7449ZM96.146 66.9812L95.5318 68.0699C96.0296 68.3508 96.5769 68.4692 97.1404 68.4345L97.0637 67.1869L96.987 65.9392C96.8854 65.9455 96.8209 65.9267 96.7603 65.8926L96.146 66.9812ZM97.0637 67.1869L97.1404 68.4345L97.6392 68.4039L97.5625 67.1562L97.4859 65.9086L96.987 65.9392L97.0637 67.1869ZM97.5625 67.1562L97.6392 68.4039L98.138 68.3732L98.0614 67.1256L97.9847 65.8779L97.4859 65.9086L97.5625 67.1562ZM98.0614 67.1256L98.138 68.3732C98.2443 68.3667 98.3132 68.3862 98.3766 68.4212L98.9803 67.3266L99.5839 66.232C99.0873 65.9581 98.5436 65.8436 97.9847 65.8779L98.0614 67.1256ZM98.9803 67.3266L98.3766 68.4212L98.7967 68.6529L99.4003 67.5583L100.004 66.4637L99.5839 66.232L98.9803 67.3266ZM99.4003 67.5583L98.7967 68.6529L99.2167 68.8845L99.8204 67.79L100.424 66.6954L100.004 66.4637L99.4003 67.5583ZM99.8204 67.79L99.2167 68.8845C99.5427 69.0643 99.877 69.222 100.219 69.357L100.678 68.1941L101.136 67.0312C100.896 66.9362 100.658 66.8245 100.424 66.6954L99.8204 67.79ZM100.678 68.1941L100.219 69.357L100.657 69.5294L101.115 68.3665L101.574 67.2036L101.136 67.0312L100.678 68.1941ZM101.115 68.3665L100.657 69.5294L101.094 69.7018L101.553 68.5389L102.011 67.376L101.574 67.2036L101.115 68.3665ZM101.553 68.5389L101.094 69.7018C101.493 69.859 101.908 69.9595 102.335 70.0039L102.465 68.7606L102.594 67.5173C102.389 67.496 102.196 67.4487 102.011 67.376L101.553 68.5389ZM102.465 68.7606L102.335 70.0039L102.81 70.0532L102.939 68.8099L103.068 67.5666L102.594 67.5173L102.465 68.7606ZM102.939 68.8099L102.81 70.0532L103.284 70.1025L103.413 68.8592L103.542 67.6159L103.068 67.5666L102.939 68.8099ZM103.413 68.8592L103.284 70.1025C103.427 70.1173 103.558 70.1591 103.688 70.2326L104.306 69.1459L104.923 68.0592C104.496 67.8161 104.032 67.6667 103.542 67.6159L103.413 68.8592ZM104.306 69.1459L103.688 70.2326L104.106 70.4701L104.723 69.3834L105.341 68.2966L104.923 68.0592L104.306 69.1459ZM104.723 69.3834L104.106 70.4701L104.524 70.7076L105.141 69.6208L105.759 68.5341L105.341 68.2966L104.723 69.3834ZM105.141 69.6208L104.524 70.7076C104.889 70.9155 105.275 71.0765 105.678 71.1882L106.011 69.9836L106.345 68.779C106.145 68.7236 105.95 68.6428 105.759 68.5341L105.141 69.6208ZM106.011 69.9836L105.678 71.1882L106.13 71.3136L106.464 70.109L106.798 68.9044L106.345 68.779L106.011 69.9836ZM106.464 70.109L106.13 71.3136L106.582 71.4389L106.916 70.2343L107.25 69.0297L106.798 68.9044L106.464 70.109ZM106.916 70.2343L106.582 71.4389C106.854 71.5143 107.123 71.5996 107.389 71.6948L107.81 70.5181L108.232 69.3414C107.908 69.2254 107.581 69.1215 107.25 69.0297L106.916 70.2343ZM107.81 70.5181L107.389 71.6948L107.831 71.8532L108.252 70.6764L108.674 69.4997L108.232 69.3414L107.81 70.5181ZM108.252 70.6764L107.831 71.8532L108.272 72.0115L108.694 70.8348L109.116 69.6581L108.674 69.4997L108.252 70.6764ZM108.694 70.8348L108.272 72.0115C108.663 72.1513 109.066 72.2427 109.48 72.2865L109.612 71.0435L109.743 69.8004C109.523 69.7772 109.315 69.7295 109.116 69.6581L108.694 70.8348ZM109.612 71.0435L109.48 72.2865L109.955 72.3368L110.087 71.0938L110.218 69.8507L109.743 69.8004L109.612 71.0435ZM110.087 71.0938L109.955 72.3368L110.431 72.3871L110.562 71.1441L110.694 69.901L110.218 69.8507L110.087 71.0938ZM110.562 71.1441L110.431 72.3871C110.638 72.409 110.832 72.4568 111.017 72.5296L111.475 71.3664L111.933 70.2033C111.535 70.0467 111.121 69.9462 110.694 69.901L110.562 71.1441ZM111.475 71.3664L111.017 72.5296L111.454 72.7017L111.912 71.5385L112.37 70.3754L111.933 70.2033L111.475 71.3664ZM111.912 71.5385L111.454 72.7017L111.891 72.8738L112.349 71.7106L112.807 70.5475L112.37 70.3754L111.912 71.5385ZM112.349 71.7106L111.891 72.8738C112.19 72.9912 112.489 73.1059 112.789 73.2178L113.226 72.0467L113.663 70.8755C113.377 70.7689 113.092 70.6595 112.807 70.5475L112.349 71.7106ZM113.226 72.0467L112.789 73.2178L113.229 73.3818L113.665 72.2107L114.102 71.0395L113.663 70.8755L113.226 72.0467ZM113.665 72.2107L113.229 73.3818L113.668 73.5458L114.105 72.3746L114.542 71.2035L114.102 71.0395L113.665 72.2107ZM114.105 72.3746L113.668 73.5458C114.028 73.6799 114.397 73.7829 114.775 73.8546L115.008 72.6266L115.241 71.3985C115.001 71.3529 114.768 71.2879 114.542 71.2035L114.105 72.3746ZM115.008 72.6266L114.775 73.8546L115.239 73.9427L115.472 72.7146L115.705 71.4865L115.241 71.3985L115.008 72.6266ZM115.472 72.7146L115.239 73.9427L115.702 74.0307L115.935 72.8026L116.168 71.5745L115.705 71.4865L115.472 72.7146ZM115.935 72.8026L115.702 74.0307C116.014 74.0899 116.327 74.148 116.64 74.205L116.864 72.9752L117.088 71.7454C116.781 71.6896 116.474 71.6326 116.168 71.5745L115.935 72.8026ZM116.864 72.9752L116.64 74.205L117.105 74.2897L117.329 73.0599L117.553 71.8301L117.088 71.7454L116.864 72.9752ZM117.329 73.0599L117.105 74.2897L117.571 74.3743L117.794 73.1445L118.018 71.9147L117.553 71.8301L117.329 73.0599ZM117.794 73.1445L117.571 74.3743C117.704 74.3986 117.832 74.4494 117.962 74.5375L118.663 73.5029L119.365 72.4683C118.956 72.1914 118.505 72.0032 118.018 71.9147L117.794 73.1445ZM118.663 73.5029L117.962 74.5375L118.365 74.8112L119.067 73.7767L119.769 72.7421L119.365 72.4683L118.663 73.5029ZM119.067 73.7767L118.365 74.8112L118.769 75.085L119.471 74.0504L120.172 73.0159L119.769 72.7421L119.067 73.7767ZM119.471 74.0504L118.769 75.085C119.127 75.3275 119.509 75.5202 119.914 75.6586L120.318 74.4756L120.722 73.2926C120.536 73.2291 120.353 73.1384 120.172 73.0159L119.471 74.0504ZM120.318 74.4756L119.914 75.6586L120.358 75.81L120.762 74.627L121.165 73.444L120.722 73.2926L120.318 74.4756ZM120.762 74.627L120.358 75.81L120.801 75.9614L121.205 74.7784L121.609 73.5954L121.165 73.444L120.762 74.627ZM121.205 74.7784L120.801 75.9614C121.118 76.0695 121.438 76.1691 121.76 76.2604L122.1 75.0576L122.441 73.8548C122.161 73.7756 121.884 73.6891 121.609 73.5954L121.205 74.7784ZM122.1 75.0576L121.76 76.2604L122.212 76.3882L122.552 75.1854L122.892 73.9826L122.441 73.8548L122.1 75.0576ZM122.552 75.1854L122.212 76.3882L122.664 76.516L123.004 75.3132L123.344 74.1104L122.892 73.9826L122.552 75.1854ZM123.004 75.3132L122.664 76.516C122.992 76.6089 123.324 76.6908 123.659 76.7618L123.918 75.5389L124.177 74.3159C123.896 74.2565 123.618 74.1879 123.344 74.1104L123.004 75.3132ZM123.918 75.5389L123.659 76.7618L124.122 76.8596L124.38 75.6367L124.639 74.4138L124.177 74.3159L123.918 75.5389ZM124.38 75.6367L124.122 76.8596L124.584 76.9575L124.843 75.7346L125.102 74.5116L124.639 74.4138L124.38 75.6367ZM124.843 75.7346L124.584 76.9575C124.793 77.0017 124.992 77.0699 125.183 77.163L125.73 76.0388L126.276 74.9146C125.901 74.7325 125.509 74.5979 125.102 74.5116L124.843 75.7346ZM125.73 76.0388L125.183 77.163L125.608 77.3694L126.154 76.2452L126.701 75.121L126.276 74.9146L125.73 76.0388ZM126.154 76.2452L125.608 77.3694L126.032 77.5758L126.579 76.4516L127.125 75.3274L126.701 75.121L126.154 76.2452ZM126.579 76.4516L126.032 77.5758C126.462 77.7846 126.919 77.9052 127.395 77.9405L127.488 76.6939L127.58 75.4473C127.41 75.4347 127.262 75.3938 127.125 75.3274L126.579 76.4516ZM127.488 76.6939L127.395 77.9405L127.88 77.9764L127.972 76.7298L128.065 75.4832L127.58 75.4473L127.488 76.6939ZM127.972 76.7298L127.88 77.9764L128.364 78.0123L128.457 76.7657L128.549 75.5191L128.065 75.4832L127.972 76.7298ZM128.457 76.7657L128.364 78.0123C128.541 78.0253 128.695 78.0667 128.836 78.1328L129.367 77.0011L129.897 75.8695C129.471 75.6695 129.019 75.5539 128.549 75.5191L128.457 76.7657ZM129.367 77.0011L128.836 78.1328L129.261 78.3324L129.792 77.2007L130.323 76.069L129.897 75.8695L129.367 77.0011ZM129.792 77.2007L129.261 78.3324L129.687 78.532L130.217 77.4003L130.748 76.2686L130.323 76.069L129.792 77.2007ZM130.217 77.4003L129.687 78.532C129.997 78.6774 130.312 78.8119 130.631 78.9354L131.082 77.7694L131.532 76.6034C131.267 76.5008 131.005 76.3892 130.748 76.2686L130.217 77.4003ZM131.082 77.7694L130.631 78.9354L131.07 79.1049L131.521 77.9389L131.971 76.7729L131.532 76.6034L131.082 77.7694ZM131.521 77.9389L131.07 79.1049L131.509 79.2745L131.96 78.1085L132.41 76.9424L131.971 76.7729L131.521 77.9389ZM131.96 78.1085L131.509 79.2745C131.778 79.3782 132.042 79.49 132.303 79.6098L132.825 78.474L133.347 77.3383C133.039 77.1967 132.727 77.0648 132.41 76.9424L131.96 78.1085ZM132.825 78.474L132.303 79.6098L132.729 79.8058L133.251 78.67L133.773 77.5343L133.347 77.3383L132.825 78.474ZM133.251 78.67L132.729 79.8058L133.156 80.0018L133.678 78.866L134.2 77.7303L133.773 77.5343L133.251 78.67ZM133.678 78.866L133.156 80.0018C133.392 80.1107 133.625 80.2353 133.852 80.376L134.51 79.3129L135.167 78.2498C134.854 78.056 134.531 77.8827 134.2 77.7303L133.678 78.866ZM134.51 79.3129L133.852 80.376L134.258 80.6269L134.915 79.5638L135.573 78.5007L135.167 78.2498L134.51 79.3129ZM134.915 79.5638L134.258 80.6269L134.663 80.8778L135.321 79.8147L135.978 78.7516L135.573 78.5007L134.915 79.5638ZM135.321 79.8147L134.663 80.8778C135.012 81.0932 135.379 81.2678 135.764 81.3996L136.169 80.217L136.574 79.0345C136.369 78.9644 136.171 78.8707 135.978 78.7516L135.321 79.8147ZM136.169 80.217L135.764 81.3996L136.206 81.5511L136.611 80.3685L137.016 79.1859L136.574 79.0345L136.169 80.217ZM136.611 80.3685L136.206 81.5511L136.648 81.7025L137.053 80.5199L137.458 79.3373L137.016 79.1859L136.611 80.3685ZM137.053 80.5199L136.648 81.7025C136.908 81.7913 137.163 81.8918 137.415 82.0041L137.924 80.8626L138.434 79.7212C138.114 79.5784 137.789 79.4505 137.458 79.3373L137.053 80.5199ZM137.924 80.8626L137.415 82.0041L137.843 82.1954L138.353 81.0539L138.862 79.9125L138.434 79.7212L137.924 80.8626ZM138.353 81.0539L137.843 82.1954L138.272 82.3867L138.781 81.2452L139.291 80.1037L138.862 79.9125L138.353 81.0539ZM138.781 81.2452L138.272 82.3867C138.635 82.5489 139.013 82.6732 139.404 82.7601L139.675 81.5399L139.946 80.3197C139.717 80.2687 139.499 80.1966 139.291 80.1037L138.781 81.2452ZM139.675 81.5399L139.404 82.7601L139.868 82.8634L140.14 81.6432L140.411 80.423L139.946 80.3197L139.675 81.5399ZM140.14 81.6432L139.868 82.8634L140.333 82.9668L140.605 81.7466L140.876 80.5264L140.411 80.423L140.14 81.6432ZM140.605 81.7466L140.333 82.9668C140.483 83.0002 140.618 83.0593 140.747 83.1487L141.462 82.1235L142.177 81.0983C141.782 80.823 141.346 80.6309 140.876 80.5264L140.605 81.7466ZM141.462 82.1235L140.747 83.1487L141.139 83.4223L141.854 82.397L142.569 81.3718L142.177 81.0983L141.462 82.1235ZM141.854 82.397L141.139 83.4223L141.531 83.6958L142.246 82.6706L142.961 81.6453L142.569 81.3718L141.854 82.397ZM142.246 82.6706L141.531 83.6958C141.936 83.9783 142.386 84.1685 142.871 84.2628L143.11 83.0359L143.348 81.8089C143.205 81.7809 143.079 81.7275 142.961 81.6453L142.246 82.6706ZM143.11 83.0359L142.871 84.2628L143.342 84.3546L143.581 83.1277L143.82 81.9007L143.348 81.8089L143.11 83.0359ZM143.581 83.1277L143.342 84.3546L143.813 84.4464L144.052 83.2195L144.291 81.9925L143.82 81.9007L143.581 83.1277ZM144.052 83.2195L143.813 84.4464C144.059 84.4943 144.294 84.5612 144.518 84.6464L144.962 83.4779L145.406 82.3094C145.046 82.1724 144.674 82.067 144.291 81.9925L144.052 83.2195ZM144.962 83.4779L144.518 84.6464L144.957 84.8131L145.401 83.6446L145.845 82.476L145.406 82.3094L144.962 83.4779ZM145.401 83.6446L144.957 84.8131L145.396 84.9798L145.84 83.8112L146.284 82.6427L145.845 82.476L145.401 83.6446ZM145.84 83.8112L145.396 84.9798C145.587 85.0524 145.769 85.1495 145.944 85.2735L146.668 84.2547L147.392 83.2358C147.047 82.9908 146.677 82.7922 146.284 82.6427L145.84 83.8112ZM146.668 84.2547L145.944 85.2735L146.333 85.5503L147.057 84.5314L147.781 83.5125L147.392 83.2358L146.668 84.2547ZM147.057 84.5314L146.333 85.5503L146.723 85.8271L147.447 84.8082L148.171 83.7893L147.781 83.5125L147.057 84.5314ZM147.447 84.8082L146.723 85.8271C147.098 86.0939 147.51 86.2917 147.953 86.4167L148.292 85.2136L148.632 84.0106C148.467 83.964 148.315 83.8915 148.171 83.7893L147.447 84.8082ZM148.292 85.2136L147.953 86.4167L148.409 86.5453L148.748 85.3423L149.088 84.1392L148.632 84.0106L148.292 85.2136ZM148.748 85.3423L148.409 86.5453L148.865 86.674L149.204 85.4709L149.544 84.2679L149.088 84.1392L148.748 85.3423ZM149.204 85.4709L148.865 86.674C149.01 86.7149 149.144 86.7819 149.273 86.8824L150.041 85.8967L150.81 84.911C150.431 84.6154 150.007 84.3985 149.544 84.2679L149.204 85.4709ZM150.041 85.8967L149.273 86.8824L149.654 87.1795L150.422 86.1938L151.191 85.2081L150.81 84.911L150.041 85.8967ZM150.422 86.1938L149.654 87.1795L150.035 87.4766L150.803 86.4909L151.572 85.5052L151.191 85.2081L150.422 86.1938ZM150.803 86.4909L150.035 87.4766C150.451 87.8011 150.927 88.0121 151.448 88.1017L151.66 86.8699L151.872 85.638C151.758 85.6184 151.664 85.5768 151.572 85.5052L150.803 86.4909ZM151.66 86.8699L151.448 88.1017L151.923 88.1836L152.135 86.9517L152.347 85.7199L151.872 85.638L151.66 86.8699ZM152.135 86.9517L151.923 88.1836L152.399 88.2655L152.611 87.0336L152.823 85.8018L152.347 85.7199L152.135 86.9517ZM152.611 87.0336L152.399 88.2655C152.632 88.3057 152.851 88.3676 153.057 88.45L153.521 87.2895L153.985 86.1289C153.612 85.9794 153.224 85.8708 152.823 85.8018L152.611 87.0336ZM153.521 87.2895L153.057 88.45L153.492 88.624L153.956 87.4634L154.42 86.3029L153.985 86.1289L153.521 87.2895ZM153.956 87.4634L153.492 88.624L153.926 88.798L154.391 87.6374L154.855 86.4768L154.42 86.3029L153.956 87.4634ZM154.391 87.6374L153.926 88.798C154.127 88.8782 154.321 88.9824 154.51 89.1129L155.221 88.085L155.932 87.0571C155.594 86.8228 155.234 86.6285 154.855 86.4768L154.391 87.6374ZM155.221 88.085L154.51 89.1129L154.905 89.3865L155.616 88.3586L156.328 87.3308L155.932 87.0571L155.221 88.085ZM155.616 88.3586L154.905 89.3865L155.301 89.6602L156.012 88.6323L156.723 87.6044L156.328 87.3308L155.616 88.3586ZM156.012 88.6323L155.301 89.6602C155.649 89.9009 156.02 90.0956 156.415 90.2412L156.848 89.0685L157.281 87.8959C157.088 87.8247 156.903 87.7285 156.723 87.6044L156.012 88.6323ZM156.848 89.0685L156.415 90.2412L156.855 90.4038L157.288 89.2311L157.721 88.0584L157.281 87.8959L156.848 89.0685ZM157.288 89.2311L156.855 90.4038L157.296 90.5663L157.729 89.3937L158.162 88.221L157.721 88.0584L157.288 89.2311ZM157.729 89.3937L157.296 90.5663C157.647 90.6959 158.007 90.7995 158.375 90.8773L158.633 89.6544L158.892 88.4314C158.641 88.3784 158.398 88.3082 158.162 88.221L157.729 89.3937ZM158.633 89.6544L158.375 90.8773L158.839 90.9755L159.097 89.7525L159.356 88.5295L158.892 88.4314L158.633 89.6544ZM159.097 89.7525L158.839 90.9755L159.303 91.0736L159.562 89.8506L159.82 88.6277L159.356 88.5295L159.097 89.7525ZM159.562 89.8506L159.303 91.0736C159.541 91.1238 159.769 91.1938 159.989 91.2833L160.46 90.1255L160.931 88.9677C160.572 88.8215 160.201 88.7083 159.82 88.6277L159.562 89.8506ZM160.46 90.1255L159.989 91.2833L160.423 91.4601L160.895 90.3023L161.366 89.1445L160.931 88.9677L160.46 90.1255ZM160.895 90.3023L160.423 91.4601L160.858 91.6369L161.329 90.4791L161.8 89.3212L161.366 89.1445L160.895 90.3023ZM161.329 90.4791L160.858 91.6369C161.216 91.7827 161.586 91.896 161.966 91.9768L162.226 90.7541L162.486 89.5314C162.249 89.4811 162.021 89.4111 161.8 89.3212L161.329 90.4791ZM162.226 90.7541L161.966 91.9768L162.428 92.075L162.688 90.8524L162.948 89.6297L162.486 89.5314L162.226 90.7541ZM162.688 90.8524L162.428 92.075L162.89 92.1733L163.15 90.9507L163.41 89.728L162.948 89.6297L162.688 90.8524ZM163.15 90.9507L162.89 92.1733C163.025 92.202 163.154 92.2573 163.284 92.3504L164.01 91.3328L164.736 90.3152C164.336 90.0299 163.892 89.8304 163.41 89.728L163.15 90.9507ZM164.01 91.3328L163.284 92.3504L163.682 92.6342L164.408 91.6167L165.134 90.5991L164.736 90.3152L164.01 91.3328ZM164.408 91.6167L163.682 92.6342L164.08 92.9181L164.806 91.9005L165.532 90.883L165.134 90.5991L164.408 91.6167ZM164.806 91.9005L164.08 92.9181C164.536 93.2435 165.057 93.428 165.617 93.4604L165.69 92.2125L165.762 90.9645C165.674 90.9595 165.606 90.936 165.532 90.883L164.806 91.9005ZM165.69 92.2125L165.617 93.4604L166.103 93.4884L166.175 92.2405L166.247 90.9926L165.762 90.9645L165.69 92.2125ZM166.175 92.2405L166.103 93.4884L166.589 93.5165L166.661 92.2686L166.733 91.0207L166.247 90.9926L166.175 92.2405ZM166.661 92.2686L166.589 93.5165C166.795 93.5284 166.984 93.5678 167.159 93.6315L167.587 92.4569L168.014 91.2823C167.602 91.1323 167.173 91.0461 166.733 91.0207L166.661 92.2686ZM167.587 92.4569L167.159 93.6315L167.6 93.7918L168.027 92.6172L168.455 91.4426L168.014 91.2823L167.587 92.4569ZM168.027 92.6172L167.6 93.7918L168.04 93.9521L168.467 92.7775L168.895 91.6029L168.455 91.4426L168.027 92.6172ZM168.467 92.7775L168.04 93.9521C168.247 94.0276 168.451 94.1272 168.651 94.2531L169.317 93.1954L169.983 92.1378C169.638 91.9201 169.275 91.741 168.895 91.6029L168.467 92.7775ZM169.317 93.1954L168.651 94.2531L169.06 94.5107L169.726 93.4531L170.392 92.3954L169.983 92.1378L169.317 93.1954ZM169.726 93.4531L169.06 94.5107L169.469 94.7684L170.135 93.7107L170.801 92.6531L170.392 92.3954L169.726 93.4531ZM170.135 93.7107L169.469 94.7684C169.941 95.0661 170.469 95.2178 171.025 95.2224L171.035 93.9724L171.046 92.7225C170.946 92.7216 170.874 92.6989 170.801 92.6531L170.135 93.7107ZM171.035 93.9724L171.025 95.2224L171.516 95.2264L171.527 93.9765L171.537 92.7265L171.046 92.7225L171.035 93.9724ZM171.527 93.9765L171.516 95.2264L172.008 95.2305L172.018 93.9805L172.028 92.7305L171.537 92.7265L171.527 93.9765ZM172.018 93.9805L172.008 95.2305C172.203 95.2321 172.376 95.2635 172.533 95.3193L172.951 94.1413L173.369 92.9633C172.938 92.8101 172.488 92.7343 172.028 92.7305L172.018 93.9805ZM172.951 94.1413L172.533 95.3193L172.975 95.4761L173.393 94.2981L173.811 93.12L173.369 92.9633L172.951 94.1413ZM173.393 94.2981L172.975 95.4761L173.417 95.6329L173.835 94.4548L174.253 93.2768L173.811 93.12L173.393 94.2981ZM173.835 94.4548L173.417 95.6329C173.55 95.6802 173.625 95.7109 173.658 95.7259C173.676 95.734 173.659 95.7277 173.625 95.7068C173.608 95.696 173.572 95.6732 173.528 95.6378C173.505 95.6196 173.476 95.5944 173.443 95.5621C173.411 95.5303 173.369 95.4854 173.326 95.427L174.329 94.6814L175.332 93.9358C175.174 93.7226 174.983 93.6068 174.932 93.5753C174.848 93.524 174.766 93.4835 174.701 93.4538C174.569 93.3933 174.414 93.334 174.253 93.2768L173.835 94.4548ZM174.329 94.6814L173.326 95.427L173.377 95.4968L174.381 94.7513L175.384 94.0057L175.332 93.9358L174.329 94.6814ZM174.381 94.7513L173.135 94.8526L173.144 94.9609L174.39 94.8596L175.635 94.7582L175.627 94.6499L174.381 94.7513ZM174.39 94.8596L173.998 96.0467L174.093 96.078L174.484 94.8909L174.876 93.7038L174.781 93.6725L174.39 94.8596Z" fill="#232323"/>
</g>
</svg>
