<svg width="115.34" height="110.777" viewBox="0 0 115.34 110.777" fill="none" xmlns="http://www.w3.org/2000/svg">
<g id="Vector 1">
<path d="M112.405 41.3233L59.6892 1.63859C58.4071 0.67341 56.641 0.673411 55.3589 1.63859L2.68196 41.2943C1.4273 42.2388 0.929691 43.8876 1.45237 45.3685L22.7625 105.747C23.2705 107.187 24.6309 108.149 26.1573 108.149H90.123C91.6725 108.149 93.0482 107.158 93.5383 105.688L113.655 45.3378C114.144 43.87 113.641 42.2538 112.405 41.3233Z" fill="#F3ACB1"/>
<path d="M62.1057 3.19087L61.1329 4.70532L62.1057 3.19087ZM65.212 5.82121L63.881 7.03294L65.212 5.82121ZM65.4971 6.13441L66.8282 4.92268L65.4971 6.13441ZM65.7823 6.44761L67.1133 5.23588L65.7823 6.44761ZM69.0109 8.91544L68.1917 10.5182L69.0109 8.91544ZM69.7633 9.29996L70.5824 7.69717L69.7633 9.29996ZM73.3117 11.3431L72.3358 12.8556L73.3117 11.3431ZM73.6623 11.5693L74.6381 10.0567L73.6623 11.5693ZM74.0129 11.7955L73.037 13.308L74.0129 11.7955ZM77.1772 14.3488L78.4484 13.0744L77.1772 14.3488ZM77.7722 14.9423L76.501 16.2167L77.7722 14.9423ZM80.8404 17.6233L81.9319 16.192L80.8404 17.6233ZM81.5022 18.128L80.4107 19.5593L81.5022 18.128ZM84.8989 20.3726L85.7885 18.8078L84.8989 20.3726ZM85.2637 20.58L84.3741 22.1448L85.2637 20.58ZM85.6285 20.7874L86.5181 19.2226L85.6285 20.7874ZM88.9708 23.1042L90.1248 21.7227L88.9708 23.1042ZM89.6104 23.6384L88.4565 25.0199L89.6104 23.6384ZM92.5352 26.51L91.1771 27.6914L92.5352 26.51ZM93.0937 27.152L94.4517 25.9705L93.0937 27.152ZM96.4413 29.4618L97.0722 27.776L96.4413 29.4618ZM96.8477 29.6139L96.2167 31.2997L96.8477 29.6139ZM97.2541 29.766L97.885 28.0802L97.2541 29.766ZM100.745 31.8851L101.959 30.5561L100.745 31.8851ZM101.363 32.449L100.149 33.778L101.363 32.449ZM104.636 34.8567L103.729 36.4113L104.636 34.8567ZM104.998 35.0679L105.906 33.5133L104.998 35.0679ZM105.36 35.2791L104.453 36.8337L105.36 35.2791ZM108.482 37.8884L109.848 36.7157L108.482 37.8884ZM108.76 38.2117L107.394 39.3844L108.76 38.2117ZM109.038 38.5349L110.403 37.3622L109.038 38.5349ZM112.097 41.7688L110.843 43.0599L112.097 41.7688ZM112.387 42.0502L113.641 40.7591L112.387 42.0502ZM113.481 45.4297L111.704 45.1454L113.481 45.4297ZM113.415 45.8405L111.638 45.5561L113.415 45.8405ZM113.35 46.2512L115.127 46.5355L113.35 46.2512ZM112.601 50.2556L114.362 50.6319L112.601 50.2556ZM112.514 50.6651L110.754 50.2889L112.514 50.6651ZM112.426 51.0746L114.187 51.4509L112.426 51.0746ZM110.744 54.7973L112.199 55.857L110.744 54.7973ZM110.487 55.1502L109.032 54.0905L110.487 55.1502ZM110.23 55.5032L111.685 56.563L110.23 55.5032ZM108.94 59.3568L110.74 59.3858L108.94 59.3568ZM108.926 60.2295L107.126 60.2005L108.926 60.2295ZM107.922 64.1785L106.334 63.332L107.922 64.1785ZM107.724 64.551L109.312 65.3975L107.724 64.551ZM107.525 64.9235L105.937 64.077L107.525 64.9235ZM106.101 68.7321L104.346 68.3306L106.101 68.7321ZM106.008 69.1397L107.762 69.5413L106.008 69.1397ZM105.914 69.5473L107.669 69.9488L105.914 69.5473ZM104.32 73.2995L102.809 72.3227L104.32 73.2995ZM103.854 74.0214L105.366 74.9982L103.854 74.0214ZM102.716 77.9255L100.916 77.9259L102.716 77.9255ZM102.716 78.3642L104.516 78.3638L102.716 78.3642ZM102.716 78.8029L100.916 78.8034L102.716 78.8029ZM101.893 82.8121L100.246 82.0858L101.893 82.8121ZM101.556 83.577L99.909 82.8507L101.556 83.577ZM100.015 87.347L101.7 87.9817L100.015 87.347ZM99.7217 88.1264L98.0373 87.4917L99.7217 88.1264ZM98.4198 91.976L100.144 92.4939L98.4198 91.976ZM98.3 92.3747L96.5761 91.8568L98.3 92.3747ZM98.1802 92.7735L99.9041 93.2914L98.1802 92.7735ZM96.5223 96.5043L98.0647 97.4321L96.5223 96.5043ZM96.0827 97.2351L97.6252 98.1629L96.0827 97.2351ZM94.6837 101.052L92.9064 100.767L94.6837 101.052ZM94.617 101.469L96.3943 101.754L94.617 101.469ZM94.5503 101.885L92.7729 101.6L94.5503 101.885ZM93.152 105.607L94.6716 106.572L93.152 105.607ZM92.9324 105.953L91.4128 104.988L92.9324 105.953ZM92.7128 106.299L94.2324 107.264L92.7128 106.299ZM89.5996 107.707L89.3542 109.49L89.5996 107.707ZM89.1816 107.65L89.427 105.867L89.1816 107.65ZM88.7636 107.592L88.5183 109.375L88.7636 107.592ZM84.691 107.86L85.1605 109.598L84.691 107.86ZM84.2749 107.973L83.8054 106.235L84.2749 107.973ZM83.8587 108.085L84.3282 109.823L83.8587 108.085ZM79.795 108.455L79.6371 110.248L79.795 108.455ZM78.9627 108.382L79.1207 106.589L78.9627 108.382ZM74.899 107.994L74.7153 109.785L74.899 107.994ZM74.0667 107.909L73.883 109.7L74.0667 107.909ZM70.003 107.996L70.2618 109.777L70.003 107.996ZM69.1707 108.117L68.9119 106.335L69.1707 108.117ZM65.107 108.436L65.0852 106.637L65.107 108.436ZM64.6909 108.442L64.7127 110.241L64.6909 108.442ZM64.2747 108.447L64.2528 106.647L64.2747 108.447ZM60.211 107.976L60.6373 106.227L60.211 107.976ZM59.7949 107.875L59.3686 109.623L59.7949 107.875ZM59.3787 107.773L59.805 106.024L59.3787 107.773ZM55.315 107.939L55.8716 109.65L55.315 107.939ZM54.4827 108.209L53.9261 106.497L54.4827 108.209ZM50.419 108.268L50.9299 106.542L50.419 108.268ZM50.0029 108.145L49.492 109.871L50.0029 108.145ZM49.5867 108.022L50.0976 106.296L49.5867 108.022ZM45.523 107.515L45.606 109.313L45.523 107.515ZM45.1069 107.534L45.0238 105.736L45.1069 107.534ZM44.6907 107.553L44.6077 105.755L44.6907 107.553ZM40.627 108.204L41.103 109.94L40.627 108.204ZM40.2109 108.318L39.7349 106.582L40.2109 108.318ZM39.7947 108.432L40.2707 110.168L39.7947 108.432ZM35.731 108.976L35.7425 107.176L35.731 108.976ZM35.3149 108.974L35.3034 110.774L35.3149 108.974ZM34.8987 108.971L34.9102 107.171L34.8987 108.971ZM30.835 108.424L30.3778 110.165L30.835 108.424ZM30.0027 108.206L30.4599 106.465L30.0027 108.206ZM26.0837 107.36L25.7902 109.136L26.0837 107.36ZM25.3107 107.232L25.0171 109.008V109.008L25.3107 107.232ZM22.6338 105.055L24.2914 104.354L22.6338 105.055ZM22.4721 104.673L20.8145 105.375L22.4721 104.673ZM22.3103 104.291L23.9678 103.589L22.3103 104.291ZM20.9382 100.477L19.2135 100.992L20.9382 100.477ZM20.8189 100.078L22.5435 99.5624L20.8189 100.078ZM20.6996 99.6786L18.9749 100.194L20.6996 99.6786ZM19.5131 95.788L21.2318 95.2532L19.5131 95.788ZM19.3894 95.3903L17.6707 95.9251L19.3894 95.3903ZM19.2657 94.9927L20.9844 94.4579L19.2657 94.9927ZM18.1017 91.0941L16.3711 91.5892L18.1017 91.0941ZM17.987 90.6933L19.7176 90.1982L17.987 90.6933ZM17.8724 90.2924L16.1418 90.7875L17.8724 90.2924ZM16.177 86.5814L17.688 85.6032L16.177 86.5814ZM15.9445 86.2222L14.4335 87.2004L15.9445 86.2222ZM15.7119 85.8629L17.2229 84.8848L15.7119 85.8629ZM14.0691 82.1334L12.3257 82.5811L14.0691 82.1334ZM13.8613 81.3241L15.6047 80.8764V80.8764L13.8613 81.3241ZM12.3989 77.5309L13.9924 76.6937L12.3989 77.5309ZM12.2033 77.1586L10.6099 77.9958L12.2033 77.1586ZM12.0077 76.7863L10.4143 77.6235L12.0077 76.7863ZM10.7719 72.9131L12.5553 72.6694L10.7719 72.9131ZM10.6568 72.0711L8.87337 72.3148L10.6568 72.0711ZM9.60171 68.1341L7.93713 68.8191L9.60171 68.1341ZM9.44314 67.7488L11.1077 67.0638L9.44314 67.7488ZM9.28457 67.3634L7.61999 68.0484L9.28457 67.3634ZM7.82773 63.5683L9.5231 62.9635L7.82773 63.5683ZM7.68791 63.1763L5.99254 63.781L7.68791 63.1763ZM7.54809 62.7843L9.24346 62.1796L7.54809 62.7843ZM5.84678 58.6341L7.48486 57.888L5.84678 58.6341ZM5.67361 58.2539L4.03553 59L5.67361 58.2539ZM4.21912 54.4579L2.50177 54.9971L4.21912 54.4579ZM4.09439 54.0606L5.81174 53.5214L4.09439 54.0606ZM3.96966 53.6633L2.25231 54.2025L3.96966 53.6633ZM2.75541 49.7825L4.47381 49.2467L2.75541 49.7825ZM2.63145 49.3849L0.913047 49.9208L2.63145 49.3849ZM2.50748 48.9874L4.22588 48.4515L2.50748 48.9874ZM3.20585 40.8991L4.44874 42.2011L3.20585 40.8991ZM3.50753 40.6111L2.26464 39.3091L3.50753 40.6111ZM3.80921 40.3231L5.0521 41.6251L3.80921 40.3231ZM6.83351 37.5996L5.66835 36.2276L6.83351 37.5996ZM7.15126 37.3297L8.31642 38.7017L7.15126 37.3297ZM7.46902 37.0599L6.30386 35.6879L7.46902 37.0599ZM10.6584 34.5399L11.7236 35.9909L10.6584 34.5399ZM10.9939 34.2936L9.92873 32.8426L10.9939 34.2936ZM11.3294 34.0473L10.2642 32.5963L11.3294 34.0473ZM14.6313 31.6768L15.6655 33.1501L14.6313 31.6768ZM14.9721 31.4376L13.9379 29.9643L14.9721 31.4376ZM15.3129 31.1983L16.3471 32.6716V32.6716L15.3129 31.1983ZM19.2376 28.9632L20.006 30.591L19.2376 28.9632ZM19.622 28.7818L18.8536 27.154L19.622 28.7818ZM23.0685 26.6034L21.9245 25.2138L23.0685 26.6034ZM23.7117 26.0739L24.8558 27.4635L23.7117 26.0739ZM26.6784 23.2581L28.0051 24.4745L26.6784 23.2581ZM26.9644 22.9461L25.6377 21.7296L26.9644 22.9461ZM27.2505 22.6341L28.5772 23.8506L27.2505 22.6341ZM30.2666 19.884L29.1796 18.4492L30.2666 19.884ZM30.93 19.3813L29.8431 17.9466L30.93 19.3813ZM34.3285 17.1391L33.4363 15.5758L34.3285 17.1391ZM38.5259 14.5742L37.523 13.0795L38.5259 14.5742ZM39.2181 14.1098L40.221 15.6045L39.2181 14.1098ZM42.5688 11.8041L43.6065 13.275L42.5688 11.8041ZM42.909 11.5641L41.8714 10.0933L42.909 11.5641ZM43.2493 11.3241L44.2869 12.7949L43.2493 11.3241ZM46.5746 8.98473L47.6083 10.4583L46.5746 8.98473ZM46.9155 8.7456L45.8818 7.27202L46.9155 8.7456ZM47.2564 8.50647L48.2901 9.98005L47.2564 8.50647ZM50.4674 6.01529L51.6378 7.38288L50.4674 6.01529ZM50.7843 5.74417L51.9546 7.11177L50.7843 5.74417ZM51.1011 5.47306L49.9307 4.10547L51.1011 5.47306ZM54.2823 3.07115L55.2735 4.57368L54.2823 3.07115ZM54.6171 2.8503L53.626 1.34778L54.6171 2.8503ZM54.9519 2.62946L55.9431 4.13198L54.9519 2.62946ZM57.6562 1.87694L58.1805 0.15499L57.6562 1.87694ZM57.8753 1.94365L58.3996 0.221705L57.8753 1.94365ZM58.0944 2.01037L57.5701 3.73231L58.0944 2.01037ZM59.3821 2.04663L57.944 0.964044L59.3821 2.04663ZM59.4267 1.98734L60.8648 3.06992L59.4267 1.98734ZM59.4713 1.92805L58.0333 0.845468L59.4713 1.92805ZM61.7546 2.96532L60.7818 4.47977L61.1329 4.70532L62.1057 3.19087L63.0786 1.67641L62.7275 1.45087L61.7546 2.96532ZM62.1057 3.19087L61.1329 4.70532C62.1416 5.35332 63.057 6.12785 63.881 7.03294L65.212 5.82121L66.5431 4.60948C65.5109 3.4757 64.3555 2.49666 63.0786 1.67641L62.1057 3.19087ZM65.212 5.82121L63.881 7.03294L64.1661 7.34614L65.4971 6.13441L66.8282 4.92268L66.5431 4.60948L65.212 5.82121ZM65.4971 6.13441L64.1661 7.34614L64.4512 7.65934L65.7823 6.44761L67.1133 5.23588L66.8282 4.92268L65.4971 6.13441ZM65.7823 6.44761L64.4512 7.65934C65.5246 8.83842 66.7741 9.79367 68.1917 10.5182L69.0109 8.91544L69.8301 7.31265C68.799 6.78564 67.896 6.09566 67.1133 5.23588L65.7823 6.44761ZM69.0109 8.91544L68.1917 10.5182L68.5679 10.7105L69.3871 9.1077L70.2063 7.50491L69.8301 7.31265L69.0109 8.91544ZM69.3871 9.1077L68.5679 10.7105L68.9441 10.9027L69.7633 9.29996L70.5824 7.69717L70.2063 7.50491L69.3871 9.1077ZM69.7633 9.29996L68.9441 10.9027C70.1154 11.5014 71.2459 12.1524 72.3358 12.8556L73.3117 11.3431L74.2875 9.83054C73.095 9.06116 71.8599 8.35006 70.5824 7.69717L69.7633 9.29996ZM73.3117 11.3431L72.3358 12.8556L72.6864 13.0818L73.6623 11.5693L74.6381 10.0567L74.2875 9.83054L73.3117 11.3431ZM73.6623 11.5693L72.6864 13.0818L73.037 13.308L74.0129 11.7955L74.9887 10.283L74.6381 10.0567L73.6623 11.5693ZM74.0129 11.7955L73.037 13.308C74.0709 13.975 75.0268 14.7462 75.906 15.6232L77.1772 14.3488L78.4484 13.0744C77.3909 12.0196 76.2373 11.0885 74.9887 10.283L74.0129 11.7955ZM77.1772 14.3488L75.906 15.6232L76.2035 15.9199L77.4747 14.6455L78.7459 13.3712L78.4484 13.0744L77.1772 14.3488ZM77.4747 14.6455L76.2035 15.9199L76.501 16.2167L77.7722 14.9423L79.0434 13.6679L78.7459 13.3712L77.4747 14.6455ZM77.7722 14.9423L76.501 16.2167C77.5251 17.2383 78.6078 18.1844 79.7489 19.0546L80.8404 17.6233L81.9319 16.192C80.9187 15.4193 79.9559 14.5782 79.0434 13.6679L77.7722 14.9423ZM80.8404 17.6233L79.7489 19.0546L80.0798 19.3069L81.1713 17.8756L82.2628 16.4443L81.9319 16.192L80.8404 17.6233ZM81.1713 17.8756L80.0798 19.3069L80.4107 19.5593L81.5022 18.128L82.5937 16.6967L82.2628 16.4443L81.1713 17.8756ZM81.5022 18.128L80.4107 19.5593C81.5526 20.4301 82.7523 21.2228 84.0093 21.9374L84.8989 20.3726L85.7885 18.8078C84.6708 18.1724 83.6061 17.4687 82.5937 16.6967L81.5022 18.128ZM84.8989 20.3726L84.0093 21.9374L84.3741 22.1448L85.2637 20.58L86.1533 19.0152L85.7885 18.8078L84.8989 20.3726ZM85.2637 20.58L84.3741 22.1448L84.7389 22.3522L85.6285 20.7874L86.5181 19.2226L86.1533 19.0152L85.2637 20.58ZM85.6285 20.7874L84.7389 22.3522C85.8334 22.9745 86.859 23.6855 87.8169 24.4856L88.9708 23.1042L90.1248 21.7227C89.0008 20.7839 87.7982 19.9503 86.5181 19.2226L85.6285 20.7874ZM88.9708 23.1042L87.8169 24.4856L88.1367 24.7527L89.2906 23.3713L90.4446 21.9899L90.1248 21.7227L88.9708 23.1042ZM89.2906 23.3713L88.1367 24.7527L88.4565 25.0199L89.6104 23.6384L90.7644 22.257L90.4446 21.9899L89.2906 23.3713ZM89.6104 23.6384L88.4565 25.0199C89.4226 25.827 90.3295 26.717 91.1771 27.6914L92.5352 26.51L93.8932 25.3285C92.923 24.2133 91.88 23.189 90.7644 22.257L89.6104 23.6384ZM92.5352 26.51L91.1771 27.6914L91.4564 28.0124L92.8144 26.831L94.1725 25.6495L93.8932 25.3285L92.5352 26.51ZM92.8144 26.831L91.4564 28.0124L91.7356 28.3334L93.0937 27.152L94.4517 25.9705L94.1725 25.6495L92.8144 26.831ZM93.0937 27.152L91.7356 28.3334C92.8452 29.6088 94.2128 30.5497 95.8103 31.1476L96.4413 29.4618L97.0722 27.776C96.0242 27.3838 95.16 26.7847 94.4517 25.9705L93.0937 27.152ZM96.4413 29.4618L95.8103 31.1476L96.2167 31.2997L96.8477 29.6139L97.4786 27.9281L97.0722 27.776L96.4413 29.4618ZM96.8477 29.6139L96.2167 31.2997L96.6231 31.4518L97.2541 29.766L97.885 28.0802L97.4786 27.9281L96.8477 29.6139ZM97.2541 29.766L96.6231 31.4518C97.7389 31.8694 98.7028 32.4574 99.5313 33.2141L100.745 31.8851L101.959 30.5561C100.778 29.4775 99.4148 28.6527 97.885 28.0802L97.2541 29.766ZM100.745 31.8851L99.5313 33.2141L99.8399 33.4961L101.054 32.1671L102.268 30.838L101.959 30.5561L100.745 31.8851ZM101.054 32.1671L99.8399 33.4961L100.149 33.778L101.363 32.449L102.577 31.12L102.268 30.838L101.054 32.1671ZM101.363 32.449L100.149 33.778C101.247 34.7817 102.442 35.6599 103.729 36.4113L104.636 34.8567L105.544 33.3021C104.475 32.6786 103.487 31.9516 102.577 31.12L101.363 32.449ZM104.636 34.8567L103.729 36.4113L104.091 36.6225L104.998 35.0679L105.906 33.5133L105.544 33.3021L104.636 34.8567ZM104.998 35.0679L104.091 36.6225L104.453 36.8337L105.36 35.2791L106.268 33.7245L105.906 33.5133L104.998 35.0679ZM105.36 35.2791L104.453 36.8337C105.455 37.4186 106.342 38.1584 107.117 39.0611L108.482 37.8884L109.848 36.7157C108.816 35.5144 107.621 34.5146 106.268 33.7245L105.36 35.2791ZM108.482 37.8884L107.117 39.0611L107.394 39.3844L108.76 38.2117L110.126 37.0389L109.848 36.7157L108.482 37.8884ZM108.76 38.2117L107.394 39.3844L107.672 39.7076L109.038 38.5349L110.403 37.3622L110.126 37.0389L108.76 38.2117ZM109.038 38.5349L107.672 39.7076C108.609 40.7986 109.569 41.8224 110.553 42.7784L111.808 41.4873L113.062 40.1962C112.16 39.3197 111.273 38.3753 110.403 37.3622L109.038 38.5349ZM111.808 41.4873L110.553 42.7784L110.843 43.0599L112.097 41.7688L113.352 40.4776L113.062 40.1962L111.808 41.4873ZM112.097 41.7688L110.843 43.0599L111.133 43.3414L112.387 42.0502L113.641 40.7591L113.352 40.4776L112.097 41.7688ZM112.387 42.0502L111.133 43.3414C111.641 43.8348 111.828 44.3672 111.704 45.1454L113.481 45.4297L115.258 45.7141C115.562 43.8187 115.02 42.0981 113.641 40.7591L112.387 42.0502ZM113.481 45.4297L111.704 45.1454L111.638 45.5561L113.415 45.8405L115.193 46.1248L115.258 45.7141L113.481 45.4297ZM113.415 45.8405L111.638 45.5561L111.572 45.9668L113.35 46.2512L115.127 46.5355L115.193 46.1248L113.415 45.8405ZM113.35 46.2512L111.572 45.9668C111.363 47.2726 111.12 48.5768 110.841 49.8794L112.601 50.2556L114.362 50.6319C114.653 49.2688 114.908 47.9033 115.127 46.5355L113.35 46.2512ZM112.601 50.2556L110.841 49.8794L110.754 50.2889L112.514 50.6651L114.274 51.0414L114.362 50.6319L112.601 50.2556ZM112.514 50.6651L110.754 50.2889L110.666 50.6984L112.426 51.0746L114.187 51.4509L114.274 51.0414L112.514 50.6651ZM112.426 51.0746L110.666 50.6984C110.436 51.7739 109.984 52.7836 109.289 53.7375L110.744 54.7973L112.199 55.857C113.178 54.5132 113.847 53.0411 114.187 51.4509L112.426 51.0746ZM110.744 54.7973L109.289 53.7375L109.032 54.0905L110.487 55.1502L111.942 56.21L112.199 55.857L110.744 54.7973ZM110.487 55.1502L109.032 54.0905L108.775 54.4434L110.23 55.5032L111.685 56.563L111.942 56.21L110.487 55.1502ZM110.23 55.5032L108.775 54.4434C107.72 55.8919 107.169 57.5364 107.14 59.3278L108.94 59.3568L110.74 59.3858C110.757 58.3368 111.066 57.4122 111.685 56.563L110.23 55.5032ZM108.94 59.3568L107.14 59.3278L107.133 59.7641L108.933 59.7932L110.733 59.8222L110.74 59.3858L108.94 59.3568ZM108.933 59.7932L107.133 59.7641L107.126 60.2005L108.926 60.2295L110.726 60.2585L110.733 59.8222L108.933 59.7932ZM108.926 60.2295L107.126 60.2005C107.108 61.3453 106.841 62.3801 106.334 63.332L107.922 64.1785L109.511 65.025C110.296 63.5519 110.698 61.9541 110.726 60.2585L108.926 60.2295ZM107.922 64.1785L106.334 63.332L106.135 63.7045L107.724 64.551L109.312 65.3975L109.511 65.025L107.922 64.1785ZM107.724 64.551L106.135 63.7045L105.937 64.077L107.525 64.9235L109.114 65.77L109.312 65.3975L107.724 64.551ZM107.525 64.9235L105.937 64.077C105.217 65.4284 104.686 66.8475 104.346 68.3306L106.101 68.7321L107.856 69.1337C108.123 67.9635 108.542 66.8435 109.114 65.77L107.525 64.9235ZM106.101 68.7321L104.346 68.3306L104.253 68.7382L106.008 69.1397L107.762 69.5413L107.856 69.1337L106.101 68.7321ZM106.008 69.1397L104.253 68.7382L104.16 69.1458L105.914 69.5473L107.669 69.9488L107.762 69.5413L106.008 69.1397ZM105.914 69.5473L104.16 69.1458C103.904 70.2623 103.457 71.3191 102.809 72.3227L104.32 73.2995L105.832 74.2763C106.702 72.9303 107.317 71.4856 107.669 69.9488L105.914 69.5473ZM104.32 73.2995L102.809 72.3227L102.575 72.6836L104.087 73.6604L105.599 74.6372L105.832 74.2763L104.32 73.2995ZM104.087 73.6604L102.575 72.6836L102.342 73.0446L103.854 74.0214L105.366 74.9982L105.599 74.6372L104.087 73.6604ZM103.854 74.0214L102.342 73.0446C101.391 74.517 100.916 76.159 100.916 77.9259L102.716 77.9255L104.516 77.9251C104.516 76.8362 104.799 75.8754 105.366 74.9982L103.854 74.0214ZM102.716 77.9255L100.916 77.9259L100.916 78.3647L102.716 78.3642L104.516 78.3638L104.516 77.9251L102.716 77.9255ZM102.716 78.3642L100.916 78.3647L100.916 78.8034L102.716 78.8029L104.516 78.8025L104.516 78.3638L102.716 78.3642ZM102.716 78.8029L100.916 78.8034C100.917 79.9937 100.689 81.0812 100.246 82.0858L101.893 82.8121L103.54 83.5384C104.195 82.0533 104.517 80.4681 104.516 78.8025L102.716 78.8029ZM101.893 82.8121L100.246 82.0858L100.078 82.4682L101.725 83.1946L103.372 83.9209L103.54 83.5384L101.893 82.8121ZM101.725 83.1946L100.078 82.4682L99.909 82.8507L101.556 83.577L103.203 84.3033L103.372 83.9209L101.725 83.1946ZM101.556 83.577L99.909 82.8507C99.3467 84.1256 98.8207 85.4128 98.331 86.7123L100.015 87.347L101.7 87.9817C102.166 86.7442 102.667 85.5181 103.203 84.3033L101.556 83.577ZM100.015 87.347L98.331 86.7123L98.1842 87.102L99.8686 87.7367L101.553 88.3714L101.7 87.9817L100.015 87.347ZM99.8686 87.7367L98.1842 87.102L98.0373 87.4917L99.7217 88.1264L101.406 88.7611L101.553 88.3714L99.8686 87.7367ZM99.7217 88.1264L98.0373 87.4917C97.5448 88.7987 97.0977 90.1208 96.6959 91.4581L98.4198 91.976L100.144 92.4939C100.522 91.2354 100.943 89.9912 101.406 88.7611L99.7217 88.1264ZM98.4198 91.976L96.6959 91.4581L96.5761 91.8568L98.3 92.3747L100.024 92.8926L100.144 92.4939L98.4198 91.976ZM98.3 92.3747L96.5761 91.8568L96.4564 92.2555L98.1802 92.7735L99.9041 93.2914L100.024 92.8926L98.3 92.3747ZM98.1802 92.7735L96.4564 92.2555C96.1106 93.4063 95.6197 94.5126 94.9798 95.5765L96.5223 96.5043L98.0647 97.4321C98.8556 96.1173 99.47 94.7363 99.9041 93.2914L98.1802 92.7735ZM96.5223 96.5043L94.9798 95.5765L94.76 95.9419L96.3025 96.8697L97.845 97.7975L98.0647 97.4321L96.5223 96.5043ZM96.3025 96.8697L94.76 95.9419L94.5402 96.3073L96.0827 97.2351L97.6252 98.1629L97.845 97.7975L96.3025 96.8697ZM96.0827 97.2351L94.5402 96.3073C93.7075 97.6918 93.1605 99.1821 92.9064 100.767L94.6837 101.052L96.4611 101.337C96.6414 100.212 97.0271 99.1572 97.6252 98.1629L96.0827 97.2351ZM94.6837 101.052L92.9064 100.767L92.8397 101.184L94.617 101.469L96.3943 101.754L96.4611 101.337L94.6837 101.052ZM94.617 101.469L92.8397 101.184L92.7729 101.6L94.5503 101.885L96.3276 102.17L96.3943 101.754L94.617 101.469ZM94.5503 101.885L92.7729 101.6C92.5933 102.721 92.2122 103.729 91.6325 104.642L93.152 105.607L94.6716 106.572C95.5217 105.233 96.0727 103.76 96.3276 102.17L94.5503 101.885ZM93.152 105.607L91.6325 104.642L91.4128 104.988L92.9324 105.953L94.452 106.918L94.6716 106.572L93.152 105.607ZM92.9324 105.953L91.4128 104.988L91.1932 105.334L92.7128 106.299L94.2324 107.264L94.452 106.918L92.9324 105.953ZM92.7128 106.299L91.1932 105.334C90.9909 105.653 90.8043 105.789 90.6565 105.856C90.505 105.924 90.259 105.981 89.845 105.924L89.5996 107.707L89.3542 109.49C90.3008 109.621 91.2539 109.536 92.1401 109.136C93.03 108.733 93.7198 108.071 94.2324 107.264L92.7128 106.299ZM89.5996 107.707L89.845 105.924L89.427 105.867L89.1816 107.65L88.9362 109.433L89.3542 109.49L89.5996 107.707ZM89.1816 107.65L89.427 105.867L89.009 105.809L88.7636 107.592L88.5183 109.375L88.9362 109.433L89.1816 107.65ZM88.7636 107.592L89.009 105.809C87.4043 105.588 85.8038 105.695 84.2215 106.123L84.691 107.86L85.1605 109.598C86.2874 109.294 87.4019 109.222 88.5183 109.375L88.7636 107.592ZM84.691 107.86L84.2215 106.123L83.8054 106.235L84.2749 107.973L84.7443 109.71L85.1605 109.598L84.691 107.86ZM84.2749 107.973L83.8054 106.235L83.3892 106.347L83.8587 108.085L84.3282 109.823L84.7443 109.71L84.2749 107.973ZM83.8587 108.085L83.3892 106.347C82.2323 106.66 81.09 106.762 79.953 106.662L79.795 108.455L79.6371 110.248C81.2091 110.387 82.776 110.242 84.3282 109.823L83.8587 108.085ZM79.795 108.455L79.953 106.662L79.5368 106.625L79.3789 108.418L79.2209 110.212L79.6371 110.248L79.795 108.455ZM79.3789 108.418L79.5368 106.625L79.1207 106.589L78.9627 108.382L78.8048 110.175L79.2209 110.212L79.3789 108.418ZM78.9627 108.382L79.1207 106.589C77.7747 106.47 76.4287 106.342 75.0827 106.204L74.899 107.994L74.7153 109.785C76.0785 109.925 77.4416 110.055 78.8048 110.175L78.9627 108.382ZM74.899 107.994L75.0827 106.204L74.6666 106.161L74.4829 107.952L74.2992 109.742L74.7153 109.785L74.899 107.994ZM74.4829 107.952L74.6666 106.161L74.2504 106.118L74.0667 107.909L73.883 109.7L74.2992 109.742L74.4829 107.952ZM74.0667 107.909L74.2504 106.118C72.7478 105.964 71.2446 105.996 69.7443 106.214L70.003 107.996L70.2618 109.777C71.4706 109.601 72.6765 109.576 73.883 109.7L74.0667 107.909ZM70.003 107.996L69.7443 106.214L69.3281 106.275L69.5869 108.056L69.8456 109.837L70.2618 109.777L70.003 107.996ZM69.5869 108.056L69.3281 106.275L68.9119 106.335L69.1707 108.117L69.4295 109.898L69.8456 109.837L69.5869 108.056ZM69.1707 108.117L68.9119 106.335C67.635 106.521 66.3596 106.621 65.0852 106.637L65.107 108.436L65.1289 110.236C66.5636 110.219 67.9973 110.106 69.4295 109.898L69.1707 108.117ZM65.107 108.436L65.0852 106.637L64.669 106.642L64.6909 108.442L64.7127 110.241L65.1289 110.236L65.107 108.436ZM64.6909 108.442L64.669 106.642L64.2528 106.647L64.2747 108.447L64.2966 110.246L64.7127 110.241L64.6909 108.442ZM64.2747 108.447L64.2528 106.647C63.0536 106.661 61.8495 106.523 60.6373 106.227L60.211 107.976L59.7847 109.725C61.2816 110.09 62.7867 110.265 64.2966 110.246L64.2747 108.447ZM60.211 107.976L60.6373 106.227L60.2212 106.126L59.7949 107.875L59.3686 109.623L59.7847 109.725L60.211 107.976ZM59.7949 107.875L60.2212 106.126L59.805 106.024L59.3787 107.773L58.9524 109.522L59.3686 109.623L59.7949 107.875ZM59.3787 107.773L59.805 106.024C58.1184 105.613 56.4236 105.685 54.7584 106.227L55.315 107.939L55.8716 109.65C56.9156 109.311 57.9299 109.273 58.9524 109.522L59.3787 107.773ZM55.315 107.939L54.7584 106.227L54.3422 106.362L54.8989 108.074L55.4555 109.786L55.8716 109.65L55.315 107.939ZM54.8989 108.074L54.3422 106.362L53.9261 106.497L54.4827 108.209L55.0393 109.921L55.4555 109.786L54.8989 108.074ZM54.4827 108.209L53.9261 106.497C52.9146 106.826 51.9323 106.839 50.9299 106.542L50.419 108.268L49.9082 109.994C51.6149 110.5 53.3416 110.473 55.0393 109.921L54.4827 108.209ZM50.419 108.268L50.9299 106.542L50.5137 106.419L50.0029 108.145L49.492 109.871L49.9082 109.994L50.419 108.268ZM50.0029 108.145L50.5137 106.419L50.0976 106.296L49.5867 108.022L49.0758 109.748L49.492 109.871L50.0029 108.145ZM49.5867 108.022L50.0976 106.296C48.5586 105.841 47.0034 105.644 45.44 105.716L45.523 107.515L45.606 109.313C46.7517 109.26 47.9057 109.402 49.0758 109.748L49.5867 108.022ZM45.523 107.515L45.44 105.716L45.0238 105.736L45.1069 107.534L45.1899 109.332L45.606 109.313L45.523 107.515ZM45.1069 107.534L45.0238 105.736L44.6077 105.755L44.6907 107.553L44.7737 109.351L45.1899 109.332L45.1069 107.534ZM44.6907 107.553L44.6077 105.755C43.1156 105.824 41.6293 106.063 40.151 106.468L40.627 108.204L41.103 109.94C42.3339 109.602 43.5567 109.407 44.7737 109.351L44.6907 107.553ZM40.627 108.204L40.151 106.468L39.7349 106.582L40.2109 108.318L40.6869 110.054L41.103 109.94L40.627 108.204ZM40.2109 108.318L39.7349 106.582L39.3187 106.696L39.7947 108.432L40.2707 110.168L40.6869 110.054L40.2109 108.318ZM39.7947 108.432L39.3187 106.696C38.1171 107.026 36.9264 107.184 35.7425 107.176L35.731 108.976L35.7195 110.776C37.2447 110.786 38.7632 110.581 40.2707 110.168L39.7947 108.432ZM35.731 108.976L35.7425 107.176L35.3264 107.174L35.3149 108.974L35.3034 110.774L35.7195 110.776L35.731 108.976ZM35.3149 108.974L35.3264 107.174L34.9102 107.171L34.8987 108.971L34.8872 110.771L35.3034 110.774L35.3149 108.974ZM34.8987 108.971L34.9102 107.171C33.7111 107.163 32.5062 107.002 31.2922 106.683L30.835 108.424L30.3778 110.165C31.8729 110.558 33.3772 110.761 34.8872 110.771L34.8987 108.971ZM30.835 108.424L31.2922 106.683L30.8761 106.574L30.4189 108.315L29.9617 110.056L30.3778 110.165L30.835 108.424ZM30.4189 108.315L30.8761 106.574L30.4599 106.465L30.0027 108.206L29.5455 109.947L29.9617 110.056L30.4189 108.315ZM30.0027 108.206L30.4599 106.465C29.0566 106.096 27.6955 105.802 26.3773 105.584L26.0837 107.36L25.7902 109.136C26.9881 109.334 28.2397 109.604 29.5455 109.947L30.0027 108.206ZM26.0837 107.36L26.3773 105.584L25.9908 105.52L25.6972 107.296L25.4036 109.072L25.7902 109.136L26.0837 107.36ZM25.6972 107.296L25.9908 105.52L25.6042 105.457L25.3107 107.232L25.0171 109.008L25.4036 109.072L25.6972 107.296ZM25.3107 107.232L25.6042 105.457C24.9968 105.356 24.5944 105.069 24.2914 104.354L22.6338 105.055L20.9763 105.757C21.7262 107.528 23.1084 108.693 25.0171 109.008L25.3107 107.232ZM22.6338 105.055L24.2914 104.354L24.1296 103.972L22.4721 104.673L20.8145 105.375L20.9763 105.757L22.6338 105.055ZM22.4721 104.673L24.1296 103.972L23.9678 103.589L22.3103 104.291L20.6528 104.993L20.8145 105.375L22.4721 104.673ZM22.3103 104.291L23.9678 103.589C23.4672 102.407 23.0322 101.198 22.6628 99.9617L20.9382 100.477L19.2135 100.992C19.6206 102.355 20.1004 103.689 20.6528 104.993L22.3103 104.291ZM20.9382 100.477L22.6628 99.9617L22.5435 99.5624L20.8189 100.078L19.0942 100.593L19.2135 100.992L20.9382 100.477ZM20.8189 100.078L22.5435 99.5624L22.4242 99.1632L20.6996 99.6786L18.9749 100.194L19.0942 100.593L20.8189 100.078ZM20.6996 99.6786L22.4242 99.1632C22.034 97.8573 21.6366 96.554 21.2318 95.2532L19.5131 95.788L17.7944 96.3227C18.1951 97.6106 18.5886 98.901 18.9749 100.194L20.6996 99.6786ZM19.5131 95.788L21.2318 95.2532L21.1081 94.8555L19.3894 95.3903L17.6707 95.9251L17.7944 96.3227L19.5131 95.788ZM19.3894 95.3903L21.1081 94.8555L20.9844 94.4579L19.2657 94.9927L17.5469 95.5274L17.6707 95.9251L19.3894 95.3903ZM19.2657 94.9927L20.9844 94.4579C20.5858 93.1768 20.2017 91.8905 19.8323 90.599L18.1017 91.0941L16.3711 91.5892C16.7482 92.9072 17.1401 94.2199 17.5469 95.5274L19.2657 94.9927ZM18.1017 91.0941L19.8323 90.599L19.7176 90.1982L17.987 90.6933L16.2565 91.1883L16.3711 91.5892L18.1017 91.0941ZM17.987 90.6933L19.7176 90.1982L19.6029 89.7973L17.8724 90.2924L16.1418 90.7875L16.2565 91.1883L17.987 90.6933ZM17.8724 90.2924L19.6029 89.7973C19.1795 88.3171 18.5391 86.9178 17.688 85.6032L16.177 86.5814L14.666 87.5596C15.3289 88.5836 15.8187 89.6583 16.1418 90.7875L17.8724 90.2924ZM16.177 86.5814L17.688 85.6032L17.4555 85.244L15.9445 86.2222L14.4335 87.2004L14.666 87.5596L16.177 86.5814ZM15.9445 86.2222L17.4555 85.244L17.2229 84.8848L15.7119 85.8629L14.2009 86.8411L14.4335 87.2004L15.9445 86.2222ZM15.7119 85.8629L17.2229 84.8848C16.569 83.8746 16.1013 82.8099 15.8125 81.6856L14.0691 82.1334L12.3257 82.5811C12.7134 84.091 13.341 85.5127 14.2009 86.8411L15.7119 85.8629ZM14.0691 82.1334L15.8125 81.6856L15.7086 81.281L13.9652 81.7288L12.2218 82.1765L12.3257 82.5811L14.0691 82.1334ZM13.9652 81.7288L15.7086 81.281L15.6047 80.8764L13.8613 81.3241L12.1178 81.7719L12.2218 82.1765L13.9652 81.7288ZM13.8613 81.3241L15.6047 80.8764C15.2315 79.4232 14.6935 78.0282 13.9924 76.6937L12.3989 77.5309L10.8055 78.3681C11.3776 79.4571 11.8145 80.5909 12.1178 81.7719L13.8613 81.3241ZM12.3989 77.5309L13.9924 76.6937L13.7968 76.3214L12.2033 77.1586L10.6099 77.9958L10.8055 78.3681L12.3989 77.5309ZM12.2033 77.1586L13.7968 76.3214L13.6012 75.9491L12.0077 76.7863L10.4143 77.6235L10.6099 77.9958L12.2033 77.1586ZM12.0077 76.7863L13.6012 75.9491C13.0629 74.9246 12.7145 73.8346 12.5553 72.6694L10.7719 72.9131L8.98844 73.1568C9.20374 74.7324 9.67924 76.2245 10.4143 77.6235L12.0077 76.7863ZM10.7719 72.9131L12.5553 72.6694L12.4978 72.2484L10.7143 72.4921L8.93091 72.7358L8.98844 73.1568L10.7719 72.9131ZM10.7143 72.4921L12.4978 72.2484L12.4402 71.8274L10.6568 72.0711L8.87337 72.3148L8.93091 72.7358L10.7143 72.4921ZM10.6568 72.0711L12.4402 71.8274C12.2327 70.3085 11.8418 68.8477 11.2663 67.4492L9.60171 68.1341L7.93713 68.8191C8.39391 69.9292 8.70641 71.093 8.87337 72.3148L10.6568 72.0711ZM9.60171 68.1341L11.2663 67.4492L11.1077 67.0638L9.44314 67.7488L7.77856 68.4337L7.93713 68.8191L9.60171 68.1341ZM9.44314 67.7488L11.1077 67.0638L10.9492 66.6785L9.28457 67.3634L7.61999 68.0484L7.77856 68.4337L9.44314 67.7488ZM9.28457 67.3634L10.9492 66.6785C10.4439 65.4506 9.96856 64.2123 9.5231 62.9635L7.82773 63.5683L6.13236 64.173C6.5971 65.4758 7.09298 66.7676 7.61999 68.0484L9.28457 67.3634ZM7.82773 63.5683L9.5231 62.9635L9.38328 62.5715L7.68791 63.1763L5.99254 63.781L6.13236 64.173L7.82773 63.5683ZM7.68791 63.1763L9.38328 62.5715L9.24346 62.1796L7.54809 62.7843L5.85272 63.3891L5.99254 63.781L7.68791 63.1763ZM7.54809 62.7843L9.24346 62.1796C8.77121 60.8556 8.2427 59.5518 7.65804 58.2682L6.01995 59.0143L4.38187 59.7604C4.92453 60.9518 5.41478 62.1613 5.85272 63.3891L7.54809 62.7843ZM6.01995 59.0143L7.65804 58.2682L7.48486 57.888L5.84678 58.6341L4.2087 59.3802L4.38187 59.7604L6.01995 59.0143ZM5.84678 58.6341L7.48486 57.888L7.31169 57.5078L5.67361 58.2539L4.03553 59L4.2087 59.3802L5.84678 58.6341ZM5.67361 58.2539L7.31169 57.5078C6.77858 56.3373 6.32025 55.1411 5.93648 53.9187L4.21912 54.4579L2.50177 54.9971C2.92999 56.361 3.44132 57.6954 4.03553 59L5.67361 58.2539ZM4.21912 54.4579L5.93648 53.9187L5.81174 53.5214L4.09439 54.0606L2.37704 54.5998L2.50177 54.9971L4.21912 54.4579ZM4.09439 54.0606L5.81174 53.5214L5.68701 53.1241L3.96966 53.6633L2.25231 54.2025L2.37704 54.5998L4.09439 54.0606ZM3.96966 53.6633L5.68701 53.1241C5.28137 51.8321 4.87697 50.5396 4.47381 49.2467L2.75541 49.7825L1.03702 50.3183C1.44087 51.6135 1.84596 52.9082 2.25231 54.2025L3.96966 53.6633ZM2.75541 49.7825L4.47381 49.2467L4.34984 48.8491L2.63145 49.3849L0.913047 49.9208L1.03702 50.3183L2.75541 49.7825ZM2.63145 49.3849L4.34984 48.8491L4.22588 48.4515L2.50748 48.9874L0.789079 49.5232L0.913047 49.9208L2.63145 49.3849ZM2.50748 48.9874L4.22588 48.4515C3.86849 47.3054 3.67176 46.161 3.63083 45.0145L1.83197 45.0787L0.03312 45.1429C0.0858529 46.6199 0.339461 48.0813 0.789079 49.5232L2.50748 48.9874ZM1.83197 45.0787L3.63083 45.0145L3.61644 44.6115L1.81759 44.6757L0.0187317 44.7399L0.03312 45.1429L1.83197 45.0787ZM1.81759 44.6757L3.61644 44.6115L3.60205 44.2085L1.8032 44.2727L0.00434333 44.3369L0.0187317 44.7399L1.81759 44.6757ZM1.8032 44.2727L3.60205 44.2085C3.57427 43.4304 3.82427 42.7972 4.44874 42.2011L3.20585 40.8991L1.96296 39.5971C0.623557 40.8757 -0.0615414 42.4916 0.00434333 44.3369L1.8032 44.2727ZM3.20585 40.8991L4.44874 42.2011L4.75042 41.9131L3.50753 40.6111L2.26464 39.3091L1.96296 39.5971L3.20585 40.8991ZM3.50753 40.6111L4.75042 41.9131L5.0521 41.6251L3.80921 40.3231L2.56632 39.0211L2.26464 39.3091L3.50753 40.6111ZM3.80921 40.3231L5.0521 41.6251C6.00882 40.7119 6.991 39.8274 7.99867 38.9716L6.83351 37.5996L5.66835 36.2276C4.60749 37.1285 3.57346 38.0597 2.56632 39.0211L3.80921 40.3231ZM6.83351 37.5996L7.99867 38.9716L8.31642 38.7017L7.15126 37.3297L5.9861 35.9577L5.66835 36.2276L6.83351 37.5996ZM7.15126 37.3297L8.31642 38.7017L8.63418 38.4319L7.46902 37.0599L6.30386 35.6879L5.9861 35.9577L7.15126 37.3297ZM7.46902 37.0599L8.63418 38.4319C9.63611 37.581 10.6659 36.7674 11.7236 35.9909L10.6584 34.5399L9.59323 33.0889C8.46693 33.9157 7.37045 34.7821 6.30386 35.6879L7.46902 37.0599ZM10.6584 34.5399L11.7236 35.9909L12.0591 35.7446L10.9939 34.2936L9.92873 32.8426L9.59323 33.0889L10.6584 34.5399ZM10.9939 34.2936L12.0591 35.7446L12.3946 35.4983L11.3294 34.0473L10.2642 32.5963L9.92873 32.8426L10.9939 34.2936ZM11.3294 34.0473L12.3946 35.4983C13.4763 34.7042 14.5666 33.9215 15.6655 33.1501L14.6313 31.6768L13.5971 30.2036C12.4774 30.9896 11.3665 31.7872 10.2642 32.5963L11.3294 34.0473ZM14.6313 31.6768L15.6655 33.1501L16.0063 32.9108L14.9721 31.4376L13.9379 29.9643L13.5971 30.2036L14.6313 31.6768ZM14.9721 31.4376L16.0063 32.9108L16.3471 32.6716L15.3129 31.1983L14.2787 29.7251L13.9379 29.9643L14.9721 31.4376ZM15.3129 31.1983L16.3471 32.6716C17.3706 31.9531 18.4616 31.3199 19.6216 30.7724L18.8533 29.1446L18.085 27.5168C16.743 28.1502 15.4738 28.8862 14.2787 29.7251L15.3129 31.1983ZM18.8533 29.1446L19.6216 30.7724L20.006 30.591L19.2376 28.9632L18.4693 27.3354L18.085 27.5168L18.8533 29.1446ZM19.2376 28.9632L20.006 30.591L20.3903 30.4096L19.622 28.7818L18.8536 27.154L18.4693 27.3354L19.2376 28.9632ZM19.622 28.7818L20.3903 30.4096C21.7731 29.7568 23.0486 28.9513 24.2126 27.9931L23.0685 26.6034L21.9245 25.2138C20.995 25.979 19.9727 26.6258 18.8536 27.154L19.622 28.7818ZM23.0685 26.6034L24.2126 27.9931L24.5342 27.7283L23.3901 26.3387L22.2461 24.949L21.9245 25.2138L23.0685 26.6034ZM23.3901 26.3387L24.5342 27.7283L24.8558 27.4635L23.7117 26.0739L22.5676 24.6843L22.2461 24.949L23.3901 26.3387ZM23.7117 26.0739L24.8558 27.4635C25.9684 26.5475 27.0182 25.5509 28.0051 24.4745L26.6784 23.2581L25.3516 22.0416C24.4765 22.9961 23.5485 23.8767 22.5676 24.6843L23.7117 26.0739ZM26.6784 23.2581L28.0051 24.4745L28.2912 24.1625L26.9644 22.9461L25.6377 21.7296L25.3516 22.0416L26.6784 23.2581ZM26.9644 22.9461L28.2912 24.1625L28.5772 23.8506L27.2505 22.6341L25.9237 21.4177L25.6377 21.7296L26.9644 22.9461ZM27.2505 22.6341L28.5772 23.8506C29.4363 22.9136 30.3616 22.0702 31.3536 21.3187L30.2666 19.884L29.1796 18.4492C28.0121 19.3337 26.9267 20.3237 25.9237 21.4177L27.2505 22.6341ZM30.2666 19.884L31.3536 21.3187L31.6853 21.0674L30.5983 19.6327L29.5113 18.1979L29.1796 18.4492L30.2666 19.884ZM30.5983 19.6327L31.6853 21.0674L32.017 20.8161L30.93 19.3813L29.8431 17.9466L29.5113 18.1979L30.5983 19.6327ZM30.93 19.3813L32.017 20.8161C33.0341 20.0455 34.1018 19.341 35.2207 18.7025L34.3285 17.1391L33.4363 15.5758C32.1833 16.2909 30.9853 17.0812 29.8431 17.9466L30.93 19.3813ZM34.3285 17.1391L35.2207 18.7025L35.5851 18.4945L34.6929 16.9312L33.8007 15.3679L33.4363 15.5758L34.3285 17.1391ZM34.6929 16.9312L35.5851 18.4945L35.9494 18.2866L35.0573 16.7233L34.1651 15.1599L33.8007 15.3679L34.6929 16.9312ZM35.0573 16.7233L35.9494 18.2866C37.1729 17.5884 38.3661 16.8492 39.5288 16.0689L38.5259 14.5742L37.523 13.0795C36.4328 13.811 35.3136 14.5045 34.1651 15.1599L35.0573 16.7233ZM38.5259 14.5742L39.5288 16.0689L39.8749 15.8367L38.872 14.342L37.8691 12.8473L37.523 13.0795L38.5259 14.5742ZM38.872 14.342L39.8749 15.8367L40.221 15.6045L39.2181 14.1098L38.2151 12.6151L37.8691 12.8473L38.872 14.342ZM39.2181 14.1098L40.221 15.6045C41.3591 14.8408 42.4876 14.0643 43.6065 13.275L42.5688 11.8041L41.5312 10.3333C40.4353 11.1065 39.33 11.8671 38.2151 12.6151L39.2181 14.1098ZM42.5688 11.8041L43.6065 13.275L43.9467 13.0349L42.909 11.5641L41.8714 10.0933L41.5312 10.3333L42.5688 11.8041ZM42.909 11.5641L43.9467 13.0349L44.2869 12.7949L43.2493 11.3241L42.2116 9.8533L41.8714 10.0933L42.909 11.5641ZM43.2493 11.3241L44.2869 12.7949C45.393 12.0146 46.5001 11.2357 47.6083 10.4583L46.5746 8.98473L45.5409 7.51115C44.43 8.29042 43.3203 9.07114 42.2116 9.8533L43.2493 11.3241ZM46.5746 8.98473L47.6083 10.4583L47.9492 10.2192L46.9155 8.7456L45.8818 7.27202L45.5409 7.51115L46.5746 8.98473ZM46.9155 8.7456L47.9492 10.2192L48.2901 9.98005L47.2564 8.50647L46.2227 7.03289L45.8818 7.27202L46.9155 8.7456ZM47.2564 8.50647L48.2901 9.98005C49.4469 9.16854 50.5629 8.30277 51.6378 7.38288L50.4674 6.01529L49.2971 4.6477C48.3097 5.4927 47.2849 6.28771 46.2227 7.03289L47.2564 8.50647ZM50.4674 6.01529L51.6378 7.38288L51.9546 7.11177L50.7843 5.74417L49.6139 4.37658L49.2971 4.6477L50.4674 6.01529ZM50.7843 5.74417L51.9546 7.11177L52.2714 6.84065L51.1011 5.47306L49.9307 4.10547L49.6139 4.37658L50.7843 5.74417ZM51.1011 5.47306L52.2714 6.84065C53.2479 6.00495 54.2487 5.2497 55.2735 4.57368L54.2823 3.07115L53.2912 1.56862C52.1366 2.33026 51.0165 3.17628 49.9307 4.10547L51.1011 5.47306ZM54.2823 3.07115L55.2735 4.57368L55.6083 4.35283L54.6171 2.8503L53.626 1.34778L53.2912 1.56862L54.2823 3.07115ZM54.6171 2.8503L55.6083 4.35283L55.9431 4.13198L54.9519 2.62946L53.9607 1.12693L53.626 1.34778L54.6171 2.8503ZM54.9519 2.62946L55.9431 4.13198C56.3884 3.83824 56.7133 3.696 56.9278 3.63632C57.1324 3.57939 57.1772 3.6127 57.1319 3.59888L57.6562 1.87694L58.1805 0.15499C56.6757 -0.303193 55.1777 0.324134 53.9607 1.12693L54.9519 2.62946ZM57.6562 1.87694L57.1319 3.59888L57.351 3.6656L57.8753 1.94365L58.3996 0.221705L58.1805 0.15499L57.6562 1.87694ZM57.8753 1.94365L57.351 3.6656L57.5701 3.73231L58.0944 2.01037L58.6187 0.28842L58.3996 0.221705L57.8753 1.94365ZM58.0944 2.01037L57.5701 3.73231C57.9854 3.85875 58.4495 3.96888 58.9005 3.98158C59.2579 3.99164 60.1965 3.9576 60.8201 3.12921L59.3821 2.04663L57.944 0.964044C58.1838 0.645497 58.4824 0.49801 58.6793 0.436007C58.8611 0.378765 58.987 0.382588 59.0019 0.383008C59.0237 0.383621 58.9166 0.37913 58.6187 0.28842L58.0944 2.01037ZM59.3821 2.04663L60.8201 3.12921L60.8648 3.06992L59.4267 1.98734L57.9886 0.904756L57.944 0.964044L59.3821 2.04663ZM59.4267 1.98734L60.8648 3.06992L60.9094 3.01063L59.4713 1.92805L58.0333 0.845468L57.9886 0.904756L59.4267 1.98734ZM59.4713 1.92805L60.9094 3.01063C60.655 3.34857 60.3229 3.52844 60.0434 3.60823C59.7896 3.6807 59.5878 3.67046 59.4977 3.6616C59.3304 3.64515 59.2653 3.60339 59.3662 3.64575C59.5403 3.71893 59.8813 3.90132 60.4306 4.25423L61.4035 2.73978L62.3763 1.22532C61.7829 0.844107 61.2304 0.524147 60.7605 0.32675C60.5393 0.233825 60.2145 0.114717 59.8499 0.0788709C59.5415 0.0485537 58.644 0.0342513 58.0333 0.845468L59.4713 1.92805ZM61.4035 2.73978L60.4306 4.25423L60.7818 4.47977L61.7546 2.96532L62.7275 1.45087L62.3763 1.22532L61.4035 2.73978Z" fill="#F3ACB1"/>
</g>
</svg>
