<svg width="76" height="32" viewBox="0 0 76 32" fill="none" xmlns="http://www.w3.org/2000/svg">
<path d="M40.1101 4.43977C40.069 4.20422 39.9889 3.98418 39.8699 3.77965L39.513 3.16607C39.394 2.96155 39.3516 2.85248 39.3857 2.83887L39.4881 2.79805C39.5222 2.78444 39.4508 2.70651 39.274 2.56425L38.7435 2.13748C38.5667 1.99522 38.375 1.96337 38.1684 2.04191L37.5488 2.27754C37.3423 2.35608 37.1839 2.48507 37.0736 2.66451L36.7426 3.20282C36.6323 3.38225 36.5049 3.56916 36.3605 3.76353L35.9271 4.34663C35.7827 4.541 35.6587 4.74352 35.5551 4.95418L35.2443 5.58618C35.1407 5.79684 35.0495 6.01243 34.9706 6.23295L34.734 6.8945C34.6551 7.11502 34.6006 7.34526 34.5705 7.58524L34.4803 8.30516C34.4502 8.54513 34.3514 8.74218 34.184 8.8963L33.6817 9.35866C33.5143 9.51278 33.3221 9.63515 33.1051 9.72578L32.4542 9.99766C32.2372 10.0883 32.0122 10.1462 31.7791 10.1713L31.0797 10.2467C30.8466 10.2719 30.6122 10.278 30.3763 10.2651L29.6689 10.2265C29.4331 10.2137 29.1983 10.2157 28.9646 10.2327L28.2635 10.2835C28.0298 10.3004 27.7948 10.2979 27.5583 10.2759L26.8489 10.21C26.6124 10.188 26.3869 10.236 26.1723 10.3539L25.5285 10.7077C25.3139 10.8257 25.185 11.0079 25.1418 11.2545L25.0122 11.9942C24.969 12.2408 25.0408 12.4436 25.2276 12.6025L25.7881 13.0792C25.9749 13.2381 26.1524 13.3994 26.3205 13.5632L26.8249 14.0545C26.993 14.2183 27.1564 14.3877 27.315 14.5626L27.7909 15.0873C27.9495 15.2623 28.1325 15.4086 28.3399 15.5263L28.9619 15.8794C29.1692 15.9971 29.3546 16.1407 29.5179 16.3101L30.0079 16.8183C30.1712 16.9877 30.323 17.1582 30.4631 17.3298L30.8836 17.8445C31.0238 18.0161 31.0515 18.2108 30.9668 18.4287L30.7126 19.0824C30.6279 19.3003 30.5901 19.5309 30.5994 19.7741L30.6273 20.5039C30.6365 20.7471 30.5823 20.9748 30.4645 21.1868L30.1111 21.823C29.9933 22.035 29.9232 22.2588 29.9008 22.4943L29.8338 23.2008C29.8115 23.4363 29.7841 23.6705 29.7518 23.9036L29.6549 24.6027C29.6227 24.8357 29.6215 25.0577 29.6515 25.2686L29.7414 25.9012C29.7714 26.1121 29.8816 26.2915 30.0721 26.4395L30.6436 26.8834C30.834 27.0314 31.0335 27.0385 31.2419 26.9048L31.8671 26.5035C32.0755 26.3698 32.2773 26.2381 32.4724 26.1086L33.058 25.7199C33.2532 25.5903 33.4643 25.4858 33.6912 25.4063L34.3719 25.1679C34.5988 25.0884 34.7902 24.9529 34.9463 24.7615L35.4143 24.1873C35.5703 23.9959 35.7638 23.8636 35.9948 23.7906L36.6878 23.5715C36.9187 23.4984 37.1401 23.4046 37.3519 23.29L37.9872 22.9463C38.1989 22.8317 38.3973 22.8567 38.5824 23.0214L39.1375 23.5154C39.3225 23.68 39.5211 23.8138 39.7332 23.9166L40.3696 24.2251C40.5817 24.3279 40.7871 24.4414 40.9857 24.5655L41.5816 24.9378C41.7803 25.0619 41.9657 25.2069 42.138 25.3727L42.6547 25.8701C42.8269 26.0359 43.0276 26.1568 43.2567 26.2328L43.944 26.4609C44.1731 26.5369 44.3961 26.5907 44.6132 26.6221L45.2643 26.7165C45.4814 26.7479 45.6778 26.6817 45.8535 26.5179L46.3807 26.0264C46.5564 25.8626 46.6235 25.6606 46.5818 25.4204L46.4567 24.6997C46.415 24.4595 46.3616 24.2269 46.2965 24.0019L46.1013 23.3269C46.0362 23.1019 45.9702 22.8771 45.9033 22.6526L45.7025 21.979C45.6356 21.7544 45.5883 21.5251 45.5607 21.2909L45.4777 20.5883C45.45 20.3541 45.372 20.1323 45.2435 19.9229L44.858 19.2946C44.7295 19.0852 44.6902 18.858 44.7402 18.613L44.8901 17.878C44.94 17.633 45.0452 17.4217 45.2056 17.244L45.6869 16.711C45.8473 16.5333 46.044 16.4007 46.2771 16.3132L46.9763 16.0506C47.2093 15.9631 47.389 15.8129 47.5151 15.5998L47.8937 14.9608C48.0199 14.7477 48.1652 14.5572 48.3297 14.3892L48.8232 13.885C48.9877 13.717 49.1717 13.5719 49.3753 13.4498L49.9862 13.0835C50.1898 12.9614 50.3596 12.8014 50.4957 12.6033L50.904 12.0091C51.04 11.811 51.0315 11.6198 50.8784 11.4356L50.4189 10.8829C50.2658 10.6987 50.0778 10.5909 49.855 10.5594L49.1867 10.4651C48.964 10.4337 48.7377 10.382 48.5079 10.3102L47.8186 10.0945C47.5888 10.0227 47.3544 10.0162 47.1153 10.075L46.398 10.2516C46.1589 10.3105 45.9224 10.3321 45.6887 10.3164L44.9873 10.2695C44.7535 10.2538 44.5221 10.2055 44.2929 10.1245L43.6055 9.88163C43.3764 9.80065 43.1736 9.71185 42.9972 9.61521L42.4679 9.32529C42.2915 9.22865 42.1613 9.07893 42.0773 8.87612L41.8255 8.26769C41.7415 8.06489 41.614 7.87161 41.4429 7.68786L40.9297 7.13663C40.7586 6.95288 40.6416 6.74757 40.5786 6.5207L40.3898 5.84008C40.3269 5.61321 40.2748 5.38199 40.2336 5.14644L40.1101 4.43977Z" fill="#D6D6D6" fill-opacity="0.4" stroke="#D6D6D6" stroke-width="3"/>
<path d="M65.6232 12.8542C65.5915 12.6752 65.5299 12.508 65.4384 12.3525L65.1638 11.8862C65.0723 11.7308 65.0397 11.6479 65.0659 11.6375L65.1447 11.6065C65.1709 11.5962 65.116 11.5369 64.98 11.4288L64.5719 11.1045C64.4359 10.9964 64.2884 10.9722 64.1296 11.0319L63.6529 11.2109C63.4941 11.2706 63.3722 11.3687 63.2874 11.505L63.0328 11.9141C62.9479 12.0505 62.8499 12.1926 62.7388 12.3403L62.4055 12.7834C62.2944 12.9312 62.199 13.0851 62.1193 13.2452L61.8802 13.7255C61.8006 13.8856 61.7304 14.0494 61.6697 14.217L61.4877 14.7198C61.427 14.8874 61.3851 15.0624 61.362 15.2448L61.2925 15.7919C61.2694 15.9743 61.1934 16.1241 61.0646 16.2412L60.6782 16.5926C60.5494 16.7097 60.4016 16.8027 60.2347 16.8716L59.734 17.0782C59.5671 17.1471 59.394 17.1911 59.2147 17.2102L58.6767 17.2675C58.4974 17.2866 58.317 17.2913 58.1356 17.2815L57.5914 17.2522C57.4101 17.2424 57.2295 17.2439 57.0497 17.2568L56.5104 17.2954C56.3306 17.3083 56.1498 17.3064 55.9679 17.2897L55.4222 17.2396C55.2403 17.2229 55.0668 17.2593 54.9018 17.349L54.4065 17.6179C54.2415 17.7075 54.1423 17.846 54.1091 18.0334L54.0094 18.5956C53.9761 18.783 54.0314 18.9371 54.1751 19.0579L54.6062 19.4202C54.7499 19.5409 54.8864 19.6636 55.0158 19.788L55.4037 20.1615C55.5331 20.2859 55.6587 20.4146 55.7808 20.5476L56.1468 20.9464C56.2689 21.0793 56.4096 21.1905 56.5691 21.28L57.0476 21.5484C57.2071 21.6378 57.3497 21.7469 57.4753 21.8757L57.8522 22.2619C57.9779 22.3907 58.0946 22.5202 58.2024 22.6506L58.5259 23.0418C58.6337 23.1722 58.655 23.3202 58.5898 23.4858L58.3943 23.9826C58.3291 24.1482 58.3001 24.3235 58.3072 24.5083L58.3287 25.0629C58.3358 25.2478 58.2941 25.4208 58.2034 25.582L57.9316 26.0655C57.841 26.2266 57.7871 26.3967 57.7699 26.5757L57.7183 27.1126C57.7011 27.2916 57.6801 27.4696 57.6553 27.6467L57.5807 28.1781C57.5559 28.3552 57.555 28.5239 57.5781 28.6841L57.6473 29.1649C57.6703 29.3252 57.7551 29.4616 57.9016 29.574L58.3412 29.9114C58.4877 30.0239 58.6411 30.0293 58.8014 29.9276L59.2824 29.6227C59.4427 29.521 59.5979 29.421 59.748 29.3225L60.1985 29.0271C60.3486 28.9286 60.511 28.8492 60.6855 28.7888L61.2091 28.6076C61.3837 28.5472 61.5309 28.4442 61.651 28.2988L62.011 27.8623C62.131 27.7169 62.2799 27.6164 62.4576 27.5609L62.9906 27.3943C63.1683 27.3388 63.3385 27.2675 63.5014 27.1804L63.9901 26.9192C64.153 26.8321 64.3056 26.8511 64.448 26.9762L64.875 27.3517C65.0173 27.4768 65.1701 27.5785 65.3332 27.6566L65.8227 27.8911C65.9859 27.9692 66.1439 28.0554 66.2967 28.1498L66.7551 28.4327C66.9079 28.5271 67.0506 28.6372 67.183 28.7632L67.5805 29.1413C67.713 29.2673 67.8674 29.3592 68.0436 29.4169L68.5723 29.5903C68.7485 29.6481 68.9201 29.6889 69.0871 29.7128L69.5879 29.7845C69.7549 29.8084 69.906 29.7581 70.0412 29.6336L70.4467 29.2601C70.5819 29.1356 70.6334 28.9821 70.6013 28.7995L70.5051 28.2518C70.473 28.0692 70.432 27.8924 70.3819 27.7215L70.2318 27.2085C70.1817 27.0375 70.1309 26.8666 70.0795 26.696L69.925 26.184C69.8736 26.0134 69.8372 25.839 69.8159 25.6611L69.7521 25.1271C69.7308 24.9491 69.6707 24.7806 69.5719 24.6214L69.2754 24.1439C69.1765 23.9848 69.1463 23.8121 69.1847 23.6259L69.3 23.0673C69.3385 22.8811 69.4194 22.7205 69.5428 22.5854L69.913 22.1803C70.0364 22.0453 70.1877 21.9445 70.367 21.878L70.9048 21.6785C71.0841 21.612 71.2223 21.4978 71.3193 21.3359L71.6105 20.8502C71.7076 20.6883 71.8194 20.5435 71.9459 20.4158L72.3255 20.0326C72.452 19.9049 72.5936 19.7947 72.7502 19.7019L73.2201 19.4235C73.3768 19.3307 73.5074 19.209 73.6121 19.0585L73.9261 18.6069C74.0308 18.4563 74.0242 18.3111 73.9064 18.1711L73.553 17.751C73.4352 17.611 73.2906 17.5291 73.1193 17.5052L72.6052 17.4335C72.4338 17.4096 72.2598 17.3703 72.083 17.3157L71.5528 17.1519C71.376 17.0972 71.1957 17.0923 71.0117 17.137L70.46 17.2712C70.2761 17.316 70.0942 17.3324 69.9144 17.3205L69.3749 17.2848C69.195 17.2729 69.017 17.2362 68.8407 17.1746L68.312 16.99C68.1357 16.9285 67.9797 16.861 67.844 16.7876L67.4368 16.5672C67.3011 16.4938 67.201 16.38 67.1364 16.2259L66.9427 15.7634C66.8781 15.6093 66.78 15.4624 66.6484 15.3228L66.2536 14.9038C66.122 14.7642 66.032 14.6082 65.9836 14.4357L65.8383 13.9185C65.7899 13.746 65.7499 13.5703 65.7182 13.3913L65.6232 12.8542Z" fill="#D6D6D6" fill-opacity="0.4" stroke="#D6D6D6" stroke-width="3"/>
<path d="M13.6232 12.8542C13.5915 12.6752 13.5299 12.508 13.4384 12.3525L13.1638 11.8862C13.0723 11.7308 13.0397 11.6479 13.0659 11.6375L13.1447 11.6065C13.1709 11.5962 13.116 11.5369 12.98 11.4288L12.5719 11.1045C12.4359 10.9964 12.2884 10.9722 12.1296 11.0319L11.6529 11.2109C11.4941 11.2706 11.3722 11.3687 11.2874 11.505L11.0328 11.9141C10.9479 12.0505 10.8499 12.1926 10.7388 12.3403L10.4055 12.7834C10.2944 12.9312 10.199 13.0851 10.1193 13.2452L9.88025 13.7255C9.80057 13.8856 9.73039 14.0494 9.66971 14.217L9.48769 14.7198C9.42701 14.8874 9.3851 15.0624 9.36196 15.2448L9.29253 15.7919C9.26939 15.9743 9.19342 16.1241 9.06462 16.2412L8.67823 16.5926C8.54943 16.7097 8.40158 16.8027 8.23468 16.8716L7.73398 17.0782C7.56708 17.1471 7.39397 17.1911 7.21466 17.2102L6.67671 17.2675C6.4974 17.2866 6.31704 17.2913 6.13564 17.2815L5.59145 17.2522C5.41005 17.2424 5.22947 17.2439 5.0497 17.2568L4.51041 17.2954C4.33065 17.3083 4.14982 17.3064 3.96792 17.2897L3.42223 17.2396C3.24033 17.2229 3.06684 17.2593 2.90176 17.349L2.40653 17.6179C2.24145 17.7075 2.1423 17.846 2.10906 18.0334L2.00936 18.5956C1.97613 18.783 2.03137 18.9371 2.17508 19.0579L2.60622 19.4202C2.74993 19.5409 2.88645 19.6636 3.01577 19.788L3.40374 20.1615C3.53306 20.2859 3.65873 20.4146 3.78076 20.5476L4.14683 20.9464C4.26886 21.0793 4.40962 21.1905 4.56912 21.28L5.04762 21.5484C5.20711 21.6378 5.34968 21.7469 5.47532 21.8757L5.85223 22.2619C5.97787 22.3907 6.09459 22.5202 6.20241 22.6506L6.52586 23.0418C6.63368 23.1722 6.655 23.3202 6.58983 23.4858L6.3943 23.9826C6.32912 24.1482 6.3001 24.3235 6.30724 24.5083L6.32866 25.0629C6.33579 25.2478 6.29405 25.4208 6.20344 25.582L5.93159 26.0655C5.84097 26.2266 5.78707 26.3967 5.76988 26.5757L5.71831 27.1126C5.70112 27.2916 5.6801 27.4696 5.65526 27.6467L5.58073 28.1781C5.55588 28.3552 5.55499 28.5239 5.57806 28.6841L5.64725 29.1649C5.67032 29.3252 5.75511 29.4616 5.90163 29.574L6.34119 29.9114C6.48772 30.0239 6.64113 30.0293 6.80143 29.9276L7.28235 29.6227C7.44266 29.521 7.59788 29.421 7.74803 29.3225L8.19847 29.0271C8.34862 28.9286 8.51096 28.8492 8.68551 28.7888L9.20913 28.6076C9.38367 28.5472 9.53095 28.4442 9.65096 28.2988L10.011 27.8623C10.131 27.7169 10.2799 27.6164 10.4576 27.5609L10.9906 27.3943C11.1683 27.3388 11.3385 27.2675 11.5014 27.1804L11.9901 26.9192C12.153 26.8321 12.3056 26.8511 12.448 26.9762L12.875 27.3517C13.0173 27.4768 13.1701 27.5785 13.3332 27.6566L13.8227 27.8911C13.9859 27.9692 14.1439 28.0554 14.2967 28.1498L14.7551 28.4327C14.9079 28.5271 15.0506 28.6372 15.183 28.7632L15.5805 29.1413C15.713 29.2673 15.8674 29.3592 16.0436 29.4169L16.5723 29.5903C16.7485 29.6481 16.9201 29.6889 17.0871 29.7128L17.5879 29.7845C17.7549 29.8084 17.906 29.7581 18.0412 29.6336L18.4467 29.2601C18.5819 29.1356 18.6334 28.9821 18.6013 28.7995L18.5051 28.2518C18.473 28.0692 18.432 27.8924 18.3819 27.7215L18.2318 27.2085C18.1817 27.0375 18.1309 26.8666 18.0795 26.696L17.925 26.184C17.8736 26.0134 17.8372 25.839 17.8159 25.6611L17.7521 25.1271C17.7308 24.9491 17.6707 24.7806 17.5719 24.6214L17.2754 24.1439C17.1765 23.9848 17.1463 23.8121 17.1847 23.6259L17.3 23.0673C17.3385 22.8811 17.4194 22.7205 17.5428 22.5854L17.913 22.1803C18.0364 22.0453 18.1877 21.9445 18.367 21.878L18.9048 21.6785C19.0841 21.612 19.2223 21.4978 19.3193 21.3359L19.6105 20.8502C19.7076 20.6883 19.8194 20.5435 19.9459 20.4158L20.3255 20.0326C20.452 19.9049 20.5936 19.7947 20.7502 19.7019L21.2201 19.4235C21.3768 19.3307 21.5074 19.209 21.6121 19.0585L21.9261 18.6069C22.0308 18.4563 22.0242 18.3111 21.9064 18.1711L21.553 17.751C21.4352 17.611 21.2906 17.5291 21.1193 17.5052L20.6052 17.4335C20.4338 17.4096 20.2598 17.3703 20.083 17.3157L19.5528 17.1519C19.376 17.0972 19.1957 17.0923 19.0117 17.137L18.46 17.2712C18.2761 17.316 18.0942 17.3324 17.9144 17.3205L17.3749 17.2848C17.195 17.2729 17.017 17.2362 16.8407 17.1746L16.312 16.99C16.1357 16.9285 15.9797 16.861 15.844 16.7876L15.4368 16.5672C15.3011 16.4938 15.201 16.38 15.1364 16.2259L14.9427 15.7634C14.8781 15.6093 14.78 15.4624 14.6484 15.3228L14.2536 14.9038C14.122 14.7642 14.032 14.6082 13.9836 14.4357L13.8383 13.9185C13.7899 13.746 13.7499 13.5703 13.7182 13.3913L13.6232 12.8542Z" fill="#FFE41A" fill-opacity="0.4" stroke="#FFE41A" stroke-width="3"/>
</svg>
