<svg width="91" height="91" viewBox="0 0 91 91" fill="none" xmlns="http://www.w3.org/2000/svg">
<circle cx="45" cy="46" r="43" fill="#F9C58D" fill-opacity="0.3"/>
<mask id="mask0_178_3265" style="mask-type:alpha" maskUnits="userSpaceOnUse" x="0" y="0" width="91" height="91">
<path d="M88.0444 50.6833L90.5443 50.6596L88.0444 50.6833ZM87.314 57.2713L89.7486 57.8393L87.314 57.2713ZM87.158 57.9402L84.7234 57.3721L87.158 57.9402ZM87.0019 58.6091L89.4365 59.1771L87.0019 58.6091ZM84.3501 64.6447L86.4152 66.0537L84.3501 64.6447ZM83.5759 65.7794L81.5108 64.3704L83.5759 65.7794ZM79.7249 71.1775L81.7285 72.6726L79.7249 71.1775ZM79.3232 71.7158L77.3195 70.2207L79.3232 71.7158ZM78.9215 72.2541L80.9252 73.7492L78.9215 72.2541ZM74.8312 77.4749L76.7632 79.0615L74.8312 77.4749ZM74.3951 78.0059L72.4632 76.4192L74.3951 78.0059ZM73.959 78.5369L75.891 80.1236L73.959 78.5369ZM68.2236 82.9453L67.0993 80.7123L68.2236 82.9453ZM67.6105 83.2539L68.7349 85.4869L67.6105 83.2539ZM61.5599 86.0381L62.5235 88.3449L61.5599 86.0381ZM60.3075 86.5612L59.3439 84.2544L60.3075 86.5612ZM53.9424 87.9797L54.0492 90.4775L53.9424 87.9797ZM52.5875 88.0377L52.4807 85.54L52.5875 88.0377ZM46.0598 88.0907L45.9911 90.5897L46.0598 88.0907ZM44.7407 88.0544L44.8094 85.5554L44.7407 88.0544ZM38.1694 88.1245L38.0512 85.6273L38.1694 88.1245ZM36.7966 88.1895L36.9148 90.6867L36.7966 88.1895ZM30.2878 87.2345L31.1194 84.8768L30.2878 87.2345ZM29.6411 87.0064L28.8096 89.3641L29.6411 87.0064ZM28.9944 86.7783L29.8259 84.4206L28.9944 86.7783ZM23.2325 83.5695L21.6655 85.5175L23.2325 83.5695ZM22.6991 83.1404L24.2661 81.1925L22.6991 83.1404ZM22.1656 82.7113L23.7327 80.7634L22.1656 82.7113ZM17.2961 78.2751L15.4994 80.0135L17.2961 78.2751ZM16.8321 77.7956L18.6288 76.0572L16.8321 77.7956ZM16.3682 77.3161L14.5715 79.0546L16.3682 77.3161ZM11.9354 72.5498L10.0714 74.2158L11.9354 72.5498ZM11.0475 71.5563L12.9115 69.8904L11.0475 71.5563ZM7.68989 66.1049L5.36332 67.0199L7.68989 66.1049ZM7.44615 65.4851L9.77272 64.5702L7.44615 65.4851ZM7.20241 64.8653L4.87585 65.7803L7.20241 64.8653ZM5.07784 58.7747L7.46912 58.0454L5.07784 58.7747ZM4.695 57.5193L2.30372 58.2485L4.695 57.5193ZM2.67849 43.5398L0.179711 43.4616L2.67849 43.5398ZM4.00884 35.2401L1.627 34.4806L4.00884 35.2401ZM6.22807 27.634L3.81195 26.9918L6.22807 27.634ZM6.40351 26.9739L8.81963 27.616L6.40351 26.9739ZM10.0183 19.9448L7.99399 18.4779L10.0183 19.9448ZM14.2861 14.8167L16.0969 16.5403L14.2861 14.8167ZM14.7595 14.3194L12.9486 12.5958L14.7595 14.3194ZM15.2328 13.8221L17.0437 15.5457L15.2328 13.8221ZM20.4604 9.74514L19.23 7.56886L20.4604 9.74514ZM21.0578 9.40742L22.2881 11.5837L21.0578 9.40742ZM21.6551 9.0697L20.4247 6.89342L21.6551 9.0697ZM28.4349 6.41505L27.805 3.9957L28.4349 6.41505ZM36.122 4.6818L35.6548 2.22585L36.122 4.6818ZM36.7721 4.55813L37.2393 7.01408L36.7721 4.55813ZM43.2024 3.3772L43.6387 5.83884L43.2024 3.3772ZM44.5364 3.14079L44.1002 0.679145L44.5364 3.14079ZM51.7905 2.9694L51.538 5.45662L51.7905 2.9694ZM58.7087 5.00188L59.9251 2.81781L58.7087 5.00188ZM59.3069 5.33507L58.0904 7.51913L59.3069 5.33507ZM59.9051 5.66825L61.1216 3.48419L59.9051 5.66825ZM65.8182 8.65826L66.8546 6.38321L65.8182 8.65826ZM66.4311 8.93748L65.3947 11.2125L66.4311 8.93748ZM67.044 9.2167L68.0804 6.94165L67.044 9.2167ZM72.7952 12.4838L74.2152 10.4262L72.7952 12.4838ZM73.3603 12.8737L71.9403 14.9313L73.3603 12.8737ZM73.9253 13.2637L75.3453 11.2061L73.9253 13.2637ZM78.6831 17.863L76.675 19.3522L78.6831 17.863ZM79.0925 18.4151L77.0844 19.9043L79.0925 18.4151ZM79.5019 18.9672L81.51 17.478L79.5019 18.9672ZM83.1719 24.5652L81.0053 25.8125L83.1719 24.5652ZM83.5141 25.1597L85.6807 23.9124L83.5141 25.1597ZM83.8564 25.7542L81.6897 27.0015L83.8564 25.7542ZM86.2882 31.9105L83.8538 32.4798L86.2882 31.9105ZM86.444 32.577L84.0097 33.1462L86.444 32.577ZM86.5998 33.2434L89.0342 32.6742L86.5998 33.2434ZM87.7961 39.7744L90.2743 39.4451L87.7961 39.7744ZM87.8853 40.4456L85.4071 40.7749L87.8853 40.4456ZM87.9745 41.1168L90.4527 40.7876L87.9745 41.1168ZM88.2398 45.0605L90.6621 45.6788L88.2398 45.0605ZM88.2049 45.197L90.6273 45.8153L88.2049 45.197ZM88.1701 45.3335L85.7478 44.7153L88.1701 45.3335ZM88.0315 49.3223L85.5316 49.3461L88.0315 49.3223ZM88.038 50.0028L85.5381 50.0265L85.5445 50.707L88.0444 50.6833L90.5443 50.6596L90.5379 49.9791L88.038 50.0028ZM88.0444 50.6833L85.5445 50.707C85.5637 52.7209 85.3425 54.7183 84.8794 56.7033L87.314 57.2713L89.7486 57.8393C90.3014 55.4701 90.5672 53.0755 90.5443 50.6596L88.0444 50.6833ZM87.314 57.2713L84.8794 56.7033L84.7234 57.3721L87.158 57.9402L89.5926 58.5082L89.7486 57.8393L87.314 57.2713ZM87.158 57.9402L84.7234 57.3721L84.5673 58.041L87.0019 58.6091L89.4365 59.1771L89.5926 58.5082L87.158 57.9402ZM87.0019 58.6091L84.5673 58.041C84.1295 59.9174 83.3708 61.6441 82.285 63.2357L84.3501 64.6447L86.4152 66.0537C87.8492 63.9519 88.8584 61.6549 89.4365 59.1771L87.0019 58.6091ZM84.3501 64.6447L82.285 63.2357L81.8979 63.803L83.963 65.212L86.0281 66.621L86.4152 66.0537L84.3501 64.6447ZM83.963 65.212L81.8979 63.803L81.5108 64.3704L83.5759 65.7794L85.641 67.1884L86.0281 66.621L83.963 65.212ZM83.5759 65.7794L81.5108 64.3704C80.2703 66.1885 79.0071 67.9592 77.7212 69.6824L79.7249 71.1775L81.7285 72.6726C83.0575 70.8916 84.3616 69.0635 85.641 67.1884L83.5759 65.7794ZM79.7249 71.1775L77.7212 69.6824L77.3195 70.2207L79.3232 71.7158L81.3269 73.2109L81.7285 72.6726L79.7249 71.1775ZM79.3232 71.7158L77.3195 70.2207L76.9179 70.759L78.9215 72.2541L80.9252 73.7492L81.3269 73.2109L79.3232 71.7158ZM78.9215 72.2541L76.9179 70.759C75.6342 72.4793 74.2947 74.1891 72.8993 75.8882L74.8312 77.4749L76.7632 79.0615C78.2067 77.3038 79.5941 75.5331 80.9252 73.7492L78.9215 72.2541ZM74.8312 77.4749L72.8993 75.8882L72.4632 76.4192L74.3951 78.0059L76.3271 79.5925L76.7632 79.0615L74.8312 77.4749ZM74.3951 78.0059L72.4632 76.4192L72.027 76.9502L73.959 78.5369L75.891 80.1236L76.3271 79.5925L74.3951 78.0059ZM73.959 78.5369L72.027 76.9502C70.8286 78.4096 69.3961 79.5559 67.7124 80.4037L68.8367 82.6366L69.961 84.8695C72.2681 83.7078 74.2506 82.121 75.891 80.1236L73.959 78.5369ZM68.8367 82.6366L67.7124 80.4037L67.0993 80.7123L68.2236 82.9453L69.3479 85.1782L69.961 84.8695L68.8367 82.6366ZM68.2236 82.9453L67.0993 80.7123L66.4863 81.021L67.6105 83.2539L68.7349 85.4869L69.3479 85.1782L68.2236 82.9453ZM67.6105 83.2539L66.4863 81.021C64.5429 81.9995 62.5796 82.9029 60.5964 83.7312L61.5599 86.0381L62.5235 88.3449C64.6169 87.4706 66.6873 86.5178 68.7349 85.4869L67.6105 83.2539ZM61.5599 86.0381L60.5964 83.7312L59.9702 83.9928L60.9337 86.2997L61.8973 88.6065L62.5235 88.3449L61.5599 86.0381ZM60.9337 86.2997L59.9702 83.9928L59.3439 84.2544L60.3075 86.5612L61.271 88.8681L61.8973 88.6065L60.9337 86.2997ZM60.3075 86.5612L59.3439 84.2544C57.5775 84.9922 55.7458 85.4003 53.8356 85.482L53.9424 87.9797L54.0492 90.4775C56.5492 90.3706 58.9609 89.833 61.271 88.8681L60.3075 86.5612ZM53.9424 87.9797L53.8356 85.482L53.1581 85.511L53.265 88.0087L53.3718 90.5064L54.0492 90.4775L53.9424 87.9797ZM53.265 88.0087L53.1581 85.511L52.4807 85.54L52.5875 88.0377L52.6943 90.5354L53.3718 90.5064L53.265 88.0087ZM52.5875 88.0377L52.4807 85.54C50.3324 85.6318 48.2151 85.6489 46.1284 85.5916L46.0598 88.0907L45.9911 90.5897C48.1979 90.6504 50.4324 90.6321 52.6943 90.5354L52.5875 88.0377ZM46.0598 88.0907L46.1284 85.5916L45.4689 85.5735L45.4002 88.0725L45.3316 90.5716L45.9911 90.5897L46.0598 88.0907ZM45.4002 88.0725L45.4689 85.5735L44.8094 85.5554L44.7407 88.0544L44.672 90.5535L45.3316 90.5716L45.4002 88.0725ZM44.7407 88.0544L44.8094 85.5554C42.5978 85.4946 40.345 85.5188 38.0512 85.6273L38.1694 88.1245L38.2875 90.6217C40.462 90.5188 42.5901 90.4963 44.672 90.5535L44.7407 88.0544ZM38.1694 88.1245L38.0512 85.6273L37.3648 85.6598L37.483 88.157L37.6012 90.6542L38.2875 90.6217L38.1694 88.1245ZM37.483 88.157L37.3648 85.6598L36.6784 85.6923L36.7966 88.1895L36.9148 90.6867L37.6012 90.6542L37.483 88.157ZM36.7966 88.1895L36.6784 85.6923C34.7662 85.7828 32.9191 85.5116 31.1194 84.8768L30.2878 87.2345L29.4563 89.5921C31.8665 90.4422 34.3587 90.8077 36.9148 90.6867L36.7966 88.1895ZM30.2878 87.2345L31.1194 84.8768L30.4727 84.6487L29.6411 87.0064L28.8096 89.3641L29.4563 89.5921L30.2878 87.2345ZM29.6411 87.0064L30.4727 84.6487L29.8259 84.4206L28.9944 86.7783L28.1629 89.136L28.8096 89.3641L29.6411 87.0064ZM28.9944 86.7783L29.8259 84.4206C27.987 83.7721 26.3152 82.8409 24.7995 81.6216L23.2325 83.5695L21.6655 85.5175C23.6224 87.0917 25.7918 88.2997 28.1629 89.136L28.9944 86.7783ZM23.2325 83.5695L24.7995 81.6216L24.2661 81.1925L22.6991 83.1404L21.132 85.0883L21.6655 85.5175L23.2325 83.5695ZM22.6991 83.1404L24.2661 81.1925L23.7327 80.7634L22.1656 82.7113L20.5986 84.6592L21.132 85.0883L22.6991 83.1404ZM22.1656 82.7113L23.7327 80.7634C22.0751 79.4299 20.5289 78.021 19.0927 76.5367L17.2961 78.2751L15.4994 80.0135C17.0835 81.6507 18.7836 83.1992 20.5986 84.6592L22.1656 82.7113ZM17.2961 78.2751L19.0927 76.5367L18.6288 76.0572L16.8321 77.7956L15.0355 79.534L15.4994 80.0135L17.2961 78.2751ZM16.8321 77.7956L18.6288 76.0572L18.1648 75.5777L16.3682 77.3161L14.5715 79.0546L15.0355 79.534L16.8321 77.7956ZM16.3682 77.3161L18.1648 75.5777C16.6776 74.0407 15.2225 72.4761 13.7994 70.8839L11.9354 72.5498L10.0714 74.2158C11.5385 75.8573 13.0385 77.4702 14.5715 79.0546L16.3682 77.3161ZM11.9354 72.5498L13.7994 70.8839L13.3555 70.3871L11.4915 72.0531L9.62743 73.719L10.0714 74.2158L11.9354 72.5498ZM11.4915 72.0531L13.3555 70.3871L12.9115 69.8904L11.0475 71.5563L9.18347 73.2223L9.62743 73.719L11.4915 72.0531ZM11.0475 71.5563L12.9115 69.8904C11.6639 68.4944 10.7013 66.9315 10.0165 65.19L7.68989 66.1049L5.36332 67.0199C6.26515 69.3131 7.541 71.3846 9.18347 73.2223L11.0475 71.5563ZM7.68989 66.1049L10.0165 65.19L9.77272 64.5702L7.44615 65.4851L5.11958 66.4001L5.36332 67.0199L7.68989 66.1049ZM7.44615 65.4851L9.77272 64.5702L9.52898 63.9504L7.20241 64.8653L4.87585 65.7803L5.11958 66.4001L7.44615 65.4851ZM7.20241 64.8653L9.52898 63.9504C8.75928 61.9931 8.07275 60.0248 7.46912 58.0454L5.07784 58.7747L2.68656 59.5039C3.32901 61.6106 4.05886 63.7028 4.87585 65.7803L7.20241 64.8653ZM5.07784 58.7747L7.46912 58.0454L7.2777 57.4177L4.88642 58.147L2.49514 58.8762L2.68656 59.5039L5.07784 58.7747ZM4.88642 58.147L7.2777 57.4177L7.08628 56.7901L4.695 57.5193L2.30372 58.2485L2.49514 58.8762L4.88642 58.147ZM4.695 57.5193L7.08628 56.7901C6.49816 54.8615 6.04939 52.8955 5.74003 50.891L3.26928 51.2724L0.798534 51.6537C1.14405 53.8924 1.64576 56.091 2.30372 58.2485L4.695 57.5193ZM3.26928 51.2724L5.74003 50.891L5.63943 50.2392L3.16868 50.6206L0.697934 51.0019L0.798534 51.6537L3.26928 51.2724ZM3.16868 50.6206L5.63943 50.2392L5.53883 49.5874L3.06808 49.9687L0.597335 50.3501L0.697934 51.0019L3.16868 50.6206ZM3.06808 49.9687L5.53883 49.5874C5.23505 47.6192 5.11432 45.63 5.17727 43.618L2.67849 43.5398L0.179711 43.4616C0.107233 45.7784 0.246233 48.0752 0.597335 50.3501L3.06808 49.9687ZM2.67849 43.5398L5.17727 43.618L5.19807 42.953L2.69929 42.8748L0.200514 42.7966L0.179711 43.4616L2.67849 43.5398ZM2.69929 42.8748L5.19807 42.953L5.21887 42.288L2.72009 42.2099L0.221317 42.1317L0.200514 42.7966L2.69929 42.8748ZM2.72009 42.2099L5.21887 42.288C5.27935 40.3547 5.6024 38.4717 6.18886 36.6325L3.80702 35.873L1.42518 35.1135C0.697829 37.3946 0.296258 39.7362 0.221317 42.1317L2.72009 42.2099ZM3.80702 35.873L6.18886 36.6325L6.39069 35.9996L4.00884 35.2401L1.627 34.4806L1.42518 35.1135L3.80702 35.873ZM4.00884 35.2401L6.39069 35.9996L6.59251 35.3667L4.21066 34.6072L1.82882 33.8477L1.627 34.4806L4.00884 35.2401ZM4.21066 34.6072L6.59251 35.3667C7.26213 33.2666 7.8875 31.1231 8.46873 28.9363L6.05262 28.2941L3.6365 27.6519C3.07561 29.7622 2.47301 31.8274 1.82882 33.8477L4.21066 34.6072ZM6.05262 28.2941L8.46873 28.9363L8.64418 28.2762L6.22807 27.634L3.81195 26.9918L3.6365 27.6519L6.05262 28.2941ZM6.22807 27.634L8.64418 28.2762L8.81963 27.616L6.40351 26.9739L3.9874 26.3317L3.81195 26.9918L6.22807 27.634ZM6.40351 26.9739L8.81963 27.616C9.31185 25.7641 10.1168 24.0694 11.2411 22.5179L9.21679 21.0509L7.19245 19.5839C5.70786 21.6325 4.6373 23.8865 3.9874 26.3317L6.40351 26.9739ZM9.21679 21.0509L11.2411 22.5179L11.6419 21.9649L9.61756 20.4979L7.59322 19.0309L7.19245 19.5839L9.21679 21.0509ZM9.61756 20.4979L11.6419 21.9649L12.0427 21.4118L10.0183 19.9448L7.99399 18.4779L7.59322 19.0309L9.61756 20.4979ZM10.0183 19.9448L12.0427 21.4118C13.2814 19.7024 14.6326 18.0787 16.0969 16.5403L14.2861 14.8167L12.4753 13.0931C10.8581 14.7921 9.36416 16.5871 7.99399 18.4779L10.0183 19.9448ZM14.2861 14.8167L16.0969 16.5403L16.5703 16.043L14.7595 14.3194L12.9486 12.5958L12.4753 13.0931L14.2861 14.8167ZM14.7595 14.3194L16.5703 16.043L17.0437 15.5457L15.2328 13.8221L13.422 12.0985L12.9486 12.5958L14.7595 14.3194ZM15.2328 13.8221L17.0437 15.5457C18.4144 14.1056 19.9613 12.8992 21.6908 11.9214L20.4604 9.74514L19.23 7.56886C17.0708 8.7896 15.1327 10.3011 13.422 12.0985L15.2328 13.8221ZM20.4604 9.74514L21.6908 11.9214L22.2881 11.5837L21.0578 9.40742L19.8274 7.23114L19.23 7.56886L20.4604 9.74514ZM21.0578 9.40742L22.2881 11.5837L22.8855 11.246L21.6551 9.0697L20.4247 6.89342L19.8274 7.23114L21.0578 9.40742ZM21.6551 9.0697L22.8855 11.246C24.6432 10.2523 26.4825 9.50667 28.408 9.00539L27.7781 6.58603L27.1483 4.16668C24.7984 4.77845 22.5557 5.68864 20.4247 6.89342L21.6551 9.0697ZM27.7781 6.58603L28.408 9.00539L29.0648 8.83441L28.4349 6.41505L27.805 3.9957L27.1483 4.16668L27.7781 6.58603ZM28.4349 6.41505L29.0648 8.83441L29.7215 8.66343L29.0917 6.24407L28.4618 3.82472L27.805 3.9957L28.4349 6.41505ZM29.0917 6.24407L29.7215 8.66343C31.8068 8.12055 33.8793 7.65332 35.9392 7.26142L35.472 4.80547L35.0047 2.34952C32.8329 2.76271 30.6519 3.25455 28.4618 3.82472L29.0917 6.24407ZM35.472 4.80547L35.9392 7.26142L36.5893 7.13775L36.122 4.6818L35.6548 2.22585L35.0047 2.34952L35.472 4.80547ZM36.122 4.6818L36.5893 7.13775L37.2393 7.01408L36.7721 4.55813L36.3048 2.10218L35.6548 2.22585L36.122 4.6818ZM36.7721 4.55813L37.2393 7.01408C39.3446 6.61355 41.4777 6.2218 43.6387 5.83884L43.2024 3.3772L42.7662 0.915556C40.585 1.30209 38.4313 1.69763 36.3048 2.10218L36.7721 4.55813ZM43.2024 3.3772L43.6387 5.83884L44.3057 5.72064L43.8694 3.25899L43.4332 0.79735L42.7662 0.915556L43.2024 3.3772ZM43.8694 3.25899L44.3057 5.72064L44.9727 5.60243L44.5364 3.14079L44.1002 0.679145L43.4332 0.79735L43.8694 3.25899ZM44.5364 3.14079L44.9727 5.60243C46.9145 5.2583 48.8742 5.18625 50.8585 5.38765L51.1109 2.90042L51.3633 0.413201C48.9237 0.165586 46.5004 0.253778 44.1002 0.679145L44.5364 3.14079ZM51.1109 2.90042L50.8585 5.38765L51.538 5.45662L51.7905 2.9694L52.0429 0.482175L51.3633 0.413201L51.1109 2.90042ZM51.7905 2.9694L51.538 5.45662L52.2176 5.52559L52.4701 3.03837L52.7225 0.55115L52.0429 0.482175L51.7905 2.9694ZM52.4701 3.03837L52.2176 5.52559C54.0901 5.71564 55.8417 6.26666 57.4922 7.18594L58.7087 5.00188L59.9251 2.81781C57.6814 1.5681 55.274 0.810111 52.7225 0.55115L52.4701 3.03837ZM58.7087 5.00188L57.4922 7.18594L58.0904 7.51913L59.3069 5.33507L60.5233 3.151L59.9251 2.81781L58.7087 5.00188ZM59.3069 5.33507L58.0904 7.51913L58.6886 7.85232L59.9051 5.66825L61.1216 3.48419L60.5233 3.151L59.3069 5.33507ZM59.9051 5.66825L58.6886 7.85232C60.6935 8.96901 62.7245 9.99612 64.7818 10.9333L65.8182 8.65826L66.8546 6.38321C64.9218 5.50272 63.0108 4.53649 61.1216 3.48419L59.9051 5.66825ZM65.8182 8.65826L64.7818 10.9333L65.3947 11.2125L66.4311 8.93748L67.4675 6.66243L66.8546 6.38321L65.8182 8.65826ZM66.4311 8.93748L65.3947 11.2125L66.0076 11.4917L67.044 9.2167L68.0804 6.94165L67.4675 6.66243L66.4311 8.93748ZM67.044 9.2167L66.0076 11.4917C67.866 12.3384 69.655 13.3542 71.3753 14.5414L72.7952 12.4838L74.2152 10.4262C72.2572 9.07494 70.212 7.9127 68.0804 6.94165L67.044 9.2167ZM72.7952 12.4838L71.3753 14.5414L71.9403 14.9313L73.3603 12.8737L74.7802 10.8161L74.2152 10.4262L72.7952 12.4838ZM73.3603 12.8737L71.9403 14.9313L72.5054 15.3213L73.9253 13.2637L75.3453 11.2061L74.7802 10.8161L73.3603 12.8737ZM73.9253 13.2637L72.5054 15.3213C74.1184 16.4344 75.5057 17.7754 76.675 19.3522L78.6831 17.863L80.6911 16.3738C79.1952 14.3566 77.4107 12.6314 75.3453 11.2061L73.9253 13.2637ZM78.6831 17.863L76.675 19.3522L77.0844 19.9043L79.0925 18.4151L81.1006 16.9259L80.6911 16.3738L78.6831 17.863ZM79.0925 18.4151L77.0844 19.9043L77.4939 20.4564L79.5019 18.9672L81.51 17.478L81.1006 16.9259L79.0925 18.4151ZM79.5019 18.9672L77.4939 20.4564C78.7692 22.176 79.9395 23.9613 81.0053 25.8125L83.1719 24.5652L85.3385 23.3179C84.1763 21.2991 82.9 19.3524 81.51 17.478L79.5019 18.9672ZM83.1719 24.5652L81.0053 25.8125L81.3475 26.407L83.5141 25.1597L85.6807 23.9124L85.3385 23.3179L83.1719 24.5652ZM83.5141 25.1597L81.3475 26.407L81.6897 27.0015L83.8564 25.7542L86.023 24.5069L85.6807 23.9124L83.5141 25.1597ZM83.8564 25.7542L81.6897 27.0015C82.6821 28.7253 83.4024 30.549 83.8538 32.4798L86.2882 31.9105L88.7225 31.3413C88.1595 28.9337 87.2586 26.6532 86.023 24.5069L83.8564 25.7542ZM86.2882 31.9105L83.8538 32.4798L84.0097 33.1462L86.444 32.577L88.8783 32.0077L88.7225 31.3413L86.2882 31.9105ZM86.444 32.577L84.0097 33.1462L84.1655 33.8126L86.5998 33.2434L89.0342 32.6742L88.8783 32.0077L86.444 32.577ZM86.5998 33.2434L84.1655 33.8126C84.6544 35.9034 85.0384 38.0004 85.3179 40.1036L87.7961 39.7744L90.2743 39.4451C89.9732 37.1788 89.5597 34.9217 89.0342 32.6742L86.5998 33.2434ZM87.7961 39.7744L85.3179 40.1036L85.4071 40.7749L87.8853 40.4456L90.3635 40.1163L90.2743 39.4451L87.7961 39.7744ZM87.8853 40.4456L85.4071 40.7749L85.4962 41.4461L87.9745 41.1168L90.4527 40.7876L90.3635 40.1163L87.8853 40.4456ZM87.9745 41.1168L85.4962 41.4461C85.6383 42.5153 85.7252 43.3297 85.7641 43.9092C85.7837 44.1999 85.7891 44.401 85.7872 44.5286C85.7849 44.6964 85.7711 44.6238 85.8174 44.4423L88.2398 45.0605L90.6621 45.6788C90.8331 45.0088 90.7932 44.1727 90.7529 43.5736C90.7034 42.8385 90.6009 41.9032 90.4527 40.7876L87.9745 41.1168ZM88.2398 45.0605L85.8174 44.4423L85.7826 44.5788L88.2049 45.197L90.6273 45.8153L90.6621 45.6788L88.2398 45.0605ZM88.2049 45.197L85.7826 44.5788L85.7478 44.7153L88.1701 45.3335L90.5924 45.9518L90.6273 45.8153L88.2049 45.197ZM88.1701 45.3335L85.7478 44.7153C85.6137 45.2405 85.5736 45.952 85.5519 46.5772C85.527 47.2949 85.521 48.2225 85.5316 49.3461L88.0315 49.3223L90.5314 49.2986C90.5211 48.2073 90.5276 47.3627 90.5489 46.7508C90.5595 46.4442 90.5732 46.2166 90.5876 46.0568C90.6045 45.8688 90.615 45.8636 90.5924 45.9518L88.1701 45.3335ZM88.0315 49.3223L85.5316 49.3461L85.5381 50.0265L88.038 50.0028L90.5379 49.9791L90.5314 49.2986L88.0315 49.3223Z" fill="#FF9D33"/>
</mask>
<g mask="url(#mask0_178_3265)">
<path d="M45 0.999998C45 0.447714 44.5521 -0.00113877 44 0.0108623C35.2516 0.201033 26.731 2.88321 19.4438 7.75239C11.8791 12.8069 5.98317 19.9912 2.50154 28.3966C-0.980092 36.802 -1.89105 46.051 -0.116124 54.9742C1.6588 63.8973 6.03987 72.0937 12.4731 78.5269C18.9063 84.9601 27.1027 89.3412 36.0258 91.1161C44.949 92.891 54.198 91.9801 62.6034 88.4985C71.0088 85.0168 78.1931 79.1209 83.2476 71.5562C88.1168 64.269 90.799 55.7484 90.9891 47C91.0011 46.4479 90.5523 46 90 46L46 46C45.4477 46 45 45.5523 45 45L45 0.999998Z" fill="#FF9D33"/>
</g>
</svg>
