<svg width="86" height="89" viewBox="0 0 86 89" fill="none" xmlns="http://www.w3.org/2000/svg">
<circle cx="43" cy="46" r="43" fill="#EE0505" fill-opacity="0.25"/>
<mask id="mask0_178_3328" style="mask-type:alpha" maskUnits="userSpaceOnUse" x="-2" y="0" width="91" height="91">
<path d="M86.0444 50.6833L88.5443 50.6596L86.0444 50.6833ZM85.314 57.2713L87.7486 57.8393L85.314 57.2713ZM85.158 57.9402L82.7234 57.3721L85.158 57.9402ZM85.0019 58.6091L87.4365 59.1771L85.0019 58.6091ZM82.3501 64.6447L84.4152 66.0537L82.3501 64.6447ZM81.5759 65.7794L79.5108 64.3704L81.5759 65.7794ZM77.7249 71.1775L79.7285 72.6726L77.7249 71.1775ZM77.3232 71.7158L75.3195 70.2207L77.3232 71.7158ZM76.9215 72.2541L78.9252 73.7492L76.9215 72.2541ZM72.8312 77.4749L74.7632 79.0615L72.8312 77.4749ZM72.3951 78.0059L70.4632 76.4192L72.3951 78.0059ZM71.959 78.5369L73.891 80.1236L71.959 78.5369ZM66.2236 82.9453L65.0993 80.7123L66.2236 82.9453ZM65.6105 83.2539L66.7349 85.4869L65.6105 83.2539ZM59.5599 86.0381L60.5235 88.3449L59.5599 86.0381ZM58.3075 86.5612L57.3439 84.2544L58.3075 86.5612ZM51.9424 87.9797L52.0492 90.4775L51.9424 87.9797ZM50.5875 88.0377L50.4807 85.54L50.5875 88.0377ZM44.0598 88.0907L43.9911 90.5897L44.0598 88.0907ZM42.7407 88.0544L42.8094 85.5554L42.7407 88.0544ZM36.1694 88.1245L36.0512 85.6273L36.1694 88.1245ZM34.7966 88.1895L34.9148 90.6867L34.7966 88.1895ZM28.2878 87.2345L29.1194 84.8768L28.2878 87.2345ZM27.6411 87.0064L26.8096 89.3641L27.6411 87.0064ZM26.9944 86.7783L27.8259 84.4206L26.9944 86.7783ZM21.2325 83.5695L19.6655 85.5175L21.2325 83.5695ZM20.6991 83.1404L22.2661 81.1925L20.6991 83.1404ZM20.1656 82.7113L21.7327 80.7634L20.1656 82.7113ZM15.2961 78.2751L13.4994 80.0135L15.2961 78.2751ZM14.8321 77.7956L16.6288 76.0572L14.8321 77.7956ZM14.3682 77.3161L12.5715 79.0546L14.3682 77.3161ZM9.93542 72.5498L8.07139 74.2158L9.93542 72.5498ZM9.04749 71.5563L10.9115 69.8904L9.04749 71.5563ZM5.68989 66.1049L3.36332 67.0199L5.68989 66.1049ZM5.44615 65.4851L7.77272 64.5702L5.44615 65.4851ZM5.20241 64.8653L2.87585 65.7803L5.20241 64.8653ZM3.07784 58.7747L5.46912 58.0454L3.07784 58.7747ZM2.695 57.5193L0.303724 58.2485L2.695 57.5193ZM0.678488 43.5398L-1.82029 43.4616L0.678488 43.5398ZM2.00884 35.2401L-0.373 34.4806L2.00884 35.2401ZM4.22807 27.634L1.81195 26.9918L4.22807 27.634ZM4.40351 26.9739L6.81963 27.616L4.40351 26.9739ZM8.01833 19.9448L5.99399 18.4779L8.01833 19.9448ZM12.2861 14.8167L14.0969 16.5403L12.2861 14.8167ZM12.7595 14.3194L10.9486 12.5958L12.7595 14.3194ZM13.2328 13.8221L15.0437 15.5457L13.2328 13.8221ZM18.4604 9.74514L17.23 7.56886L18.4604 9.74514ZM19.0578 9.40742L20.2881 11.5837L19.0578 9.40742ZM19.6551 9.0697L18.4247 6.89342L19.6551 9.0697ZM26.4349 6.41505L25.805 3.9957L26.4349 6.41505ZM34.122 4.6818L33.6548 2.22585L34.122 4.6818ZM34.7721 4.55813L35.2393 7.01408L34.7721 4.55813ZM41.2024 3.3772L41.6387 5.83884L41.2024 3.3772ZM42.5364 3.14079L42.1002 0.679145L42.5364 3.14079ZM49.7905 2.9694L49.538 5.45662L49.7905 2.9694ZM56.7087 5.00188L57.9251 2.81781L56.7087 5.00188ZM57.3069 5.33507L56.0904 7.51913L57.3069 5.33507ZM57.9051 5.66825L59.1216 3.48419L57.9051 5.66825ZM63.8182 8.65826L64.8546 6.38321L63.8182 8.65826ZM64.4311 8.93748L63.3947 11.2125L64.4311 8.93748ZM65.044 9.2167L66.0804 6.94165L65.044 9.2167ZM70.7952 12.4838L72.2152 10.4262L70.7952 12.4838ZM71.3603 12.8737L69.9403 14.9313L71.3603 12.8737ZM71.9253 13.2637L73.3453 11.2061L71.9253 13.2637ZM76.6831 17.863L74.675 19.3522L76.6831 17.863ZM77.0925 18.4151L75.0844 19.9043L77.0925 18.4151ZM77.5019 18.9672L79.51 17.478L77.5019 18.9672ZM81.1719 24.5652L79.0053 25.8125L81.1719 24.5652ZM81.5141 25.1597L83.6807 23.9124L81.5141 25.1597ZM81.8564 25.7542L79.6897 27.0015L81.8564 25.7542ZM84.2882 31.9105L81.8538 32.4798L84.2882 31.9105ZM84.444 32.577L82.0097 33.1462L84.444 32.577ZM84.5998 33.2434L87.0342 32.6742L84.5998 33.2434ZM85.7961 39.7744L88.2743 39.4451L85.7961 39.7744ZM85.8853 40.4456L83.4071 40.7749L85.8853 40.4456ZM85.9745 41.1168L88.4527 40.7876L85.9745 41.1168ZM86.2398 45.0605L88.6621 45.6788L86.2398 45.0605ZM86.2049 45.197L88.6273 45.8153L86.2049 45.197ZM86.1701 45.3335L83.7478 44.7153L86.1701 45.3335ZM86.0315 49.3223L83.5316 49.3461L86.0315 49.3223ZM86.038 50.0028L83.5381 50.0265L83.5445 50.707L86.0444 50.6833L88.5443 50.6596L88.5379 49.9791L86.038 50.0028ZM86.0444 50.6833L83.5445 50.707C83.5637 52.7209 83.3425 54.7183 82.8794 56.7033L85.314 57.2713L87.7486 57.8393C88.3014 55.4701 88.5672 53.0755 88.5443 50.6596L86.0444 50.6833ZM85.314 57.2713L82.8794 56.7033L82.7234 57.3721L85.158 57.9402L87.5926 58.5082L87.7486 57.8393L85.314 57.2713ZM85.158 57.9402L82.7234 57.3721L82.5673 58.041L85.0019 58.6091L87.4365 59.1771L87.5926 58.5082L85.158 57.9402ZM85.0019 58.6091L82.5673 58.041C82.1295 59.9174 81.3708 61.6441 80.285 63.2357L82.3501 64.6447L84.4152 66.0537C85.8492 63.9519 86.8584 61.6549 87.4365 59.1771L85.0019 58.6091ZM82.3501 64.6447L80.285 63.2357L79.8979 63.803L81.963 65.212L84.0281 66.621L84.4152 66.0537L82.3501 64.6447ZM81.963 65.212L79.8979 63.803L79.5108 64.3704L81.5759 65.7794L83.641 67.1884L84.0281 66.621L81.963 65.212ZM81.5759 65.7794L79.5108 64.3704C78.2703 66.1885 77.0071 67.9592 75.7212 69.6824L77.7249 71.1775L79.7285 72.6726C81.0575 70.8916 82.3616 69.0635 83.641 67.1884L81.5759 65.7794ZM77.7249 71.1775L75.7212 69.6824L75.3195 70.2207L77.3232 71.7158L79.3269 73.2109L79.7285 72.6726L77.7249 71.1775ZM77.3232 71.7158L75.3195 70.2207L74.9179 70.759L76.9215 72.2541L78.9252 73.7492L79.3269 73.2109L77.3232 71.7158ZM76.9215 72.2541L74.9179 70.759C73.6342 72.4793 72.2947 74.1891 70.8993 75.8882L72.8312 77.4749L74.7632 79.0615C76.2067 77.3038 77.5941 75.5331 78.9252 73.7492L76.9215 72.2541ZM72.8312 77.4749L70.8993 75.8882L70.4632 76.4192L72.3951 78.0059L74.3271 79.5925L74.7632 79.0615L72.8312 77.4749ZM72.3951 78.0059L70.4632 76.4192L70.027 76.9502L71.959 78.5369L73.891 80.1236L74.3271 79.5925L72.3951 78.0059ZM71.959 78.5369L70.027 76.9502C68.8286 78.4096 67.3961 79.5559 65.7124 80.4037L66.8367 82.6366L67.961 84.8695C70.2681 83.7078 72.2506 82.121 73.891 80.1236L71.959 78.5369ZM66.8367 82.6366L65.7124 80.4037L65.0993 80.7123L66.2236 82.9453L67.3479 85.1782L67.961 84.8695L66.8367 82.6366ZM66.2236 82.9453L65.0993 80.7123L64.4863 81.021L65.6105 83.2539L66.7349 85.4869L67.3479 85.1782L66.2236 82.9453ZM65.6105 83.2539L64.4863 81.021C62.5429 81.9995 60.5796 82.9029 58.5964 83.7312L59.5599 86.0381L60.5235 88.3449C62.6169 87.4706 64.6873 86.5178 66.7349 85.4869L65.6105 83.2539ZM59.5599 86.0381L58.5964 83.7312L57.9702 83.9928L58.9337 86.2997L59.8973 88.6065L60.5235 88.3449L59.5599 86.0381ZM58.9337 86.2997L57.9702 83.9928L57.3439 84.2544L58.3075 86.5612L59.271 88.8681L59.8973 88.6065L58.9337 86.2997ZM58.3075 86.5612L57.3439 84.2544C55.5775 84.9922 53.7458 85.4003 51.8356 85.482L51.9424 87.9797L52.0492 90.4775C54.5492 90.3706 56.9609 89.833 59.271 88.8681L58.3075 86.5612ZM51.9424 87.9797L51.8356 85.482L51.1581 85.511L51.265 88.0087L51.3718 90.5064L52.0492 90.4775L51.9424 87.9797ZM51.265 88.0087L51.1581 85.511L50.4807 85.54L50.5875 88.0377L50.6943 90.5354L51.3718 90.5064L51.265 88.0087ZM50.5875 88.0377L50.4807 85.54C48.3324 85.6318 46.2151 85.6489 44.1284 85.5916L44.0598 88.0907L43.9911 90.5897C46.1979 90.6504 48.4324 90.6321 50.6943 90.5354L50.5875 88.0377ZM44.0598 88.0907L44.1284 85.5916L43.4689 85.5735L43.4002 88.0725L43.3316 90.5716L43.9911 90.5897L44.0598 88.0907ZM43.4002 88.0725L43.4689 85.5735L42.8094 85.5554L42.7407 88.0544L42.672 90.5535L43.3316 90.5716L43.4002 88.0725ZM42.7407 88.0544L42.8094 85.5554C40.5978 85.4946 38.345 85.5188 36.0512 85.6273L36.1694 88.1245L36.2875 90.6217C38.462 90.5188 40.5901 90.4963 42.672 90.5535L42.7407 88.0544ZM36.1694 88.1245L36.0512 85.6273L35.3648 85.6598L35.483 88.157L35.6012 90.6542L36.2875 90.6217L36.1694 88.1245ZM35.483 88.157L35.3648 85.6598L34.6784 85.6923L34.7966 88.1895L34.9148 90.6867L35.6012 90.6542L35.483 88.157ZM34.7966 88.1895L34.6784 85.6923C32.7662 85.7828 30.9191 85.5116 29.1194 84.8768L28.2878 87.2345L27.4563 89.5921C29.8665 90.4422 32.3587 90.8077 34.9148 90.6867L34.7966 88.1895ZM28.2878 87.2345L29.1194 84.8768L28.4727 84.6487L27.6411 87.0064L26.8096 89.3641L27.4563 89.5921L28.2878 87.2345ZM27.6411 87.0064L28.4727 84.6487L27.8259 84.4206L26.9944 86.7783L26.1629 89.136L26.8096 89.3641L27.6411 87.0064ZM26.9944 86.7783L27.8259 84.4206C25.987 83.7721 24.3152 82.8409 22.7995 81.6216L21.2325 83.5695L19.6655 85.5175C21.6224 87.0917 23.7918 88.2997 26.1629 89.136L26.9944 86.7783ZM21.2325 83.5695L22.7995 81.6216L22.2661 81.1925L20.6991 83.1404L19.132 85.0883L19.6655 85.5175L21.2325 83.5695ZM20.6991 83.1404L22.2661 81.1925L21.7327 80.7634L20.1656 82.7113L18.5986 84.6592L19.132 85.0883L20.6991 83.1404ZM20.1656 82.7113L21.7327 80.7634C20.0751 79.4299 18.5289 78.021 17.0927 76.5367L15.2961 78.2751L13.4994 80.0135C15.0835 81.6507 16.7836 83.1992 18.5986 84.6592L20.1656 82.7113ZM15.2961 78.2751L17.0927 76.5367L16.6288 76.0572L14.8321 77.7956L13.0355 79.534L13.4994 80.0135L15.2961 78.2751ZM14.8321 77.7956L16.6288 76.0572L16.1648 75.5777L14.3682 77.3161L12.5715 79.0546L13.0355 79.534L14.8321 77.7956ZM14.3682 77.3161L16.1648 75.5777C14.6776 74.0407 13.2225 72.4761 11.7994 70.8839L9.93542 72.5498L8.07139 74.2158C9.53846 75.8573 11.0385 77.4702 12.5715 79.0546L14.3682 77.3161ZM9.93542 72.5498L11.7994 70.8839L11.3555 70.3871L9.49145 72.0531L7.62743 73.719L8.07139 74.2158L9.93542 72.5498ZM9.49145 72.0531L11.3555 70.3871L10.9115 69.8904L9.04749 71.5563L7.18347 73.2223L7.62743 73.719L9.49145 72.0531ZM9.04749 71.5563L10.9115 69.8904C9.66386 68.4944 8.70131 66.9315 8.01646 65.19L5.68989 66.1049L3.36332 67.0199C4.26515 69.3131 5.541 71.3846 7.18347 73.2223L9.04749 71.5563ZM5.68989 66.1049L8.01646 65.19L7.77272 64.5702L5.44615 65.4851L3.11958 66.4001L3.36332 67.0199L5.68989 66.1049ZM5.44615 65.4851L7.77272 64.5702L7.52898 63.9504L5.20241 64.8653L2.87585 65.7803L3.11958 66.4001L5.44615 65.4851ZM5.20241 64.8653L7.52898 63.9504C6.75928 61.9931 6.07275 60.0248 5.46912 58.0454L3.07784 58.7747L0.686557 59.5039C1.32901 61.6106 2.05886 63.7028 2.87585 65.7803L5.20241 64.8653ZM3.07784 58.7747L5.46912 58.0454L5.2777 57.4177L2.88642 58.147L0.49514 58.8762L0.686557 59.5039L3.07784 58.7747ZM2.88642 58.147L5.2777 57.4177L5.08628 56.7901L2.695 57.5193L0.303724 58.2485L0.49514 58.8762L2.88642 58.147ZM2.695 57.5193L5.08628 56.7901C4.49816 54.8615 4.04939 52.8955 3.74003 50.891L1.26928 51.2724L-1.20147 51.6537C-0.85595 53.8924 -0.354236 56.091 0.303724 58.2485L2.695 57.5193ZM1.26928 51.2724L3.74003 50.891L3.63943 50.2392L1.16868 50.6206L-1.30207 51.0019L-1.20147 51.6537L1.26928 51.2724ZM1.16868 50.6206L3.63943 50.2392L3.53883 49.5874L1.06808 49.9687L-1.40266 50.3501L-1.30207 51.0019L1.16868 50.6206ZM1.06808 49.9687L3.53883 49.5874C3.23505 47.6192 3.11432 45.63 3.17727 43.618L0.678488 43.5398L-1.82029 43.4616C-1.89277 45.7784 -1.75377 48.0752 -1.40266 50.3501L1.06808 49.9687ZM0.678488 43.5398L3.17727 43.618L3.19807 42.953L0.699292 42.8748L-1.79949 42.7966L-1.82029 43.4616L0.678488 43.5398ZM0.699292 42.8748L3.19807 42.953L3.21887 42.288L0.720095 42.2099L-1.77868 42.1317L-1.79949 42.7966L0.699292 42.8748ZM0.720095 42.2099L3.21887 42.288C3.27935 40.3547 3.6024 38.4717 4.18886 36.6325L1.80702 35.873L-0.574821 35.1135C-1.30217 37.3946 -1.70374 39.7362 -1.77868 42.1317L0.720095 42.2099ZM1.80702 35.873L4.18886 36.6325L4.39069 35.9996L2.00884 35.2401L-0.373 34.4806L-0.574821 35.1135L1.80702 35.873ZM2.00884 35.2401L4.39069 35.9996L4.59251 35.3667L2.21066 34.6072L-0.17118 33.8477L-0.373 34.4806L2.00884 35.2401ZM2.21066 34.6072L4.59251 35.3667C5.26213 33.2666 5.8875 31.1231 6.46873 28.9363L4.05262 28.2941L1.6365 27.6519C1.07561 29.7622 0.473006 31.8274 -0.17118 33.8477L2.21066 34.6072ZM4.05262 28.2941L6.46873 28.9363L6.64418 28.2762L4.22807 27.634L1.81195 26.9918L1.6365 27.6519L4.05262 28.2941ZM4.22807 27.634L6.64418 28.2762L6.81963 27.616L4.40351 26.9739L1.9874 26.3317L1.81195 26.9918L4.22807 27.634ZM4.40351 26.9739L6.81963 27.616C7.31185 25.7641 8.11681 24.0694 9.24113 22.5179L7.21679 21.0509L5.19245 19.5839C3.70786 21.6325 2.6373 23.8865 1.9874 26.3317L4.40351 26.9739ZM7.21679 21.0509L9.24113 22.5179L9.6419 21.9649L7.61756 20.4979L5.59322 19.0309L5.19245 19.5839L7.21679 21.0509ZM7.61756 20.4979L9.6419 21.9649L10.0427 21.4118L8.01833 19.9448L5.99399 18.4779L5.59322 19.0309L7.61756 20.4979ZM8.01833 19.9448L10.0427 21.4118C11.2814 19.7024 12.6326 18.0787 14.0969 16.5403L12.2861 14.8167L10.4753 13.0931C8.85813 14.7921 7.36416 16.5871 5.99399 18.4779L8.01833 19.9448ZM12.2861 14.8167L14.0969 16.5403L14.5703 16.043L12.7595 14.3194L10.9486 12.5958L10.4753 13.0931L12.2861 14.8167ZM12.7595 14.3194L14.5703 16.043L15.0437 15.5457L13.2328 13.8221L11.422 12.0985L10.9486 12.5958L12.7595 14.3194ZM13.2328 13.8221L15.0437 15.5457C16.4144 14.1056 17.9613 12.8992 19.6908 11.9214L18.4604 9.74514L17.23 7.56886C15.0708 8.7896 13.1327 10.3011 11.422 12.0985L13.2328 13.8221ZM18.4604 9.74514L19.6908 11.9214L20.2881 11.5837L19.0578 9.40742L17.8274 7.23114L17.23 7.56886L18.4604 9.74514ZM19.0578 9.40742L20.2881 11.5837L20.8855 11.246L19.6551 9.0697L18.4247 6.89342L17.8274 7.23114L19.0578 9.40742ZM19.6551 9.0697L20.8855 11.246C22.6432 10.2523 24.4825 9.50667 26.408 9.00539L25.7781 6.58603L25.1483 4.16668C22.7984 4.77845 20.5557 5.68864 18.4247 6.89342L19.6551 9.0697ZM25.7781 6.58603L26.408 9.00539L27.0648 8.83441L26.4349 6.41505L25.805 3.9957L25.1483 4.16668L25.7781 6.58603ZM26.4349 6.41505L27.0648 8.83441L27.7215 8.66343L27.0917 6.24407L26.4618 3.82472L25.805 3.9957L26.4349 6.41505ZM27.0917 6.24407L27.7215 8.66343C29.8068 8.12055 31.8793 7.65332 33.9392 7.26142L33.472 4.80547L33.0047 2.34952C30.8329 2.76271 28.6519 3.25455 26.4618 3.82472L27.0917 6.24407ZM33.472 4.80547L33.9392 7.26142L34.5893 7.13775L34.122 4.6818L33.6548 2.22585L33.0047 2.34952L33.472 4.80547ZM34.122 4.6818L34.5893 7.13775L35.2393 7.01408L34.7721 4.55813L34.3048 2.10218L33.6548 2.22585L34.122 4.6818ZM34.7721 4.55813L35.2393 7.01408C37.3446 6.61355 39.4777 6.2218 41.6387 5.83884L41.2024 3.3772L40.7662 0.915556C38.585 1.30209 36.4313 1.69763 34.3048 2.10218L34.7721 4.55813ZM41.2024 3.3772L41.6387 5.83884L42.3057 5.72064L41.8694 3.25899L41.4332 0.79735L40.7662 0.915556L41.2024 3.3772ZM41.8694 3.25899L42.3057 5.72064L42.9727 5.60243L42.5364 3.14079L42.1002 0.679145L41.4332 0.79735L41.8694 3.25899ZM42.5364 3.14079L42.9727 5.60243C44.9145 5.2583 46.8742 5.18625 48.8585 5.38765L49.1109 2.90042L49.3633 0.413201C46.9237 0.165586 44.5004 0.253778 42.1002 0.679145L42.5364 3.14079ZM49.1109 2.90042L48.8585 5.38765L49.538 5.45662L49.7905 2.9694L50.0429 0.482175L49.3633 0.413201L49.1109 2.90042ZM49.7905 2.9694L49.538 5.45662L50.2176 5.52559L50.4701 3.03837L50.7225 0.55115L50.0429 0.482175L49.7905 2.9694ZM50.4701 3.03837L50.2176 5.52559C52.0901 5.71564 53.8417 6.26666 55.4922 7.18594L56.7087 5.00188L57.9251 2.81781C55.6814 1.5681 53.274 0.810111 50.7225 0.55115L50.4701 3.03837ZM56.7087 5.00188L55.4922 7.18594L56.0904 7.51913L57.3069 5.33507L58.5233 3.151L57.9251 2.81781L56.7087 5.00188ZM57.3069 5.33507L56.0904 7.51913L56.6886 7.85232L57.9051 5.66825L59.1216 3.48419L58.5233 3.151L57.3069 5.33507ZM57.9051 5.66825L56.6886 7.85232C58.6935 8.96901 60.7245 9.99612 62.7818 10.9333L63.8182 8.65826L64.8546 6.38321C62.9218 5.50272 61.0108 4.53649 59.1216 3.48419L57.9051 5.66825ZM63.8182 8.65826L62.7818 10.9333L63.3947 11.2125L64.4311 8.93748L65.4675 6.66243L64.8546 6.38321L63.8182 8.65826ZM64.4311 8.93748L63.3947 11.2125L64.0076 11.4917L65.044 9.2167L66.0804 6.94165L65.4675 6.66243L64.4311 8.93748ZM65.044 9.2167L64.0076 11.4917C65.866 12.3384 67.655 13.3542 69.3753 14.5414L70.7952 12.4838L72.2152 10.4262C70.2572 9.07494 68.212 7.9127 66.0804 6.94165L65.044 9.2167ZM70.7952 12.4838L69.3753 14.5414L69.9403 14.9313L71.3603 12.8737L72.7802 10.8161L72.2152 10.4262L70.7952 12.4838ZM71.3603 12.8737L69.9403 14.9313L70.5054 15.3213L71.9253 13.2637L73.3453 11.2061L72.7802 10.8161L71.3603 12.8737ZM71.9253 13.2637L70.5054 15.3213C72.1184 16.4344 73.5057 17.7754 74.675 19.3522L76.6831 17.863L78.6911 16.3738C77.1952 14.3566 75.4107 12.6314 73.3453 11.2061L71.9253 13.2637ZM76.6831 17.863L74.675 19.3522L75.0844 19.9043L77.0925 18.4151L79.1006 16.9259L78.6911 16.3738L76.6831 17.863ZM77.0925 18.4151L75.0844 19.9043L75.4939 20.4564L77.5019 18.9672L79.51 17.478L79.1006 16.9259L77.0925 18.4151ZM77.5019 18.9672L75.4939 20.4564C76.7692 22.176 77.9395 23.9613 79.0053 25.8125L81.1719 24.5652L83.3385 23.3179C82.1763 21.2991 80.9 19.3524 79.51 17.478L77.5019 18.9672ZM81.1719 24.5652L79.0053 25.8125L79.3475 26.407L81.5141 25.1597L83.6807 23.9124L83.3385 23.3179L81.1719 24.5652ZM81.5141 25.1597L79.3475 26.407L79.6897 27.0015L81.8564 25.7542L84.023 24.5069L83.6807 23.9124L81.5141 25.1597ZM81.8564 25.7542L79.6897 27.0015C80.6821 28.7253 81.4024 30.549 81.8538 32.4798L84.2882 31.9105L86.7225 31.3413C86.1595 28.9337 85.2586 26.6532 84.023 24.5069L81.8564 25.7542ZM84.2882 31.9105L81.8538 32.4798L82.0097 33.1462L84.444 32.577L86.8783 32.0077L86.7225 31.3413L84.2882 31.9105ZM84.444 32.577L82.0097 33.1462L82.1655 33.8126L84.5998 33.2434L87.0342 32.6742L86.8783 32.0077L84.444 32.577ZM84.5998 33.2434L82.1655 33.8126C82.6544 35.9034 83.0384 38.0004 83.3179 40.1036L85.7961 39.7744L88.2743 39.4451C87.9732 37.1788 87.5597 34.9217 87.0342 32.6742L84.5998 33.2434ZM85.7961 39.7744L83.3179 40.1036L83.4071 40.7749L85.8853 40.4456L88.3635 40.1163L88.2743 39.4451L85.7961 39.7744ZM85.8853 40.4456L83.4071 40.7749L83.4962 41.4461L85.9745 41.1168L88.4527 40.7876L88.3635 40.1163L85.8853 40.4456ZM85.9745 41.1168L83.4962 41.4461C83.6383 42.5153 83.7252 43.3297 83.7641 43.9092C83.7837 44.1999 83.7891 44.401 83.7872 44.5286C83.7849 44.6964 83.7711 44.6238 83.8174 44.4423L86.2398 45.0605L88.6621 45.6788C88.8331 45.0088 88.7932 44.1727 88.7529 43.5736C88.7034 42.8385 88.6009 41.9032 88.4527 40.7876L85.9745 41.1168ZM86.2398 45.0605L83.8174 44.4423L83.7826 44.5788L86.2049 45.197L88.6273 45.8153L88.6621 45.6788L86.2398 45.0605ZM86.2049 45.197L83.7826 44.5788L83.7478 44.7153L86.1701 45.3335L88.5924 45.9518L88.6273 45.8153L86.2049 45.197ZM86.1701 45.3335L83.7478 44.7153C83.6137 45.2405 83.5736 45.952 83.5519 46.5772C83.527 47.2949 83.521 48.2225 83.5316 49.3461L86.0315 49.3223L88.5314 49.2986C88.5211 48.2073 88.5276 47.3627 88.5489 46.7508C88.5595 46.4442 88.5732 46.2166 88.5876 46.0568C88.6045 45.8688 88.615 45.8636 88.5924 45.9518L86.1701 45.3335ZM86.0315 49.3223L83.5316 49.3461L83.5381 50.0265L86.038 50.0028L88.5379 49.9791L88.5314 49.2986L86.0315 49.3223Z" fill="#FF9D33"/>
</mask>
<g mask="url(#mask0_178_3328)">
<path d="M43 -2.01072e-06C41.1826 -1.93128e-06 39.3668 0.107702 37.5621 0.322546L43 46L43 -2.01072e-06Z" fill="#EE0505"/>
</g>
</svg>
