<svg width="90" height="90" viewBox="0 0 90 90" fill="none" xmlns="http://www.w3.org/2000/svg">
<circle cx="45" cy="45" r="43" fill="#F9C58D" fill-opacity="0.3"/>
<path d="M48.2891 0.183594L48.6875 0.207031L49.0977 0.242188C50.4614 0.33712 51.8213 0.486423 53.1758 0.699219L53.5859 0.769531L53.9844 0.828125C55.4674 1.06127 56.8849 1.54164 58.2148 2.25781L58.5781 2.45703L58.9414 2.64453C60.0329 3.23206 61.1598 3.70633 62.3281 4.05078L62.7148 4.15625L63.1133 4.27344C64.5158 4.68728 65.8305 5.2954 67.0625 6.07812L67.4141 6.28906L67.7539 6.51172C68.9382 7.26442 70.0555 8.10523 71.0938 9.04297L71.3867 9.3125L71.6914 9.59375C72.6567 10.4656 73.6305 11.3198 74.6094 12.1602L74.9141 12.418L75.2188 12.6875C76.2848 13.6028 77.252 14.6128 78.1133 15.7227L78.6055 16.3555C79.441 17.4323 80.2048 18.5564 80.9023 19.7188L81.1133 20.0586L81.3125 20.4102C81.9345 21.4467 82.6643 22.4376 83.4805 23.3867L83.7383 23.6914L84.0078 24.0078C85.0537 25.2242 85.721 26.6355 86 28.2148L86.0703 28.6133L86.1406 29.0234C86.3407 30.1549 86.7452 31.2248 87.3477 32.2344L87.5586 32.5859L87.7695 32.9492C88.5945 34.332 89.0385 35.8299 89.0703 37.4258V37.8359L89.082 38.2461C89.1082 39.5716 89.1376 40.8841 89.1758 42.1836L89.1875 42.5938L89.1992 42.9922C89.2182 43.6381 89.2466 44.099 89.2695 44.3867C89.2705 44.3988 89.2686 44.4107 89.2695 44.4219C89.3196 44.5368 89.3635 44.6216 89.375 44.668C89.4162 44.8346 89.4305 44.9885 89.4336 45.0547C89.4408 45.2137 89.4312 45.3978 89.4219 45.5703C89.4021 45.9349 89.3498 46.4517 89.2812 47.1055L89.2461 47.5039L89.1992 47.9141C89.0701 49.1471 89.027 50.4011 89.0586 51.6758L89.0703 52.0977L89.082 52.5078C89.1193 54.0162 88.902 55.4878 88.4375 56.9141L88.1797 57.6875C87.7355 59.0506 87.1608 60.361 86.4453 61.6016L86.2344 61.9531L86.0352 62.3047C85.4249 63.3628 84.9299 64.4802 84.5469 65.6562L84.418 66.0547L84.2891 66.4414C83.7888 67.9783 82.9162 69.2924 81.6875 70.3555L81.3711 70.625L81.0547 70.9062C80.1229 71.7117 79.3198 72.5945 78.6523 73.5664L78.4297 73.9062L78.1953 74.2344C77.373 75.4315 76.3988 76.4901 75.2773 77.4102L74.9727 77.668L74.6562 77.9258C73.6469 78.7538 72.6361 79.5861 71.6328 80.4219L71.3281 80.6797L71.0117 80.9375C69.9279 81.8399 68.7638 82.6285 67.5195 83.293L67.168 83.4805L66.8047 83.668C65.6935 84.2615 64.5988 84.9213 63.5234 85.6367L63.1836 85.8594L62.8438 86.0938C61.4919 86.9931 59.979 87.4708 58.3438 87.5234L57.5 87.5469C56.3056 87.5856 55.1732 87.8204 54.1016 88.2383L53.7266 88.3789L53.3398 88.5312C51.9007 89.0916 50.4015 89.327 48.8633 89.2227L48.4648 89.1875L48.0547 89.1641C46.84 89.0817 45.6238 89.1212 44.4102 89.293L44.0117 89.3516L43.6016 89.4102C42.0754 89.6257 40.5662 89.514 39.0898 89.082L38.7031 88.9766L38.3047 88.8594C37.0514 88.4927 35.8068 88.1432 34.5664 87.8281L33.793 87.6406C32.4742 87.3056 31.1809 86.882 29.9141 86.3867L29.1641 86.1055C27.8994 85.6109 26.6679 85.0339 25.4727 84.3945L24.7695 84.0195C23.6112 83.3998 22.4606 82.763 21.3242 82.0977L20.9844 81.8867L20.6328 81.6875C19.5198 81.0358 18.3864 80.3843 17.2344 79.7305L16.8711 79.5195L16.5195 79.3203C15.1572 78.5471 14.0312 77.5032 13.1562 76.2031L12.9219 75.8633L12.6992 75.5234C12.0291 74.5278 11.2357 73.6393 10.3203 72.8516L10.0039 72.582L9.69922 72.3125C8.53474 71.3106 7.5972 70.1255 6.91016 68.7617L6.73438 68.3867L6.54688 68.0234C5.93333 66.8046 5.36324 65.5701 4.84766 64.3203L4.54297 63.5703C4.04064 62.3527 3.53473 61.1363 3.04297 59.9141L2.90234 59.5391L2.75 59.1641C2.20467 57.8086 1.86583 56.3911 1.73047 54.9336L1.68359 54.5352L1.64844 54.125C1.53059 52.8577 1.35971 51.6037 1.13281 50.3633L0.992188 49.5664C0.74052 48.1896 0.610754 46.7956 0.617188 45.3945V44.5977C0.623633 43.1941 0.765606 41.8009 1.03906 40.4258L1.20312 39.6289C1.46208 38.3288 1.74031 37.0388 2.04688 35.7617L2.23438 34.9883C2.53252 33.7462 2.80773 32.4856 3.06641 31.2148L3.14844 30.8281L3.23047 30.4297C3.5294 28.9612 4.08726 27.5905 4.89453 26.3281L5.10547 25.9883L5.32812 25.6484C6.03113 24.5491 6.71708 23.4499 7.39062 22.3555L7.8125 21.6758C8.50749 20.5466 9.24435 19.4429 10.0156 18.3594L10.25 18.0312L10.4727 17.7031C11.2256 16.6454 11.9887 15.5735 12.7578 14.4922L13.2266 13.8359C14.1037 12.6028 15.1837 11.5663 16.4492 10.7422L17.1289 10.2969C18.2763 9.55036 19.4588 8.86336 20.6562 8.23438L21.3594 7.85938C22.5 7.2602 23.6314 6.64831 24.7461 6.01953L25.4492 5.62109C26.5407 5.00516 27.6301 4.32867 28.7188 3.59375L29.0586 3.35938L29.4102 3.125C30.6958 2.25761 32.0981 1.67175 33.6055 1.37891L34.0039 1.30859L34.4141 1.22656C35.8225 0.953287 37.2466 0.825912 38.6797 0.851562L39.0898 0.863281H39.4883C40.7184 0.8853 41.9443 0.790741 43.1562 0.570312L43.5547 0.5L43.9648 0.429688C45.3963 0.169408 46.8419 0.0829077 48.2891 0.183594ZM44.5039 3.37109L44.0938 3.45312L43.6953 3.52344C42.2887 3.77934 40.8697 3.88877 39.4414 3.86328H39.0312L38.6211 3.85156C37.3973 3.82981 36.18 3.93417 34.9766 4.16797L34.1797 4.33203C33.0739 4.54685 32.0438 4.97449 31.0859 5.62109L30.7461 5.84375L30.3945 6.07812C29.2411 6.85674 28.0796 7.57685 26.9141 8.23438L26.5742 8.43359L26.2227 8.63281C25.0811 9.27675 23.9215 9.9062 22.7539 10.5195L22.4023 10.707L22.0508 10.8828C20.9376 11.4675 19.8393 12.1088 18.7695 12.8047L18.0898 13.25C17.1394 13.8684 16.3362 14.6419 15.6758 15.5703L15.4414 15.8984L15.207 16.2383C14.4378 17.3197 13.6749 18.3914 12.9219 19.4492L12.6875 19.7656L12.4531 20.0938C11.7207 21.1226 11.0268 22.1744 10.3672 23.2461L9.94531 23.9258C9.26246 25.0354 8.57167 26.1518 7.85938 27.2656L7.63672 27.6055L7.42578 27.9453C6.81744 28.8966 6.39718 29.9205 6.17188 31.0273L6.08984 31.4258L6.00781 31.8125C5.74228 33.1169 5.45876 34.4149 5.15234 35.6914L4.96484 36.4648C4.66766 37.703 4.3958 38.9533 4.14453 40.2148L3.98047 41.0117C3.74461 42.198 3.62275 43.3977 3.61719 44.6094V45.418C3.61188 46.6318 3.71575 47.8351 3.93359 49.0273L4.01562 49.4258L4.08594 49.8242C4.32908 51.1536 4.51079 52.4995 4.63672 53.8555L4.67188 54.2539L4.70703 54.6641C4.81582 55.8315 5.09138 56.9553 5.52734 58.0391L5.83203 58.7891C6.32133 60.0052 6.82048 61.222 7.32031 62.4336L7.625 63.1836C8.11141 64.3622 8.65073 65.5242 9.23047 66.6758L9.40625 67.0391L9.59375 67.4023C10.1014 68.4108 10.7876 69.2917 11.6562 70.0391L11.9609 70.3086L12.2773 70.5781C13.3941 71.5392 14.3635 72.6296 15.1836 73.8477L15.418 74.1875L15.6406 74.5273C16.2555 75.441 17.0402 76.1635 17.9961 76.707L18.3594 76.918L18.7109 77.1172C19.8771 77.779 21.0288 78.4375 22.1562 79.0977L22.4961 79.2969L22.8477 79.5078C23.9508 80.1536 25.0633 80.7815 26.1875 81.3828L26.8906 81.7578C27.9794 82.3401 29.1014 82.8538 30.2539 83.3047L30.6289 83.4453L31.0039 83.5977C32.1554 84.0479 33.3324 84.4298 34.5312 84.7344L35.3047 84.9219C36.5806 85.246 37.8613 85.6 39.1484 85.9766L39.5469 86.0938L39.9336 86.2109C40.9975 86.522 42.076 86.6008 43.1797 86.4453L43.5898 86.3867L43.9883 86.3281C45.4058 86.1275 46.8315 86.0679 48.2539 86.1641L48.6641 86.1992L49.0742 86.2227C50.1696 86.2962 51.2217 86.1309 52.25 85.7305L52.6367 85.5898L53.0117 85.4375C54.4099 84.8922 55.8798 84.596 57.4062 84.5469L58.25 84.5234C59.3349 84.488 60.3021 84.181 61.1797 83.5977L61.5195 83.3633L61.8594 83.1406C63.0145 82.3721 64.1989 81.6601 65.3984 81.0195L66.1016 80.6445C67.1675 80.0753 68.1734 79.4021 69.1016 78.6289L69.7109 78.1133C70.7205 77.2723 71.7422 76.4387 72.7578 75.6055L73.0625 75.3477L73.3789 75.0898C74.2805 74.3497 75.0606 73.4991 75.7227 72.5352L75.957 72.207L76.1797 71.8672C76.9966 70.6778 77.9677 69.5998 79.0859 68.6328L79.4023 68.3633L79.7188 68.082C80.5397 67.3721 81.1121 66.5272 81.4414 65.5156L81.5586 65.1172L81.6875 64.7305C82.1346 63.357 82.7176 62.0462 83.4336 60.8047L83.6445 60.4531L83.8438 60.1016C84.455 59.0416 84.9523 57.927 85.332 56.7617L85.4609 56.375L85.5781 55.9883C85.9368 54.8876 86.1113 53.7506 86.082 52.5781L86.0586 51.7578C86.0236 50.3536 86.0792 48.9656 86.2227 47.5977L86.2578 47.1992L86.3047 46.8008C86.3696 46.1813 86.3934 45.7299 86.4102 45.4414C86.3662 45.3119 86.3504 45.1954 86.3398 45.1367C86.3116 44.9797 86.2952 44.7962 86.2812 44.6211C86.2521 44.2553 86.2185 43.7319 86.1992 43.0742L86.1758 42.2773C86.1373 40.9667 86.1084 39.641 86.082 38.3047L86.0703 37.8945V37.4844C86.0489 36.4204 85.7647 35.4268 85.2031 34.4844L84.9805 34.1211L84.7695 33.7695C83.9832 32.4518 83.4518 31.0353 83.1875 29.5391L83.1172 29.1406L83.0469 28.7305C82.8611 27.6842 82.4278 26.7715 81.7344 25.9648L81.4648 25.6484L81.1953 25.3438C80.2714 24.2692 79.4581 23.1322 78.7461 21.9453L78.5352 21.6055L78.3359 21.2656C77.6997 20.2051 77.0019 19.1794 76.2383 18.1953L75.7461 17.5625C75.0079 16.6111 74.1757 15.7456 73.2617 14.9609L72.957 14.7031L72.6523 14.4336C71.6544 13.5768 70.6595 12.7087 69.6758 11.8203L69.3828 11.5391L69.0781 11.2695C68.1649 10.4449 67.18 9.70577 66.1367 9.04297L65.7969 8.82031L65.457 8.60938C64.4607 7.97635 63.3941 7.49125 62.2578 7.15625L61.4844 6.92188C60.1134 6.51769 58.784 5.97807 57.5117 5.29297L56.7852 4.89453C55.7533 4.3394 54.6692 3.97309 53.5273 3.79297L53.1172 3.73438L52.7188 3.66406C51.4472 3.46417 50.1661 3.31948 48.8867 3.23047L48.4766 3.20703L48.0781 3.17188C46.8823 3.08868 45.6894 3.15589 44.5039 3.37109Z" fill="#FF9D33"/>
</svg>
