<svg width="426" height="424" viewBox="0 0 426 424" fill="none" xmlns="http://www.w3.org/2000/svg">
<path fill-rule="evenodd" clip-rule="evenodd" d="M223.088 0.0164199C230.128 0.04458 237.001 1.24222 243.676 3.5965L247.323 4.88263C252.992 6.88225 258.676 8.50848 264.374 9.76447L268.052 10.575C274.409 11.9762 280.617 13.8775 286.672 16.2772L290.176 17.6658C296.065 19.9998 301.846 22.5799 307.517 25.4041L310.892 27.0848C316.764 30.0091 322.328 33.4352 327.579 37.3611L330.596 39.617C335.526 43.3036 340.433 47.0147 345.316 50.7488L348.304 53.034C353.367 56.9053 358.22 61.0435 362.864 65.4471L365.606 68.0477C370.404 72.5976 374.717 77.5735 378.54 82.9686L380.725 86.0516C384.29 91.0822 387.843 96.1289 391.382 101.191L393.552 104.295C397.375 109.763 400.57 115.581 403.133 121.739L404.587 125.233C406.881 130.744 409.414 136.198 412.185 141.594L413.94 145.011C417.038 151.042 419.43 157.345 421.113 163.912L422.065 167.633C423.76 174.25 424.627 180.984 424.664 187.821L424.684 191.667C424.717 197.975 424.62 202.961 424.368 206.52L424.224 208.539C424.174 209.25 424.142 209.833 424.123 210.3C424.139 210.338 424.155 210.373 424.168 210.404C424.472 211.137 424.62 211.813 424.686 212.136C424.841 212.893 424.947 213.772 425.031 214.61C425.205 216.362 425.365 218.854 425.513 222.005L425.694 225.844C426.007 232.477 425.776 239.104 425.003 245.721L424.555 249.553C423.745 256.486 421.934 263.169 419.13 269.58L417.579 273.126C415.084 278.829 412.704 284.519 410.437 290.196L409.027 293.729C406.756 299.417 404.543 305.187 402.391 311.041L401.055 314.675C398.6 321.352 395.084 327.43 390.524 332.875L388.044 335.835C384.018 340.642 380.023 345.44 376.059 350.228L373.619 353.178C369.227 358.483 364.177 363.098 358.487 367.011L355.321 369.187C350.176 372.725 345.092 376.238 340.069 379.725L336.977 381.871C332.243 385.158 327.69 388.855 323.322 392.969L320.486 395.638C315.341 400.483 309.593 404.423 303.26 407.436L299.782 409.092C293.554 412.054 287.033 414.153 280.233 415.385L276.431 416.072C270.131 417.213 263.859 418.189 257.616 418.998L253.853 419.485C247.808 420.268 241.783 421.153 235.777 422.138L232.039 422.75C225.303 423.854 218.531 424.009 211.74 423.218L207.968 422.779C201.823 422.063 195.715 421.342 189.645 420.619L185.919 420.177C179.695 419.435 173.494 418.479 167.316 417.311L163.617 416.612C157.335 415.425 151.127 413.884 144.994 411.992L141.38 410.878C135.041 408.922 128.96 406.345 123.145 403.15L119.831 401.329C114.7 398.51 109.342 395.993 103.757 393.777L100.162 392.349C93.6704 389.774 87.6909 386.324 82.2456 382.006L79.2358 379.618C74.2274 375.646 69.3316 371.522 64.5493 367.247L61.6743 364.677C56.6039 360.144 52.0914 355.105 48.145 349.566L45.9077 346.425C42.0144 340.96 38.6567 335.191 35.8384 329.123L34.2192 325.638C31.5939 319.985 28.9674 314.397 26.3393 308.875L24.7192 305.47C22.1443 300.059 19.3787 294.68 16.4233 289.335L14.5649 285.973C11.3079 280.082 8.67888 273.915 6.68113 267.48L5.54148 263.809C3.45123 257.076 2.52071 250.154 2.74852 243.077L2.87254 239.209C3.06338 233.281 2.79224 227.419 2.06102 221.621L1.5825 217.828C0.774274 211.419 0.288021 204.954 0.123515 198.436L0.0258592 194.576C-0.148017 187.687 0.555018 180.883 2.13328 174.18L3.01707 170.426C4.47864 164.219 6.06755 158.048 7.7827 151.916L8.82078 148.206C10.6488 141.67 13.1672 135.405 16.3716 129.421L18.1899 126.023C21.1746 120.449 24.2092 114.929 27.2915 109.465L29.1694 106.136C32.3097 100.569 35.6516 95.1132 39.1948 89.7703L41.3149 86.5731C45.2249 80.6771 50.0596 75.6011 55.7856 71.366L58.9009 69.0623C63.7397 65.4835 68.2649 61.6801 72.478 57.6551L75.2016 55.0526C79.7652 50.6928 84.5043 46.4979 89.4175 42.4676L92.352 40.0594C97.7215 35.6548 103.675 32.2069 110.182 29.7283L113.743 28.3719C119.154 26.3109 124.34 23.798 129.303 20.8309L132.571 18.8768C138.498 15.3337 144.82 12.7467 151.514 11.1268L155.201 10.2352C161.386 8.73839 167.609 7.4973 173.867 6.51349L177.594 5.92755C183.56 4.98971 189.547 3.91553 195.554 2.7049L199.306 1.94904C205.882 0.623862 212.533 -0.0259836 219.252 0.000794859L223.088 0.0164199Z" fill="#ED613D"/>
</svg>
