<svg width="91" height="93" viewBox="0 0 91 93" fill="none" xmlns="http://www.w3.org/2000/svg">
<circle cx="46" cy="48" r="43" fill="#F9C58D" fill-opacity="0.3"/>
<path d="M49.2891 3.18359L49.6875 3.20703L50.0977 3.24219C51.4614 3.33712 52.8213 3.48642 54.1758 3.69922L54.5859 3.76953L54.9844 3.82812C56.4674 4.06127 57.8848 4.54164 59.2148 5.25781L59.5781 5.45703L59.9414 5.64453C61.0329 6.23206 62.1598 6.70633 63.3281 7.05078L63.7148 7.15625L64.1133 7.27344C65.5158 7.68728 66.8305 8.2954 68.0625 9.07812L68.4141 9.28906L68.7539 9.51172C69.9382 10.2644 71.0555 11.1052 72.0938 12.043L72.3867 12.3125L72.6914 12.5938C73.6567 13.4656 74.6305 14.3198 75.6094 15.1602L75.9141 15.418L76.2188 15.6875C77.2848 16.6028 78.252 17.6128 79.1133 18.7227L79.6055 19.3555C80.441 20.4323 81.2048 21.5564 81.9023 22.7188L82.1133 23.0586L82.3125 23.4102C82.9345 24.4467 83.6643 25.4376 84.4805 26.3867L84.7383 26.6914L85.0078 27.0078C86.0537 28.2241 86.721 29.6355 87 31.2148L87.0703 31.6133L87.1406 32.0234C87.3407 33.1549 87.7452 34.2248 88.3477 35.2344L88.5586 35.5859L88.7695 35.9492C89.5945 37.332 90.0385 38.8299 90.0703 40.4258V40.8359L90.082 41.2461C90.1082 42.5716 90.1376 43.8841 90.1758 45.1836L90.1875 45.5938L90.1992 45.9922C90.2182 46.6381 90.2466 47.099 90.2695 47.3867C90.2705 47.3988 90.2686 47.4107 90.2695 47.4219C90.3196 47.5368 90.3635 47.6216 90.375 47.668C90.4162 47.8346 90.4305 47.9885 90.4336 48.0547C90.4408 48.2137 90.4312 48.3978 90.4219 48.5703C90.4021 48.9349 90.3498 49.4517 90.2812 50.1055L90.2461 50.5039L90.1992 50.9141C90.0701 52.1471 90.027 53.4011 90.0586 54.6758L90.0703 55.0977L90.082 55.5078C90.1193 57.0162 89.902 58.4878 89.4375 59.9141L89.1797 60.6875C88.7355 62.0506 88.1608 63.361 87.4453 64.6016L87.2344 64.9531L87.0352 65.3047C86.4249 66.3628 85.9299 67.4802 85.5469 68.6562L85.418 69.0547L85.2891 69.4414C84.7888 70.9783 83.9162 72.2924 82.6875 73.3555L82.3711 73.625L82.0547 73.9062C81.1229 74.7117 80.3198 75.5945 79.6523 76.5664L79.4297 76.9062L79.1953 77.2344C78.373 78.4315 77.3988 79.4901 76.2773 80.4102L75.9727 80.668L75.6562 80.9258C74.6469 81.7538 73.6361 82.5861 72.6328 83.4219L72.3281 83.6797L72.0117 83.9375C70.9279 84.8399 69.7638 85.6285 68.5195 86.293L68.168 86.4805L67.8047 86.668C66.6935 87.2615 65.5988 87.9213 64.5234 88.6367L64.1836 88.8594L63.8438 89.0938C62.4919 89.9931 60.979 90.4708 59.3438 90.5234L58.5 90.5469C57.3056 90.5856 56.1732 90.8204 55.1016 91.2383L54.7266 91.3789L54.3398 91.5312C52.9007 92.0916 51.4015 92.327 49.8633 92.2227L49.4648 92.1875L49.0547 92.1641C47.84 92.0817 46.6238 92.1212 45.4102 92.293L45.0117 92.3516L44.6016 92.4102C43.0754 92.6257 41.5662 92.514 40.0898 92.082L39.7031 91.9766L39.3047 91.8594C38.0514 91.4927 36.8068 91.1432 35.5664 90.8281L34.793 90.6406C33.4742 90.3056 32.1809 89.882 30.9141 89.3867L30.1641 89.1055C28.8994 88.6109 27.6679 88.0339 26.4727 87.3945L25.7695 87.0195C24.6112 86.3998 23.4606 85.763 22.3242 85.0977L21.9844 84.8867L21.6328 84.6875C20.5198 84.0358 19.3864 83.3843 18.2344 82.7305L17.8711 82.5195L17.5195 82.3203C16.1572 81.5471 15.0312 80.5032 14.1562 79.2031L13.9219 78.8633L13.6992 78.5234C13.0291 77.5278 12.2357 76.6393 11.3203 75.8516L11.0039 75.582L10.6992 75.3125C9.53474 74.3106 8.5972 73.1255 7.91016 71.7617L7.73438 71.3867L7.54688 71.0234C6.93333 69.8046 6.36324 68.5701 5.84766 67.3203L5.54297 66.5703C5.04064 65.3527 4.53473 64.1363 4.04297 62.9141L3.90234 62.5391L3.75 62.1641C3.20467 60.8086 2.86583 59.3911 2.73047 57.9336L2.68359 57.5352L2.64844 57.125C2.53059 55.8577 2.35971 54.6037 2.13281 53.3633L1.99219 52.5664C1.74052 51.1896 1.61075 49.7956 1.61719 48.3945V47.5977C1.62363 46.1941 1.76561 44.8009 2.03906 43.4258L2.20312 42.6289C2.46208 41.3288 2.74031 40.0388 3.04688 38.7617L3.23438 37.9883C3.53252 36.7462 3.80773 35.4856 4.06641 34.2148L4.14844 33.8281L4.23047 33.4297C4.5294 31.9612 5.08726 30.5905 5.89453 29.3281L6.10547 28.9883L6.32812 28.6484C7.03113 27.5491 7.71708 26.4499 8.39062 25.3555L8.8125 24.6758C9.50749 23.5466 10.2444 22.4429 11.0156 21.3594L11.25 21.0312L11.4727 20.7031C12.2256 19.6454 12.9887 18.5735 13.7578 17.4922L14.2266 16.8359C15.1037 15.6028 16.1837 14.5663 17.4492 13.7422L18.1289 13.2969C19.2763 12.5504 20.4588 11.8634 21.6562 11.2344L22.3594 10.8594C23.5 10.2602 24.6314 9.64831 25.7461 9.01953L26.4492 8.62109C27.5407 8.00516 28.6301 7.32867 29.7188 6.59375L30.0586 6.35938L30.4102 6.125C31.6958 5.25761 33.0981 4.67175 34.6055 4.37891L35.0039 4.30859L35.4141 4.22656C36.8225 3.95329 38.2466 3.82591 39.6797 3.85156L40.0898 3.86328H40.4883C41.7184 3.8853 42.9443 3.79074 44.1562 3.57031L44.5547 3.5L44.9648 3.42969C46.3963 3.16941 47.8419 3.08291 49.2891 3.18359ZM45.5039 6.37109L45.0938 6.45312L44.6953 6.52344C43.2887 6.77934 41.8697 6.88877 40.4414 6.86328H40.0312L39.6211 6.85156C38.3973 6.82981 37.18 6.93417 35.9766 7.16797L35.1797 7.33203C34.0739 7.54685 33.0438 7.97449 32.0859 8.62109L31.7461 8.84375L31.3945 9.07812C30.2411 9.85674 29.0796 10.5769 27.9141 11.2344L27.5742 11.4336L27.2227 11.6328C26.0811 12.2768 24.9215 12.9062 23.7539 13.5195L23.4023 13.707L23.0508 13.8828C21.9376 14.4675 20.8393 15.1088 19.7695 15.8047L19.0898 16.25C18.1394 16.8684 17.3362 17.6419 16.6758 18.5703L16.4414 18.8984L16.207 19.2383C15.4378 20.3197 14.6749 21.3914 13.9219 22.4492L13.6875 22.7656L13.4531 23.0938C12.7207 24.1226 12.0268 25.1744 11.3672 26.2461L10.9453 26.9258C10.2625 28.0354 9.57167 29.1518 8.85938 30.2656L8.63672 30.6055L8.42578 30.9453C7.81744 31.8966 7.39718 32.9205 7.17188 34.0273L7.08984 34.4258L7.00781 34.8125C6.74228 36.1169 6.45876 37.4149 6.15234 38.6914L5.96484 39.4648C5.66766 40.703 5.3958 41.9533 5.14453 43.2148L4.98047 44.0117C4.74461 45.198 4.62275 46.3977 4.61719 47.6094V48.418C4.61188 49.6319 4.71575 50.8351 4.93359 52.0273L5.01562 52.4258L5.08594 52.8242C5.32908 54.1536 5.51079 55.4995 5.63672 56.8555L5.67188 57.2539L5.70703 57.6641C5.81582 58.8315 6.09138 59.9553 6.52734 61.0391L6.83203 61.7891C7.32133 63.0052 7.82048 64.222 8.32031 65.4336L8.625 66.1836C9.11141 67.3622 9.65073 68.5242 10.2305 69.6758L10.4062 70.0391L10.5938 70.4023C11.1014 71.4108 11.7876 72.2917 12.6562 73.0391L12.9609 73.3086L13.2773 73.5781C14.3941 74.5392 15.3635 75.6296 16.1836 76.8477L16.418 77.1875L16.6406 77.5273C17.2555 78.441 18.0402 79.1635 18.9961 79.707L19.3594 79.918L19.7109 80.1172C20.8771 80.779 22.0288 81.4375 23.1562 82.0977L23.4961 82.2969L23.8477 82.5078C24.9508 83.1536 26.0633 83.7815 27.1875 84.3828L27.8906 84.7578C28.9794 85.3401 30.1014 85.8538 31.2539 86.3047L31.6289 86.4453L32.0039 86.5977C33.1554 87.0479 34.3324 87.4298 35.5312 87.7344L36.3047 87.9219C37.5806 88.246 38.8613 88.6 40.1484 88.9766L40.5469 89.0938L40.9336 89.2109C41.9975 89.522 43.076 89.6008 44.1797 89.4453L44.5898 89.3867L44.9883 89.3281C46.4058 89.1275 47.8315 89.0679 49.2539 89.1641L49.6641 89.1992L50.0742 89.2227C51.1696 89.2962 52.2217 89.1309 53.25 88.7305L53.6367 88.5898L54.0117 88.4375C55.4099 87.8922 56.8798 87.596 58.4062 87.5469L59.25 87.5234C60.3349 87.488 61.3021 87.181 62.1797 86.5977L62.5195 86.3633L62.8594 86.1406C64.0145 85.3721 65.1989 84.6601 66.3984 84.0195L67.1016 83.6445C68.1675 83.0753 69.1734 82.4021 70.1016 81.6289L70.7109 81.1133C71.7205 80.2723 72.7422 79.4387 73.7578 78.6055L74.0625 78.3477L74.3789 78.0898C75.2805 77.3497 76.0606 76.4991 76.7227 75.5352L76.957 75.207L77.1797 74.8672C77.9966 73.6778 78.9677 72.5998 80.0859 71.6328L80.4023 71.3633L80.7188 71.082C81.5397 70.3721 82.1121 69.5272 82.4414 68.5156L82.5586 68.1172L82.6875 67.7305C83.1346 66.357 83.7176 65.0462 84.4336 63.8047L84.6445 63.4531L84.8438 63.1016C85.455 62.0416 85.9523 60.927 86.332 59.7617L86.4609 59.375L86.5781 58.9883C86.9368 57.8876 87.1113 56.7506 87.082 55.5781L87.0586 54.7578C87.0236 53.3536 87.0792 51.9656 87.2227 50.5977L87.2578 50.1992L87.3047 49.8008C87.3696 49.1813 87.3934 48.7299 87.4102 48.4414C87.3662 48.3119 87.3504 48.1954 87.3398 48.1367C87.3116 47.9797 87.2952 47.7962 87.2812 47.6211C87.2521 47.2553 87.2185 46.7319 87.1992 46.0742L87.1758 45.2773C87.1373 43.9668 87.1084 42.641 87.082 41.3047L87.0703 40.8945V40.4844C87.0489 39.4204 86.7647 38.4268 86.2031 37.4844L85.9805 37.1211L85.7695 36.7695C84.9832 35.4518 84.4518 34.0353 84.1875 32.5391L84.1172 32.1406L84.0469 31.7305C83.8611 30.6842 83.4278 29.7715 82.7344 28.9648L82.4648 28.6484L82.1953 28.3438C81.2714 27.2692 80.4581 26.1322 79.7461 24.9453L79.5352 24.6055L79.3359 24.2656C78.6997 23.2051 78.0019 22.1794 77.2383 21.1953L76.7461 20.5625C76.0079 19.6111 75.1757 18.7456 74.2617 17.9609L73.957 17.7031L73.6523 17.4336C72.6544 16.5768 71.6595 15.7087 70.6758 14.8203L70.3828 14.5391L70.0781 14.2695C69.1649 13.4449 68.1799 12.7058 67.1367 12.043L66.7969 11.8203L66.457 11.6094C65.4607 10.9764 64.3941 10.4912 63.2578 10.1562L62.4844 9.92188C61.1134 9.51769 59.784 8.97807 58.5117 8.29297L57.7852 7.89453C56.7533 7.3394 55.6692 6.97309 54.5273 6.79297L54.1172 6.73438L53.7188 6.66406C52.4472 6.46417 51.1661 6.31948 49.8867 6.23047L49.4766 6.20703L49.0781 6.17188C47.8823 6.08868 46.6894 6.15589 45.5039 6.37109Z" fill="#FF9D33"/>
<circle cx="14.5" cy="14.5" r="12.5" fill="#FF9D33"/>
<path d="M15.0781 0.851562C16.7242 0.598873 18.292 0.922393 19.707 1.80078L20.3867 2.22266C21.523 2.92804 22.6423 3.66823 23.7383 4.44922L24.0781 4.69531L24.4062 4.92969C25.7602 5.89648 26.6742 7.21176 27.1016 8.82031L27.1953 9.20703L27.3008 9.59375C27.6453 10.8906 27.8808 11.9799 27.9688 12.8164L28.0156 13.2617C28.0339 13.4363 28.0472 13.5714 28.0625 13.6719C28.188 13.8538 28.2857 13.9993 28.3086 14.0703C28.3872 14.3172 28.3908 14.5397 28.3906 14.6211C28.3901 14.8219 28.36 15.0351 28.332 15.207C28.2711 15.5806 28.1587 16.1065 28.0039 16.7422L27.8164 17.5156C27.4929 18.8436 27.0587 20.1631 26.5273 21.4766L26.375 21.8633L26.2109 22.25C25.5898 23.7831 24.5731 25.023 23.1875 25.9414L22.4844 26.4102C21.1533 27.2913 19.6914 27.821 18.125 27.9922L17.7266 28.0391L17.3164 28.0859C15.9592 28.2343 14.5873 28.3315 13.2031 28.3906L12.793 28.4141L12.3711 28.4258C10.6128 28.5007 9.05115 27.9178 7.77734 26.7031L7.47266 26.4102L7.16797 26.1289C6.18297 25.1883 5.23126 24.2606 4.30859 23.3516L3.74609 22.7891C2.63111 21.6897 1.88173 20.3647 1.50781 18.8398L1.41406 18.4531L1.30859 18.0664C0.969404 16.682 0.820972 15.2738 0.851562 13.8477L0.863281 13.4492V13.0508C0.896207 11.5183 1.28332 10.0664 2.01172 8.71484L2.21094 8.36328L2.39844 8.01172C3.05977 6.78645 3.83571 5.59951 4.73047 4.47266L4.98828 4.15625L5.24609 3.82812C6.34609 2.4428 7.83003 1.6456 9.59375 1.49609L10.0039 1.46094L10.4258 1.42578C11.7445 1.31388 13.0371 1.16154 14.293 0.96875L14.6797 0.910156L15.0781 0.851562ZM15.5352 3.81641L14.7383 3.93359C13.4124 4.13704 12.0561 4.30845 10.6719 4.42578L10.2617 4.46094L9.83984 4.49609C8.89985 4.57648 8.18498 4.95782 7.60156 5.69141L7.34375 6.01953L7.07422 6.34766C6.28662 7.34013 5.60826 8.36808 5.03516 9.42969L4.66016 10.1328C4.15496 11.0688 3.88596 12.0636 3.86328 13.1211V13.5195L3.85156 13.9062C3.82658 15.0707 3.9498 16.222 4.22656 17.3516L4.41406 18.125C4.65664 19.1144 5.1376 19.949 5.85547 20.6562L6.13672 20.9375L6.41797 21.207C7.32812 22.1038 8.26884 23.0197 9.24219 23.9492L9.85156 24.5352C10.535 25.1853 11.302 25.4772 12.2422 25.4375L12.6641 25.4141L13.0742 25.4023C14.3933 25.346 15.6979 25.2386 16.9883 25.0977L17.3984 25.0625L17.8086 25.0156C18.8869 24.897 19.89 24.5265 20.832 23.9023L21.1836 23.668L21.5352 23.4453C22.4218 22.8572 23.0427 22.0898 23.4336 21.125L23.5859 20.7383L23.75 20.3516C24.2293 19.1667 24.6109 17.9819 24.8984 16.8008L25.0859 16.0273C25.2009 15.555 25.2705 15.194 25.3203 14.9375C25.2643 14.7975 25.2135 14.676 25.1914 14.5859C25.1226 14.3048 25.0668 13.9542 25.0273 13.5781L24.9805 13.1328C24.917 12.5273 24.7378 11.6152 24.4062 10.3672L24.3008 9.98047L24.1953 9.58203C23.9464 8.64904 23.4462 7.92749 22.6602 7.36719L22.0039 6.89844C20.9575 6.15258 19.8886 5.4385 18.8047 4.76562L18.125 4.34375C17.3177 3.84266 16.4738 3.67231 15.5352 3.81641Z" fill="#FF9D33"/>
</svg>
