<svg width="114" height="116" viewBox="0 0 114 116" fill="none" xmlns="http://www.w3.org/2000/svg">
<path d="M81.1789 94.3529L96.3403 45.3618C96.7357 44.0843 96.2377 42.6993 95.1193 41.9661L52.2655 13.8695C51.171 13.1519 49.7377 13.2266 48.7238 14.054L10.17 45.5167C9.18457 46.3209 8.81337 47.6591 9.24375 48.856L26.0653 95.6389C26.5022 96.854 27.6677 97.6532 28.9586 97.623L78.3833 96.4652C79.6723 96.435 80.7978 95.5846 81.1789 94.3529Z" fill="#323232" fill-opacity="0.3"/>
<path d="M97.9185 43.3462C98.0843 43.6006 98.4248 44.2171 98.2963 44.9164L97.9834 45.6392L97.926 45.7221L97.8576 45.8089C97.7526 45.9578 97.473 46.4834 96.9863 47.5419L96.838 47.8567L96.7047 48.1786C96.2742 49.115 95.9487 50.0811 95.7311 51.0816L95.5765 51.7599C95.3392 52.8505 95.1173 53.9466 94.9158 55.0485L94.7912 55.7409C94.577 56.9115 94.3071 58.067 93.9678 59.2001L93.8605 59.5251L93.7682 59.8572C93.4143 61.0387 92.9316 62.1856 92.3361 63.2862L92.1728 63.5939L91.9985 63.9057C91.5344 64.7637 91.2365 65.6681 91.0946 66.6217L91.0473 66.975L90.996 67.3172C90.8189 68.5119 90.5637 69.6921 90.2334 70.8417L90.1411 71.1738L90.0378 71.5098C89.7225 72.6071 89.3856 73.6976 89.0358 74.7842L88.9325 75.1202L88.8252 75.4452C88.4938 76.4744 88.2201 77.5259 87.9869 78.586L87.8323 79.2642C87.5667 80.471 87.1729 81.6416 86.6652 82.7723L86.528 83.0831L86.3836 83.409C85.9392 84.3988 85.5521 85.4092 85.2163 86.4315L85.109 86.7565L84.9907 87.0854C84.6298 88.1841 84.2486 89.277 83.8255 90.3562L83.6922 90.6781L83.5699 90.996C83.1602 92.0413 82.759 93.0832 82.3823 94.1005L82.2711 94.4145L82.1488 94.7324C81.6064 96.192 80.5368 97.205 79.0643 97.722L78.4027 97.9599C77.1711 98.3916 75.8965 98.6019 74.5958 98.5939L74.2584 98.5907L73.91 98.5915C72.7917 98.5846 71.6697 98.5897 70.5519 98.6034L69.8551 98.6049C68.712 98.619 67.5626 98.626 66.4189 98.6076L66.0775 98.5933L65.7291 98.5941C64.6381 98.5765 63.543 98.597 62.4539 98.6634L62.1134 98.6862L61.7619 98.713C60.4904 98.79 59.215 98.6765 57.9475 98.3909L57.6083 98.3135L57.2542 98.2292C56.2881 98.0115 55.3344 97.9661 54.3893 98.0887L54.0347 98.1415L53.6911 98.1903C52.6076 98.3315 51.5249 98.5174 50.4421 98.7483L49.7488 98.898C48.4352 99.1779 47.1079 99.1913 45.7838 98.9538L45.0914 98.8292C44.1089 98.653 43.1338 98.6329 42.1651 98.7606L41.8176 98.7984L41.474 98.8472C40.2495 99.0091 39.0118 99.051 37.7811 98.9671L37.0904 98.9165C36.1112 98.8498 35.133 98.934 34.153 99.1632L33.8063 99.2381L33.4636 99.324C32.0361 99.6578 30.6246 99.5389 29.2959 98.9545L28.6741 98.68C27.4453 98.1391 26.4175 97.3633 25.6499 96.3303L25.4736 96.0823L25.2863 95.8384C24.5991 94.9128 24.038 93.853 23.5926 92.6865L23.4665 92.3706L23.3476 92.0398C22.9491 90.9961 22.5337 89.9579 22.1143 88.9216L21.8544 88.2679C21.4334 87.2279 21.0053 86.1905 20.573 85.1545L20.443 84.8277L20.306 84.5158C19.8625 83.4532 19.4344 82.3777 19.037 81.2984L18.8031 80.6477C18.3711 79.4746 18.0836 78.2525 17.9352 76.9872L17.8934 76.6286L17.8556 76.2811C17.7545 75.4187 17.4205 74.6356 16.8439 73.9176L16.6186 73.6374L16.3894 73.3463C15.4686 72.1989 14.9151 70.8841 14.7595 69.4367L14.7217 69.0891L14.6799 68.7306C14.5642 67.656 14.3708 66.6138 14.0915 65.6047L13.9946 65.2659L13.9016 64.9382C13.6509 64.0328 13.2379 63.1702 12.6404 62.3656L12.4261 62.0814L12.2079 61.7863C11.4254 60.7325 10.808 59.6092 10.3608 58.4156L10.2308 58.0887L10.1158 57.7689C9.65436 56.5366 9.41722 55.2265 9.40903 53.8637L9.41534 53.5003L9.40666 53.1298C9.40042 52.1555 9.19578 51.2847 8.79639 50.4974L8.63332 50.1825L8.47423 49.8785C8.11736 49.1768 7.92113 48.3875 8.03098 47.5722C8.14286 46.75 8.54412 46.0537 9.10174 45.4935L9.34088 45.2581L9.56899 45.0266C10.266 44.3273 10.9458 43.5385 11.6079 42.6621L11.8312 42.3826L12.0395 42.096C12.883 40.9794 13.9447 40.1101 15.2036 39.5012L15.5226 39.3492L15.8375 39.1861C16.7872 38.7268 17.664 38.1847 18.4646 37.5566L19.0107 37.136C19.7672 36.5422 20.4348 35.8157 21.006 34.9616L21.2063 34.6529L21.4106 34.3553C22.1382 33.2662 22.9868 32.3047 23.949 31.475L24.2032 31.2466L24.4723 31.0253C25.4277 30.2015 26.49 29.5018 27.6446 28.9382L27.9635 28.7862L28.2785 28.6231C29.1558 28.1947 29.9177 27.6397 30.5633 26.9423L30.7945 26.6848L31.0367 26.4234C31.8937 25.4973 32.848 24.6871 33.9009 23.9987L34.485 23.6144C35.3621 23.041 36.1794 22.3973 36.9419 21.6849L37.207 21.4526L37.4572 21.2132C38.3349 20.3928 39.2704 19.6391 40.2547 18.9495L40.5318 18.7502L40.8198 18.547C41.674 17.9485 42.4735 17.2827 43.2119 16.5412L43.7043 16.0404C44.6073 15.1343 45.6228 14.3856 46.7431 13.7896L47.0431 13.6195L47.358 13.4564C48.6232 12.7853 49.9734 12.5602 51.3236 12.9521L51.5997 13.0271L51.8797 13.1132C52.9551 13.4253 54.0168 13.9389 55.0621 14.6215L55.3558 14.8148L55.6455 14.9971C56.5228 15.5702 57.4477 16.0815 58.4204 16.5149L58.7423 16.6482L59.0681 16.7925L62.5315 18.4239L62.8392 18.5872C63.9619 19.1414 65.0161 19.8133 65.9818 20.608L66.2463 20.8242L66.5148 21.0514C67.3266 21.7193 68.1923 22.3164 69.0995 22.8369L69.3963 23.0041L69.697 23.1824C70.819 23.8264 71.8215 24.6445 72.7048 25.6252L72.9482 25.8864L73.1805 26.1515C73.8408 26.8846 74.5949 27.4659 75.438 27.8927L75.7528 28.0411L76.0606 28.2044C77.0523 28.7061 78.0626 29.1859 79.0821 29.646L79.4079 29.7903L79.7228 29.9386C80.9003 30.4699 81.9802 31.1641 82.9482 32.0167L83.2057 32.2479L83.4742 32.4752C84.256 33.1637 85.0906 33.7711 85.9817 34.2884L86.2824 34.4667L86.5792 34.6339C87.5517 35.1982 88.5335 35.7658 89.5137 36.3185L89.8214 36.4818L90.1182 36.6491C91.2073 37.2632 92.2187 38.0036 93.1429 38.8616L93.4043 39.1038L93.6508 39.339C94.4743 40.1036 95.3215 40.8616 96.1837 41.6038L96.4562 41.8421L96.7247 42.0694C97.195 42.4742 97.6318 42.9064 97.9185 43.3462ZM94.7762 44.3391L94.5077 44.1118L94.2352 43.8736C93.3438 43.1063 92.4677 42.3316 91.6154 41.5403L91.354 41.2981L91.0965 41.0669C90.3426 40.367 89.5267 39.7682 88.645 39.2709L88.3443 39.0926L88.0365 38.9293C87.0464 38.371 86.0655 37.7967 85.083 37.2267L84.7863 37.0594L84.4745 36.8851C83.4133 36.2691 82.4227 35.5469 81.4957 34.7308L81.2272 34.5035L80.9657 34.2613C80.316 33.6893 79.6004 33.2149 78.8256 32.8318L78.1746 32.5252L77.8487 32.3808C76.7887 31.9025 75.7392 31.4048 74.7073 30.8827L74.3996 30.7194L74.0847 30.5711C72.9015 29.9724 71.8641 29.1578 70.9626 28.157L70.4759 27.6346C69.7984 26.8824 69.0423 26.2671 68.2048 25.7862L67.6034 25.4296C66.5501 24.8254 65.5489 24.1424 64.6082 23.3684L64.3397 23.1411L64.0751 22.9249C63.2875 22.2767 62.4287 21.7212 61.512 21.2687L61.1972 21.1204L60.8894 20.9571C59.8874 20.4625 58.8655 19.9958 57.8388 19.5384L57.5239 19.3901L57.1981 19.2458C56.0846 18.7494 55.0206 18.1748 54.0105 17.5152L53.4231 17.1286C52.5806 16.5786 51.7882 16.206 51.0464 15.9907L50.7703 15.9156L50.4903 15.8295C50.0231 15.694 49.4707 15.725 48.7582 16.1036L48.4582 16.2738L48.1543 16.4329C47.2986 16.8876 46.5227 17.4672 45.8262 18.1666L45.5761 18.406L45.3299 18.6564C44.4679 19.5216 43.5363 20.3058 42.5381 21.0052L42.261 21.2044L41.973 21.4076C41.1037 22.0167 40.2778 22.6797 39.5028 23.4042L39.0025 23.8829C38.1126 24.7147 37.1452 25.4581 36.1229 26.1263L35.5389 26.5107C34.6938 27.0635 33.928 27.7133 33.2381 28.4587L32.9958 28.7202L32.7646 28.9777C31.8627 29.9522 30.8033 30.7357 29.5984 31.3241L29.2795 31.4761L28.9495 31.6321C28.0217 32.0854 27.1885 32.6459 26.4345 33.2961L26.1654 33.5174L25.9112 33.7458C25.1631 34.3908 24.4877 35.15 23.9036 36.0243L23.6993 36.3219L23.51 36.6266C22.7702 37.7341 21.8859 38.6952 20.8675 39.4946L20.3213 39.9151C19.3463 40.6805 18.2852 41.3403 17.1464 41.8911L16.5085 42.1951C15.6787 42.5965 14.989 43.1638 14.4319 43.9007L14.2126 44.1913L14.0043 44.4779C13.2668 45.4539 12.4934 46.3479 11.6909 47.1528L11.4628 47.3843L11.2307 47.6047C11.0442 47.7918 11.0104 47.9164 11.0021 47.9733C10.9933 48.0389 10.992 48.2111 11.1483 48.5185L11.3074 48.8224L11.4705 49.1374C12.0934 50.3642 12.3924 51.698 12.4013 53.1115L12.4187 53.8525C12.4251 54.8812 12.5939 55.8294 12.923 56.7098L13.042 57.0406L13.172 57.3674C13.5163 58.2853 13.9944 59.1615 14.6162 59.9988L14.8345 60.2939L15.0487 60.5781C15.8574 61.6669 16.4466 62.8561 16.8 64.1326L16.8859 64.4754L16.9788 64.8031C17.3032 65.9747 17.535 67.182 17.6677 68.4159L17.7055 68.7635L17.7472 69.1221C17.8399 69.9836 18.1558 70.7577 18.729 71.4714L18.9582 71.7626L19.1835 72.0427C20.1018 73.1863 20.6626 74.4937 20.8315 75.9334L20.8693 76.2809L20.911 76.6395C21.0326 77.676 21.2701 78.6654 21.6182 79.6106L21.8521 80.2612C22.2348 81.3005 22.6504 82.334 23.0775 83.3574L23.2035 83.6732L23.3445 83.9961C23.7814 85.0428 24.2125 86.0917 24.6378 87.1425L24.7677 87.4694L24.8938 87.7852C25.3213 88.8416 25.7446 89.9056 26.1508 90.9696L26.2698 91.3004L26.3958 91.6163C26.7558 92.5592 27.1906 93.3721 27.6946 94.0509L27.882 94.2948L28.0583 94.5428C28.4812 95.1114 29.0721 95.586 29.8814 95.942L30.2034 96.0753L30.5142 96.2126C31.224 96.524 31.9613 96.5976 32.7763 96.408L33.13 96.3181L33.4767 96.2433C34.7406 95.9482 36.0179 95.8403 37.2984 95.9277L37.9891 95.9782C39.0202 96.0485 40.0514 96.0119 41.0782 95.8762L41.4218 95.8274L41.7693 95.7896C43.0503 95.6203 44.339 95.6433 45.6227 95.8735L46.3151 95.9982C47.2581 96.1673 48.1948 96.1571 49.1276 95.9582L49.4743 95.8834L49.8099 95.8125C50.972 95.5647 52.1405 95.3672 53.3063 95.2153L53.9935 95.1177C55.2981 94.9478 56.61 95.0215 57.9125 95.315L58.6128 95.4617C59.6126 95.6869 60.5998 95.7741 61.5805 95.7147L61.932 95.6879L62.2764 95.6761C63.4424 95.6051 64.613 95.5678 65.781 95.5866L66.1224 95.6009L66.4708 95.6001C67.5843 95.6181 68.698 95.6208 69.8108 95.6071L70.5076 95.6056C71.6456 95.5916 72.7863 95.5779 73.9248 95.5849L74.2772 95.5952L74.6146 95.5984C75.569 95.6043 76.5012 95.4473 77.4097 95.1289L78.0713 94.891C78.7395 94.6563 79.1258 94.2759 79.3442 93.6861L79.4554 93.3721L79.5777 93.0542C79.961 92.0191 80.3593 90.9703 80.7755 89.9087L80.8938 89.5797L81.0271 89.2578C81.4297 88.2308 81.8084 87.1963 82.1516 86.1511L82.255 85.8151L82.3623 85.4901C82.731 84.3675 83.1617 83.2604 83.6487 82.1757L83.786 81.8648L83.9304 81.5389C84.3539 80.5954 84.675 79.6189 84.896 78.6139L85.0507 77.9356C85.304 76.7844 85.6079 75.6485 85.968 74.5298L86.0753 74.2048L87.1603 70.6765L87.3449 70.0123C87.6382 68.9917 87.8662 67.9439 88.024 66.879L88.0753 66.5368L88.1226 66.1835C88.316 64.8802 88.7366 63.6376 89.3665 62.4735L89.5298 62.1657L89.7041 61.854C90.2028 60.9316 90.6004 59.9776 90.8938 58.9978L90.9861 58.6657L91.0934 58.3407C91.4013 57.3125 91.648 56.2592 91.8426 55.1946L91.9049 54.8484L91.9712 54.5133C92.1787 53.3786 92.3999 52.244 92.6442 51.1206L92.7988 50.4423C93.0628 49.2291 93.4524 48.0515 93.9729 46.9193L94.8981 44.9553C94.96 44.8351 95.0329 44.7292 95.0905 44.6246C95.0028 44.5402 94.8983 44.4442 94.7762 44.3391Z" fill="#323232"/>
</svg>
