<svg width="90" height="90" viewBox="0 0 90 90" fill="none" xmlns="http://www.w3.org/2000/svg">
<circle cx="45" cy="45" r="43" fill="#323232" fill-opacity="0.3"/>
<path d="M87.7113 47.7534L89.2031 47.9098L87.7113 47.7534ZM87.5566 51.7184L89.0561 51.681L87.5566 51.7184ZM87.5669 52.1305L86.0673 52.1679L87.5669 52.1305ZM87.5771 52.5425L89.0767 52.5052L87.5771 52.5425ZM87.0094 56.4507L85.5832 55.9859L87.0094 56.4507ZM86.8828 56.8391L88.309 57.3038L86.8828 56.8391ZM86.7562 57.2274L85.33 56.7627L86.7562 57.2274ZM85.1433 60.8491L83.8438 60.0998L85.1433 60.8491ZM84.9395 61.2025L86.2389 61.9519L84.9395 61.2025ZM84.7356 61.5559L83.4362 60.8065L84.7356 61.5559ZM83.118 65.1942L81.6916 64.73L83.118 65.1942ZM82.8629 65.9778L84.2893 66.4421L82.8629 65.9778ZM80.7011 69.2212L79.7202 68.0863L80.7011 69.2212ZM80.3858 69.4937L81.3667 70.6285L80.3858 69.4937ZM80.0705 69.7662L79.0896 68.6313L80.0705 69.7662ZM77.4171 72.7192L76.1805 71.8701L77.4171 72.7192ZM77.1889 73.0515L78.4254 73.9006L77.1889 73.0515ZM76.9606 73.3839L75.7241 72.5348L76.9606 73.3839ZM74.3273 76.2527L73.376 75.093L74.3273 76.2527ZM74.0162 76.5079L74.9676 77.6676L74.0162 76.5079ZM73.7051 76.7632L72.7537 75.6035L73.7051 76.7632ZM70.676 79.2673L71.6361 80.4198L70.676 79.2673ZM70.0574 79.7826L69.0974 78.6301L70.0574 79.7826ZM66.8135 81.9664L66.1069 80.6433L66.8135 81.9664ZM66.4583 82.1561L67.1649 83.4792L66.4583 82.1561ZM66.1032 82.3457L65.3966 81.0226L66.1032 82.3457ZM62.6955 84.3853L61.8646 83.1364L62.6955 84.3853ZM62.3527 84.6133L63.1835 85.8622L62.3527 84.6133ZM62.0098 84.8414L61.179 83.5926L62.0098 84.8414ZM58.2935 86.0203L58.3414 87.5195L58.2935 86.0203ZM57.8751 86.0337L57.8272 84.5344L57.8751 86.0337ZM57.4568 86.0471L57.5047 87.5463L57.4568 86.0471ZM53.5601 86.8354L53.0151 85.4379L53.5601 86.8354ZM53.1804 86.9835L53.7254 88.381L53.1804 86.9835ZM52.8007 87.1316L53.3457 88.5291L52.8007 87.1316ZM48.9675 87.7204L48.866 89.2169L48.9675 87.7204ZM48.5622 87.6929L48.4606 89.1894L48.5622 87.6929ZM48.1568 87.6654L48.2583 86.1688L48.1568 87.6654ZM44.203 87.8105L43.9928 86.3253L44.203 87.8105ZM43.7985 87.8677L44.0087 89.3529L43.7985 87.8677ZM43.394 87.925L43.1839 86.4398L43.394 87.925ZM39.512 87.6462L39.9332 86.2066L39.512 87.6462ZM39.1213 87.5319L38.7 88.9716L39.1213 87.5319ZM38.7306 87.4176L39.1519 85.978L38.7306 87.4176ZM34.9341 86.3796L35.3034 84.9258L34.9341 86.3796ZM34.1602 86.183L33.7909 87.6368L34.1602 86.183ZM30.4564 84.9935L29.9102 86.3905L30.4564 84.9935ZM30.0848 84.8482L30.631 83.4512L30.0848 84.8482ZM29.7131 84.7028L29.1668 86.0998L29.7131 84.7028ZM26.1839 83.0761L26.8914 81.7534L26.1839 83.0761ZM25.4815 82.7004L24.774 84.023L25.4815 82.7004ZM22.0847 80.7981L22.8426 79.5037L22.0847 80.7981ZM21.7401 80.5964L20.9822 81.8908L21.7401 80.5964ZM21.3956 80.3946L22.1535 79.1002L21.3956 80.3946ZM17.9727 78.4217L17.2323 79.7262L17.9727 78.4217ZM17.6162 78.2193L18.3566 76.9148L17.6162 78.2193ZM17.2597 78.017L16.5193 79.3215L17.2597 78.017ZM14.4008 75.3675L13.1564 76.205L14.4008 75.3675ZM13.9427 74.6868L15.1872 73.8493L13.9427 74.6868ZM11.299 71.7127L12.2774 70.5756L11.299 71.7127ZM10.9866 71.4439L11.9649 70.3068L10.9866 71.4439ZM10.6742 71.175L9.69586 72.3121L10.6742 71.175ZM8.25261 68.0826L6.91282 68.7571L8.25261 68.0826ZM8.06906 67.718L9.40885 67.0435L8.06906 67.718ZM7.88551 67.3534L9.2253 66.6789L7.88551 67.3534ZM6.23703 63.7498L7.62367 63.1777L6.23703 63.7498ZM5.92885 63.0028L7.31548 62.4307L5.92885 63.0028ZM4.44005 59.3487L3.04846 59.9086L4.44005 59.3487ZM4.13836 58.5988L5.52996 58.0389L4.13836 58.5988ZM3.21894 54.7984L1.72537 54.9371L3.21894 54.7984ZM3.18147 54.3949L4.67504 54.2562L3.18147 54.3949ZM3.144 53.9914L1.65043 54.1301L3.144 53.9914ZM2.46333 49.301L0.987822 49.571L2.46333 49.301ZM2.5151 40.7138L1.04398 40.4209L2.5151 40.7138ZM2.59356 40.3198L4.06468 40.6127L2.59356 40.3198ZM2.67203 39.9257L1.20092 39.6328L2.67203 39.9257ZM3.50859 36.1129L2.05003 35.7628L3.50859 36.1129ZM4.62149 31.1231L3.15163 30.8239L4.62149 31.1231ZM6.1569 27.1358L4.8932 26.3277L6.1569 27.1358ZM8.67105 23.142L9.94853 23.9282L8.67105 23.142ZM8.87946 22.8034L7.60198 22.0172L8.87946 22.8034ZM9.08787 22.4647L10.3653 23.2509L9.08787 22.4647ZM11.235 19.2244L12.457 20.0944L11.235 19.2244ZM11.4664 18.8994L10.2444 18.0295L11.4664 18.8994ZM11.6978 18.5744L12.9198 19.4443L11.6978 18.5744ZM13.9813 15.3654L15.2036 16.2348L13.9813 15.3654ZM14.2176 15.0331L15.44 15.9026L14.2176 15.0331ZM14.454 14.7009L13.2316 13.8314L14.454 14.7009ZM17.2712 11.9965L16.4532 10.7392L17.2712 11.9965ZM17.9526 11.5532L18.7706 12.8105L17.9526 11.5532ZM21.7044 9.37396L22.402 10.7019L21.7044 9.37396ZM22.0595 9.18746L21.3619 7.85952L22.0595 9.18746ZM25.4873 7.32108L24.7503 6.01463L25.4873 7.32108ZM25.8343 7.12531L26.5713 8.43176L25.8343 7.12531ZM29.5588 4.83749L28.7195 3.59426V3.59426L29.5588 4.83749ZM33.892 2.85494L34.178 4.32741L33.892 2.85494ZM34.2935 2.77692L34.0075 1.30445L34.2935 2.77692ZM34.6951 2.69891L34.9812 4.17138L34.6951 2.69891ZM43.4259 2.04663L43.1574 0.570854L43.4259 2.04663ZM44.2306 1.90023L43.9621 0.424451L44.2306 1.90023ZM48.9919 1.73741L48.8878 3.2338L48.9919 1.73741ZM52.9471 2.18533L52.7141 3.66713L52.9471 2.18533ZM57.4991 3.57707L56.7879 4.89777L57.4991 3.57707ZM57.8623 3.77266L58.5735 2.45196L57.8623 3.77266ZM58.2255 3.96824L57.5144 5.28894L58.2255 3.96824ZM61.9041 5.48484L62.3283 4.04607L61.9041 5.48484ZM62.2943 5.59988L61.8701 7.03866L62.2943 5.59988ZM62.6845 5.71493L63.1087 4.27615L62.6845 5.71493ZM66.2617 7.33894L67.0661 6.07286L66.2617 7.33894ZM66.6042 7.55653L67.4086 6.29044L66.6042 7.55653ZM66.9467 7.77412L66.1423 9.0402L66.9467 7.77412ZM70.0835 10.1594L71.089 9.04624L70.0835 10.1594ZM70.6836 10.7013L71.689 9.58817L70.6836 10.7013ZM73.634 13.2997L74.6111 12.1616L73.634 13.2997ZM73.9384 13.561L72.9613 14.6991L73.9384 13.561ZM74.2427 13.8222L75.2197 12.6841L74.2427 13.8222ZM76.9285 16.6443L78.1136 15.7247L76.9285 16.6443ZM77.1743 16.9611L75.9892 17.8806L77.1743 16.9611ZM77.4201 17.2779L78.6052 16.3583L77.4201 17.2779ZM79.6211 20.4929L78.3348 21.2645L79.6211 20.4929ZM80.0311 21.1763L78.7448 21.9479L80.0311 21.1763ZM82.3376 24.363L81.2002 25.341L82.3376 24.363ZM82.605 24.674L83.7423 23.696L82.605 24.674ZM82.8724 24.985L81.735 25.963L82.8724 24.985ZM84.5262 28.4745L83.0491 28.7355L84.5262 28.4745ZM84.5976 28.8783L86.0747 28.6173L84.5976 28.8783ZM84.6689 29.282L83.1918 29.543L84.6689 29.282ZM86.059 32.999L84.7709 33.7676L86.059 32.999ZM86.2723 33.3565L87.5604 32.5879L86.2723 33.3565ZM86.4857 33.7141L85.1976 34.4828L86.4857 33.7141ZM87.567 37.4573L89.0667 37.4277L87.567 37.4573ZM87.5832 38.2755L89.0829 38.2459L87.5832 38.2755ZM87.6802 42.2315L89.1795 42.1874L87.6802 42.2315ZM87.692 42.6326L86.1926 42.6767L87.692 42.6326ZM87.7038 43.0338L86.2044 43.0779L87.7038 43.0338ZM87.8604 44.9955L87.8122 46.4947L87.8604 44.9955ZM87.8807 44.9962L87.9288 43.4969L87.8807 44.9962ZM87.9009 44.9968L87.8528 46.496L87.9009 44.9968ZM87.7952 46.9532L86.3033 46.7968L87.7952 46.9532ZM87.7532 47.3533L86.2614 47.1969L86.2194 47.5969L87.7113 47.7534L89.2031 47.9098L89.245 47.5097L87.7532 47.3533ZM87.7113 47.7534L86.2194 47.5969C86.076 48.965 86.022 50.3515 86.0571 51.7558L87.5566 51.7184L89.0561 51.681C89.0243 50.4029 89.0734 49.146 89.2031 47.9098L87.7113 47.7534ZM87.5566 51.7184L86.0571 51.7558L86.0673 52.1679L87.5669 52.1305L89.0664 52.0931L89.0561 51.681L87.5566 51.7184ZM87.5669 52.1305L86.0673 52.1679L86.0776 52.5799L87.5771 52.5425L89.0767 52.5052L89.0664 52.0931L87.5669 52.1305ZM87.5771 52.5425L86.0776 52.5799C86.1068 53.7524 85.9419 54.8852 85.5832 55.9859L87.0094 56.4507L88.4356 56.9154C88.9008 55.4877 89.1143 54.0151 89.0767 52.5052L87.5771 52.5425ZM87.0094 56.4507L85.5832 55.9859L85.4566 56.3743L86.8828 56.8391L88.309 57.3038L88.4356 56.9154L87.0094 56.4507ZM86.8828 56.8391L85.4566 56.3743L85.33 56.7627L86.7562 57.2274L88.1824 57.6922L88.309 57.3038L86.8828 56.8391ZM86.7562 57.2274L85.33 56.7627C84.9503 57.928 84.4551 59.0398 83.8438 60.0998L85.1433 60.8491L86.4427 61.5985C87.1581 60.3579 87.7382 59.0553 88.1824 57.6922L86.7562 57.2274ZM85.1433 60.8491L83.8438 60.0998L83.6401 60.4532L84.9395 61.2025L86.2389 61.9519L86.4427 61.5985L85.1433 60.8491ZM84.9395 61.2025L83.6401 60.4532L83.4362 60.8065L84.7356 61.5559L86.0351 62.3053L86.2389 61.9519L84.9395 61.2025ZM84.7356 61.5559L83.4362 60.8065C82.7203 62.0481 82.1387 63.3565 81.6916 64.73L83.118 65.1942L84.5443 65.6585C84.9275 64.4814 85.4243 63.3643 86.0351 62.3053L84.7356 61.5559ZM83.118 65.1942L81.6916 64.73L81.5641 65.1218L82.9904 65.586L84.4168 66.0503L84.5443 65.6585L83.118 65.1942ZM82.9904 65.586L81.5641 65.1218L81.4366 65.5136L82.8629 65.9778L84.2893 66.4421L84.4168 66.0503L82.9904 65.586ZM82.8629 65.9778L81.4366 65.5136C81.1071 66.5258 80.542 67.376 79.7202 68.0863L80.7011 69.2212L81.6819 70.356C82.9124 69.2925 83.7886 67.9804 84.2893 66.4421L82.8629 65.9778ZM80.7011 69.2212L79.7202 68.0863L79.4049 68.3588L80.3858 69.4937L81.3667 70.6285L81.6819 70.356L80.7011 69.2212ZM80.3858 69.4937L79.4049 68.3588L79.0896 68.6313L80.0705 69.7662L81.0514 70.901L81.3667 70.6285L80.3858 69.4937ZM80.0705 69.7662L79.0896 68.6313C77.9697 69.5993 76.9984 70.679 76.1805 71.8701L77.4171 72.7192L78.6536 73.5683C79.3214 72.5958 80.1191 71.7068 81.0514 70.901L80.0705 69.7662ZM77.4171 72.7192L76.1805 71.8701L75.9523 72.2024L77.1889 73.0515L78.4254 73.9006L78.6536 73.5683L77.4171 72.7192ZM77.1889 73.0515L75.9523 72.2024L75.7241 72.5348L76.9606 73.3839L78.1972 74.233L78.4254 73.9006L77.1889 73.0515ZM76.9606 73.3839L75.7241 72.5348C75.0611 73.5003 74.2793 74.3519 73.376 75.093L74.3273 76.2527L75.2787 77.4124C76.4008 76.4918 77.3745 75.4309 78.1972 74.233L76.9606 73.3839ZM74.3273 76.2527L73.376 75.093L73.0648 75.3483L74.0162 76.5079L74.9676 77.6676L75.2787 77.4124L74.3273 76.2527ZM74.0162 76.5079L73.0648 75.3483L72.7537 75.6035L73.7051 76.7632L74.6564 77.9229L74.9676 77.6676L74.0162 76.5079ZM73.7051 76.7632L72.7537 75.6035C71.738 76.4367 70.7254 77.2738 69.7159 78.1148L70.676 79.2673L71.6361 80.4198C72.6398 79.5836 73.6466 78.7513 74.6564 77.9229L73.7051 76.7632ZM70.676 79.2673L69.7159 78.1148L69.4066 78.3724L70.3667 79.5249L71.3268 80.6774L71.6361 80.4198L70.676 79.2673ZM70.3667 79.5249L69.4066 78.3724L69.0974 78.6301L70.0574 79.7826L71.0175 80.9351L71.3268 80.6774L70.3667 79.5249ZM70.0574 79.7826L69.0974 78.6301C68.1692 79.4033 67.1728 80.0741 66.1069 80.6433L66.8135 81.9664L67.5201 83.2896C68.7661 82.6242 69.9324 81.8391 71.0175 80.9351L70.0574 79.7826ZM66.8135 81.9664L66.1069 80.6433L65.7518 80.8329L66.4583 82.1561L67.1649 83.4792L67.5201 83.2896L66.8135 81.9664ZM66.4583 82.1561L65.7518 80.8329L65.3966 81.0226L66.1032 82.3457L66.8098 83.6689L67.1649 83.4792L66.4583 82.1561ZM66.1032 82.3457L65.3966 81.0226C64.1971 81.6631 63.0198 82.3679 61.8646 83.1364L62.6955 84.3853L63.5264 85.6341C64.6029 84.9179 65.6974 84.2629 66.8098 83.6689L66.1032 82.3457ZM62.6955 84.3853L61.8646 83.1364L61.5218 83.3645L62.3527 84.6133L63.1835 85.8622L63.5264 85.6341L62.6955 84.3853ZM62.3527 84.6133L61.5218 83.3645L61.179 83.5926L62.0098 84.8414L62.8407 86.0903L63.1835 85.8622L62.3527 84.6133ZM62.0098 84.8414L61.179 83.5926C60.2997 84.1775 59.333 84.4863 58.2456 84.5211L58.2935 86.0203L58.3414 87.5195C59.9775 87.4672 61.4883 86.9901 62.8407 86.0903L62.0098 84.8414ZM58.2935 86.0203L58.2456 84.5211L57.8272 84.5344L57.8751 86.0337L57.9231 87.5329L58.3414 87.5195L58.2935 86.0203ZM57.8751 86.0337L57.8272 84.5344L57.4088 84.5478L57.4568 86.0471L57.5047 87.5463L57.9231 87.5329L57.8751 86.0337ZM57.4568 86.0471L57.4088 84.5478C55.8815 84.5966 54.4142 84.8923 53.0151 85.4379L53.5601 86.8354L54.1051 88.2329C55.1782 87.8144 56.3086 87.5845 57.5047 87.5463L57.4568 86.0471ZM53.5601 86.8354L53.0151 85.4379L52.6354 85.586L53.1804 86.9835L53.7254 88.381L54.1051 88.2329L53.5601 86.8354ZM53.1804 86.9835L52.6354 85.586L52.2557 85.7341L52.8007 87.1316L53.3457 88.5291L53.7254 88.381L53.1804 86.9835ZM52.8007 87.1316L52.2557 85.7341C51.2246 86.1362 50.1676 86.2983 49.0691 86.2238L48.9675 87.7204L48.866 89.2169C50.4063 89.3214 51.9047 89.091 53.3457 88.5291L52.8007 87.1316ZM48.9675 87.7204L49.0691 86.2238L48.6637 86.1963L48.5622 87.6929L48.4606 89.1894L48.866 89.2169L48.9675 87.7204ZM48.5622 87.6929L48.6637 86.1963L48.2583 86.1688L48.1568 87.6654L48.0553 89.1619L48.4606 89.1894L48.5622 87.6929ZM48.1568 87.6654L48.2583 86.1688C46.8344 86.0722 45.412 86.1245 43.9928 86.3253L44.203 87.8105L44.4131 89.2957C45.6269 89.124 46.8404 89.0795 48.0553 89.1619L48.1568 87.6654ZM44.203 87.8105L43.9928 86.3253L43.5884 86.3825L43.7985 87.8677L44.0087 89.3529L44.4131 89.2957L44.203 87.8105ZM43.7985 87.8677L43.5884 86.3825L43.1839 86.4398L43.394 87.925L43.6042 89.4102L44.0087 89.3529L43.7985 87.8677ZM43.394 87.925L43.1839 86.4398C42.078 86.5962 40.9992 86.5185 39.9332 86.2066L39.512 87.6462L39.0907 89.0859C40.5679 89.5181 42.0772 89.6262 43.6042 89.4102L43.394 87.925ZM39.512 87.6462L39.9332 86.2066L39.5426 86.0923L39.1213 87.5319L38.7 88.9716L39.0907 89.0859L39.512 87.6462ZM39.1213 87.5319L39.5426 86.0923L39.1519 85.978L38.7306 87.4176L38.3094 88.8573L38.7 88.9716L39.1213 87.5319ZM38.7306 87.4176L39.1519 85.978C37.8634 85.601 36.5806 85.2502 35.3034 84.9258L34.9341 86.3796L34.5648 87.8334C35.8065 88.1488 37.0547 88.4901 38.3094 88.8573L38.7306 87.4176ZM34.9341 86.3796L35.3034 84.9258L34.9165 84.8274L34.5472 86.2813L34.1778 87.7351L34.5648 87.8334L34.9341 86.3796ZM34.5472 86.2813L34.9165 84.8274L34.5296 84.7291L34.1602 86.183L33.7909 87.6368L34.1778 87.7351L34.5472 86.2813ZM34.1602 86.183L34.5296 84.7291C33.3302 84.4245 32.1547 84.0469 31.0027 83.5965L30.4564 84.9935L29.9102 86.3905C31.1777 86.8861 32.4714 87.3016 33.7909 87.6368L34.1602 86.183ZM30.4564 84.9935L31.0027 83.5965L30.631 83.4512L30.0848 84.8482L29.5385 86.2452L29.9102 86.3905L30.4564 84.9935ZM30.0848 84.8482L30.631 83.4512L30.2593 83.3058L29.7131 84.7028L29.1668 86.0998L29.5385 86.2452L30.0848 84.8482ZM29.7131 84.7028L30.2593 83.3058C29.1047 82.8543 27.9821 82.3369 26.8914 81.7534L26.1839 83.0761L25.4763 84.3987C26.6718 85.0382 27.902 85.6053 29.1668 86.0998L29.7131 84.7028ZM26.1839 83.0761L26.8914 81.7534L26.5402 81.5656L25.8327 82.8882L25.1252 84.2109L25.4763 84.3987L26.1839 83.0761ZM25.8327 82.8882L26.5402 81.5656L26.189 81.3777L25.4815 82.7004L24.774 84.023L25.1252 84.2109L25.8327 82.8882ZM25.4815 82.7004L26.189 81.3777C25.063 80.7754 23.9475 80.1507 22.8426 79.5037L22.0847 80.7981L21.3267 82.0925C22.4648 82.759 23.6139 83.4025 24.774 84.023L25.4815 82.7004ZM22.0847 80.7981L22.8426 79.5037L22.4981 79.302L21.7401 80.5964L20.9822 81.8908L21.3267 82.0925L22.0847 80.7981ZM21.7401 80.5964L22.4981 79.302L22.1535 79.1002L21.3956 80.3946L20.6376 81.689L20.9822 81.8908L21.7401 80.5964ZM21.3956 80.3946L22.1535 79.1002C21.026 78.44 19.8792 77.779 18.7131 77.1171L17.9727 78.4217L17.2323 79.7262C18.387 80.3816 19.5221 81.0358 20.6376 81.689L21.3956 80.3946ZM17.9727 78.4217L18.7131 77.1171L18.3566 76.9148L17.6162 78.2193L16.8758 79.5239L17.2323 79.7262L17.9727 78.4217ZM17.6162 78.2193L18.3566 76.9148L18.0001 76.7125L17.2597 78.017L16.5193 79.3215L16.8758 79.5239L17.6162 78.2193ZM17.2597 78.017L18.0001 76.7125C17.0417 76.1686 16.2613 75.4453 15.6453 74.53L14.4008 75.3675L13.1564 76.205C14.0314 77.5052 15.1569 78.5483 16.5193 79.3215L17.2597 78.017ZM14.4008 75.3675L15.6453 74.53L15.4162 74.1896L14.1718 75.0271L12.9273 75.8646L13.1564 76.205L14.4008 75.3675ZM14.1718 75.0271L15.4162 74.1896L15.1872 73.8493L13.9427 74.6868L12.6983 75.5243L12.9273 75.8646L14.1718 75.0271ZM13.9427 74.6868L15.1872 73.8493C14.3664 72.6297 13.3955 71.5377 12.2774 70.5756L11.299 71.7127L10.3207 72.8497C11.2365 73.6376 12.028 74.5283 12.6983 75.5243L13.9427 74.6868ZM11.299 71.7127L12.2774 70.5756L11.9649 70.3068L10.9866 71.4439L10.0083 72.5809L10.3207 72.8497L11.299 71.7127ZM10.9866 71.4439L11.9649 70.3068L11.6525 70.038L10.6742 71.175L9.69586 72.3121L10.0083 72.5809L10.9866 71.4439ZM10.6742 71.175L11.6525 70.038C10.7838 69.2906 10.1001 68.4165 9.5924 67.4081L8.25261 68.0826L6.91282 68.7571C7.59999 70.122 8.53064 71.3096 9.69586 72.3121L10.6742 71.175ZM8.25261 68.0826L9.5924 67.4081L9.40885 67.0435L8.06906 67.718L6.72927 68.3925L6.91282 68.7571L8.25261 68.0826ZM8.06906 67.718L9.40885 67.0435L9.2253 66.6789L7.88551 67.3534L6.54573 68.0279L6.72927 68.3925L8.06906 67.718ZM7.88551 67.3534L9.2253 66.6789C8.64459 65.5254 8.11075 64.3584 7.62367 63.1777L6.23703 63.7498L4.8504 64.3218C5.36643 65.5727 5.93157 66.808 6.54573 68.0279L7.88551 67.3534ZM6.23703 63.7498L7.62367 63.1777L7.46958 62.8042L6.08294 63.3763L4.69631 63.9483L4.8504 64.3218L6.23703 63.7498ZM6.08294 63.3763L7.46958 62.8042L7.31548 62.4307L5.92885 63.0028L4.54222 63.5748L4.69631 63.9483L6.08294 63.3763ZM5.92885 63.0028L7.31548 62.4307C6.8156 61.219 6.32099 60.0051 5.83164 58.7888L4.44005 59.3487L3.04846 59.9086C3.54108 61.133 4.039 62.355 4.54222 63.5748L5.92885 63.0028ZM4.44005 59.3487L5.83164 58.7888L5.6808 58.4139L4.28921 58.9737L2.89761 59.5336L3.04846 59.9086L4.44005 59.3487ZM4.28921 58.9737L5.6808 58.4139L5.52996 58.0389L4.13836 58.5988L2.74677 59.1587L2.89761 59.5336L4.28921 58.9737ZM4.13836 58.5988L5.52996 58.0389C5.09332 56.9537 4.82109 55.8288 4.71252 54.6596L3.21894 54.7984L1.72537 54.9371C1.86073 56.3946 2.20144 57.8033 2.74677 59.1587L4.13836 58.5988ZM3.21894 54.7984L4.71252 54.6596L4.67504 54.2562L3.18147 54.3949L1.6879 54.5336L1.72537 54.9371L3.21894 54.7984ZM3.18147 54.3949L4.67504 54.2562L4.63757 53.8527L3.144 53.9914L1.65043 54.1301L1.6879 54.5336L3.18147 54.3949ZM3.144 53.9914L4.63757 53.8527C4.51155 52.4957 4.32688 51.152 4.08347 49.8216L2.60797 50.0916L1.13246 50.3615C1.35983 51.6043 1.53251 52.8604 1.65043 54.1301L3.144 53.9914ZM2.60797 50.0916L4.08347 49.8216L4.01116 49.4263L2.53565 49.6963L1.06014 49.9663L1.13246 50.3615L2.60797 50.0916ZM2.53565 49.6963L4.01116 49.4263L3.93884 49.0311L2.46333 49.301L0.987822 49.571L1.06014 49.9663L2.53565 49.6963ZM2.46333 49.301L3.93884 49.0311C3.72018 47.836 3.61366 46.6306 3.61925 45.4137L2.11927 45.4068L0.619282 45.3999C0.612842 46.8022 0.735702 48.193 0.987822 49.571L2.46333 49.301ZM2.11927 45.4068L3.61925 45.4137L3.6211 45.0113L2.12111 45.0044L0.621129 44.9976L0.619282 45.3999L2.11927 45.4068ZM2.12111 45.0044L3.6211 45.0113L3.62295 44.609L2.12296 44.6021L0.622977 44.5952L0.621129 44.9976L2.12111 45.0044ZM2.12296 44.6021L3.62295 44.609C3.62852 43.3953 3.74959 42.195 3.98621 41.0068L2.5151 40.7138L1.04398 40.4209C0.769784 41.7978 0.629431 43.1897 0.622977 44.5952L2.12296 44.6021ZM2.5151 40.7138L3.98621 41.0068L4.06468 40.6127L2.59356 40.3198L1.12245 40.0268L1.04398 40.4209L2.5151 40.7138ZM2.59356 40.3198L4.06468 40.6127L4.14315 40.2187L2.67203 39.9257L1.20092 39.6328L1.12245 40.0268L2.59356 40.3198ZM2.67203 39.9257L4.14315 40.2187C4.39478 38.9551 4.66946 37.7032 4.96716 36.463L3.50859 36.1129L2.05003 35.7628C1.74313 37.0413 1.4601 38.3313 1.20092 39.6328L2.67203 39.9257ZM3.50859 36.1129L4.96716 36.463L5.06003 36.0761L3.60147 35.726L2.1429 35.3759L2.05003 35.7628L3.50859 36.1129ZM3.60147 35.726L5.06003 36.0761L5.15291 35.6892L3.69434 35.3391L2.23578 34.989L2.1429 35.3759L3.60147 35.726ZM3.69434 35.3391L5.15291 35.6892C5.45932 34.4128 5.74528 33.1223 6.01081 31.8179L4.54096 31.5187L3.0711 31.2195C2.81241 32.4903 2.53396 33.7468 2.23578 34.989L3.69434 35.3391ZM4.54096 31.5187L6.01081 31.8179L6.09134 31.4223L4.62149 31.1231L3.15163 30.8239L3.0711 31.2195L4.54096 31.5187ZM4.62149 31.1231L6.09134 31.4223L6.17187 31.0267L4.70202 30.7275L3.23216 30.4283L3.15163 30.8239L4.62149 31.1231ZM4.70202 30.7275L6.17187 31.0267C6.39717 29.9199 6.81226 28.8952 7.4206 27.9439L6.1569 27.1358L4.8932 26.3277C4.08593 27.59 3.53109 28.9598 3.23216 30.4283L4.70202 30.7275ZM6.1569 27.1358L7.4206 27.9439L7.63806 27.6039L6.37436 26.7957L5.11066 25.9876L4.8932 26.3277L6.1569 27.1358ZM6.37436 26.7957L7.63806 27.6039L7.85552 27.2638L6.59182 26.4557L5.32812 25.6476L5.11066 25.9876L6.37436 26.7957ZM6.59182 26.4557L7.85552 27.2638C8.56791 26.1498 9.26559 25.0379 9.94853 23.9282L8.67105 23.142L7.39357 22.3559C6.71982 23.4507 6.03134 24.5479 5.32812 25.6476L6.59182 26.4557ZM8.67105 23.142L9.94853 23.9282L10.1569 23.5895L8.87946 22.8034L7.60198 22.0172L7.39357 22.3559L8.67105 23.142ZM8.87946 22.8034L10.1569 23.5895L10.3653 23.2509L9.08787 22.4647L7.81039 21.6785L7.60198 22.0172L8.87946 22.8034ZM9.08787 22.4647L10.3653 23.2509C11.0261 22.1772 11.7233 21.125 12.457 20.0944L11.235 19.2244L10.0131 18.3545C9.24059 19.4396 8.50635 20.5476 7.81039 21.6785L9.08787 22.4647ZM11.235 19.2244L12.457 20.0944L12.6884 19.7693L11.4664 18.8994L10.2444 18.0295L10.0131 18.3545L11.235 19.2244ZM11.4664 18.8994L12.6884 19.7693L12.9198 19.4443L11.6978 18.5744L10.4758 17.7045L10.2444 18.0295L11.4664 18.8994ZM11.6978 18.5744L12.9198 19.4443C13.673 18.3863 14.4343 17.3164 15.2036 16.2348L13.9813 15.3654L12.759 14.4959C11.9898 15.5772 11.2288 16.6468 10.4758 17.7045L11.6978 18.5744ZM13.9813 15.3654L15.2036 16.2348L15.44 15.9026L14.2176 15.0331L12.9953 14.1637L12.759 14.4959L13.9813 15.3654ZM14.2176 15.0331L15.44 15.9026L15.6763 15.5703L14.454 14.7009L13.2316 13.8314L12.9953 14.1637L14.2176 15.0331ZM14.454 14.7009L15.6763 15.5703C16.3367 14.6419 17.1388 13.8722 18.0892 13.2538L17.2712 11.9965L16.4532 10.7392C15.1858 11.5637 14.1097 12.5969 13.2316 13.8314L14.454 14.7009ZM17.2712 11.9965L18.0892 13.2538L18.4299 13.0322L17.6119 11.7748L16.7939 10.5175L16.4532 10.7392L17.2712 11.9965ZM17.6119 11.7748L18.4299 13.0322L18.7706 12.8105L17.9526 11.5532L17.1346 10.2959L16.7939 10.5175L17.6119 11.7748ZM17.9526 11.5532L18.7706 12.8105C19.841 12.1141 20.9331 11.4735 22.0469 10.8884L21.3494 9.56046L20.6518 8.23251C19.4544 8.8615 18.282 9.54936 17.1346 10.2959L17.9526 11.5532ZM21.3494 9.56046L22.0469 10.8884L22.402 10.7019L21.7044 9.37396L21.0069 8.04601L20.6518 8.23251L21.3494 9.56046ZM21.7044 9.37396L22.402 10.7019L22.757 10.5154L22.0595 9.18746L21.3619 7.85952L21.0069 8.04601L21.7044 9.37396ZM22.0595 9.18746L22.757 10.5154C23.9258 9.90145 25.0816 9.27216 26.2243 8.62753L25.4873 7.32108L24.7503 6.01463C23.6338 6.64444 22.5044 7.2594 21.3619 7.85952L22.0595 9.18746ZM25.4873 7.32108L26.2243 8.62753L26.5713 8.43176L25.8343 7.12531L25.0973 5.81886L24.7503 6.01463L25.4873 7.32108ZM25.8343 7.12531L26.5713 8.43176L26.9183 8.23599L26.1813 6.92954L25.4443 5.62309L25.0973 5.81886L25.8343 7.12531ZM26.1813 6.92954L26.9183 8.23599C28.0843 7.57823 29.2442 6.85966 30.398 6.08073L29.5588 4.83749L28.7195 3.59426C27.6292 4.33028 26.5375 5.0064 25.4443 5.62309L26.1813 6.92954ZM29.5588 4.83749L30.398 6.08073L30.7428 5.84801L29.9035 4.60477L29.0643 3.36154L28.7195 3.59426L29.5588 4.83749ZM29.9035 4.60477L30.7428 5.84801L31.0875 5.61529L30.2483 4.37206L29.409 3.12882L29.0643 3.36154L29.9035 4.60477ZM30.2483 4.37206L31.0875 5.61529C32.0454 4.96869 33.0723 4.54223 34.178 4.32741L33.892 2.85494L33.6059 1.38247C32.0975 1.67551 30.6953 2.26047 29.409 3.12882L30.2483 4.37206ZM33.892 2.85494L34.178 4.32741L34.5796 4.24939L34.2935 2.77692L34.0075 1.30445L33.6059 1.38247L33.892 2.85494ZM34.2935 2.77692L34.5796 4.24939L34.9812 4.17138L34.6951 2.69891L34.409 1.22644L34.0075 1.30445L34.2935 2.77692ZM34.6951 2.69891L34.9812 4.17138C36.1853 3.93744 37.3987 3.83155 38.6232 3.85346L38.6501 2.3537L38.6769 0.853945C37.2422 0.828265 35.819 0.952508 34.409 1.22644L34.6951 2.69891ZM38.6501 2.3537L38.6232 3.85346L39.0317 3.86078L39.0585 2.36102L39.0854 0.861256L38.6769 0.853945L38.6501 2.3537ZM39.0585 2.36102L39.0317 3.86078L39.4402 3.86809L39.467 2.36833L39.4939 0.868568L39.0854 0.861256L39.0585 2.36102ZM39.467 2.36833L39.4402 3.86809C40.8689 3.89366 42.2874 3.77837 43.6944 3.52241L43.4259 2.04663L43.1574 0.570854C41.9451 0.791413 40.7244 0.890592 39.4939 0.868568L39.467 2.36833ZM43.4259 2.04663L43.6944 3.52241L44.0967 3.4492L43.8283 1.97343L43.5598 0.497652L43.1574 0.570854L43.4259 2.04663ZM43.8283 1.97343L44.0967 3.4492L44.4991 3.376L44.2306 1.90023L43.9621 0.424451L43.5598 0.497652L43.8283 1.97343ZM44.2306 1.90023L44.4991 3.376C45.6864 3.16 46.8774 3.09393 48.075 3.17725L48.1791 1.68087L48.2833 0.184485C46.8355 0.0837594 45.3941 0.163926 43.9621 0.424451L44.2306 1.90023ZM48.1791 1.68087L48.075 3.17725L48.4814 3.20552L48.5855 1.70914L48.6896 0.212758L48.2833 0.184485L48.1791 1.68087ZM48.5855 1.70914L48.4814 3.20552L48.8878 3.2338L48.9919 1.73741L49.096 0.24103L48.6896 0.212758L48.5855 1.70914ZM48.9919 1.73741L48.8878 3.2338C50.1672 3.32281 51.4426 3.46724 52.7141 3.66713L52.9471 2.18533L53.18 0.703526C51.8234 0.490248 50.462 0.336066 49.096 0.24103L48.9919 1.73741ZM52.9471 2.18533L52.7141 3.66713L53.1179 3.7306L53.3508 2.2488L53.5838 0.766995L53.18 0.703526L52.9471 2.18533ZM53.3508 2.2488L53.1179 3.7306L53.5216 3.79407L53.7546 2.31227L53.9875 0.830464L53.5838 0.766995L53.3508 2.2488ZM53.7546 2.31227L53.5216 3.79407C54.6667 3.97409 55.7534 4.3407 56.7879 4.89777L57.4991 3.57707L58.2103 2.25637C56.8803 1.5402 55.4706 1.06361 53.9875 0.830464L53.7546 2.31227ZM57.4991 3.57707L56.7879 4.89777L57.1512 5.09336L57.8623 3.77266L58.5735 2.45196L58.2103 2.25637L57.4991 3.57707ZM57.8623 3.77266L57.1512 5.09336L57.5144 5.28894L58.2255 3.96824L58.9367 2.64755L58.5735 2.45196L57.8623 3.77266ZM58.2255 3.96824L57.5144 5.28894C58.7867 5.97404 60.1089 6.51943 61.4799 6.92362L61.9041 5.48484L62.3283 4.04607C61.159 3.70136 60.0289 3.23568 58.9367 2.64755L58.2255 3.96824ZM61.9041 5.48484L61.4799 6.92362L61.8701 7.03866L62.2943 5.59988L62.7185 4.16111L62.3283 4.04607L61.9041 5.48484ZM62.2943 5.59988L61.8701 7.03866L62.2603 7.1537L62.6845 5.71493L63.1087 4.27615L62.7185 4.16111L62.2943 5.59988ZM62.6845 5.71493L62.2603 7.1537C63.3966 7.4887 64.461 7.972 65.4574 8.60502L66.2617 7.33894L67.0661 6.07286C65.833 5.28942 64.5126 4.69005 63.1087 4.27615L62.6845 5.71493ZM66.2617 7.33894L65.4574 8.60502L65.7998 8.82261L66.6042 7.55653L67.4086 6.29044L67.0661 6.07286L66.2617 7.33894ZM66.6042 7.55653L65.7998 8.82261L66.1423 9.0402L66.9467 7.77412L67.7511 6.50803L67.4086 6.29044L66.6042 7.55653ZM66.9467 7.77412L66.1423 9.0402C67.1861 9.70337 68.1645 10.4474 69.0781 11.2726L70.0835 10.1594L71.089 9.04624C70.0496 8.10753 68.9367 7.26132 67.7511 6.50803L66.9467 7.77412ZM70.0835 10.1594L69.0781 11.2726L69.3781 11.5435L70.3836 10.4304L71.389 9.31721L71.089 9.04624L70.0835 10.1594ZM70.3836 10.4304L69.3781 11.5435L69.6781 11.8145L70.6836 10.7013L71.689 9.58817L71.389 9.31721L70.3836 10.4304ZM70.6836 10.7013L69.6781 11.8145C70.6639 12.7049 71.6569 13.5793 72.657 14.4379L73.634 13.2997L74.6111 12.1616C73.6302 11.3196 72.6562 10.4618 71.689 9.58817L70.6836 10.7013ZM73.634 13.2997L72.657 14.4379L72.9613 14.6991L73.9384 13.561L74.9154 12.4228L74.6111 12.1616L73.634 13.2997ZM73.9384 13.561L72.9613 14.6991L73.2656 14.9604L74.2427 13.8222L75.2197 12.6841L74.9154 12.4228L73.9384 13.561ZM74.2427 13.8222L73.2656 14.9604C74.1796 15.745 75.0052 16.6124 75.7434 17.5638L76.9285 16.6443L78.1136 15.7247C77.2517 14.6139 76.2867 13.6 75.2197 12.6841L74.2427 13.8222ZM76.9285 16.6443L75.7434 17.5638L75.9892 17.8806L77.1743 16.9611L78.3594 16.0415L78.1136 15.7247L76.9285 16.6443ZM77.1743 16.9611L75.9892 17.8806L76.2351 18.1974L77.4201 17.2779L78.6052 16.3583L78.3594 16.0415L77.1743 16.9611ZM77.4201 17.2779L76.2351 18.1974C76.9987 19.1816 77.6985 20.2039 78.3348 21.2645L79.6211 20.4929L80.9074 19.7212C80.2092 18.5574 79.4417 17.4363 78.6052 16.3583L77.4201 17.2779ZM79.6211 20.4929L78.3348 21.2645L78.5398 21.6062L79.8261 20.8346L81.1124 20.0629L80.9074 19.7212L79.6211 20.4929ZM79.8261 20.8346L78.5398 21.6062L78.7448 21.9479L80.0311 21.1763L81.3174 20.4046L81.1124 20.0629L79.8261 20.8346ZM80.0311 21.1763L78.7448 21.9479C79.457 23.1351 80.276 24.2662 81.2002 25.341L82.3376 24.363L83.4749 23.385C82.6583 22.4353 81.9397 21.4419 81.3174 20.4046L80.0311 21.1763ZM82.3376 24.363L81.2002 25.341L81.4676 25.652L82.605 24.674L83.7423 23.696L83.4749 23.385L82.3376 24.363ZM82.605 24.674L81.4676 25.652L81.735 25.963L82.8724 24.985L84.0098 24.007L83.7423 23.696L82.605 24.674ZM82.8724 24.985L81.735 25.963C82.43 26.7712 82.8638 27.6867 83.0491 28.7355L84.5262 28.4745L86.0034 28.2136C85.7243 26.6342 85.0556 25.2234 84.0098 24.007L82.8724 24.985ZM84.5262 28.4745L83.0491 28.7355L83.1204 29.1392L84.5976 28.8783L86.0747 28.6173L86.0034 28.2136L84.5262 28.4745ZM84.5976 28.8783L83.1204 29.1392L83.1918 29.543L84.6689 29.282L86.146 29.021L86.0747 28.6173L84.5976 28.8783ZM84.6689 29.282L83.1918 29.543C83.4561 31.0392 83.9845 32.4499 84.7709 33.7676L86.059 32.999L87.347 32.2303C86.7443 31.2203 86.346 30.153 86.146 29.021L84.6689 29.282ZM86.059 32.999L84.7709 33.7676L84.9842 34.1252L86.2723 33.3565L87.5604 32.5879L87.347 32.2303L86.059 32.999ZM86.2723 33.3565L84.9842 34.1252L85.1976 34.4828L86.4857 33.7141L87.7738 32.9454L87.5604 32.5879L86.2723 33.3565ZM86.4857 33.7141L85.1976 34.4828C85.7611 35.427 86.0462 36.4207 86.0673 37.487L87.567 37.4573L89.0667 37.4277C89.0351 35.8308 88.5994 34.329 87.7738 32.9454L86.4857 33.7141ZM87.567 37.4573L86.0673 37.487L86.0754 37.8961L87.5751 37.8664L89.0748 37.8368L89.0667 37.4277L87.567 37.4573ZM87.5751 37.8664L86.0754 37.8961L86.0835 38.3052L87.5832 38.2755L89.0829 38.2459L89.0748 37.8368L87.5751 37.8664ZM87.5832 38.2755L86.0835 38.3052C86.1099 39.6415 86.1423 40.965 86.1808 42.2756L87.6802 42.2315L89.1795 42.1874C89.1413 40.8866 89.1091 39.5728 89.0829 38.2459L87.5832 38.2755ZM87.6802 42.2315L86.1808 42.2756L86.1926 42.6767L87.692 42.6326L89.1913 42.5886L89.1795 42.1874L87.6802 42.2315ZM87.692 42.6326L86.1926 42.6767L86.2044 43.0779L87.7038 43.0338L89.2031 42.9897L89.1913 42.5886L87.692 42.6326ZM87.7038 43.0338L86.2044 43.0779C86.2238 43.7364 86.2472 44.257 86.2765 44.6229C86.2904 44.7981 86.3089 44.9807 86.3372 45.1378C86.3493 45.2047 86.3761 45.3441 86.4337 45.4959C86.4596 45.5644 86.5255 45.7283 86.6592 45.9021C86.7747 46.0521 87.1482 46.4734 87.8122 46.4947L87.8604 44.9955L87.9085 43.4963C88.5642 43.5174 88.9297 43.9333 89.0371 44.0729C89.1627 44.2362 89.2207 44.3846 89.2389 44.4324C89.2633 44.4969 89.276 44.5461 89.281 44.5662C89.2867 44.5894 89.2893 44.6039 89.2897 44.6057C89.2901 44.6082 89.2872 44.5919 89.2824 44.5492C89.2778 44.5086 89.2725 44.4543 89.2669 44.3841C89.2439 44.0961 89.2221 43.6369 89.2031 42.9897L87.7038 43.0338ZM87.8604 44.9955L87.8122 46.4947L87.8325 46.4954L87.8807 44.9962L87.9288 43.4969L87.9085 43.4963L87.8604 44.9955ZM87.8807 44.9962L87.8325 46.4954L87.8528 46.496L87.9009 44.9968L87.9491 43.4976L87.9288 43.4969L87.8807 44.9962ZM87.9009 44.9968L87.8528 46.496C87.1503 46.4735 86.7721 46.0061 86.6488 45.8136C86.5227 45.6165 86.4778 45.4405 86.4648 45.3882C86.4466 45.3147 86.4396 45.259 86.4371 45.2366C86.4341 45.2103 86.4333 45.1937 86.4331 45.1908C86.4329 45.186 86.4337 45.2007 86.4328 45.243C86.432 45.2829 86.43 45.3367 86.4262 45.4065C86.4107 45.6934 86.371 46.1512 86.3033 46.7968L87.7952 46.9532L89.287 47.1097C89.3558 46.4531 89.4021 45.9338 89.4218 45.5685C89.4313 45.3941 89.4374 45.2101 89.4298 45.0498C89.4267 44.9836 89.4183 44.8346 89.3771 44.668C89.3591 44.5951 89.3083 44.4036 89.1755 44.1961C89.0455 43.9932 88.6598 43.5204 87.9491 43.4976L87.9009 44.9968ZM87.7952 46.9532L86.3033 46.7968L86.2614 47.1969L87.7532 47.3533L89.245 47.5097L89.287 47.1097L87.7952 46.9532Z" fill="#323232"/>
</svg>
