<svg width="34" height="37" viewBox="0 0 34 37" fill="none" xmlns="http://www.w3.org/2000/svg">
<path d="M17 5.84879V1.07017H28.25C30.5459 0.998731 32 1.59442 32 4.78688V31.3348C32 34.5139 30.7768 35.1716 28.25 35.0515H17V30.2729H27.25V5.84879H17Z" fill="#434343" fill-opacity="0.3"/>
<path d="M24.0371 0.0275879C24.681 -0.0457935 25.3244 0.0284193 25.9531 0.238525C26.3595 0.373962 26.7543 0.392968 27.1484 0.308838C27.7373 0.183285 28.3337 0.130819 28.9355 0.150635C29.5844 0.172029 30.2116 0.329047 30.8105 0.613525C31.5076 0.944623 31.9898 1.49598 32.1992 2.23657C32.3688 2.83751 32.4364 3.44355 32.3984 4.04712C32.3682 4.52517 32.37 5.01691 32.4102 5.51196C32.4558 6.07584 32.461 6.64123 32.4277 7.20532C32.4002 7.67397 32.4294 8.14614 32.5156 8.61743C32.6221 9.20015 32.6637 9.78407 32.6387 10.3694C32.6178 10.8546 32.6446 11.3422 32.709 11.8284C32.7813 12.3739 32.8354 12.9232 32.873 13.469C32.9097 14.0003 32.9453 14.5315 32.9785 15.0627C33.017 15.6779 32.9468 16.2902 32.7793 16.8967C32.6699 17.2923 32.6758 17.6833 32.791 18.0803C32.9712 18.7011 33.025 19.3303 32.9551 19.9612C32.8895 20.5522 32.7529 21.143 32.5449 21.7249C32.3884 22.1636 32.3244 22.5928 32.3516 23.0139C32.3803 23.4546 32.4898 23.9025 32.6797 24.3616C32.9675 25.0571 32.9959 25.7808 32.75 26.4885C32.6217 26.8589 32.6173 27.2144 32.7441 27.5842C32.9917 28.3041 32.9459 29.0374 32.627 29.7346C32.4714 30.0761 32.4635 30.3917 32.6035 30.7307C32.8805 31.4012 32.9495 32.0935 32.7852 32.7874C32.644 33.3826 32.4246 33.9725 32.1289 34.551C31.7612 35.2701 31.1638 35.7515 30.3828 35.9573C29.7383 36.1269 29.0995 36.1956 28.4727 36.1565C27.9097 36.1212 27.3503 36.0569 26.7969 35.969C26.2622 35.884 25.7261 35.7962 25.1914 35.6995C24.8098 35.6304 24.4206 35.6694 24.0137 35.8342C23.3037 36.1212 22.573 36.1166 21.8633 35.8284C21.5926 35.7184 21.3328 35.6906 21.0723 35.7346L20.2812 35.9456C19.7542 36.0372 19.2203 35.9815 18.6992 35.7874C18.1975 35.6006 17.8043 35.4961 17.5098 35.4534C16.726 35.3398 16.3071 34.7104 16.1035 34.0588C15.8974 33.3987 15.8752 32.7272 16.0449 32.0608C16.1857 31.5088 16.3427 31.0383 16.5195 30.6721C16.8526 29.9828 17.5673 29.7925 18.2012 29.7874C18.7654 29.7829 19.3311 29.8203 19.8945 29.8928C20.3287 29.9485 20.7665 29.9219 21.207 29.8108C21.7518 29.6735 22.2963 29.5522 22.8418 29.4534C23.4066 29.3511 23.9745 29.2901 24.541 29.2717C25.1288 29.2528 25.7163 29.3169 26.2988 29.4534C26.3332 29.0841 26.3387 28.6833 26.2988 28.2522C26.2373 27.5837 26.3556 26.9251 26.6387 26.2893C26.8133 25.8971 26.8502 25.5309 26.7676 25.1702C26.6298 24.5675 26.5869 23.9615 26.6387 23.3538C26.6813 22.8565 26.6909 22.3567 26.668 21.8596C26.6456 21.3748 26.5786 20.8886 26.4688 20.4006C26.3341 19.803 26.285 19.1984 26.3223 18.5959C26.3532 18.0946 26.3527 17.5914 26.3281 17.0901C26.2988 16.4879 26.3601 15.8876 26.5039 15.2913C26.6288 14.7742 26.7404 14.2552 26.8379 13.7385C26.9073 13.3705 26.8653 12.9917 26.6855 12.5901C26.4017 11.9557 26.2769 11.3004 26.334 10.6331C26.3748 10.1595 26.3634 9.68369 26.2988 9.20923C26.2113 8.56756 26.2638 7.92327 26.457 7.29321C26.479 7.22139 26.4901 7.1632 26.498 7.11743C26.2086 6.98096 25.8394 6.8033 25.3965 6.57837C24.9628 6.35815 24.5526 6.26559 24.1602 6.27368C23.7104 6.28313 23.2562 6.36092 22.7949 6.51392C22.1449 6.72979 21.4771 6.77139 20.8145 6.63696C20.3049 6.53368 19.7939 6.45221 19.2852 6.39087C18.8246 6.33549 18.4217 6.35039 18.0723 6.42603C17.6926 6.50805 17.2784 6.47307 16.918 6.21509C16.5819 5.97457 16.3978 5.6144 16.291 5.26587C16.0873 4.5991 16.0784 3.9197 16.2676 3.25024C16.3898 2.81705 16.4175 2.39122 16.3613 1.96704C16.326 1.7024 16.3022 1.50982 16.2852 1.39282C16.2763 1.33217 16.2698 1.2998 16.2676 1.28735C16.2701 1.29995 16.2758 1.32782 16.2852 1.35767C16.2878 1.36607 16.2969 1.37714 16.3027 1.39282C16.2756 1.3175 16.25 1.2337 16.25 1.13501C16.25 1.12443 16.2473 1.09625 16.25 1.0647C16.2514 1.04855 16.2605 1.01812 16.2676 0.982666C16.2726 0.957709 16.2882 0.86025 16.3496 0.75415C16.3823 0.697638 16.4565 0.585191 16.5957 0.496338C16.76 0.391954 16.9703 0.353343 17.1758 0.402588C17.1905 0.406133 17.2029 0.415954 17.2168 0.420166C17.3146 0.422167 17.482 0.417732 17.7324 0.402588C18.2142 0.373417 18.7073 0.306958 19.2031 0.203369C19.8665 0.0653655 20.5328 0.108635 21.1836 0.326416C21.5736 0.456725 21.9491 0.46792 22.332 0.361572C22.8983 0.204166 23.4672 0.0926141 24.0371 0.0275879ZM24.207 1.51587C23.7183 1.57163 23.2286 1.67208 22.7363 1.80884C22.0597 1.99689 21.3726 1.97427 20.7031 1.75024C20.2962 1.61452 19.9022 1.59182 19.5078 1.67407C18.9541 1.78976 18.4025 1.86207 17.8555 1.89673C17.9175 2.4878 17.8737 3.07757 17.709 3.6604C17.599 4.05044 17.6007 4.43368 17.7207 4.82642C17.7386 4.88511 17.759 4.92636 17.7734 4.95532C18.3069 4.84223 18.8747 4.8312 19.4668 4.90259C20.0162 4.96884 20.5646 5.06086 21.1133 5.17212C21.5106 5.25273 21.9103 5.22624 22.3203 5.09009C22.9177 4.89174 23.5219 4.78624 24.1309 4.77368C24.7984 4.75992 25.4498 4.92435 26.0762 5.24243C26.6027 5.5098 27.0066 5.70471 27.2891 5.83423C27.6656 6.00699 27.9078 6.3291 27.9863 6.71899C28.0551 7.06098 27.9895 7.41606 27.8926 7.73267C27.7608 8.16261 27.73 8.58581 27.7871 9.00415C27.8668 9.58855 27.8786 10.1766 27.8281 10.762C27.7949 11.1529 27.8611 11.5569 28.0508 11.9807C28.3451 12.6386 28.4447 13.3224 28.3145 14.0139C28.2122 14.5565 28.0938 15.1007 27.9629 15.6428C27.8515 16.1047 27.8057 16.5637 27.8281 17.0198C27.8554 17.5765 27.8508 18.1331 27.8164 18.6897C27.7881 19.1472 27.8294 19.6101 27.9336 20.0725C28.0619 20.643 28.1355 21.2158 28.1621 21.7893C28.1881 22.3514 28.1808 22.9149 28.1328 23.4768C28.0943 23.9269 28.1225 24.381 28.2266 24.8362C28.3867 25.5352 28.3069 26.2311 28.0098 26.8987C27.8212 27.3221 27.7568 27.7267 27.793 28.1174C27.8461 28.6925 27.8437 29.2458 27.7812 29.7698C27.7367 30.1396 27.5701 30.5571 27.1484 30.801C26.7593 31.026 26.3254 31.0003 25.9824 30.9182C25.5163 30.8067 25.0544 30.757 24.5938 30.7717C24.1011 30.7876 23.6057 30.8404 23.1113 30.9299C22.5983 31.0229 22.0841 31.1344 21.5703 31.2639C20.9516 31.4198 20.3263 31.4557 19.7012 31.3752C19.205 31.3115 18.7082 31.2834 18.2129 31.2874C18.0125 31.289 17.9094 31.3211 17.8672 31.3401L17.8555 31.3459L17.6914 31.7737C17.6292 31.9577 17.563 32.1751 17.498 32.4299C17.3978 32.8232 17.4085 33.214 17.5332 33.6135C17.5954 33.8123 17.6619 33.9089 17.6973 33.9475C17.7201 33.972 17.7258 33.965 17.7266 33.9651C18.1662 34.0289 18.6702 34.1738 19.2266 34.3811C19.5908 34.5168 19.9371 34.522 20.2988 34.3928C21.0054 34.1396 21.728 34.1563 22.4258 34.4397C22.7751 34.5817 23.1022 34.5811 23.4512 34.4397C24.1037 34.1754 24.7773 34.1006 25.4551 34.2229C25.9797 34.3178 26.5067 34.4032 27.0312 34.4866C27.5376 34.5671 28.0502 34.6241 28.5664 34.6565C29.0182 34.6847 29.4971 34.637 30.002 34.5042C30.3694 34.4069 30.6196 34.2047 30.793 33.8655C31.0384 33.3849 31.2151 32.91 31.3262 32.4417C31.4135 32.0728 31.3839 31.7012 31.2207 31.3049C30.9199 30.5768 30.9338 29.8249 31.2617 29.1077C31.4273 28.7457 31.4423 28.4158 31.3262 28.0764C31.0894 27.388 31.0935 26.6842 31.332 25.9963C31.4544 25.6441 31.4418 25.3002 31.291 24.9358C31.0431 24.3364 30.8973 23.7255 30.8574 23.1077C30.8163 22.4697 30.9111 21.8354 31.1328 21.2151C31.3033 20.7376 31.4148 20.2654 31.4668 19.7971C31.5144 19.3685 31.477 18.935 31.3496 18.4963C31.2054 17.9988 31.1648 17.4969 31.2324 16.9963L31.4668 15.8245C31.4907 15.601 31.4924 15.3782 31.4785 15.1565C31.4455 14.6281 31.4095 14.097 31.373 13.5686C31.3376 13.0554 31.2888 12.5411 31.2207 12.0276C31.1448 11.4548 31.1199 10.8788 31.1445 10.3049C31.1646 9.83355 31.1314 9.36094 31.0449 8.88696C30.9374 8.29939 30.8989 7.70764 30.9336 7.11743C30.9628 6.62243 30.9562 6.12425 30.916 5.62915C30.8703 5.0648 30.8635 4.50511 30.8984 3.95337C30.9252 3.52807 30.8782 3.09406 30.752 2.64673C30.6649 2.33827 30.4882 2.12009 30.166 1.96704C29.7464 1.76793 29.3219 1.66523 28.8887 1.65063C28.4079 1.63478 27.9294 1.67911 27.459 1.77954C26.7953 1.92096 26.13 1.8795 25.4785 1.66235C25.0472 1.51823 24.6231 1.46845 24.207 1.51587Z" fill="#434343"/>
<path d="M7.66667 10.0647L1 19.3374L7.66667 28.0647L11 24.792L9.09524 22.0647H21V16.6102H9.09524L11 13.8829L7.66667 10.0647Z" fill="#434343" fill-opacity="0.3"/>
<path d="M8.27148 9.62524L8.59375 9.80688C8.88773 10.0217 9.09346 10.3262 9.21484 10.6741C9.2642 10.8138 9.33668 10.9049 9.44336 10.9729C9.73315 11.1572 10.0041 11.3611 10.252 11.5881C10.5356 11.8483 10.7692 12.1559 10.9434 12.5022C11.0743 12.7627 11.1839 12.9772 11.2773 13.1409C11.5236 13.5733 11.4845 14.0482 11.3594 14.4417C11.2353 14.8319 11.0328 15.1806 10.7559 15.4788C10.6789 15.5615 10.6072 15.6519 10.5332 15.7366C10.5943 15.742 10.6594 15.7322 10.7207 15.7424C10.9938 15.788 11.2683 15.8266 11.541 15.8538C11.7515 15.8745 11.9651 15.8647 12.1797 15.8186C12.501 15.7497 12.8232 15.7025 13.1465 15.678C13.5238 15.6494 13.9023 15.6841 14.2715 15.7834C14.4483 15.8308 14.6207 15.8373 14.793 15.801C15.2344 15.7086 15.6751 15.7517 16.0938 15.9182C16.2994 15.9997 16.495 16.0373 16.6797 16.0354C16.8659 16.0331 17.0635 15.9922 17.2715 15.9065C17.7687 15.7022 18.2841 15.7276 18.7598 15.9651C18.9074 16.0389 19.0195 16.0482 19.123 16.0237C19.4141 15.9548 19.705 15.8859 19.9961 15.8186C20.5378 15.6935 21.0516 15.8422 21.4434 16.2405C21.6393 16.4398 21.7914 16.6937 21.8359 17.0022C21.8794 17.304 21.813 17.5869 21.7012 17.8284C21.6011 18.0434 21.5458 18.2475 21.5312 18.4377C21.5123 18.6927 21.509 18.9504 21.5254 19.2053C21.5371 19.3857 21.591 19.5802 21.6953 19.7913C21.9317 20.269 21.9551 20.7885 21.748 21.2854C21.6362 21.554 21.5777 21.7365 21.5547 21.8479C21.4256 22.4795 20.8674 22.7176 20.4824 22.7971C20.1371 22.8684 19.7884 22.8955 19.4395 22.885C19.1968 22.8776 18.9512 22.8944 18.707 22.9319C18.3513 22.9867 17.9915 22.991 17.6348 22.9495C17.4074 22.9229 17.177 22.9303 16.9492 22.9612C16.5732 23.012 16.1968 22.9941 15.8242 22.9143C15.6153 22.8695 15.4083 22.8597 15.2031 22.885C14.7922 22.9359 14.3837 22.8885 13.9902 22.7502C13.8551 22.7029 13.7349 22.7016 13.6035 22.7444C13.2692 22.8536 12.9305 22.9268 12.5898 22.967C12.2075 23.012 11.8232 22.9909 11.4473 22.8967C11.1909 22.8325 10.9358 22.768 10.6797 22.7151C10.7615 22.8363 10.8525 22.9513 10.9258 23.0784C11.0728 23.3333 11.2215 23.5887 11.3652 23.8459C11.4837 24.058 11.577 24.3376 11.541 24.6487C11.5025 24.9758 11.3294 25.2322 11.1191 25.4104C10.9504 25.5535 10.7736 25.7219 10.5859 25.9143C10.3934 26.1118 10.2051 26.3149 10.0234 26.5237C9.84748 26.7259 9.67901 26.9364 9.51953 27.1565C9.29915 27.4607 9.03451 27.7241 8.72852 27.9417C8.46998 28.1254 8.22186 28.2774 7.99023 28.387C7.39581 28.6674 6.86612 28.3672 6.56055 28.0706C6.33233 27.849 6.11896 27.6151 5.91602 27.3733C5.66922 27.0792 5.47822 26.7441 5.34766 26.3772C5.2825 26.1949 5.18967 26.0476 5.06641 25.926C4.76771 25.6329 4.55269 25.2771 4.42188 24.8772C4.35293 24.6658 4.25629 24.4842 4.13477 24.3323C3.96939 24.1257 3.78869 23.9253 3.60156 23.7346C3.41978 23.5496 3.22408 23.3744 3.01562 23.2073C2.67263 22.9326 2.42091 22.5777 2.27148 22.1643C2.22672 22.041 2.15435 21.9477 2.03125 21.8713C1.66185 21.642 1.36735 21.3345 1.16406 20.9514C1.04143 20.7204 0.90293 20.4986 0.753906 20.2893C0.588143 20.0565 0.479748 19.9056 0.4375 19.844C0.297873 19.6402 0.293583 19.4317 0.296875 19.3342C0.300793 19.2238 0.317997 19.1231 0.337891 19.053C0.378287 18.9106 0.448433 18.7601 0.519531 18.6135C0.713546 18.2135 1.00946 17.8941 1.38672 17.6584C1.53218 17.5676 1.61866 17.4611 1.67383 17.3362C1.78635 17.0805 1.89255 16.8183 1.99023 16.551C2.13327 16.1594 2.35982 15.8152 2.66406 15.5315C2.90018 15.3114 3.15013 15.102 3.41406 14.9045C3.52365 14.8226 3.5968 14.7228 3.63672 14.5823C3.75956 14.1489 3.99205 13.7745 4.33398 13.4807C4.54105 13.3028 4.73592 13.1168 4.91992 12.9241C4.9956 12.8447 5.06131 12.7275 5.08398 12.5374C5.13676 12.0979 5.28518 11.6875 5.54688 11.3362C5.80051 10.9966 6.13177 10.7344 6.51953 10.5452C6.65486 10.4792 6.70812 10.4095 6.73633 10.3284L6.92969 9.95337C7.02237 9.8274 7.14829 9.7093 7.31641 9.62524C7.49357 9.53702 7.6692 9.51133 7.83203 9.51978L8.27148 9.62524ZM7.86719 11.3303C7.6859 11.5664 7.45411 11.7571 7.17578 11.8928C6.97421 11.9913 6.84035 12.1092 6.74805 12.2327C6.6637 12.3459 6.59821 12.5014 6.57227 12.719C6.51637 13.1853 6.33663 13.6117 6.00977 13.9553C5.79055 14.1852 5.55691 14.4074 5.3125 14.6174C5.20176 14.7126 5.12349 14.8324 5.07812 14.9924C4.94974 15.4439 4.69281 15.824 4.31641 16.1057C4.09468 16.2715 3.88484 16.4452 3.68945 16.6272C3.56117 16.7468 3.46592 16.8926 3.40234 17.0667C3.29392 17.3634 3.17631 17.6544 3.05078 17.9397C2.86741 18.3564 2.56869 18.689 2.18359 18.9299C2.02936 19.0262 1.92995 19.1403 1.86719 19.2698C1.89946 19.3152 1.93833 19.3657 1.97852 19.4221C2.16566 19.685 2.3356 19.9606 2.48828 20.2483C2.56038 20.3842 2.66488 20.5022 2.82227 20.5999C3.22581 20.8503 3.52166 21.2067 3.68359 21.6545C3.74091 21.8131 3.82964 21.9365 3.95312 22.0354C4.20811 22.2397 4.44858 22.4563 4.67383 22.6858C4.89605 22.9123 5.10948 23.1485 5.30664 23.3948C5.54695 23.6952 5.72423 24.0366 5.8457 24.4084C5.90552 24.5919 5.99635 24.7371 6.11523 24.8538C6.40827 25.1415 6.62698 25.4842 6.76562 25.8733C6.8391 26.0798 6.93847 26.2561 7.06445 26.4065C7.21107 26.5812 7.37009 26.7476 7.5332 26.9104C7.62412 26.8561 7.74106 26.8025 7.86133 26.717C8.03325 26.5945 8.18234 26.4491 8.30664 26.2776C8.49196 26.0218 8.68706 25.7755 8.89258 25.5393C9.09253 25.3095 9.29567 25.0831 9.50781 24.8655C9.66001 24.7094 9.81538 24.5668 9.96484 24.4319C9.85179 24.2308 9.7401 24.028 9.625 23.8284C9.49952 23.6108 9.36108 23.402 9.20312 23.2073C9.01004 22.9692 8.78863 22.6506 8.74023 22.2932C8.71735 22.1206 8.73976 21.9272 8.83398 21.7483C8.92407 21.5775 9.05334 21.4636 9.16797 21.3909C9.37873 21.2575 9.62113 21.2131 9.80078 21.1917C10.1708 21.1475 10.5414 21.1584 10.9082 21.2327C11.2088 21.2936 11.5103 21.3626 11.8105 21.4377C12.0146 21.4888 12.2164 21.502 12.4141 21.4788C12.6511 21.4508 12.8914 21.3999 13.1348 21.3206C13.5824 21.1743 14.0443 21.1765 14.4883 21.3323C14.6741 21.3976 14.8472 21.4173 15.0156 21.3967C15.3894 21.3504 15.7647 21.3703 16.1348 21.4495C16.3411 21.4937 16.5472 21.5004 16.75 21.4729C17.1011 21.4253 17.4531 21.4203 17.8047 21.4612C18.0274 21.4872 18.2548 21.4839 18.4785 21.4495C18.8116 21.3983 19.1458 21.3749 19.4805 21.385C19.7031 21.3918 19.9284 21.3713 20.1543 21.3264C20.2093 21.1354 20.2743 20.9235 20.3652 20.7053C20.3993 20.6229 20.3979 20.5608 20.3477 20.4592C20.1655 20.0911 20.0573 19.7038 20.0312 19.3049C20.0102 18.9802 20.0129 18.651 20.0371 18.3264C20.0641 17.9686 20.1543 17.6203 20.3008 17.2834C20.0231 17.3477 19.7464 17.417 19.4688 17.4827C18.9928 17.5952 18.5238 17.5224 18.0918 17.3069C17.9884 17.2552 17.9217 17.2614 17.8398 17.2952C17.4693 17.4477 17.0839 17.5314 16.6914 17.5354C16.2971 17.5393 15.9104 17.4612 15.5371 17.3127C15.3766 17.2489 15.2354 17.2369 15.0977 17.2659C14.6909 17.3513 14.281 17.3389 13.8789 17.2307C13.6693 17.1744 13.4652 17.1571 13.2637 17.1721C13.0082 17.1915 12.7477 17.2282 12.4902 17.2834C12.1261 17.3615 11.7569 17.3846 11.3887 17.3479C11.0826 17.3174 10.7744 17.2759 10.4688 17.2249C10.3171 17.1999 10.1607 17.2126 9.98828 17.2776C9.87848 17.3189 9.74592 17.3589 9.60156 17.3713C9.45781 17.3837 9.25027 17.373 9.04492 17.26C8.56619 16.9961 8.56311 16.4901 8.58203 16.2874L8.63477 15.9768C8.7113 15.6801 8.85109 15.4059 9.04492 15.1624C9.23758 14.9203 9.44221 14.6871 9.6543 14.4592C9.77544 14.3291 9.86999 14.1724 9.92969 13.9846C9.95346 13.9093 9.95244 13.8637 9.95312 13.844C9.84775 13.6573 9.73058 13.4327 9.60156 13.176C9.50692 12.9881 9.38419 12.8294 9.23828 12.6956C9.05756 12.53 8.85883 12.3774 8.64062 12.2385C8.28919 12.015 8.03189 11.7035 7.86719 11.3303Z" fill="#434343"/>
</svg>
