<svg width="34" height="35" viewBox="0 0 34 35" fill="none" xmlns="http://www.w3.org/2000/svg">
<path d="M17 5.42642V1.06944H28.25C30.5459 1.00431 32 1.54744 32 4.45821V28.6637C32 31.5622 30.7768 32.1619 28.25 32.0524H17V27.6954H27.25V5.42642H17Z" fill="#434343" fill-opacity="0.5"/>
<path d="M18.1484 0.0273438C18.7917 -0.0458012 19.4305 0.028488 20.0586 0.238281C20.4652 0.374153 20.8596 0.392522 21.2539 0.308594C21.8297 0.185668 22.4093 0.119751 22.9883 0.109375C23.5232 0.0998246 24.0588 0.0947874 24.5938 0.0976562C25.1788 0.100816 25.7647 0.171682 26.3457 0.302734C26.86 0.41883 27.3784 0.51443 27.8926 0.595703C28.3922 0.674588 28.8761 0.724655 29.3398 0.736328C29.9774 0.752897 30.5615 0.937168 31.0566 1.31641C31.4989 1.65576 31.8673 2.08847 32.1582 2.59375C32.4748 3.14481 32.6227 3.75437 32.6152 4.4043C32.6093 4.89448 32.6434 5.39188 32.709 5.88672C32.7811 6.43132 32.8355 6.97659 32.873 7.52148C32.9097 8.05274 32.9453 8.58397 32.9785 9.11523C33.017 9.73127 32.9473 10.3477 32.7793 10.9551C32.6706 11.3497 32.6761 11.7366 32.791 12.1328C32.9712 12.7535 33.0249 13.3829 32.9551 14.0137C32.8895 14.6047 32.7529 15.1955 32.5449 15.7773C32.3883 16.2163 32.3243 16.6451 32.3516 17.0664C32.3802 17.5071 32.4899 17.955 32.6797 18.4141C32.9675 19.1096 32.9959 19.8333 32.75 20.541C32.6215 20.9114 32.6174 21.2669 32.7441 21.6367C32.9917 22.3565 32.9459 23.0899 32.627 23.7871C32.4716 24.1279 32.4687 24.4387 32.6094 24.7715C32.8757 25.402 32.9931 26.0525 32.9434 26.7109C32.9086 27.1726 32.9354 27.6386 33.0254 28.1113C33.147 28.7497 33.1374 29.4022 33.002 30.0566C32.8533 30.7729 32.4974 31.3992 31.9648 31.9199C31.4155 32.456 30.7545 32.7675 30.002 32.8105C29.3859 32.8452 28.777 32.8081 28.1855 32.6992C27.8043 32.6294 27.4191 32.6698 27.0137 32.834C26.3028 33.1219 25.568 33.1228 24.8574 32.834C24.4958 32.6872 24.1556 32.6783 23.8027 32.8047C23.1059 33.0539 22.3935 33.0458 21.6992 32.7871C21.2757 32.6296 20.8659 32.5852 20.4629 32.6348C19.9797 32.6942 19.4923 32.7987 19.0039 32.9512C18.6486 33.0619 18.2766 33.1032 17.9082 33.0273C17.5323 32.9498 17.2106 32.7572 16.9473 32.4883C16.4175 31.9471 16.2482 31.2557 16.3848 30.5195C16.4748 30.0366 16.5174 29.5527 16.5137 29.0723C16.5112 28.7665 16.5417 28.4363 16.666 28.1523C16.806 27.8327 17.0887 27.5374 17.5273 27.4727L18.6289 27.2324C19.1748 27.0948 19.7229 26.974 20.2695 26.875C20.8344 26.7728 21.4022 26.7116 21.9688 26.6934C22.5668 26.6742 23.1633 26.7391 23.7559 26.8809C24.1943 26.9857 24.6289 27.0034 25.0625 26.9395C25.5884 26.8619 26.0137 26.797 26.3398 26.7402C26.3234 26.7434 26.3437 26.7439 26.3984 26.6875C26.4599 26.6234 26.544 26.5014 26.6387 26.2891C26.8133 25.8969 26.8502 25.5306 26.7676 25.1699C26.6295 24.5664 26.5866 23.9563 26.6387 23.3477C26.681 22.8515 26.6909 22.3553 26.668 21.8594C26.6456 21.3747 26.5785 20.8882 26.4688 20.4004C26.3341 19.8028 26.285 19.1982 26.3223 18.5957C26.3532 18.0942 26.3527 17.5913 26.3281 17.0898C26.2987 16.4877 26.3601 15.8874 26.5039 15.291C26.6287 14.7741 26.7405 14.2548 26.8379 13.7383C26.9073 13.3703 26.8653 12.9915 26.6855 12.5898C26.4016 11.9555 26.277 11.3001 26.334 10.6328C26.3749 10.1584 26.3637 9.67848 26.2988 9.20312C26.2118 8.56234 26.2641 7.92217 26.457 7.29297C26.601 6.82309 26.5345 6.67423 26.5332 6.67188C26.489 6.59451 26.3123 6.40715 25.8184 6.15625C25.3847 5.93603 24.9745 5.84347 24.582 5.85156C24.1322 5.86099 23.6781 5.93881 23.2168 6.0918C22.5668 6.30767 21.899 6.34927 21.2363 6.21484C20.7267 6.11154 20.2159 6.0301 19.707 5.96875C19.2146 5.90945 18.7221 5.88928 18.2305 5.9043C17.5591 5.9247 16.8883 5.73594 16.4727 5.14258C16.0769 4.57641 16.0857 3.89379 16.2676 3.25C16.3901 2.81579 16.418 2.3861 16.3613 1.96094C16.3232 1.67405 16.3073 1.39031 16.3379 1.14648C16.3622 0.955045 16.4528 0.496018 16.9004 0.285156L17.4395 0.126953C17.634 0.089797 17.8737 0.0586541 18.1484 0.0273438ZM17.8262 1.58594C17.8307 1.63894 17.8407 1.70068 17.8496 1.76758C17.9338 2.40135 17.8855 3.03544 17.709 3.66016C17.5929 4.07201 17.6662 4.22783 17.7031 4.28125C17.7209 4.30667 17.7965 4.41583 18.1836 4.4043C18.7515 4.38696 19.3216 4.41209 19.8887 4.48047C20.4381 4.54673 20.9865 4.63873 21.5352 4.75C21.9325 4.83061 22.3322 4.80412 22.7422 4.66797C23.3395 4.46964 23.9438 4.36411 24.5527 4.35156C25.2202 4.33783 25.8717 4.50225 26.498 4.82031C27.0612 5.10645 27.5718 5.4638 27.8398 5.93945C28.1485 6.48903 28.0728 7.14401 27.8926 7.73242C27.7608 8.16236 27.73 8.58557 27.7871 9.00391C27.8668 9.58815 27.8786 10.1766 27.8281 10.7617C27.795 11.1525 27.8612 11.5569 28.0508 11.9805C28.3451 12.6384 28.4448 13.3221 28.3145 14.0137C28.2122 14.5562 28.0938 15.1004 27.9629 15.6426C27.8516 16.1043 27.8057 16.5636 27.8281 17.0195C27.8554 17.5762 27.8508 18.1328 27.8164 18.6895C27.7881 19.147 27.8294 19.6099 27.9336 20.0723C28.0619 20.6428 28.1356 21.2155 28.1621 21.7891C28.1881 22.3514 28.1808 22.9145 28.1328 23.4766C28.0943 23.9268 28.1224 24.3806 28.2266 24.8359C28.3867 25.5351 28.307 26.2308 28.0098 26.8984C27.7437 27.4959 27.3128 28.0923 26.5977 28.2168C26.2534 28.2767 25.8124 28.3432 25.2793 28.4219C24.6533 28.5141 24.0254 28.4884 23.4043 28.3398C22.9383 28.2285 22.4762 28.1785 22.0156 28.1934C21.5229 28.2093 21.0276 28.262 20.5332 28.3516C20.0206 28.4445 19.5055 28.5561 18.9922 28.6855C18.6096 28.782 18.2809 28.8401 18.0195 28.8906C18.0158 28.9363 18.0131 28.9939 18.0137 29.0605C18.0181 29.6378 17.9683 30.2142 17.8613 30.7891C17.8012 31.1118 17.8756 31.2925 18.0195 31.4395C18.0933 31.5147 18.1553 31.5448 18.2129 31.5566C18.2776 31.5696 18.3864 31.5694 18.5586 31.5156C19.1297 31.3374 19.705 31.2173 20.2812 31.1465C20.9376 31.0659 21.5908 31.1498 22.2266 31.3867C22.5903 31.5215 22.9374 31.522 23.2988 31.3926C24.0057 31.1393 24.7278 31.1557 25.4258 31.4395C25.7749 31.5813 26.1024 31.5865 26.4512 31.4453C27.1052 31.1804 27.7814 31.0975 28.4609 31.2227C28.9301 31.3089 29.4136 31.3387 29.9141 31.3105C30.2754 31.2902 30.6034 31.1523 30.916 30.8477C31.2466 30.5244 31.4463 30.1609 31.5312 29.752C31.629 29.2799 31.6317 28.8274 31.5488 28.3926C31.4347 27.7933 31.3983 27.1911 31.4434 26.5938C31.4732 26.1938 31.407 25.7852 31.2266 25.3574C30.9196 24.631 30.9332 23.8785 31.2617 23.1602C31.4274 22.798 31.4426 22.4685 31.3262 22.1289C31.0893 21.4403 31.0933 20.7369 31.332 20.0488C31.4544 19.6966 31.4418 19.3527 31.291 18.9883C31.0433 18.3891 30.8973 17.7778 30.8574 17.1602C30.8164 16.5224 30.9111 15.8877 31.1328 15.2676C31.3032 14.7903 31.4148 14.3177 31.4668 13.8496C31.5141 13.4222 31.4762 12.9922 31.3496 12.5547C31.1571 11.8917 31.1482 11.2152 31.332 10.5508C31.4569 10.0986 31.5062 9.6525 31.4785 9.20898C31.4455 8.68161 31.4094 8.15433 31.373 7.62695C31.3376 7.11276 31.2889 6.59457 31.2207 6.08008C31.1459 5.51532 31.1084 4.94958 31.1152 4.38672C31.1198 3.98607 31.0322 3.64142 30.8574 3.33789C30.6555 2.98745 30.4184 2.71314 30.1484 2.50586C29.932 2.33979 29.6586 2.24538 29.2988 2.23633C28.7647 2.22287 28.218 2.16652 27.6582 2.07812C27.1118 1.99175 26.563 1.89069 26.0176 1.76758C25.5391 1.65957 25.0623 1.60022 24.5879 1.59766C24.0645 1.59483 23.541 1.60004 23.0176 1.60938C22.5371 1.61795 22.0539 1.67612 21.5703 1.7793C20.9052 1.92129 20.2368 1.88021 19.584 1.66211C19.1532 1.51815 18.734 1.46847 18.3184 1.51562C18.12 1.53823 17.9562 1.56423 17.8262 1.58594Z" fill="#434343"/>
<path d="M7.54839 9.06445L1 17.0161L7.54839 24.4999L10.8226 21.6935L8.95161 19.3548H20.6452V14.6774H8.95161L10.8226 12.3386L7.54839 9.06445Z" fill="#434343" fill-opacity="0.5"/>
<path d="M7.33398 8.64258C7.66337 8.63991 7.97318 8.75504 8.23047 8.89453C8.50131 9.04139 8.76843 9.19255 9.0332 9.3457C9.43942 9.5807 9.7403 9.92941 9.92383 10.3594C9.98262 10.496 10.0643 10.5799 10.1758 10.6406C10.4783 10.8055 10.7621 10.9926 11.0254 11.2031C11.2544 11.3863 11.4507 11.6562 11.4941 12.0117C11.5352 12.3494 11.425 12.6504 11.2891 12.8789C11.0686 13.2491 10.7817 13.5602 10.4336 13.7988C10.335 13.8667 10.2649 13.9497 10.2109 14.0508C10.3361 14.0531 10.4608 14.0649 10.5859 14.0625C10.7846 14.0587 10.9916 14.0207 11.207 13.9395C11.6124 13.7869 12.0349 13.74 12.4609 13.8105C12.7348 13.8563 13.0137 13.8946 13.2871 13.9219C13.4963 13.9425 13.7067 13.9322 13.9199 13.8867C14.2422 13.8175 14.5683 13.7648 14.8926 13.7402C15.2699 13.7117 15.6484 13.7522 16.0176 13.8516C16.1932 13.8984 16.3622 13.9047 16.5332 13.8691C16.9755 13.776 17.4204 13.8195 17.8398 13.9863C18.0443 14.0673 18.2362 14.0992 18.4199 14.0977C18.6061 14.0957 18.8038 14.0599 19.0117 13.9746C19.5098 13.7694 20.0293 13.795 20.5059 14.0332C20.87 14.2152 21.3531 14.5776 21.3555 15.2109C21.3556 15.3283 21.3773 15.513 21.4375 15.7734C21.5133 16.1013 21.5616 16.433 21.584 16.7637C21.6127 17.1916 21.5263 17.6077 21.3438 18C21.2434 18.2158 21.188 18.4185 21.1738 18.6094C21.161 18.7804 21.1409 18.9578 21.0918 19.1191C21.0498 19.2568 20.9479 19.518 20.6934 19.6934C20.5565 19.7874 20.3213 19.913 20.043 20.0508C19.5652 20.2872 19.0458 20.3106 18.5488 20.1035C18.3503 20.0208 18.1655 19.9919 17.9922 19.998C17.7457 20.0069 17.4971 20.0346 17.248 20.0859C16.9024 20.1572 16.5543 20.1903 16.2051 20.1797C15.9619 20.1722 15.7174 20.183 15.4727 20.2207C15.1164 20.2756 14.7576 20.2859 14.4004 20.2441C14.1737 20.2177 13.9478 20.2193 13.7207 20.25C13.3435 20.3012 12.9636 20.2833 12.5898 20.2031C12.3808 20.1583 12.1741 20.1484 11.9688 20.1738C11.5588 20.2245 11.1543 20.1767 10.7617 20.0391C10.626 19.9914 10.5011 19.9901 10.3691 20.0332H10.3574C10.3827 20.0835 10.4079 20.1356 10.4336 20.1855C10.5327 20.378 10.6585 20.5476 10.8086 20.6953C11.1369 21.0188 11.3735 21.4735 11.2656 22.0137C11.1842 22.4175 10.9616 22.7596 10.6797 23.0391C10.445 23.2715 10.1925 23.4851 9.92383 23.6777C9.68492 23.849 9.44462 24.0193 9.20312 24.1875C8.9146 24.3885 8.60098 24.5582 8.26562 24.6914C8.08851 24.7617 7.87739 24.8238 7.66211 24.832C7.44122 24.8405 7.11196 24.7864 6.86523 24.5039C6.79961 24.4289 6.66663 24.2946 6.46094 24.0938C6.26973 23.9072 6.06723 23.7259 5.85742 23.5547C5.56775 23.3179 5.32394 23.0393 5.125 22.7227C5.0255 22.5642 4.8958 22.4294 4.73242 22.3184C4.4625 22.1353 4.20351 21.9401 3.95898 21.7324C3.71657 21.5266 3.48613 21.3098 3.26758 21.082C3.00178 20.805 2.78942 20.4843 2.63477 20.127C2.55715 19.9478 2.4508 19.8071 2.31836 19.6934C2.0014 19.4209 1.76631 19.0813 1.60938 18.6914C1.52688 18.4859 1.41771 18.313 1.28711 18.1699C1.10741 17.9737 0.955423 17.8319 0.835938 17.7363C0.807892 17.7139 0.787557 17.6956 0.771484 17.6836C0.682115 17.6508 0.586098 17.6081 0.501953 17.5254C0.313446 17.3402 0.285313 17.1224 0.279297 17.0508C0.266934 16.9022 0.306157 16.7839 0.308594 16.7754C0.318649 16.7405 0.332055 16.7139 0.337891 16.6992C0.35849 16.6476 0.381607 16.593 0.396484 16.5645C0.434093 16.4924 0.493403 16.3881 0.566406 16.2598L0.695312 16.3301C0.66874 16.3436 0.64347 16.3455 0.630859 16.3535C0.588693 16.3804 0.553002 16.4099 0.537109 16.4238C0.586379 16.3807 0.645005 16.3562 0.695312 16.3301L0.566406 16.2598C0.786277 15.8738 1.10635 15.5735 1.49805 15.3633C1.64725 15.2827 1.73983 15.1843 1.80273 15.0645C1.93211 14.816 2.05663 14.5579 2.17188 14.2969C2.3403 13.916 2.5883 13.587 2.91016 13.3242C3.16025 13.1201 3.4248 12.9297 3.70117 12.75C3.81545 12.6757 3.89235 12.5821 3.94141 12.4453C4.09222 12.0214 4.34914 11.6612 4.70898 11.3906C4.92811 11.2261 5.13902 11.0502 5.33594 10.8691C5.41576 10.795 5.4828 10.6866 5.51758 10.5C5.59867 10.0651 5.77319 9.66748 6.05664 9.33398C6.29709 9.05186 6.61009 8.79418 7 8.68945L7.33398 8.64258ZM7.19922 10.3066C7.1083 10.4139 7.03408 10.5612 6.99414 10.7754C6.90781 11.2386 6.69998 11.6544 6.34961 11.9766C6.11556 12.1917 5.86927 12.3981 5.61133 12.5918C5.49558 12.679 5.40912 12.7881 5.35352 12.9434C5.19591 13.3864 4.9162 13.753 4.52148 14.0098C4.28861 14.1611 4.06687 14.3208 3.85938 14.4902C3.72366 14.6011 3.61777 14.7368 3.54297 14.9062C3.41517 15.1956 3.27697 15.479 3.13281 15.7559C2.92238 16.1594 2.60705 16.4726 2.20703 16.6875C2.13831 16.7244 2.07526 16.7607 2.02539 16.8047C2.14166 16.9141 2.27429 17.025 2.39453 17.1562C2.6534 17.4395 2.85245 17.7668 2.99805 18.1289C3.06992 18.3079 3.1705 18.4481 3.29688 18.5566C3.60811 18.824 3.84754 19.1507 4.01172 19.5293C4.09886 19.7307 4.20978 19.9031 4.3457 20.0449C4.52883 20.2358 4.72742 20.4164 4.93164 20.5898C5.13306 20.7608 5.34537 20.9235 5.57031 21.0762C5.90232 21.3014 6.17813 21.5875 6.39062 21.9258C6.50309 22.1049 6.64229 22.2603 6.80664 22.3945C7.05094 22.5939 7.28605 22.8032 7.50977 23.0215C7.59881 23.1084 7.6779 23.1943 7.75 23.2676C7.96593 23.1784 8.16477 23.0802 8.3418 22.957C8.57818 22.7924 8.81695 22.6266 9.05078 22.459C9.25488 22.3126 9.44686 22.1491 9.625 21.9727C9.71104 21.8872 9.73872 21.8139 9.75977 21.7676L9.75391 21.7617C9.48903 21.5007 9.26849 21.2033 9.09766 20.8711C8.95717 20.5977 8.82248 20.3152 8.69336 20.0332C8.65294 19.9446 8.61518 19.8433 8.58789 19.7402C8.56449 19.6516 8.52386 19.4795 8.56445 19.2832C8.61731 19.0284 8.80412 18.7691 9.12109 18.668C9.35571 18.5939 9.5623 18.6414 9.6543 18.668C9.6269 18.6603 9.6271 18.6663 9.67188 18.6621C9.71877 18.6575 9.79768 18.6448 9.90625 18.6094C10.3534 18.4636 10.8105 18.4715 11.2539 18.627C11.4405 18.6925 11.618 18.7065 11.7871 18.6855C12.1609 18.6395 12.5362 18.6588 12.9062 18.7383C13.1118 18.7822 13.3136 18.789 13.5156 18.7617C13.8678 18.7139 14.2236 18.7088 14.5762 18.75C14.7984 18.7759 15.0209 18.7727 15.2441 18.7383C15.5787 18.6868 15.9159 18.6694 16.252 18.6797C16.4809 18.6866 16.7108 18.663 16.9434 18.6152C17.2732 18.5472 17.6071 18.5099 17.9395 18.498C18.3454 18.4836 18.7423 18.5624 19.123 18.7207C19.2061 18.7553 19.2727 18.7537 19.375 18.7031C19.4977 18.6424 19.5951 18.5867 19.6738 18.5449C19.6752 18.5303 19.6784 18.5149 19.6797 18.498C19.7086 18.1094 19.8152 17.7309 19.9844 17.3672C20.0714 17.1802 20.1001 17.0147 20.0898 16.8633C20.073 16.6148 20.0364 16.3645 19.9785 16.1133C19.9203 15.8614 19.8821 15.6173 19.8672 15.3926C19.8576 15.3873 19.844 15.381 19.832 15.375C19.7305 15.3248 19.6667 15.3243 19.5859 15.3574C19.2149 15.5103 18.8305 15.5936 18.4375 15.5977C18.0432 15.6017 17.6565 15.5292 17.2832 15.3809C17.1226 15.317 16.9815 15.305 16.8438 15.334C16.4368 15.4195 16.0272 15.4071 15.625 15.2988C15.4153 15.2424 15.2114 15.2253 15.0098 15.2402C14.7543 15.2596 14.4937 15.2963 14.2363 15.3516C13.8721 15.4296 13.5031 15.4527 13.1348 15.416C12.8285 15.3855 12.5207 15.344 12.2148 15.293C12.063 15.2679 11.907 15.2806 11.7344 15.3457C11.3703 15.4829 10.996 15.5552 10.6152 15.5625C10.3049 15.5684 9.99383 15.5644 9.68359 15.5449C9.49245 15.5329 9.23742 15.4932 9.00977 15.3516C8.72821 15.1757 8.54604 14.8733 8.55273 14.5137L8.61719 14.0566C8.65706 13.9001 8.70947 13.7415 8.76953 13.5879C8.93483 13.1653 9.21555 12.8191 9.58984 12.5625C9.70275 12.4849 9.79827 12.3763 9.89453 12.2461C9.75482 12.1467 9.61188 12.0444 9.45508 11.959C9.03716 11.7308 8.73317 11.3814 8.54688 10.9453C8.48502 10.8004 8.39662 10.7121 8.2832 10.6465C8.02986 10.4999 7.77506 10.3536 7.51562 10.2129C7.44676 10.1756 7.39776 10.1567 7.36914 10.1484C7.34069 10.1663 7.28169 10.2099 7.19922 10.3066ZM1.06445 17.7305C1.07724 17.7301 1.09088 17.72 1.10547 17.7188C1.07239 17.722 1.03848 17.7203 1 17.7188C1.02042 17.7201 1.04137 17.7311 1.06445 17.7305ZM1.2168 17.7012C1.25913 17.6908 1.2994 17.67 1.3457 17.6484C1.31002 17.6654 1.2697 17.6873 1.2168 17.7012Z" fill="#434343"/>
</svg>
