<svg width="77" height="97" viewBox="0 0 77 97" fill="none" xmlns="http://www.w3.org/2000/svg">
<path d="M9.94512 17.4359C23.9332 7.5619 32.0189 23.9172 34.5471 34.0868C34.6831 34.634 34.5664 35.2093 34.2428 35.671L30.5266 40.9717C29.9744 41.7593 30.0612 42.8285 30.7331 43.5168L34.5487 47.4254C35.3254 48.2209 35.3041 49.4972 34.5013 50.2665L31.0075 53.6146C30.2143 54.3747 30.1827 55.6323 30.9367 56.4313L34.2055 59.895C34.5558 60.2662 34.751 60.7573 34.751 61.2677V72.894C34.751 74.6525 32.6448 75.555 31.3716 74.3422L10.0631 54.0454C9.98457 53.9706 9.91452 53.8927 9.84956 53.8059C3.86118 45.8045 -4.36797 27.5393 9.94512 17.4359Z" fill="#FF3C1A" fill-opacity="0.4"/>
<path d="M33.9253 31.2618L32.4604 31.5843L33.9253 31.2618ZM33.2599 29.4671L31.9384 30.1768L33.2599 29.4671ZM32.3437 27.7611L31.0222 28.4708L32.3437 27.7611ZM31.3415 26.1211L30.1077 26.9742L31.3415 26.1211ZM30.7973 25.3341L32.0311 24.481L30.7973 25.3341ZM30.2531 24.5471L29.0194 25.4002L30.2531 24.5471ZM28.5543 21.1216L29.9284 20.5202L28.5543 21.1216ZM27.4059 19.6738L26.5103 20.8771L27.4059 19.6738ZM26.6424 19.1056L27.5379 17.9022L26.6424 19.1056ZM25.8788 18.5373L26.7744 17.334L25.8788 18.5373ZM24.5278 17.1082L23.2889 17.9538L24.5278 17.1082ZM23.9404 16.2474L22.7014 17.0929L23.9404 16.2474ZM23.3529 15.3865L24.5919 14.541L23.3529 15.3865ZM19.71 14.7748L19.588 13.2798L19.71 14.7748ZM17.7828 14.9792L17.5844 13.4923L17.7828 14.9792ZM15.9654 15.2217L15.767 13.7349L15.9654 15.2217ZM14.2617 15.812L13.4995 14.52L14.2617 15.812ZM12.6716 16.7499L13.4338 18.0419L12.6716 16.7499ZM10.2033 18.0971L9.50619 16.7689L10.2033 18.0971ZM7.91198 19.679L6.7849 18.6892L7.91198 19.679ZM4.86309 23.2723L6.03086 24.2137L4.86309 23.2723ZM4.26556 24.0135L3.09779 23.072L4.26556 24.0135ZM3.36725 25.6634L1.94322 25.1921L3.36725 25.6634ZM2.02573 33.1159L3.42188 32.5675L2.02573 33.1159ZM3.03132 36.8899L1.5375 36.7539L3.03132 36.8899ZM2.94158 37.8756L1.44776 37.7396L2.94158 37.8756ZM3.84084 41.5008L2.58448 42.3203L3.84084 41.5008ZM5.02014 44.1527L3.5277 44.303L5.02014 44.1527ZM5.92964 47.9106L7.10331 46.9765L5.92964 47.9106ZM7.14522 49.438L5.97156 50.3721L7.14522 49.438ZM8.29661 50.986L7.06378 51.8404L8.29661 50.986ZM9.3838 52.5546L10.6166 51.7001L9.3838 52.5546ZM10.6014 53.9969L9.55349 55.0702L10.6014 53.9969ZM11.9494 55.3131L12.9973 54.2399L11.9494 55.3131ZM13.1311 56.8301L11.8399 57.5934L13.1311 56.8301ZM13.6389 57.6889L14.9301 56.9256L13.6389 57.6889ZM14.1466 58.5478L12.8553 59.3111L14.1466 58.5478ZM15.5774 59.8294L16.2019 58.4656L15.5774 59.8294ZM16.5006 60.2521L15.8761 61.6159L16.5006 60.2521ZM17.4238 60.6748L16.7992 62.0387L17.4238 60.6748ZM18.8237 61.9889L17.501 62.6964L18.8237 61.9889ZM19.3004 62.8803L20.6231 62.1728L19.3004 62.8803ZM19.7772 63.7717L18.4545 64.4791L19.7772 63.7717ZM21.0297 65.2405L21.9254 64.0372L21.0297 65.2405ZM22.5813 66.3953L23.4769 65.1921L22.5813 66.3953ZM24.8618 68.1769L25.799 67.0057L24.8618 68.1769ZM25.6141 68.7789L24.6769 69.9501L25.6141 68.7789ZM27.0512 70.054L28.1026 68.9841L27.0512 70.054ZM27.736 70.727L26.6846 71.7968L27.736 70.727ZM28.4208 71.3999L27.3694 72.4698L28.4208 71.3999ZM29.7447 72.8478L28.5876 73.8023L29.7447 72.8478ZM30.3839 73.6228L29.2267 74.5772L30.3839 73.6228ZM31.023 74.3977L29.8659 75.3521L31.023 74.3977ZM32.4716 74.6555L31.6642 73.3914L32.4716 74.6555ZM33.2811 74.1385L32.4736 72.8744L33.2811 74.1385ZM34.0905 73.6214L34.898 74.8856L34.0905 73.6214ZM34.7325 72.1407L33.2547 72.3976L34.7325 72.1407ZM34.565 71.1771L33.0872 71.434L34.565 71.1771ZM34.3975 70.2134L35.8754 69.9566L34.3975 70.2134ZM34.2223 68.2898L32.7224 68.3018L34.2223 68.2898ZM34.207 66.3698L35.7069 66.3578L34.207 66.3698ZM34.2809 64.4498L32.7863 64.3227L34.2809 64.4498ZM34.4441 62.5298L35.9387 62.6568L34.4441 62.5298ZM34.0841 60.7962L35.3869 60.0526L34.0841 60.7962ZM33.6426 60.0225L32.3398 60.7661L33.6426 60.0225ZM33.201 59.2489L31.8983 59.9924L33.201 59.2489ZM32.0466 57.7502L33.1162 56.6986L32.0466 57.7502ZM31.3338 57.0252L30.2642 58.0769L31.3338 57.0252ZM30.6209 56.3002L29.5513 57.3518L30.6209 56.3002ZM30.6373 54.9031L31.6538 56.0062L30.6373 54.9031ZM32.096 53.559L31.0795 52.4559L32.096 53.559ZM33.3052 52.042L34.6095 52.7828L33.3052 52.042ZM33.7851 51.1971L35.0894 51.9379L33.7851 51.1971ZM34.2649 50.3522L32.9606 49.6114L34.2649 50.3522ZM34.2792 48.8706L33.0684 49.7561L34.2792 48.8706ZM33.8136 48.2339L35.0244 47.3485L33.8136 48.2339ZM33.348 47.5973L32.1372 48.4827L33.348 47.5973ZM32.4386 46.0522L33.7863 45.3938L32.4386 46.0522ZM31.551 44.2355L30.2032 44.894L31.551 44.2355ZM31.0342 42.5004L32.5284 42.3684L31.0342 42.5004ZM30.9611 41.6736L29.467 41.8055L30.9611 41.6736ZM30.8881 40.8468L32.3823 40.7148L30.8881 40.8468ZM32.1752 38.6286L33.2478 39.6772L32.1752 38.6286ZM32.8553 37.933L33.9279 38.9816L32.8553 37.933ZM33.6259 36.4901L35.115 36.6707L33.6259 36.4901ZM33.8072 34.9955L32.3181 34.815L33.8072 34.9955ZM34.0601 34.2079L34.422 35.6636L34.0601 34.2079ZM34.3848 34.1272L34.0229 32.6715L34.3848 34.1272ZM34.3398 33.1452L35.8048 32.8227L34.3398 33.1452ZM34.1326 32.2035L35.5975 31.8811L35.3902 30.9394L33.9253 31.2618L32.4604 31.5843L32.6676 32.5259L34.1326 32.2035ZM33.9253 31.2618L35.3902 30.9394C35.2222 30.176 34.952 29.4475 34.5814 28.7575L33.2599 29.4671L31.9384 30.1768C32.1787 30.6242 32.352 31.0921 32.4604 31.5843L33.9253 31.2618ZM33.2599 29.4671L34.5814 28.7575L34.1233 27.9044L32.8018 28.6141L31.4803 29.3238L31.9384 30.1768L33.2599 29.4671ZM32.8018 28.6141L34.1233 27.9044L33.6652 27.0514L32.3437 27.7611L31.0222 28.4708L31.4803 29.3238L32.8018 28.6141ZM32.3437 27.7611L33.6652 27.0514C33.3336 26.4339 32.9703 25.8394 32.5752 25.268L31.3415 26.1211L30.1077 26.9742C30.4382 27.4522 30.7431 27.951 31.0222 28.4708L32.3437 27.7611ZM31.3415 26.1211L32.5752 25.268L32.0311 24.481L30.7973 25.3341L29.5635 26.1872L30.1077 26.9742L31.3415 26.1211ZM30.7973 25.3341L32.0311 24.481L31.4869 23.694L30.2531 24.5471L29.0194 25.4002L29.5635 26.1872L30.7973 25.3341ZM30.2531 24.5471L31.4869 23.694C31.1791 23.2489 30.9164 22.7777 30.6982 22.2793L29.3241 22.8806L27.9499 23.482C28.245 24.1563 28.6016 24.7961 29.0194 25.4002L30.2531 24.5471ZM29.3241 22.8806L30.6982 22.2793L30.3133 21.3997L28.9392 22.0011L27.565 22.6025L27.9499 23.482L29.3241 22.8806ZM28.9392 22.0011L30.3133 21.3997L29.9284 20.5202L28.5543 21.1216L27.1801 21.7229L27.565 22.6025L28.9392 22.0011ZM28.5543 21.1216L29.9284 20.5202C29.5683 19.6972 29.0215 19.0064 28.3014 18.4705L27.4059 19.6738L26.5103 20.8771C26.8083 21.0989 27.0271 21.3732 27.1801 21.7229L28.5543 21.1216ZM27.4059 19.6738L28.3014 18.4705L27.5379 17.9022L26.6424 19.1056L25.7468 20.3089L26.5103 20.8771L27.4059 19.6738ZM26.6424 19.1056L27.5379 17.9022L26.7744 17.334L25.8788 18.5373L24.9833 19.7406L25.7468 20.3089L26.6424 19.1056ZM25.8788 18.5373L26.7744 17.334C26.411 17.0636 26.0735 16.7121 25.7668 16.2627L24.5278 17.1082L23.2889 17.9538C23.7655 18.6521 24.3287 19.2534 24.9833 19.7406L25.8788 18.5373ZM24.5278 17.1082L25.7668 16.2627L25.1793 15.4018L23.9404 16.2474L22.7014 17.0929L23.2889 17.9538L24.5278 17.1082ZM23.9404 16.2474L25.1793 15.4018L24.5919 14.541L23.3529 15.3865L22.1139 16.2321L22.7014 17.0929L23.9404 16.2474ZM23.3529 15.3865L24.5919 14.541C23.9038 13.5327 22.8545 13.0134 21.625 13.1137L21.7469 14.6087L21.8688 16.1038C21.9279 16.0989 21.9635 16.1026 21.9808 16.1055C21.997 16.1082 22.0027 16.1111 22.0038 16.1116C22.005 16.1122 22.0133 16.1162 22.0295 16.1307C22.0465 16.146 22.076 16.1765 22.1139 16.2321L23.3529 15.3865ZM21.7469 14.6087L21.625 13.1137L20.6065 13.1967L20.7284 14.6918L20.8504 16.1868L21.8688 16.1038L21.7469 14.6087ZM20.7284 14.6918L20.6065 13.1967L19.588 13.2798L19.71 14.7748L19.8319 16.2699L20.8504 16.1868L20.7284 14.6918ZM19.71 14.7748L19.588 13.2798C18.8863 13.337 18.2183 13.4077 17.5844 13.4923L17.7828 14.9792L17.9812 16.466C18.5589 16.3889 19.1756 16.3234 19.8319 16.2699L19.71 14.7748ZM17.7828 14.9792L17.5844 13.4923L16.6757 13.6136L16.8741 15.1004L17.0725 16.5872L17.9812 16.466L17.7828 14.9792ZM16.8741 15.1004L16.6757 13.6136L15.767 13.7349L15.9654 15.2217L16.1638 16.7085L17.0725 16.5872L16.8741 15.1004ZM15.9654 15.2217L15.767 13.7349C14.9607 13.8425 14.2013 14.106 13.4995 14.52L14.2617 15.812L15.0238 17.1039C15.3821 16.8926 15.7585 16.7626 16.1638 16.7085L15.9654 15.2217ZM14.2617 15.812L13.4995 14.52L12.7045 14.989L13.4667 16.2809L14.2288 17.5729L15.0238 17.1039L14.2617 15.812ZM13.4667 16.2809L12.7045 14.989L11.9095 15.458L12.6716 16.7499L13.4338 18.0419L14.2288 17.5729L13.4667 16.2809ZM12.6716 16.7499L11.9095 15.458C11.4014 15.7577 10.8792 16.0483 10.3429 16.3298L11.0399 17.658L11.737 18.9862C12.3163 18.6822 12.8819 18.3674 13.4338 18.0419L12.6716 16.7499ZM11.0399 17.658L10.3429 16.3298L9.50619 16.7689L10.2033 18.0971L10.9003 19.4253L11.737 18.9862L11.0399 17.658ZM10.2033 18.0971L9.50619 16.7689L8.66951 17.208L9.36659 18.5362L10.0637 19.8644L10.9003 19.4253L10.2033 18.0971ZM9.36659 18.5362L8.66951 17.208C7.95037 17.5855 7.31935 18.0806 6.7849 18.6892L7.91198 19.679L9.03905 20.6688C9.32852 20.3392 9.66724 20.0725 10.0637 19.8644L9.36659 18.5362ZM7.91198 19.679L6.7849 18.6892L6.16697 19.3928L7.29404 20.3826L8.42112 21.3724L9.03905 20.6688L7.91198 19.679ZM7.29404 20.3826L6.16697 19.3928L5.54903 20.0964L6.67611 21.0863L7.80318 22.0761L8.42112 21.3724L7.29404 20.3826ZM6.67611 21.0863L5.54903 20.0964C5.12294 20.5816 4.70423 21.0794 4.29286 21.5896L5.46063 22.5311L6.6284 23.4725C7.01376 22.9945 7.40536 22.529 7.80318 22.0761L6.67611 21.0863ZM5.46063 22.5311L4.29286 21.5896L3.69532 22.3308L4.86309 23.2723L6.03086 24.2137L6.6284 23.4725L5.46063 22.5311ZM4.86309 23.2723L3.69532 22.3308L3.09779 23.072L4.26556 24.0135L5.43333 24.9549L6.03086 24.2137L4.86309 23.2723ZM4.26556 24.0135L3.09779 23.072C2.58588 23.707 2.19995 24.4164 1.94322 25.1921L3.36725 25.6634L4.79129 26.1347C4.93557 25.6987 5.14852 25.3082 5.43333 24.9549L4.26556 24.0135ZM3.36725 25.6634L1.94322 25.1921L1.64246 26.1008L3.06649 26.5721L4.49052 27.0434L4.79129 26.1347L3.36725 25.6634ZM3.06649 26.5721L1.64246 26.1008L1.3417 27.0096L2.76573 27.4809L4.18976 27.9522L4.49052 27.0434L3.06649 26.5721ZM2.76573 27.4809L1.3417 27.0096C1.12353 27.6687 0.941839 28.3416 0.796448 29.0279L2.26388 29.3388L3.73132 29.6497C3.85404 29.0704 4.00691 28.5046 4.18976 27.9522L2.76573 27.4809ZM2.26388 29.3388L0.796448 29.0279L0.595362 29.9772L2.0628 30.288L3.53023 30.5989L3.73132 29.6497L2.26388 29.3388ZM2.0628 30.288L0.595362 29.9772L0.394277 30.9264L1.86171 31.2372L3.32914 31.5481L3.53023 30.5989L2.0628 30.288ZM1.86171 31.2372L0.394277 30.9264C0.197516 31.8552 0.28215 32.7799 0.629588 33.6643L2.02573 33.1159L3.42188 32.5675C3.28251 32.2127 3.25779 31.8849 3.32914 31.5481L1.86171 31.2372ZM2.02573 33.1159L0.629588 33.6643L0.994696 34.5938L2.39084 34.0453L3.78698 33.4969L3.42188 32.5675L2.02573 33.1159ZM2.39084 34.0453L0.994696 34.5938L1.3598 35.5232L2.75595 34.9748L4.15209 34.4264L3.78698 33.4969L2.39084 34.0453ZM2.75595 34.9748L1.3598 35.5232C1.51859 35.9275 1.57595 36.3316 1.5375 36.7539L3.03132 36.8899L4.52514 37.0259C4.60634 36.134 4.48011 35.2614 4.15209 34.4264L2.75595 34.9748ZM3.03132 36.8899L1.5375 36.7539L1.44776 37.7396L2.94158 37.8756L4.4354 38.0116L4.52514 37.0259L3.03132 36.8899ZM2.94158 37.8756L1.44776 37.7396L1.35802 38.7253L2.85184 38.8613L4.34566 38.9973L4.4354 38.0116L2.94158 37.8756ZM2.85184 38.8613L1.35802 38.7253C1.26768 39.7176 1.50062 40.6586 2.04512 41.4934L3.30147 40.6739L4.55783 39.8544C4.38316 39.5866 4.31636 39.3192 4.34566 38.9973L2.85184 38.8613ZM3.30147 40.6739L2.04512 41.4934L2.58448 42.3203L3.84084 41.5008L5.09719 40.6813L4.55783 39.8544L3.30147 40.6739ZM3.84084 41.5008L2.58448 42.3203L3.12385 43.1472L4.38021 42.3277L5.63656 41.5082L5.09719 40.6813L3.84084 41.5008ZM4.38021 42.3277L3.12385 43.1472C3.35018 43.4941 3.4843 43.8723 3.5277 44.303L5.02014 44.1527L6.51259 44.0023C6.42189 43.1022 6.12939 42.2637 5.63656 41.5082L4.38021 42.3277ZM5.02014 44.1527L3.5277 44.303L3.62827 45.3011L5.12071 45.1508L6.61316 45.0004L6.51259 44.0023L5.02014 44.1527ZM5.12071 45.1508L3.62827 45.3011L3.72884 46.2992L5.22128 46.1488L6.71373 45.9985L6.61316 45.0004L5.12071 45.1508ZM5.22128 46.1488L3.72884 46.2992C3.8239 47.2426 4.16633 48.1038 4.75598 48.8447L5.92964 47.9106L7.10331 46.9765C6.88257 46.6992 6.75276 46.3859 6.71373 45.9985L5.22128 46.1488ZM5.92964 47.9106L4.75598 48.8447L5.36377 49.6084L6.53743 48.6743L7.7111 47.7402L7.10331 46.9765L5.92964 47.9106ZM6.53743 48.6743L5.36377 49.6084L5.97156 50.3721L7.14522 49.438L8.31889 48.5039L7.7111 47.7402L6.53743 48.6743ZM7.14522 49.438L5.97156 50.3721C6.35663 50.8559 6.72064 51.3454 7.06378 51.8404L8.29661 50.986L9.52944 50.1315C9.14778 49.5808 8.74421 49.0383 8.31889 48.5039L7.14522 49.438ZM8.29661 50.986L7.06378 51.8404L7.60737 52.6247L8.84021 51.7703L10.073 50.9158L9.52944 50.1315L8.29661 50.986ZM8.84021 51.7703L7.60737 52.6247L8.15097 53.409L9.3838 52.5546L10.6166 51.7001L10.073 50.9158L8.84021 51.7703ZM9.3838 52.5546L8.15097 53.409C8.56717 54.0095 9.03479 54.5638 9.55349 55.0702L10.6014 53.9969L11.6493 52.9237C11.2693 52.5527 10.9252 52.1453 10.6166 51.7001L9.3838 52.5546ZM10.6014 53.9969L9.55349 55.0702L10.2275 55.7283L11.2754 54.655L12.3233 53.5818L11.6493 52.9237L10.6014 53.9969ZM11.2754 54.655L10.2275 55.7283L10.9015 56.3864L11.9494 55.3131L12.9973 54.2399L12.3233 53.5818L11.2754 54.655ZM11.9494 55.3131L10.9015 56.3864C11.251 56.7277 11.5646 57.1277 11.8399 57.5934L13.1311 56.8301L14.4224 56.0667C14.0207 55.3873 13.5465 54.776 12.9973 54.2399L11.9494 55.3131ZM13.1311 56.8301L11.8399 57.5934L12.3476 58.4523L13.6389 57.6889L14.9301 56.9256L14.4224 56.0667L13.1311 56.8301ZM13.6389 57.6889L12.3476 58.4523L12.8553 59.3111L14.1466 58.5478L15.4378 57.7845L14.9301 56.9256L13.6389 57.6889ZM14.1466 58.5478L12.8553 59.3111C13.3525 60.1521 14.0644 60.7864 14.9529 61.1932L15.5774 59.8294L16.2019 58.4656C15.8596 58.3088 15.6176 58.0886 15.4378 57.7845L14.1466 58.5478ZM15.5774 59.8294L14.9529 61.1932L15.8761 61.6159L16.5006 60.2521L17.1251 58.8883L16.2019 58.4656L15.5774 59.8294ZM16.5006 60.2521L15.8761 61.6159L16.7992 62.0387L17.4238 60.6748L18.0483 59.311L17.1251 58.8883L16.5006 60.2521ZM17.4238 60.6748L16.7992 62.0387C17.1179 62.1846 17.3386 62.3928 17.501 62.6964L18.8237 61.9889L20.1464 61.2815C19.6731 60.3966 18.9605 59.7288 18.0483 59.311L17.4238 60.6748ZM18.8237 61.9889L17.501 62.6964L17.9778 63.5878L19.3004 62.8803L20.6231 62.1728L20.1464 61.2815L18.8237 61.9889ZM19.3004 62.8803L17.9778 63.5878L18.4545 64.4791L19.7772 63.7717L21.0999 63.0642L20.6231 62.1728L19.3004 62.8803ZM19.7772 63.7717L18.4545 64.4791C18.8717 65.259 19.4318 65.921 20.1341 66.4437L21.0297 65.2405L21.9254 64.0372C21.5933 63.79 21.3184 63.4728 21.0999 63.0642L19.7772 63.7717ZM21.0297 65.2405L20.1341 66.4437L20.9099 67.0212L21.8055 65.8179L22.7012 64.6146L21.9254 64.0372L21.0297 65.2405ZM21.8055 65.8179L20.9099 67.0212L21.6857 67.5986L22.5813 66.3953L23.4769 65.1921L22.7012 64.6146L21.8055 65.8179ZM22.5813 66.3953L21.6857 67.5986C22.1889 67.9732 22.6844 68.3556 23.1722 68.746L24.1094 67.5748L25.0466 66.4037C24.5314 65.9913 24.0081 65.5875 23.4769 65.1921L22.5813 66.3953ZM24.1094 67.5748L23.1722 68.746L23.9246 69.3481L24.8618 68.1769L25.799 67.0057L25.0466 66.4037L24.1094 67.5748ZM24.8618 68.1769L23.9246 69.3481L24.6769 69.9501L25.6141 68.7789L26.5513 67.6078L25.799 67.0057L24.8618 68.1769ZM25.6141 68.7789L24.6769 69.9501C25.1388 70.3198 25.5798 70.711 25.9998 71.1238L27.0512 70.054L28.1026 68.9841C27.6097 68.4997 27.0925 68.0409 26.5513 67.6078L25.6141 68.7789ZM27.0512 70.054L25.9998 71.1238L26.6846 71.7968L27.736 70.727L28.7874 69.6571L28.1026 68.9841L27.0512 70.054ZM27.736 70.727L26.6846 71.7968L27.3694 72.4698L28.4208 71.3999L29.4722 70.3301L28.7874 69.6571L27.736 70.727ZM28.4208 71.3999L27.3694 72.4698C27.787 72.8802 28.1932 73.3241 28.5876 73.8023L29.7447 72.8478L30.9019 71.8934C30.4441 71.3383 29.9676 70.817 29.4722 70.3301L28.4208 71.3999ZM29.7447 72.8478L28.5876 73.8023L29.2267 74.5772L30.3839 73.6228L31.5411 72.6683L30.9019 71.8934L29.7447 72.8478ZM30.3839 73.6228L29.2267 74.5772L29.8659 75.3521L31.023 74.3977L32.1802 73.4432L31.5411 72.6683L30.3839 73.6228ZM31.023 74.3977L29.8659 75.3521C30.2227 75.7847 30.74 76.2014 31.4419 76.3264C32.1562 76.4535 32.7916 76.2311 33.2791 75.9197L32.4716 74.6555L31.6642 73.3914C31.6121 73.4247 31.7362 73.3316 31.9677 73.3728C32.1867 73.4118 32.2495 73.5272 32.1802 73.4432L31.023 74.3977ZM32.4716 74.6555L33.2791 75.9197L34.0886 75.4026L33.2811 74.1385L32.4736 72.8744L31.6642 73.3914L32.4716 74.6555ZM33.2811 74.1385L34.0886 75.4026L34.898 74.8856L34.0905 73.6214L33.2831 72.3573L32.4736 72.8744L33.2811 74.1385ZM34.0905 73.6214L34.898 74.8856C35.3709 74.5835 35.785 74.1591 36.032 73.5894C36.278 73.0219 36.3056 72.4317 36.2104 71.8839L34.7325 72.1407L33.2547 72.3976C33.2633 72.4471 33.2607 72.4658 33.2612 72.4601C33.2615 72.4571 33.2625 72.4491 33.2655 72.4372C33.2685 72.4251 33.273 72.4111 33.2795 72.3961C33.286 72.3811 33.2935 72.3674 33.301 72.3558C33.3086 72.3442 33.315 72.3363 33.3187 72.3322C33.3263 72.3238 33.3192 72.3343 33.2831 72.3573L34.0905 73.6214ZM34.7325 72.1407L36.2104 71.8839L36.0429 70.9202L34.565 71.1771L33.0872 71.434L33.2547 72.3976L34.7325 72.1407ZM34.565 71.1771L36.0429 70.9202L35.8754 69.9566L34.3975 70.2134L32.9197 70.4703L33.0872 71.434L34.565 71.1771ZM34.3975 70.2134L35.8754 69.9566C35.7775 69.3935 35.7268 68.8342 35.7223 68.2778L34.2223 68.2898L32.7224 68.3018C32.7282 69.0254 32.7942 69.7485 32.9197 70.4703L34.3975 70.2134ZM34.2223 68.2898L35.7223 68.2778L35.7146 67.3178L34.2146 67.3298L32.7147 67.3418L32.7224 68.3018L34.2223 68.2898ZM34.2146 67.3298L35.7146 67.3178L35.7069 66.3578L34.207 66.3698L32.707 66.3818L32.7147 67.3418L34.2146 67.3298ZM34.207 66.3698L35.7069 66.3578C35.7021 65.7644 35.725 65.1708 35.7755 64.5769L34.2809 64.4498L32.7863 64.3227C32.7279 65.0088 32.7015 65.6952 32.707 66.3818L34.207 66.3698ZM34.2809 64.4498L35.7755 64.5769L35.8571 63.6169L34.3625 63.4898L32.8679 63.3627L32.7863 64.3227L34.2809 64.4498ZM34.3625 63.4898L35.8571 63.6169L35.9387 62.6568L34.4441 62.5298L32.9495 62.4027L32.8679 63.3627L34.3625 63.4898ZM34.4441 62.5298L35.9387 62.6568C36.0166 61.7399 35.8444 60.8542 35.3869 60.0526L34.0841 60.7962L32.7814 61.5397C32.9126 61.7696 32.9803 62.0397 32.9495 62.4027L34.4441 62.5298ZM34.0841 60.7962L35.3869 60.0526L34.9453 59.279L33.6426 60.0225L32.3398 60.7661L32.7814 61.5397L34.0841 60.7962ZM33.6426 60.0225L34.9453 59.279L34.5038 58.5054L33.201 59.2489L31.8983 59.9924L32.3398 60.7661L33.6426 60.0225ZM33.201 59.2489L34.5038 58.5054C34.137 57.8627 33.6696 57.2614 33.1162 56.6986L32.0466 57.7502L30.977 58.8019C31.3741 59.2058 31.6763 59.6035 31.8983 59.9924L33.201 59.2489ZM32.0466 57.7502L33.1162 56.6986L32.4033 55.9736L31.3338 57.0252L30.2642 58.0769L30.977 58.8019L32.0466 57.7502ZM31.3338 57.0252L32.4033 55.9736L31.6905 55.2485L30.6209 56.3002L29.5513 57.3518L30.2642 58.0769L31.3338 57.0252ZM30.6209 56.3002L31.6905 55.2485C31.6053 55.1619 31.7722 55.2881 31.7685 55.6061C31.7646 55.9346 31.5845 56.07 31.6538 56.0062L30.6373 54.9031L29.6209 53.8C29.2039 54.1842 28.778 54.7766 28.7687 55.5707C28.7594 56.3544 29.1613 56.9552 29.5513 57.3518L30.6209 56.3002ZM30.6373 54.9031L31.6538 56.0062L32.3831 55.3341L31.3667 54.231L30.3502 53.128L29.6209 53.8L30.6373 54.9031ZM31.3667 54.231L32.3831 55.3341L33.1125 54.6621L32.096 53.559L31.0795 52.4559L30.3502 53.128L31.3667 54.231ZM32.096 53.559L33.1125 54.6621C33.7104 54.1111 34.2114 53.4838 34.6095 52.7828L33.3052 52.042L32.0009 51.3012C31.7592 51.7268 31.454 52.1108 31.0795 52.4559L32.096 53.559ZM33.3052 52.042L34.6095 52.7828L35.0894 51.9379L33.7851 51.1971L32.4808 50.4563L32.0009 51.3012L33.3052 52.042ZM33.7851 51.1971L35.0894 51.9379L35.5692 51.093L34.2649 50.3522L32.9606 49.6114L32.4808 50.4563L33.7851 51.1971ZM34.2649 50.3522L35.5692 51.093C35.817 50.6567 36.0029 50.1428 36.0084 49.5738C36.0141 48.982 35.8229 48.4404 35.49 47.9852L34.2792 48.8706L33.0684 49.7561C33.0622 49.7476 33.0446 49.7205 33.0297 49.6757C33.0144 49.6299 33.0081 49.5838 33.0085 49.5449C33.0092 49.4698 33.0327 49.4844 32.9606 49.6114L34.2649 50.3522ZM34.2792 48.8706L35.49 47.9852L35.0244 47.3485L33.8136 48.2339L32.6028 49.1194L33.0684 49.7561L34.2792 48.8706ZM33.8136 48.2339L35.0244 47.3485L34.5588 46.7118L33.348 47.5973L32.1372 48.4827L32.6028 49.1194L33.8136 48.2339ZM33.348 47.5973L34.5588 46.7118C34.3128 46.3755 34.0536 45.9407 33.7863 45.3938L32.4386 46.0522L31.0908 46.7107C31.4153 47.3748 31.7624 47.9701 32.1372 48.4827L33.348 47.5973ZM32.4386 46.0522L33.7863 45.3938L33.3425 44.4854L31.9948 45.1439L30.647 45.8023L31.0908 46.7107L32.4386 46.0522ZM31.9948 45.1439L33.3425 44.4854L32.8987 43.577L31.551 44.2355L30.2032 44.894L30.647 45.8023L31.9948 45.1439ZM31.551 44.2355L32.8987 43.577C32.6665 43.1016 32.5578 42.7015 32.5284 42.3684L31.0342 42.5004L29.54 42.6323C29.6079 43.4016 29.8438 44.1583 30.2032 44.894L31.551 44.2355ZM31.0342 42.5004L32.5284 42.3684L32.4553 41.5416L30.9611 41.6736L29.467 41.8055L29.54 42.6323L31.0342 42.5004ZM30.9611 41.6736L32.4553 41.5416L32.3823 40.7148L30.8881 40.8468L29.3939 40.9787L29.467 41.8055L30.9611 41.6736ZM30.8881 40.8468L32.3823 40.7148C32.3789 40.6764 32.3622 40.5831 32.5678 40.3729L31.4952 39.3243L30.4225 38.2757C29.7213 38.993 29.3 39.9147 29.3939 40.9787L30.8881 40.8468ZM31.4952 39.3243L32.5678 40.3729L33.2478 39.6772L32.1752 38.6286L31.1026 37.5801L30.4225 38.2757L31.4952 39.3243ZM32.1752 38.6286L33.2478 39.6772L33.9279 38.9816L32.8553 37.933L31.7827 36.8844L31.1026 37.5801L32.1752 38.6286ZM32.8553 37.933L33.9279 38.9816C34.5439 38.3514 35.0047 37.5808 35.115 36.6707L33.6259 36.4901L32.1369 36.3095C32.1264 36.3957 32.0734 36.587 31.7827 36.8844L32.8553 37.933ZM33.6259 36.4901L35.115 36.6707L35.2057 35.9234L33.7166 35.7428L32.2275 35.5622L32.1369 36.3095L33.6259 36.4901ZM33.7166 35.7428L35.2057 35.9234L35.2963 35.1761L33.8072 34.9955L32.3181 34.815L32.2275 35.5622L33.7166 35.7428ZM33.8072 34.9955L35.2963 35.1761C35.3227 34.9582 35.3454 34.8791 35.3439 34.8836C35.3418 34.8902 35.3344 34.9125 35.3197 34.9456C35.3057 34.9773 35.2783 35.034 35.2324 35.103C35.1604 35.2113 34.9149 35.5411 34.422 35.6636L34.0601 34.2079L33.6982 32.7522C33.1513 32.8882 32.8547 33.2609 32.7345 33.4415C32.6026 33.6398 32.5293 33.8364 32.4876 33.9663C32.4018 34.2335 32.3521 34.5347 32.3181 34.815L33.8072 34.9955ZM34.0601 34.2079L34.422 35.6636L34.5844 35.6232L34.2225 34.1676L33.8606 32.7119L33.6982 32.7522L34.0601 34.2079ZM34.2225 34.1676L34.5844 35.6232L34.7467 35.5829L34.3848 34.1272L34.0229 32.6715L33.8606 32.7119L34.2225 34.1676ZM34.3848 34.1272L34.7467 35.5829C35.5884 35.3736 35.8369 34.6474 35.8934 34.4325C35.9628 34.1688 35.9593 33.9269 35.9531 33.7929C35.9396 33.4971 35.8783 33.1568 35.8048 32.8227L34.3398 33.1452L32.8749 33.4676C32.9051 33.6049 32.9259 33.7137 32.9393 33.7972C32.9459 33.8385 32.9502 33.8705 32.9529 33.8942C32.9543 33.9059 32.9551 33.9148 32.9556 33.9211C32.9561 33.9274 32.9563 33.9303 32.9563 33.9301C32.9563 33.93 32.9561 33.9255 32.9561 33.9172C32.9561 33.9091 32.9563 33.8951 32.9575 33.8763C32.9595 33.8444 32.9659 33.7689 32.9922 33.6689C33.0166 33.5764 33.0761 33.392 33.2247 33.1963C33.3896 32.9789 33.6559 32.7628 34.0229 32.6715L34.3848 34.1272ZM34.3398 33.1452L35.8048 32.8227L35.5975 31.8811L34.1326 32.2035L32.6676 32.5259L32.8749 33.4676L34.3398 33.1452Z" fill="#FF3C1A"/>
<path d="M69.653 19.9017C58.4834 8.21108 44.8293 23.7731 41.4261 33.4985C41.3924 33.5947 41.3534 33.6854 41.3061 33.7758L38.0222 40.0512C37.658 40.7473 37.735 41.5922 38.2191 42.211L41.6653 46.6154C42.2922 47.4166 42.2177 48.5608 41.4923 49.274L37.9865 52.7206C37.3345 53.3616 37.2003 54.3633 37.6605 55.1534L40.0048 59.1782C40.1881 59.4929 40.282 59.8518 40.2763 60.216L40.0404 75.3243C40.0125 77.1055 42.1519 78.0315 43.4316 76.7921L64.8186 56.0772C71.1067 48.9135 80.877 31.6492 69.653 19.9017Z" fill="#FF3C1A" fill-opacity="0.4"/>
<path d="M42.9411 31.0546L44.216 31.845L42.9411 31.0546ZM43.9952 29.4717L45.2155 30.3439L43.9952 29.4717ZM46.078 26.3094L47.4153 26.9888L46.078 26.3094ZM46.9491 24.5945L45.6118 23.9152L46.9491 24.5945ZM47.8874 22.8768L46.5922 22.12L47.8874 22.8768ZM48.8927 21.1562L50.1878 21.913L48.8927 21.1562ZM51.2233 19.4808L50.6124 18.1109L51.2233 19.4808ZM52.1373 19.0732L52.7482 20.4432L52.1373 19.0732ZM53.7958 17.9951L54.7997 19.1097L53.7958 17.9951ZM55.285 16.6539L54.2811 15.5394L55.285 16.6539ZM57.9959 15.5339L58.3301 16.9962L57.9959 15.5339ZM58.9791 15.3092L58.6449 13.8469L58.9791 15.3092ZM62.709 16.3645L63.3426 15.0049L62.709 16.3645ZM65.466 17.2622L65.8376 15.8089L65.466 17.2622ZM68.0546 18.3554L69.0145 17.2028L68.0546 18.3554ZM70.7843 21.0548L72.0782 20.296L70.7843 21.0548ZM71.2724 21.8872L72.5664 21.1284L71.2724 21.8872ZM71.7605 22.7196L70.4666 23.4783L71.7605 22.7196ZM72.5815 24.4378L73.9856 23.9102L72.5815 24.4378ZM73.2471 26.2094L71.843 26.737L73.2471 26.2094ZM73.9262 28.9409L75.4005 28.6643L73.9262 28.9409ZM74.3795 39.4156L75.7614 39.9991L74.3795 39.4156ZM73.9988 40.317L72.617 39.7335L73.9988 40.317ZM72.7501 44.0187L74.203 44.3916L72.7501 44.0187ZM71.4974 46.6007L72.4964 47.7197L71.4974 46.6007ZM70.732 47.284L69.7331 46.165L70.732 47.284ZM69.9667 47.9673L70.9656 49.0863L69.9667 47.9673ZM68.9398 49.6185L70.3879 50.0097L68.9398 49.6185ZM68.6784 50.5865L67.2303 50.1953L68.6784 50.5865ZM68.4169 51.5544L69.865 51.9456L68.4169 51.5544ZM67.5887 53.3106L68.8066 54.1862L67.5887 53.3106ZM66.4553 54.8871L67.6732 55.7627L66.4553 54.8871ZM65.0985 56.2588L64.2074 55.0522L65.0985 56.2588ZM64.3085 56.8423L65.1997 58.0489L64.3085 56.8423ZM63.5185 57.4258L62.6274 56.2192L63.5185 57.4258ZM62.0701 58.7093L63.1627 59.737L62.0701 58.7093ZM60.7532 60.1094L61.8459 61.1371L60.7532 60.1094ZM59.3137 61.3829L58.426 60.1738L59.3137 61.3829ZM58.5327 61.9563L59.4203 63.1655L58.5327 61.9563ZM57.7516 62.5298L56.8639 61.3206L57.7516 62.5298ZM56.351 63.8434L57.5012 64.8061L56.351 63.8434ZM55.1119 65.3238L53.9616 64.3611L55.1119 65.3238ZM53.6663 66.591L52.8596 65.3264L53.6663 66.591ZM52.8402 67.1179L53.6469 68.3826L52.8402 67.1179ZM52.0141 67.6449L52.8208 68.9095L52.0141 67.6449ZM50.7571 69.1068L52.1195 69.7346L50.7571 69.1068ZM50.3263 70.0418L48.964 69.4141L50.3263 70.0418ZM49.8954 70.9769L48.5331 70.3491L49.8954 70.9769ZM48.7196 72.5225L49.6705 73.6826L48.7196 72.5225ZM47.2296 73.7439L46.2787 72.5839L47.2296 73.7439ZM45.8558 75.0852L44.7189 74.1068L45.8558 75.0852ZM45.227 75.8159L46.3639 76.7943L45.227 75.8159ZM44.5982 76.5465L45.7351 77.525L44.5982 76.5465ZM43.032 77.0151L42.6281 78.4597L43.032 77.0151ZM41.1573 76.4909L41.5612 75.0463L41.1573 76.4909ZM40.3193 75.2766L38.8275 75.1208L40.3193 75.2766ZM40.4188 74.3244L41.9107 74.4802L40.4188 74.3244ZM40.5182 73.3723L42.0101 73.5281L40.5182 73.3723ZM40.6957 70.5011L42.1944 70.562L40.6957 70.5011ZM40.7347 69.5415L39.2359 69.4806L40.7347 69.5415ZM40.5631 67.6186L39.0977 67.939L40.5631 67.6186ZM40.1419 65.6918L41.6073 65.3715L40.1419 65.6918ZM40.1642 63.7719L38.7068 63.417L40.1642 63.7719ZM40.63 61.859L42.0874 62.2139L40.63 61.859ZM40.2854 60.082L41.5121 59.2187L40.2854 60.082ZM39.708 59.2615L38.4813 60.1248L39.708 59.2615ZM39.1305 58.441L37.9038 59.3043L39.1305 58.441ZM38.3072 56.7055L36.8586 57.0946L38.3072 56.7055ZM37.8157 54.8755L39.2643 54.4864L37.8157 54.8755ZM38.1715 53.2806L39.2949 54.2745L38.1715 53.2806ZM38.7731 52.6006L39.8965 53.5946L38.7731 52.6006ZM39.3747 51.9207L38.2513 50.9267L39.3747 51.9207ZM40.4245 50.4362L41.7348 51.1663L40.4245 50.4362ZM41.3146 47.2747L40.0326 48.0534L41.3146 47.2747ZM40.4058 45.7785L39.1237 46.5572L40.4058 45.7785ZM39.3888 44.2312L38.1622 45.0945L39.3888 44.2312ZM38.2638 42.6328L39.4904 41.7694L38.2638 42.6328ZM37.9425 40.8797L39.3967 41.2474L37.9425 40.8797ZM38.4249 38.9718L36.9707 38.6041L38.4249 38.9718ZM39.3712 37.3034L40.4389 38.357L39.3712 37.3034ZM40.7814 35.8743L39.7137 34.8207L40.7814 35.8743ZM41.4714 34.7445L42.9704 34.6899L41.4714 34.7445ZM41.4412 33.9138L39.9422 33.9684L41.4412 33.9138ZM41.9311 32.6839L43.206 33.4742L41.9311 32.6839ZM42.4361 31.8693L41.1612 31.0789L41.6662 30.2643L42.9411 31.0546L44.216 31.845L43.711 32.6596L42.4361 31.8693ZM42.9411 31.0546L41.6662 30.2643C42.0199 29.6937 42.3894 29.1388 42.7748 28.5995L43.9952 29.4717L45.2155 30.3439C44.8688 30.829 44.5356 31.3293 44.216 31.845L42.9411 31.0546ZM43.9952 29.4717L42.7748 28.5995L43.3239 27.8313L44.5443 28.7035L45.7646 29.5756L45.2155 30.3439L43.9952 29.4717ZM44.5443 28.7035L43.3239 27.8313L43.873 27.063L45.0933 27.9352L46.3137 28.8074L45.7646 29.5756L44.5443 28.7035ZM45.0933 27.9352L43.873 27.063C44.1945 26.6132 44.4837 26.1359 44.7406 25.6301L46.078 26.3094L47.4153 26.9888C47.0915 27.6263 46.7243 28.2328 46.3137 28.8074L45.0933 27.9352ZM46.078 26.3094L44.7406 25.6301L45.1762 24.7726L46.5135 25.452L47.8509 26.1313L47.4153 26.9888L46.078 26.3094ZM46.5135 25.452L45.1762 24.7726L45.6118 23.9152L46.9491 24.5945L48.2865 25.2738L47.8509 26.1313L46.5135 25.452ZM46.9491 24.5945L45.6118 23.9152C45.9159 23.3164 46.2428 22.718 46.5922 22.12L47.8874 22.8768L49.1825 23.6335C48.8616 24.1826 48.563 24.7293 48.2865 25.2738L46.9491 24.5945ZM47.8874 22.8768L46.5922 22.12L47.0949 21.2597L48.39 22.0165L49.6851 22.7733L49.1825 23.6335L47.8874 22.8768ZM48.39 22.0165L47.0949 21.2597L47.5976 20.3995L48.8927 21.1562L50.1878 21.913L49.6851 22.7733L48.39 22.0165ZM48.8927 21.1562L47.5976 20.3995C48.0918 19.5537 48.8039 18.9173 49.6984 18.5184L50.3094 19.8884L50.9203 21.2583C50.5962 21.4029 50.3639 21.6117 50.1878 21.913L48.8927 21.1562ZM50.3094 19.8884L49.6984 18.5184L50.6124 18.1109L51.2233 19.4808L51.8342 20.8508L50.9203 21.2583L50.3094 19.8884ZM51.2233 19.4808L50.6124 18.1109L51.5264 17.7033L52.1373 19.0732L52.7482 20.4432L51.8342 20.8508L51.2233 19.4808ZM52.1373 19.0732L51.5264 17.7033C51.992 17.4957 52.4122 17.2225 52.792 16.8805L53.7958 17.9951L54.7997 19.1097C54.1867 19.6618 53.5013 20.1074 52.7482 20.4432L52.1373 19.0732ZM53.7958 17.9951L52.792 16.8805L53.5366 16.2099L54.5404 17.3245L55.5442 18.4391L54.7997 19.1097L53.7958 17.9951ZM54.5404 17.3245L53.5366 16.2099L54.2811 15.5394L55.285 16.6539L56.2888 17.7685L55.5442 18.4391L54.5404 17.3245ZM55.285 16.6539L54.2811 15.5394C54.9687 14.9201 55.7756 14.5027 56.6785 14.2964L57.0127 15.7587L57.3469 17.2209C56.939 17.3142 56.5939 17.4937 56.2888 17.7685L55.285 16.6539ZM57.0127 15.7587L56.6785 14.2964L57.6617 14.0716L57.9959 15.5339L58.3301 16.9962L57.3469 17.2209L57.0127 15.7587ZM57.9959 15.5339L57.6617 14.0716L58.6449 13.8469L58.9791 15.3092L59.3133 16.7715L58.3301 16.9962L57.9959 15.5339ZM58.9791 15.3092L58.6449 13.8469C59.626 13.6227 60.5994 13.7265 61.5115 14.1516L60.8779 15.5112L60.2443 16.8708C59.9356 16.7269 59.6432 16.6961 59.3133 16.7715L58.9791 15.3092ZM60.8779 15.5112L61.5115 14.1516L62.4271 14.5783L61.7935 15.9379L61.1598 17.2975L60.2443 16.8708L60.8779 15.5112ZM61.7935 15.9379L62.4271 14.5783L63.3426 15.0049L62.709 16.3645L62.0754 17.7242L61.1598 17.2975L61.7935 15.9379ZM62.709 16.3645L63.3426 15.0049C63.874 15.2526 64.3986 15.4409 64.9169 15.5735L64.5453 17.0267L64.1736 18.4799C63.4644 18.2985 62.7648 18.0454 62.0754 17.7242L62.709 16.3645ZM64.5453 17.0267L64.9169 15.5735L65.8376 15.8089L65.466 17.2622L65.0943 18.7154L64.1736 18.4799L64.5453 17.0267ZM65.466 17.2622L65.8376 15.8089L66.7583 16.0444L66.3867 17.4976L66.015 18.9508L65.0943 18.7154L65.466 17.2622ZM66.3867 17.4976L66.7583 16.0444C67.5932 16.2579 68.3492 16.6487 69.0145 17.2028L68.0546 18.3554L67.0946 19.508C66.7637 19.2324 66.4077 19.0513 66.015 18.9508L66.3867 17.4976ZM68.0546 18.3554L69.0145 17.2028L69.7617 17.8251L68.8018 18.9777L67.8418 20.1303L67.0946 19.508L68.0546 18.3554ZM68.8018 18.9777L69.7617 17.8251L70.5089 18.4475L69.549 19.6001L68.589 20.7527L67.8418 20.1303L68.8018 18.9777ZM69.549 19.6001L70.5089 18.4475C71.1393 18.9725 71.6644 19.5903 72.0782 20.296L70.7843 21.0548L69.4904 21.8136C69.2534 21.4094 68.955 21.0574 68.589 20.7527L69.549 19.6001ZM70.7843 21.0548L72.0782 20.296L72.5664 21.1284L71.2724 21.8872L69.9785 22.6459L69.4904 21.8136L70.7843 21.0548ZM71.2724 21.8872L72.5664 21.1284L73.0545 21.9608L71.7605 22.7196L70.4666 23.4783L69.9785 22.6459L71.2724 21.8872ZM71.7605 22.7196L73.0545 21.9608C73.4223 22.588 73.7331 23.238 73.9856 23.9102L72.5815 24.4378L71.1773 24.9653C70.9861 24.4564 70.7496 23.9609 70.4666 23.4783L71.7605 22.7196ZM72.5815 24.4378L73.9856 23.9102L74.3185 24.796L72.9143 25.3236L71.5102 25.8512L71.1773 24.9653L72.5815 24.4378ZM72.9143 25.3236L74.3185 24.796L74.6513 25.6818L73.2471 26.2094L71.843 26.737L71.5102 25.8512L72.9143 25.3236ZM73.2471 26.2094L74.6513 25.6818C74.9036 26.3531 75.0958 27.04 75.2274 27.7414L73.7531 28.018L72.2788 28.2946C72.1796 27.7656 72.0345 27.2467 71.843 26.737L73.2471 26.2094ZM73.7531 28.018L75.2274 27.7414L75.4005 28.6643L73.9262 28.9409L72.452 29.2174L72.2788 28.2946L73.7531 28.018ZM73.9262 28.9409L75.4005 28.6643L75.5736 29.5872L74.0994 29.8637L72.6251 30.1403L72.452 29.2174L73.9262 28.9409ZM74.0994 29.8637L75.5736 29.5872C75.6916 30.2157 75.8024 30.8536 75.9062 31.5008L74.4251 31.7383L72.944 31.9758C72.8443 31.354 72.738 30.7422 72.6251 30.1403L74.0994 29.8637ZM74.4251 31.7383L75.9062 31.5008L76.0588 32.4525L74.5777 32.69L73.0966 32.9275L72.944 31.9758L74.4251 31.7383ZM74.5777 32.69L76.0588 32.4525L76.2114 33.4041L74.7303 33.6416L73.2492 33.8792L73.0966 32.9275L74.5777 32.69ZM74.7303 33.6416L76.2114 33.4041C76.3285 34.1343 76.3749 34.8735 76.3515 35.6205L74.8523 35.5735L73.353 35.5266C73.3705 34.9666 73.3357 34.418 73.2492 33.8792L74.7303 33.6416ZM74.8523 35.5735L76.3515 35.6205L76.3208 36.6006L74.8216 36.5537L73.3223 36.5068L73.353 35.5266L74.8523 35.5735ZM74.8216 36.5537L76.3208 36.6006L76.2902 37.5808L74.7909 37.5339L73.2916 37.487L73.3223 36.5068L74.8216 36.5537ZM74.7909 37.5339L76.2902 37.5808C76.2639 38.4185 76.0872 39.2276 75.7614 39.9991L74.3795 39.4156L72.9977 38.832C73.1795 38.4015 73.2769 37.9563 73.2916 37.487L74.7909 37.5339ZM74.3795 39.4156L75.7614 39.9991L75.3807 40.9006L73.9988 40.317L72.617 39.7335L72.9977 38.832L74.3795 39.4156ZM73.9988 40.317L75.3807 40.9006L75 41.8021L73.6181 41.2185L72.2363 40.635L72.617 39.7335L73.9988 40.317ZM73.6181 41.2185L75 41.8021C74.7751 42.3346 74.5907 42.8811 74.4467 43.4422L72.9938 43.0693L71.5409 42.6964C71.7217 41.9918 71.9536 41.3044 72.2363 40.635L73.6181 41.2185ZM72.9938 43.0693L74.4467 43.4422L74.203 44.3916L72.7501 44.0187L71.2972 43.6458L71.5409 42.6964L72.9938 43.0693ZM72.7501 44.0187L74.203 44.3916L73.9594 45.341L72.5065 44.9681L71.0536 44.5952L71.2972 43.6458L72.7501 44.0187ZM72.5065 44.9681L73.9594 45.341C73.7194 46.276 73.2176 47.0758 72.4964 47.7197L71.4974 46.6007L70.4985 45.4817C70.7977 45.2146 70.9687 44.9259 71.0536 44.5952L72.5065 44.9681ZM71.4974 46.6007L72.4964 47.7197L71.731 48.403L70.732 47.284L69.7331 46.165L70.4985 45.4817L71.4974 46.6007ZM70.732 47.284L71.731 48.403L70.9656 49.0863L69.9667 47.9673L68.9677 46.8483L69.7331 46.165L70.732 47.284ZM69.9667 47.9673L70.9656 49.0863C70.6672 49.3527 70.4845 49.6523 70.3879 50.0097L68.9398 49.6185L67.4917 49.2274C67.7438 48.2942 68.2456 47.493 68.9677 46.8483L69.9667 47.9673ZM68.9398 49.6185L70.3879 50.0097L70.1265 50.9776L68.6784 50.5865L67.2303 50.1953L67.4917 49.2274L68.9398 49.6185ZM68.6784 50.5865L70.1265 50.9776L69.865 51.9456L68.4169 51.5544L66.9688 51.1632L67.2303 50.1953L68.6784 50.5865ZM68.4169 51.5544L69.865 51.9456C69.6453 52.7591 69.2931 53.5096 68.8066 54.1862L67.5887 53.3106L66.3709 52.4349C66.64 52.0606 66.84 51.6403 66.9688 51.1632L68.4169 51.5544ZM67.5887 53.3106L68.8066 54.1862L68.2399 54.9745L67.022 54.0988L65.8041 53.2232L66.3709 52.4349L67.5887 53.3106ZM67.022 54.0988L68.2399 54.9745L67.6732 55.7627L66.4553 54.8871L65.2374 54.0114L65.8041 53.2232L67.022 54.0988ZM66.4553 54.8871L67.6732 55.7627C67.2032 56.4163 66.6404 56.9848 65.9897 57.4654L65.0985 56.2588L64.2074 55.0522C64.6101 54.7548 64.9517 54.4088 65.2374 54.0114L66.4553 54.8871ZM65.0985 56.2588L65.9897 57.4654L65.1997 58.0489L64.3085 56.8423L63.4174 55.6357L64.2074 55.0522L65.0985 56.2588ZM64.3085 56.8423L65.1997 58.0489L64.4097 58.6324L63.5185 57.4258L62.6274 56.2192L63.4174 55.6357L64.3085 56.8423ZM63.5185 57.4258L64.4097 58.6324C63.9538 58.9691 63.5387 59.3373 63.1627 59.737L62.0701 58.7093L60.9774 57.6816C61.4794 57.148 62.0299 56.6605 62.6274 56.2192L63.5185 57.4258ZM62.0701 58.7093L63.1627 59.737L62.5043 60.4371L61.4117 59.4094L60.319 58.3817L60.9774 57.6816L62.0701 58.7093ZM61.4117 59.4094L62.5043 60.4371L61.8459 61.1371L60.7532 60.1094L59.6606 59.0818L60.319 58.3817L61.4117 59.4094ZM60.7532 60.1094L61.8459 61.1371C61.3438 61.671 60.7952 62.1561 60.2014 62.592L59.3137 61.3829L58.426 60.1738C58.8737 59.8452 59.2848 59.4813 59.6606 59.0818L60.7532 60.1094ZM59.3137 61.3829L60.2014 62.592L59.4203 63.1655L58.5327 61.9563L57.645 60.7472L58.426 60.1738L59.3137 61.3829ZM58.5327 61.9563L59.4203 63.1655L58.6393 63.7389L57.7516 62.5298L56.8639 61.3206L57.645 60.7472L58.5327 61.9563ZM57.7516 62.5298L58.6393 63.7389C58.2153 64.0502 57.8366 64.4054 57.5012 64.8061L56.351 63.8434L55.2007 62.8807C55.6913 62.2945 56.2464 61.7739 56.8639 61.3206L57.7516 62.5298ZM56.351 63.8434L57.5012 64.8061L56.8817 65.5464L55.7314 64.5836L54.5812 63.6209L55.2007 62.8807L56.351 63.8434ZM55.7314 64.5836L56.8817 65.5464L56.2622 66.2866L55.1119 65.3238L53.9616 64.3611L54.5812 63.6209L55.7314 64.5836ZM55.1119 65.3238L56.2622 66.2866C55.7492 66.8994 55.151 67.4231 54.473 67.8556L53.6663 66.591L52.8596 65.3264C53.283 65.0563 53.6485 64.7352 53.9616 64.3611L55.1119 65.3238ZM53.6663 66.591L54.473 67.8556L53.6469 68.3826L52.8402 67.1179L52.0335 65.8533L52.8596 65.3264L53.6663 66.591ZM52.8402 67.1179L53.6469 68.3826L52.8208 68.9095L52.0141 67.6449L51.2074 66.3803L52.0335 65.8533L52.8402 67.1179ZM52.0141 67.6449L52.8208 68.9095C52.5251 69.0981 52.2928 69.3585 52.1195 69.7346L50.7571 69.1068L49.3948 68.4791C49.796 67.6085 50.4017 66.8942 51.2074 66.3803L52.0141 67.6449ZM50.7571 69.1068L52.1195 69.7346L51.6886 70.6696L50.3263 70.0418L48.964 69.4141L49.3948 68.4791L50.7571 69.1068ZM50.3263 70.0418L51.6886 70.6696L51.2577 71.6046L49.8954 70.9769L48.5331 70.3491L48.964 69.4141L50.3263 70.0418ZM49.8954 70.9769L51.2577 71.6046C50.8821 72.4198 50.3547 73.1217 49.6705 73.6826L48.7196 72.5225L47.7686 71.3625C48.0777 71.1091 48.3342 70.7806 48.5331 70.3491L49.8954 70.9769ZM48.7196 72.5225L49.6705 73.6826L48.9255 74.2933L47.9746 73.1332L47.0236 71.9732L47.7686 71.3625L48.7196 72.5225ZM47.9746 73.1332L48.9255 74.2933L48.1805 74.904L47.2296 73.7439L46.2787 72.5839L47.0236 71.9732L47.9746 73.1332ZM47.2296 73.7439L48.1805 74.904C47.751 75.256 47.3553 75.6424 46.9927 76.0637L45.8558 75.0852L44.7189 74.1068C45.1947 73.5539 45.7148 73.0461 46.2787 72.5839L47.2296 73.7439ZM45.8558 75.0852L46.9927 76.0637L46.3639 76.7943L45.227 75.8159L44.0901 74.8374L44.7189 74.1068L45.8558 75.0852ZM45.227 75.8159L46.3639 76.7943L45.7351 77.525L44.5982 76.5465L43.4613 75.5681L44.0901 74.8374L45.227 75.8159ZM44.5982 76.5465L45.7351 77.525C45.3726 77.9462 44.904 78.292 44.3222 78.4661C43.7414 78.6398 43.1609 78.6086 42.6281 78.4597L43.032 77.0151L43.4359 75.5705C43.4844 75.584 43.5062 75.5843 43.5057 75.5843C43.5054 75.5843 43.5007 75.5842 43.4923 75.5854C43.4838 75.5865 43.4736 75.5886 43.4623 75.5919C43.4511 75.5953 43.441 75.5993 43.4326 75.6033C43.4243 75.6073 43.4195 75.6105 43.4181 75.6114C43.4154 75.6133 43.431 75.6033 43.4613 75.5681L44.5982 76.5465ZM43.032 77.0151L42.6281 78.4597L41.6907 78.1976L42.0947 76.753L42.4986 75.3084L43.4359 75.5705L43.032 77.0151ZM42.0947 76.753L41.6907 78.1976L40.7534 77.9355L41.1573 76.4909L41.5612 75.0463L42.4986 75.3084L42.0947 76.753ZM41.1573 76.4909L40.7534 77.9355C40.2122 77.7842 39.6393 77.4803 39.2445 76.9082C38.8475 76.3328 38.7684 75.686 38.8275 75.1208L40.3193 75.2766L41.8112 75.4324C41.804 75.502 41.8314 75.375 41.7137 75.2043C41.5983 75.0371 41.4774 75.0229 41.5612 75.0463L41.1573 76.4909ZM40.3193 75.2766L38.8275 75.1208L38.9269 74.1686L40.4188 74.3244L41.9107 74.4802L41.8112 75.4324L40.3193 75.2766ZM40.4188 74.3244L38.9269 74.1686L39.0263 73.2165L40.5182 73.3723L42.0101 73.5281L41.9107 74.4802L40.4188 74.3244ZM40.5182 73.3723L39.0263 73.2165C39.0893 72.6133 39.1332 72.0077 39.1579 71.3996L40.6567 71.4606L42.1554 71.5215C42.1281 72.1927 42.0797 72.8616 42.0101 73.5281L40.5182 73.3723ZM40.6567 71.4606L39.1579 71.3996L39.1969 70.4401L40.6957 70.5011L42.1944 70.562L42.1554 71.5215L40.6567 71.4606ZM40.6957 70.5011L39.1969 70.4401L39.2359 69.4806L40.7347 69.5415L42.2334 69.6025L42.1944 70.562L40.6957 70.5011ZM40.7347 69.5415L39.2359 69.4806C39.2566 68.9724 39.2115 68.4595 39.0977 67.939L40.5631 67.6186L42.0285 67.2983C42.1955 68.0623 42.2648 68.8314 42.2334 69.6025L40.7347 69.5415ZM40.5631 67.6186L39.0977 67.939L38.8871 66.9756L40.3525 66.6552L41.8179 66.3349L42.0285 67.2983L40.5631 67.6186ZM40.3525 66.6552L38.8871 66.9756L38.6765 66.0121L40.1419 65.6918L41.6073 65.3715L41.8179 66.3349L40.3525 66.6552ZM40.1419 65.6918L38.6765 66.0121C38.4875 65.1475 38.4975 64.2766 38.7068 63.417L40.1642 63.7719L41.6216 64.1268C41.5204 64.5425 41.5155 64.9516 41.6073 65.3715L40.1419 65.6918ZM40.1642 63.7719L38.7068 63.417L38.9397 62.4606L40.3971 62.8155L41.8545 63.1703L41.6216 64.1268L40.1642 63.7719ZM40.3971 62.8155L38.9397 62.4606L39.1726 61.5041L40.63 61.859L42.0874 62.2139L41.8545 63.1703L40.3971 62.8155ZM40.63 61.859L39.1726 61.5041C39.2233 61.296 39.2003 61.1463 39.0588 60.9453L40.2854 60.082L41.5121 59.2187C42.1406 60.1117 42.3473 61.1467 42.0874 62.2139L40.63 61.859ZM40.2854 60.082L39.0588 60.9453L38.4813 60.1248L39.708 59.2615L40.9346 58.3982L41.5121 59.2187L40.2854 60.082ZM39.708 59.2615L38.4813 60.1248L37.9038 59.3043L39.1305 58.441L40.3571 57.5777L40.9346 58.3982L39.708 59.2615ZM39.1305 58.441L37.9038 59.3043C37.4237 58.622 37.0707 57.8843 36.8586 57.0946L38.3072 56.7055L39.7559 56.3163C39.8715 56.7467 40.0674 57.1659 40.3571 57.5777L39.1305 58.441ZM38.3072 56.7055L36.8586 57.0946L36.6128 56.1796L38.0614 55.7905L39.5101 55.4013L39.7559 56.3163L38.3072 56.7055ZM38.0614 55.7905L36.6128 56.1796L36.367 55.2646L37.8157 54.8755L39.2643 54.4864L39.5101 55.4013L38.0614 55.7905ZM37.8157 54.8755L36.367 55.2646C36.0793 54.1936 36.2962 53.1364 37.0481 52.2866L38.1715 53.2806L39.2949 54.2745C39.267 54.306 39.2549 54.3265 39.2503 54.3352C39.2461 54.3431 39.2457 54.3458 39.2457 54.3459C39.2457 54.3461 39.2438 54.3539 39.2445 54.3733C39.2453 54.3935 39.2493 54.4304 39.2643 54.4864L37.8157 54.8755ZM38.1715 53.2806L37.0481 52.2866L37.6497 51.6066L38.7731 52.6006L39.8965 53.5946L39.2949 54.2745L38.1715 53.2806ZM38.7731 52.6006L37.6497 51.6066L38.2513 50.9267L39.3747 51.9207L40.4981 52.9146L39.8965 53.5946L38.7731 52.6006ZM39.3747 51.9207L38.2513 50.9267C38.5797 50.5555 38.8672 50.1494 39.1141 49.7062L40.4245 50.4362L41.7348 51.1663C41.3842 51.7957 40.9718 52.3792 40.4981 52.9146L39.3747 51.9207ZM40.4245 50.4362L39.1141 49.7062L39.5623 48.9017L40.8727 49.6318L42.183 50.3618L41.7348 51.1663L40.4245 50.4362ZM40.8727 49.6318L39.5623 48.9017L40.0105 48.0972L41.3209 48.8273L42.6312 49.5573L42.183 50.3618L40.8727 49.6318ZM41.3209 48.8273L40.0105 48.0972C40.035 48.0532 40.0429 48.0284 40.0447 48.022C40.0462 48.0168 40.0433 48.025 40.0434 48.0429C40.0434 48.0512 40.0441 48.0595 40.0453 48.0673C40.0464 48.075 40.0479 48.0805 40.0487 48.0835C40.0507 48.0899 40.0488 48.08 40.0326 48.0534L41.3146 47.2747L42.5966 46.4959C43.1973 47.4847 43.1758 48.5798 42.6312 49.5573L41.3209 48.8273ZM41.3146 47.2747L40.0326 48.0534L39.5782 47.3053L40.8602 46.5266L42.1422 45.7478L42.5966 46.4959L41.3146 47.2747ZM40.8602 46.5266L39.5782 47.3053L39.1237 46.5572L40.4058 45.7785L41.6878 44.9997L42.1422 45.7478L40.8602 46.5266ZM40.4058 45.7785L39.1237 46.5572C38.8402 46.0904 38.52 45.6029 38.1622 45.0945L39.3888 44.2312L40.6154 43.3678C41.0077 43.925 41.3654 44.4691 41.6878 44.9997L40.4058 45.7785ZM39.3888 44.2312L38.1622 45.0945L37.5997 44.2953L38.8263 43.432L40.0529 42.5686L40.6154 43.3678L39.3888 44.2312ZM38.8263 43.432L37.5997 44.2953L37.0372 43.4962L38.2638 42.6328L39.4904 41.7694L40.0529 42.5686L38.8263 43.432ZM38.2638 42.6328L37.0372 43.4962C36.4085 42.603 36.2211 41.5685 36.4883 40.512L37.9425 40.8797L39.3967 41.2474C39.3423 41.4628 39.3691 41.597 39.4904 41.7694L38.2638 42.6328ZM37.9425 40.8797L36.4883 40.512L36.7295 39.558L38.1837 39.9258L39.6379 40.2935L39.3967 41.2474L37.9425 40.8797ZM38.1837 39.9258L36.7295 39.558L36.9707 38.6041L38.4249 38.9718L39.8792 39.3396L39.6379 40.2935L38.1837 39.9258ZM38.4249 38.9718L36.9707 38.6041C37.1984 37.7038 37.6499 36.9122 38.3036 36.2498L39.3712 37.3034L40.4389 38.357C40.1525 38.6472 39.9731 38.968 39.8792 39.3396L38.4249 38.9718ZM39.3712 37.3034L38.3036 36.2498L39.0086 35.5353L40.0763 36.5889L41.144 37.6424L40.4389 38.357L39.3712 37.3034ZM40.0763 36.5889L39.0086 35.5353L39.7137 34.8207L40.7814 35.8743L41.8491 36.9279L41.144 37.6424L40.0763 36.5889ZM40.7814 35.8743L39.7137 34.8207C39.8056 34.7276 39.8763 34.6489 39.9295 34.5841C39.9833 34.5186 40.0127 34.4751 40.0263 34.4528C40.0408 34.4291 40.0288 34.4433 40.0123 34.4924C39.9956 34.5419 39.9669 34.6492 39.9724 34.799L41.4714 34.7445L42.9704 34.6899C42.9908 35.2495 42.7718 35.7131 42.5866 36.0164C42.3891 36.3398 42.1281 36.6451 41.8491 36.9279L40.7814 35.8743ZM41.4714 34.7445L39.9724 34.799L39.9573 34.3837L41.4563 34.3292L42.9553 34.2746L42.9704 34.6899L41.4714 34.7445ZM41.4563 34.3292L39.9573 34.3837L39.9422 33.9684L41.4412 33.9138L42.9402 33.8593L42.9553 34.2746L41.4563 34.3292ZM41.4412 33.9138L39.9422 33.9684C39.9264 33.5345 40.0443 33.1405 40.1626 32.8436C40.2877 32.5295 40.4601 32.2098 40.6562 31.8935L41.9311 32.6839L43.206 33.4742C43.0654 33.701 42.9878 33.8578 42.9496 33.9537C42.9313 33.9998 42.9282 34.0165 42.9301 34.0078C42.9318 34.0005 42.9434 33.9471 42.9402 33.8593L41.4412 33.9138ZM41.9311 32.6839L40.6562 31.8935L41.1612 31.0789L42.4361 31.8693L43.711 32.6596L43.206 33.4742L41.9311 32.6839Z" fill="#FF3C1A"/>
</svg>
