<svg width="120" height="122" viewBox="0 0 120 122" fill="none" xmlns="http://www.w3.org/2000/svg">
<path d="M78.1572 21.1181L36.3674 25.3766C35.3136 25.484 34.3944 26.1392 33.9493 27.1005L16.2977 65.218C15.8447 66.1962 15.9514 67.3423 16.5772 68.2201L38.9445 99.5951C39.5644 100.465 40.5997 100.939 41.663 100.841L83.721 96.9586C84.7962 96.8594 85.735 96.19 86.1794 95.206L103.563 56.7123C104.002 55.7391 103.891 54.6057 103.271 53.7361L80.9042 22.3612C80.2784 21.4834 79.2297 21.0088 78.1572 21.1181Z" fill="#323232" fill-opacity="0.3"/>
<path d="M31.576 28.1714C32.0746 26.8735 32.8853 25.8007 34.0975 25.208L34.3442 25.0897L34.5746 24.9687C34.8359 24.8412 35.0359 24.7489 35.1701 24.6736C35.3246 24.4542 35.4872 24.297 35.5888 24.2313C35.8132 24.0865 36.0336 24.0316 36.1216 24.0097C36.3279 23.9585 36.5459 23.933 36.7075 23.9231C37.06 23.9014 37.5412 23.9074 38.1188 23.9243L38.4703 23.9328L38.8122 23.9481C39.8423 23.9783 40.8715 23.8966 41.8775 23.7057L42.2072 23.6434L42.5533 23.5838C43.6486 23.3759 44.744 23.1438 45.8357 22.8988L46.1845 22.8228L46.517 22.7441C47.6782 22.4834 48.8511 22.287 50.0267 22.1561L50.3769 22.1224L50.7202 22.0791C51.946 21.9428 53.1839 21.9361 54.4297 22.0539L54.7852 22.0883L55.1339 22.1131C56.1049 22.2048 57.0525 22.1358 57.9854 21.8937L58.3274 21.8082L58.6626 21.7131C59.8307 21.4092 61.0158 21.1916 62.2024 21.0461L62.8891 20.9596C64.0255 20.8203 65.1714 20.6953 66.3115 20.5922L66.652 20.5652L67.0022 20.5315C68.0766 20.4342 69.1462 20.2855 70.2108 20.0862L70.55 20.0171L70.8961 19.9575C72.1101 19.7301 73.3387 19.6252 74.5773 19.6502L75.2802 19.6672C76.5242 19.6927 77.7332 19.8515 78.8884 20.146L79.5176 20.3018C80.9567 20.6687 82.0863 21.5441 82.8679 22.821L83.0529 23.1209L83.2311 23.4112C83.7853 24.317 84.4078 25.1849 85.0814 26.0067L85.2978 26.2698L85.5209 26.5425C86.2081 27.3806 86.9328 28.1928 87.7011 28.9748L87.9529 29.227L88.1883 29.4765C89.0536 30.3571 89.828 31.3108 90.5084 32.3272L90.7125 32.6135L90.9002 32.897C91.5231 33.8278 92.1555 34.7576 92.7953 35.6764L92.9994 35.9627L93.1871 36.2462C93.8403 37.1843 94.4868 38.1327 95.1135 39.0897L95.3012 39.3732L95.4862 39.6731C96.0837 40.5854 96.7184 41.4716 97.3842 42.3353L97.5978 42.6148L97.8046 42.8847C98.5829 43.8943 99.2156 45.0071 99.691 46.2172L99.8283 46.5511L99.9492 46.8822C100.312 47.8056 100.811 48.6281 101.444 49.3425L101.68 49.592L101.912 49.8579C102.701 50.7471 103.451 51.6996 104.174 52.7071L104.602 53.3083C105.086 53.9836 105.401 54.7513 105.429 55.5977C105.456 56.4447 105.19 57.2315 104.751 57.9374L104.36 58.561C103.791 59.4764 103.354 60.415 103.041 61.3729L102.827 62.0429C102.444 63.2143 101.946 64.3354 101.34 65.4064L101.17 65.7141L100.994 66.0123C100.51 66.8662 100.154 67.7845 99.936 68.7672L99.8689 69.1173L99.7855 69.4646C99.476 70.8594 98.8112 72.0922 97.8232 73.1518L97.575 73.4295L97.3295 73.6908C96.662 74.4067 96.2055 75.1929 95.9338 76.0531L95.7206 76.7231C95.3643 77.852 94.9479 78.9547 94.4848 80.0364L94.355 80.3592L94.209 80.6792C93.7687 81.7073 93.3443 82.7454 92.9242 83.7826L92.7945 84.1054L92.658 84.4186C92.2362 85.4602 91.8207 86.5068 91.41 87.5534L91.2871 87.8857L91.1574 88.2084C90.7374 89.2784 90.2908 90.3382 89.8263 91.3881L89.6897 91.7013L89.5437 92.0213C89.0238 93.1961 88.3436 94.2471 87.496 95.1649L87.2697 95.4127L87.0528 95.6536C86.2221 96.5528 85.2601 97.3249 84.1858 97.9709L83.886 98.1559L83.5957 98.3341C82.3286 99.0948 80.9221 99.351 79.4454 99.134L78.7399 99.0326C77.6692 98.8751 76.6046 98.8089 75.5564 98.8267L75.2117 98.8277L74.8575 98.8356C73.9207 98.8524 72.9893 99.0414 72.063 99.4174L71.3952 99.692C70.1783 100.186 68.9342 100.504 67.6658 100.638L67.3157 100.672L66.9723 100.715C65.6667 100.852 64.3499 100.748 63.0315 100.416L62.6679 100.33L62.3138 100.237C61.3964 100.005 60.5312 100.015 59.69 100.251L59.348 100.336L59.0032 100.438C57.7439 100.791 56.4611 100.931 55.1599 100.861L54.8016 100.843L54.4597 100.828C53.5169 100.777 52.582 100.908 51.6626 101.224L51.3246 101.336L50.9935 101.457C49.6703 101.912 48.3057 102.039 46.9213 101.841L46.2157 101.74C45.1497 101.587 44.1314 101.533 43.1603 101.572L42.8292 101.592L42.5009 101.596C41.1726 101.649 39.896 101.368 38.6996 100.766L38.4055 100.615L38.1018 100.472C36.9167 99.875 35.9187 99.0211 35.1057 97.945L34.6785 97.3861C33.9207 96.3813 33.2962 95.2844 32.8097 94.0986L32.5352 93.4308C32.1654 92.5302 31.662 91.7375 31.0102 91.0495L30.768 90.7905L30.5162 90.5382C29.6491 89.6235 28.9093 88.6132 28.2916 87.5187L28.123 87.2216L27.9475 86.9149C27.432 86.0014 26.8411 85.1411 26.1789 84.3331L25.9558 84.0605L25.7394 83.7974C24.9781 82.8683 24.2845 81.8879 23.6605 80.8611L23.4756 80.5612L23.3069 80.2641C22.7651 79.3724 22.1445 78.529 21.4524 77.7436L21.2265 77.4872L20.9938 77.2214C20.1523 76.2664 19.4508 75.2087 18.8947 74.0549L18.7452 73.7442L18.5888 73.4239C18.1171 72.4451 17.5891 71.5114 17.0179 70.6148L16.8329 70.3149L16.5211 69.8068C15.8717 68.7147 15.525 67.5477 15.6187 66.3305L15.6421 66.0404L15.6628 65.7666C15.7428 64.7446 15.955 63.6457 16.2816 62.4759L16.3813 62.1313L16.4716 61.7935C16.7846 60.6732 17.1209 59.5595 17.4759 58.4582L17.5825 58.1232L17.6958 57.7977C18.0799 56.6065 18.5867 55.4714 19.2315 54.4003L19.4075 54.1021L19.5931 53.7971C20.1334 52.8991 20.5969 51.9667 20.9783 50.9962L21.1012 50.6639L21.231 50.3411C21.7041 49.1364 22.3692 48.0189 23.2107 47.0013L23.433 46.7277L23.6716 46.4568C24.2994 45.6973 24.755 44.8699 25.0539 43.9746L25.1605 43.6396L25.2738 43.3141C25.6259 42.2578 25.9591 41.1806 26.2658 40.1028L26.356 39.765L26.453 39.4368C26.8061 38.1958 27.3371 37.0278 28.0378 35.9467L28.4225 35.3559C28.9901 34.481 29.4602 33.5608 29.8418 32.6026L30.1012 31.9572C30.5169 30.9138 30.9298 29.8688 31.3329 28.8196L31.4558 28.4873L31.576 28.1714ZM35.411 27.8984C35.0673 28.067 34.6983 28.4365 34.3867 29.2474L34.1273 29.8929C33.7203 30.9522 33.3098 32.0097 32.8902 33.0632L32.7605 33.3859L32.6376 33.7182C32.1825 34.8605 31.6121 35.9492 30.9385 36.9875L30.5538 37.5783C30.0159 38.4083 29.6118 39.3025 29.3403 40.2568L29.2433 40.585L29.1435 40.9296C28.8249 42.0491 28.4888 43.1642 28.1228 44.2622L28.0095 44.5876L27.9029 44.9227C27.4839 46.1789 26.8386 47.3279 25.9817 48.3647L25.7498 48.6452L25.5275 48.9188C24.8816 49.6998 24.3829 50.5404 24.0294 51.4403L23.77 52.0858C23.3265 53.2153 22.7926 54.3026 22.165 55.3456L21.9794 55.6506L21.8034 55.9488C21.2775 56.8225 20.8543 57.7472 20.5408 58.7199L20.4342 59.0549L20.3304 59.3736C19.9879 60.4359 19.6638 61.5158 19.3616 62.5972L19.2618 62.9418L19.1716 63.2795C18.884 64.3094 18.7171 65.2204 18.6555 66.0077L18.6142 66.5553C18.5743 67.0653 18.7069 67.6757 19.1764 68.414L19.371 68.707L19.5492 68.9974C20.1846 69.9949 20.7641 71.0375 21.2859 72.1199L21.5987 72.7605C22.0368 73.6687 22.5826 74.4987 23.2407 75.2454L23.4666 75.5017L23.6993 75.7676C24.5064 76.6836 25.2297 77.6601 25.8626 78.7012L26.2326 79.3009C26.7833 80.207 27.3949 81.074 28.0666 81.8937L28.2829 82.1568L28.5061 82.4294C29.2776 83.3711 29.9646 84.375 30.5645 85.4379L30.7331 85.735L30.899 86.0485C31.3963 86.9297 32.0014 87.738 32.7018 88.4764L32.9373 88.7259L33.1795 88.9849C34.0937 89.9487 34.8133 91.052 35.3221 92.2931L35.4594 92.627L35.5898 92.9514C35.9814 93.9066 36.4745 94.7831 37.0737 95.5778L37.5009 96.1368C38.0462 96.8582 38.693 97.4 39.4516 97.7828L39.7525 97.9425L40.0561 98.0858C40.8062 98.4634 41.5725 98.6334 42.3811 98.6015L42.7121 98.5814L43.0404 98.5776C44.2073 98.5311 45.4061 98.6013 46.6367 98.777L46.9894 98.8278L47.3518 98.8717C48.2626 99.0009 49.1444 98.9127 50.0166 98.6126L50.6925 98.3898C51.9703 97.9501 53.2807 97.7657 54.6164 97.8376L54.9678 97.8461L55.3166 97.8709C56.2902 97.9234 57.2468 97.8119 58.194 97.5466L58.536 97.4611L58.8807 97.3592C60.1618 97.0007 61.4695 96.9747 62.7826 97.264L63.4089 97.4124L63.763 97.5054C64.7606 97.7567 65.7229 97.8283 66.6576 97.7301L67.0078 97.6963L67.3511 97.6531C68.3269 97.55 69.297 97.3072 70.2643 96.9147L70.9321 96.6401C72.1863 96.1309 73.4842 95.8593 74.8058 95.8358L75.16 95.828L75.5047 95.8269C76.7187 95.8063 77.944 95.8831 79.1703 96.0632L79.5231 96.1139L79.8827 96.1742C80.7007 96.294 81.3983 96.1431 82.045 95.7553L82.3421 95.5866L82.642 95.4016C83.4808 94.8971 84.2093 94.301 84.8396 93.619L85.0728 93.3808L85.2992 93.1331C85.9122 92.4689 86.4141 91.6936 86.8066 90.8064L86.9431 90.4932L87.0892 90.1732C87.537 89.161 87.9636 88.1341 88.3685 87.1024L88.4886 86.7865L88.6183 86.4637C89.0332 85.4066 89.4621 84.351 89.8882 83.299L90.1476 82.6535C90.5746 81.5992 91.0094 80.5487 91.4569 79.5037L91.5961 79.1742L91.7327 78.861C92.1574 77.8691 92.5294 76.8516 92.8566 75.8146L93.0697 75.1446C93.4825 73.8395 94.1794 72.6679 95.1354 71.6427L95.3809 71.3813L95.6359 71.1132C96.2719 70.4312 96.6718 69.6696 96.8613 68.8148L96.9284 68.4648L97.0118 68.1175C97.2927 66.8494 97.7521 65.6505 98.3855 64.5332L98.5615 64.235L98.7307 63.9273C99.2386 63.0307 99.6544 62.0926 99.9757 61.1112L100.189 60.4412C100.581 59.2422 101.129 58.0858 101.82 56.9757L102.21 56.3521C102.399 56.0472 102.435 55.8342 102.43 55.6916C102.425 55.5488 102.368 55.341 102.16 55.0498L101.738 54.4581C101.072 53.5296 100.38 52.6591 99.6627 51.8502L99.43 51.5843L99.2041 51.328C98.3313 50.3436 97.6491 49.2204 97.161 47.9777L97.0305 47.6533L96.9028 47.3127C96.5278 46.3583 96.0394 45.4934 95.4394 44.7148L95.2162 44.4422L95.0094 44.1722C94.2965 43.2475 93.6247 42.2892 92.9849 41.3123L92.7904 41.0192L92.6027 40.7357C91.9915 39.8025 91.3608 38.8738 90.7239 37.959L90.5362 37.6755L90.3321 37.3893C89.6825 36.4563 89.0423 35.5168 88.4098 34.5717L88.2152 34.2786L88.0275 33.9951C87.4529 33.1365 86.788 32.3372 86.053 31.5888L85.8108 31.3298L85.559 31.0775C84.7279 30.2316 83.9388 29.3551 83.1938 28.4462L82.9706 28.1735L82.7542 27.9104C81.9935 26.9822 81.3014 25.9973 80.6754 24.9741L80.4972 24.6838L80.3122 24.3839C79.9138 23.7335 79.4123 23.3813 78.7766 23.2192L78.4552 23.1317L78.1406 23.0537C77.2205 22.8192 76.2441 22.6851 75.2148 22.6642L74.8633 22.6557L74.5186 22.6567C73.484 22.6357 72.4557 22.7164 71.4438 22.9059L71.114 22.9683L70.768 23.0279C69.6102 23.2447 68.4442 23.4119 67.2746 23.5179L66.5744 23.5853C65.467 23.6855 64.3593 23.8012 63.2555 23.9365L62.5689 24.023C61.5152 24.1521 60.4684 24.3514 59.4269 24.6223L58.7429 24.7933C57.4679 25.1247 56.168 25.2316 54.8506 25.1071L54.1395 25.0384C53.0963 24.9402 52.067 24.954 51.0512 25.0669L50.7011 25.1006L50.3673 25.1371C49.3005 25.2557 48.2336 25.4325 47.1777 25.6695L46.8452 25.7483L46.4964 25.8242C45.3711 26.0769 44.2399 26.3111 43.1105 26.5254L42.7712 26.5946L42.4252 26.6542C41.2066 26.885 39.9746 26.9788 38.7304 26.9423L38.0275 26.9254C37.6544 26.9145 37.3661 26.9266 37.1529 26.93C37.0607 26.9999 36.9777 27.0757 36.9021 27.1232C36.641 27.2869 36.2957 27.473 35.8948 27.6686L35.6577 27.7801L35.411 27.8984ZM37.8344 25.8049C37.831 25.8457 37.8259 25.8849 37.8173 25.9239C37.8284 25.8842 37.8326 25.8436 37.8349 25.8022L37.8344 25.8049Z" fill="#323232"/>
</svg>
