<svg width="120" height="122" viewBox="0 0 120 122" fill="none" xmlns="http://www.w3.org/2000/svg">
<path d="M77.8306 21.1182L36.0408 25.3767C34.9869 25.4841 34.0678 26.1393 33.6226 27.1006L15.971 65.2181C15.518 66.1963 15.6247 67.3424 16.2505 68.2202L38.6178 99.5952C39.2377 100.465 40.273 100.939 41.3364 100.841L83.3944 96.9587C84.4695 96.8595 85.4084 96.1902 85.8528 95.2062L103.236 56.7125C103.676 55.7392 103.565 54.6058 102.945 53.7363L80.5775 22.3613C79.9517 21.4835 78.9031 21.0089 77.8306 21.1182Z" fill="#CFFF98" fill-opacity="0.3"/>
<path d="M31.2493 28.1715C31.748 26.8736 32.5586 25.8008 33.7709 25.2081L34.0176 25.0898L34.2479 24.9688C34.5092 24.8413 34.7092 24.7491 34.8435 24.6737C34.9979 24.4544 35.1605 24.2971 35.2621 24.2314C35.4865 24.0866 35.7069 24.0317 35.795 24.0098C36.0013 23.9586 36.2193 23.9331 36.3808 23.9232C36.7333 23.9016 37.2145 23.9075 37.7921 23.9245L38.1436 23.933L38.4855 23.9483C39.5156 23.9784 40.5449 23.8967 41.5509 23.7059L41.8806 23.6435L42.2267 23.5839C43.3219 23.3761 44.4174 23.144 45.509 22.8989L45.8578 22.823L46.1903 22.7443C47.3515 22.4835 48.5244 22.2871 49.7001 22.1562L50.0502 22.1225L50.3935 22.0792C51.6194 21.943 52.8572 21.9362 54.103 22.054L54.4586 22.0884L54.8073 22.1132C55.7782 22.2049 56.7258 22.1359 57.6587 21.8938L58.0007 21.8083L58.3359 21.7132C59.5041 21.4093 60.6892 21.1917 61.8757 21.0462L62.5624 20.9597C63.6988 20.8205 64.8447 20.6954 65.9848 20.5923L66.3254 20.5653L66.6755 20.5316C67.75 20.4343 68.8195 20.2856 69.8841 20.0864L70.2234 20.0172L70.5694 19.9576C71.7835 19.7302 73.0121 19.6253 74.2506 19.6503L74.9535 19.6673C76.1976 19.6928 77.4066 19.8516 78.5617 20.1461L79.191 20.302C80.63 20.6688 81.7597 21.5443 82.5412 22.8212L82.7262 23.121L82.9044 23.4113C83.4586 24.3171 84.0811 25.185 84.7547 26.0068L84.9711 26.2699L85.1943 26.5426C85.8814 27.3807 86.6061 28.193 87.3744 28.9749L87.6262 29.2272L87.8616 29.4767C88.7269 30.3572 89.5013 31.3109 90.1817 32.3273L90.3858 32.6136L90.5735 32.8971C91.1965 33.8279 91.8289 34.7577 92.4686 35.6765L92.6727 35.9628L92.8604 36.2463C93.5136 37.1844 94.1601 38.1328 94.7868 39.0898L94.9746 39.3733L95.1596 39.6732C95.7571 40.5856 96.3917 41.4718 97.0575 42.3355L97.2711 42.6149L97.4779 42.8848C98.2562 43.8944 98.8889 45.0072 99.3644 46.2173L99.5016 46.5512L99.6226 46.8824C99.9853 47.8057 100.484 48.6283 101.117 49.3426L101.353 49.5922L101.586 49.858C102.374 50.7472 103.125 51.6997 103.847 52.7072L104.276 53.3084C104.759 53.9837 105.075 54.7514 105.102 55.5978C105.129 56.4449 104.863 57.2317 104.424 57.9376L104.034 58.5611C103.464 59.4765 103.027 60.4151 102.714 61.373L102.501 62.0431C102.117 63.2144 101.62 64.3355 101.013 65.4065L100.844 65.7142L100.668 66.0124C100.184 66.8663 99.8269 67.7847 99.6093 68.7673L99.5423 69.1174L99.4589 69.4647C99.1494 70.8595 98.4846 72.0924 97.4965 73.1519L97.2483 73.4296L97.0029 73.6909C96.3353 74.4068 95.8788 75.193 95.6071 76.0532L95.394 76.7233C95.0377 77.8521 94.6212 78.9548 94.1581 80.0365L94.0284 80.3593L93.8823 80.6793C93.4421 81.7074 93.0176 82.7455 92.5976 83.7827L92.4679 84.1055L92.3313 84.4187C91.9095 85.4603 91.4941 86.5069 91.0834 87.5535L90.9604 87.8858L90.8307 88.2085C90.4108 89.2785 89.9641 90.3383 89.4996 91.3882L89.3631 91.7014L89.217 92.0214C88.6971 93.1962 88.017 94.2472 87.1694 95.1651L86.943 95.4128L86.7262 95.6537C85.8954 96.5529 84.9334 97.3251 83.8592 97.971L83.5593 98.156L83.269 98.3342C82.002 99.095 80.5955 99.3512 79.1188 99.1342L78.4132 99.0327C77.3426 98.8752 76.2779 98.809 75.2297 98.8268L74.8851 98.8279L74.5309 98.8357C73.594 98.8525 72.6626 99.0415 71.7363 99.4176L71.0685 99.6921C69.8516 100.186 68.6075 100.504 67.3391 100.638L66.989 100.672L66.6457 100.715C65.3401 100.853 64.0232 100.748 62.7049 100.416L62.3412 100.33L61.9871 100.237C61.0698 100.005 60.2045 100.015 59.3633 100.251L59.0213 100.336L58.6766 100.438C57.4172 100.791 56.1344 100.931 54.8332 100.861L54.475 100.843L54.133 100.828C53.1903 100.777 52.2554 100.908 51.3359 101.224L50.998 101.336L50.6668 101.457C49.3436 101.912 47.979 102.039 46.5946 101.841L45.8891 101.74C44.8231 101.587 43.8048 101.533 42.8336 101.572L42.5026 101.592L42.1743 101.596C40.846 101.649 39.5694 101.368 38.3729 100.766L38.0788 100.616L37.7751 100.472C36.5901 99.8751 35.5921 99.0212 34.7791 97.9451L34.3518 97.3862C33.594 96.3814 32.9696 95.2845 32.4831 94.0987L32.2085 93.4309C31.8388 92.5303 31.3353 91.7377 30.6836 91.0496L30.4413 90.7906L30.1895 90.5383C29.3224 89.6236 28.5827 88.6133 27.965 87.5188L27.7963 87.2217L27.6209 86.915C27.1053 86.0015 26.5144 85.1413 25.8523 84.3333L25.6291 84.0606L25.4128 83.7975C24.6514 82.8685 23.9579 81.888 23.3339 80.8612L23.1489 80.5614L22.9802 80.2642C22.4384 79.3725 21.8179 78.5291 21.1258 77.7437L20.8999 77.4874L20.6672 77.2215C19.8257 76.2665 19.1241 75.2088 18.5681 74.055L18.4185 73.7443L18.2621 73.424C17.7904 72.4452 17.2624 71.5116 16.6913 70.6149L16.5063 70.315L16.1944 69.807C15.5451 68.7148 15.1983 67.5478 15.292 66.3306L15.3155 66.0405L15.3362 65.7667C15.4162 64.7447 15.6284 63.6458 15.9549 62.476L16.0547 62.1314L16.1449 61.7937C16.4579 60.6734 16.7942 59.5596 17.1492 58.4584L17.2558 58.1233L17.3692 57.7979C17.7533 56.6066 18.26 55.4715 18.9048 54.4004L19.0808 54.1022L19.2664 53.7972C19.8068 52.8992 20.2702 51.9668 20.6517 50.9963L20.7746 50.664L20.9043 50.3413C21.3775 49.1365 22.0425 48.0191 22.884 47.0014L23.1063 46.7278L23.345 46.4569C23.9728 45.6975 24.4283 44.87 24.7272 43.9748L24.8338 43.6397L24.9472 43.3143C25.2993 42.2579 25.6324 41.1808 25.9391 40.1029L26.0293 39.7652L26.1264 39.4369C26.4795 38.1959 27.0104 37.028 27.7112 35.9469L28.0959 35.356C28.6634 34.4811 29.1335 33.5609 29.5152 32.6028L29.7746 31.9573C30.1902 30.9139 30.6031 29.8689 31.0062 28.8197L31.1291 28.4874L31.2493 28.1715ZM35.0844 27.8985C34.7407 28.0671 34.3716 28.4366 34.0601 29.2476L33.8006 29.893C33.3936 30.9523 32.9831 32.0098 32.5635 33.0633L32.4338 33.386L32.3109 33.7183C31.8559 34.8606 31.2854 35.9493 30.6119 36.9876L30.2272 37.5785C29.6893 38.4084 29.2852 39.3026 29.0136 40.2569L28.9166 40.5852L28.8169 40.9297C28.4983 42.0492 28.1622 43.1643 27.7962 44.2623L27.6828 44.5878L27.5762 44.9228C27.1572 46.179 26.5119 47.328 25.655 48.3649L25.4232 48.6453L25.2009 48.9189C24.555 49.7 24.0562 50.5405 23.7028 51.4405L23.4433 52.0859C22.9998 53.2154 22.466 54.3027 21.8383 55.3458L21.6528 55.6508L21.4768 55.9489C20.9508 56.8226 20.5277 57.7473 20.2141 58.72L20.1076 59.055L20.0037 59.3737C19.6612 60.4361 19.3371 61.5159 19.0349 62.5973L18.9352 62.9419L18.8449 63.2797C18.5573 64.3095 18.3904 65.2206 18.3289 66.0078L18.2875 66.5554C18.2476 67.0654 18.3803 67.6758 18.8498 68.4141L19.0443 68.7072L19.2225 68.9975C19.858 69.995 20.4374 71.0376 20.9593 72.1201L21.272 72.7606C21.7101 73.6688 22.2559 74.4988 22.914 75.2455L23.1399 75.5019L23.3726 75.7677C24.1798 76.6837 24.903 77.6602 25.5359 78.7013L25.9059 79.3011C26.4567 80.2071 27.0682 81.0741 27.7399 81.8938L27.9563 82.1569L28.1794 82.4296C28.9509 83.3712 29.6379 84.3751 30.2378 85.438L30.4065 85.7351L30.5724 86.0486C31.0697 86.9298 31.6748 87.7382 32.3752 88.4765L32.6106 88.726L32.8529 88.985C33.767 89.9488 34.4866 91.0521 34.9954 92.2933L35.1327 92.6271L35.2632 92.9515C35.6547 93.9067 36.1478 94.7832 36.747 95.578L37.1743 96.1369C37.7195 96.8583 38.3664 97.4001 39.1249 97.7829L39.4258 97.9426L39.7295 98.0859C40.4795 98.4635 41.2458 98.6335 42.0544 98.6016L42.3854 98.5815L42.7138 98.5777C43.8806 98.5312 45.0794 98.6014 46.31 98.7772L46.6628 98.8279L47.0251 98.8718C47.936 99.001 48.8177 98.9128 49.69 98.6127L50.3658 98.3899C51.6437 97.9503 52.9541 97.7658 54.2897 97.8377L54.6412 97.8462L54.9899 97.871C55.9636 97.9235 56.9201 97.812 57.8673 97.5467L58.2093 97.4612L58.5541 97.3593C59.8351 97.0008 61.1428 96.9749 62.456 97.2642L63.0822 97.4125L63.4363 97.5055C64.4339 97.7568 65.3963 97.8285 66.331 97.7302L66.6811 97.6965L67.0245 97.6532C68.0003 97.5501 68.9704 97.3073 69.9377 96.9148L70.6054 96.6402C71.8596 96.131 73.1575 95.8594 74.4791 95.8359L74.8333 95.8281L75.178 95.827C76.392 95.8064 77.6174 95.8832 78.8437 96.0633L79.1965 96.1141L79.556 96.1743C80.374 96.2941 81.0716 96.1432 81.7184 95.7554L82.0155 95.5867L82.3154 95.4017C83.1542 94.8972 83.8826 94.3011 84.513 93.6192L84.7461 93.381L84.9725 93.1332C85.5856 92.469 86.0874 91.6938 86.48 90.8065L86.6165 90.4933L86.7625 90.1733C87.2103 89.1611 87.6369 88.1342 88.0418 87.1025L88.162 86.7866L88.2917 86.4638C88.7065 85.4067 89.1354 84.3512 89.5615 83.2991L89.8209 82.6536C90.2479 81.5994 90.6828 80.5488 91.1302 79.5038L91.2695 79.1743L91.406 78.8611C91.8307 77.8693 92.2027 76.8517 92.5299 75.8147L92.7431 75.1447C93.1558 73.8397 93.8527 72.668 94.8088 71.6428L95.0542 71.3815L95.3092 71.1133C95.9452 70.4313 96.3452 69.6697 96.5346 68.8149L96.6017 68.4649L96.6851 68.1176C96.9661 66.8495 97.4255 65.6506 98.0589 64.5333L98.2349 64.2351L98.4041 63.9274C98.912 63.0308 99.3277 62.0927 99.6491 61.1114L99.8622 60.4413C100.254 59.2423 100.802 58.0859 101.493 56.9758L101.883 56.3523C102.073 56.0473 102.108 55.8343 102.103 55.6918C102.099 55.5489 102.042 55.3412 101.833 55.0499L101.411 54.4583C100.745 53.5297 100.053 52.6592 99.336 51.8503L99.1033 51.5845L98.8774 51.3282C98.0046 50.3437 97.3225 49.2205 96.8344 47.9778L96.7039 47.6535L96.5761 47.3128C96.2012 46.3585 95.7127 45.4935 95.1127 44.7149L94.8895 44.4423L94.6827 44.1724C93.9698 43.2476 93.2981 42.2893 92.6583 41.3124L92.4637 41.0194L92.276 40.7358C91.6649 39.8027 91.0342 38.8739 90.3972 37.9592L90.2095 37.6756L90.0054 37.3894C89.3559 36.4564 88.7156 35.5169 88.0831 34.5718L87.8886 34.2787L87.7008 33.9952C87.1263 33.1366 86.4613 32.3373 85.7264 31.589L85.4841 31.3299L85.2323 31.0777C84.4013 30.2318 83.6121 29.3552 82.8671 28.4463L82.644 28.1736L82.4276 27.9105C81.6668 26.9824 80.9747 25.9974 80.3487 24.9743L80.1705 24.6839L79.9855 24.3841C79.5871 23.7336 79.0857 23.3814 78.4499 23.2193L78.1285 23.1318L77.8139 23.0539C76.8938 22.8193 75.9174 22.6853 74.8881 22.6643L74.5366 22.6558L74.192 22.6568C73.1574 22.6358 72.129 22.7165 71.1171 22.906L70.7874 22.9684L70.4413 23.028C69.2835 23.2449 68.1175 23.412 66.948 23.518L66.2477 23.5854C65.1403 23.6857 64.0327 23.8014 62.9289 23.9366L62.2422 24.0232C61.1886 24.1523 60.1417 24.3515 59.1002 24.6224L58.4162 24.7934C57.1412 25.1249 55.8414 25.2318 54.5239 25.1073L53.8129 25.0385C52.7696 24.9403 51.7404 24.9541 50.7245 25.067L50.3744 25.1007L50.0406 25.1372C48.9738 25.2558 47.9069 25.4326 46.851 25.6697L46.5186 25.7484L46.1698 25.8243C45.0444 26.077 43.9133 26.3113 42.7839 26.5255L42.4446 26.5947L42.0985 26.6543C40.88 26.8852 39.6479 26.9789 38.4038 26.9425L37.7008 26.9255C37.3277 26.9146 37.0394 26.9268 36.8262 26.9301C36.7341 27 36.651 27.0759 36.5754 27.1233C36.3143 27.287 35.969 27.4731 35.5682 27.6687L35.3311 27.7802L35.0844 27.8985ZM37.5077 25.8051C37.5043 25.8458 37.4992 25.885 37.4906 25.924C37.5018 25.8844 37.5059 25.8438 37.5082 25.8023L37.5077 25.8051Z" fill="#9BEE3B"/>
<circle cx="31.5" cy="27.5" r="12.5" fill="#9BEE3B"/>
<path d="M32.0781 13.8516C33.7242 13.5989 35.292 13.9224 36.707 14.8008L37.3867 15.2227C38.523 15.928 39.6423 16.6682 40.7383 17.4492L41.0781 17.6953L41.4062 17.9297C42.7602 18.8965 43.6742 20.2118 44.1016 21.8203L44.1953 22.207L44.3008 22.5938C44.6453 23.8906 44.8808 24.9799 44.9688 25.8164L45.0156 26.2617C45.0339 26.4363 45.0472 26.5714 45.0625 26.6719C45.188 26.8538 45.2857 26.9993 45.3086 27.0703C45.3872 27.3172 45.3908 27.5397 45.3906 27.6211C45.3901 27.8219 45.36 28.0351 45.332 28.207C45.2711 28.5806 45.1587 29.1065 45.0039 29.7422L44.8164 30.5156C44.4929 31.8436 44.0587 33.1631 43.5273 34.4766L43.375 34.8633L43.2109 35.25C42.5898 36.7831 41.5731 38.023 40.1875 38.9414L39.4844 39.4102C38.1533 40.2913 36.6914 40.821 35.125 40.9922L34.7266 41.0391L34.3164 41.0859C32.9592 41.2343 31.5873 41.3315 30.2031 41.3906L29.793 41.4141L29.3711 41.4258C27.6128 41.5007 26.0512 40.9178 24.7773 39.7031L24.4727 39.4102L24.168 39.1289C23.183 38.1883 22.2313 37.2606 21.3086 36.3516L20.7461 35.7891C19.6311 34.6897 18.8817 33.3647 18.5078 31.8398L18.4141 31.4531L18.3086 31.0664C17.9694 29.682 17.821 28.2738 17.8516 26.8477L17.8633 26.4492V26.0508C17.8962 24.5183 18.2833 23.0664 19.0117 21.7148L19.2109 21.3633L19.3984 21.0117C20.0598 19.7865 20.8357 18.5995 21.7305 17.4727L21.9883 17.1562L22.2461 16.8281C23.3461 15.4428 24.83 14.6456 26.5938 14.4961L27.0039 14.4609L27.4258 14.4258C28.7445 14.3139 30.0371 14.1615 31.293 13.9688L31.6797 13.9102L32.0781 13.8516ZM32.5352 16.8164L31.7383 16.9336C30.4124 17.137 29.0561 17.3084 27.6719 17.4258L27.2617 17.4609L26.8398 17.4961C25.8998 17.5765 25.185 17.9578 24.6016 18.6914L24.3438 19.0195L24.0742 19.3477C23.2866 20.3401 22.6083 21.3681 22.0352 22.4297L21.6602 23.1328C21.155 24.0688 20.886 25.0636 20.8633 26.1211V26.5195L20.8516 26.9062C20.8266 28.0707 20.9498 29.222 21.2266 30.3516L21.4141 31.125C21.6566 32.1144 22.1376 32.949 22.8555 33.6562L23.1367 33.9375L23.418 34.207C24.3281 35.1038 25.2688 36.0197 26.2422 36.9492L26.8516 37.5352C27.535 38.1853 28.302 38.4772 29.2422 38.4375L29.6641 38.4141L30.0742 38.4023C31.3933 38.346 32.6979 38.2386 33.9883 38.0977L34.3984 38.0625L34.8086 38.0156C35.8869 37.897 36.89 37.5265 37.832 36.9023L38.1836 36.668L38.5352 36.4453C39.4218 35.8572 40.0427 35.0898 40.4336 34.125L40.5859 33.7383L40.75 33.3516C41.2293 32.1667 41.6109 30.9819 41.8984 29.8008L42.0859 29.0273C42.2009 28.555 42.2705 28.194 42.3203 27.9375C42.2643 27.7975 42.2135 27.676 42.1914 27.5859C42.1226 27.3048 42.0668 26.9542 42.0273 26.5781L41.9805 26.1328C41.917 25.5273 41.7378 24.6152 41.4062 23.3672L41.3008 22.9805L41.1953 22.582C40.9463 21.649 40.4462 20.9275 39.6602 20.3672L39.0039 19.8984C37.9575 19.1526 36.8886 18.4385 35.8047 17.7656L35.125 17.3438C34.3177 16.8427 33.4738 16.6723 32.5352 16.8164Z" fill="#9BEE3B"/>
</svg>
