<svg width="120" height="122" viewBox="0 0 120 122" fill="none" xmlns="http://www.w3.org/2000/svg">
<path d="M78.1572 21.1182L36.3674 25.3767C35.3136 25.4841 34.3944 26.1393 33.9493 27.1006L16.2977 65.2181C15.8447 66.1963 15.9514 67.3424 16.5772 68.2202L38.9445 99.5952C39.5644 100.465 40.5997 100.939 41.663 100.841L83.721 96.9587C84.7962 96.8595 85.735 96.1902 86.1794 95.2062L103.563 56.7125C104.002 55.7392 103.891 54.6058 103.271 53.7363L80.9042 22.3613C80.2784 21.4835 79.2297 21.0089 78.1572 21.1182Z" fill="#CFFF98" fill-opacity="0.3"/>
<path d="M31.576 28.1715C32.0746 26.8736 32.8853 25.8008 34.0975 25.2081L34.3442 25.0898L34.5746 24.9688C34.8359 24.8413 35.0359 24.7491 35.1701 24.6737C35.3246 24.4544 35.4872 24.2971 35.5888 24.2314C35.8132 24.0866 36.0336 24.0317 36.1216 24.0098C36.3279 23.9586 36.5459 23.9331 36.7075 23.9232C37.06 23.9016 37.5412 23.9075 38.1188 23.9245L38.4703 23.933L38.8122 23.9483C39.8423 23.9784 40.8715 23.8967 41.8775 23.7059L42.2072 23.6435L42.5533 23.5839C43.6486 23.3761 44.744 23.144 45.8357 22.8989L46.1845 22.823L46.517 22.7443C47.6782 22.4835 48.8511 22.2871 50.0267 22.1562L50.3769 22.1225L50.7202 22.0792C51.946 21.943 53.1839 21.9362 54.4297 22.054L54.7852 22.0884L55.1339 22.1132C56.1049 22.2049 57.0525 22.1359 57.9854 21.8938L58.3274 21.8083L58.6626 21.7132C59.8307 21.4093 61.0158 21.1917 62.2024 21.0462L62.8891 20.9597C64.0255 20.8205 65.1714 20.6954 66.3115 20.5923L66.652 20.5653L67.0022 20.5316C68.0766 20.4343 69.1462 20.2856 70.2108 20.0864L70.55 20.0172L70.8961 19.9576C72.1101 19.7302 73.3387 19.6253 74.5773 19.6503L75.2802 19.6673C76.5242 19.6928 77.7332 19.8516 78.8884 20.1461L79.5176 20.302C80.9567 20.6688 82.0863 21.5443 82.8679 22.8212L83.0529 23.121L83.2311 23.4113C83.7853 24.3171 84.4078 25.185 85.0814 26.0068L85.2978 26.2699L85.5209 26.5426C86.2081 27.3807 86.9328 28.193 87.7011 28.9749L87.9529 29.2272L88.1883 29.4767C89.0536 30.3572 89.828 31.3109 90.5084 32.3273L90.7125 32.6136L90.9002 32.8971C91.5231 33.8279 92.1556 34.7577 92.7953 35.6765L92.9994 35.9628L93.1871 36.2463C93.8403 37.1844 94.4868 38.1328 95.1135 39.0898L95.3012 39.3733L95.4862 39.6732C96.0837 40.5856 96.7184 41.4718 97.3842 42.3355L97.5978 42.6149L97.8046 42.8848C98.5829 43.8944 99.2156 45.0072 99.691 46.2173L99.8283 46.5512L99.9492 46.8824C100.312 47.8057 100.811 48.6283 101.444 49.3426L101.68 49.5922L101.912 49.858C102.701 50.7472 103.451 51.6997 104.174 52.7072L104.602 53.3084C105.086 53.9837 105.401 54.7514 105.429 55.5978C105.456 56.4449 105.19 57.2317 104.751 57.9376L104.36 58.5611C103.791 59.4765 103.354 60.4151 103.041 61.373L102.827 62.0431C102.444 63.2144 101.946 64.3355 101.34 65.4065L101.17 65.7142L100.994 66.0124C100.51 66.8663 100.154 67.7847 99.936 68.7673L99.8689 69.1174L99.7855 69.4647C99.476 70.8595 98.8112 72.0924 97.8232 73.1519L97.575 73.4296L97.3295 73.6909C96.662 74.4068 96.2055 75.193 95.9338 76.0532L95.7206 76.7233C95.3643 77.8521 94.9479 78.9548 94.4848 80.0365L94.355 80.3593L94.209 80.6793C93.7687 81.7074 93.3443 82.7455 92.9242 83.7827L92.7945 84.1055L92.658 84.4187C92.2362 85.4603 91.8207 86.5069 91.41 87.5535L91.2871 87.8858L91.1574 88.2085C90.7374 89.2785 90.2908 90.3383 89.8263 91.3882L89.6897 91.7014L89.5437 92.0214C89.0238 93.1962 88.3436 94.2472 87.496 95.1651L87.2697 95.4128L87.0528 95.6537C86.2221 96.5529 85.2601 97.3251 84.1858 97.971L83.886 98.156L83.5957 98.3342C82.3286 99.095 80.9221 99.3512 79.4454 99.1342L78.7399 99.0327C77.6692 98.8752 76.6046 98.809 75.5564 98.8268L75.2117 98.8279L74.8575 98.8357C73.9207 98.8525 72.9893 99.0415 72.063 99.4176L71.3952 99.6921C70.1783 100.186 68.9342 100.504 67.6658 100.638L67.3157 100.672L66.9723 100.715C65.6667 100.853 64.3499 100.748 63.0315 100.416L62.6679 100.33L62.3138 100.237C61.3964 100.005 60.5312 100.015 59.69 100.251L59.348 100.336L59.0032 100.438C57.7439 100.791 56.4611 100.931 55.1599 100.861L54.8016 100.843L54.4597 100.828C53.5169 100.777 52.582 100.908 51.6626 101.224L51.3246 101.336L50.9935 101.457C49.6703 101.912 48.3057 102.039 46.9213 101.841L46.2157 101.74C45.1497 101.587 44.1314 101.533 43.1603 101.572L42.8292 101.592L42.5009 101.596C41.1726 101.649 39.896 101.368 38.6996 100.766L38.4055 100.616L38.1018 100.472C36.9167 99.8751 35.9187 99.0212 35.1057 97.9451L34.6785 97.3862C33.9207 96.3814 33.2962 95.2845 32.8097 94.0987L32.5352 93.4309C32.1654 92.5303 31.662 91.7377 31.0102 91.0496L30.768 90.7906L30.5162 90.5383C29.6491 89.6236 28.9093 88.6133 28.2916 87.5188L28.123 87.2217L27.9475 86.915C27.432 86.0015 26.8411 85.1413 26.1789 84.3333L25.9558 84.0606L25.7394 83.7975C24.9781 82.8685 24.2845 81.888 23.6605 80.8612L23.4756 80.5614L23.3069 80.2642C22.7651 79.3725 22.1445 78.5291 21.4524 77.7437L21.2265 77.4874L20.9938 77.2215C20.1523 76.2665 19.4508 75.2088 18.8947 74.055L18.7452 73.7443L18.5888 73.424C18.1171 72.4452 17.5891 71.5116 17.0179 70.6149L16.8329 70.315L16.5211 69.807C15.8717 68.7148 15.525 67.5478 15.6187 66.3306L15.6421 66.0405L15.6628 65.7667C15.7428 64.7447 15.955 63.6458 16.2816 62.476L16.3813 62.1314L16.4716 61.7937C16.7846 60.6734 17.1209 59.5596 17.4759 58.4584L17.5825 58.1233L17.6958 57.7979C18.0799 56.6066 18.5867 55.4715 19.2315 54.4004L19.4075 54.1022L19.5931 53.7972C20.1334 52.8992 20.5969 51.9668 20.9783 50.9963L21.1012 50.664L21.231 50.3413C21.7041 49.1365 22.3692 48.0191 23.2107 47.0014L23.433 46.7278L23.6716 46.4569C24.2994 45.6975 24.755 44.87 25.0539 43.9748L25.1605 43.6397L25.2738 43.3143C25.6259 42.2579 25.9591 41.1808 26.2658 40.1029L26.356 39.7652L26.453 39.4369C26.8061 38.1959 27.3371 37.028 28.0378 35.9469L28.4225 35.356C28.9901 34.4811 29.4602 33.5609 29.8418 32.6028L30.1012 31.9573C30.5169 30.9139 30.9298 29.8689 31.3329 28.8197L31.4558 28.4874L31.576 28.1715ZM35.411 27.8985C35.0673 28.0671 34.6983 28.4366 34.3867 29.2476L34.1273 29.893C33.7203 30.9523 33.3098 32.0098 32.8902 33.0633L32.7605 33.386L32.6376 33.7183C32.1825 34.8606 31.6121 35.9493 30.9385 36.9876L30.5538 37.5785C30.0159 38.4084 29.6118 39.3026 29.3403 40.2569L29.2433 40.5852L29.1435 40.9297C28.8249 42.0492 28.4888 43.1643 28.1228 44.2623L28.0095 44.5878L27.9029 44.9228C27.4839 46.179 26.8386 47.328 25.9817 48.3649L25.7498 48.6453L25.5275 48.9189C24.8816 49.7 24.3829 50.5405 24.0294 51.4405L23.77 52.0859C23.3265 53.2154 22.7926 54.3027 22.165 55.3458L21.9794 55.6508L21.8034 55.9489C21.2775 56.8226 20.8543 57.7473 20.5408 58.72L20.4342 59.055L20.3304 59.3737C19.9879 60.4361 19.6638 61.5159 19.3616 62.5973L19.2618 62.9419L19.1716 63.2797C18.884 64.3095 18.7171 65.2206 18.6555 66.0078L18.6142 66.5554C18.5743 67.0654 18.7069 67.6758 19.1764 68.4141L19.371 68.7072L19.5492 68.9975C20.1846 69.995 20.7641 71.0376 21.2859 72.1201L21.5987 72.7606C22.0368 73.6688 22.5826 74.4988 23.2407 75.2455L23.4666 75.5019L23.6993 75.7677C24.5064 76.6837 25.2297 77.6602 25.8626 78.7013L26.2326 79.3011C26.7833 80.2071 27.3949 81.0741 28.0666 81.8938L28.2829 82.1569L28.5061 82.4296C29.2776 83.3712 29.9646 84.3751 30.5645 85.438L30.7331 85.7351L30.899 86.0486C31.3963 86.9298 32.0014 87.7382 32.7018 88.4765L32.9373 88.726L33.1795 88.985C34.0937 89.9488 34.8133 91.0521 35.3221 92.2933L35.4594 92.6271L35.5898 92.9515C35.9814 93.9067 36.4745 94.7832 37.0737 95.578L37.5009 96.1369C38.0462 96.8583 38.693 97.4001 39.4516 97.7829L39.7525 97.9426L40.0561 98.0859C40.8062 98.4635 41.5725 98.6335 42.3811 98.6016L42.7121 98.5815L43.0404 98.5777C44.2073 98.5312 45.4061 98.6014 46.6367 98.7772L46.9894 98.8279L47.3518 98.8718C48.2626 99.001 49.1444 98.9128 50.0166 98.6127L50.6925 98.3899C51.9703 97.9503 53.2807 97.7658 54.6164 97.8377L54.9678 97.8462L55.3166 97.871C56.2902 97.9235 57.2468 97.812 58.194 97.5467L58.536 97.4612L58.8807 97.3593C60.1618 97.0008 61.4695 96.9749 62.7826 97.2642L63.4089 97.4125L63.763 97.5055C64.7606 97.7568 65.7229 97.8285 66.6576 97.7302L67.0078 97.6965L67.3511 97.6532C68.3269 97.5501 69.297 97.3073 70.2643 96.9148L70.9321 96.6402C72.1863 96.131 73.4842 95.8594 74.8058 95.8359L75.16 95.8281L75.5047 95.827C76.7187 95.8064 77.944 95.8832 79.1703 96.0633L79.5231 96.1141L79.8827 96.1743C80.7007 96.2941 81.3983 96.1432 82.045 95.7554L82.3421 95.5867L82.642 95.4017C83.4808 94.8972 84.2093 94.3011 84.8396 93.6192L85.0728 93.381L85.2992 93.1332C85.9122 92.469 86.4141 91.6938 86.8066 90.8065L86.9431 90.4933L87.0892 90.1733C87.537 89.1611 87.9636 88.1342 88.3685 87.1025L88.4886 86.7866L88.6183 86.4638C89.0332 85.4067 89.4621 84.3512 89.8882 83.2991L90.1476 82.6536C90.5746 81.5994 91.0094 80.5488 91.4569 79.5038L91.5961 79.1743L91.7327 78.8611C92.1574 77.8693 92.5294 76.8517 92.8566 75.8147L93.0697 75.1447C93.4825 73.8397 94.1794 72.668 95.1354 71.6428L95.3809 71.3815L95.6359 71.1133C96.2718 70.4313 96.6718 69.6697 96.8613 68.8149L96.9284 68.4649L97.0118 68.1176C97.2927 66.8495 97.7521 65.6506 98.3855 64.5333L98.5615 64.2351L98.7307 63.9274C99.2386 63.0308 99.6544 62.0927 99.9757 61.1114L100.189 60.4413C100.581 59.2423 101.129 58.0859 101.82 56.9758L102.21 56.3523C102.399 56.0473 102.435 55.8343 102.43 55.6918C102.425 55.5489 102.368 55.3412 102.16 55.0499L101.738 54.4583C101.072 53.5297 100.38 52.6592 99.6627 51.8503L99.43 51.5845L99.2041 51.3282C98.3313 50.3437 97.6491 49.2205 97.161 47.9778L97.0305 47.6535L96.9028 47.3128C96.5278 46.3585 96.0394 45.4935 95.4394 44.7149L95.2162 44.4423L95.0094 44.1724C94.2965 43.2476 93.6247 42.2893 92.9849 41.3124L92.7904 41.0194L92.6027 40.7358C91.9915 39.8027 91.3608 38.8739 90.7239 37.9592L90.5362 37.6756L90.3321 37.3894C89.6825 36.4564 89.0423 35.5169 88.4098 34.5718L88.2152 34.2787L88.0275 33.9952C87.4529 33.1366 86.788 32.3373 86.053 31.589L85.8108 31.3299L85.559 31.0777C84.7279 30.2318 83.9388 29.3552 83.1938 28.4463L82.9706 28.1736L82.7542 27.9105C81.9935 26.9824 81.3014 25.9974 80.6754 24.9743L80.4972 24.6839L80.3122 24.3841C79.9138 23.7336 79.4123 23.3814 78.7766 23.2193L78.4552 23.1318L78.1406 23.0539C77.2205 22.8193 76.2441 22.6853 75.2148 22.6643L74.8633 22.6558L74.5186 22.6568C73.4841 22.6358 72.4557 22.7165 71.4438 22.906L71.114 22.9684L70.768 23.028C69.6102 23.2449 68.4442 23.412 67.2746 23.518L66.5744 23.5854C65.467 23.6857 64.3593 23.8014 63.2555 23.9366L62.5689 24.0232C61.5152 24.1523 60.4684 24.3515 59.4269 24.6224L58.7429 24.7934C57.4679 25.1249 56.168 25.2318 54.8506 25.1073L54.1395 25.0385C53.0963 24.9403 52.067 24.9541 51.0512 25.067L50.7011 25.1007L50.3673 25.1372C49.3005 25.2558 48.2336 25.4326 47.1777 25.6697L46.8452 25.7484L46.4964 25.8243C45.3711 26.077 44.2399 26.3113 43.1105 26.5255L42.7712 26.5947L42.4252 26.6543C41.2066 26.8852 39.9746 26.9789 38.7304 26.9425L38.0275 26.9255C37.6544 26.9146 37.3661 26.9268 37.1529 26.9301C37.0607 27 36.9777 27.0759 36.9021 27.1233C36.641 27.287 36.2957 27.4731 35.8948 27.6687L35.6577 27.7802L35.411 27.8985ZM37.8344 25.8051C37.8309 25.8458 37.8259 25.885 37.8173 25.924C37.8284 25.8844 37.8326 25.8438 37.8349 25.8023L37.8344 25.8051Z" fill="#9BEE3B"/>
</svg>
