<svg width="453" height="426" viewBox="0 0 453 426" fill="none" xmlns="http://www.w3.org/2000/svg">
<path fill-rule="evenodd" clip-rule="evenodd" d="M148.105 0.554294C154.254 -0.340239 160.41 -0.150661 166.533 1.11289L169.806 1.78867C174.555 2.7686 179.28 3.13319 183.994 2.89218L187.267 2.72422C192.706 2.44616 198.145 2.29808 203.584 2.27988L206.857 2.26914C211.982 2.25199 217.109 2.01703 222.237 1.56406L225.51 1.275C231.125 0.779012 236.742 0.629619 242.36 0.826755L245.633 0.94199C250.964 1.12909 256.295 1.32164 261.626 1.51914L264.899 1.64023C270.188 1.83618 275.478 1.99042 280.767 2.10312L284.04 2.17246C289.169 2.28173 294.298 2.17611 299.428 1.85605L302.701 1.65195C308.107 1.3147 313.59 1.06315 319.153 0.898044L322.525 0.798435C330.106 0.573409 336.719 3.4157 341.924 8.96738L344.298 11.4996C348.569 16.0551 352.121 20.9874 354.916 26.2975L356.441 29.1959C359.115 34.2764 361.351 39.5955 363.151 45.1461L364.182 48.3248C365.682 52.9536 367.693 57.2642 370.213 61.2721L371.957 64.0455C374.616 68.2748 377.587 72.3345 380.872 76.2252L383.02 78.7691C386.785 83.228 390.103 87.957 392.969 92.9527L394.598 95.7916C397.402 100.679 399.886 105.747 402.048 110.992L403.306 114.043C405.288 118.85 407.433 123.562 409.74 128.179L411.206 131.111C413.566 135.833 415.98 140.525 418.447 145.186L419.98 148.08C422.476 152.795 424.966 157.515 427.45 162.237L428.974 165.135C431.349 169.651 433.938 174.045 436.739 178.319L438.538 181.061C441.586 185.71 444.383 190.454 446.93 195.292L448.43 198.139C451.017 203.054 453.023 208.656 451.831 213.901L451.648 214.71L451.535 215.202C452.613 216.882 452.788 218.646 452.812 219.439C452.854 220.879 452.552 222.206 452.3 223.115C451.765 225.046 450.794 227.361 449.604 229.866L448.195 232.831C445.635 238.221 442.394 243.218 438.488 247.81L436.33 250.348C433.368 253.831 431.129 257.697 429.589 261.982L428.465 265.109C426.557 270.418 424.402 275.591 421.997 280.627L420.583 283.587C418.066 288.86 415.011 293.826 411.426 298.478L409.408 301.095C406.315 305.109 403.516 309.286 401.009 313.624L399.37 316.458C396.866 320.792 394.654 325.297 392.735 329.974L391.481 333.026C389.282 338.383 386.633 343.491 383.533 348.344L381.77 351.106C378.693 355.923 375.219 360.504 371.355 364.845L369.129 367.344C366.308 370.514 364.403 374.185 363.398 378.468L362.618 381.791C361.15 388.043 358.615 393.774 354.998 398.919L353.108 401.609C349.798 406.317 346.022 410.834 341.791 415.164L339.343 417.668C333.729 423.412 326.593 425.704 318.727 424.032L315.404 423.326C310.596 422.304 305.864 421.941 301.193 422.216L297.92 422.409C292.591 422.723 287.262 423.035 281.933 423.343L278.66 423.533C273.46 423.834 268.259 424.274 263.057 424.855L259.784 425.22C253.43 425.93 247.106 425.264 240.875 423.284L237.602 422.244C233.665 420.992 229.831 420.988 225.897 422.229L222.623 423.262C216.264 425.269 209.803 425.754 203.332 424.658L200.06 424.103C195.344 423.304 190.644 423.134 185.946 423.59L182.673 423.909C176.503 424.508 170.349 424.009 164.246 422.439L160.974 421.596C156.997 420.573 153.059 420.71 148.997 422.065L145.725 423.157C138.953 425.416 132.057 425.43 125.265 423.21L121.975 422.133C115.017 419.858 109.553 415.512 105.955 409.203L104.301 406.301C101.653 401.657 98.9442 397.114 96.176 392.671L94.4445 389.891C91.3073 384.856 88.8274 379.454 87.0012 373.704L85.9865 370.507C84.6055 366.159 82.4941 362.281 79.6408 358.825L77.5295 356.266C73.8721 351.836 70.5777 347.184 67.6506 342.312L65.9641 339.507C62.9544 334.498 60.5004 329.178 58.5978 323.56L57.5266 320.396C56.1418 316.307 53.906 312.735 50.7531 309.619L48.342 307.235C43.846 302.79 40.2553 297.752 37.6154 292.136L36.217 289.163C33.9278 284.293 31.6733 279.403 29.4514 274.494L28.0939 271.498C26.1273 267.153 23.6537 263.105 20.6652 259.345L18.6086 256.755C15.0677 252.3 11.8464 247.652 8.94843 242.811L7.26679 240.003C4.09053 234.697 2.01082 229.078 1.1164 223.176L0.657414 220.146C-0.195843 214.516 -0.212882 208.765 0.57343 202.919L1.00409 199.712C1.93478 192.792 5.1274 186.819 10.2814 181.962L12.7658 179.622C16.258 176.331 19.0244 172.689 21.1115 168.691L22.6271 165.788C24.8442 161.541 26.6013 156.999 27.8898 152.149L28.7609 148.869C30.3391 142.928 32.6485 137.362 35.6994 132.199L37.3644 129.381C40.385 124.269 44.0525 119.56 48.3449 115.256L50.7346 112.861C54.0435 109.544 56.6021 105.853 58.4562 101.771L59.8166 98.7769C62.1194 93.7076 64.6428 88.7636 67.3859 83.9469L69.0061 81.1021C71.7104 76.3535 74.5537 71.6854 77.5344 67.0982L79.3195 64.3502C82.2106 59.9009 85.075 55.436 87.9143 50.9566L89.6682 48.191C92.5508 43.6431 95.4879 39.1256 98.4777 34.6402L100.296 31.9117C102.961 27.9131 105.225 23.5502 107.079 18.8082L108.328 15.6168C109.737 12.0145 111.922 8.83728 115.082 6.51914C118.247 4.19746 121.933 3.07245 125.794 2.83847L129.177 2.63242C134.488 2.31061 139.707 1.7765 144.832 1.03086L148.105 0.554294Z" fill="#398A63"/>
</svg>
