<svg width="36" height="34" viewBox="0 0 36 34" fill="none" xmlns="http://www.w3.org/2000/svg">
<path d="M0.73877 2.6397C0.73877 1.59001 1.59916 0.739075 2.66051 0.739075H8.42573C9.48708 0.739075 10.3475 1.59001 10.3475 2.6397V7.70803C10.3475 8.75771 9.48708 9.60865 8.42573 9.60865H2.66051C1.59916 9.60865 0.73877 8.75771 0.73877 7.70803V2.6397Z" fill="#434343" fill-opacity="0.5"/>
<path d="M5.45081 0.00260774C5.74434 -0.00890196 6.03873 0.0181179 6.32862 0.0751595L6.63349 0.133201C6.79793 0.165333 6.9613 0.17438 7.12233 0.157385L7.26951 0.138038L7.42194 0.123527C7.68745 0.095506 7.95482 0.0844352 8.22091 0.0896699L8.37334 0.0945067H8.52577C8.84334 0.101025 9.15329 0.159519 9.45089 0.268631L9.59807 0.326672L9.74525 0.379877C10.0613 0.496276 10.3388 0.669965 10.5652 0.90225L10.765 1.1054C10.971 1.31719 11.1319 1.55689 11.2433 1.82124L11.3484 2.07275C11.4518 2.31867 11.5216 2.57541 11.5534 2.8418L11.585 3.12233C11.6167 3.38959 11.61 3.65833 11.5692 3.92524L11.5482 4.06551L11.5272 4.20094C11.5115 4.30322 11.5265 4.41183 11.5797 4.53468L11.6375 4.67494L11.7006 4.81521C11.8512 5.16173 11.8675 5.52689 11.7427 5.88414L11.6954 6.02441L11.6428 6.16467C11.6018 6.28211 11.5982 6.39017 11.6218 6.49841L11.6848 6.77895C11.7644 7.13893 11.7032 7.49483 11.5219 7.81885L11.3747 8.08004C11.2543 8.29519 11.1341 8.49268 11.012 8.67013L10.9384 8.77654L10.8701 8.87811C10.7253 9.08829 10.5486 9.28006 10.3445 9.44885L10.2393 9.53108L10.1342 9.61814C9.91422 9.79969 9.65848 9.94384 9.3773 10.0583L9.23538 10.1212L9.0882 10.1792C8.69546 10.3391 8.27744 10.3444 7.87924 10.2034L7.72681 10.1502L7.57963 10.097C7.43428 10.0455 7.30052 10.0288 7.17489 10.0389L7.02246 10.0534L6.87002 10.0631C6.65847 10.0806 6.44661 10.1116 6.234 10.1502L6.08157 10.1744L5.92913 10.2034C5.55288 10.2713 5.18075 10.2297 4.83056 10.0921L4.67812 10.0293L4.52569 9.97122C4.49713 9.96014 4.48128 9.95658 4.47312 9.95671C4.46503 9.95707 4.4405 9.9614 4.39953 9.9809L4.09467 10.126C3.75885 10.288 3.39604 10.3676 3.01711 10.3437L2.70173 10.3243C2.38198 10.304 2.06923 10.2351 1.7661 10.1212L1.60841 10.0631L1.45597 10.0051C1.09724 9.87002 0.796157 9.64986 0.56765 9.36179L0.367909 9.11028C0.0899092 8.75981 0.00862365 8.34739 0.136629 7.9301L0.231244 7.63022C0.274928 7.4879 0.274224 7.36659 0.247013 7.26262L0.210218 7.12719L0.173424 6.98693C0.109248 6.74173 0.0662462 6.49425 0.0420148 6.2469L0.0104767 5.96637C-0.0171942 5.68147 0.0108349 5.39514 0.0840656 5.11509L0.12086 4.97966L0.157655 4.83939C0.213271 4.6267 0.264496 4.41358 0.315345 4.20094L0.346883 4.06067L0.383678 3.9204C0.422882 3.75571 0.438098 3.59301 0.430985 3.43189L0.425729 3.29162L0.415216 3.15136C0.404968 2.92315 0.405101 2.70181 0.40996 2.48872V2.36296L0.415216 2.23237C0.423985 1.85507 0.59457 1.52031 0.91457 1.27952L1.02495 1.20213L1.13008 1.11991C1.28584 1.00282 1.44995 0.873489 1.61892 0.732963L1.72931 0.641064L1.84495 0.544328C1.94538 0.46084 2.05768 0.379574 2.17084 0.316999C2.22709 0.2859 2.30583 0.246449 2.40212 0.220263C2.44757 0.207949 2.5132 0.19463 2.59135 0.191242L2.85942 0.220263L2.89622 0.234773L2.93301 0.244447C2.91387 0.238638 2.90438 0.23706 2.91724 0.23961C2.92932 0.241954 2.95129 0.244874 2.98032 0.249284C3.04122 0.258481 3.12968 0.270228 3.24314 0.283141L3.39557 0.302489L3.548 0.316999C3.67472 0.331104 3.80542 0.319211 3.94749 0.273468L4.25236 0.176732C4.54569 0.0825341 4.84687 0.0290508 5.15119 0.0171181L5.30363 0.0122813L5.45081 0.00260774ZM5.50863 1.24083L5.35619 1.24566L5.20901 1.25534C5.04328 1.26183 4.87068 1.29031 4.69389 1.34723L4.38902 1.44397C4.06163 1.54907 3.7226 1.58456 3.3798 1.54554L3.22737 1.53103L3.07493 1.51169C2.96358 1.499 2.85156 1.47464 2.74904 1.45848V1.46332L2.6334 1.56005L2.51776 1.65195C2.33454 1.80431 2.15604 1.94644 1.98161 2.07759L1.87648 2.15981L1.7661 2.24204H1.76084C1.76042 2.24408 1.76114 2.24883 1.76084 2.25655L1.75559 2.38714V2.5129C1.75136 2.69836 1.75163 2.89805 1.76084 3.10299L1.7661 3.23842L1.77136 3.37868C1.78352 3.64919 1.7614 3.91953 1.69777 4.18643L1.66097 4.32669L1.62943 4.46696C1.57669 4.68753 1.51889 4.90908 1.46123 5.1296L1.42444 5.26987L1.3929 5.4053C1.35312 5.55742 1.33666 5.70783 1.35085 5.85512L1.38239 6.13565C1.40057 6.32135 1.43309 6.50886 1.48226 6.69672L1.51905 6.83699L1.55585 6.97242C1.642 7.30158 1.62446 7.63724 1.52431 7.96396L1.477 8.1139L1.42969 8.26868C1.41916 8.30413 1.42338 8.32126 1.42444 8.32672C1.42551 8.33221 1.43138 8.34892 1.45597 8.37992L1.65572 8.63144C1.73893 8.73635 1.83595 8.81161 1.96058 8.85876L2.27597 8.97485C2.45525 9.04214 2.62903 9.08033 2.79635 9.09093L2.95404 9.1006L3.10647 9.11028C3.21558 9.11719 3.3348 9.0974 3.46916 9.03289L3.62159 8.96034L3.77403 8.88295C4.18027 8.68758 4.62776 8.66582 5.05658 8.83458L5.36145 8.95066C5.48063 8.99731 5.57831 9.00629 5.67157 8.98936L5.82401 8.96034L5.97119 8.93615C6.22923 8.88931 6.49003 8.85119 6.74913 8.82974L6.90156 8.82007L7.05399 8.80556C7.39836 8.77728 7.73868 8.82608 8.06322 8.94099L8.21039 8.99419L8.36283 9.0474C8.43497 9.07294 8.48202 9.07135 8.54154 9.0474L8.68872 8.98936L8.8359 8.92648C9.00596 8.85706 9.13512 8.77722 9.23538 8.69431L9.34051 8.61209L9.44564 8.52503C9.56164 8.42891 9.65402 8.32481 9.72948 8.21547L9.80307 8.1139L9.8714 8.00749C9.96896 7.86583 10.0751 7.69955 10.1815 7.5093L10.3287 7.24811C10.3742 7.1659 10.3816 7.09836 10.3655 7.02562L10.3024 6.74509C10.2314 6.42175 10.2554 6.0966 10.3655 5.78257L10.4128 5.6423L10.4601 5.50687C10.4866 5.43132 10.4871 5.36099 10.4496 5.27471L10.3865 5.13444L10.3287 4.99901C10.194 4.68923 10.147 4.36214 10.1973 4.03165L10.2393 3.75112C10.2645 3.58583 10.264 3.42177 10.2446 3.25777L10.2131 2.97723C10.1934 2.81266 10.1519 2.65962 10.0922 2.51774L9.98704 2.26622C9.93514 2.14377 9.85986 2.03412 9.76102 1.93249L9.66115 1.83091L9.56653 1.72934C9.48656 1.64732 9.38264 1.57647 9.2459 1.5262L8.95154 1.41979C8.79731 1.36333 8.64558 1.3357 8.49424 1.33272L8.3418 1.32789H8.18937C7.98529 1.32397 7.77902 1.33047 7.57437 1.35207L7.4272 1.37142L7.27476 1.38593C6.96557 1.41856 6.65537 1.40256 6.34964 1.3424L6.04477 1.28436C5.86441 1.24903 5.68538 1.23389 5.50863 1.24083Z" fill="#434343"/>
<path d="M13.3044 2.6397C13.3044 1.59001 14.2641 0.739075 15.4479 0.739075H32.5958C33.7796 0.739075 34.7392 1.59001 34.7392 2.6397V7.70803C34.7392 8.75771 33.7796 9.60865 32.5958 9.60865H15.4479C14.2641 9.60865 13.3044 8.75771 13.3044 7.70803V2.6397Z" fill="#434343" fill-opacity="0.5"/>
<path d="M30.7881 0.124382C31.1334 0.0155733 31.4926 -0.0235313 31.8559 0.0137394L32.1768 0.0426027C32.4996 0.0759032 32.8116 0.155511 33.1119 0.273509L33.2668 0.331236L33.4162 0.393773C33.7213 0.513651 33.9968 0.672632 34.2351 0.870018L34.3512 0.961418L34.4619 1.05763C34.7381 1.28664 34.9233 1.56899 35.0041 1.89467L35.0705 2.15444C35.1143 2.33201 35.1733 2.51942 35.2476 2.71246L35.3029 2.85197L35.3527 2.99147C35.4676 3.29049 35.5068 3.59878 35.4578 3.91029L35.4136 4.1893C35.3778 4.4146 35.3347 4.64252 35.2863 4.86759L35.2586 5.00228L35.2254 5.14179C35.201 5.25549 35.2091 5.37044 35.2531 5.49296L35.3029 5.63247L35.3527 5.76716C35.4601 6.06639 35.4913 6.37675 35.4412 6.68598L35.4191 6.82548L35.397 6.96018C35.3657 7.15309 35.3484 7.35017 35.3416 7.54707L35.3361 7.68657L35.3306 7.83089C35.3173 8.20273 35.1519 8.53681 34.8492 8.80262L34.7386 8.90364L34.6279 8.99985C34.4878 9.12282 34.3498 9.26851 34.2185 9.43761L34.0193 9.69738C33.8811 9.87512 33.685 10.0327 33.4273 10.1255C33.1688 10.2181 32.9016 10.2262 32.6582 10.1832L32.4867 10.1496L32.3152 10.1207C32.1122 10.0851 31.9268 10.077 31.7563 10.0918L31.4354 10.1207C31.0918 10.1504 30.7502 10.1169 30.4174 10.0293L30.2569 9.99083L30.102 9.94753C29.9527 9.90822 29.8096 9.90042 29.6704 9.91867L29.51 9.93791L29.3495 9.96196C29.1202 9.99249 28.8881 10.0306 28.6579 10.0774L28.503 10.1111L28.3425 10.14C27.9891 10.2119 27.6283 10.216 27.2747 10.1448L27.1198 10.1111L26.9593 10.0774C26.7621 10.0377 26.566 10.0206 26.3728 10.0197H26.2124L26.0519 10.0149C25.8087 10.0139 25.5649 10.0166 25.3216 10.0197L25.1611 10.0245H25.0007C24.7894 10.0273 24.5771 10.0421 24.3644 10.0726L24.0435 10.1207C23.6643 10.1747 23.2893 10.1354 22.9314 10.0149L22.6105 9.90905C22.5534 9.89005 22.5106 9.88647 22.4334 9.91867L22.1125 10.0534C21.8013 10.1837 21.4776 10.2698 21.1443 10.3035L20.9838 10.3179L20.8234 10.3372C20.4225 10.3773 20.0347 10.3023 19.6781 10.1448L19.5176 10.0774L19.3627 10.0053C19.1891 9.9286 19.0305 9.88977 18.8869 9.88018L18.566 9.86094C18.3288 9.84549 18.0893 9.83335 17.8522 9.82727L17.6973 9.82246H17.5368C17.3408 9.81743 17.1433 9.82903 16.9448 9.86094L16.7844 9.88499L16.6239 9.91386C16.3837 9.95265 16.1398 9.99252 15.8936 10.0389L15.7276 10.0726L15.5671 10.1015C15.145 10.181 14.7266 10.1283 14.3499 9.94272L14.0622 9.7984C13.7217 9.63026 13.4551 9.38979 13.2821 9.08163L13.2101 8.96137L13.1437 8.83629C13.0009 8.58153 12.9076 8.3125 12.8782 8.03293L12.8671 7.90305L12.8505 7.77316C12.8329 7.60685 12.7992 7.43065 12.7454 7.244L12.6679 6.96499C12.5895 6.69367 12.5547 6.41896 12.5683 6.14238L12.5794 5.86337C12.5909 5.63122 12.6175 5.39764 12.6513 5.16584L12.6679 5.03115L12.69 4.89164C12.7212 4.67776 12.7494 4.4609 12.7786 4.24703L12.8007 4.11233L12.8173 3.97282C12.8361 3.83474 12.8266 3.69326 12.7841 3.5495L12.7454 3.40999L12.7011 3.27529C12.621 3.00421 12.5848 2.7235 12.5905 2.43826L12.596 2.28913V2.13519C12.6055 1.69353 12.8511 1.32464 13.2821 1.0913L13.4259 1.00952L13.5753 0.932555C13.8098 0.805592 14.0383 0.686637 14.2614 0.576574L14.3997 0.504416L14.538 0.437068C14.6572 0.378292 14.7796 0.326684 14.8921 0.287941C14.9482 0.268735 15.0192 0.244234 15.0968 0.230214H15.4565L15.5339 0.249457C15.5841 0.259383 15.7311 0.281903 15.9821 0.326425L16.1426 0.355289L16.2975 0.384152C16.4547 0.412036 16.6113 0.414598 16.7678 0.388963L16.9282 0.360099L17.0887 0.336046C17.3414 0.294291 17.594 0.252758 17.8467 0.215783L18.1676 0.167677C18.5015 0.119126 18.8369 0.127372 19.169 0.186919L19.4899 0.244646C19.7333 0.288287 19.977 0.3291 20.2203 0.36972L20.3807 0.398584L20.5412 0.422636C20.6468 0.440239 20.7555 0.433892 20.8842 0.388963L21.0447 0.331236L21.2051 0.27832C21.5206 0.167647 21.8463 0.100315 22.1789 0.0858977L22.3394 0.0810872L22.4943 0.0714661C22.8875 0.0544222 23.266 0.140807 23.6119 0.302373L23.7724 0.379341L23.9273 0.4515C24.0322 0.500494 24.0985 0.498317 24.1542 0.485174L24.3091 0.446689L24.4695 0.413015C24.813 0.331887 25.165 0.314854 25.5152 0.36491L25.6757 0.384152L25.8362 0.408205C25.9816 0.428695 26.1271 0.423974 26.2788 0.388963L26.5997 0.311994C26.8593 0.2518 27.1198 0.200468 27.3798 0.153245L27.7007 0.0955188C28.0712 0.0285242 28.4415 0.048045 28.8018 0.148435L29.1227 0.235025C29.302 0.285084 29.4743 0.30809 29.6428 0.307183H29.9637C30.1258 0.306105 30.296 0.281089 30.4727 0.225404L30.6276 0.172488L30.7881 0.124382ZM31.6899 1.23562C31.5581 1.22211 31.4193 1.2317 31.2694 1.27891L31.1145 1.33183L30.9541 1.37994C30.6358 1.48023 30.3077 1.53645 29.9747 1.53868H29.6538C29.3279 1.54066 29.0062 1.49659 28.6911 1.4088L28.5307 1.3655L28.3702 1.3174C28.2363 1.28017 28.1123 1.27576 27.9884 1.29816L27.6675 1.35588C27.4332 1.39845 27.1997 1.45055 26.9649 1.50501L26.8044 1.53868L26.644 1.57717C26.3016 1.65648 25.9525 1.67509 25.6038 1.62527L25.2829 1.57717C25.1382 1.5568 24.9916 1.56547 24.8402 1.60122L24.6853 1.6349L24.5249 1.67338C24.0848 1.77732 23.6487 1.72124 23.2578 1.53868L23.0974 1.46172L22.9425 1.38956C22.7926 1.31958 22.6688 1.29852 22.5662 1.30297L22.4058 1.30778L22.2509 1.3174C22.0882 1.32445 21.9159 1.35557 21.7363 1.41842L21.5758 1.47615L21.4154 1.52906C21.0497 1.65739 20.6646 1.69945 20.2756 1.6349L20.1152 1.60603L19.9547 1.58198C19.7036 1.54007 19.4533 1.49231 19.2022 1.44728L19.0418 1.42323L18.8813 1.39437C18.7191 1.36542 18.5604 1.36128 18.4 1.38475L18.0791 1.43285C17.8376 1.46819 17.5957 1.5036 17.3543 1.5435L17.1938 1.57236L17.0334 1.59641C16.6948 1.65231 16.3531 1.65152 16.0153 1.5916L15.8549 1.56274L15.6999 1.53387C15.5417 1.5058 15.4159 1.48246 15.3292 1.46653C15.3037 1.47805 15.2747 1.49306 15.2407 1.50982L14.9641 1.64452C14.7582 1.74603 14.5428 1.85703 14.3222 1.97645L14.1784 2.05822L14.029 2.13519C14.0231 2.13839 14.0157 2.13783 14.0124 2.14V2.30837L14.0069 2.4575C14.0032 2.638 14.0262 2.80803 14.0733 2.96742L14.1175 3.10693L14.1563 3.24643C14.2407 3.53306 14.2625 3.82486 14.2227 4.11714L14.2061 4.25665L14.1895 4.39134C14.1599 4.60849 14.127 4.82843 14.0954 5.04558L14.0733 5.18508L14.0567 5.32459C14.028 5.5221 14.0056 5.71913 13.9958 5.91629L13.9847 6.1953C13.9771 6.34955 13.994 6.50722 14.0401 6.66673L14.0788 6.80143L14.1175 6.94094C14.1879 7.18433 14.2365 7.42635 14.2614 7.66252L14.278 7.7924L14.289 7.92229C14.3022 8.04557 14.345 8.17036 14.4163 8.29751L14.4827 8.41778L14.5546 8.54285C14.5956 8.61544 14.6543 8.67849 14.7593 8.73046L14.9032 8.79781L15.0471 8.86997C15.1182 8.90501 15.1835 8.91483 15.2684 8.89883L15.4288 8.86516L15.5948 8.83629C15.8537 8.7875 16.1101 8.74259 16.3639 8.7016L16.5243 8.67755L16.6848 8.64868C16.9803 8.60103 17.2776 8.58345 17.5756 8.59096L17.736 8.59577H17.8965C18.1548 8.60239 18.4129 8.61743 18.6711 8.63425L18.992 8.65349C19.3432 8.67653 19.6834 8.76665 20.0045 8.90845L20.1594 8.9758L20.3199 9.04796C20.4583 9.10907 20.5689 9.12001 20.6629 9.1105L20.8234 9.09606L20.9783 9.08163C21.1402 9.06525 21.3143 9.01929 21.4984 8.94213L21.8193 8.80743C22.236 8.63344 22.6881 8.61227 23.125 8.75933L23.2855 8.81224L23.4404 8.86516C23.5774 8.91126 23.701 8.92024 23.8167 8.90364L23.9771 8.87959L24.132 8.86035C24.4142 8.81986 24.7006 8.7966 24.9841 8.793H25.1445L25.2995 8.78819C25.5515 8.78498 25.8054 8.7824 26.0575 8.78338L26.2179 8.78819H26.3784C26.68 8.78944 26.9827 8.81967 27.2802 8.87959L27.4352 8.91326L27.5956 8.94213C27.737 8.9706 27.8746 8.97064 28.0161 8.94213L28.1766 8.90845L28.337 8.87959C28.602 8.82565 28.8679 8.78031 29.1337 8.74489L29.2942 8.72084L29.4547 8.7016C29.8102 8.65437 30.166 8.67802 30.5114 8.76895L30.6719 8.81224L30.8268 8.85073C30.989 8.89342 31.1457 8.90722 31.2971 8.89402L31.4576 8.87959L31.6125 8.86516C31.9368 8.83689 32.2678 8.85528 32.5973 8.91326L32.7688 8.94694L32.874 8.96137L32.9459 8.87959L33.04 8.7497C33.216 8.52269 33.4118 8.31757 33.6209 8.13395L33.7316 8.03774L33.8422 7.93672C33.8888 7.89579 33.9118 7.8585 33.9142 7.7924L33.9197 7.6529L33.9252 7.50858C33.9336 7.26796 33.9533 7.02879 33.9916 6.79181L34.0193 6.6523L34.0414 6.5128C34.0609 6.39182 34.0493 6.2684 34.0027 6.13757L33.9031 5.85856C33.7924 5.55008 33.7685 5.233 33.8367 4.91569L33.892 4.63668C33.9361 4.43135 33.9757 4.22603 34.0082 4.02093L34.0303 3.88142L34.0525 3.74673C34.0711 3.62906 34.0622 3.50759 34.0137 3.38113L33.9584 3.24162L33.9031 3.10693C33.8131 2.87336 33.7433 2.64103 33.6873 2.41421L33.6209 2.15444C33.6017 2.07664 33.5638 2.01063 33.4881 1.94758L33.3719 1.85137L33.2557 1.75997C33.1407 1.66485 33.0039 1.58099 32.8352 1.51463L32.6803 1.45691L32.5309 1.39437C32.3574 1.32618 32.1831 1.2872 32.0108 1.26929L31.8504 1.25005L31.6899 1.23562Z" fill="#434343"/>
<path d="M0.73877 14.4658C0.73877 13.4161 1.59916 12.5652 2.66051 12.5652H8.42573C9.48708 12.5652 10.3475 13.4161 10.3475 14.4658V19.5341C10.3475 20.5838 9.48708 21.4348 8.42573 21.4348H2.66051C1.59916 21.4348 0.73877 20.5838 0.73877 19.5341V14.4658Z" fill="#434343" fill-opacity="0.5"/>
<path d="M5.39508 11.8931C5.83723 11.7594 6.27439 11.8336 6.65408 12.0478L6.80558 12.13L6.95186 12.217C7.08467 12.2919 7.181 12.3001 7.24963 12.2944L7.40113 12.2847L7.5474 12.2702C7.6956 12.2579 7.85784 12.2189 8.02802 12.1445L8.17429 12.0816L8.32579 12.014C8.54048 11.9201 8.79198 11.8674 9.05716 11.9076C9.32047 11.9478 9.53933 12.0684 9.71017 12.217L9.83032 12.3282L9.9557 12.4346C10.0866 12.5484 10.2189 12.6221 10.3527 12.6666L10.6453 12.7633C11.0512 12.8985 11.3499 13.1675 11.5281 13.5224L11.5961 13.6578L11.6692 13.798C11.8453 14.1494 11.8757 14.5287 11.7476 14.9003L11.6953 15.0405L11.6483 15.1807C11.5938 15.3387 11.5708 15.4886 11.5752 15.6303L11.5856 15.9107C11.5914 16.09 11.6127 16.2707 11.6535 16.4522L11.7162 16.7326C11.7884 17.0556 11.7669 17.3803 11.6588 17.6947L11.6117 17.8349L11.5647 17.9703C11.5101 18.1291 11.482 18.2845 11.4811 18.4344V18.7148C11.4802 18.9483 11.4717 19.1776 11.4498 19.4014L11.4341 19.5319L11.4237 19.6673C11.3935 19.972 11.2832 20.2574 11.0893 20.5085L10.9326 20.7116C10.8068 20.8741 10.6684 21.0438 10.5199 21.2192L10.4311 21.3304L10.3371 21.4368C10.0578 21.7666 9.65695 21.9328 9.20866 21.9154L8.90566 21.9057C8.66393 21.8963 8.42373 21.8816 8.18474 21.8671L7.88174 21.8477C7.70394 21.837 7.52383 21.851 7.34366 21.8816L7.19739 21.9057L7.04589 21.9299C6.76558 21.9775 6.48219 21.9969 6.19959 21.9879L5.89659 21.9782C5.72298 21.9728 5.54704 21.9884 5.36896 22.0266L5.21746 22.0604L5.07119 22.0943C4.7806 22.1567 4.48343 22.1823 4.18832 22.1716L4.03682 22.1668L3.89055 22.1571C3.57464 22.1457 3.2666 22.0814 2.97111 21.9686L2.82483 21.9154L2.67856 21.8574C2.53279 21.8016 2.36845 21.7704 2.18227 21.7655L1.84271 21.7559C1.35924 21.7432 0.954464 21.5316 0.693409 21.1564L0.599375 21.021L0.510566 20.8904C0.282282 20.5614 0.189916 20.1873 0.25981 19.7978L0.28593 19.6479L0.312051 19.5029C0.336728 19.3654 0.326932 19.2401 0.28593 19.1209L0.191897 18.8405C0.101009 18.5784 0.0438296 18.3119 0.0247263 18.0428L0.00383003 17.7624C-0.0201103 17.4206 0.0693715 17.0941 0.238914 16.7906L0.317275 16.6504L0.390412 16.5102C0.466662 16.3739 0.492072 16.2578 0.489669 16.1573V16.0171L0.484445 15.8817C0.480845 15.7311 0.454112 15.5733 0.395636 15.4127L0.343395 15.2774L0.291154 15.1372C0.153027 14.758 0.189803 14.3666 0.411308 14.0155L0.489669 13.8947L0.568031 13.769C0.704985 13.5522 0.85472 13.352 1.0173 13.1743L1.10089 13.0824L1.1897 12.9857C1.34363 12.8175 1.51947 12.6451 1.71733 12.4733L1.83748 12.3717L1.95241 12.2702C2.05791 12.1785 2.18915 12.0778 2.33377 12.0091C2.41137 11.9724 2.65164 11.8725 2.91887 11.9366L3.19052 12.0623L3.22709 12.0913L3.23231 12.0961C3.23833 12.0987 3.24709 12.1016 3.25843 12.1058C3.30671 12.1238 3.38238 12.1484 3.48829 12.1783L3.79129 12.2654C3.90033 12.2961 4.00185 12.295 4.10996 12.2654L4.26145 12.2219L4.40773 12.1832C4.635 12.121 4.86466 12.0538 5.09208 11.985L5.24358 11.9414L5.39508 11.8931ZM5.95928 13.1018C5.87235 13.0527 5.83865 13.065 5.81301 13.0728L5.51001 13.1598C5.26998 13.2324 5.02927 13.3019 4.78909 13.3677L4.63759 13.4112L4.49131 13.4499C4.13197 13.5482 3.76313 13.5457 3.40471 13.445L3.25321 13.4063L3.10171 13.3628C2.97908 13.3283 2.86899 13.2871 2.77259 13.2516L2.7517 13.2758L2.63154 13.3773C2.46412 13.5228 2.32325 13.6579 2.20839 13.7835L2.12481 13.8801L2.036 13.9768C1.93048 14.0924 1.82541 14.23 1.72255 14.3926L1.64419 14.5183L1.56583 14.6392C1.55075 14.6631 1.55068 14.6775 1.55016 14.6827C1.54965 14.6898 1.54858 14.7077 1.56061 14.7407L1.61285 14.8809L1.65986 15.0211C1.75884 15.2933 1.81507 15.5706 1.82181 15.8527L1.82703 15.9929V16.1331C1.8346 16.4651 1.74725 16.7844 1.5815 17.0807L1.50314 17.2161L1.42478 17.3563C1.3531 17.4844 1.33527 17.59 1.34119 17.6802L1.35164 17.8204L1.35687 17.9606C1.36842 18.1243 1.4074 18.2928 1.46657 18.4634L1.51359 18.6036L1.56061 18.739C1.66931 19.0525 1.69219 19.3803 1.63374 19.7059L1.60762 19.851L1.5815 20.0009C1.56816 20.0752 1.57712 20.1416 1.63374 20.2233L1.72778 20.3538L1.81659 20.4843L1.84271 20.5133C1.84699 20.5144 1.86102 20.5176 1.87927 20.5182L2.21884 20.5278C2.55639 20.5366 2.88388 20.5991 3.19052 20.7164L3.33157 20.7696L3.47784 20.8276C3.63489 20.8876 3.79115 20.9188 3.94279 20.9243L4.08906 20.9291L4.24056 20.934C4.41352 20.9402 4.5907 20.9237 4.76819 20.8856L4.91446 20.8518L5.06596 20.8228C5.35551 20.7606 5.64958 20.7312 5.94361 20.7406L6.2466 20.7502C6.43113 20.756 6.61877 20.7433 6.80558 20.7116L6.95186 20.6874L7.10335 20.6632C7.39079 20.6144 7.68075 20.5972 7.97055 20.6149L8.27355 20.6342C8.50157 20.6481 8.73217 20.6591 8.96313 20.668L9.26612 20.6777H9.27657L9.28179 20.6729L9.37583 20.5665L9.46986 20.4553C9.60786 20.2923 9.73288 20.1374 9.846 19.9912L10.0027 19.7881C10.0474 19.7299 10.0813 19.655 10.0915 19.5512L10.102 19.4207L10.1176 19.2902C10.1359 19.1037 10.143 18.9096 10.1438 18.71V18.4344C10.1449 18.1522 10.1962 17.8712 10.29 17.598L10.3841 17.3176C10.4244 17.2001 10.4293 17.093 10.405 16.984L10.3423 16.7036C10.2859 16.4525 10.2563 16.1979 10.2483 15.9446L10.243 15.8092L10.2378 15.669C10.2285 15.3778 10.2761 15.0862 10.3736 14.8036L10.4206 14.6634L10.4729 14.5232C10.4966 14.4544 10.4907 14.3973 10.452 14.3201L10.3841 14.1799L10.3162 14.0445C10.2788 13.9701 10.24 13.9449 10.1908 13.9285L9.89824 13.8318C9.57778 13.7249 9.29358 13.5532 9.04149 13.3338L8.91611 13.2275L8.83252 13.1549L8.74894 13.1985L8.59744 13.2661C8.29964 13.3963 7.98732 13.4764 7.66755 13.503L7.51606 13.5175L7.36978 13.5272C6.97033 13.5605 6.59231 13.4601 6.25705 13.271L6.10555 13.1888L5.95928 13.1018Z" fill="#434343"/>
<path d="M13.3044 14.4658C13.3044 13.4161 14.2641 12.5652 15.4479 12.5652H32.5958C33.7796 12.5652 34.7392 13.4161 34.7392 14.4658V19.5341C34.7392 20.5838 33.7796 21.4348 32.5958 21.4348H15.4479C14.2641 21.4348 13.3044 20.5838 13.3044 19.5341V14.4658Z" fill="#434343" fill-opacity="0.5"/>
<path d="M16.9061 11.9884C17.3319 11.7957 17.8005 11.7704 18.2502 11.9352L18.405 11.9932L18.5654 12.0512C18.7637 12.1239 18.9596 12.1713 19.1462 12.1963L19.3011 12.2156L19.4615 12.2398C19.6845 12.2696 19.9087 12.2891 20.1308 12.2978L20.2912 12.3026L20.4461 12.3074C20.6664 12.316 20.8894 12.3162 21.1099 12.3026L21.4307 12.2833C21.6428 12.2701 21.858 12.2424 22.0723 12.2011L22.2272 12.1672L22.3876 12.1382C22.6893 12.08 22.9946 12.0549 23.3003 12.0609H23.4607L23.6211 12.0657C23.9157 12.0716 24.2092 12.1059 24.5006 12.1624L24.8214 12.2204C24.9992 12.2548 25.1733 12.2673 25.3469 12.2543L25.5073 12.2398L25.6677 12.2301C25.9367 12.2098 26.2059 12.1993 26.4752 12.2011H26.6357L26.7961 12.2059C26.9296 12.2068 27.0633 12.21 27.1971 12.2156L27.7585 12.2494L27.9134 12.2639C28.1486 12.2827 28.3863 12.2942 28.6214 12.3026L28.7818 12.3123L28.9422 12.3171C29.1482 12.3244 29.3548 12.3167 29.5617 12.2929L29.8825 12.2543C30.1398 12.2246 30.3995 12.1974 30.6569 12.1769L30.8118 12.1672L30.9722 12.1527C31.2409 12.1314 31.5109 12.1233 31.7798 12.1237H32.1006C32.3794 12.1243 32.6565 12.1386 32.9303 12.1721L33.0907 12.1914L33.2456 12.2108C33.6494 12.2604 34.0023 12.4242 34.2799 12.6845L34.385 12.7861L34.4957 12.8876C34.7762 13.1509 34.9381 13.4783 34.9437 13.8448V14.1059C34.9448 14.1802 34.9715 14.2833 35.0654 14.4201L35.2535 14.6909C35.5133 15.0692 35.5553 15.4994 35.342 15.9091L35.1981 16.1895C35.1511 16.2801 35.1487 16.3455 35.1705 16.4119L35.2147 16.5521L35.259 16.6875C35.3425 16.9423 35.3958 17.2019 35.4194 17.461L35.436 17.6012L35.4471 17.7366C35.4693 17.9807 35.4734 18.2272 35.4581 18.4714L35.4471 18.6116L35.4415 18.7518C35.4271 18.9816 35.4025 19.2121 35.3696 19.4432L35.3254 19.7236C35.2836 20.0163 35.1838 20.2982 35.0267 20.5599L34.9548 20.6856L34.8773 20.8113C34.7116 21.0874 34.4834 21.3265 34.2025 21.522L33.937 21.7057C33.5617 21.9669 33.1096 22.0552 32.6427 21.9668L32.4767 21.9378L32.3053 21.9039C32.1294 21.8707 31.9692 21.8711 31.8185 21.8943L31.4977 21.9426C31.1368 21.9986 30.7757 21.9783 30.4246 21.8846L30.1038 21.7976C29.9967 21.769 29.8983 21.771 29.7885 21.8024L29.4677 21.8894C29.1891 21.9691 28.9092 22.0309 28.6269 22.0731L28.3061 22.1215C28.0085 22.1659 27.7097 22.1826 27.41 22.1698L27.2496 22.165L27.0892 22.1553C26.7879 22.1424 26.4888 22.1015 26.1931 22.0296L25.8723 21.9523C25.6395 21.8957 25.4075 21.845 25.1754 21.8024L24.8546 21.7444C24.7755 21.7302 24.6857 21.7323 24.5669 21.7831L24.4121 21.8556L24.2516 21.9233C23.8487 22.0954 23.4078 22.1299 22.9739 22.0055L22.819 21.9619L22.6586 21.9136C22.568 21.8876 22.4863 21.8904 22.3876 21.9233L22.0668 22.0296C21.6793 22.1584 21.2718 22.1754 20.872 22.0731L20.7116 22.0296L20.5567 21.991C20.4145 21.9546 20.2764 21.9489 20.1419 21.9716L19.987 22.0006L19.8266 22.0248C19.4328 22.0912 19.0438 22.0482 18.6761 21.9136L18.3553 21.7976C18.2225 21.7492 18.1075 21.7433 18.0013 21.7589L17.8464 21.7782L17.686 21.8024C17.4486 21.8373 17.2101 21.8788 16.9724 21.9233L16.6516 21.9813C16.3605 22.0357 16.0656 22.0679 15.7666 22.0731H15.6007L15.4347 22.078C15.0459 22.0844 14.6749 21.9979 14.3395 21.8266L14.1957 21.7541L14.0519 21.6767C13.746 21.5204 13.4834 21.3193 13.272 21.0724L13.0728 20.8403C12.853 20.583 12.7132 20.2917 12.6525 19.975L12.6248 19.8299L12.5971 19.6897C12.5365 19.3715 12.5631 19.0548 12.6746 18.747L12.7742 18.4666C12.8315 18.3087 12.8581 18.156 12.8571 18.0073V17.7318C12.8555 17.4975 12.8635 17.26 12.8848 17.0259L12.8958 16.8906L12.9124 16.7504C12.9303 16.5532 12.938 16.3527 12.9346 16.1557L12.929 16.0203V15.8801C12.9259 15.7014 12.9036 15.5195 12.8627 15.3387L12.8295 15.1985L12.7963 15.0631C12.7441 14.8327 12.7017 14.5899 12.6635 14.3379L12.6414 14.1832L12.6137 14.0285C12.5807 13.8103 12.6068 13.5708 12.741 13.3469C12.8754 13.123 13.087 12.9689 13.3107 12.8682L13.6315 12.7232C13.8247 12.6361 14.0007 12.5323 14.157 12.409L14.2842 12.3074L14.417 12.2011C14.5351 12.1079 14.6896 12.0011 14.865 11.9352C15.0307 11.8729 15.4575 11.7738 15.7998 12.0802L15.8164 12.0947C15.827 12.0975 15.8398 12.1009 15.8551 12.1044C15.8882 12.1118 15.9325 12.1204 15.9823 12.1286L16.1427 12.1527L16.3031 12.1817C16.3778 12.1935 16.4647 12.1875 16.5852 12.1334L16.9061 11.9884ZM17.7026 13.0761C17.6571 13.0595 17.6269 13.0553 17.5587 13.0858L17.2379 13.2308C16.8655 13.3993 16.4575 13.4644 16.0376 13.3952L15.8772 13.371L15.7168 13.342C15.5742 13.3184 15.4338 13.2902 15.3075 13.2502C15.2858 13.2433 15.2611 13.2305 15.2356 13.2212V13.226L15.1028 13.3275C14.8539 13.5238 14.5791 13.6903 14.2787 13.8255L14.1183 13.898L14.0298 13.9367L14.0464 14.0189L14.0685 14.1736C14.1031 14.4022 14.1443 14.6189 14.1902 14.8214L14.2178 14.9616L14.251 15.1018C14.3079 15.3535 14.3406 15.607 14.345 15.8608V16.001L14.3506 16.1364C14.3547 16.3725 14.3443 16.6111 14.3229 16.847L14.3119 16.9872L14.2953 17.1274C14.2773 17.3257 14.2718 17.524 14.2731 17.7221V18.0025C14.2749 18.2864 14.2235 18.569 14.1238 18.8437L14.074 18.9791L14.0242 19.1193C13.9789 19.2442 13.9678 19.3646 13.991 19.4867L14.0187 19.6269L14.0464 19.7719C14.0699 19.8935 14.1216 20.0011 14.2068 20.1007L14.4059 20.3327C14.501 20.4434 14.6198 20.5338 14.7654 20.6083L14.9092 20.6856L15.0586 20.7582C15.1745 20.8171 15.2862 20.8422 15.4071 20.8403L15.573 20.8355H15.7389C15.9489 20.8318 16.1559 20.8106 16.3585 20.7727L16.5189 20.7436L16.6737 20.7146C16.9309 20.6665 17.1907 20.622 17.4481 20.5841L17.7689 20.5358C18.1576 20.4787 18.5408 20.5242 18.9029 20.6566L19.2237 20.7727C19.3502 20.8189 19.4547 20.828 19.5556 20.8113L19.716 20.7823L19.8764 20.7582C20.2375 20.6973 20.6016 20.7113 20.955 20.8017L21.1099 20.8452L21.2703 20.8838C21.3655 20.9082 21.4558 20.9052 21.5634 20.8693L21.7238 20.8162L21.8842 20.7678C22.2807 20.6359 22.6966 20.6228 23.1011 20.7388L23.256 20.7823L23.4164 20.8307C23.4775 20.8482 23.5354 20.8498 23.6266 20.8113L23.787 20.7436L23.9474 20.6711C24.323 20.5109 24.7321 20.4547 25.1477 20.5309L25.3081 20.5648L25.4685 20.5938C25.7304 20.6419 25.9928 20.6947 26.254 20.7582L26.5748 20.8355C26.7731 20.8836 26.9684 20.9143 27.1611 20.9225L27.3215 20.9274L27.4764 20.937C27.672 20.9453 27.8706 20.9327 28.0683 20.9032L28.3891 20.8548C28.6007 20.8231 28.8154 20.7763 29.0307 20.7146L29.1911 20.6711L29.346 20.6228C29.7314 20.5125 30.1306 20.5094 30.5186 20.6131L30.8395 20.7001C30.9822 20.7381 31.1158 20.7448 31.2488 20.7243L31.5696 20.676C31.9129 20.6227 32.2591 20.6302 32.6039 20.6953L32.7754 20.7291L32.9414 20.7582C32.9768 20.7649 32.9955 20.7641 33.0022 20.763C33.0064 20.7621 33.0237 20.7581 33.052 20.7388L33.1903 20.6421L33.323 20.5503C33.456 20.4574 33.5518 20.3525 33.6217 20.236L33.7766 19.9846C33.8551 19.8537 33.8997 19.7172 33.9204 19.5737L33.9647 19.2933C33.9937 19.0896 34.0128 18.8856 34.0255 18.6842L34.0366 18.544L34.0421 18.4038C34.0539 18.2153 34.0537 18.0267 34.0366 17.8381L34.02 17.6979L34.0089 17.5577C33.993 17.3841 33.9566 17.2087 33.8983 17.0308L33.8098 16.7504C33.69 16.3843 33.7314 16.019 33.9093 15.6771L34.0532 15.3967C34.0601 15.3834 34.0635 15.3754 34.0642 15.3725L34.0587 15.3628C34.0561 15.3565 34.0528 15.3447 34.0421 15.329L33.854 15.0583C33.6576 14.7723 33.5328 14.4549 33.5277 14.1204V13.8593C33.527 13.8173 33.516 13.7801 33.4613 13.7288L33.3507 13.6273L33.2456 13.5257C33.1877 13.4716 33.1267 13.4486 33.0465 13.4387L32.7367 13.4C32.5277 13.3744 32.3155 13.3619 32.1006 13.3614H31.7798C31.554 13.3609 31.3255 13.3676 31.0994 13.3855L30.9446 13.4L30.7841 13.4097C30.5467 13.4286 30.3082 13.4548 30.0706 13.4822L29.9102 13.5016L29.7498 13.5161C29.4628 13.5492 29.1748 13.5649 28.8869 13.5547L28.7265 13.5451L28.5661 13.5402C28.3064 13.531 28.0457 13.5174 27.7862 13.4967L27.6258 13.4822L27.4709 13.4726C27.2429 13.4544 27.0127 13.4451 26.785 13.4436L26.6246 13.4387H26.4642C26.2393 13.4372 26.0144 13.4459 25.7894 13.4629L25.6289 13.4726L25.4685 13.4871C25.1479 13.5112 24.8279 13.4904 24.5116 13.429L24.3512 13.4L24.1908 13.3662C23.9882 13.327 23.7872 13.3073 23.5879 13.3034L23.4275 13.2985H23.2671C23.0778 13.295 22.885 13.3096 22.6918 13.3469L22.5369 13.3759L22.3765 13.4097C22.096 13.4638 21.813 13.4985 21.5302 13.5161L21.2094 13.5354C20.935 13.5524 20.6598 13.5557 20.3853 13.5451L20.2248 13.5402L20.07 13.5354C19.7965 13.5248 19.5184 13.4994 19.2458 13.4629L19.0909 13.4436L18.9305 13.4194C18.6216 13.378 18.3152 13.3011 18.0178 13.1922L17.863 13.1341L17.7026 13.0761Z" fill="#434343"/>
<path d="M0.73877 26.2919C0.73877 25.2422 1.59916 24.3912 2.66051 24.3912H8.42573C9.48708 24.3912 10.3475 25.2422 10.3475 26.2919V31.3602C10.3475 32.4099 9.48708 33.2608 8.42573 33.2608H2.66051C1.59916 33.2608 0.73877 32.4099 0.73877 31.3602V26.2919Z" fill="#434343" fill-opacity="0.5"/>
<path d="M7.32368 23.8372C7.66538 23.6789 8.03557 23.6177 8.41657 23.671L8.71842 23.7101C8.92846 23.7395 9.14945 23.7626 9.37935 23.7736L9.54069 23.7785L9.70202 23.7883C10.1806 23.8117 10.5718 24.0406 10.8053 24.4333L10.8886 24.5652L10.9666 24.6972C11.0897 24.9047 11.2079 25.1088 11.3205 25.3031L11.3882 25.4253L11.4611 25.5474C11.6617 25.8936 11.6929 26.2759 11.5755 26.6469L11.5339 26.7886L11.4871 26.9303C11.4446 27.0653 11.4366 27.192 11.4558 27.3163L11.4975 27.5997C11.5309 27.8131 11.5676 28.0265 11.6068 28.2399L11.6588 28.5233C11.7149 28.8292 11.703 29.1353 11.6224 29.4371L11.5495 29.7205C11.5262 29.808 11.5276 29.896 11.5703 29.999L11.6276 30.1358L11.6848 30.2775C11.8177 30.598 11.8592 30.935 11.7993 31.2744L11.7733 31.421L11.7473 31.5627C11.6903 31.8856 11.5602 32.185 11.3518 32.4471L11.2581 32.5644L11.1644 32.6768C10.9768 32.9126 10.7511 33.1152 10.4931 33.2778L10.3734 33.356L10.2485 33.4342C9.93244 33.6334 9.57143 33.7264 9.192 33.7029L8.89016 33.6834C8.72944 33.6735 8.56748 33.6874 8.40096 33.7274L8.09911 33.7958C7.75312 33.8787 7.40243 33.8754 7.05826 33.786L6.75642 33.7078C6.67425 33.687 6.59202 33.6929 6.491 33.7323L6.34528 33.7909L6.19436 33.8495C5.86377 33.9785 5.51395 34.0261 5.15871 33.9864L4.85687 33.957C4.6717 33.9365 4.48484 33.9305 4.30001 33.9473L4.15429 33.9619L4.00337 33.9766C3.60713 34.0124 3.23431 33.9144 2.90528 33.7176L2.76476 33.6296L2.62425 33.5466C2.43392 33.4323 2.27122 33.3585 2.14025 33.312L1.90086 33.2241C1.67953 33.1455 1.44472 33.0412 1.20349 32.9162L0.922459 32.7696C0.530512 32.5665 0.274164 32.2377 0.183457 31.8265L0.147027 31.6799L0.115802 31.5285C0.057532 31.2642 0.0213303 31.0034 0.0117169 30.7466L0.00130841 30.4632C-0.0100822 30.1516 0.0532317 29.847 0.178253 29.5543L0.240704 29.4126L0.29795 29.2709C0.329177 29.198 0.332043 29.1409 0.303154 29.0706L0.245908 28.9337L0.188661 28.792C0.0348759 28.4177 0.046224 28.0296 0.214682 27.6633L0.339584 27.3799C0.373884 27.3054 0.375415 27.2536 0.349993 27.1893L0.292746 27.0476L0.240704 26.9059C0.111225 26.5778 0.0801188 26.2337 0.147027 25.8895L0.209478 25.5865C0.278665 25.2306 0.447287 24.9137 0.709085 24.6483L0.823579 24.531L0.932868 24.4186C1.18538 24.1628 1.49514 23.9771 1.84881 23.8714L2.00494 23.8225L2.15586 23.7785C2.29105 23.7381 2.42995 23.703 2.55659 23.6857C2.62018 23.677 2.70037 23.6715 2.78558 23.6759C2.82404 23.6779 2.87634 23.682 2.9365 23.6955L3.13947 23.7687L3.1759 23.7883C3.22245 23.7977 3.29863 23.805 3.40488 23.8176L3.70673 23.8567C3.84757 23.8732 3.9898 23.8618 4.13868 23.8225L4.44053 23.7443C4.82914 23.6412 5.21928 23.6728 5.58546 23.8225L5.73638 23.886L5.88731 23.9447C6.05174 24.0121 6.20685 24.0466 6.35049 24.0522L6.4962 24.057L6.64713 24.0619C6.75658 24.0662 6.88229 24.0459 7.02704 23.9789L7.17276 23.9105L7.32368 23.8372ZM8.21881 24.9073C8.1339 24.8956 8.03565 24.9037 7.91176 24.961L7.76604 25.0295L7.61512 25.0979C7.29356 25.2468 6.94672 25.3268 6.58988 25.3129L6.44416 25.308L6.29324 25.2982C5.97139 25.2857 5.65764 25.2162 5.35647 25.093L5.20555 25.0295L5.05463 24.9708C4.95594 24.9304 4.88114 24.9265 4.80482 24.9464L4.50298 25.0246C4.18703 25.1084 3.86428 25.1361 3.54019 25.0979L3.23835 25.0588C3.11344 25.044 2.99846 25.0297 2.90007 25.0099C2.84528 24.9989 2.76434 24.9691 2.67629 24.9366C2.64519 24.9442 2.60725 24.9572 2.5618 24.9708L2.40567 25.0148L2.24954 25.0637C2.12192 25.1023 2.01076 25.1681 1.91127 25.2689L1.79677 25.3813L1.68748 25.4986C1.59674 25.5905 1.5392 25.6906 1.51574 25.8113L1.48972 25.9628L1.4585 26.1143C1.43287 26.2461 1.44665 26.3617 1.48972 26.471L1.54176 26.6127L1.59901 26.7544C1.74654 27.1278 1.7298 27.5151 1.56258 27.8783L1.50013 28.0151L1.43768 28.1568C1.40487 28.2281 1.4013 28.2793 1.42727 28.3425L1.48452 28.4842L1.54697 28.621C1.69793 28.9885 1.69274 29.3751 1.53656 29.74L1.47411 29.8768L1.41686 30.0185C1.3554 30.1621 1.3292 30.2946 1.33359 30.4192L1.344 30.7027C1.35076 30.8832 1.37776 31.0734 1.42207 31.2744L1.45329 31.4258L1.48452 31.5724C1.49656 31.627 1.51735 31.6489 1.56779 31.6751L1.84881 31.8217C2.04931 31.9256 2.22586 32.0036 2.37444 32.0562L2.49414 32.0953L2.60863 32.1393C2.84802 32.2241 3.09636 32.3434 3.34243 32.4911L3.47774 32.5791L3.61826 32.6621C3.72428 32.7258 3.80477 32.7364 3.87327 32.7305L4.17511 32.7012C4.4557 32.6759 4.73796 32.6796 5.0182 32.711L5.16912 32.7305L5.31484 32.7452C5.42591 32.7576 5.54863 32.7444 5.68434 32.6914L5.83006 32.6328L5.98098 32.5742C6.34502 32.4322 6.73244 32.4063 7.11551 32.5058L7.26643 32.5449L7.41215 32.5839C7.53398 32.6156 7.65124 32.6127 7.77124 32.5839L8.07309 32.5155C8.37152 32.4441 8.67396 32.4136 8.97863 32.4325L9.28047 32.452C9.36668 32.4572 9.43427 32.4422 9.50426 32.3983L9.75406 32.2419C9.8829 32.1607 9.99695 32.0556 10.0975 31.9292L10.1912 31.8119L10.2797 31.6995C10.3593 31.5994 10.4133 31.4854 10.4358 31.3574L10.4618 31.2157L10.4879 31.0691C10.5073 30.958 10.4947 30.849 10.4462 30.732L10.389 30.5903L10.3265 30.4486C10.1887 30.1147 10.1602 29.7619 10.2537 29.4126L10.2953 29.2758L10.3317 29.1341C10.3681 28.9984 10.3715 28.8649 10.3473 28.7334L10.3213 28.5966L10.2953 28.4549C10.2542 28.2309 10.2159 28.0045 10.1808 27.7805L10.16 27.6388L10.1392 27.502C10.0902 27.1899 10.1161 26.8773 10.212 26.5736L10.2537 26.4319L10.3005 26.2902C10.3224 26.2209 10.3124 26.187 10.2901 26.1485L10.2172 26.0214L10.1496 25.8992C10.0392 25.7088 9.92198 25.5122 9.8009 25.308L9.64477 25.0441L9.63436 25.0343L9.47303 25.0295L9.3117 25.0197C9.04099 25.0067 8.77638 24.9822 8.52065 24.9464L8.21881 24.9073Z" fill="#434343"/>
<path d="M13.3044 26.2919C13.3044 25.2422 14.2641 24.3912 15.4479 24.3912H32.5958C33.7796 24.3912 34.7392 25.2422 34.7392 26.2919V31.3602C34.7392 32.4099 33.7796 33.2608 32.5958 33.2608H15.4479C14.2641 33.2608 13.3044 32.4099 13.3044 31.3602V26.2919Z" fill="#434343" fill-opacity="0.5"/>
<path d="M17.9131 23.6651L18.2019 23.7322L18.4635 23.8281L18.725 23.9191C18.7695 23.935 18.7933 23.9341 18.8177 23.9287L19.3408 23.8137L19.6133 23.7801C19.8846 23.7701 20.1428 23.8359 20.3762 23.9527L20.8993 24.2115L20.9102 24.2211L21.1609 24.1588L21.4225 24.1013C21.6349 24.0513 21.8493 24.0171 22.0655 24.0006L22.327 23.9815L22.5886 23.9575C22.8348 23.9387 23.0823 23.9536 23.3243 24.0006L23.8474 24.1061C23.9544 24.1267 24.0606 24.1326 24.1635 24.1252L24.6866 24.0869C24.8583 24.0746 25.0325 24.0621 25.2043 24.0486L25.4658 24.0246L25.7274 24.0054C25.9915 23.9848 26.2523 24.0115 26.5066 24.0773L27.0298 24.2115C27.1344 24.2386 27.2341 24.2484 27.3295 24.2451L27.8526 24.2259C28.0525 24.2189 28.2523 24.2229 28.4521 24.2355L28.7136 24.2499L28.9752 24.269C29.0104 24.2713 29.0631 24.264 29.1387 24.2307L29.6618 24.0006C29.9166 23.8887 30.1923 23.8478 30.4683 23.8856L30.7462 23.9479L31.0078 24.039L31.2693 24.1252C31.2774 24.1279 31.2826 24.1295 31.2857 24.13H31.3075L31.8306 23.9671C32.1115 23.8801 32.4082 23.8774 32.6807 23.9719L32.9477 24.1013L33.3728 24.3697C33.5002 24.4501 33.6253 24.519 33.7433 24.5806L33.9449 24.6908L34.152 24.7963C34.4024 24.9268 34.5988 25.1088 34.7405 25.3235L34.8713 25.5296L35.0076 25.7309C35.1271 25.9127 35.2171 26.1068 35.28 26.3109L35.3509 26.5457L35.4217 26.7758C35.5046 27.045 35.4963 27.3205 35.3999 27.5858L35.2364 28.0459C35.2105 28.1178 35.2009 28.1813 35.2092 28.2425L35.2746 28.7026C35.3096 28.9542 35.2764 29.2032 35.1819 29.4407L35.0893 29.6708L35.0021 29.9008C34.9831 29.9485 34.9816 29.984 34.9912 30.0207L35.1111 30.4808C35.1592 30.6641 35.192 30.8512 35.2092 31.0416L35.231 31.286L35.2528 31.5257C35.2801 31.8308 35.186 32.1198 34.9912 32.3692L34.8332 32.5753L34.6697 32.7814C34.4466 33.0662 34.1121 33.2414 33.7106 33.2655L33.4327 33.2847L33.1602 33.2991C33.0331 33.3066 32.9289 33.3253 32.8442 33.3518L32.3864 33.4956C32.2464 33.5394 32.0936 33.5899 31.9287 33.649L31.6671 33.7448L31.4056 33.8359C30.9996 33.9813 30.5876 33.9267 30.2449 33.7353L29.9833 33.5867L29.7217 33.4429C29.7078 33.4351 29.6939 33.4303 29.689 33.4285L29.4547 33.4764L29.1932 33.5244C28.9905 33.5628 28.7873 33.5914 28.5828 33.6058L28.0597 33.6442C27.8643 33.6579 27.6667 33.6609 27.4712 33.6586L27.2096 33.6538H26.948C26.8542 33.6526 26.7534 33.6623 26.6483 33.6921L26.1252 33.8455C25.7563 33.9506 25.384 33.9071 25.0571 33.7544L24.7956 33.6298L24.534 33.51C24.4462 33.4692 24.3803 33.4576 24.3324 33.4573H24.0708L23.8092 33.4525C23.774 33.4525 23.7174 33.4594 23.6349 33.5004L23.3733 33.6298L23.1117 33.764C22.8566 33.8902 22.5763 33.9688 22.278 33.9797L21.7549 33.9989C21.4501 34.0096 21.1554 33.9433 20.8884 33.8263L20.6269 33.7113L20.3653 33.6011C20.2832 33.5652 20.2251 33.5566 20.18 33.5579L19.9184 33.5627L19.6569 33.5723C19.5561 33.5754 19.4477 33.5907 19.3354 33.625L18.8122 33.788C18.4832 33.8879 18.1395 33.8808 17.815 33.7736L17.2919 33.6011C17.1529 33.5552 17.0171 33.5189 16.8832 33.4956L16.6216 33.4525L16.3601 33.4045L16.371 33.4093H16.3764C16.3731 33.41 16.3544 33.4113 16.3219 33.4285L16.044 33.5771L15.7715 33.7257C15.4082 33.9211 14.9747 33.9679 14.5618 33.7928L14.0278 33.5627C13.6966 33.4212 13.4457 33.1864 13.3139 32.8773L13.2158 32.6424L13.1123 32.4076C13.0422 32.2433 12.9791 32.0818 12.9215 31.9235L12.7581 31.4729C12.6452 31.161 12.6858 30.848 12.8398 30.5671L12.9651 30.337L13.0905 30.1117L12.9924 29.9008L12.8943 29.6708C12.787 29.4229 12.753 29.1598 12.8017 28.8943L12.8398 28.6642L12.8834 28.4342C12.9048 28.3168 12.9179 28.2003 12.9161 28.0843L12.9052 27.6242C12.9038 27.5427 12.8887 27.4539 12.8507 27.3605L12.7526 27.1305L12.66 26.9004C12.5504 26.6321 12.5388 26.3509 12.6109 26.076L12.6709 25.8316L12.7363 25.5823C12.8142 25.2863 12.9965 25.0303 13.2703 24.8394L13.4883 24.686L13.7117 24.5327C13.94 24.3738 14.2024 24.2599 14.4964 24.2163L14.7471 24.1828L14.9977 24.1444C15.0184 24.1414 15.0366 24.1375 15.0522 24.1348L15.0631 24.1252C15.1926 24.0232 15.334 23.9836 15.4173 23.9671C15.5053 23.9497 15.5875 23.9474 15.6462 23.9479C15.7616 23.9491 15.8796 23.9629 15.9841 23.9815L16.5072 24.0773H16.5126C16.5174 24.0763 16.5329 24.0696 16.5562 24.0581L16.8178 23.9335L17.0794 23.8041L17.3464 23.7035C17.5296 23.6535 17.7204 23.6386 17.9131 23.6651ZM17.4935 25.0024L17.2319 25.1318C16.9323 25.2785 16.5909 25.3433 16.2347 25.2804L15.9732 25.2324L15.7606 25.1941C15.655 25.2509 15.5607 25.2876 15.5154 25.2995C15.4254 25.3233 15.3239 25.3427 15.2266 25.3571L14.9814 25.3906L14.7307 25.4289C14.6923 25.4346 14.6425 25.4512 14.5781 25.496L14.3547 25.6494L14.1367 25.8028C14.1173 25.8163 14.1072 25.8275 14.0986 25.8603L14.0332 26.1048L13.9678 26.354C13.9539 26.4073 13.9582 26.4457 13.9733 26.4834L14.0659 26.7135L14.164 26.9435C14.2509 27.1565 14.2964 27.3799 14.3002 27.605L14.3111 28.0651C14.3143 28.2542 14.2965 28.4429 14.2621 28.6307L14.1749 29.0908C14.1675 29.1314 14.1714 29.1763 14.1967 29.2346L14.3002 29.4647L14.3983 29.6947C14.5358 30.0117 14.5125 30.3403 14.3493 30.639L14.0986 31.0991L14.0877 31.1087L14.1694 31.3244L14.2512 31.5496C14.3013 31.6875 14.3576 31.8296 14.4201 31.9762L14.5182 32.2111L14.6217 32.4507L14.6381 32.4603L14.9051 32.5706L15.0904 32.652L15.3192 32.5322L15.5917 32.3836C15.891 32.2226 16.2471 32.1359 16.6271 32.2015L16.8886 32.2494L17.1502 32.2926C17.3629 32.3294 17.5747 32.3823 17.7823 32.4507L18.0439 32.537L18.3055 32.6281C18.3196 32.6327 18.3296 32.6327 18.3327 32.6329C18.334 32.6329 18.3413 32.6319 18.3545 32.6281L18.8776 32.4651C19.1141 32.3929 19.3598 32.3529 19.6078 32.3453L19.8694 32.3357L20.131 32.3309C20.4344 32.3217 20.726 32.3821 20.992 32.4987L21.5151 32.7287C21.595 32.7635 21.6514 32.7731 21.6949 32.7719L22.2181 32.7527C22.2666 32.751 22.3383 32.7409 22.4306 32.6952L22.6921 32.561L22.9537 32.4316C23.2169 32.3014 23.5087 32.2236 23.8201 32.2255L24.0817 32.2302H24.3433C24.6432 32.2325 24.9282 32.3057 25.1879 32.4268L25.4495 32.5466L25.7111 32.6712L25.9563 32.5993L26.2178 32.5274C26.4607 32.4582 26.7103 32.4237 26.9644 32.4268H27.226L27.4875 32.4316C27.6397 32.4334 27.7929 32.4279 27.9453 32.4172L28.2068 32.4028L28.4684 32.3836C28.6107 32.3736 28.7549 32.3534 28.8989 32.3261L29.1605 32.2782L29.422 32.2255C29.8047 32.1527 30.1656 32.2379 30.4683 32.4076L30.9478 32.6712L31.1386 32.6089L31.4001 32.513C31.5827 32.4476 31.7595 32.3917 31.9233 32.3405L32.1467 32.2686L32.3755 32.1967C32.5955 32.128 32.8294 32.0909 33.0676 32.0769L33.3401 32.0577L33.5471 32.0433L33.6834 31.8804L33.8414 31.6743C33.8599 31.6505 33.8648 31.6391 33.8632 31.6215L33.8414 31.3819L33.8196 31.1374C33.8078 31.0064 33.7807 30.8808 33.7488 30.7588L33.6289 30.2987C33.5582 30.0292 33.581 29.7567 33.6834 29.4982L33.776 29.2682L33.8632 29.0381C33.8907 28.9689 33.8981 28.9062 33.8905 28.8512L33.8251 28.391C33.7914 28.147 33.8222 27.9053 33.9068 27.6721L33.9885 27.442L34.0757 27.212C34.0907 27.1706 34.0879 27.1367 34.0757 27.0969L34.0049 26.8621L33.934 26.632C33.9019 26.5275 33.8553 26.4317 33.7978 26.3444L33.667 26.1431L33.5308 25.9418C33.4954 25.8881 33.4668 25.863 33.4436 25.8507L33.2365 25.7453L33.0295 25.635C32.8741 25.554 32.7172 25.4653 32.5608 25.3666L32.3483 25.2324L32.2121 25.1462L32.0377 25.2037L31.7761 25.2852C31.444 25.388 31.0952 25.381 30.768 25.2708L30.5064 25.1845L30.2667 25.103L30.0214 25.2133L29.7599 25.3283C29.4872 25.4484 29.19 25.5108 28.8771 25.4913L28.6155 25.4769L28.354 25.4577C28.2053 25.4484 28.0557 25.4477 27.9071 25.4529L27.384 25.4721C27.1308 25.4809 26.8814 25.449 26.6374 25.3858L26.1143 25.2516C26.0207 25.2274 25.9311 25.221 25.8473 25.2276L25.5857 25.2468L25.3242 25.2708C25.1487 25.2846 24.9711 25.2966 24.7956 25.3091L24.2724 25.3475C24.028 25.3647 23.7824 25.3462 23.5422 25.2995L23.2807 25.2516L23.0191 25.1989C22.9133 25.1785 22.8101 25.1719 22.7085 25.1797L22.4469 25.2037L22.1854 25.2228C22.0529 25.233 21.9182 25.2531 21.7821 25.2852L21.259 25.4098C20.8881 25.4968 20.5263 25.4368 20.2127 25.2804L19.9511 25.1462L19.6896 25.0167L19.6678 25.0072L19.4171 25.0647L19.1555 25.1222C18.8316 25.1932 18.5058 25.1679 18.2019 25.0599L17.9403 24.964L17.7224 24.8873L17.4935 25.0024Z" fill="#434343"/>
</svg>
