<svg width="161" height="46" viewBox="0 0 161 46" fill="none" xmlns="http://www.w3.org/2000/svg">
<path d="M3 6C3 4.34315 4.34315 3 6 3H156C157.657 3 159 4.34315 159 6V40C159 41.6569 157.657 43 156 43H6C4.34315 43 3 41.6569 3 40V6Z" fill="#97DE00" fill-opacity="0.3"/>
<path d="M25.5117 0.820312C26.0469 0.837818 26.582 0.860482 27.1172 0.890625L27.457 0.902344L27.7969 0.925781C28.4132 0.960541 29.0275 1.04856 29.6367 1.19531L30.3164 1.35938C30.8642 1.49154 31.4102 1.64358 31.957 1.80469L32.2969 1.89844L32.6367 2.00391C32.8135 2.05591 32.9806 2.04913 33.1992 1.95703L33.8789 1.67578C34.5754 1.38093 35.3008 1.22486 36.0469 1.23047H36.7266C37.2617 1.23478 37.7969 1.24854 38.332 1.26562L39.0117 1.28906C39.5234 1.30541 40.0352 1.31948 40.5469 1.32422H41.2266C41.8894 1.33034 42.5476 1.42278 43.1953 1.60547L43.5352 1.71094L43.875 1.80469C44.0947 1.86561 44.305 1.85296 44.543 1.76953L44.8828 1.65234L45.2109 1.53516C46.0034 1.25733 46.832 1.21376 47.6484 1.41797L47.9883 1.51172L48.3281 1.59375C48.7354 1.69612 49.1393 1.74755 49.5352 1.74609L49.875 1.73438H50.2031C50.8048 1.73217 51.4087 1.78466 52.0078 1.875L52.6875 1.96875C52.8996 2.00075 53.1303 1.98079 53.4141 1.85156L54.0938 1.54688C54.7458 1.24973 55.4181 1.05403 56.1094 0.972656L56.4492 0.925781L56.7891 0.890625C57.5589 0.800648 58.3193 0.894413 59.0508 1.16016L59.3906 1.28906L59.7305 1.40625C60.1627 1.56294 60.5908 1.67394 61.0078 1.73438L61.3359 1.78125L61.6758 1.82812C62.1556 1.89766 62.6386 1.94392 63.1172 1.96875L63.457 1.99219L63.7852 2.00391C64.1952 2.02517 64.6126 2.00694 65.0273 1.93359L65.707 1.81641C66.3222 1.70791 66.9391 1.65401 67.5586 1.66406H67.8984L68.2383 1.67578C68.6744 1.68298 69.1116 1.65018 69.5508 1.58203L69.8906 1.52344L70.2305 1.47656C70.7759 1.39151 71.3253 1.31586 71.8711 1.25391L72.2109 1.21875L72.5391 1.18359C73.3877 1.08726 74.2098 1.25757 74.9648 1.64062L75.3047 1.81641L75.6445 1.98047L75.6562 2.00391C75.6708 1.9977 75.6926 1.97888 75.7266 1.95703L76.0664 1.73438L76.4062 1.52344C77.2404 0.987239 78.2147 0.769345 79.2188 1.06641L79.5469 1.17188L79.8867 1.26562C80.1337 1.33869 80.3662 1.33887 80.6133 1.26562L80.9531 1.17188L81.2812 1.06641C82.2031 0.793128 83.1271 0.909775 83.9648 1.33594L84.6445 1.6875C84.71 1.72062 84.7481 1.72151 84.7617 1.72266C84.7657 1.7227 84.8033 1.72412 84.8789 1.6875L85.5586 1.35938C86.5059 0.899079 87.5259 0.911841 88.4648 1.38281L88.793 1.54688L89.1328 1.72266C89.3734 1.84332 89.544 1.84035 89.6953 1.80469L90.0352 1.73438L90.3633 1.65234C91.0009 1.50203 91.6496 1.4249 92.2969 1.42969H92.9766C93.4086 1.43285 93.8414 1.399 94.2773 1.32422L94.957 1.20703C95.7471 1.07095 96.5337 1.14908 97.2891 1.41797L97.6289 1.54688L97.9688 1.66406C98.1286 1.72061 98.2636 1.71915 98.4492 1.64062L99.1289 1.35938C99.9625 1.00548 100.844 0.942022 101.719 1.20703L102.059 1.3125L102.398 1.40625C102.899 1.55861 103.399 1.70392 103.898 1.82812L104.578 1.99219C104.977 2.09121 105.374 2.14095 105.762 2.13281L106.09 2.12109L106.43 2.10938C106.999 2.09742 107.572 2.11797 108.141 2.15625L108.48 2.17969L108.809 2.20312C109.248 2.2327 109.693 2.2245 110.133 2.17969L110.812 2.10938C111.279 2.06164 111.749 1.98952 112.219 1.88672L112.559 1.80469L112.887 1.73438C113.612 1.57566 114.351 1.56577 115.078 1.71094L115.758 1.85156C116.004 1.90066 116.252 1.88138 116.531 1.78125L117.211 1.54688C118.107 1.22629 119.03 1.26213 119.895 1.64062L120.223 1.79297L120.562 1.93359C120.621 1.95941 120.654 1.96881 120.668 1.96875C120.679 1.96817 120.729 1.95887 120.82 1.91016L121.16 1.73438L121.5 1.54688C122.463 1.02649 123.518 1.02191 124.488 1.53516L125.168 1.88672C125.258 1.93395 125.307 1.94473 125.32 1.94531C125.335 1.94551 125.373 1.93842 125.438 1.91016L125.766 1.75781L126.105 1.61719C126.802 1.31019 127.534 1.13725 128.285 1.13672H128.965C129.623 1.13675 130.277 1.22292 130.922 1.39453L131.602 1.58203C131.91 1.6638 132.206 1.67416 132.504 1.61719L132.844 1.54688L133.184 1.48828C133.95 1.34171 134.72 1.38286 135.469 1.60547L135.797 1.69922L136.137 1.80469C136.306 1.85511 136.471 1.85169 136.688 1.75781L137.027 1.60547L137.367 1.46484C138.241 1.0853 139.165 1.05664 140.062 1.39453L140.402 1.51172L140.742 1.64062C141.033 1.75041 141.29 1.77622 141.539 1.73438L142.219 1.61719C142.752 1.52764 143.291 1.44968 143.824 1.37109L144.152 1.3125L144.492 1.26562C145.061 1.18176 145.633 1.12201 146.203 1.08984L146.543 1.07812L146.883 1.05469C147.714 1.00879 148.506 1.216 149.238 1.60547L149.578 1.78125L149.918 1.96875C150.162 2.09826 150.329 2.10317 150.469 2.07422L150.809 2.00391L151.148 1.92188C151.757 1.79154 152.374 1.72076 152.988 1.69922L153.328 1.6875L153.656 1.67578C154.083 1.66084 154.536 1.60424 155.004 1.5L155.707 1.33594L156.492 1.26562C156.759 1.27678 157.031 1.32894 157.301 1.42969C157.573 1.53148 157.818 1.67105 158.027 1.83984L158.566 2.41406L158.988 3C159.375 3.53703 159.689 4.10127 159.926 4.6875L160.043 4.98047L160.172 5.28516C160.506 6.11718 160.487 6.98215 160.207 7.80469L159.973 8.48438C159.952 8.54405 159.931 8.61319 160.043 8.80078L160.254 9.14062L160.453 9.48047C161.031 10.4445 161.078 11.5339 160.535 12.5391L160.348 12.8789L160.172 13.207C160.004 13.518 159.959 13.7733 159.973 13.9805L159.996 14.3203L160.02 14.6484C160.058 15.2331 160.051 15.8215 160.02 16.4062L160.008 16.7461L159.984 17.0859C159.967 17.4135 160.01 17.7514 160.125 18.1055L160.242 18.4453L160.348 18.7852C160.603 19.5674 160.646 20.3751 160.453 21.1758L160.289 21.8555C160.171 22.3437 160.064 22.8338 159.984 23.3203L159.938 23.6484L159.879 23.9883C159.821 24.3434 159.827 24.6982 159.891 25.0547L160.008 25.7344C160.126 26.3906 160.151 27.0539 160.09 27.7148L160.066 28.0547L160.031 28.3828C159.997 28.7576 160.023 29.1374 160.102 29.5195L160.242 30.1992C160.394 30.9363 160.377 31.6804 160.207 32.4141L160.137 32.7539L160.055 33.0938C159.971 33.4587 159.947 33.8172 159.984 34.1719L160.02 34.5117L160.055 34.8398C160.118 35.4431 160.136 36.0521 160.102 36.6562L160.055 37.3359C160.026 37.846 160.011 38.3501 159.996 38.8477L159.984 39.1875L159.973 39.5156C159.952 40.1937 159.82 40.8557 159.527 41.4609L159.398 41.707L159.281 41.9531C158.981 42.5728 158.531 43.0923 157.992 43.5234L157.723 43.7344L157.465 43.9453C156.716 44.5418 155.817 44.7605 154.887 44.6016L154.207 44.4844C153.814 44.4167 153.425 44.3993 153.035 44.4375L152.355 44.5078C151.69 44.5729 151.024 44.5389 150.363 44.4141L150.023 44.3438L149.684 44.2852C149.386 44.2286 149.09 44.2382 148.781 44.3203L148.102 44.5078C147.316 44.7182 146.517 44.7042 145.734 44.4844L145.055 44.2969C144.877 44.2472 144.704 44.2484 144.48 44.3438L144.141 44.4961L143.801 44.6367C143.071 44.9489 142.303 45.0898 141.516 45.0234L141.176 44.9883L140.836 44.9648C140.159 44.907 139.493 44.7491 138.844 44.4961L138.504 44.3555L138.164 44.2266C137.929 44.1357 137.732 44.1269 137.531 44.1797L136.852 44.3672C136.326 44.5082 135.795 44.649 135.27 44.7891L134.941 44.8828L134.602 44.9648C133.931 45.1434 133.248 45.2229 132.562 45.1875L132.223 45.1641L131.883 45.1523C131.147 45.1138 130.432 44.9201 129.75 44.6016L129.41 44.4492L129.082 44.2852C128.777 44.1424 128.516 44.1106 128.285 44.1328L127.945 44.1562L127.605 44.1914C127.15 44.2359 126.694 44.3172 126.234 44.4258L125.895 44.5078L125.555 44.5781C124.706 44.7784 123.858 44.6994 123.059 44.3672L122.719 44.2266L122.391 44.0859C122.066 43.9511 121.771 43.9128 121.5 43.9336L121.16 43.957L120.832 43.9805C120.5 44.006 120.144 44.1013 119.766 44.2734L119.086 44.5781C118.145 45.0072 117.148 44.985 116.227 44.5312L115.547 44.2031C115.329 44.0955 115.183 44.093 115.043 44.1328L114.715 44.2266L114.375 44.3203C113.849 44.4696 113.319 44.6173 112.793 44.7656L112.453 44.8594L112.125 44.9531C111.326 45.1785 110.507 45.178 109.711 44.9414L109.371 44.8359L109.031 44.7422C108.624 44.6213 108.228 44.5464 107.836 44.5312L107.156 44.5078C106.549 44.4849 105.943 44.4191 105.34 44.2969L104.66 44.1562C104.175 44.0579 103.691 43.9812 103.207 43.9219L102.867 43.875L102.527 43.8398C102.141 43.7927 101.755 43.7924 101.367 43.8516L101.027 43.9102L100.688 43.957C100.326 44.0127 99.9414 44.1368 99.5391 44.332L99.1992 44.4961L98.8711 44.6484C98.0589 45.0426 97.1734 45.1713 96.2812 44.9531L95.6016 44.7891C95.1639 44.6822 94.7312 44.6159 94.3008 44.5898L93.6211 44.543C93.2004 44.5178 92.7789 44.5394 92.3555 44.6016L91.6758 44.6953C91.1098 44.7783 90.5437 44.8374 89.9766 44.8711L89.2969 44.918C88.6586 44.9555 88.0205 44.9215 87.3867 44.8125L86.707 44.6953C86.3512 44.6339 85.9965 44.6336 85.6406 44.6953L85.3008 44.7539L84.9727 44.8125C84.3086 44.9276 83.6364 44.9471 82.9688 44.8711L82.6289 44.8242L82.2891 44.7891C81.9242 44.7478 81.5586 44.7615 81.1875 44.8359L80.5078 44.9766C79.7918 45.1208 79.0685 45.1274 78.3516 44.9883L77.6719 44.8477C77.1924 44.7547 76.7082 44.6854 76.2305 44.6367L75.9023 44.6016L75.5625 44.5664C74.9554 44.5045 74.3462 44.3991 73.7461 44.2383L73.4062 44.1445L73.0781 44.0508C72.7353 43.9589 72.3975 43.9393 72.0703 43.9805L71.7422 44.0273L71.4023 44.0625C70.7229 44.1479 70.0385 44.1287 69.3633 44.0039L69.0234 43.9453L68.6953 43.8867C68.5446 43.8589 68.3584 43.8644 68.0977 44.0039L67.7578 44.1914L67.418 44.3672C66.5122 44.8519 65.5106 44.9197 64.5469 44.5078L64.207 44.3672L63.8789 44.2266C63.6712 44.1378 63.5086 44.1266 63.3398 44.1797L63 44.2969L62.6602 44.4023C62.0921 44.5818 61.5211 44.7279 60.9492 44.8477L60.2695 44.9883C59.5166 45.1458 58.7533 45.1337 58.0078 44.9414L57.6797 44.8477L57.3398 44.7656C57.016 44.6821 56.7029 44.6672 56.3906 44.7188L55.7109 44.8359C54.9201 44.9683 54.1336 44.8848 53.3789 44.6133L53.0391 44.4961L52.6992 44.3672C52.4041 44.262 52.1384 44.2439 51.8789 44.2852L51.5391 44.332L51.1992 44.3906C50.7161 44.4683 50.2312 44.564 49.7461 44.6836L49.4062 44.7656L49.0664 44.8594C48.2736 45.0536 47.4667 45.0195 46.6875 44.7773L46.3594 44.6719L46.0195 44.5664C45.8185 44.5039 45.6303 44.5076 45.4102 44.5898L45.0703 44.7188L44.7422 44.8477C43.9723 45.1351 43.1602 45.2139 42.3516 45.0586L42.0117 44.9883L41.6836 44.9297C41.1082 44.8192 40.5326 44.6673 39.9609 44.4961L39.6211 44.4023L39.2812 44.2969C38.8177 44.1581 38.3563 44.0552 37.8984 43.9805L37.2188 43.8633C36.9546 43.8208 36.6847 43.8521 36.3867 43.957L35.707 44.1914C34.9348 44.4626 34.1306 44.5236 33.3281 44.3555L32.9883 44.2852L32.6602 44.2148C32.4473 44.1702 32.221 44.1882 31.957 44.2969L31.6172 44.4258L31.2891 44.5664C30.4228 44.9232 29.5006 44.9491 28.6172 44.625L28.2891 44.5078L27.9492 44.3789C27.531 44.2255 27.1168 44.13 26.7188 44.0859L26.3906 44.0508L26.0508 44.0156C25.7071 43.9776 25.3527 43.9969 24.9961 44.0859L24.668 44.168L24.3281 44.25C23.6533 44.4186 22.9653 44.4873 22.2773 44.4375L21.9375 44.4141L21.6094 44.3789C21.0296 44.3369 20.4408 44.2735 19.8633 44.168L19.5352 44.0977L19.1953 44.0391C18.8551 43.9769 18.5173 43.984 18.1758 44.0508L17.8359 44.1094L17.4961 44.1797C16.8078 44.3138 16.1141 44.3289 15.4219 44.2266L14.7422 44.1328C14.4423 44.0883 14.1375 44.1068 13.8164 44.2031L13.4766 44.2969L13.1484 44.4023C12.5001 44.5968 11.8334 44.7039 11.168 44.7188L10.8281 44.7305H10.5C9.82184 44.7456 9.14613 44.6575 8.48438 44.4727L7.80469 44.2852C7.31636 44.1488 6.85528 44.0412 6.42188 43.957L6.11719 43.8984L5.80078 43.8398C5.25671 43.734 4.72536 43.5833 4.20703 43.4062L3.91406 43.3125L3.62109 43.207C3.14729 43.0442 2.66849 42.7443 2.34375 42.2344C2.02544 41.7337 1.95145 41.1864 1.98047 40.7109L2.00391 40.3828L2.01562 40.0547C2.02728 39.8674 1.99634 39.625 1.82812 39.3047L1.64062 38.9648L1.46484 38.625C0.945821 37.6412 0.970376 36.5735 1.51172 35.6133L1.71094 35.2734L1.89844 34.9336C2.0549 34.6551 2.07211 34.456 2.05078 34.3008L2.00391 33.9727L1.95703 33.6328C1.90778 33.2745 1.79545 32.8954 1.60547 32.4961L1.45312 32.1562L1.28906 31.8164C0.889608 30.9754 0.801137 30.0613 1.07812 29.1562L1.18359 28.8281L1.27734 28.4883C1.39192 28.1139 1.43993 27.7513 1.42969 27.3984L1.41797 27.0586V26.7188C1.40329 26.2307 1.36284 25.7425 1.3125 25.2539L1.24219 24.5742C1.18098 23.9777 1.16838 23.3787 1.19531 22.7812L1.20703 22.4414L1.23047 22.1133C1.25165 21.6436 1.23786 21.1652 1.20703 20.6953L1.18359 20.3555L1.17188 20.0273C1.12114 19.2541 1.25856 18.4973 1.55859 17.7773L1.83984 17.0977C1.91611 16.9147 1.91107 16.7803 1.85156 16.6172L1.73438 16.2773L1.60547 15.9375C1.32925 15.1808 1.24737 14.3881 1.38281 13.5938L1.44141 13.2656L1.5 12.9258C1.55847 12.5828 1.55539 12.2399 1.48828 11.8945L1.34766 11.2148C1.19911 10.458 1.2358 9.69741 1.44141 8.95312L1.62891 8.27344C1.72816 7.91441 1.76354 7.56792 1.73438 7.23047L1.69922 6.90234L1.67578 6.5625C1.61048 5.807 1.71302 5.06465 1.99219 4.35938L2.25 3.72656C2.61627 2.80465 3.34709 2.13548 4.37109 1.93359L4.67578 1.875L4.98047 1.80469C5.0805 1.78497 5.16975 1.77256 5.23828 1.75781L5.26172 1.73438C5.40146 1.65415 5.53005 1.60962 5.57812 1.59375C5.69407 1.5555 5.8146 1.52833 5.89453 1.51172C6.07027 1.47532 6.30654 1.43382 6.57422 1.39453L6.90234 1.34766L7.24219 1.30078C8.07991 1.17783 8.90363 1.31273 9.66797 1.66406L9.99609 1.82812L10.3359 1.98047C10.6401 2.12029 10.8998 2.15582 11.1328 2.13281L11.8125 2.0625C12.1481 2.02832 12.5062 1.93 12.8906 1.74609L13.5703 1.41797C14.46 0.994208 15.4225 0.952895 16.3477 1.32422L16.6875 1.45312L17.0156 1.59375C17.1695 1.65549 17.2862 1.65092 17.4492 1.58203L18.1289 1.30078C18.8283 1.00478 19.5587 0.855282 20.3086 0.867188H20.6484L20.9883 0.878906C21.4765 0.886996 21.9647 0.869567 22.4531 0.84375L22.793 0.832031L23.1328 0.808594C23.6991 0.778533 24.2656 0.778476 24.832 0.796875L25.5117 0.820312ZM23.2969 3.80859L22.957 3.82031L22.6172 3.84375C22.0588 3.87339 21.5 3.8881 20.9414 3.87891L20.6016 3.86719H20.2617C19.9643 3.86236 19.6486 3.91937 19.3008 4.06641L18.6211 4.34766C17.7346 4.72303 16.7981 4.74227 15.9023 4.38281L15.5625 4.24219L15.2344 4.11328C15.112 4.06417 15.0171 4.04979 14.8594 4.125L14.1797 4.45312C13.517 4.76963 12.8284 4.9783 12.1172 5.05078L11.4375 5.12109C10.6221 5.20342 9.82579 5.04109 9.08203 4.69922L8.75391 4.54688L8.41406 4.39453C8.1284 4.26323 7.88806 4.23447 7.67578 4.26562L7.34766 4.32422L6.66797 4.41797C6.59135 4.45829 6.53498 4.4994 6.50391 4.51172C6.38926 4.55698 6.27446 4.59736 6.19922 4.61719C6.03212 4.66109 5.81293 4.69748 5.56641 4.74609L5.26172 4.81641L5.01562 4.85156L4.91016 5.14453L4.78125 5.46094C4.6721 5.73648 4.63905 6.01529 4.66406 6.30469L4.6875 6.63281L4.72266 6.97266C4.78364 7.67817 4.71344 8.38167 4.52344 9.07031L4.33594 9.75C4.25158 10.0546 4.24345 10.3486 4.30078 10.6406L4.35938 10.9688L4.42969 11.3086C4.56763 12.0112 4.57334 12.7246 4.45312 13.4297L4.39453 13.7695L4.33594 14.0977C4.29262 14.3517 4.32327 14.6146 4.42969 14.9062L4.54688 15.2461L4.67578 15.5859C4.99909 16.4716 4.96689 17.3921 4.60547 18.2578L4.46484 18.5859L4.32422 18.9258C4.18684 19.2548 4.14208 19.5526 4.16016 19.8281L4.20703 20.5078C4.24473 21.0858 4.2448 21.664 4.21875 22.2422L4.19531 22.9219C4.17526 23.3708 4.18421 23.8197 4.23047 24.2695L4.30078 24.9492C4.35825 25.5076 4.40108 26.0661 4.41797 26.625V26.9648L4.42969 27.3047C4.45057 28.0008 4.35487 28.6927 4.14844 29.3672L4.04297 29.707L3.94922 30.0352C3.90535 30.1785 3.89855 30.3208 3.99609 30.5273L4.32422 31.207C4.63295 31.8567 4.83868 32.5321 4.93359 33.2227L4.98047 33.5625L5.02734 33.8906C5.15009 34.7836 4.94514 35.6414 4.51172 36.4102L4.32422 36.75L4.125 37.0898C4.10463 37.1263 4.09321 37.1493 4.08984 37.1602C4.09144 37.1664 4.1057 37.1939 4.125 37.2305L4.30078 37.5586L4.47656 37.8984C4.8606 38.6256 5.06707 39.4163 5.01562 40.2422L4.99219 40.5L5.17969 40.5703C5.56535 40.7019 5.96347 40.8067 6.375 40.8867L6.67969 40.9453L6.99609 41.0156C7.51711 41.1169 8.05601 41.2467 8.61328 41.4023L9.29297 41.5898C9.68039 41.6979 10.0586 41.7388 10.4297 41.7305H10.7695L11.1094 41.7188C11.4918 41.7097 11.8819 41.6509 12.2812 41.5312L12.9609 41.3203C13.6881 41.1031 14.4393 41.0451 15.1875 41.1562L15.5156 41.2148L15.8555 41.2617C16.2091 41.3142 16.5642 41.3078 16.9219 41.2383L17.6016 41.0977C18.3092 40.9596 19.0254 40.9565 19.7344 41.0859L20.0742 41.1562L20.4023 41.2148C20.8745 41.3011 21.3504 41.3565 21.8203 41.3906L22.5 41.4375C22.8609 41.4633 23.2276 41.4372 23.6016 41.3438L23.9414 41.2617L24.2695 41.1797C24.963 41.0064 25.6726 40.9491 26.3789 41.0273L26.7188 41.0625L27.0586 41.1094C27.7083 41.1819 28.3507 41.3354 28.9805 41.5664L29.3203 41.6836L29.6602 41.8125C29.8233 41.8712 29.9603 41.8746 30.1406 41.8008L30.8203 41.5195C31.605 41.1969 32.4339 41.0987 33.2695 41.2734L33.9492 41.4141C34.1939 41.4648 34.4362 41.4519 34.7109 41.3555L35.3906 41.1211C36.1396 40.8576 36.9164 40.7833 37.6992 40.9102L38.0391 40.957L38.3789 41.0156C38.9698 41.1119 39.5632 41.2504 40.1484 41.4258L40.4766 41.5312L40.8164 41.625C41.294 41.7681 41.7721 41.8856 42.2461 41.9766L42.5859 42.0469L42.9258 42.1055C43.1654 42.1507 43.4095 42.1388 43.6875 42.0352L44.3672 41.7773C45.1955 41.4692 46.0629 41.4438 46.9102 41.707L47.25 41.8125L47.5781 41.918C47.8461 42.0012 48.0972 42.0038 48.3516 41.9414L49.0312 41.7773C49.5932 41.6389 50.1548 41.5166 50.7188 41.4258L51.0586 41.3789L51.3984 41.3203C52.1855 41.1938 52.968 41.2734 53.7188 41.543L54.0586 41.6719L54.3984 41.7891C54.6927 41.8945 54.9603 41.9143 55.2188 41.8711L55.5469 41.8125L55.8867 41.7656C56.6227 41.6425 57.3655 41.6725 58.0898 41.8594L58.4297 41.9414L58.7578 42.0352C59.0623 42.1137 59.3631 42.1207 59.6602 42.0586L59.9883 41.9883L60.3281 41.918C60.8016 41.8189 61.2805 41.6938 61.7578 41.543L62.0977 41.4375L62.4375 41.3203C63.3165 41.0431 64.2107 41.1024 65.0508 41.4609L65.3906 41.6133L65.7305 41.7539C65.7975 41.782 65.8345 41.7781 65.8477 41.7773C65.8669 41.7757 65.9133 41.7651 66 41.7188L66.6797 41.3672C67.468 40.9445 68.3356 40.7676 69.2344 40.9336L69.9141 41.0508C70.2879 41.1196 70.6576 41.1324 71.0273 41.0859L71.3672 41.0508L71.6953 41.0039C72.4181 40.9131 73.1444 40.9667 73.8516 41.1562L74.1914 41.25L74.5312 41.332C74.9799 41.452 75.4255 41.5448 75.8672 41.5898L76.207 41.625L76.5352 41.6484C77.1048 41.7065 77.6783 41.7961 78.2461 41.9062L78.5859 41.9766L78.9258 42.0352C79.2575 42.0994 79.5893 42.1022 79.9219 42.0352L80.25 41.9648L80.5898 41.8945C81.2652 41.7583 81.9473 41.7351 82.6289 41.8125L83.3086 41.8828C83.6903 41.9263 84.0718 41.9144 84.457 41.8477L85.1367 41.7305C85.8289 41.6112 86.5304 41.611 87.2227 41.7305L87.5508 41.7891L87.8906 41.8477C88.3027 41.9188 88.7134 41.942 89.1211 41.918L89.4609 41.9062L89.8008 41.8828C90.2808 41.8543 90.761 41.801 91.2422 41.7305L91.9219 41.6367C92.5456 41.5453 93.1705 41.5174 93.7969 41.5547L94.1367 41.5664L94.4766 41.5898C95.093 41.6269 95.7073 41.7222 96.3164 41.8711L96.9961 42.0352C97.1534 42.0734 97.3217 42.0681 97.5586 41.9531L98.2383 41.625C98.8819 41.3133 99.5468 41.0974 100.23 40.9922L100.57 40.9453L100.91 40.8867C101.569 40.7859 102.23 40.7827 102.891 40.8633L103.23 40.8984L103.57 40.9453C104.133 41.0143 104.696 41.101 105.258 41.2148L105.938 41.3555C106.384 41.4459 106.832 41.4911 107.273 41.5078L107.602 41.5312L107.941 41.543C108.596 41.5677 109.248 41.6696 109.887 41.8594L110.566 42.0703C110.819 42.1453 111.055 42.1407 111.305 42.0703L111.984 41.8828C112.508 41.7352 113.032 41.586 113.555 41.4375L113.895 41.3438L114.223 41.25C115.131 40.9921 116.04 41.0991 116.871 41.5078L117.551 41.8359C117.638 41.8791 117.685 41.8825 117.703 41.8828C117.72 41.8831 117.765 41.8837 117.844 41.8477L118.184 41.6953L118.512 41.543C119.182 41.2376 119.881 41.0473 120.598 40.9922L121.277 40.9453C122.055 40.8862 122.815 41.0192 123.539 41.3203L124.219 41.6016C124.465 41.7028 124.665 41.7064 124.863 41.6602L125.203 41.5898L125.543 41.5078C126.131 41.3688 126.72 41.261 127.312 41.2031L127.652 41.1797L127.992 41.1445C128.81 41.0648 129.604 41.219 130.348 41.5664L130.688 41.7305L131.027 41.8828C131.392 42.0527 131.724 42.1354 132.035 42.1523L132.375 42.1758L132.715 42.1875C133.078 42.2064 133.449 42.1713 133.828 42.0703L134.168 41.9766L134.496 41.8828C135.02 41.7431 135.554 41.6132 136.078 41.4727L136.406 41.3789L136.746 41.2852C137.591 41.0586 138.444 41.1219 139.254 41.4375L139.934 41.6953C140.334 41.8516 140.722 41.9448 141.094 41.9766L141.434 42L141.762 42.0352C142.02 42.0572 142.301 42.0173 142.617 41.8828L142.957 41.7305L143.297 41.5898C144.12 41.2372 144.993 41.1701 145.863 41.4141L146.543 41.6016C146.809 41.6765 147.065 41.6722 147.328 41.6016L147.656 41.5195L147.996 41.4258C148.735 41.2276 149.495 41.1895 150.246 41.332L150.574 41.4023L150.914 41.4609C151.299 41.5341 151.683 41.5565 152.062 41.5195L152.742 41.4492C153.402 41.3845 154.067 41.4067 154.723 41.5195L155.051 41.5781L155.391 41.6367C155.471 41.6505 155.511 41.6505 155.52 41.6484C155.529 41.6459 155.55 41.6327 155.59 41.6016L155.859 41.3906L156.117 41.1797C156.382 40.9673 156.518 40.7807 156.586 40.6406L156.82 40.1484C156.895 39.993 156.962 39.7641 156.973 39.4219L156.996 38.7656C157.012 38.239 157.036 37.6981 157.066 37.1602L157.078 36.832L157.102 36.4922C157.127 36.048 157.113 35.6014 157.066 35.1562L156.996 34.4766C156.924 33.7847 156.979 33.0956 157.137 32.4141L157.207 32.0742L157.289 31.7344C157.361 31.4217 157.364 31.1179 157.301 30.8086L157.16 30.1289C157.022 29.4618 156.981 28.7877 157.043 28.1133L157.113 27.4336C157.149 27.046 157.125 26.654 157.055 26.2617L156.996 25.9219L156.938 25.5938C156.813 24.9017 156.801 24.2012 156.914 23.5078L157.031 22.8281C157.123 22.2686 157.236 21.7102 157.371 21.1523L157.535 20.4727C157.595 20.2243 157.587 19.9777 157.5 19.7109L157.383 19.3828L157.277 19.043C157.052 18.3518 156.957 17.64 156.996 16.9219L157.008 16.582L157.031 16.2422C157.057 15.7774 157.05 15.3126 157.02 14.8477L156.973 14.168C156.919 13.3284 157.126 12.5256 157.523 11.7891L157.898 11.1094V11.0859C157.893 11.0738 157.891 11.0534 157.875 11.0273L157.477 10.3477C156.96 9.48791 156.798 8.50165 157.137 7.51172L157.254 7.17188L157.371 6.84375C157.448 6.61932 157.42 6.49013 157.383 6.39844L157.148 5.8125C157.012 5.47376 156.812 5.12035 156.551 4.75781L156.34 4.46484L156.211 4.28906L156.012 4.34766L155.648 4.42969C155.016 4.5703 154.384 4.65398 153.762 4.67578L153.422 4.6875L153.094 4.69922C152.66 4.71443 152.221 4.76937 151.781 4.86328L151.102 5.00391C150.195 5.19809 149.312 5.04155 148.512 4.61719L148.172 4.42969L147.832 4.25391C147.517 4.0861 147.263 4.04248 147.047 4.05469L146.707 4.06641L146.367 4.08984C145.889 4.11695 145.405 4.15984 144.926 4.23047L144.598 4.28906L144.258 4.33594C143.743 4.41183 143.226 4.49548 142.711 4.58203L142.371 4.64062L142.031 4.6875C141.233 4.82087 140.444 4.73789 139.688 4.45312L139.008 4.19531C138.857 4.1383 138.737 4.14265 138.562 4.21875L138.223 4.35938L137.883 4.51172C137.051 4.87275 136.16 4.93703 135.281 4.67578L134.953 4.58203L134.613 4.47656C134.313 4.38735 134.029 4.37559 133.746 4.42969L133.406 4.5L133.066 4.55859C132.317 4.70187 131.566 4.67306 130.828 4.47656L130.488 4.38281L130.148 4.30078C129.746 4.19382 129.354 4.13675 128.965 4.13672H128.285C127.988 4.13723 127.664 4.20463 127.312 4.35938L126.984 4.51172L126.645 4.65234C125.683 5.07585 124.675 5.01841 123.762 4.53516L123.082 4.18359L123.012 4.14844C123.001 4.15126 122.967 4.16358 122.93 4.18359L122.59 4.37109L122.25 4.54688C121.338 5.03962 120.324 5.11139 119.355 4.6875L119.027 4.53516L118.688 4.39453C118.503 4.31365 118.372 4.31604 118.219 4.37109L117.539 4.60547C116.771 4.8803 115.973 4.95271 115.172 4.79297L114.492 4.65234C114.172 4.58828 113.854 4.59342 113.531 4.66406L113.191 4.73438L112.863 4.81641C112.284 4.94311 111.699 5.03816 111.117 5.09766L110.777 5.12109L110.438 5.15625C109.829 5.21825 109.218 5.23239 108.609 5.19141L108.27 5.16797L107.941 5.14453C107.46 5.11216 106.969 5.09928 106.488 5.10938L106.16 5.12109L105.82 5.13281C105.16 5.14669 104.501 5.07137 103.852 4.91016L103.512 4.81641L103.172 4.73438C102.624 4.59807 102.078 4.44371 101.531 4.27734L101.191 4.18359L100.852 4.07812C100.678 4.02536 100.514 4.02313 100.301 4.11328L99.9609 4.25391L99.6211 4.40625C98.7603 4.7708 97.8476 4.80399 96.9609 4.48828L96.6211 4.37109L96.2812 4.24219C95.9907 4.13912 95.7289 4.12852 95.4727 4.17188L94.793 4.28906C94.1821 4.39426 93.5679 4.43427 92.9531 4.42969H92.2734C91.8723 4.42682 91.4655 4.47347 91.0547 4.57031L90.7148 4.65234L90.3867 4.72266C89.488 4.93452 88.5946 4.80055 87.7852 4.39453L87.457 4.23047L87.1172 4.06641C87.0354 4.02541 86.995 4.01958 86.9883 4.01953C86.9806 4.01949 86.9452 4.01903 86.8711 4.05469L86.1914 4.38281C85.2404 4.84545 84.2232 4.8361 83.2852 4.35938L82.6055 4.00781C82.3952 3.90085 82.2629 3.91181 82.1367 3.94922L81.7969 4.04297L81.4688 4.14844C80.6658 4.38645 79.8343 4.38604 79.0312 4.14844L78.7031 4.04297L78.3633 3.94922C78.3182 3.93589 78.2388 3.90433 78.0234 4.04297L77.6836 4.25391L77.3438 4.47656C76.4055 5.07892 75.3171 5.18683 74.2852 4.66406L73.6055 4.3125C73.3131 4.16478 73.0785 4.1375 72.8789 4.16016L72.5391 4.19531L72.2109 4.23047C71.7085 4.2875 71.202 4.36308 70.6992 4.44141L70.3594 4.48828L70.0195 4.54688C69.4122 4.64159 68.8018 4.6857 68.1914 4.67578L67.8516 4.66406H67.5117C67.0843 4.65701 66.6544 4.69318 66.2227 4.76953L65.543 4.88672C64.9097 4.99825 64.2708 5.037 63.6328 5.00391L63.293 4.98047L62.9648 4.96875C62.3934 4.93911 61.8124 4.88732 61.2422 4.80469L60.9141 4.74609L60.5742 4.69922C59.9427 4.6077 59.3154 4.4543 58.6992 4.23047L58.3594 4.10156L58.0195 3.98438C57.7044 3.87058 57.418 3.83532 57.1406 3.86719L56.8008 3.90234L56.4609 3.94922C56.1047 3.99102 55.7315 4.09695 55.3359 4.27734L54.6562 4.58203C53.8928 4.92949 53.077 5.07051 52.2422 4.94531L51.9023 4.88672L51.5625 4.83984C51.1128 4.77194 50.6619 4.73273 50.2148 4.73438H49.875L49.5469 4.74609C48.8944 4.74849 48.2427 4.66085 47.6016 4.5L46.9219 4.33594C46.6901 4.27766 46.4628 4.28141 46.207 4.37109L45.8672 4.48828L45.5391 4.60547C44.7291 4.88944 43.8829 4.9212 43.0547 4.6875L42.375 4.5C41.9761 4.38781 41.5871 4.32815 41.2031 4.32422H40.5234C39.9883 4.31929 39.4531 4.30614 38.918 4.28906L38.2383 4.26562C37.7265 4.24927 37.2149 4.2346 36.7031 4.23047H36.0234C35.7213 4.22833 35.4022 4.29277 35.0508 4.44141L34.3711 4.72266C33.5422 5.07323 32.6641 5.1311 31.793 4.875L31.4531 4.78125L31.1133 4.67578C30.6132 4.52841 30.1124 4.39778 29.6133 4.27734L28.9336 4.11328C28.4966 4.00803 28.0628 3.95034 27.6328 3.92578L26.9531 3.87891C26.4415 3.85006 25.9295 3.83708 25.418 3.82031L24.7383 3.79688C24.2578 3.78116 23.7775 3.78322 23.2969 3.80859Z" fill="#97DE00"/>
<path d="M67.9041 21.464L53.7915 12.8553C52.4588 12.0424 50.75 13.0016 50.75 14.5627V31.4978C50.75 33.0458 52.4331 34.007 53.7663 33.2204L67.8789 24.894C69.1793 24.1267 69.1931 22.2503 67.9041 21.464Z" fill="#97DE00"/>
<path d="M54.6121 13.6704L55.6692 12.6061L54.6121 13.6704ZM54.8583 13.9149L53.8013 14.9791L54.8583 13.9149ZM56.1691 14.7905L55.595 16.1762L56.1691 14.7905ZM56.4847 14.9212L57.0588 13.5354L56.4847 14.9212ZM56.8003 15.0519L56.2262 16.4377L56.8003 15.0519ZM58.9507 15.8472L59.4421 14.43L58.9507 15.8472ZM60.3913 16.5101L59.6315 17.8035L60.3913 16.5101ZM60.9733 16.8521L61.7331 15.5588L60.9733 16.8521ZM62.1772 17.9029L63.3457 16.9623V16.9623L62.1772 17.9029ZM62.4021 18.1823L61.2337 19.1229L62.4021 18.1823ZM63.9388 19.3357L64.3463 17.8922L63.9388 19.3357ZM64.6133 19.5261L64.2058 20.9697L64.6133 19.5261ZM66.0877 20.1336L65.3543 21.4421L66.0877 20.1336ZM66.3823 20.2987L67.1157 18.9902L66.3823 20.2987ZM66.6769 20.4638L65.9436 21.7723L66.6769 20.4638ZM67.9265 21.4427L69.0157 20.4113L67.9265 21.4427ZM68.4084 21.9516L67.3193 22.983L68.4084 21.9516ZM67.776 25.3401L68.2821 26.7522L67.776 25.3401ZM67.4377 25.4614L66.9316 24.0494L67.4377 25.4614ZM67.0994 25.5827L67.6054 26.9947L67.0994 25.5827ZM65.3231 26.407L64.6016 25.0919L65.3231 26.407ZM65.0271 26.5694L65.7486 27.8845L65.0271 26.5694ZM63.6047 27.2581L63.02 25.8767L63.6047 27.2581ZM62.9775 27.5235L63.5622 28.9049L62.9775 27.5235ZM61.0771 28.7302L60.1638 27.5403L61.0771 28.7302ZM59.6432 30.0636L60.7329 31.0945L59.6432 30.0636ZM59.4019 30.3187L58.3122 29.2879L59.4019 30.3187ZM58.139 31.2778L58.831 32.6087L58.139 31.2778ZM57.5393 31.5896L56.8473 30.2588L57.5393 31.5896ZM56.1533 32.3399L56.8893 33.6469L56.1533 32.3399ZM55.565 32.6712L54.829 31.3642L55.565 32.6712ZM54.077 33.303L54.5159 34.7374L54.077 33.303ZM53.7334 33.4081L53.2946 31.9738L53.7334 33.4081ZM53.3898 33.5133L52.951 32.0789L53.3898 33.5133ZM51.8568 33.2775L51.0325 34.5307L51.8568 33.2775ZM51.23 32.8652L52.0543 31.612L51.23 32.8652ZM50.798 31.5493L52.21 32.0556L50.798 31.5493ZM51.0546 30.8337L49.6426 30.3275L51.0546 30.8337ZM51.2019 29.2114L49.7291 29.4957L51.2019 29.2114ZM51.0716 28.5364L49.5988 28.8207L51.0716 28.5364ZM50.6499 26.9614L52.0689 26.4754L50.6499 26.9614ZM50.4187 26.2864L48.9996 26.7725L50.4187 26.2864ZM50.4397 24.7114L51.8468 25.231L50.4397 24.7114ZM50.6889 24.0364L49.2818 23.5168L50.6889 24.0364ZM50.8248 22.4614L49.353 22.7509L50.8248 22.4614ZM50.7807 19.5364L49.301 19.2901L50.7807 19.5364ZM50.5464 15.7481L51.8035 16.5665L50.5464 15.7481ZM50.7558 15.4263L49.4987 14.608L50.7558 15.4263ZM51.7281 13.8236L50.3957 13.1347L51.7281 13.8236ZM51.8456 13.5964L53.1781 14.2853L51.8456 13.5964ZM51.9631 13.3692L50.6306 12.6803L51.9631 13.3692ZM52.9824 12.8996L53.1039 11.4045L52.9824 12.8996ZM53.2059 12.9178L53.0845 14.4128L53.2059 12.9178ZM53.75 12.9235L55.0305 13.7046L53.75 12.9235ZM53.7596 12.9077L55.0401 13.6889L53.7596 12.9077ZM53.7691 12.892L52.4886 12.1109L53.7691 12.892ZM54.3659 13.4259L53.3089 14.4901L54.3659 13.4259ZM54.6121 13.6704L53.5551 14.7346L53.8013 14.9791L54.8583 13.9149L55.9154 12.8506L55.6692 12.6061L54.6121 13.6704ZM54.8583 13.9149L53.8013 14.9791C54.3205 15.4949 54.9209 15.897 55.595 16.1762L56.1691 14.7905L56.7432 13.4047C56.4356 13.2772 56.162 13.0956 55.9154 12.8506L54.8583 13.9149ZM56.1691 14.7905L55.595 16.1762L55.9106 16.307L56.4847 14.9212L57.0588 13.5354L56.7432 13.4047L56.1691 14.7905ZM56.4847 14.9212L55.9106 16.307L56.2262 16.4377L56.8003 15.0519L57.3744 13.6661L57.0588 13.5354L56.4847 14.9212ZM56.8003 15.0519L56.2262 16.4377C56.7447 16.6525 57.2716 16.8527 57.8068 17.0382L58.2981 15.6209L58.7894 14.2037C58.3094 14.0373 57.8377 13.8581 57.3744 13.6661L56.8003 15.0519ZM58.2981 15.6209L57.8068 17.0382L58.1331 17.1513L58.6244 15.7341L59.1158 14.3168L58.7894 14.2037L58.2981 15.6209ZM58.6244 15.7341L58.1331 17.1513L58.4594 17.2645L58.9507 15.8472L59.4421 14.43L59.1158 14.3168L58.6244 15.7341ZM58.9507 15.8472L58.4594 17.2645C58.8758 17.4088 59.2659 17.5887 59.6315 17.8035L60.3913 16.5101L61.1511 15.2168C60.6112 14.8996 60.0409 14.6376 59.4421 14.43L58.9507 15.8472ZM60.3913 16.5101L59.6315 17.8035L59.9225 17.9744L60.6823 16.6811L61.4421 15.3878L61.1511 15.2168L60.3913 16.5101ZM60.6823 16.6811L59.9225 17.9744L60.2135 18.1454L60.9733 16.8521L61.7331 15.5588L61.4421 15.3878L60.6823 16.6811ZM60.9733 16.8521L60.2135 18.1454C60.5003 18.3139 60.7655 18.5413 61.0088 18.8435L62.1772 17.9029L63.3457 16.9623C62.8892 16.3953 62.3519 15.9222 61.7331 15.5588L60.9733 16.8521ZM62.1772 17.9029L61.0088 18.8435L61.2337 19.1229L62.4021 18.1823L63.5706 17.2417L63.3457 16.9623L62.1772 17.9029ZM62.4021 18.1823L61.2337 19.1229L61.4586 19.4023L62.627 18.4617L63.7955 17.5211L63.5706 17.2417L62.4021 18.1823ZM62.627 18.4617L61.4586 19.4023C61.9989 20.0734 62.6995 20.5446 63.5313 20.7793L63.9388 19.3357L64.3463 17.8922C64.1288 17.8308 63.955 17.7192 63.7955 17.5211L62.627 18.4617ZM63.9388 19.3357L63.5313 20.7793L63.8686 20.8745L64.2761 19.4309L64.6835 17.9874L64.3463 17.8922L63.9388 19.3357ZM64.2761 19.4309L63.8686 20.8745L64.2058 20.9697L64.6133 19.5261L65.0208 18.0826L64.6835 17.9874L64.2761 19.4309ZM64.6133 19.5261L64.2058 20.9697C64.6212 21.087 65.0028 21.245 65.3543 21.4421L66.0877 20.1336L66.8211 18.825C66.256 18.5084 65.6547 18.2615 65.0208 18.0826L64.6133 19.5261ZM66.0877 20.1336L65.3543 21.4421L65.649 21.6072L66.3823 20.2987L67.1157 18.9902L66.8211 18.825L66.0877 20.1336ZM66.3823 20.2987L65.649 21.6072L65.9436 21.7723L66.6769 20.4638L67.4103 19.1553L67.1157 18.9902L66.3823 20.2987ZM66.6769 20.4638L65.9436 21.7723C66.2651 21.9525 66.5626 22.184 66.8374 22.4741L67.9265 21.4427L69.0157 20.4113C68.5409 19.9099 68.0054 19.4888 67.4103 19.1553L66.6769 20.4638ZM67.9265 21.4427L66.8374 22.4741L67.0783 22.7285L68.1675 21.6971L69.2566 20.6658L69.0157 20.4113L67.9265 21.4427ZM68.1675 21.6971L67.0783 22.7285L67.3193 22.983L68.4084 21.9516L69.4976 20.9202L69.2566 20.6658L68.1675 21.6971ZM68.4084 21.9516L67.3193 22.983C67.3381 23.0029 67.3459 23.0152 67.3483 23.0195C67.3506 23.0234 67.3514 23.0255 67.3522 23.0283C67.3529 23.0306 67.3659 23.0744 67.3479 23.1856L68.8288 23.4244L70.3097 23.6632C70.4709 22.6633 70.2253 21.6887 69.4976 20.9202L68.4084 21.9516ZM68.8288 23.4244L67.3479 23.1856L67.2872 23.5624L68.768 23.8012L70.2489 24.04L70.3097 23.6632L68.8288 23.4244ZM68.768 23.8012L67.2872 23.5624L67.2264 23.9392L68.7073 24.178L70.1881 24.4168L70.2489 24.04L68.768 23.8012ZM68.7073 24.178L67.2264 23.9392C67.2191 23.9842 67.2113 24.0035 67.2109 24.0043C67.2108 24.0046 67.2123 24.001 67.2161 23.9945C67.22 23.9879 67.2256 23.9795 67.233 23.9702C67.2405 23.9608 67.2488 23.9519 67.2575 23.9439C67.2661 23.9359 67.2738 23.9299 67.2797 23.9259C67.292 23.9174 67.2917 23.9203 67.2699 23.9281L67.776 25.3401L68.2821 26.7522C68.7725 26.5764 69.2243 26.2826 69.5741 25.8461C69.9205 25.4138 70.1077 24.9156 70.1881 24.4168L68.7073 24.178ZM67.776 25.3401L67.2699 23.9281L66.9316 24.0494L67.4377 25.4614L67.9438 26.8735L68.2821 26.7522L67.776 25.3401ZM67.4377 25.4614L66.9316 24.0494L66.5933 24.1706L67.0994 25.5827L67.6054 26.9947L67.9438 26.8735L67.4377 25.4614ZM67.0994 25.5827L66.5933 24.1706C65.9974 24.3842 65.4316 24.6366 64.8976 24.9295L65.6191 26.2446L66.3406 27.5597C66.7277 27.3473 67.1487 27.1584 67.6054 26.9947L67.0994 25.5827ZM65.6191 26.2446L64.8976 24.9295L64.6016 25.0919L65.3231 26.407L66.0446 27.7221L66.3406 27.5597L65.6191 26.2446ZM65.3231 26.407L64.6016 25.0919L64.3056 25.2544L65.0271 26.5694L65.7486 27.8845L66.0446 27.7221L65.3231 26.407ZM65.0271 26.5694L64.3056 25.2544C63.8899 25.4824 63.4615 25.6899 63.02 25.8767L63.6047 27.2581L64.1893 28.6394C64.7234 28.4134 65.2432 28.1618 65.7486 27.8845L65.0271 26.5694ZM63.6047 27.2581L63.02 25.8767L62.7065 26.0094L63.2911 27.3908L63.8758 28.7722L64.1893 28.6394L63.6047 27.2581ZM63.2911 27.3908L62.7065 26.0094L62.3929 26.1421L62.9775 27.5235L63.5622 28.9049L63.8758 28.7722L63.2911 27.3908ZM62.9775 27.5235L62.3929 26.1421C61.7881 26.3981 61.224 26.7266 60.7033 27.1263L61.6165 28.3162L62.5298 29.5061C62.8483 29.2617 63.1915 29.0618 63.5622 28.9049L62.9775 27.5235ZM61.6165 28.3162L60.7033 27.1263L60.4335 27.3333L61.3468 28.5232L62.2601 29.7131L62.5298 29.5061L61.6165 28.3162ZM61.3468 28.5232L60.4335 27.3333L60.1638 27.5403L61.0771 28.7302L61.9904 29.9202L62.2601 29.7131L61.3468 28.5232ZM61.0771 28.7302L60.1638 27.5403C59.6793 27.9121 59.2231 28.3251 58.7949 28.7777L59.8846 29.8085L60.9742 30.8394C61.2969 30.4982 61.6357 30.1923 61.9904 29.9202L61.0771 28.7302ZM59.8846 29.8085L58.7949 28.7777L58.5536 29.0328L59.6432 30.0636L60.7329 31.0945L60.9742 30.8394L59.8846 29.8085ZM59.6432 30.0636L58.5536 29.0328L58.3122 29.2879L59.4019 30.3187L60.4915 31.3496L60.7329 31.0945L59.6432 30.0636ZM59.4019 30.3187L58.3122 29.2879C58.0472 29.5681 57.7594 29.7845 57.4471 29.9469L58.139 31.2778L58.831 32.6087C59.4516 32.286 60.0057 31.8631 60.4915 31.3496L59.4019 30.3187ZM58.139 31.2778L57.4471 29.9469L57.1472 30.1029L57.8392 31.4337L58.5311 32.7646L58.831 32.6087L58.139 31.2778ZM57.8392 31.4337L57.1472 30.1029L56.8473 30.2588L57.5393 31.5896L58.2313 32.9205L58.5311 32.7646L57.8392 31.4337ZM57.5393 31.5896L56.8473 30.2588C56.366 30.509 55.8893 30.7671 55.4172 31.0329L56.1533 32.3399L56.8893 33.6469C57.3323 33.3975 57.7796 33.1553 58.2313 32.9205L57.5393 31.5896ZM56.1533 32.3399L55.4172 31.0329L55.1231 31.1986L55.8591 32.5056L56.5952 33.8126L56.8893 33.6469L56.1533 32.3399ZM55.8591 32.5056L55.1231 31.1986L54.829 31.3642L55.565 32.6712L56.3011 33.9782L56.5952 33.8126L55.8591 32.5056ZM55.565 32.6712L54.829 31.3642C54.4714 31.5656 54.0759 31.7347 53.6382 31.8686L54.077 33.303L54.5159 34.7374C55.1471 34.5443 55.7435 34.2922 56.3011 33.9782L55.565 32.6712ZM54.077 33.303L53.6382 31.8686L53.2946 31.9738L53.7334 33.4081L54.1723 34.8425L54.5159 34.7374L54.077 33.303ZM53.7334 33.4081L53.2946 31.9738L52.951 32.0789L53.3898 33.5133L53.8287 34.9476L54.1723 34.8425L53.7334 33.4081ZM53.3898 33.5133L52.951 32.0789C52.8818 32.1001 52.8485 32.0966 52.8338 32.0944C52.8171 32.0918 52.7682 32.0815 52.6812 32.0243L51.8568 33.2775L51.0325 34.5307C51.8742 35.0843 52.846 35.2483 53.8287 34.9476L53.3898 33.5133ZM51.8568 33.2775L52.6812 32.0243L52.3677 31.8181L51.5434 33.0713L50.7191 34.3245L51.0325 34.5307L51.8568 33.2775ZM51.5434 33.0713L52.3677 31.8181L52.0543 31.612L51.23 32.8652L50.4057 34.1184L50.7191 34.3245L51.5434 33.0713ZM51.23 32.8652L52.0543 31.612C52.0176 31.5878 52.1224 31.6478 52.1815 31.8278C52.2398 32.0052 52.1909 32.1088 52.21 32.0556L50.798 31.5493L49.386 31.043C49.2056 31.5463 49.1289 32.1475 49.3312 32.7635C49.5342 33.3821 49.9548 33.8218 50.4057 34.1184L51.23 32.8652ZM50.798 31.5493L52.21 32.0556L52.3383 31.6978L50.9263 31.1915L49.5143 30.6852L49.386 31.043L50.798 31.5493ZM50.9263 31.1915L52.3383 31.6978L52.4666 31.34L51.0546 30.8337L49.6426 30.3275L49.5143 30.6852L50.9263 31.1915ZM51.0546 30.8337L52.4666 31.34C52.747 30.5577 52.8323 29.7436 52.6747 28.9271L51.2019 29.2114L49.7291 29.4957C49.7741 29.7292 49.7612 29.9967 49.6426 30.3275L51.0546 30.8337ZM51.2019 29.2114L52.6747 28.9271L52.6096 28.5896L51.1367 28.8739L49.6639 29.1582L49.7291 29.4957L51.2019 29.2114ZM51.1367 28.8739L52.6096 28.5896L52.5444 28.2521L51.0716 28.5364L49.5988 28.8207L49.6639 29.1582L51.1367 28.8739ZM51.0716 28.5364L52.5444 28.2521C52.4294 27.6562 52.2705 27.0638 52.0689 26.4754L50.6499 26.9614L49.2308 27.4475C49.3889 27.909 49.5111 28.3667 49.5988 28.8207L51.0716 28.5364ZM50.6499 26.9614L52.0689 26.4754L51.9533 26.1379L50.5343 26.6239L49.1152 27.11L49.2308 27.4475L50.6499 26.9614ZM50.5343 26.6239L51.9533 26.1379L51.8377 25.8004L50.4187 26.2864L48.9996 26.7725L49.1152 27.11L50.5343 26.6239ZM50.4187 26.2864L51.8377 25.8004C51.7708 25.605 51.7715 25.4351 51.8468 25.231L50.4397 24.7114L49.0326 24.1918C48.7202 25.0377 48.7069 25.9179 48.9996 26.7725L50.4187 26.2864ZM50.4397 24.7114L51.8468 25.231L51.9715 24.8935L50.5643 24.3739L49.1572 23.8543L49.0326 24.1918L50.4397 24.7114ZM50.5643 24.3739L51.9715 24.8935L52.0961 24.556L50.6889 24.0364L49.2818 23.5168L49.1572 23.8543L50.5643 24.3739ZM50.6889 24.0364L52.0961 24.556C52.3808 23.7848 52.4556 22.9802 52.2967 22.172L50.8248 22.4614L49.353 22.7509C49.4006 22.9926 49.3847 23.238 49.2818 23.5168L50.6889 24.0364ZM50.8248 22.4614L52.2967 22.172L52.2303 21.8345L50.7585 22.1239L49.2867 22.4134L49.353 22.7509L50.8248 22.4614ZM50.7585 22.1239L52.2303 21.8345L52.1639 21.497L50.6921 21.7864L49.2203 22.0759L49.2867 22.4134L50.7585 22.1239ZM50.6921 21.7864L52.1639 21.497C52.0952 21.1477 52.0903 20.8041 52.148 20.4577L50.6683 20.2114L49.1887 19.9651C49.0716 20.6687 49.0825 21.3752 49.2203 22.0759L50.6921 21.7864ZM50.6683 20.2114L52.148 20.4577L52.2041 20.1202L50.7245 19.8739L49.2448 19.6276L49.1887 19.9651L50.6683 20.2114ZM50.7245 19.8739L52.2041 20.1202L52.2603 19.7827L50.7807 19.5364L49.301 19.2901L49.2448 19.6276L50.7245 19.8739ZM50.7807 19.5364L52.2603 19.7827C52.3937 18.9813 52.3033 18.188 52.0152 17.4291L50.6128 17.9614L49.2104 18.4938C49.3209 18.7848 49.3424 19.0415 49.301 19.2901L50.7807 19.5364ZM50.6128 17.9614L52.0152 17.4291L51.8871 17.0916L50.4847 17.6239L49.0823 18.1563L49.2104 18.4938L50.6128 17.9614ZM50.4847 17.6239L51.8871 17.0916L51.7589 16.7541L50.3566 17.2864L48.9542 17.8188L49.0823 18.1563L50.4847 17.6239ZM50.3566 17.2864L51.7589 16.7541C51.7474 16.7237 51.7444 16.7063 51.7436 16.7C51.7429 16.6943 51.7432 16.6926 51.7433 16.6918C51.7434 16.6907 51.7445 16.682 51.7516 16.6635C51.7589 16.6444 51.7738 16.6121 51.8035 16.5665L50.5464 15.7481L49.2893 14.9298C48.7217 15.8017 48.5728 16.8139 48.9542 17.8188L50.3566 17.2864ZM50.5464 15.7481L51.8035 16.5665L52.013 16.2447L50.7558 15.4263L49.4987 14.608L49.2893 14.9298L50.5464 15.7481ZM50.7558 15.4263L52.013 16.2447L52.2224 15.9229L50.9653 15.1046L49.7082 14.2862L49.4987 14.608L50.7558 15.4263ZM50.9653 15.1046L52.2224 15.9229C52.5635 15.399 52.8466 14.9264 53.0606 14.5125L51.7281 13.8236L50.3957 13.1347C50.2442 13.4278 50.0188 13.8091 49.7082 14.2862L50.9653 15.1046ZM51.7281 13.8236L53.0606 14.5125L53.1781 14.2853L51.8456 13.5964L50.5132 12.9075L50.3957 13.1347L51.7281 13.8236ZM51.8456 13.5964L53.1781 14.2853L53.2955 14.0581L51.9631 13.3692L50.6306 12.6803L50.5132 12.9075L51.8456 13.5964ZM51.9631 13.3692L53.2955 14.0581C53.2953 14.0586 53.2819 14.0846 53.2483 14.1232C53.2136 14.1632 53.1595 14.2141 53.083 14.261C52.9118 14.366 52.7402 14.3849 52.6373 14.3765L52.7588 12.8814L52.8803 11.3863C52.4296 11.3497 51.9516 11.4358 51.5151 11.7033C51.0926 11.9623 50.8131 12.3273 50.6306 12.6803L51.9631 13.3692ZM52.7588 12.8814L52.6373 14.3765L52.8609 14.3947L52.9824 12.8996L53.1039 11.4045L52.8803 11.3863L52.7588 12.8814ZM52.9824 12.8996L52.8609 14.3947L53.0845 14.4128L53.2059 12.9178L53.3274 11.4227L53.1039 11.4045L52.9824 12.8996ZM53.2059 12.9178L53.0845 14.4128C53.2677 14.4277 53.4423 14.4388 53.587 14.4403C53.6525 14.441 53.7609 14.4406 53.8788 14.427C53.9325 14.4209 54.0498 14.4055 54.1887 14.3616C54.232 14.348 54.721 14.212 55.0305 13.7046L53.75 12.9235L52.4694 12.1423C52.6407 11.8615 52.8602 11.7086 52.9807 11.6372C53.1089 11.5613 53.2211 11.5212 53.2845 11.5011C53.4091 11.4617 53.5072 11.45 53.5363 11.4467C53.6051 11.4388 53.6437 11.4407 53.6185 11.4405C53.5819 11.4401 53.4919 11.436 53.3274 11.4227L53.2059 12.9178ZM53.75 12.9235L55.0305 13.7046L55.0401 13.6889L53.7596 12.9077L52.479 12.1266L52.4694 12.1423L53.75 12.9235ZM53.7596 12.9077L55.0401 13.6889L55.0497 13.6731L53.7691 12.892L52.4886 12.1109L52.479 12.1266L53.7596 12.9077ZM53.7691 12.892L55.0497 13.6731C54.8903 13.9345 54.6565 14.1376 54.3831 14.2598C54.1283 14.3736 53.8955 14.3929 53.7407 14.3894C53.4582 14.3831 53.2525 14.2968 53.1918 14.2708C53.0441 14.2073 52.9467 14.1349 52.9402 14.1302C52.8987 14.1005 52.8879 14.0879 52.9295 14.1251C52.9985 14.1869 53.1213 14.3038 53.3089 14.4901L54.3659 13.4259L55.423 12.3616C55.2276 12.1676 55.0594 12.0053 54.9296 11.8891C54.8717 11.8373 54.7844 11.7611 54.6895 11.693C54.6563 11.6692 54.5379 11.5838 54.3749 11.5139C54.3066 11.4846 54.0947 11.3966 53.8075 11.3902C53.468 11.3826 52.8576 11.5059 52.4886 12.1109L53.7691 12.892ZM54.3659 13.4259L53.3089 14.4901L53.5551 14.7346L54.6121 13.6704L55.6692 12.6061L55.423 12.3616L54.3659 13.4259Z" fill="#97DE00"/>
<path d="M52.4041 21.464L38.2915 12.8553C36.9588 12.0424 35.25 13.0016 35.25 14.5627V31.4978C35.25 33.0458 36.9331 34.007 38.2663 33.2204L52.3789 24.894C53.6793 24.1267 53.6931 22.2503 52.4041 21.464Z" fill="#97DE00"/>
<path d="M39.1121 13.6704L40.1692 12.6061L39.1121 13.6704ZM39.3583 13.9149L38.3013 14.9791L39.3583 13.9149ZM40.6691 14.7905L40.095 16.1762L40.6691 14.7905ZM40.9847 14.9212L41.5588 13.5354L40.9847 14.9212ZM41.3003 15.0519L40.7262 16.4377L41.3003 15.0519ZM43.4507 15.8472L43.9421 14.43L43.4507 15.8472ZM44.8913 16.5101L44.1315 17.8035L44.8913 16.5101ZM45.4733 16.8521L46.2331 15.5588L45.4733 16.8521ZM46.6772 17.9029L47.8457 16.9623V16.9623L46.6772 17.9029ZM46.9021 18.1823L45.7337 19.1229L46.9021 18.1823ZM48.4388 19.3357L48.8463 17.8922L48.4388 19.3357ZM49.1133 19.5261L48.7058 20.9697L49.1133 19.5261ZM50.5877 20.1336L49.8543 21.4421L50.5877 20.1336ZM50.8823 20.2987L51.6157 18.9902L50.8823 20.2987ZM51.1769 20.4638L50.4436 21.7723L51.1769 20.4638ZM52.4265 21.4427L53.5157 20.4113L52.4265 21.4427ZM52.9084 21.9516L51.8193 22.983L52.9084 21.9516ZM52.276 25.3401L52.7821 26.7522L52.276 25.3401ZM51.9377 25.4614L51.4316 24.0494L51.9377 25.4614ZM51.5994 25.5827L52.1054 26.9947L51.5994 25.5827ZM49.8231 26.407L49.1016 25.0919L49.8231 26.407ZM49.5271 26.5694L50.2486 27.8845L49.5271 26.5694ZM48.1047 27.2581L47.52 25.8767L48.1047 27.2581ZM47.4775 27.5235L48.0622 28.9049L47.4775 27.5235ZM45.5771 28.7302L44.6638 27.5403L45.5771 28.7302ZM44.1432 30.0636L45.2329 31.0945L44.1432 30.0636ZM43.9019 30.3187L42.8122 29.2879L43.9019 30.3187ZM42.639 31.2778L43.331 32.6087L42.639 31.2778ZM42.0393 31.5896L41.3473 30.2588L42.0393 31.5896ZM40.6533 32.3399L41.3893 33.6469L40.6533 32.3399ZM40.065 32.6712L39.329 31.3642L40.065 32.6712ZM38.577 33.303L39.0159 34.7374L38.577 33.303ZM38.2334 33.4081L37.7946 31.9738L38.2334 33.4081ZM37.8898 33.5133L37.451 32.0789L37.8898 33.5133ZM36.3568 33.2775L35.5325 34.5307L36.3568 33.2775ZM35.73 32.8652L36.5543 31.612L35.73 32.8652ZM35.298 31.5493L36.71 32.0556L35.298 31.5493ZM35.5546 30.8337L34.1426 30.3275L35.5546 30.8337ZM35.7019 29.2114L34.2291 29.4957L35.7019 29.2114ZM35.5716 28.5364L34.0988 28.8207L35.5716 28.5364ZM35.1499 26.9614L36.5689 26.4754L35.1499 26.9614ZM34.9187 26.2864L33.4996 26.7725L34.9187 26.2864ZM34.9397 24.7114L36.3468 25.231L34.9397 24.7114ZM35.1889 24.0364L33.7818 23.5168L35.1889 24.0364ZM35.3248 22.4614L33.853 22.7509L35.3248 22.4614ZM35.2807 19.5364L33.801 19.2901L35.2807 19.5364ZM35.0464 15.7481L36.3035 16.5665L35.0464 15.7481ZM35.2558 15.4263L33.9987 14.608L35.2558 15.4263ZM36.2281 13.8236L34.8957 13.1347L36.2281 13.8236ZM36.3456 13.5964L37.6781 14.2853L36.3456 13.5964ZM36.4631 13.3692L35.1306 12.6803L36.4631 13.3692ZM37.4824 12.8996L37.6039 11.4045L37.4824 12.8996ZM37.7059 12.9178L37.5845 14.4128L37.7059 12.9178ZM38.25 12.9235L39.5305 13.7046L38.25 12.9235ZM38.2596 12.9077L39.5401 13.6889L38.2596 12.9077ZM38.2691 12.892L36.9886 12.1109L38.2691 12.892ZM38.8659 13.4259L37.8089 14.4901L38.8659 13.4259ZM39.1121 13.6704L38.0551 14.7346L38.3013 14.9791L39.3583 13.9149L40.4154 12.8506L40.1692 12.6061L39.1121 13.6704ZM39.3583 13.9149L38.3013 14.9791C38.8205 15.4949 39.4209 15.897 40.095 16.1762L40.6691 14.7905L41.2432 13.4047C40.9356 13.2772 40.662 13.0956 40.4154 12.8506L39.3583 13.9149ZM40.6691 14.7905L40.095 16.1762L40.4106 16.307L40.9847 14.9212L41.5588 13.5354L41.2432 13.4047L40.6691 14.7905ZM40.9847 14.9212L40.4106 16.307L40.7262 16.4377L41.3003 15.0519L41.8744 13.6661L41.5588 13.5354L40.9847 14.9212ZM41.3003 15.0519L40.7262 16.4377C41.2447 16.6525 41.7716 16.8527 42.3068 17.0382L42.7981 15.6209L43.2894 14.2037C42.8094 14.0373 42.3377 13.8581 41.8744 13.6661L41.3003 15.0519ZM42.7981 15.6209L42.3068 17.0382L42.6331 17.1513L43.1244 15.7341L43.6158 14.3168L43.2894 14.2037L42.7981 15.6209ZM43.1244 15.7341L42.6331 17.1513L42.9594 17.2645L43.4507 15.8472L43.9421 14.43L43.6158 14.3168L43.1244 15.7341ZM43.4507 15.8472L42.9594 17.2645C43.3758 17.4088 43.7659 17.5887 44.1315 17.8035L44.8913 16.5101L45.6511 15.2168C45.1112 14.8996 44.5409 14.6376 43.9421 14.43L43.4507 15.8472ZM44.8913 16.5101L44.1315 17.8035L44.4225 17.9744L45.1823 16.6811L45.9421 15.3878L45.6511 15.2168L44.8913 16.5101ZM45.1823 16.6811L44.4225 17.9744L44.7135 18.1454L45.4733 16.8521L46.2331 15.5588L45.9421 15.3878L45.1823 16.6811ZM45.4733 16.8521L44.7135 18.1454C45.0003 18.3139 45.2655 18.5413 45.5088 18.8435L46.6772 17.9029L47.8457 16.9623C47.3892 16.3953 46.8519 15.9222 46.2331 15.5588L45.4733 16.8521ZM46.6772 17.9029L45.5088 18.8435L45.7337 19.1229L46.9021 18.1823L48.0706 17.2417L47.8457 16.9623L46.6772 17.9029ZM46.9021 18.1823L45.7337 19.1229L45.9586 19.4023L47.127 18.4617L48.2955 17.5211L48.0706 17.2417L46.9021 18.1823ZM47.127 18.4617L45.9586 19.4023C46.4989 20.0734 47.1995 20.5446 48.0313 20.7793L48.4388 19.3357L48.8463 17.8922C48.6288 17.8308 48.455 17.7192 48.2955 17.5211L47.127 18.4617ZM48.4388 19.3357L48.0313 20.7793L48.3686 20.8745L48.7761 19.4309L49.1835 17.9874L48.8463 17.8922L48.4388 19.3357ZM48.7761 19.4309L48.3686 20.8745L48.7058 20.9697L49.1133 19.5261L49.5208 18.0826L49.1835 17.9874L48.7761 19.4309ZM49.1133 19.5261L48.7058 20.9697C49.1212 21.087 49.5028 21.245 49.8543 21.4421L50.5877 20.1336L51.3211 18.825C50.756 18.5084 50.1547 18.2615 49.5208 18.0826L49.1133 19.5261ZM50.5877 20.1336L49.8543 21.4421L50.149 21.6072L50.8823 20.2987L51.6157 18.9902L51.3211 18.825L50.5877 20.1336ZM50.8823 20.2987L50.149 21.6072L50.4436 21.7723L51.1769 20.4638L51.9103 19.1553L51.6157 18.9902L50.8823 20.2987ZM51.1769 20.4638L50.4436 21.7723C50.7651 21.9525 51.0626 22.184 51.3374 22.4741L52.4265 21.4427L53.5157 20.4113C53.0409 19.9099 52.5054 19.4888 51.9103 19.1553L51.1769 20.4638ZM52.4265 21.4427L51.3374 22.4741L51.5783 22.7285L52.6675 21.6971L53.7566 20.6658L53.5157 20.4113L52.4265 21.4427ZM52.6675 21.6971L51.5783 22.7285L51.8193 22.983L52.9084 21.9516L53.9976 20.9202L53.7566 20.6658L52.6675 21.6971ZM52.9084 21.9516L51.8193 22.983C51.8381 23.0029 51.8459 23.0152 51.8483 23.0195C51.8506 23.0234 51.8514 23.0255 51.8522 23.0283C51.8529 23.0306 51.8659 23.0744 51.8479 23.1856L53.3288 23.4244L54.8097 23.6632C54.9709 22.6633 54.7253 21.6887 53.9976 20.9202L52.9084 21.9516ZM53.3288 23.4244L51.8479 23.1856L51.7872 23.5624L53.268 23.8012L54.7489 24.04L54.8097 23.6632L53.3288 23.4244ZM53.268 23.8012L51.7872 23.5624L51.7264 23.9392L53.2073 24.178L54.6881 24.4168L54.7489 24.04L53.268 23.8012ZM53.2073 24.178L51.7264 23.9392C51.7191 23.9842 51.7113 24.0035 51.7109 24.0043C51.7108 24.0046 51.7123 24.001 51.7161 23.9945C51.72 23.9879 51.7256 23.9795 51.733 23.9702C51.7405 23.9608 51.7488 23.9519 51.7575 23.9439C51.7661 23.9359 51.7738 23.9299 51.7797 23.9259C51.792 23.9174 51.7917 23.9203 51.7699 23.9281L52.276 25.3401L52.7821 26.7522C53.2725 26.5764 53.7243 26.2826 54.0741 25.8461C54.4205 25.4138 54.6077 24.9156 54.6881 24.4168L53.2073 24.178ZM52.276 25.3401L51.7699 23.9281L51.4316 24.0494L51.9377 25.4614L52.4438 26.8735L52.7821 26.7522L52.276 25.3401ZM51.9377 25.4614L51.4316 24.0494L51.0933 24.1706L51.5994 25.5827L52.1054 26.9947L52.4438 26.8735L51.9377 25.4614ZM51.5994 25.5827L51.0933 24.1706C50.4974 24.3842 49.9316 24.6366 49.3976 24.9295L50.1191 26.2446L50.8406 27.5597C51.2277 27.3473 51.6487 27.1584 52.1054 26.9947L51.5994 25.5827ZM50.1191 26.2446L49.3976 24.9295L49.1016 25.0919L49.8231 26.407L50.5446 27.7221L50.8406 27.5597L50.1191 26.2446ZM49.8231 26.407L49.1016 25.0919L48.8056 25.2544L49.5271 26.5694L50.2486 27.8845L50.5446 27.7221L49.8231 26.407ZM49.5271 26.5694L48.8056 25.2544C48.3899 25.4824 47.9615 25.6899 47.52 25.8767L48.1047 27.2581L48.6893 28.6394C49.2234 28.4134 49.7432 28.1618 50.2486 27.8845L49.5271 26.5694ZM48.1047 27.2581L47.52 25.8767L47.2065 26.0094L47.7911 27.3908L48.3758 28.7722L48.6893 28.6394L48.1047 27.2581ZM47.7911 27.3908L47.2065 26.0094L46.8929 26.1421L47.4775 27.5235L48.0622 28.9049L48.3758 28.7722L47.7911 27.3908ZM47.4775 27.5235L46.8929 26.1421C46.2881 26.3981 45.724 26.7266 45.2033 27.1263L46.1165 28.3162L47.0298 29.5061C47.3483 29.2617 47.6915 29.0618 48.0622 28.9049L47.4775 27.5235ZM46.1165 28.3162L45.2033 27.1263L44.9335 27.3333L45.8468 28.5232L46.7601 29.7131L47.0298 29.5061L46.1165 28.3162ZM45.8468 28.5232L44.9335 27.3333L44.6638 27.5403L45.5771 28.7302L46.4904 29.9202L46.7601 29.7131L45.8468 28.5232ZM45.5771 28.7302L44.6638 27.5403C44.1793 27.9121 43.7231 28.3251 43.2949 28.7777L44.3846 29.8085L45.4742 30.8394C45.7969 30.4982 46.1357 30.1923 46.4904 29.9202L45.5771 28.7302ZM44.3846 29.8085L43.2949 28.7777L43.0536 29.0328L44.1432 30.0636L45.2329 31.0945L45.4742 30.8394L44.3846 29.8085ZM44.1432 30.0636L43.0536 29.0328L42.8122 29.2879L43.9019 30.3187L44.9915 31.3496L45.2329 31.0945L44.1432 30.0636ZM43.9019 30.3187L42.8122 29.2879C42.5472 29.5681 42.2594 29.7845 41.9471 29.9469L42.639 31.2778L43.331 32.6087C43.9516 32.286 44.5057 31.8631 44.9915 31.3496L43.9019 30.3187ZM42.639 31.2778L41.9471 29.9469L41.6472 30.1029L42.3392 31.4337L43.0311 32.7646L43.331 32.6087L42.639 31.2778ZM42.3392 31.4337L41.6472 30.1029L41.3473 30.2588L42.0393 31.5896L42.7313 32.9205L43.0311 32.7646L42.3392 31.4337ZM42.0393 31.5896L41.3473 30.2588C40.866 30.509 40.3893 30.7671 39.9172 31.0329L40.6533 32.3399L41.3893 33.6469C41.8323 33.3975 42.2796 33.1553 42.7313 32.9205L42.0393 31.5896ZM40.6533 32.3399L39.9172 31.0329L39.6231 31.1986L40.3591 32.5056L41.0952 33.8126L41.3893 33.6469L40.6533 32.3399ZM40.3591 32.5056L39.6231 31.1986L39.329 31.3642L40.065 32.6712L40.8011 33.9782L41.0952 33.8126L40.3591 32.5056ZM40.065 32.6712L39.329 31.3642C38.9714 31.5656 38.5759 31.7347 38.1382 31.8686L38.577 33.303L39.0159 34.7374C39.6471 34.5443 40.2435 34.2922 40.8011 33.9782L40.065 32.6712ZM38.577 33.303L38.1382 31.8686L37.7946 31.9738L38.2334 33.4081L38.6723 34.8425L39.0159 34.7374L38.577 33.303ZM38.2334 33.4081L37.7946 31.9738L37.451 32.0789L37.8898 33.5133L38.3287 34.9476L38.6723 34.8425L38.2334 33.4081ZM37.8898 33.5133L37.451 32.0789C37.3818 32.1001 37.3485 32.0966 37.3338 32.0944C37.3171 32.0918 37.2682 32.0815 37.1812 32.0243L36.3568 33.2775L35.5325 34.5307C36.3742 35.0843 37.346 35.2483 38.3287 34.9476L37.8898 33.5133ZM36.3568 33.2775L37.1812 32.0243L36.8677 31.8181L36.0434 33.0713L35.2191 34.3245L35.5325 34.5307L36.3568 33.2775ZM36.0434 33.0713L36.8677 31.8181L36.5543 31.612L35.73 32.8652L34.9057 34.1184L35.2191 34.3245L36.0434 33.0713ZM35.73 32.8652L36.5543 31.612C36.5176 31.5878 36.6224 31.6478 36.6815 31.8278C36.7398 32.0052 36.6909 32.1088 36.71 32.0556L35.298 31.5493L33.886 31.043C33.7056 31.5463 33.6289 32.1475 33.8312 32.7635C34.0342 33.3821 34.4548 33.8218 34.9057 34.1184L35.73 32.8652ZM35.298 31.5493L36.71 32.0556L36.8383 31.6978L35.4263 31.1915L34.0143 30.6852L33.886 31.043L35.298 31.5493ZM35.4263 31.1915L36.8383 31.6978L36.9666 31.34L35.5546 30.8337L34.1426 30.3275L34.0143 30.6852L35.4263 31.1915ZM35.5546 30.8337L36.9666 31.34C37.247 30.5577 37.3323 29.7436 37.1747 28.9271L35.7019 29.2114L34.2291 29.4957C34.2741 29.7292 34.2612 29.9967 34.1426 30.3275L35.5546 30.8337ZM35.7019 29.2114L37.1747 28.9271L37.1096 28.5896L35.6367 28.8739L34.1639 29.1582L34.2291 29.4957L35.7019 29.2114ZM35.6367 28.8739L37.1096 28.5896L37.0444 28.2521L35.5716 28.5364L34.0988 28.8207L34.1639 29.1582L35.6367 28.8739ZM35.5716 28.5364L37.0444 28.2521C36.9294 27.6562 36.7705 27.0638 36.5689 26.4754L35.1499 26.9614L33.7308 27.4475C33.8889 27.909 34.0111 28.3667 34.0988 28.8207L35.5716 28.5364ZM35.1499 26.9614L36.5689 26.4754L36.4533 26.1379L35.0343 26.6239L33.6152 27.11L33.7308 27.4475L35.1499 26.9614ZM35.0343 26.6239L36.4533 26.1379L36.3377 25.8004L34.9187 26.2864L33.4996 26.7725L33.6152 27.11L35.0343 26.6239ZM34.9187 26.2864L36.3377 25.8004C36.2708 25.605 36.2715 25.4351 36.3468 25.231L34.9397 24.7114L33.5326 24.1918C33.2202 25.0377 33.2069 25.9179 33.4996 26.7725L34.9187 26.2864ZM34.9397 24.7114L36.3468 25.231L36.4715 24.8935L35.0643 24.3739L33.6572 23.8543L33.5326 24.1918L34.9397 24.7114ZM35.0643 24.3739L36.4715 24.8935L36.5961 24.556L35.1889 24.0364L33.7818 23.5168L33.6572 23.8543L35.0643 24.3739ZM35.1889 24.0364L36.5961 24.556C36.8808 23.7848 36.9556 22.9802 36.7967 22.172L35.3248 22.4614L33.853 22.7509C33.9006 22.9926 33.8847 23.238 33.7818 23.5168L35.1889 24.0364ZM35.3248 22.4614L36.7967 22.172L36.7303 21.8345L35.2585 22.1239L33.7867 22.4134L33.853 22.7509L35.3248 22.4614ZM35.2585 22.1239L36.7303 21.8345L36.6639 21.497L35.1921 21.7864L33.7203 22.0759L33.7867 22.4134L35.2585 22.1239ZM35.1921 21.7864L36.6639 21.497C36.5952 21.1477 36.5903 20.8041 36.648 20.4577L35.1683 20.2114L33.6887 19.9651C33.5716 20.6687 33.5825 21.3752 33.7203 22.0759L35.1921 21.7864ZM35.1683 20.2114L36.648 20.4577L36.7041 20.1202L35.2245 19.8739L33.7448 19.6276L33.6887 19.9651L35.1683 20.2114ZM35.2245 19.8739L36.7041 20.1202L36.7603 19.7827L35.2807 19.5364L33.801 19.2901L33.7448 19.6276L35.2245 19.8739ZM35.2807 19.5364L36.7603 19.7827C36.8937 18.9813 36.8033 18.188 36.5152 17.4291L35.1128 17.9614L33.7104 18.4938C33.8209 18.7848 33.8424 19.0415 33.801 19.2901L35.2807 19.5364ZM35.1128 17.9614L36.5152 17.4291L36.3871 17.0916L34.9847 17.6239L33.5823 18.1563L33.7104 18.4938L35.1128 17.9614ZM34.9847 17.6239L36.3871 17.0916L36.2589 16.7541L34.8566 17.2864L33.4542 17.8188L33.5823 18.1563L34.9847 17.6239ZM34.8566 17.2864L36.2589 16.7541C36.2474 16.7237 36.2444 16.7063 36.2436 16.7C36.2429 16.6943 36.2432 16.6926 36.2433 16.6918C36.2434 16.6907 36.2445 16.682 36.2516 16.6635C36.2589 16.6444 36.2738 16.6121 36.3035 16.5665L35.0464 15.7481L33.7893 14.9298C33.2217 15.8017 33.0728 16.8139 33.4542 17.8188L34.8566 17.2864ZM35.0464 15.7481L36.3035 16.5665L36.513 16.2447L35.2558 15.4263L33.9987 14.608L33.7893 14.9298L35.0464 15.7481ZM35.2558 15.4263L36.513 16.2447L36.7224 15.9229L35.4653 15.1046L34.2082 14.2862L33.9987 14.608L35.2558 15.4263ZM35.4653 15.1046L36.7224 15.9229C37.0635 15.399 37.3466 14.9264 37.5606 14.5125L36.2281 13.8236L34.8957 13.1347C34.7442 13.4278 34.5188 13.8091 34.2082 14.2862L35.4653 15.1046ZM36.2281 13.8236L37.5606 14.5125L37.6781 14.2853L36.3456 13.5964L35.0132 12.9075L34.8957 13.1347L36.2281 13.8236ZM36.3456 13.5964L37.6781 14.2853L37.7955 14.0581L36.4631 13.3692L35.1306 12.6803L35.0132 12.9075L36.3456 13.5964ZM36.4631 13.3692L37.7955 14.0581C37.7953 14.0586 37.7819 14.0846 37.7483 14.1232C37.7136 14.1632 37.6595 14.2141 37.583 14.261C37.4118 14.366 37.2402 14.3849 37.1373 14.3765L37.2588 12.8814L37.3803 11.3863C36.9296 11.3497 36.4516 11.4358 36.0151 11.7033C35.5926 11.9623 35.3131 12.3273 35.1306 12.6803L36.4631 13.3692ZM37.2588 12.8814L37.1373 14.3765L37.3609 14.3947L37.4824 12.8996L37.6039 11.4045L37.3803 11.3863L37.2588 12.8814ZM37.4824 12.8996L37.3609 14.3947L37.5845 14.4128L37.7059 12.9178L37.8274 11.4227L37.6039 11.4045L37.4824 12.8996ZM37.7059 12.9178L37.5845 14.4128C37.7677 14.4277 37.9423 14.4388 38.087 14.4403C38.1525 14.441 38.2609 14.4406 38.3788 14.427C38.4325 14.4209 38.5498 14.4055 38.6887 14.3616C38.732 14.348 39.221 14.212 39.5305 13.7046L38.25 12.9235L36.9694 12.1423C37.1407 11.8615 37.3602 11.7086 37.4807 11.6372C37.6089 11.5613 37.7211 11.5212 37.7845 11.5011C37.9091 11.4617 38.0072 11.45 38.0363 11.4467C38.1051 11.4388 38.1437 11.4407 38.1185 11.4405C38.0819 11.4401 37.9919 11.436 37.8274 11.4227L37.7059 12.9178ZM38.25 12.9235L39.5305 13.7046L39.5401 13.6889L38.2596 12.9077L36.979 12.1266L36.9694 12.1423L38.25 12.9235ZM38.2596 12.9077L39.5401 13.6889L39.5497 13.6731L38.2691 12.892L36.9886 12.1109L36.979 12.1266L38.2596 12.9077ZM38.2691 12.892L39.5497 13.6731C39.3903 13.9345 39.1565 14.1376 38.8831 14.2598C38.6283 14.3736 38.3955 14.3929 38.2407 14.3894C37.9582 14.3831 37.7525 14.2968 37.6918 14.2708C37.5441 14.2073 37.4467 14.1349 37.4402 14.1302C37.3987 14.1005 37.3879 14.0879 37.4295 14.1251C37.4985 14.1869 37.6213 14.3038 37.8089 14.4901L38.8659 13.4259L39.923 12.3616C39.7276 12.1676 39.5594 12.0053 39.4296 11.8891C39.3717 11.8373 39.2844 11.7611 39.1895 11.693C39.1563 11.6692 39.0379 11.5838 38.8749 11.5139C38.8066 11.4846 38.5947 11.3966 38.3075 11.3902C37.968 11.3826 37.3576 11.5059 36.9886 12.1109L38.2691 12.892ZM38.8659 13.4259L37.8089 14.4901L38.0551 14.7346L39.1121 13.6704L40.1692 12.6061L39.923 12.3616L38.8659 13.4259Z" fill="#97DE00"/>
<path d="M93.2383 14.1953V31H89.8047L86.1367 15.9766V31H84.1914V14.1953H87.6016L91.293 29.2188V14.1953H93.2383ZM105.062 23.9219V25.7148H98.875C98.8906 26.5039 98.9531 27.1406 99.0625 27.625C99.1719 28.1094 99.3125 28.4883 99.4844 28.7617C99.6641 29.0273 99.8711 29.207 100.105 29.3008C100.34 29.3945 100.609 29.4414 100.914 29.4414C101.586 29.4414 102.195 29.3984 102.742 29.3125C103.297 29.2188 103.762 29.1328 104.137 29.0547V30.7891C103.746 30.8984 103.258 30.9883 102.672 31.0586C102.094 31.1289 101.59 31.1641 101.16 31.1641C100.473 31.1641 99.8594 31.0938 99.3203 30.9531C98.7812 30.8047 98.3281 30.5156 97.9609 30.0859C97.5938 29.6562 97.3125 29.0391 97.1172 28.2344C96.9297 27.4219 96.8359 26.3438 96.8359 25C96.8359 22.8203 97.2031 21.2344 97.9375 20.2422C98.3047 19.75 98.7617 19.3945 99.3086 19.1758C99.8555 18.9492 100.488 18.8359 101.207 18.8359C102.582 18.8359 103.566 19.2891 104.16 20.1953C104.762 21.0938 105.062 22.3359 105.062 23.9219ZM101.16 20.5352C100.77 20.5352 100.441 20.5898 100.176 20.6992C99.9102 20.8086 99.6875 21 99.5078 21.2734C99.1562 21.8047 98.9531 22.7422 98.8984 24.0859H103.07V23.4414C103.07 22.5273 102.93 21.8164 102.648 21.3086C102.375 20.793 101.879 20.5352 101.16 20.5352ZM113.242 24.707L116.793 31H114.391L112.105 26.5586L109.715 31H107.453L110.934 24.8125L107.746 19H110.09L112.152 22.9609L114.25 19H116.477L113.242 24.707ZM124.621 19V20.8047H121.832V28.1172C121.832 28.4062 121.918 28.6992 122.09 28.9961C122.27 29.293 122.586 29.4414 123.039 29.4414C123.406 29.4414 123.715 29.4141 123.965 29.3594C124.223 29.3047 124.441 29.25 124.621 29.1953V30.8828C124.457 30.9297 124.18 30.9883 123.789 31.0586C123.398 31.1289 122.988 31.1641 122.559 31.1641C121.613 31.1641 120.914 30.8672 120.461 30.2734C120.016 29.6797 119.793 28.9219 119.793 28V20.8047H118.234V19H119.793V16.1172H121.832V19H124.621Z" fill="black"/>
</svg>
