<svg width="349" height="194" viewBox="0 0 349 194" fill="none" xmlns="http://www.w3.org/2000/svg">
<path d="M3 3H346V191H3V3Z" fill="#F6F2DF"/>
<path d="M344.168 93.668L344.191 92.543C344.2 91.953 344.332 91.3838 344.566 90.8438L344.801 90.2812L345.047 89.7188C345.106 89.5826 345.116 89.4883 345.105 89.4141L345.012 88.8516L344.93 88.2891C344.849 87.7543 344.861 87.2167 344.953 86.6836L345.141 85.5586C345.163 85.4307 345.154 85.3006 345.105 85.1484L344.754 84.0234C344.617 83.5946 344.499 83.1565 344.414 82.7227L344.309 82.1602L344.191 81.5977C344.042 80.8299 344.205 80.0958 344.566 79.4531L344.883 78.8906L345.141 78.4102L344.965 77.9648L344.73 77.4023C344.536 76.946 344.376 76.4807 344.273 76.0078L344.039 74.8828C343.864 74.0681 344.054 73.2954 344.461 72.6445L345.164 71.5195C345.286 71.3249 345.313 71.1942 345.316 71.1211L345.363 69.9961V69.9844C345.355 69.9606 345.33 69.9043 345.27 69.8203L344.449 68.6953C344.189 68.3367 343.987 67.8897 343.945 67.3711C343.904 66.8427 344.041 66.3502 344.273 65.9414L344.906 64.8164C344.941 64.7542 344.951 64.7199 344.953 64.7109V64.6992L344.859 64.1367L344.754 63.5742C344.654 63.012 344.662 62.4458 344.777 61.8867L344.895 61.3242L345 60.7852C344.994 60.7726 344.991 60.7495 344.977 60.7266L344.273 59.6016C343.877 58.963 343.68 58.2097 343.828 57.4102L344.039 56.2852C344.118 55.8593 344.219 55.4299 344.344 55.0078L344.672 53.8828C344.713 53.7426 344.722 53.6217 344.695 53.4961L344.461 52.3711C344.361 51.8981 344.31 51.4211 344.309 50.9414V50.3789L344.297 49.8164C344.295 49.2651 344.398 48.723 344.578 48.1992L344.766 47.6367L344.965 47.0742V47.0273C344.963 47.0208 344.96 47.0092 344.953 46.9922L344.508 45.8672C344.201 45.0876 344.256 44.2725 344.613 43.5352L344.883 42.9727L345.117 42.4688L344.906 41.9883L344.66 41.4258C344.334 40.6965 344.3 39.9084 344.59 39.1523L344.801 38.5898L345.023 38.0273C345.054 37.9489 345.05 37.9022 345.035 37.8516L344.707 36.7266C344.506 36.0306 344.534 35.3218 344.789 34.6523L345.012 34.0898L345.223 33.5273C345.287 33.3583 345.306 33.2195 345.293 33.0938L345.176 31.9688C345.154 31.7607 345.096 31.534 344.988 31.2891L344.742 30.7266L344.484 30.1641C344.131 29.3564 344.179 28.5 344.578 27.7383L344.883 27.1758L345.047 26.8359L344.789 26.4609L344.414 25.8984C343.929 25.1791 343.745 24.2968 344.086 23.4023L344.309 22.8398L344.52 22.2773C344.585 22.1048 344.602 21.9614 344.59 21.832L344.531 21.2695L344.484 20.707C344.428 20.1196 344.492 19.5329 344.672 18.9727L344.848 18.4102L345.035 17.8477V17.8125C345.034 17.8045 345.035 17.7828 345.023 17.7539L344.555 16.6289C344.303 16.0144 344.22 15.3513 344.332 14.6836L344.52 13.5586C344.542 13.418 344.532 13.2733 344.484 13.1133L344.156 11.9883C344.017 11.5211 343.917 11.049 343.875 10.5703L343.781 9.44531C343.724 8.78201 343.857 8.13618 344.133 7.54688L344.391 6.98438L344.613 6.50391L344.379 6.03516L344.109 5.47266C344.021 5.29205 343.945 5.0827 343.863 4.88672L343.723 4.875L343.16 4.81641C342.855 4.78545 342.55 4.77021 342.246 4.78125L341.121 4.82812C340.596 4.84743 340.073 4.78442 339.562 4.65234L339 4.51172L338.438 4.35938C338.234 4.30679 338.041 4.2922 337.852 4.3125L337.289 4.38281L336.727 4.44141C336.133 4.5059 335.546 4.43562 334.98 4.25391L334.418 4.07812L333.855 3.89062C333.7 3.84061 333.564 3.83421 333.434 3.85547L332.309 4.04297C332.096 4.07818 331.86 4.15056 331.605 4.27734L330.48 4.83984C329.894 5.13216 329.254 5.28638 328.582 5.23828L328.02 5.19141L327.457 5.15625C327.13 5.13251 326.8 5.12654 326.473 5.13281H325.91L325.348 5.14453C324.704 5.15722 324.085 5.00468 323.52 4.72266L322.395 4.16016C322.141 4.0334 321.905 3.96276 321.691 3.92578L321.129 3.82031L320.566 3.72656H320.531C320.516 3.72938 320.48 3.74909 320.414 3.78516L319.289 4.39453C318.682 4.72838 317.994 4.90573 317.273 4.82812L316.711 4.76953L316.148 4.69922C315.871 4.66958 315.593 4.66478 315.316 4.6875L314.191 4.78125C313.863 4.80855 313.525 4.85161 313.195 4.91016L312.633 5.01562L312.07 5.10938C311.49 5.21188 310.908 5.20045 310.336 5.0625L309.773 4.92188L309.211 4.79297C308.797 4.6932 308.38 4.57509 307.969 4.44141L307.406 4.25391L306.844 4.07812L306.832 4.06641H306.82C306.814 4.06804 306.794 4.06937 306.773 4.07812L305.648 4.57031C304.834 4.91756 303.978 4.85954 303.223 4.45312L302.66 4.14844L302.145 3.86719L301.688 4.06641L301.125 4.28906C300.676 4.4718 300.216 4.6211 299.754 4.72266L299.191 4.85156L298.629 4.96875C298.015 5.1027 297.394 5.08724 296.789 4.92188L295.664 4.61719C295.43 4.55321 295.203 4.52777 294.984 4.53516L294.422 4.54688L293.859 4.57031C293.405 4.58544 292.952 4.55813 292.5 4.5L291.375 4.35938C291.163 4.33204 290.948 4.33996 290.73 4.38281L290.168 4.48828L289.605 4.60547C288.912 4.7427 288.223 4.65583 287.59 4.38281L286.465 3.89062C286.333 3.83484 286.245 3.83285 286.172 3.84375L285.609 3.9375L285.047 4.01953C284.48 4.10803 283.907 4.09053 283.348 3.96094L282.785 3.82031L282.223 3.69141C282.081 3.6588 281.946 3.6669 281.801 3.70312L280.676 3.98438C280.118 4.12362 279.546 4.14662 278.977 4.06641L278.414 3.99609L277.863 3.91406C277.846 3.92053 277.817 3.94129 277.77 3.97266L276.645 4.72266C276.05 5.11643 275.348 5.35188 274.582 5.29688L274.02 5.25L273.457 5.21484C273.04 5.18429 272.619 5.12957 272.203 5.0625L271.641 4.96875L271.078 4.88672C270.789 4.84 270.497 4.81258 270.211 4.81641L269.086 4.83984C268.784 4.84404 268.476 4.8615 268.172 4.91016L267.047 5.09766C266.269 5.22115 265.542 5.02104 264.914 4.64062L263.789 3.96094C263.591 3.84061 263.447 3.80264 263.355 3.79688L262.793 3.77344L262.23 3.73828C262.078 3.72956 261.907 3.74866 261.715 3.82031L260.59 4.24219C260.153 4.40581 259.711 4.54217 259.266 4.64062L258.703 4.75781L258.141 4.88672C257.692 4.98569 257.235 5.04616 256.781 5.07422L255.656 5.14453C255.274 5.1681 254.89 5.19759 254.508 5.21484L253.383 5.26172C253.001 5.27894 252.616 5.29665 252.234 5.30859L251.672 5.32031L251.109 5.34375C250.68 5.35719 250.25 5.34367 249.82 5.30859L248.695 5.21484C248.205 5.17456 247.718 5.07098 247.242 4.92188L246.117 4.57031C245.913 4.50635 245.722 4.48839 245.543 4.5L244.98 4.53516L244.418 4.58203C243.978 4.61179 243.534 4.6099 243.094 4.58203L241.969 4.51172C241.539 4.48441 241.108 4.43437 240.68 4.35938L240.117 4.25391L239.555 4.16016C239.173 4.09324 238.788 4.02118 238.406 3.94922L237.281 3.73828C237.055 3.69586 236.835 3.68909 236.613 3.71484L236.051 3.77344L235.488 3.84375C235.092 3.89012 234.69 3.93207 234.293 3.96094L233.73 3.99609L233.168 4.04297C232.87 4.06486 232.569 4.10461 232.266 4.17188L231.703 4.30078L231.141 4.41797C230.62 4.53369 230.088 4.58029 229.559 4.53516L228.996 4.47656L228.434 4.42969C228.276 4.41651 228.107 4.43593 227.918 4.5L227.355 4.69922L226.793 4.88672C226.028 5.14575 225.251 5.07309 224.543 4.73438L223.418 4.19531L223.371 4.18359L222.82 4.35938L222.258 4.52344C221.765 4.67454 221.256 4.77277 220.746 4.79297L220.184 4.80469L219.621 4.82812C219.044 4.8509 218.477 4.76329 217.934 4.57031L216.809 4.17188C216.572 4.08807 216.351 4.05065 216.141 4.04297L215.016 3.99609C214.615 3.98238 214.209 3.9613 213.809 3.92578L213.246 3.87891L212.684 3.82031C212.645 3.81689 212.563 3.82125 212.414 3.90234L211.852 4.21875L211.289 4.52344C210.506 4.9542 209.619 4.99909 208.793 4.60547L207.668 4.06641C207.467 3.97059 207.3 3.93931 207.164 3.9375L206.602 3.92578H206.039C205.914 3.92462 205.76 3.94247 205.57 4.03125L205.008 4.30078L204.445 4.55859C203.609 4.94924 202.724 4.89308 201.949 4.45312L201.387 4.125L201.082 3.94922L200.73 4.19531L200.168 4.59375C199.576 5.00743 198.868 5.27092 198.082 5.21484L197.52 5.16797L196.957 5.13281C196.576 5.1053 196.189 5.07102 195.809 5.03906L194.684 4.94531C194.173 4.90216 193.672 4.79194 193.184 4.61719L192.059 4.21875C192.024 4.20628 192.004 4.20703 192 4.20703C191.994 4.20726 191.972 4.2077 191.941 4.21875L190.816 4.61719C190.359 4.78186 189.892 4.90468 189.422 4.98047L188.297 5.16797C187.632 5.27424 186.975 5.18497 186.363 4.93359L185.238 4.46484C185.085 4.40247 184.964 4.39409 184.863 4.40625L183.738 4.54688C183.309 4.59844 182.879 4.62639 182.449 4.62891H181.324C180.864 4.63147 180.398 4.59795 179.941 4.52344L178.816 4.33594C178.664 4.31167 178.505 4.32395 178.336 4.37109L177.773 4.52344L177.211 4.6875C176.538 4.87423 175.851 4.8437 175.195 4.61719L174.633 4.42969L174.07 4.23047C173.889 4.16794 173.727 4.14578 173.578 4.16016L172.453 4.27734C172.19 4.30302 171.921 4.35319 171.645 4.44141L171.082 4.62891L170.52 4.80469C170.032 4.96036 169.535 5.05437 169.031 5.08594L167.906 5.15625C167.451 5.18477 166.99 5.17766 166.535 5.13281L165.973 5.07422L165.41 5.02734C164.85 4.97149 164.306 4.81266 163.793 4.57031L162.668 4.03125C162.547 3.97497 162.478 3.97684 162.434 3.98438L161.309 4.17188C160.973 4.22887 160.637 4.29995 160.301 4.38281L159.176 4.66406C158.411 4.85247 157.661 4.73012 156.996 4.38281L156.434 4.08984L155.871 3.78516C155.694 3.69202 155.563 3.67843 155.473 3.67969L154.348 3.70312C154.001 3.71035 153.651 3.72401 153.305 3.75L152.742 3.79688L152.18 3.83203C151.893 3.85365 151.595 3.91036 151.301 3.98438L150.176 4.26562C149.645 4.39888 149.103 4.44167 148.559 4.39453L147.434 4.30078C147.122 4.2738 146.807 4.26433 146.496 4.27734L145.371 4.32422C144.929 4.34253 144.488 4.33065 144.047 4.28906L143.484 4.23047L142.922 4.18359C142.748 4.16714 142.567 4.18392 142.371 4.24219L141.809 4.40625L141.246 4.58203C140.56 4.78739 139.854 4.76251 139.184 4.52344L138.059 4.125C137.85 4.05043 137.661 4.01517 137.484 4.01953L136.922 4.04297L136.359 4.05469C136.138 4.06091 135.9 4.10286 135.656 4.18359L135.094 4.37109L134.531 4.54688C134.023 4.71516 133.504 4.81598 132.973 4.82812L131.848 4.85156C131.438 4.86085 131.027 4.8595 130.617 4.83984L130.055 4.80469L129.492 4.78125C129.071 4.76102 128.646 4.72267 128.227 4.66406L127.664 4.58203L127.102 4.51172C126.863 4.47858 126.625 4.46825 126.387 4.5L125.824 4.58203L125.262 4.65234C124.837 4.70907 124.41 4.74451 123.984 4.75781L123.422 4.78125L122.859 4.79297C122.478 4.80487 122.092 4.82115 121.711 4.82812L121.148 4.83984H120.586C120.054 4.84917 119.529 4.78059 119.016 4.62891L118.453 4.46484L117.891 4.28906C117.748 4.24661 117.619 4.25136 117.492 4.27734L116.93 4.38281L116.367 4.5C116.025 4.57037 115.679 4.65302 115.336 4.74609L114.211 5.05078C113.604 5.21556 112.975 5.23454 112.359 5.09766L111.797 4.98047L111.234 4.85156C111.059 4.81275 110.891 4.80692 110.719 4.83984L110.156 4.94531L109.594 5.0625C108.818 5.21065 108.079 5.03518 107.438 4.66406L106.875 4.33594L106.312 4.01953C106.163 3.93336 106.089 3.9355 106.066 3.9375L104.941 4.03125C104.643 4.05815 104.343 4.11097 104.039 4.18359L103.477 4.32422L102.914 4.45312C102.292 4.60225 101.655 4.59769 101.039 4.42969L100.477 4.27734L99.9141 4.11328C99.8963 4.10884 99.8853 4.11292 99.8789 4.11328C99.8713 4.11392 99.8436 4.11647 99.7969 4.13672L99.2344 4.38281L98.6719 4.64062C97.8513 5.00299 96.9852 4.93863 96.2227 4.52344L95.6602 4.20703L95.168 3.9375L94.6992 4.13672L94.1367 4.37109C93.3876 4.68089 92.5944 4.66525 91.8516 4.34766L91.2891 4.11328L90.9023 3.9375L90.4688 4.25391L89.9062 4.64062C89.5488 4.88301 89.1098 5.05732 88.6172 5.09766C88.1189 5.13748 87.6506 5.02487 87.2461 4.81641L86.6836 4.53516L86.1211 4.24219C85.8737 4.11499 85.6534 4.03999 85.4531 4.00781L84.8906 3.91406L84.3633 3.83203C84.3482 3.83912 84.3263 3.85628 84.293 3.87891L83.168 4.65234C82.6045 5.03968 81.9459 5.30334 81.2227 5.32031L80.0977 5.34375C79.505 5.35765 78.9235 5.2466 78.375 5.02734L77.8125 4.80469L77.25 4.57031C77.1497 4.53129 77.0869 4.53344 77.0273 4.54688L75.9023 4.80469C75.2955 4.94495 74.678 4.9439 74.0742 4.79297L72.9492 4.51172C72.9126 4.50255 72.8742 4.49725 72.7852 4.53516L72.2227 4.78125L71.6602 5.01562C71.0774 5.26688 70.4511 5.38755 69.8086 5.33203L68.6836 5.23828C68.3515 5.20952 68.0191 5.1914 67.6875 5.19141H66.5625C66.2307 5.19141 65.8987 5.20961 65.5664 5.23828L64.4414 5.33203C63.9485 5.37455 63.4551 5.35893 62.9648 5.28516L62.4023 5.20312L61.8398 5.10938C61.392 5.0419 60.945 4.9494 60.5039 4.81641L59.9414 4.64062L59.3789 4.47656C59.0884 4.38895 58.8042 4.32122 58.5234 4.28906L57.9609 4.23047L57.3984 4.16016C57.2196 4.13985 57.0313 4.15428 56.8359 4.20703L56.2734 4.35938L55.7109 4.52344C55.2781 4.64154 54.8359 4.72982 54.3984 4.79297L53.2734 4.95703C52.7334 5.03455 52.1924 5.01304 51.6562 4.91016L50.5312 4.69922C50.2822 4.65138 50.036 4.63595 49.793 4.65234L49.2305 4.6875L48.668 4.73438C48.0371 4.77759 47.4253 4.65134 46.8516 4.40625L46.2891 4.17188L45.7266 3.92578C45.5956 3.86978 45.5046 3.86699 45.4336 3.87891L44.3086 4.06641C43.8455 4.14411 43.381 4.18043 42.9141 4.17188L42.3516 4.16016H41.7891C41.4746 4.15419 41.1551 4.16447 40.8398 4.19531L40.2773 4.25391L39.7148 4.30078C39.4509 4.32677 39.1724 4.38703 38.8945 4.47656L38.332 4.65234L37.7695 4.83984C37.0587 5.06804 36.3248 5.03884 35.6367 4.76953L35.0742 4.54688L34.5469 4.33594L34.0078 4.59375L33.4453 4.85156C32.8532 5.12686 32.2124 5.25516 31.5469 5.19141L30.9844 5.14453L30.4219 5.08594C30.1184 5.05656 29.8106 5.04808 29.5078 5.0625L28.9453 5.08594L28.3828 5.12109C27.9453 5.14188 27.5075 5.13191 27.0703 5.09766L25.9453 5.00391C25.6605 4.98161 25.3752 4.98681 25.0898 5.01562L23.9648 5.13281C23.4693 5.183 22.9704 5.17892 22.4766 5.10938L21.3516 4.94531C20.9736 4.89208 20.5928 4.83724 20.2148 4.78125L19.0898 4.61719C18.8875 4.58748 18.687 4.58837 18.4805 4.62891L17.918 4.74609L17.3555 4.85156C16.7139 4.97832 16.0703 4.93137 15.457 4.72266L14.8945 4.52344L14.332 4.33594C14.3002 4.32504 14.2768 4.32416 14.2734 4.32422C14.2656 4.32489 14.2442 4.32481 14.2148 4.33594L13.6523 4.54688L13.0898 4.76953C12.4711 5.00303 11.8153 5.07144 11.1562 4.94531L10.5938 4.82812L10.0312 4.72266C9.72535 4.66387 9.41952 4.63188 9.11719 4.61719L8.55469 4.58203L7.99219 4.55859C7.46726 4.53325 6.94716 4.42707 6.44531 4.25391L5.88281 4.06641L5.32031 3.86719C5.25623 3.84555 5.21681 3.84722 5.15625 3.86719L4.03125 4.24219C3.9614 4.26521 3.88707 4.2684 3.82031 4.28906L3.84375 4.62891C3.85248 4.86067 3.89199 5.10419 3.97266 5.35547L4.16016 5.91797L4.33594 6.48047C4.51508 7.03907 4.57829 7.61757 4.52344 8.20312L4.47656 8.76562L4.41797 9.32812C4.4071 9.44611 4.4317 9.58132 4.5 9.75L4.94531 10.875C5.24257 11.6091 5.25226 12.3894 4.95703 13.125L4.73438 13.6875L4.5 14.25C4.36343 14.5905 4.24556 14.9315 4.13672 15.2695L3.94922 15.832L3.77344 16.3945C3.71106 16.5884 3.69005 16.7662 3.70312 16.9336L3.79688 18.0586C3.82235 18.3677 3.87069 18.6834 3.9375 18.9961L4.17188 20.1211C4.27097 20.5844 4.33538 21.058 4.34766 21.5273L4.37109 22.6523C4.38521 23.2108 4.30325 23.762 4.125 24.293L3.92578 24.8555L3.78516 25.2539L4.14844 25.7578L4.54688 26.3203C5.05759 27.0472 5.24672 27.9603 4.875 28.875L4.40625 30C4.27918 30.3106 4.18751 30.6252 4.11328 30.9258L3.83203 32.0508C3.77005 32.3029 3.73567 32.5479 3.73828 32.7891L3.76172 33.9141C3.76687 34.3266 3.75374 34.7439 3.72656 35.1562L3.69141 35.7188L3.64453 36.2812C3.63179 36.4735 3.65339 36.6785 3.71484 36.8906L4.04297 38.0156C4.12776 38.3066 4.24759 38.6124 4.39453 38.918L4.93359 40.043C5.23497 40.6716 5.35163 41.3595 5.22656 42.0703L5.13281 42.6328L5.02734 43.1953C4.94492 43.6618 4.81976 44.1242 4.65234 44.5781L4.45312 45.1406L4.24219 45.7031C4.16251 45.9189 4.1247 46.1183 4.125 46.3008V46.8633L4.13672 47.4258C4.13835 47.7712 4.1498 48.1232 4.17188 48.4688L4.24219 49.5938C4.25461 49.7844 4.29595 49.9956 4.39453 50.2266L4.64062 50.7891L4.875 51.3516C5.17463 52.0542 5.21716 52.8076 4.96875 53.543L4.59375 54.668C4.50474 54.9315 4.44974 55.1844 4.42969 55.4297L4.33594 56.5547C4.30243 56.9704 4.25101 57.3941 4.18359 57.8086L4.10156 58.3711L4.00781 58.9336C3.98971 59.0492 3.99121 59.1721 4.04297 59.3203L4.44141 60.4453C4.67112 61.1053 4.69373 61.7964 4.5 62.4727L4.17188 63.5977C4.16227 63.631 4.15271 63.6641 4.18359 63.7383L4.65234 64.8633C4.98082 65.6527 4.94243 66.4803 4.57031 67.2305L4.28906 67.793L4.04297 68.2734L4.26562 68.7539L4.52344 69.3164C4.777 69.8728 4.91881 70.4683 4.91016 71.0859L4.88672 72.2109C4.88047 72.6491 4.85567 73.0872 4.79297 73.5234L4.62891 74.6484C4.59591 74.8774 4.59396 75.1104 4.62891 75.3398L4.71094 75.9023L4.80469 76.4648C4.88261 76.9789 4.88581 77.4967 4.81641 78.0117L4.73438 78.5742L4.66406 79.1367C4.61608 79.4918 4.56989 79.8483 4.53516 80.2031L4.47656 80.7656L4.42969 81.3281C4.38572 81.7781 4.3066 82.2314 4.19531 82.6758L3.91406 83.8008C3.84279 84.0851 3.79983 84.3685 3.78516 84.6445L3.75 85.207L3.72656 85.7695C3.72183 85.865 3.73877 85.9862 3.82031 86.1562L4.35938 87.2812C4.72212 88.0336 4.75886 88.8664 4.42969 89.6484L4.18359 90.2109L4.03125 90.5625L4.34766 91.0195L4.73438 91.582C5.00127 91.9652 5.20364 92.4443 5.20312 93C5.20168 93.557 5.00268 94.0474 4.73438 94.4297L4.33594 94.9922L3.94922 95.5547C3.8181 95.7419 3.80919 95.8379 3.80859 95.8594L3.78516 96.4219L3.77344 96.9844C3.77203 97.0675 3.78814 97.1875 3.87891 97.3594L4.18359 97.9219L4.47656 98.4844C4.90869 99.2997 4.9093 100.202 4.47656 101.016L4.17188 101.578L3.96094 101.965L4.19531 102.387L4.51172 102.949C4.8842 103.609 5.03508 104.368 4.85156 105.152L4.71094 105.715L4.58203 106.277C4.53036 106.497 4.51522 106.714 4.53516 106.922L4.59375 107.484L4.64062 108.047C4.69079 108.573 4.66553 109.099 4.55859 109.617L4.32422 110.742C4.24474 111.128 4.16662 111.517 4.07812 111.902L3.82031 113.027C3.81003 113.074 3.80121 113.127 3.84375 113.227L4.08984 113.789L4.32422 114.352L4.51172 114.938C4.62778 115.527 4.54983 116.131 4.28906 116.695L4.03125 117.258L3.86719 117.574L4.18359 117.984L4.59375 118.547C5.03213 119.146 5.30438 119.883 5.22656 120.703L5.17969 121.266L5.12109 121.828C5.08089 122.25 5.0266 122.674 4.94531 123.094L4.82812 123.656L4.72266 124.219C4.68659 124.405 4.68643 124.595 4.72266 124.781L4.82812 125.344L4.94531 125.906C5.09136 126.664 4.93357 127.398 4.58203 128.039L4.27734 128.602L4.00781 129.082L4.20703 129.527L4.45312 130.09L4.65234 130.699C4.76886 131.322 4.65517 131.955 4.34766 132.527L4.04297 133.09L3.75 133.605L3.9375 134.121L4.13672 134.684C4.25903 135.027 4.39759 135.369 4.54688 135.715L4.78125 136.277L5.02734 136.84C5.33077 137.542 5.37994 138.305 5.13281 139.043L4.94531 139.605L4.74609 140.168C4.62734 140.523 4.52141 140.88 4.41797 141.234L4.08984 142.359C4.09194 142.367 4.09131 142.385 4.10156 142.406L4.38281 142.969L4.65234 143.531C5.0297 144.308 5.04187 145.157 4.67578 145.945L4.41797 146.508L4.20703 146.93L4.46484 147.398L4.78125 147.961C5.18508 148.687 5.28458 149.521 4.98047 150.34L4.76953 150.902L4.57031 151.465C4.55818 151.498 4.5473 151.515 4.54688 151.523C4.54676 151.53 4.54804 151.55 4.55859 151.582L4.93359 152.707C5.16628 153.399 5.16181 154.117 4.92188 154.805L4.73438 155.367L4.53516 155.93C4.4702 156.116 4.45227 156.281 4.46484 156.434L4.55859 157.559C4.58888 157.917 4.62269 158.278 4.66406 158.637L4.73438 159.199L4.79297 159.762C4.83505 160.126 4.88354 160.499 4.93359 160.863L5.01562 161.426L5.08594 161.988C5.16183 162.545 5.14122 163.105 5.01562 163.652L4.75781 164.777C4.66658 165.175 4.56441 165.576 4.45312 165.973L4.28906 166.535L4.13672 167.098C4.05671 167.384 4.00807 167.665 3.98438 167.941L3.92578 168.504L3.87891 169.066C3.84722 169.436 3.82506 169.81 3.79688 170.18L3.70312 171.305C3.69042 171.477 3.71196 171.658 3.77344 171.855L3.94922 172.418L4.13672 172.98C4.34968 173.655 4.34427 174.36 4.125 175.031L3.75 176.156C3.69067 176.34 3.6755 176.504 3.69141 176.66L3.80859 177.785C3.81996 177.896 3.86462 178.053 3.99609 178.266L4.69922 179.391C4.93028 179.762 5.09274 180.209 5.10938 180.703C5.12533 181.198 4.98594 181.649 4.76953 182.039L4.46484 182.602L4.20703 183.059L4.40625 183.492L4.66406 184.055C5.072 184.935 4.96617 185.855 4.47656 186.621L4.11328 187.184L3.94922 187.418L4.18359 187.711L4.62891 188.273C4.80106 188.496 4.95807 188.731 5.08594 188.965C5.15367 189.089 5.22341 189.249 5.28516 189.434H5.70703C6.27266 189.442 6.83035 189.557 7.35938 189.762L7.92188 189.984L8.34375 190.137L8.83594 189.844L9.39844 189.504L9.96094 189.234C10.3437 189.094 10.7502 189.03 11.168 189.07L11.7891 189.211L12.3516 189.398L12.8906 189.574H12.9023L14.0273 189.035C14.6831 188.717 15.4115 188.607 16.1484 188.777L17.2734 189.035C17.4892 189.085 17.701 189.104 17.9062 189.082L19.0312 188.965C19.4706 188.919 19.9151 188.895 20.3555 188.906L20.918 188.918L21.4805 188.941C22.0995 188.958 22.6909 189.123 23.2383 189.398L24.3633 189.961C24.5027 190.03 24.5822 190.025 24.6328 190.02L25.1953 189.961L25.7578 189.891C26.0678 189.854 26.381 189.794 26.6953 189.715L27.8203 189.434C28.2802 189.318 28.7473 189.252 29.2148 189.223L30.3398 189.152C30.8664 189.12 31.3952 189.158 31.9102 189.281L32.4727 189.422L33.0352 189.551C33.4338 189.646 33.8327 189.763 34.2305 189.879L34.793 190.031L35.2734 190.172L35.8242 189.82L36.3867 189.469L36.9961 189.176C37.2172 189.102 37.4593 189.054 37.7109 189.047C38.2132 189.033 38.67 189.175 39.0586 189.398L39.6211 189.727L39.9492 189.914L40.3125 189.691L40.875 189.328C41.3752 189.007 41.952 188.821 42.5625 188.836L43.1719 188.918L44.2969 189.199C44.754 189.314 45.2117 189.465 45.6562 189.656L46.2188 189.902L46.6875 190.102L47.1914 189.855L47.7539 189.562C48.3055 189.278 48.9055 189.108 49.5352 189.094L50.0977 189.07L50.6602 189.059C51.2967 189.046 51.9018 189.207 52.4648 189.48L53.0273 189.75L53.4609 189.949L53.918 189.715L54.4805 189.422L55.1133 189.164C55.5449 189.055 55.9862 189.07 56.4141 189.188L57.0469 189.445L58.1719 190.078C58.3526 190.179 58.4768 190.195 58.5586 190.195H59.6836C59.9764 190.195 60.2782 190.174 60.5742 190.125L61.6992 189.938C62.185 189.858 62.6746 189.833 63.1641 189.867L63.7266 189.914L64.2891 189.949C64.4854 189.963 64.6952 189.94 64.9102 189.879L65.4727 189.727L66.0352 189.562C66.5303 189.423 67.0368 189.346 67.5469 189.34H68.1094L68.6719 189.328C68.9779 189.324 69.2895 189.303 69.5977 189.258L70.7227 189.094C71.33 189.004 71.9334 189.05 72.5156 189.234L73.0781 189.41L73.6406 189.598C73.8948 189.678 74.1431 189.717 74.3789 189.727L75.5039 189.773C75.8459 189.788 76.1932 189.793 76.5352 189.785L77.6602 189.762C77.8977 189.756 78.1455 189.718 78.3984 189.645L79.5234 189.316C80.2182 189.116 80.9287 189.145 81.5977 189.398L82.1602 189.621L82.7227 189.832C82.8008 189.861 82.8455 189.858 82.8984 189.844L83.4609 189.68L84.0234 189.527C84.3893 189.423 84.759 189.31 85.125 189.199L85.6875 189.035L86.25 188.859C86.8053 188.691 87.3826 188.627 87.9609 188.684L89.0859 188.801C89.5316 188.844 89.9812 188.917 90.4219 189.023L90.9844 189.152L91.5469 189.293C91.8351 189.363 92.1212 189.405 92.4023 189.422L93.5273 189.492C93.698 189.502 93.8785 189.477 94.0781 189.41L95.2031 189.035C95.7353 188.856 96.2955 188.763 96.8555 188.777L97.9805 188.801C98.6078 188.817 99.2005 188.997 99.75 189.281L100.875 189.867C101.098 189.983 101.291 190.029 101.449 190.043L102.574 190.137C102.729 190.15 102.893 190.141 103.078 190.078L103.641 189.879L104.203 189.691C104.726 189.514 105.271 189.42 105.82 189.422H106.383L106.945 189.434C107.297 189.435 107.648 189.424 108 189.41L109.125 189.363C109.668 189.342 110.207 189.421 110.73 189.574L111.855 189.902C112.148 189.988 112.439 190.046 112.723 190.078L113.848 190.195C114.106 190.224 114.374 190.227 114.633 190.195L115.758 190.055C116.024 190.021 116.298 189.963 116.578 189.867L117.141 189.668L117.703 189.48C118.169 189.321 118.641 189.202 119.121 189.141L120.246 189C120.636 188.951 121.028 188.909 121.418 188.871L121.98 188.812L122.543 188.766C123.215 188.701 123.859 188.835 124.453 189.117L125.578 189.656C125.689 189.709 125.745 189.698 125.777 189.691L126.902 189.48C127.486 189.368 128.082 189.38 128.66 189.516L129.785 189.773C129.91 189.802 130.027 189.799 130.16 189.762L131.285 189.457C131.694 189.343 132.105 189.247 132.516 189.164L133.641 188.93C134.192 188.818 134.75 188.804 135.305 188.895L136.43 189.082C136.653 189.119 136.875 189.126 137.098 189.094L138.223 188.93C138.928 188.828 139.61 188.954 140.227 189.258L141.352 189.82C141.582 189.934 141.783 189.989 141.961 190.008L143.086 190.125H143.098C143.114 190.12 143.153 190.092 143.227 190.043L143.789 189.68L144.352 189.305L144.961 188.988C145.378 188.835 145.824 188.793 146.273 188.871L146.953 189.082L147.516 189.352L148.078 189.609C148.218 189.675 148.306 189.687 148.371 189.68L149.496 189.539C150.09 189.464 150.684 189.516 151.254 189.691L151.816 189.867L152.379 190.031C152.423 190.045 152.453 190.056 152.52 190.031L153.082 189.809L153.645 189.598C154.286 189.351 154.969 189.289 155.648 189.445L156.773 189.703C156.82 189.714 156.874 189.721 156.973 189.68L157.535 189.434L158.098 189.199C158.677 188.953 159.301 188.843 159.938 188.895L160.5 188.93L161.062 188.977C161.35 189 161.642 189.003 161.93 188.977L162.492 188.93L163.055 188.871C163.631 188.819 164.201 188.888 164.754 189.059L165.316 189.223L165.879 189.398C165.949 189.42 166.001 189.424 166.078 189.398L166.641 189.211L167.203 189.012C167.853 188.792 168.54 188.773 169.207 188.953L170.332 189.258C170.727 189.364 171.121 189.483 171.516 189.609L172.078 189.785L172.641 189.973C172.671 189.982 172.694 189.973 172.699 189.973C172.708 189.972 172.727 189.973 172.758 189.961L173.883 189.516C174.512 189.267 175.189 189.192 175.863 189.328L176.988 189.562C177.191 189.603 177.388 189.603 177.586 189.574L178.711 189.41C179.302 189.322 179.895 189.365 180.469 189.527L181.031 189.68L181.594 189.844C181.806 189.904 182.01 189.928 182.203 189.914L183.328 189.82C183.753 189.789 184.18 189.785 184.605 189.797L185.168 189.809L185.73 189.832C185.944 189.838 186.167 189.805 186.398 189.738L187.523 189.41C188.055 189.257 188.601 189.189 189.152 189.223L190.277 189.293C190.483 189.306 190.7 189.283 190.922 189.223L192.047 188.918C192.583 188.772 193.134 188.72 193.688 188.766L194.812 188.859C195.088 188.882 195.368 188.879 195.645 188.848L196.207 188.777L196.77 188.719C197.214 188.668 197.659 188.647 198.105 188.66L198.668 188.672L199.23 188.695C199.884 188.715 200.503 188.907 201.059 189.223L201.621 189.539L202.043 189.785L202.453 189.586L203.016 189.305C203.568 189.028 204.165 188.916 204.762 189.012L205.359 189.176L206.484 189.621C206.793 189.741 207.099 189.833 207.398 189.902L208.523 190.16C208.605 190.179 208.692 190.189 208.805 190.148L209.367 189.938L209.93 189.738C210.384 189.574 210.845 189.443 211.312 189.363L212.438 189.176C212.842 189.107 213.251 189.055 213.656 189.012L214.219 188.953L214.781 188.883C215.401 188.817 216.008 188.913 216.586 189.129L217.711 189.551C217.856 189.605 217.97 189.603 218.074 189.586L218.637 189.504L219.199 189.41C219.75 189.322 220.304 189.336 220.852 189.445L221.414 189.551L221.977 189.668C222.345 189.742 222.721 189.81 223.09 189.879L224.215 190.09C224.408 190.126 224.596 190.125 224.789 190.09L225.352 189.984L225.914 189.891C226.136 189.85 226.38 189.764 226.641 189.633L227.766 189.07L228.457 188.836C228.697 188.793 228.949 188.788 229.207 188.824C229.714 188.895 230.142 189.119 230.484 189.387L231.047 189.832L231.504 190.184L231.832 190.055L232.395 189.832C232.865 189.648 233.346 189.52 233.836 189.445L234.398 189.352L234.961 189.27C235.299 189.218 235.641 189.158 235.98 189.082L237.105 188.824C237.603 188.713 238.111 188.665 238.617 188.684L239.742 188.73C240.144 188.745 240.548 188.764 240.949 188.801L241.512 188.848L242.074 188.906C242.382 188.934 242.693 188.943 243 188.93L243.562 188.895L244.125 188.871C244.832 188.84 245.488 189.044 246.07 189.387L246.633 189.727L247.195 190.055C247.219 190.069 247.243 190.073 247.254 190.078L247.793 189.961L248.355 189.832C248.955 189.696 249.562 189.701 250.16 189.844L250.723 189.973L251.285 190.113C251.557 190.178 251.831 190.214 252.094 190.219H252.656L253.219 190.23C253.523 190.236 253.827 190.219 254.133 190.184L254.695 190.125L255.258 190.055C255.76 189.996 256.269 190.007 256.77 190.078L257.332 190.16L257.895 190.23C258.082 190.257 258.272 190.252 258.469 190.207L259.594 189.949C259.868 189.886 260.157 189.787 260.449 189.656L261.012 189.41L261.574 189.152C262.168 188.886 262.812 188.767 263.473 188.836L264.598 188.953C265.004 188.996 265.411 189.048 265.816 189.117L266.379 189.223L266.941 189.316C267.273 189.373 267.607 189.407 267.938 189.434L269.062 189.527C269.559 189.568 270.047 189.676 270.527 189.832L271.09 190.008L271.652 190.195C271.813 190.248 271.952 190.251 272.086 190.23L273.211 190.066C273.486 190.024 273.766 189.947 274.055 189.844L275.18 189.445C275.668 189.27 276.17 189.15 276.68 189.105L277.805 189.012C278.449 188.955 279.072 189.075 279.656 189.328L280.219 189.562L280.781 189.809C281.05 189.925 281.312 190.004 281.555 190.043L282.117 190.125L282.68 190.219C282.892 190.252 283.1 190.254 283.312 190.219L284.438 190.031C284.877 189.958 285.32 189.917 285.762 189.902L286.324 189.879L286.887 189.867C287.141 189.859 287.405 189.811 287.672 189.738L288.797 189.434C289.189 189.327 289.588 189.231 289.98 189.141L291.105 188.883C291.811 188.721 292.509 188.801 293.156 189.082L294.281 189.574H294.305L295.43 189.176C296.15 188.917 296.9 188.933 297.609 189.211L298.172 189.422L298.734 189.645C298.875 189.7 298.98 189.707 299.074 189.691L299.637 189.598L300.199 189.516C300.636 189.445 301.073 189.401 301.512 189.387L302.074 189.363L302.637 189.352C303.045 189.339 303.459 189.337 303.867 189.352L304.43 189.375L304.992 189.387C305.46 189.403 305.925 189.472 306.387 189.574L306.949 189.691L307.512 189.82H307.535C307.543 189.819 307.574 189.812 307.629 189.785L308.191 189.504L308.754 189.211C309.16 189.005 309.629 188.899 310.125 188.941C310.615 188.984 311.046 189.169 311.402 189.41L311.965 189.797L312.527 190.172C312.705 190.293 312.795 190.301 312.809 190.301H313.371L313.934 190.289C314.146 190.288 314.367 190.259 314.602 190.184L315.164 189.996L315.727 189.82C316.192 189.671 316.666 189.568 317.145 189.516L317.707 189.457L318.27 189.387C318.591 189.351 318.918 189.304 319.242 189.234L319.805 189.117L320.367 188.988C321.068 188.836 321.764 188.922 322.406 189.199L323.531 189.691C323.577 189.711 323.608 189.714 323.613 189.715C323.619 189.715 323.63 189.708 323.648 189.703L324.773 189.375C325.407 189.193 326.058 189.194 326.695 189.363L327.258 189.516L327.82 189.656C328.004 189.705 328.178 189.716 328.348 189.691L329.473 189.527C329.87 189.47 330.271 189.426 330.668 189.387L331.793 189.27C332.368 189.213 332.939 189.281 333.492 189.445L334.617 189.773C334.689 189.795 334.746 189.801 334.828 189.773L335.391 189.574L335.953 189.387C336.531 189.191 337.137 189.125 337.746 189.199L338.871 189.34C339.341 189.397 339.807 189.499 340.266 189.645L340.828 189.82L341.273 189.961L341.812 189.621L342.375 189.258C343.007 188.851 343.904 188.571 344.824 189L344.918 188.801L344.684 188.379L344.355 187.816C343.989 187.181 343.81 186.441 343.945 185.672L344.051 185.109L344.145 184.547C344.181 184.334 344.188 184.125 344.156 183.914L343.992 182.789C343.922 182.323 343.892 181.852 343.91 181.383L344.004 179.133L344.016 178.57L344.039 178.008C344.053 177.643 344.068 177.271 344.074 176.906L344.086 176.344V175.781C344.095 175.292 344.166 174.807 344.285 174.328L344.566 173.203C344.656 172.845 344.735 172.483 344.812 172.125L344.941 171.562L345.059 171C345.058 170.999 345.055 170.964 345.023 170.906L344.414 169.781C344.107 169.221 343.918 168.607 343.91 167.953L343.898 167.391V166.828C343.894 166.492 343.869 166.157 343.84 165.82L343.746 164.695C343.705 164.233 343.705 163.763 343.746 163.301L343.84 162.176C343.877 161.754 343.937 161.33 344.016 160.91L344.227 159.785C344.316 159.304 344.457 158.83 344.648 158.367L345.117 157.242C345.192 157.062 345.208 156.913 345.199 156.785L345.129 155.66C345.111 155.392 345.066 155.119 344.988 154.84L344.836 154.277L344.672 153.715C344.568 153.343 344.461 152.973 344.355 152.602L344.203 152.039L344.039 151.477C343.873 150.891 343.842 150.285 343.945 149.684L344.133 148.559C344.211 148.101 344.331 147.647 344.484 147.199L344.684 146.637L344.871 146.074C344.976 145.769 345.063 145.469 345.117 145.172L345.211 144.609L345.316 144.047C345.358 143.819 345.366 143.591 345.34 143.367L345.27 142.805L345.211 142.242C345.177 141.956 345.111 141.658 345.023 141.363L344.695 140.238C344.583 139.863 344.466 139.489 344.355 139.113L344.027 137.988C343.878 137.483 343.795 136.964 343.793 136.441V135.316C343.791 134.829 343.84 134.343 343.945 133.863L344.062 133.301L344.191 132.738C344.239 132.519 344.249 132.304 344.227 132.094L344.109 130.969C344.04 130.319 344.15 129.684 344.402 129.094L344.637 128.531L344.871 127.98L344.648 127.453L344.402 126.891C344.206 126.422 344.068 125.938 343.98 125.449L343.77 124.324C343.63 123.542 343.822 122.804 344.203 122.168L344.543 121.605L344.871 121.043C344.99 120.845 345.03 120.703 345.035 120.609L345.059 120.047L345.094 119.484C345.099 119.395 345.084 119.268 345 119.098L344.438 117.973C344.012 117.106 344.094 116.179 344.578 115.395L344.93 114.832L345.27 114.27C345.289 114.238 345.31 114.214 345.316 114.199V114.188L345.211 113.648L345.117 113.086C345.026 112.591 344.99 112.086 345.023 111.586L345.059 111.023L345.105 110.461L345.012 110.273L344.637 109.711L344.25 109.148C343.85 108.553 343.605 107.848 343.664 107.074L343.758 105.949C343.81 105.273 344.051 104.655 344.414 104.109L344.801 103.547L345.023 103.207L344.836 102.902L344.496 102.34C344.15 101.767 343.937 101.116 343.945 100.418V99.8555L343.957 99.293C343.962 98.8827 343.98 98.4724 344.016 98.0625L344.062 97.5L344.121 96.9375C344.15 96.6068 344.156 96.2716 344.156 95.9414V94.8164C344.157 94.4355 344.163 94.0489 344.168 93.668ZM346.723 123.797L346.934 124.922C346.98 125.182 347.062 125.45 347.18 125.73L347.648 126.855C347.963 127.606 347.956 128.406 347.637 129.152L347.402 129.715L347.156 130.277C347.089 130.435 347.075 130.553 347.086 130.652L347.145 131.215L347.215 131.777C347.273 132.315 347.237 132.853 347.121 133.383L346.992 133.945L346.875 134.508C346.816 134.777 346.792 135.043 346.793 135.305V136.43C346.794 136.656 346.827 136.889 346.898 137.133L347.227 138.258C347.337 138.631 347.455 139.009 347.566 139.383L347.895 140.508C348.03 140.963 348.133 141.427 348.188 141.891L348.258 142.453L348.316 143.016C348.378 143.539 348.364 144.067 348.27 144.586L348.059 145.711C347.976 146.161 347.858 146.606 347.707 147.047L347.52 147.609L347.32 148.172C347.217 148.473 347.148 148.771 347.098 149.062L346.992 149.625L346.898 150.188C346.873 150.336 346.887 150.492 346.934 150.656L347.086 151.219L347.25 151.781C347.356 152.156 347.462 152.531 347.566 152.906L347.719 153.469L347.883 154.031C348.014 154.501 348.086 154.981 348.117 155.461L348.164 156.023L348.199 156.586C348.24 157.208 348.13 157.821 347.895 158.391L347.426 159.516C347.309 159.798 347.229 160.071 347.18 160.336L346.969 161.461C346.908 161.789 346.857 162.119 346.828 162.445L346.734 163.57C346.709 163.856 346.71 164.14 346.734 164.426L346.828 165.551C346.864 165.963 346.893 166.38 346.898 166.793V167.355L346.91 167.918C346.911 168.014 346.935 168.15 347.039 168.34L347.344 168.902L347.66 169.465C348.018 170.118 348.155 170.864 347.988 171.633L347.754 172.758C347.669 173.148 347.57 173.54 347.473 173.93L347.191 175.055C347.125 175.321 347.09 175.583 347.086 175.84V176.402L347.074 176.965C347.068 177.348 347.053 177.73 347.039 178.113L346.992 179.238C346.978 179.615 346.972 179.999 346.957 180.375L346.91 181.5C346.899 181.779 346.915 182.062 346.957 182.344L347.121 183.469C347.201 184.003 347.191 184.542 347.098 185.074L346.91 186.199V186.211C346.914 186.225 346.926 186.263 346.957 186.316L347.273 186.879L347.602 187.441C348.054 188.228 348.106 189.131 347.695 189.973L347.426 190.535L347.145 191.098C346.984 191.425 346.691 191.885 346.148 192.152C345.525 192.457 344.894 192.357 344.438 192.141L343.992 191.93L343.852 191.859L343.441 192.141L342.879 192.504C342.186 192.95 341.348 193.127 340.488 192.855L339.363 192.504C339.074 192.412 338.786 192.351 338.508 192.316L337.383 192.176C337.242 192.159 337.086 192.176 336.914 192.234L335.789 192.609C335.126 192.833 334.436 192.856 333.762 192.656L333.199 192.48L332.637 192.316C332.441 192.258 332.26 192.241 332.086 192.258L330.961 192.375C330.61 192.41 330.258 192.453 329.906 192.504L328.781 192.668C328.201 192.752 327.613 192.713 327.047 192.562L325.922 192.258C325.814 192.23 325.717 192.226 325.605 192.258L324.48 192.586C323.757 192.794 323.024 192.736 322.348 192.445L321.223 191.953C321.115 191.907 321.049 191.907 321 191.918L320.438 192.047L319.875 192.164C319.451 192.256 319.024 192.328 318.598 192.375L317.473 192.492C317.203 192.522 316.923 192.589 316.641 192.68L316.078 192.855L315.516 193.043C315.004 193.207 314.479 193.287 313.945 193.289L313.383 193.301H312.82C312.084 193.303 311.412 193.046 310.84 192.656L310.277 192.27L309.879 192L309.551 192.176L308.988 192.457C308.336 192.788 307.612 192.914 306.867 192.75L306.305 192.621L305.742 192.504C305.455 192.44 305.167 192.397 304.887 192.387L304.324 192.363L303.762 192.352C303.42 192.34 303.072 192.341 302.73 192.352L302.168 192.363L301.605 192.387C301.298 192.397 300.989 192.419 300.68 192.469L299.555 192.656C298.901 192.762 298.252 192.682 297.645 192.445L296.52 192C296.504 191.994 296.49 191.99 296.484 191.988H296.473C296.469 191.989 296.462 191.995 296.449 192L295.324 192.398C294.579 192.666 293.801 192.628 293.086 192.316L292.523 192.082L291.961 191.836C291.862 191.793 291.815 191.791 291.773 191.801L290.648 192.059C290.293 192.141 289.938 192.232 289.582 192.328L288.457 192.633C287.976 192.764 287.486 192.839 286.992 192.855L285.867 192.902C285.559 192.912 285.24 192.933 284.93 192.984L283.805 193.172C283.271 193.261 282.734 193.269 282.199 193.184L281.074 192.996C280.567 192.915 280.067 192.771 279.586 192.562L278.461 192.07C278.3 192.002 278.177 191.992 278.074 192L276.949 192.094C276.711 192.115 276.459 192.177 276.199 192.27L275.074 192.668C274.614 192.833 274.142 192.958 273.668 193.031L273.105 193.113L272.543 193.207C271.928 193.301 271.315 193.234 270.727 193.043L270.164 192.867L269.602 192.68C269.333 192.592 269.069 192.536 268.816 192.516L268.254 192.48L267.691 192.434C267.273 192.4 266.855 192.341 266.438 192.27L265.312 192.082C264.969 192.024 264.624 191.977 264.281 191.941L263.156 191.824C263.068 191.815 262.96 191.825 262.805 191.895L262.242 192.141L261.68 192.398C261.222 192.603 260.749 192.757 260.273 192.867L259.711 192.996L259.148 193.137C258.598 193.264 258.033 193.287 257.473 193.207L256.348 193.043C256.101 193.008 255.855 193.003 255.609 193.031L254.484 193.172C254.044 193.223 253.602 193.238 253.16 193.23L252.598 193.219H252.035C251.551 193.21 251.069 193.145 250.594 193.031L250.031 192.891L249.469 192.762C249.318 192.726 249.173 192.728 249.023 192.762L248.461 192.879L247.898 193.008C247.1 193.189 246.33 193.021 245.672 192.633L244.547 191.977C244.381 191.879 244.294 191.869 244.254 191.871L243.129 191.918C242.687 191.938 242.246 191.934 241.805 191.895L241.242 191.836L240.68 191.789C240.333 191.758 239.983 191.731 239.637 191.719L239.074 191.707L238.512 191.684C238.268 191.675 238.014 191.697 237.762 191.754L237.199 191.883L236.637 192C236.231 192.091 235.825 192.172 235.418 192.234L234.855 192.316L234.293 192.41C234.035 192.449 233.761 192.513 233.484 192.621L232.359 193.066C231.392 193.445 230.46 193.183 229.758 192.633L229.195 192.188L228.82 191.895L228.551 192.035L227.988 192.316C227.499 192.562 226.981 192.735 226.453 192.832L225.328 193.043C224.775 193.144 224.217 193.146 223.664 193.043L222.539 192.832C222.158 192.761 221.772 192.686 221.391 192.609L220.828 192.492L220.266 192.387C220.067 192.347 219.875 192.344 219.68 192.375L219.117 192.469L218.555 192.551C217.909 192.654 217.261 192.578 216.656 192.352L215.531 191.93C215.364 191.868 215.224 191.858 215.098 191.871L213.973 191.988C213.63 192.025 213.285 192.071 212.941 192.129L212.379 192.234L211.816 192.328C211.535 192.376 211.243 192.444 210.949 192.551L210.387 192.762L209.824 192.961C209.187 193.192 208.512 193.245 207.844 193.09L206.719 192.832C206.272 192.728 205.832 192.581 205.395 192.41L204.832 192.199L204.316 191.988L203.801 192.27L203.238 192.551C202.401 192.971 201.491 192.921 200.695 192.469L199.57 191.836C199.376 191.725 199.233 191.698 199.137 191.695L198.574 191.672L198.012 191.66C197.712 191.651 197.411 191.661 197.109 191.695L196.547 191.766L195.984 191.824C195.513 191.878 195.039 191.887 194.566 191.848L193.441 191.754C193.247 191.738 193.044 191.755 192.832 191.812L191.707 192.117C191.181 192.261 190.644 192.326 190.102 192.293L188.977 192.223C188.78 192.211 188.571 192.231 188.355 192.293L187.23 192.621C186.713 192.771 186.184 192.835 185.648 192.82L184.523 192.797C184.2 192.788 183.874 192.796 183.551 192.82L182.988 192.855L182.426 192.902C181.869 192.944 181.312 192.88 180.773 192.727L180.211 192.574L179.648 192.41C179.474 192.361 179.313 192.352 179.156 192.375L178.031 192.539C177.483 192.621 176.934 192.613 176.391 192.504L175.266 192.27C175.19 192.255 175.105 192.257 174.984 192.305L173.859 192.75C173.171 193.021 172.439 193.049 171.727 192.82L170.602 192.469C170.249 192.356 169.898 192.247 169.547 192.152L168.422 191.848C168.339 191.825 168.264 191.826 168.164 191.859L167.039 192.234C166.37 192.46 165.677 192.477 165 192.27L163.875 191.918C163.679 191.858 163.496 191.844 163.324 191.859L162.762 191.906L162.199 191.965C161.739 192.007 161.277 192.014 160.816 191.977L159.691 191.883C159.578 191.874 159.44 191.881 159.27 191.953L158.707 192.199L158.145 192.434C157.498 192.708 156.806 192.782 156.105 192.621L154.98 192.363C154.911 192.347 154.831 192.345 154.723 192.387L154.16 192.609L153.598 192.82C152.919 193.081 152.203 193.118 151.5 192.902L150.938 192.727L150.375 192.562C150.195 192.507 150.027 192.496 149.871 192.516L148.746 192.656C148.064 192.741 147.406 192.612 146.801 192.328L146.238 192.059L145.875 191.883L145.453 192.176L144.891 192.551C144.285 192.952 143.565 193.182 142.781 193.102L142.219 193.043L141.656 192.996C141.087 192.937 140.544 192.759 140.027 192.504L139.465 192.234L138.902 191.953C138.774 191.89 138.7 191.889 138.656 191.895L137.531 192.059C137.006 192.134 136.473 192.132 135.949 192.047L134.824 191.859C134.631 191.828 134.435 191.831 134.238 191.871L133.676 191.988L133.113 192.094C132.775 192.162 132.433 192.245 132.094 192.34L131.531 192.504L130.969 192.656C130.353 192.828 129.717 192.838 129.094 192.691L127.969 192.434C127.8 192.394 127.64 192.391 127.477 192.422L126.352 192.633C125.634 192.771 124.926 192.667 124.289 192.363L123.164 191.824C123.013 191.753 122.912 191.736 122.836 191.742L121.711 191.859C121.351 191.894 120.981 191.931 120.621 191.977L119.496 192.117C119.229 192.151 118.957 192.22 118.676 192.316L118.113 192.504L117.551 192.703C117.083 192.864 116.604 192.971 116.121 193.031L114.996 193.172C114.505 193.233 114.011 193.238 113.52 193.184L112.957 193.125L112.395 193.055C111.93 193.003 111.467 192.907 111.012 192.773L109.887 192.445C109.663 192.38 109.447 192.355 109.242 192.363L108.117 192.41C107.723 192.426 107.328 192.435 106.934 192.434L106.371 192.422H105.809C105.608 192.421 105.391 192.462 105.164 192.539L104.039 192.914C103.478 193.104 102.897 193.178 102.305 193.125L101.18 193.031C100.588 192.978 100.019 192.801 99.4922 192.527L98.3672 191.941C98.1705 191.84 98.018 191.804 97.8984 191.801L96.7734 191.777C96.5838 191.773 96.3815 191.798 96.1641 191.871L95.0391 192.246C94.4923 192.43 93.928 192.514 93.3516 192.48L92.7891 192.457L92.2266 192.422C91.7594 192.395 91.292 192.323 90.832 192.211L90.2695 192.07L89.707 191.941C89.3993 191.867 89.0957 191.807 88.793 191.777L88.2305 191.73L87.668 191.672C87.4978 191.655 87.3216 191.673 87.1289 191.73L86.5664 191.906L86.0039 192.07C85.6203 192.187 85.2275 192.301 84.8438 192.41L84.2812 192.574L83.7188 192.727C83.0255 192.923 82.3223 192.885 81.6562 192.633L80.5312 192.211C80.4514 192.181 80.4095 192.184 80.3555 192.199L79.2305 192.527C78.7356 192.671 78.2291 192.751 77.7188 192.762L76.5938 192.785C76.1875 192.794 75.7812 192.79 75.375 192.773L74.25 192.727C73.7376 192.705 73.2324 192.613 72.7383 192.457L72.1758 192.281L71.6133 192.094C71.447 192.041 71.2973 192.038 71.1562 192.059L70.0312 192.223C69.591 192.288 69.1495 192.323 68.707 192.328L68.1445 192.34H67.582C67.3441 192.343 67.0967 192.386 66.8438 192.457L66.2812 192.609L65.7188 192.773C65.1845 192.924 64.6309 192.976 64.0781 192.938L62.9531 192.867C62.6969 192.85 62.4396 192.86 62.1797 192.902L61.0547 193.09C60.6011 193.164 60.1404 193.195 59.6836 193.195H58.5586C57.8933 193.195 57.2711 193.007 56.707 192.691L56.1445 192.375L55.7344 192.141L55.3359 192.363L54.7734 192.668C53.9845 193.092 53.0963 193.125 52.2773 192.727L51.7148 192.445L51.1523 192.176C50.9686 192.087 50.829 192.056 50.7188 192.059L49.5938 192.082C49.4748 192.085 49.3217 192.121 49.125 192.223L48 192.809C47.2434 193.199 46.3991 193.246 45.5977 192.902L44.4727 192.41C44.1676 192.279 43.8628 192.179 43.5703 192.105L43.0078 191.965L42.5039 191.836L42.4922 191.848L41.3672 192.574C40.9971 192.811 40.5552 192.979 40.0547 192.996C39.5474 193.013 39.0753 192.87 38.6836 192.645L38.1211 192.328L37.7812 192.129L37.4297 192.352L36.8672 192.715C36.1849 193.148 35.3699 193.323 34.5234 193.078L33.3984 192.75C33.0462 192.647 32.6834 192.553 32.332 192.469L31.7695 192.34L31.207 192.199C30.9753 192.144 30.7477 192.127 30.5273 192.141L29.4023 192.211C29.1226 192.229 28.8344 192.28 28.5469 192.352L27.4219 192.633C26.9888 192.741 26.5468 192.815 26.1094 192.867L24.9844 193.008C24.2887 193.089 23.6206 192.948 23.0156 192.645L22.4531 192.352L21.8906 192.07C21.6897 191.969 21.5276 191.945 21.3984 191.941L20.8359 191.918L20.2734 191.906C19.9654 191.898 19.6567 191.909 19.3477 191.941L18.2227 192.059C17.6779 192.116 17.128 192.089 16.5938 191.965L16.0312 191.824L15.4688 191.695C15.4535 191.692 15.4408 191.694 15.4336 191.695C15.4209 191.697 15.3886 191.707 15.3398 191.73L14.2148 192.27C13.5059 192.614 12.7229 192.695 11.9531 192.434L11.3906 192.234L10.9219 192.07L10.4062 192.41L9.84375 192.75C9.11338 193.197 8.25048 193.328 7.39453 192.996L6.83203 192.785L6.26953 192.562C6.05109 192.478 5.85448 192.437 5.67188 192.434H5.10938L4.54688 192.422C4.26932 192.418 3.85266 192.386 3.45703 192.188C2.97646 191.946 2.54621 191.461 2.47266 190.781L2.44922 190.488L2.42578 190.348C2.41573 190.332 2.40486 190.31 2.39062 190.289C2.35598 190.238 2.306 190.174 2.25 190.102L1.38281 188.977C1.10419 188.616 0.870352 188.157 0.832031 187.605C0.79381 187.042 0.970542 186.535 1.23047 186.129L1.58203 185.566L1.86328 185.133L1.6875 184.758L1.42969 184.195C1.04612 183.367 1.0944 182.485 1.52344 181.711L1.83984 181.148L2.03906 180.785L1.80469 180.422L1.45312 179.859C1.11943 179.324 0.885582 178.728 0.820312 178.09L0.773438 177.527L0.714844 176.965C0.654203 176.372 0.718014 175.783 0.902344 175.219L1.08984 174.656L1.26562 174.094C1.29023 174.018 1.28818 173.968 1.26562 173.895L0.914062 172.77C0.740718 172.22 0.671067 171.645 0.714844 171.07L0.761719 170.508L0.796875 169.945C0.82574 169.567 0.858181 169.187 0.890625 168.809L0.9375 168.246L0.996094 167.684C1.03657 167.212 1.11254 166.739 1.24219 166.277L1.40625 165.715L1.55859 165.152C1.65702 164.801 1.74781 164.448 1.82812 164.098L2.08594 162.973C2.13136 162.773 2.14735 162.578 2.12109 162.387L1.95703 161.262C1.90451 160.879 1.86064 160.496 1.81641 160.113L1.74609 159.551L1.6875 158.988C1.64252 158.599 1.60326 158.206 1.57031 157.816L1.47656 156.691C1.42621 156.096 1.50352 155.507 1.69922 154.945L2.09766 153.82C2.11888 153.759 2.11625 153.724 2.09766 153.668L1.72266 152.543C1.48577 151.839 1.50036 151.103 1.75781 150.41L1.95703 149.848L2.14453 149.367L1.85156 148.852L1.53516 148.289C1.10421 147.514 1.04468 146.634 1.42969 145.805L1.69922 145.242L1.92188 144.762L1.67578 144.281L1.40625 143.719C1.07333 143.033 0.985747 142.273 1.20703 141.516L1.53516 140.391C1.65012 139.997 1.77857 139.6 1.91016 139.207L2.28516 138.082V138.07C2.28392 138.065 2.28127 138.054 2.27344 138.035L2.02734 137.473L1.79297 136.91C1.61842 136.506 1.45734 136.098 1.3125 135.691L1.11328 135.129L0.902344 134.566C0.616212 133.763 0.715425 132.942 1.10156 132.223L1.40625 131.66L1.66406 131.168L1.46484 130.723L1.21875 130.16C0.860354 129.338 0.919181 128.472 1.33594 127.711L1.65234 127.148L1.95703 126.586C1.98434 126.535 1.98955 126.504 1.99219 126.492V126.469L1.78125 125.344C1.6726 124.782 1.67286 124.218 1.78125 123.656L1.99219 122.531C2.0557 122.204 2.10174 121.872 2.13281 121.547L2.19141 120.984L2.25 120.457C2.2475 120.449 2.22484 120.406 2.16797 120.328L1.34766 119.203C0.800041 118.455 0.608297 117.495 1.04297 116.555L1.30078 115.992L1.54688 115.453L1.32422 114.961L1.08984 114.398C0.813467 113.75 0.72912 113.051 0.890625 112.348L1.14844 111.223C1.23181 110.86 1.30799 110.496 1.38281 110.133L1.61719 109.008C1.66461 108.777 1.68544 108.551 1.66406 108.328L1.54688 107.203C1.4955 106.664 1.53984 106.126 1.66406 105.598L1.79297 105.035L1.93359 104.473H1.92188L1.89844 104.426L1.26562 103.301C0.806403 102.487 0.786 101.569 1.23047 100.734L1.52344 100.172L1.75781 99.7383L1.53516 99.3281L1.23047 98.7656C0.926678 98.1924 0.755042 97.5569 0.773438 96.8906L0.785156 96.3281L0.808594 95.7656C0.829908 95.0393 1.0948 94.381 1.48828 93.8203L1.88672 93.2578L2.07422 92.9883L1.88672 92.7305L1.48828 92.168C0.978026 91.4332 0.799388 90.5143 1.18359 89.6016L1.41797 89.0391L1.64062 88.5469L1.38281 88.0312L1.11328 87.4688C0.834946 86.8915 0.691804 86.2592 0.726562 85.6055L0.761719 85.043L0.785156 84.4805C0.810424 84.0081 0.879905 83.5384 0.996094 83.0742L1.27734 81.9492C1.35335 81.646 1.41206 81.3445 1.44141 81.0469L1.5 80.4844L1.54688 79.9219C1.58526 79.529 1.63446 79.1309 1.6875 78.7383L1.76953 78.1758L1.83984 77.6133C1.87133 77.3803 1.86376 77.1442 1.82812 76.9102L1.66406 75.7852C1.58539 75.2667 1.5779 74.7455 1.65234 74.2266L1.81641 73.1016C1.86133 72.7898 1.88238 72.4738 1.88672 72.1641L1.91016 71.0391C1.91164 70.9076 1.8806 70.7508 1.79297 70.5586L1.27734 69.4336C0.916783 68.641 0.941566 67.7909 1.32422 67.0195L1.86328 65.9414L1.65234 65.4492L1.41797 64.8867C1.13804 64.2132 1.08438 63.4916 1.28906 62.7773L1.61719 61.6523C1.63759 61.5816 1.63589 61.5168 1.60547 61.4297L1.20703 60.3047C0.998661 59.706 0.940234 59.0731 1.04297 58.4414L1.23047 57.3164C1.28438 56.984 1.32087 56.6516 1.34766 56.3203L1.44141 55.1953C1.48199 54.6918 1.58222 54.1922 1.74609 53.707L1.93359 53.1445L2.13281 52.582V52.5586C2.13107 52.5522 2.12766 52.5388 2.12109 52.5234L1.875 51.9609L1.64062 51.3984C1.41996 50.8809 1.27783 50.3392 1.24219 49.7812L1.17188 48.6562C1.14622 48.2541 1.13871 47.8516 1.13672 47.4492L1.125 46.8867V46.3242C1.12233 45.7587 1.23363 45.2036 1.42969 44.6719L1.62891 44.1094L1.83984 43.5469C1.94836 43.2529 2.02424 42.9612 2.07422 42.6797L2.17969 42.1172L2.27344 41.5547C2.27994 41.5179 2.28404 41.4516 2.22656 41.332L1.6875 40.207C1.47545 39.7654 1.30499 39.3154 1.17188 38.8594L0.84375 37.7344C0.687873 37.1995 0.620122 36.6487 0.65625 36.0938L0.726562 34.9688C0.748711 34.6345 0.765769 34.2949 0.761719 33.9609L0.738281 32.8359C0.731955 32.3297 0.791815 31.8192 0.914062 31.3242L1.19531 30.1992C1.30565 29.7531 1.45073 29.3113 1.62891 28.875L1.86328 28.3125L2.01562 27.9492L1.69922 27.4922L1.30078 26.9297C0.812737 26.235 0.599145 25.3601 0.902344 24.457L1.27734 23.332C1.34971 23.1154 1.37604 22.912 1.37109 22.7227L1.34766 21.5977C1.34013 21.3192 1.30285 21.0383 1.24219 20.7539L1.125 20.1914L0.996094 19.6289C0.903115 19.1942 0.844976 18.7547 0.808594 18.3164L0.714844 17.1914C0.66703 16.6113 0.736401 16.0337 0.914062 15.4805L1.08984 14.918L1.27734 14.3555C1.40904 13.9461 1.55936 13.5318 1.72266 13.125L2.16797 12L1.94531 11.4375L1.71094 10.875C1.4763 10.2948 1.38229 9.67795 1.44141 9.04688L1.48828 8.48438L1.54688 7.92188C1.56205 7.75825 1.53773 7.58507 1.47656 7.39453L1.30078 6.83203L1.11328 6.26953C0.95394 5.77237 0.863394 5.26265 0.84375 4.74609L0.820312 4.18359L0.808594 3.62109C0.800039 3.39387 0.798749 3.05649 0.890625 2.73047C0.937541 2.56521 1.03562 2.27816 1.27734 2.01562C1.56258 1.7061 1.98281 1.5 2.46094 1.5H2.71875L2.68359 1.51172L2.73047 1.5C2.80465 1.48146 2.92476 1.45025 3.09375 1.39453L4.21875 1.01953C4.90687 0.792783 5.62115 0.795389 6.30469 1.03125L6.86719 1.23047L7.42969 1.41797C7.67655 1.50303 7.9088 1.54756 8.13281 1.55859L8.69531 1.59375L9.25781 1.61719C9.70438 1.63874 10.1508 1.69618 10.5938 1.78125L11.7188 1.99219C11.8069 2.00912 11.9063 2.00587 12.0352 1.95703L13.1602 1.53516C13.8557 1.27226 14.5851 1.25867 15.293 1.5L16.418 1.875C16.552 1.92082 16.6639 1.93067 16.7695 1.91016L17.332 1.79297L17.8945 1.6875C18.4363 1.58047 18.9891 1.57145 19.5352 1.65234L20.6602 1.81641C21.0306 1.87127 21.4031 1.91659 21.7734 1.96875L22.8984 2.13281C23.1538 2.16864 23.4065 2.17015 23.6602 2.14453L24.2227 2.08594L24.7852 2.03906C25.2491 1.99208 25.7152 1.97924 26.1797 2.01562L27.3047 2.10938C27.617 2.13384 27.9302 2.13595 28.2422 2.12109L28.8047 2.09766L29.3672 2.0625C29.8126 2.04134 30.2584 2.05481 30.7031 2.09766L31.8281 2.21484C31.9114 2.2229 32.0228 2.20575 32.1797 2.13281L33.3047 1.61719C33.8557 1.36097 34.444 1.27098 35.0273 1.37109L35.6133 1.53516L36.1758 1.75781L36.7383 1.96875C36.7707 1.98126 36.7876 1.99133 36.7969 1.99219C36.8024 1.99238 36.8248 1.99034 36.8555 1.98047L37.418 1.80469L37.9805 1.61719C38.4499 1.46618 38.9269 1.36044 39.4102 1.3125L39.9727 1.26562L40.5352 1.20703C40.9665 1.16456 41.4037 1.15215 41.8359 1.16016L42.3984 1.17188H42.9609C43.2419 1.17721 43.5316 1.16112 43.8164 1.11328L44.9414 0.925781C45.6186 0.812457 46.2808 0.908313 46.8984 1.17188L47.4609 1.40625L48.0234 1.65234C48.1978 1.7269 48.3392 1.74202 48.457 1.73438L49.582 1.66406C50.0878 1.62942 50.5941 1.66189 51.0938 1.75781L52.2188 1.96875C52.4311 2.00954 52.6431 2.01056 52.8516 1.98047L53.9766 1.81641C54.2863 1.77152 54.5998 1.71448 54.9141 1.62891L55.4766 1.47656L56.0391 1.3125C56.5904 1.16207 57.1585 1.11978 57.7266 1.18359L58.2891 1.25391L58.8516 1.3125C59.3193 1.36559 59.7882 1.46735 60.2461 1.60547L61.3711 1.93359C61.6793 2.02655 61.9837 2.09906 62.2852 2.14453L62.8477 2.22656L63.4102 2.32031C63.6694 2.35936 63.927 2.36588 64.1836 2.34375L64.7461 2.29688L65.3086 2.23828C65.7261 2.20226 66.1445 2.19141 66.5625 2.19141H67.6875C68.1055 2.1914 68.5239 2.20215 68.9414 2.23828L69.5039 2.29688L70.0664 2.34375C70.1732 2.353 70.2988 2.33299 70.4648 2.26172L71.0273 2.02734L71.5898 1.78125C72.2488 1.49711 72.9628 1.42703 73.6758 1.60547L74.8008 1.88672C74.9458 1.92295 75.0808 1.91919 75.2227 1.88672L76.3477 1.62891C77.0361 1.4698 77.7306 1.53539 78.375 1.79297L79.5 2.23828C79.6995 2.31742 79.8712 2.34741 80.0273 2.34375L81.1523 2.32031C81.1789 2.31969 81.2726 2.30582 81.457 2.17969L82.582 1.40625C83.2069 0.976702 83.9693 0.735658 84.7969 0.867188L85.3594 0.960938L85.9219 1.04297C86.4704 1.13049 87.003 1.31217 87.5039 1.57031L88.0664 1.86328L88.3945 2.03906L88.7812 1.76953L89.3438 1.39453C90.0854 0.890891 90.9958 0.727539 91.8984 1.11328L92.4609 1.34766L93 1.59375L93.5508 1.35938L94.1133 1.125L94.7344 0.949219C95.3527 0.84699 95.9668 0.971342 96.5273 1.27734L97.0898 1.58203L97.5586 1.83984L98.0156 1.64062L98.5781 1.39453C99.2496 1.098 99.9846 1.0207 100.711 1.21875L101.273 1.38281L101.836 1.53516C101.968 1.57033 102.085 1.56517 102.211 1.53516L102.773 1.40625L103.336 1.26562C103.78 1.15912 104.234 1.08318 104.684 1.04297L105.809 0.949219C106.534 0.885333 107.213 1.0714 107.812 1.41797L108.375 1.74609L108.938 2.0625L109.031 2.10938L110.156 1.89844C110.734 1.78793 111.317 1.79427 111.891 1.92188L112.453 2.05078L113.016 2.16797C113.149 2.19739 113.273 2.194 113.414 2.15625L114.539 1.85156C114.943 1.74201 115.353 1.65369 115.758 1.57031L116.883 1.33594C117.504 1.20818 118.129 1.23914 118.734 1.41797L119.859 1.74609C120.093 1.81553 120.324 1.84377 120.539 1.83984H121.102L121.664 1.82812C122.031 1.82139 122.398 1.80443 122.766 1.79297L123.328 1.78125L123.891 1.75781C124.214 1.74772 124.539 1.73079 124.863 1.6875L125.426 1.60547L125.988 1.53516C126.498 1.46708 127.014 1.46398 127.523 1.53516L128.648 1.69922C128.977 1.74497 129.306 1.76545 129.633 1.78125L130.195 1.81641L130.758 1.83984C131.097 1.85616 131.438 1.85922 131.777 1.85156L132.902 1.82812C133.121 1.82318 133.353 1.77914 133.594 1.69922L134.156 1.52344L134.719 1.33594C135.223 1.16894 135.739 1.06997 136.266 1.05469L136.828 1.04297L137.391 1.01953C137.962 1.00347 138.528 1.09692 139.066 1.28906L139.629 1.5L140.191 1.69922C140.27 1.72731 140.317 1.71755 140.379 1.69922L141.504 1.37109C142.056 1.20584 142.629 1.14116 143.203 1.19531L143.766 1.25391L144.328 1.30078C144.636 1.32979 144.947 1.33707 145.254 1.32422L146.379 1.27734C146.817 1.25919 147.254 1.27462 147.691 1.3125L148.816 1.40625C149.021 1.42395 149.232 1.41413 149.449 1.35938L150.012 1.20703L150.574 1.06641C151.027 0.952618 151.485 0.878647 151.945 0.84375L152.508 0.808594L153.07 0.761719C153.471 0.731557 153.876 0.711564 154.277 0.703125L155.402 0.679688C156.061 0.665945 156.685 0.838765 157.254 1.13672L158.379 1.72266C158.402 1.73495 158.426 1.74201 158.438 1.74609L158.449 1.75781L159.574 1.47656C159.984 1.37546 160.405 1.28867 160.816 1.21875L161.941 1.03125C162.645 0.912744 163.332 1.02917 163.957 1.32422L164.52 1.58203L165.082 1.85156C165.316 1.9615 165.528 2.02064 165.715 2.03906L166.277 2.08594L166.84 2.14453C167.133 2.17321 167.426 2.18628 167.719 2.16797L168.844 2.09766C169.09 2.08226 169.343 2.02932 169.605 1.94531L170.168 1.76953L170.73 1.58203C171.202 1.43134 171.686 1.33598 172.172 1.28906L172.734 1.23047L173.297 1.18359C173.896 1.12612 174.488 1.19875 175.055 1.39453L175.617 1.59375L176.18 1.78125C176.271 1.81277 176.339 1.81394 176.414 1.79297L176.977 1.64062L177.539 1.47656C178.117 1.31584 178.715 1.28591 179.309 1.38281L179.871 1.46484L180.434 1.55859C180.725 1.60587 181.013 1.63032 181.301 1.62891H182.426C182.743 1.62714 183.068 1.59702 183.387 1.55859L183.949 1.5L184.512 1.42969C185.159 1.35231 185.794 1.4554 186.387 1.69922L186.949 1.92188L187.512 2.15625C187.647 2.21129 187.745 2.21644 187.828 2.20312L188.391 2.10938L188.953 2.02734C189.231 1.98241 189.518 1.89771 189.809 1.79297L190.934 1.39453C191.635 1.14262 192.364 1.14338 193.066 1.39453L194.191 1.79297C194.451 1.88586 194.703 1.93706 194.941 1.95703L196.066 2.05078C196.434 2.0816 196.801 2.11798 197.168 2.14453L198.293 2.21484H198.305C198.326 2.20745 198.381 2.1863 198.457 2.13281L199.02 1.74609L199.582 1.34766L200.18 1.01953C200.402 0.934339 200.648 0.883915 200.906 0.867188C201.165 0.850751 201.411 0.878776 201.645 0.9375L202.301 1.19531L202.863 1.52344L203.309 1.78125L203.742 1.58203L204.305 1.3125C204.862 1.05252 205.464 0.91747 206.086 0.925781H206.648L207.211 0.9375C207.824 0.946214 208.409 1.09778 208.957 1.35938L209.52 1.62891L209.941 1.83984L210.398 1.58203L210.961 1.27734C211.559 0.948282 212.232 0.769915 212.941 0.832031L213.504 0.890625L214.066 0.9375C214.413 0.968269 214.763 0.984171 215.109 0.996094L216.234 1.04297C216.772 1.06136 217.305 1.16626 217.816 1.34766L218.941 1.74609C219.146 1.81842 219.332 1.84666 219.504 1.83984L220.629 1.79297C220.867 1.78347 221.113 1.74159 221.367 1.66406L222.492 1.3125L223.066 1.19531C223.631 1.13545 224.19 1.24141 224.707 1.48828L225.832 2.02734L225.844 2.03906L226.395 1.85156L226.957 1.66406C227.517 1.47406 228.1 1.39101 228.691 1.44141L229.816 1.53516C230.036 1.55374 230.256 1.53901 230.484 1.48828L231.047 1.37109L231.609 1.24219C232.054 1.14328 232.508 1.07566 232.957 1.04297L233.52 1.00781L234.082 0.960938C234.433 0.935338 234.785 0.908247 235.137 0.867188L236.262 0.726562C236.789 0.664918 237.321 0.686552 237.844 0.785156L238.969 0.996094C239.337 1.0655 239.703 1.1425 240.07 1.20703L241.195 1.39453C241.516 1.45084 241.838 1.49143 242.156 1.51172L243.281 1.58203C243.589 1.6016 243.899 1.60271 244.207 1.58203L245.332 1.51172C245.9 1.47329 246.464 1.54089 247.008 1.71094L248.133 2.0625C248.405 2.14778 248.672 2.20495 248.93 2.22656L250.055 2.32031C250.373 2.34652 250.697 2.3537 251.016 2.34375L251.578 2.32031L252.141 2.30859C252.508 2.29711 252.875 2.27826 253.242 2.26172L254.367 2.21484C254.733 2.19833 255.103 2.17881 255.469 2.15625L256.594 2.08594C256.888 2.06781 257.185 2.02276 257.484 1.95703L258.047 1.82812L258.609 1.71094C258.912 1.64408 259.224 1.54641 259.535 1.42969L260.098 1.21875L260.66 1.01953C261.216 0.811312 261.799 0.704839 262.395 0.738281L263.52 0.808594C264.176 0.846066 264.787 1.06232 265.336 1.39453L266.461 2.07422C266.528 2.11518 266.571 2.13113 266.578 2.13281L267.141 2.03906L267.703 1.95703C268.147 1.88612 268.592 1.84618 269.039 1.83984L270.164 1.81641C270.626 1.80999 271.089 1.84813 271.547 1.92188L272.109 2.01562L272.672 2.09766C273.003 2.15111 273.338 2.19058 273.668 2.21484L274.23 2.26172L274.793 2.29688C274.794 2.29692 274.807 2.30323 274.828 2.29688C274.853 2.28933 274.902 2.26634 274.98 2.21484L275.543 1.83984L276.105 1.47656C276.572 1.16766 277.11 0.961211 277.688 0.925781L278.273 0.9375L279.398 1.10156C279.578 1.12659 279.758 1.11416 279.949 1.06641L281.074 0.785156C281.678 0.634452 282.295 0.632797 282.902 0.773438L284.027 1.03125C284.217 1.07512 284.397 1.08263 284.578 1.05469L285.141 0.972656L285.703 0.878906C286.379 0.773521 287.046 0.872144 287.66 1.13672L288.785 1.62891C288.897 1.67608 288.964 1.67472 289.02 1.66406L289.582 1.54688L290.145 1.44141C290.675 1.33632 291.214 1.31413 291.75 1.38281L292.875 1.52344C293.17 1.56152 293.472 1.58022 293.766 1.57031L294.328 1.54688L294.891 1.53516C295.42 1.51764 295.947 1.58208 296.461 1.72266L297.586 2.02734C297.729 2.06607 297.862 2.06849 297.996 2.03906L298.559 1.91016L299.121 1.79297C299.407 1.72984 299.701 1.63318 300 1.51172L300.562 1.28906L301.125 1.05469L301.734 0.878906C302.146 0.811615 302.559 0.84389 302.953 0.960938L303.527 1.19531L304.09 1.5L304.57 1.76953L305.039 1.57031L305.602 1.32422C306.297 1.02741 307.049 0.980723 307.781 1.21875L308.344 1.40625L308.906 1.58203C309.244 1.69177 309.579 1.79411 309.914 1.875L310.477 2.00391L311.039 2.14453C311.216 2.18711 311.386 2.18617 311.555 2.15625L312.117 2.0625L312.68 1.95703C313.097 1.88318 313.515 1.82792 313.934 1.79297L315.059 1.69922C315.529 1.66013 316.007 1.67212 316.477 1.72266L317.602 1.83984C317.632 1.8428 317.699 1.84422 317.836 1.76953L318.398 1.46484L318.961 1.14844C319.592 0.801114 320.31 0.647399 321.059 0.773438L322.184 0.960938C322.717 1.05165 323.237 1.23058 323.73 1.47656L324.855 2.03906C325.036 2.12922 325.173 2.14571 325.277 2.14453H325.84L326.402 2.13281C326.822 2.12454 327.248 2.12592 327.668 2.15625L328.23 2.20312L328.793 2.23828C328.87 2.24386 328.982 2.23725 329.145 2.15625L330.27 1.59375C330.764 1.34772 331.281 1.17858 331.816 1.08984L332.941 0.902344C333.56 0.800066 334.176 0.852416 334.77 1.04297L335.332 1.21875L335.895 1.40625C336.078 1.46508 336.242 1.4699 336.398 1.45312L337.523 1.33594C338.083 1.2751 338.642 1.31237 339.188 1.45312L339.75 1.60547L340.312 1.74609C340.55 1.80758 340.78 1.83603 341.004 1.82812L342.129 1.78125C342.573 1.76491 343.022 1.78314 343.465 1.82812L344.59 1.94531C344.831 1.96989 345.139 2.01366 345.434 2.13281C345.679 2.23241 346.316 2.55354 346.5 3.33984L346.582 3.66797C346.587 3.68142 346.598 3.71633 346.617 3.76172C346.656 3.85262 346.721 3.97779 346.805 4.14844L347.074 4.71094L347.355 5.27344C347.737 6.05193 347.748 6.90873 347.379 7.69922L347.109 8.26172L346.852 8.82422C346.776 8.9849 346.762 9.10081 346.77 9.1875L346.863 10.3125C346.887 10.5805 346.944 10.8533 347.027 11.1328L347.191 11.6953L347.367 12.2578C347.543 12.8457 347.586 13.4549 347.484 14.0625L347.379 14.625L347.285 15.1875C347.272 15.2671 347.278 15.3601 347.332 15.4922L347.801 16.6172C348.085 17.3089 348.115 18.0511 347.883 18.7734L347.531 19.8984C347.471 20.0859 347.446 20.2532 347.461 20.4141L347.578 21.5391C347.638 22.1581 347.54 22.7681 347.32 23.3438L347.109 23.9062L346.945 24.293L347.273 24.7852L347.66 25.3477C347.903 25.7071 348.091 26.1412 348.129 26.6367C348.167 27.1372 348.047 27.6044 347.836 28.0078L347.531 28.5703L347.273 29.0508L347.484 29.5195L347.73 30.082C347.951 30.5853 348.095 31.1122 348.152 31.6523L348.27 32.7773C348.335 33.4007 348.244 34.0139 348.023 34.5938L347.602 35.7188C347.571 35.7978 347.575 35.8421 347.59 35.8945L347.918 37.0195C348.121 37.7182 348.082 38.4346 347.824 39.1055L347.602 39.668L347.391 40.207L347.648 40.7578L347.895 41.3203C348.245 42.1043 348.228 42.9457 347.859 43.7109L347.578 44.2734L347.32 44.8008L347.531 45.3281L347.742 45.8906C348.017 46.5903 348.046 47.3298 347.801 48.0469L347.602 48.6094L347.414 49.1719C347.337 49.3966 347.297 49.6072 347.297 49.8047L347.309 50.3672V50.9297C347.309 51.1988 347.333 51.4744 347.391 51.75L347.625 52.875C347.756 53.4983 347.734 54.13 347.555 54.7383L347.227 55.8633C347.13 56.1894 347.052 56.5135 346.992 56.8359L346.887 57.3984L346.781 57.9375C346.786 57.9497 346.791 57.9788 346.816 58.0195L347.52 59.1445C347.923 59.7927 348.121 60.5609 347.953 61.3711L347.719 62.4961C347.68 62.683 347.675 62.8631 347.707 63.0469L347.812 63.6094L347.906 64.1719C348.042 64.9366 347.881 65.6681 347.52 66.3047L347.203 66.8672L347.027 67.1484L347.285 67.5L347.695 68.0625C348.116 68.6441 348.397 69.3418 348.363 70.125L348.316 71.25C348.287 71.9269 348.055 72.5579 347.707 73.1133L347.004 74.2383L346.969 74.2734L347.086 74.8125L347.215 75.375C347.274 75.6482 347.361 75.9292 347.484 76.2188L347.719 76.7812L347.965 77.3438C348.319 78.1734 348.236 79.0389 347.812 79.793L347.18 80.918C347.145 80.9792 347.145 81.0188 347.145 81.0234L347.355 82.1484C347.417 82.4646 347.499 82.7882 347.602 83.1094L347.789 83.6719L347.965 84.2344C348.155 84.8287 348.2 85.4437 348.094 86.0625L347.906 87.1875C347.869 87.4023 347.863 87.6189 347.895 87.832L347.988 88.3945L348.07 88.957C348.173 89.6325 348.067 90.3014 347.801 90.9141L347.309 92.0391C347.221 92.2437 347.194 92.4215 347.191 92.5781L347.168 93.7031C347.163 94.0716 347.157 94.4479 347.156 94.8164V95.9414C347.156 96.3586 347.146 96.7786 347.109 97.1953L347.051 97.7578L347.004 98.3203C346.975 98.6564 346.961 98.9925 346.957 99.3281L346.945 99.8906V100.453C346.945 100.505 346.956 100.616 347.062 100.793L347.742 101.918C347.977 102.31 348.134 102.781 348.117 103.301C348.1 103.819 347.909 104.276 347.66 104.648L346.91 105.773C346.78 105.969 346.753 106.1 346.746 106.172L346.652 107.297V107.309L346.664 107.32C346.671 107.342 346.692 107.392 346.746 107.473L347.496 108.598C347.896 109.19 348.145 109.89 348.094 110.66L348.023 111.785C348.007 112.035 348.024 112.292 348.07 112.547L348.164 113.109L348.27 113.672C348.414 114.467 348.218 115.214 347.824 115.852L347.484 116.414L347.215 116.824L347.414 117.211L347.684 117.773C347.97 118.353 348.129 118.988 348.094 119.648L348.023 120.773C347.987 121.426 347.777 122.031 347.449 122.578L346.77 123.703C346.741 123.75 346.727 123.783 346.723 123.797Z" fill="#1E1E1E"/>
</svg>
