<svg width="19" height="27" viewBox="0 0 19 27" fill="none" xmlns="http://www.w3.org/2000/svg">
<path d="M2 3.8C2 2.2536 3.2536 1 4.8 1C6.3464 1 7.6 2.2536 7.6 3.8V22.2C7.6 23.7464 6.3464 25 4.8 25C3.2536 25 2 23.7464 2 22.2V3.8Z" fill="#6F6F6F" fill-opacity="0.3"/>
<path d="M6.3825 2.04753L5.80513 2.86402L6.3825 2.04753ZM6.71019 2.27926L6.13282 3.09574L6.71019 2.27926ZM7.47324 3.2256L8.34454 2.73485L7.47324 3.2256ZM7.58746 3.4284L6.71616 3.91914L7.58746 3.4284ZM7.65485 4.4266L8.58984 4.78125L7.65485 4.4266ZM7.5695 4.6516L8.5045 5.00625L7.5695 4.6516ZM7.48416 4.8766L6.54916 4.52194L7.48416 4.8766ZM7.40944 5.9266L6.43639 6.1572L7.40944 5.9266ZM7.46276 6.1516L8.43581 5.92099L7.46276 6.1516ZM7.51609 6.3766L6.54304 6.6072L7.51609 6.3766ZM7.78788 7.4266L6.8251 7.69686L7.78788 7.4266ZM7.9142 7.8766L8.87699 7.60633L7.9142 7.8766ZM8.04409 8.9266L9.04354 8.95989L8.04409 8.9266ZM8.0366 9.1516L7.03715 9.1183L8.0366 9.1516ZM8.0291 9.3766L7.02966 9.3433L8.0291 9.3766ZM7.84253 10.4266L6.89068 10.12L7.84253 10.4266ZM7.77007 10.6516L6.81822 10.345L7.77007 10.6516ZM7.69761 10.8766L8.64946 11.1831L7.69761 10.8766ZM7.54628 11.9266L6.54685 11.9604L7.54628 11.9266ZM7.55389 12.1516L6.55446 12.1854L7.55389 12.1516ZM7.5615 12.3766L6.56207 12.4104L7.5615 12.3766ZM7.59477 13.4266L6.59521 13.4561L7.59477 13.4266ZM7.60808 13.8766L8.60764 13.847L7.60808 13.8766ZM7.50403 14.9266L6.529 14.7045L7.50403 14.9266ZM7.40155 15.3766L8.37659 15.5987L7.40155 15.3766ZM7.27063 16.4266L8.2704 16.4482L7.27063 16.4266ZM7.2609 16.8766L6.26113 16.855L7.2609 16.8766ZM7.53372 17.9266L8.41315 17.4506L7.53372 17.9266ZM7.77729 18.3766L6.89786 18.8526L7.77729 18.3766ZM7.86632 19.4266L6.92898 19.0782L7.86632 19.4266ZM7.69906 19.8766L8.6364 20.225L7.69906 19.8766ZM7.63971 20.9266L8.60785 20.6762L7.63971 20.9266ZM7.75611 21.3766L6.78797 21.627L7.75611 21.3766ZM7.61054 22.6294L8.54327 22.99L7.61054 22.6294ZM7.52613 22.8478L6.5934 22.4872L7.52613 22.8478ZM7.01822 23.7809L6.21206 23.1892L7.01822 23.7809ZM6.7517 24.1441L7.55787 24.7357L6.7517 24.1441ZM5.93683 24.7375L5.61758 23.7898L5.93683 24.7375ZM5.72087 24.8102L6.04012 25.7579L5.72087 24.8102ZM5.5049 24.883L5.18564 23.9353L5.5049 24.883ZM4.4168 25.0772L4.45855 26.0763L4.4168 25.0772ZM3.91607 25.0981L3.87432 24.099L3.91607 25.0981ZM2.94617 24.6759L2.18938 25.3296L2.94617 24.6759ZM2.78085 24.4845L2.02407 25.1382L2.78085 24.4845ZM2.61554 24.2931L1.85876 24.9468L2.61554 24.2931ZM2.05436 22.8392L1.06919 23.0108L2.05436 22.8392ZM2.12393 21.546L1.14697 21.3325L2.12393 21.546ZM2.17314 21.3208L1.19619 21.1073L2.17314 21.3208ZM2.12278 20.2702L1.16889 20.5703L2.12278 20.2702ZM1.9812 19.8202L2.9351 19.5201L1.9812 19.8202ZM1.75838 18.7702L2.7524 18.6611L1.75838 18.7702ZM1.73367 18.5452L0.739647 18.6543L1.73367 18.5452ZM1.70897 18.3202L2.703 18.2111L1.70897 18.3202ZM1.72776 17.2702L2.71733 17.4143L1.72776 17.2702ZM1.76052 17.0452L0.770949 16.9012L1.76052 17.0452ZM1.7793 15.5452L0.786489 15.6649L1.7793 15.5452ZM1.75218 15.3202L2.745 15.2005L1.75218 15.3202ZM1.9267 14.2702L1.01579 13.8576L1.9267 14.2702ZM2.13053 13.8202L3.04145 14.2328L2.13053 13.8202ZM2.00675 12.5452L1.10597 12.9795L2.00675 12.5452ZM1.89827 12.3202L2.79905 11.8859L1.89827 12.3202ZM1.87716 11.2702L0.962485 10.866L1.87716 11.2702ZM1.97659 11.0452L2.89126 11.4494L1.97659 11.0452ZM2.07601 10.8202L1.16134 10.416L2.07601 10.8202ZM2.39894 9.32021L1.40326 9.22735L2.39894 9.32021ZM2.20106 8.27021L1.2961 8.6957L2.20106 8.27021ZM2.09528 8.04521L3.00024 7.61973L2.09528 8.04521ZM1.98949 7.82021L1.08452 8.2457L1.98949 7.82021ZM1.66268 6.77021L0.674082 6.9208L1.66268 6.77021ZM1.59413 6.32021L0.605535 6.4708L1.59413 6.32021ZM1.54461 5.27021L0.546284 5.21231L1.54461 5.27021ZM1.93298 3.82643L1.11676 3.24868L1.93298 3.82643ZM2.2174 3.42461L1.40118 2.84686L2.2174 3.42461ZM2.73254 2.49804L1.8042 2.12629L2.73254 2.49804ZM2.8111 2.30185L3.73943 2.67361L2.8111 2.30185ZM2.88967 2.10566L1.96133 1.73391L2.88967 2.10566ZM4.6859 1.17549L5.52427 1.72058L4.6859 1.17549ZM5.22007 1.27202L4.67652 2.1114L5.22007 1.27202ZM5.4001 1.3886L4.85655 2.22798L5.03658 2.34456L5.58013 1.50518L6.12367 0.665796L5.94364 0.549216L5.4001 1.3886ZM5.58013 1.50518L5.03658 2.34456C5.30597 2.519 5.56211 2.69217 5.80513 2.86402L6.3825 2.04753L6.95987 1.23105C6.69315 1.04245 6.41437 0.854041 6.12367 0.665796L5.58013 1.50518ZM6.3825 2.04753L5.80513 2.86402L5.96898 2.97988L6.54634 2.1634L7.12371 1.34691L6.95987 1.23105L6.3825 2.04753ZM6.54634 2.1634L5.96898 2.97988L6.13282 3.09574L6.71019 2.27926L7.28756 1.46277L7.12371 1.34691L6.54634 2.1634ZM6.71019 2.27926L6.13282 3.09574C6.24892 3.17784 6.37111 3.30653 6.48771 3.51354L7.35901 3.0228L8.23032 2.53205C7.99155 2.10813 7.68119 1.74113 7.28756 1.46277L6.71019 2.27926ZM7.35901 3.0228L6.48771 3.51354L6.60194 3.71634L7.47324 3.2256L8.34454 2.73485L8.23032 2.53205L7.35901 3.0228ZM7.47324 3.2256L6.60194 3.71634L6.71616 3.91914L7.58746 3.4284L8.45877 2.93765L8.34454 2.73485L7.47324 3.2256ZM7.58746 3.4284L6.71616 3.91914C6.73819 3.95825 6.73949 3.97676 6.73984 3.9819C6.74026 3.98806 6.74148 4.01492 6.71985 4.07194L7.65485 4.4266L8.58984 4.78125C8.82368 4.16477 8.78758 3.52145 8.45877 2.93765L7.58746 3.4284ZM7.65485 4.4266L6.71985 4.07194L6.63451 4.29694L7.5695 4.6516L8.5045 5.00625L8.58984 4.78125L7.65485 4.4266ZM7.5695 4.6516L6.63451 4.29694L6.54916 4.52194L7.48416 4.8766L8.41915 5.23125L8.5045 5.00625L7.5695 4.6516ZM7.48416 4.8766L6.54916 4.52194C6.34856 5.05078 6.3054 5.60448 6.43639 6.1572L7.40944 5.9266L8.38249 5.69599C8.34758 5.54871 8.35423 5.40241 8.41915 5.23125L7.48416 4.8766ZM7.40944 5.9266L6.43639 6.1572L6.48972 6.3822L7.46276 6.1516L8.43581 5.92099L8.38249 5.69599L7.40944 5.9266ZM7.46276 6.1516L6.48972 6.3822L6.54304 6.6072L7.51609 6.3766L8.48913 6.14599L8.43581 5.92099L7.46276 6.1516ZM7.51609 6.3766L6.54304 6.6072C6.62917 6.97063 6.7232 7.33385 6.8251 7.69686L7.78788 7.4266L8.75067 7.15633C8.65607 6.81934 8.5689 6.48256 8.48913 6.14599L7.51609 6.3766ZM7.78788 7.4266L6.8251 7.69686L6.88826 7.92186L7.85104 7.6516L8.81383 7.38133L8.75067 7.15633L7.78788 7.4266ZM7.85104 7.6516L6.88826 7.92186L6.95142 8.14686L7.9142 7.8766L8.87699 7.60633L8.81383 7.38133L7.85104 7.6516ZM7.9142 7.8766L6.95142 8.14686C7.02302 8.40194 7.05276 8.64963 7.04465 8.8933L8.04409 8.9266L9.04354 8.95989C9.05874 8.50356 9.00188 8.05125 8.87699 7.60633L7.9142 7.8766ZM8.04409 8.9266L7.04465 8.8933L7.03715 9.1183L8.0366 9.1516L9.03604 9.18489L9.04354 8.95989L8.04409 8.9266ZM8.0366 9.1516L7.03715 9.1183L7.02966 9.3433L8.0291 9.3766L9.02855 9.40989L9.03604 9.18489L8.0366 9.1516ZM8.0291 9.3766L7.02966 9.3433C7.02124 9.59591 6.97635 9.85405 6.89068 10.12L7.84253 10.4266L8.79439 10.7331C8.93416 10.2991 9.01364 9.85728 9.02855 9.40989L8.0291 9.3766ZM7.84253 10.4266L6.89068 10.12L6.81822 10.345L7.77007 10.6516L8.72192 10.9581L8.79439 10.7331L7.84253 10.4266ZM7.77007 10.6516L6.81822 10.345L6.74575 10.57L7.69761 10.8766L8.64946 11.1831L8.72192 10.9581L7.77007 10.6516ZM7.69761 10.8766L6.74575 10.57C6.59944 11.0244 6.53092 11.4894 6.54685 11.9604L7.54628 11.9266L8.54571 11.8928C8.53797 11.6638 8.57034 11.4288 8.64946 11.1831L7.69761 10.8766ZM7.54628 11.9266L6.54685 11.9604L6.55446 12.1854L7.55389 12.1516L8.55332 12.1178L8.54571 11.8928L7.54628 11.9266ZM7.55389 12.1516L6.55446 12.1854L6.56207 12.4104L7.5615 12.3766L8.56093 12.3428L8.55332 12.1178L7.55389 12.1516ZM7.5615 12.3766L6.56207 12.4104C6.57386 12.759 6.5849 13.1076 6.59521 13.4561L7.59477 13.4266L8.59434 13.397C8.58395 13.0456 8.57281 12.6942 8.56093 12.3428L7.5615 12.3766ZM7.59477 13.4266L6.59521 13.4561L6.60186 13.6811L7.60143 13.6516L8.60099 13.622L8.59434 13.397L7.59477 13.4266ZM7.60143 13.6516L6.60186 13.6811L6.60851 13.9061L7.60808 13.8766L8.60764 13.847L8.60099 13.622L7.60143 13.6516ZM7.60808 13.8766L6.60851 13.9061C6.6163 14.1695 6.5904 14.4349 6.529 14.7045L7.50403 14.9266L8.47907 15.1487C8.57709 14.7182 8.62055 14.2837 8.60764 13.847L7.60808 13.8766ZM7.50403 14.9266L6.529 14.7045L6.47776 14.9295L7.45279 15.1516L8.42783 15.3737L8.47907 15.1487L7.50403 14.9266ZM7.45279 15.1516L6.47776 14.9295L6.42652 15.1545L7.40155 15.3766L8.37659 15.5987L8.42783 15.3737L7.45279 15.1516ZM7.40155 15.3766L6.42652 15.1545C6.3322 15.5687 6.27993 15.9858 6.27086 16.405L7.27063 16.4266L8.2704 16.4482C8.27647 16.1674 8.31148 15.8845 8.37659 15.5987L7.40155 15.3766ZM7.27063 16.4266L6.27086 16.405L6.266 16.63L7.26576 16.6516L8.26553 16.6732L8.2704 16.4482L7.27063 16.4266ZM7.26576 16.6516L6.266 16.63L6.26113 16.855L7.2609 16.8766L8.26066 16.8982L8.26553 16.6732L7.26576 16.6516ZM7.2609 16.8766L6.26113 16.855C6.24932 17.4011 6.39371 17.9212 6.65428 18.4026L7.53372 17.9266L8.41315 17.4506C8.29483 17.232 8.25734 17.0521 8.26066 16.8982L7.2609 16.8766ZM7.53372 17.9266L6.65428 18.4026L6.77607 18.6276L7.65551 18.1516L8.53494 17.6756L8.41315 17.4506L7.53372 17.9266ZM7.65551 18.1516L6.77607 18.6276L6.89786 18.8526L7.77729 18.3766L8.65673 17.9006L8.53494 17.6756L7.65551 18.1516ZM7.77729 18.3766L6.89786 18.8526C6.96028 18.9679 6.95134 19.018 6.92898 19.0782L7.86632 19.4266L8.80366 19.775C9.04149 19.1352 8.97321 18.4853 8.65673 17.9006L7.77729 18.3766ZM7.86632 19.4266L6.92898 19.0782L6.84535 19.3032L7.78269 19.6516L8.72003 20L8.80366 19.775L7.86632 19.4266ZM7.78269 19.6516L6.84535 19.3032L6.76172 19.5282L7.69906 19.8766L8.6364 20.225L8.72003 20L7.78269 19.6516ZM7.69906 19.8766L6.76172 19.5282C6.56283 20.0632 6.52805 20.6221 6.67157 21.177L7.63971 20.9266L8.60785 20.6762C8.57031 20.5311 8.57509 20.39 8.6364 20.225L7.69906 19.8766ZM7.63971 20.9266L6.67157 21.177L6.72977 21.402L7.69791 21.1516L8.66605 20.9012L8.60785 20.6762L7.63971 20.9266ZM7.69791 21.1516L6.72977 21.402L6.78797 21.627L7.75611 21.3766L8.72425 21.1262L8.66605 20.9012L7.69791 21.1516ZM7.75611 21.3766L6.78797 21.627C6.82575 21.7731 6.81875 21.9043 6.76222 22.0505L7.69495 22.4111L8.62768 22.7717C8.83376 22.2386 8.86753 21.6801 8.72425 21.1262L7.75611 21.3766ZM7.69495 22.4111L6.76222 22.0505L6.67781 22.2689L7.61054 22.6294L8.54327 22.99L8.62768 22.7717L7.69495 22.4111ZM7.61054 22.6294L6.67781 22.2689L6.5934 22.4872L7.52613 22.8478L8.45886 23.2084L8.54327 22.99L7.61054 22.6294ZM7.52613 22.8478L6.5934 22.4872C6.49264 22.7478 6.36513 22.9807 6.21206 23.1892L7.01822 23.7809L7.82439 24.3726C8.08591 24.0163 8.297 23.627 8.45886 23.2084L7.52613 22.8478ZM7.01822 23.7809L6.21206 23.1892L6.0788 23.3708L6.88496 23.9625L7.69113 24.5542L7.82439 24.3726L7.01822 23.7809ZM6.88496 23.9625L6.0788 23.3708L5.94553 23.5524L6.7517 24.1441L7.55787 24.7357L7.69113 24.5542L6.88496 23.9625ZM6.7517 24.1441L5.94553 23.5524C5.86157 23.6668 5.76093 23.7415 5.61758 23.7898L5.93683 24.7375L6.25609 25.6851C6.78463 25.5071 7.22724 25.1862 7.55787 24.7357L6.7517 24.1441ZM5.93683 24.7375L5.61758 23.7898L5.40161 23.8626L5.72087 24.8102L6.04012 25.7579L6.25609 25.6851L5.93683 24.7375ZM5.72087 24.8102L5.40161 23.8626L5.18564 23.9353L5.5049 24.883L5.82416 25.8307L6.04012 25.7579L5.72087 24.8102ZM5.5049 24.883L5.18564 23.9353C4.94772 24.0155 4.67934 24.0653 4.37504 24.078L4.4168 25.0772L4.45855 26.0763C4.93316 26.0565 5.39018 25.9769 5.82416 25.8307L5.5049 24.883ZM4.4168 25.0772L4.37504 24.078L4.12468 24.0885L4.16644 25.0876L4.20819 26.0868L4.45855 26.0763L4.4168 25.0772ZM4.16644 25.0876L4.12468 24.0885L3.87432 24.099L3.91607 25.0981L3.95783 26.0972L4.20819 26.0868L4.16644 25.0876ZM3.91607 25.0981L3.87432 24.099C3.81472 24.1015 3.78933 24.0917 3.78061 24.0879C3.7716 24.0839 3.74498 24.0709 3.70295 24.0223L2.94617 24.6759L2.18938 25.3296C2.64388 25.8558 3.26013 26.1264 3.95783 26.0972L3.91607 25.0981ZM2.94617 24.6759L3.70295 24.0223L3.53764 23.8309L2.78085 24.4845L2.02407 25.1382L2.18938 25.3296L2.94617 24.6759ZM2.78085 24.4845L3.53764 23.8309L3.37233 23.6395L2.61554 24.2931L1.85876 24.9468L2.02407 25.1382L2.78085 24.4845ZM2.61554 24.2931L3.37233 23.6395C3.22473 23.4686 3.15018 23.3029 3.12051 23.1325L2.13534 23.3041L1.15017 23.4757C1.24647 24.0286 1.49205 24.5222 1.85876 24.9468L2.61554 24.2931ZM2.13534 23.3041L3.12051 23.1325L3.08002 22.9001L2.09485 23.0717L1.10968 23.2433L1.15017 23.4757L2.13534 23.3041ZM2.09485 23.0717L3.08002 22.9001L3.03953 22.6676L2.05436 22.8392L1.06919 23.0108L1.10968 23.2433L2.09485 23.0717ZM2.05436 22.8392L3.03953 22.6676C2.99825 22.4306 3.00344 22.2054 3.05167 21.9847L2.07472 21.7712L1.09776 21.5578C0.992892 22.0378 0.984509 22.5246 1.06919 23.0108L2.05436 22.8392ZM2.07472 21.7712L3.05167 21.9847L3.10088 21.7595L2.12393 21.546L1.14697 21.3325L1.09776 21.5578L2.07472 21.7712ZM2.12393 21.546L3.10088 21.7595L3.15009 21.5342L2.17314 21.3208L1.19619 21.1073L1.14697 21.3325L2.12393 21.546ZM2.17314 21.3208L3.15009 21.5342C3.26474 21.0095 3.23785 20.4823 3.07668 19.9701L2.12278 20.2702L1.16889 20.5703C1.22796 20.7581 1.23464 20.9313 1.19619 21.1073L2.17314 21.3208ZM2.12278 20.2702L3.07668 19.9701L3.00589 19.7451L2.05199 20.0452L1.09809 20.3453L1.16889 20.5703L2.12278 20.2702ZM2.05199 20.0452L3.00589 19.7451L2.9351 19.5201L1.9812 19.8202L1.0273 20.1203L1.09809 20.3453L2.05199 20.0452ZM1.9812 19.8202L2.9351 19.5201C2.84373 19.2297 2.78342 18.9436 2.7524 18.6611L1.75838 18.7702L0.764349 18.8793C0.810183 19.2968 0.898426 19.7107 1.0273 20.1203L1.9812 19.8202ZM1.75838 18.7702L2.7524 18.6611L2.7277 18.4361L1.73367 18.5452L0.739647 18.6543L0.764349 18.8793L1.75838 18.7702ZM1.73367 18.5452L2.7277 18.4361L2.703 18.2111L1.70897 18.3202L0.714946 18.4293L0.739647 18.6543L1.73367 18.5452ZM1.70897 18.3202L2.703 18.2111C2.67387 17.9457 2.67853 17.6808 2.71733 17.4143L1.72776 17.2702L0.738194 17.1262C0.675089 17.5596 0.66723 17.9947 0.714946 18.4293L1.70897 18.3202ZM1.72776 17.2702L2.71733 17.4143L2.75009 17.1893L1.76052 17.0452L0.770949 16.9012L0.738194 17.1262L1.72776 17.2702ZM1.76052 17.0452L2.75009 17.1893L2.78284 16.9643L1.79327 16.8202L0.803705 16.6762L0.770949 16.9012L1.76052 17.0452ZM1.79327 16.8202L2.78284 16.9643C2.84647 16.5272 2.85202 16.0885 2.79924 15.6505L1.80642 15.7702L0.813609 15.8899C0.845193 16.1519 0.841978 16.4132 0.803705 16.6762L1.79327 16.8202ZM1.80642 15.7702L2.79924 15.6505L2.77212 15.4255L1.7793 15.5452L0.786489 15.6649L0.813609 15.8899L1.80642 15.7702ZM1.7793 15.5452L2.77212 15.4255L2.745 15.2005L1.75218 15.3202L0.759369 15.4399L0.786489 15.6649L1.7793 15.5452ZM1.75218 15.3202L2.745 15.2005C2.72665 15.0483 2.74752 14.8817 2.83762 14.6828L1.9267 14.2702L1.01579 13.8576C0.788818 14.3587 0.693349 14.8921 0.759369 15.4399L1.75218 15.3202ZM1.9267 14.2702L2.83762 14.6828L2.93953 14.4578L2.02862 14.0452L1.11771 13.6326L1.01579 13.8576L1.9267 14.2702ZM2.02862 14.0452L2.93953 14.4578L3.04145 14.2328L2.13053 13.8202L1.21962 13.4076L1.11771 13.6326L2.02862 14.0452ZM2.13053 13.8202L3.04145 14.2328C3.32379 13.6095 3.31172 12.9493 3.016 12.3359L2.11522 12.7702L1.21444 13.2045C1.2562 13.2911 1.25434 13.331 1.21962 13.4076L2.13053 13.8202ZM2.11522 12.7702L3.016 12.3359L2.90753 12.1109L2.00675 12.5452L1.10597 12.9795L1.21444 13.2045L2.11522 12.7702ZM2.00675 12.5452L2.90753 12.1109L2.79905 11.8859L1.89827 12.3202L0.997494 12.7545L1.10597 12.9795L2.00675 12.5452ZM1.89827 12.3202L2.79905 11.8859C2.75531 11.7952 2.7577 11.7516 2.79184 11.6744L1.87716 11.2702L0.962485 10.866C0.687293 11.4888 0.703763 12.1452 0.997494 12.7545L1.89827 12.3202ZM1.87716 11.2702L2.79184 11.6744L2.89126 11.4494L1.97659 11.0452L1.06191 10.641L0.962485 10.866L1.87716 11.2702ZM1.97659 11.0452L2.89126 11.4494L2.99069 11.2244L2.07601 10.8202L1.16134 10.416L1.06191 10.641L1.97659 11.0452ZM2.07601 10.8202L2.99069 11.2244C3.18512 10.7844 3.30914 10.3296 3.35265 9.86307L2.35697 9.77021L1.36129 9.67735C1.33952 9.91079 1.27623 10.156 1.16134 10.416L2.07601 10.8202ZM2.35697 9.77021L3.35265 9.86307L3.37363 9.63807L2.37795 9.54521L1.38227 9.45235L1.36129 9.67735L2.35697 9.77021ZM2.37795 9.54521L3.37363 9.63807L3.39462 9.41307L2.39894 9.32021L1.40326 9.22735L1.38227 9.45235L2.37795 9.54521ZM2.39894 9.32021L3.39462 9.41307C3.44547 8.86781 3.33872 8.33965 3.10603 7.84473L2.20106 8.27021L1.2961 8.6957C1.39252 8.90078 1.41769 9.07262 1.40326 9.22735L2.39894 9.32021ZM2.20106 8.27021L3.10603 7.84473L3.00024 7.61973L2.09528 8.04521L1.19031 8.4707L1.2961 8.6957L2.20106 8.27021ZM2.09528 8.04521L3.00024 7.61973L2.89445 7.39473L1.98949 7.82021L1.08452 8.2457L1.19031 8.4707L2.09528 8.04521ZM1.98949 7.82021L2.89445 7.39473C2.7671 7.12387 2.68882 6.86609 2.65127 6.61962L1.66268 6.77021L0.674082 6.9208C0.743168 7.37433 0.882757 7.81656 1.08452 8.2457L1.98949 7.82021ZM1.66268 6.77021L2.65127 6.61962L2.617 6.39462L1.6284 6.54521L0.639809 6.6958L0.674082 6.9208L1.66268 6.77021ZM1.6284 6.54521L2.617 6.39462L2.58273 6.16962L1.59413 6.32021L0.605535 6.4708L0.639809 6.6958L1.6284 6.54521ZM1.59413 6.32021L2.58273 6.16962C2.53981 5.88791 2.52671 5.60778 2.54293 5.32811L1.54461 5.27021L0.546284 5.21231C0.521906 5.63265 0.541818 6.05252 0.605535 6.4708L1.59413 6.32021ZM1.54461 5.27021L2.54293 5.32811L2.55598 5.10311L1.55766 5.04521L0.559333 4.98731L0.546284 5.21231L1.54461 5.27021ZM1.55766 5.04521L2.55598 5.10311L2.56903 4.87811L1.5707 4.82021L0.572382 4.76231L0.559333 4.98731L1.55766 5.04521ZM1.5707 4.82021L2.56903 4.87811C2.57749 4.73211 2.62581 4.57848 2.74919 4.40417L1.93298 3.82643L1.11676 3.24868C0.797707 3.69942 0.604512 4.20832 0.572382 4.76231L1.5707 4.82021ZM1.93298 3.82643L2.74919 4.40417L2.8914 4.20326L2.07519 3.62552L1.25897 3.04777L1.11676 3.24868L1.93298 3.82643ZM2.07519 3.62552L2.8914 4.20326L3.03361 4.00235L2.2174 3.42461L1.40118 2.84686L1.25897 3.04777L2.07519 3.62552ZM2.2174 3.42461L3.03361 4.00235C3.29292 3.63602 3.50518 3.25858 3.66087 2.8698L2.73254 2.49804L1.8042 2.12629C1.71547 2.34788 1.58431 2.58815 1.40118 2.84686L2.2174 3.42461ZM2.73254 2.49804L3.66087 2.8698L3.73943 2.67361L2.8111 2.30185L1.88277 1.9301L1.8042 2.12629L2.73254 2.49804ZM2.8111 2.30185L3.73943 2.67361L3.818 2.47742L2.88967 2.10566L1.96133 1.73391L1.88277 1.9301L2.8111 2.30185ZM2.88967 2.10566L3.818 2.47742C3.82295 2.46506 3.80847 2.50515 3.75261 2.54735C3.69675 2.58956 3.65419 2.59257 3.66733 2.59119L3.56334 1.59661L3.45935 0.602036C3.14559 0.634842 2.8273 0.739777 2.54687 0.951672C2.26646 1.16356 2.0786 1.44108 1.96133 1.73391L2.88967 2.10566ZM3.56334 1.59661L3.66733 2.59119L3.87748 2.56922L3.77349 1.57464L3.6695 0.580063L3.45935 0.602036L3.56334 1.59661ZM3.77349 1.57464L3.87748 2.56922L4.08763 2.54725L3.98364 1.55267L3.87965 0.55809L3.6695 0.580063L3.77349 1.57464ZM3.98364 1.55267L4.08763 2.54725C4.29621 2.52544 4.52072 2.48558 4.73118 2.40663C4.93019 2.33197 5.22419 2.18212 5.42647 1.871L4.5881 1.32591L3.74973 0.780814C3.81456 0.681102 3.8875 0.618962 3.93747 0.584292C3.98625 0.550442 4.02167 0.536695 4.02869 0.53406C4.0367 0.531054 4.02968 0.534406 4.00191 0.540173C3.97487 0.545791 3.9349 0.552314 3.87965 0.55809L3.98364 1.55267ZM4.5881 1.32591L5.42647 1.871L5.47537 1.79579L4.637 1.2507L3.79863 0.705604L3.74973 0.780814L4.5881 1.32591ZM4.637 1.2507L5.47537 1.79579L5.52427 1.72058L4.6859 1.17549L3.84753 0.630394L3.79863 0.705604L4.637 1.2507ZM4.6859 1.17549L5.52427 1.72058C5.42556 1.87242 5.27093 2.00011 5.07867 2.06427C4.90513 2.1222 4.76381 2.10771 4.69867 2.09594C4.58969 2.07625 4.56976 2.04226 4.67652 2.1114L5.22007 1.27202L5.76361 0.432637C5.59033 0.320427 5.34135 0.179683 5.05432 0.127815C4.90015 0.0999551 4.68255 0.0880287 4.44548 0.167153C4.18969 0.252527 3.98428 0.420067 3.84753 0.630394L4.6859 1.17549ZM5.22007 1.27202L4.67652 2.1114L4.85655 2.22798L5.4001 1.3886L5.94364 0.549216L5.76361 0.432637L5.22007 1.27202Z" fill="#848484"/>
<path d="M11.6001 3.8C11.6001 2.2536 12.8537 1 14.4001 1C15.9465 1 17.2001 2.2536 17.2001 3.8V22.2C17.2001 23.7464 15.9465 25 14.4001 25C12.8537 25 11.6001 23.7464 11.6001 22.2V3.8Z" fill="#6F6F6F" fill-opacity="0.3"/>
<path d="M15.9826 2.04753L15.4052 2.86402L15.9826 2.04753ZM16.3103 2.27926L15.7329 3.09574L16.3103 2.27926ZM17.0733 3.2256L17.9446 2.73485L17.0733 3.2256ZM17.1876 3.4284L16.3163 3.91914L17.1876 3.4284ZM17.2549 4.4266L18.1899 4.78125L17.2549 4.4266ZM17.1696 4.6516L18.1046 5.00625L17.1696 4.6516ZM17.0843 4.8766L16.1493 4.52194L17.0843 4.8766ZM17.0095 5.9266L16.0365 6.1572L17.0095 5.9266ZM17.0629 6.1516L18.0359 5.92099L17.0629 6.1516ZM17.1162 6.3766L16.1431 6.6072L17.1162 6.3766ZM17.388 7.4266L16.4252 7.69686L17.388 7.4266ZM17.5143 7.8766L18.4771 7.60633L17.5143 7.8766ZM17.6442 8.9266L18.6436 8.95989L17.6442 8.9266ZM17.6367 9.1516L16.6372 9.1183L17.6367 9.1516ZM17.6292 9.3766L16.6298 9.3433L17.6292 9.3766ZM17.4426 10.4266L16.4908 10.12L17.4426 10.4266ZM17.3702 10.6516L16.4183 10.345L17.3702 10.6516ZM17.2977 10.8766L18.2496 11.1831L17.2977 10.8766ZM17.1464 11.9266L16.1469 11.9604L17.1464 11.9266ZM17.154 12.1516L16.1546 12.1854L17.154 12.1516ZM17.1616 12.3766L16.1622 12.4104L17.1616 12.3766ZM17.1949 13.4266L16.1953 13.4561L17.1949 13.4266ZM17.2082 13.8766L18.2077 13.847L17.2082 13.8766ZM17.1041 14.9266L16.1291 14.7045L17.1041 14.9266ZM17.0016 15.3766L17.9767 15.5987L17.0016 15.3766ZM16.8707 16.4266L17.8705 16.4482L16.8707 16.4266ZM16.861 16.8766L15.8612 16.855L16.861 16.8766ZM17.1338 17.9266L18.0132 17.4506L17.1338 17.9266ZM17.3774 18.3766L16.498 18.8526L17.3774 18.3766ZM17.4664 19.4266L16.5291 19.0782L17.4664 19.4266ZM17.2992 19.8766L18.2365 20.225L17.2992 19.8766ZM17.2398 20.9266L18.2079 20.6762L17.2398 20.9266ZM17.3562 21.3766L16.3881 21.627L17.3562 21.3766ZM17.2106 22.6294L18.1434 22.99L17.2106 22.6294ZM17.1262 22.8478L16.1935 22.4872L17.1262 22.8478ZM16.6183 23.7809L15.8122 23.1892L16.6183 23.7809ZM16.3518 24.1441L17.158 24.7357L16.3518 24.1441ZM15.5369 24.7375L15.2177 23.7898L15.5369 24.7375ZM15.321 24.8102L15.6402 25.7579L15.321 24.8102ZM15.105 24.883L14.7857 23.9353L15.105 24.883ZM14.0169 25.0772L14.0587 26.0763L14.0169 25.0772ZM13.5162 25.0981L13.4744 24.099L13.5162 25.0981ZM12.5463 24.6759L11.7895 25.3296L12.5463 24.6759ZM12.381 24.4845L11.6242 25.1382L12.381 24.4845ZM12.2156 24.2931L11.4589 24.9468L12.2156 24.2931ZM11.6545 22.8392L10.6693 23.0108L11.6545 22.8392ZM11.724 21.546L10.7471 21.3325L11.724 21.546ZM11.7732 21.3208L10.7963 21.1073L11.7732 21.3208ZM11.7229 20.2702L10.769 20.5703L11.7229 20.2702ZM11.5813 19.8202L12.5352 19.5201L11.5813 19.8202ZM11.3585 18.7702L12.3525 18.6611L11.3585 18.7702ZM11.3338 18.5452L10.3397 18.6543L11.3338 18.5452ZM11.3091 18.3202L12.3031 18.2111L11.3091 18.3202ZM11.3279 17.2702L12.3174 17.4143L11.3279 17.2702ZM11.3606 17.0452L10.371 16.9012L11.3606 17.0452ZM11.3794 15.5452L10.3866 15.6649L11.3794 15.5452ZM11.3523 15.3202L12.3451 15.2005L11.3523 15.3202ZM11.5268 14.2702L10.6159 13.8576L11.5268 14.2702ZM11.7306 13.8202L12.6415 14.2328L11.7306 13.8202ZM11.6068 12.5452L10.7061 12.9795L11.6068 12.5452ZM11.4984 12.3202L12.3992 11.8859L11.4984 12.3202ZM11.4773 11.2702L10.5626 10.866L11.4773 11.2702ZM11.5767 11.0452L12.4914 11.4494L11.5767 11.0452ZM11.6761 10.8202L10.7614 10.416L11.6761 10.8202ZM11.999 9.32021L11.0034 9.22735L11.999 9.32021ZM11.8012 8.27021L10.8962 8.6957L11.8012 8.27021ZM11.6954 8.04521L12.6003 7.61973L11.6954 8.04521ZM11.5896 7.82021L10.6846 8.2457L11.5896 7.82021ZM11.2628 6.77021L10.2742 6.9208L11.2628 6.77021ZM11.1942 6.32021L10.2056 6.4708L11.1942 6.32021ZM11.1447 5.27021L10.1464 5.21231L11.1447 5.27021ZM11.5331 3.82643L10.7169 3.24868L11.5331 3.82643ZM11.8175 3.42461L11.0013 2.84686L11.8175 3.42461ZM12.3326 2.49804L11.4043 2.12629L12.3326 2.49804ZM12.4112 2.30185L13.3395 2.67361L12.4112 2.30185ZM12.4898 2.10566L11.5614 1.73391L12.4898 2.10566ZM14.286 1.17549L15.1244 1.72058L14.286 1.17549ZM14.8202 1.27202L14.2766 2.1114L14.8202 1.27202ZM15.0002 1.3886L14.4567 2.22798L14.6367 2.34456L15.1802 1.50518L15.7238 0.665796L15.5437 0.549216L15.0002 1.3886ZM15.1802 1.50518L14.6367 2.34456C14.9061 2.519 15.1622 2.69217 15.4052 2.86402L15.9826 2.04753L16.56 1.23105C16.2933 1.04245 16.0145 0.854041 15.7238 0.665796L15.1802 1.50518ZM15.9826 2.04753L15.4052 2.86402L15.5691 2.97988L16.1464 2.1634L16.7238 1.34691L16.56 1.23105L15.9826 2.04753ZM16.1464 2.1634L15.5691 2.97988L15.7329 3.09574L16.3103 2.27926L16.8877 1.46277L16.7238 1.34691L16.1464 2.1634ZM16.3103 2.27926L15.7329 3.09574C15.849 3.17784 15.9712 3.30653 16.0878 3.51354L16.9591 3.0228L17.8304 2.53205C17.5917 2.10813 17.2813 1.74113 16.8877 1.46277L16.3103 2.27926ZM16.9591 3.0228L16.0878 3.51354L16.202 3.71634L17.0733 3.2256L17.9446 2.73485L17.8304 2.53205L16.9591 3.0228ZM17.0733 3.2256L16.202 3.71634L16.3163 3.91914L17.1876 3.4284L18.0589 2.93765L17.9446 2.73485L17.0733 3.2256ZM17.1876 3.4284L16.3163 3.91914C16.3383 3.95825 16.3396 3.97676 16.3399 3.9819C16.3404 3.98806 16.3416 4.01492 16.3199 4.07194L17.2549 4.4266L18.1899 4.78125C18.4238 4.16477 18.3877 3.52145 18.0589 2.93765L17.1876 3.4284ZM17.2549 4.4266L16.3199 4.07194L16.2346 4.29694L17.1696 4.6516L18.1046 5.00625L18.1899 4.78125L17.2549 4.4266ZM17.1696 4.6516L16.2346 4.29694L16.1493 4.52194L17.0843 4.8766L18.0193 5.23125L18.1046 5.00625L17.1696 4.6516ZM17.0843 4.8766L16.1493 4.52194C15.9487 5.05078 15.9055 5.60448 16.0365 6.1572L17.0095 5.9266L17.9826 5.69599C17.9477 5.54871 17.9543 5.40241 18.0193 5.23125L17.0843 4.8766ZM17.0095 5.9266L16.0365 6.1572L16.0898 6.3822L17.0629 6.1516L18.0359 5.92099L17.9826 5.69599L17.0095 5.9266ZM17.0629 6.1516L16.0898 6.3822L16.1431 6.6072L17.1162 6.3766L18.0892 6.14599L18.0359 5.92099L17.0629 6.1516ZM17.1162 6.3766L16.1431 6.6072C16.2293 6.97063 16.3233 7.33385 16.4252 7.69686L17.388 7.4266L18.3508 7.15633C18.2562 6.81934 18.169 6.48256 18.0892 6.14599L17.1162 6.3766ZM17.388 7.4266L16.4252 7.69686L16.4884 7.92186L17.4511 7.6516L18.4139 7.38133L18.3508 7.15633L17.388 7.4266ZM17.4511 7.6516L16.4884 7.92186L16.5515 8.14686L17.5143 7.8766L18.4771 7.60633L18.4139 7.38133L17.4511 7.6516ZM17.5143 7.8766L16.5515 8.14686C16.6231 8.40194 16.6529 8.64963 16.6447 8.8933L17.6442 8.9266L18.6436 8.95989C18.6588 8.50356 18.602 8.05125 18.4771 7.60633L17.5143 7.8766ZM17.6442 8.9266L16.6447 8.8933L16.6372 9.1183L17.6367 9.1516L18.6361 9.18489L18.6436 8.95989L17.6442 8.9266ZM17.6367 9.1516L16.6372 9.1183L16.6298 9.3433L17.6292 9.3766L18.6286 9.40989L18.6361 9.18489L17.6367 9.1516ZM17.6292 9.3766L16.6298 9.3433C16.6213 9.59591 16.5764 9.85405 16.4908 10.12L17.4426 10.4266L18.3945 10.7331C18.5343 10.2991 18.6137 9.85728 18.6286 9.40989L17.6292 9.3766ZM17.4426 10.4266L16.4908 10.12L16.4183 10.345L17.3702 10.6516L18.322 10.9581L18.3945 10.7331L17.4426 10.4266ZM17.3702 10.6516L16.4183 10.345L16.3459 10.57L17.2977 10.8766L18.2496 11.1831L18.322 10.9581L17.3702 10.6516ZM17.2977 10.8766L16.3459 10.57C16.1995 11.0244 16.131 11.4894 16.1469 11.9604L17.1464 11.9266L18.1458 11.8928C18.1381 11.6638 18.1704 11.4288 18.2496 11.1831L17.2977 10.8766ZM17.1464 11.9266L16.1469 11.9604L16.1546 12.1854L17.154 12.1516L18.1534 12.1178L18.1458 11.8928L17.1464 11.9266ZM17.154 12.1516L16.1546 12.1854L16.1622 12.4104L17.1616 12.3766L18.161 12.3428L18.1534 12.1178L17.154 12.1516ZM17.1616 12.3766L16.1622 12.4104C16.174 12.759 16.185 13.1076 16.1953 13.4561L17.1949 13.4266L18.1944 13.397C18.184 13.0456 18.1729 12.6942 18.161 12.3428L17.1616 12.3766ZM17.1949 13.4266L16.1953 13.4561L16.202 13.6811L17.2015 13.6516L18.2011 13.622L18.1944 13.397L17.1949 13.4266ZM17.2015 13.6516L16.202 13.6811L16.2086 13.9061L17.2082 13.8766L18.2077 13.847L18.2011 13.622L17.2015 13.6516ZM17.2082 13.8766L16.2086 13.9061C16.2164 14.1695 16.1905 14.4349 16.1291 14.7045L17.1041 14.9266L18.0792 15.1487C18.1772 14.7182 18.2206 14.2837 18.2077 13.847L17.2082 13.8766ZM17.1041 14.9266L16.1291 14.7045L16.0779 14.9295L17.0529 15.1516L18.0279 15.3737L18.0792 15.1487L17.1041 14.9266ZM17.0529 15.1516L16.0779 14.9295L16.0266 15.1545L17.0016 15.3766L17.9767 15.5987L18.0279 15.3737L17.0529 15.1516ZM17.0016 15.3766L16.0266 15.1545C15.9323 15.5687 15.88 15.9858 15.871 16.405L16.8707 16.4266L17.8705 16.4482C17.8766 16.1674 17.9116 15.8845 17.9767 15.5987L17.0016 15.3766ZM16.8707 16.4266L15.871 16.405L15.8661 16.63L16.8659 16.6516L17.8656 16.6732L17.8705 16.4482L16.8707 16.4266ZM16.8659 16.6516L15.8661 16.63L15.8612 16.855L16.861 16.8766L17.8608 16.8982L17.8656 16.6732L16.8659 16.6516ZM16.861 16.8766L15.8612 16.855C15.8494 17.4011 15.9938 17.9212 16.2544 18.4026L17.1338 17.9266L18.0132 17.4506C17.8949 17.232 17.8574 17.0521 17.8608 16.8982L16.861 16.8766ZM17.1338 17.9266L16.2544 18.4026L16.3762 18.6276L17.2556 18.1516L18.135 17.6756L18.0132 17.4506L17.1338 17.9266ZM17.2556 18.1516L16.3762 18.6276L16.498 18.8526L17.3774 18.3766L18.2568 17.9006L18.135 17.6756L17.2556 18.1516ZM17.3774 18.3766L16.498 18.8526C16.5604 18.9679 16.5514 19.018 16.5291 19.0782L17.4664 19.4266L18.4038 19.775C18.6416 19.1352 18.5733 18.4853 18.2568 17.9006L17.3774 18.3766ZM17.4664 19.4266L16.5291 19.0782L16.4454 19.3032L17.3828 19.6516L18.3201 20L18.4038 19.775L17.4664 19.4266ZM17.3828 19.6516L16.4454 19.3032L16.3618 19.5282L17.2992 19.8766L18.2365 20.225L18.3201 20L17.3828 19.6516ZM17.2992 19.8766L16.3618 19.5282C16.1629 20.0632 16.1281 20.6221 16.2717 21.177L17.2398 20.9266L18.2079 20.6762C18.1704 20.5311 18.1752 20.39 18.2365 20.225L17.2992 19.8766ZM17.2398 20.9266L16.2717 21.177L16.3299 21.402L17.298 21.1516L18.2661 20.9012L18.2079 20.6762L17.2398 20.9266ZM17.298 21.1516L16.3299 21.402L16.3881 21.627L17.3562 21.3766L18.3243 21.1262L18.2661 20.9012L17.298 21.1516ZM17.3562 21.3766L16.3881 21.627C16.4258 21.7731 16.4188 21.9043 16.3623 22.0505L17.295 22.4111L18.2278 22.7717C18.4339 22.2386 18.4676 21.6801 18.3243 21.1262L17.3562 21.3766ZM17.295 22.4111L16.3623 22.0505L16.2779 22.2689L17.2106 22.6294L18.1434 22.99L18.2278 22.7717L17.295 22.4111ZM17.2106 22.6294L16.2779 22.2689L16.1935 22.4872L17.1262 22.8478L18.059 23.2084L18.1434 22.99L17.2106 22.6294ZM17.1262 22.8478L16.1935 22.4872C16.0927 22.7478 15.9652 22.9807 15.8122 23.1892L16.6183 23.7809L17.4245 24.3726C17.686 24.0163 17.8971 23.627 18.059 23.2084L17.1262 22.8478ZM16.6183 23.7809L15.8122 23.1892L15.6789 23.3708L16.4851 23.9625L17.2912 24.5542L17.4245 24.3726L16.6183 23.7809ZM16.4851 23.9625L15.6789 23.3708L15.5456 23.5524L16.3518 24.1441L17.158 24.7357L17.2912 24.5542L16.4851 23.9625ZM16.3518 24.1441L15.5456 23.5524C15.4617 23.6668 15.361 23.7415 15.2177 23.7898L15.5369 24.7375L15.8562 25.6851C16.3847 25.5071 16.8273 25.1862 17.158 24.7357L16.3518 24.1441ZM15.5369 24.7375L15.2177 23.7898L15.0017 23.8626L15.321 24.8102L15.6402 25.7579L15.8562 25.6851L15.5369 24.7375ZM15.321 24.8102L15.0017 23.8626L14.7857 23.9353L15.105 24.883L15.4243 25.8307L15.6402 25.7579L15.321 24.8102ZM15.105 24.883L14.7857 23.9353C14.5478 24.0155 14.2794 24.0653 13.9751 24.078L14.0169 25.0772L14.0587 26.0763C14.5333 26.0565 14.9903 25.9769 15.4243 25.8307L15.105 24.883ZM14.0169 25.0772L13.9751 24.078L13.7248 24.0885L13.7665 25.0876L13.8083 26.0868L14.0587 26.0763L14.0169 25.0772ZM13.7665 25.0876L13.7248 24.0885L13.4744 24.099L13.5162 25.0981L13.5579 26.0972L13.8083 26.0868L13.7665 25.0876ZM13.5162 25.0981L13.4744 24.099C13.4148 24.1015 13.3894 24.0917 13.3807 24.0879C13.3717 24.0839 13.3451 24.0709 13.3031 24.0223L12.5463 24.6759L11.7895 25.3296C12.244 25.8558 12.8602 26.1264 13.5579 26.0972L13.5162 25.0981ZM12.5463 24.6759L13.3031 24.0223L13.1377 23.8309L12.381 24.4845L11.6242 25.1382L11.7895 25.3296L12.5463 24.6759ZM12.381 24.4845L13.1377 23.8309L12.9724 23.6395L12.2156 24.2931L11.4589 24.9468L11.6242 25.1382L12.381 24.4845ZM12.2156 24.2931L12.9724 23.6395C12.8248 23.4686 12.7503 23.3029 12.7206 23.1325L11.7354 23.3041L10.7503 23.4757C10.8466 24.0286 11.0921 24.5222 11.4589 24.9468L12.2156 24.2931ZM11.7354 23.3041L12.7206 23.1325L12.6801 22.9001L11.6949 23.0717L10.7098 23.2433L10.7503 23.4757L11.7354 23.3041ZM11.6949 23.0717L12.6801 22.9001L12.6396 22.6676L11.6545 22.8392L10.6693 23.0108L10.7098 23.2433L11.6949 23.0717ZM11.6545 22.8392L12.6396 22.6676C12.5983 22.4306 12.6035 22.2054 12.6518 21.9847L11.6748 21.7712L10.6979 21.5578C10.593 22.0378 10.5846 22.5246 10.6693 23.0108L11.6545 22.8392ZM11.6748 21.7712L12.6518 21.9847L12.701 21.7595L11.724 21.546L10.7471 21.3325L10.6979 21.5578L11.6748 21.7712ZM11.724 21.546L12.701 21.7595L12.7502 21.5342L11.7732 21.3208L10.7963 21.1073L10.7471 21.3325L11.724 21.546ZM11.7732 21.3208L12.7502 21.5342C12.8648 21.0095 12.8379 20.4823 12.6768 19.9701L11.7229 20.2702L10.769 20.5703C10.8281 20.7581 10.8347 20.9313 10.7963 21.1073L11.7732 21.3208ZM11.7229 20.2702L12.6768 19.9701L12.606 19.7451L11.6521 20.0452L10.6982 20.3453L10.769 20.5703L11.7229 20.2702ZM11.6521 20.0452L12.606 19.7451L12.5352 19.5201L11.5813 19.8202L10.6274 20.1203L10.6982 20.3453L11.6521 20.0452ZM11.5813 19.8202L12.5352 19.5201C12.4438 19.2297 12.3835 18.9436 12.3525 18.6611L11.3585 18.7702L10.3644 18.8793C10.4103 19.2968 10.4985 19.7107 10.6274 20.1203L11.5813 19.8202ZM11.3585 18.7702L12.3525 18.6611L12.3278 18.4361L11.3338 18.5452L10.3397 18.6543L10.3644 18.8793L11.3585 18.7702ZM11.3338 18.5452L12.3278 18.4361L12.3031 18.2111L11.3091 18.3202L10.315 18.4293L10.3397 18.6543L11.3338 18.5452ZM11.3091 18.3202L12.3031 18.2111C12.274 17.9457 12.2786 17.6808 12.3174 17.4143L11.3279 17.2702L10.3383 17.1262C10.2752 17.5596 10.2673 17.9947 10.315 18.4293L11.3091 18.3202ZM11.3279 17.2702L12.3174 17.4143L12.3502 17.1893L11.3606 17.0452L10.371 16.9012L10.3383 17.1262L11.3279 17.2702ZM11.3606 17.0452L12.3502 17.1893L12.3829 16.9643L11.3934 16.8202L10.4038 16.6762L10.371 16.9012L11.3606 17.0452ZM11.3934 16.8202L12.3829 16.9643C12.4466 16.5272 12.4521 16.0885 12.3993 15.6505L11.4065 15.7702L10.4137 15.8899C10.4453 16.1519 10.4421 16.4132 10.4038 16.6762L11.3934 16.8202ZM11.4065 15.7702L12.3993 15.6505L12.3722 15.4255L11.3794 15.5452L10.3866 15.6649L10.4137 15.8899L11.4065 15.7702ZM11.3794 15.5452L12.3722 15.4255L12.3451 15.2005L11.3523 15.3202L10.3595 15.4399L10.3866 15.6649L11.3794 15.5452ZM11.3523 15.3202L12.3451 15.2005C12.3267 15.0483 12.3476 14.8817 12.4377 14.6828L11.5268 14.2702L10.6159 13.8576C10.3889 14.3587 10.2934 14.8921 10.3595 15.4399L11.3523 15.3202ZM11.5268 14.2702L12.4377 14.6828L12.5396 14.4578L11.6287 14.0452L10.7178 13.6326L10.6159 13.8576L11.5268 14.2702ZM11.6287 14.0452L12.5396 14.4578L12.6415 14.2328L11.7306 13.8202L10.8197 13.4076L10.7178 13.6326L11.6287 14.0452ZM11.7306 13.8202L12.6415 14.2328C12.9239 13.6095 12.9118 12.9493 12.6161 12.3359L11.7153 12.7702L10.8145 13.2045C10.8563 13.2911 10.8544 13.331 10.8197 13.4076L11.7306 13.8202ZM11.7153 12.7702L12.6161 12.3359L12.5076 12.1109L11.6068 12.5452L10.7061 12.9795L10.8145 13.2045L11.7153 12.7702ZM11.6068 12.5452L12.5076 12.1109L12.3992 11.8859L11.4984 12.3202L10.5976 12.7545L10.7061 12.9795L11.6068 12.5452ZM11.4984 12.3202L12.3992 11.8859C12.3554 11.7952 12.3578 11.7516 12.3919 11.6744L11.4773 11.2702L10.5626 10.866C10.2874 11.4888 10.3039 12.1452 10.5976 12.7545L11.4984 12.3202ZM11.4773 11.2702L12.3919 11.6744L12.4914 11.4494L11.5767 11.0452L10.662 10.641L10.5626 10.866L11.4773 11.2702ZM11.5767 11.0452L12.4914 11.4494L12.5908 11.2244L11.6761 10.8202L10.7614 10.416L10.662 10.641L11.5767 11.0452ZM11.6761 10.8202L12.5908 11.2244C12.7852 10.7844 12.9092 10.3296 12.9527 9.86307L11.9571 9.77021L10.9614 9.67735C10.9396 9.91079 10.8763 10.156 10.7614 10.416L11.6761 10.8202ZM11.9571 9.77021L12.9527 9.86307L12.9737 9.63807L11.9781 9.54521L10.9824 9.45235L10.9614 9.67735L11.9571 9.77021ZM11.9781 9.54521L12.9737 9.63807L12.9947 9.41307L11.999 9.32021L11.0034 9.22735L10.9824 9.45235L11.9781 9.54521ZM11.999 9.32021L12.9947 9.41307C13.0456 8.86781 12.9388 8.33965 12.7061 7.84473L11.8012 8.27021L10.8962 8.6957C10.9926 8.90078 11.0178 9.07262 11.0034 9.22735L11.999 9.32021ZM11.8012 8.27021L12.7061 7.84473L12.6003 7.61973L11.6954 8.04521L10.7904 8.4707L10.8962 8.6957L11.8012 8.27021ZM11.6954 8.04521L12.6003 7.61973L12.4946 7.39473L11.5896 7.82021L10.6846 8.2457L10.7904 8.4707L11.6954 8.04521ZM11.5896 7.82021L12.4946 7.39473C12.3672 7.12387 12.2889 6.86609 12.2514 6.61962L11.2628 6.77021L10.2742 6.9208C10.3433 7.37433 10.4829 7.81656 10.6846 8.2457L11.5896 7.82021ZM11.2628 6.77021L12.2514 6.61962L12.2171 6.39462L11.2285 6.54521L10.2399 6.6958L10.2742 6.9208L11.2628 6.77021ZM11.2285 6.54521L12.2171 6.39462L12.1828 6.16962L11.1942 6.32021L10.2056 6.4708L10.2399 6.6958L11.2285 6.54521ZM11.1942 6.32021L12.1828 6.16962C12.1399 5.88791 12.1268 5.60778 12.143 5.32811L11.1447 5.27021L10.1464 5.21231C10.122 5.63265 10.1419 6.05252 10.2056 6.4708L11.1942 6.32021ZM11.1447 5.27021L12.143 5.32811L12.1561 5.10311L11.1578 5.04521L10.1594 4.98731L10.1464 5.21231L11.1447 5.27021ZM11.1578 5.04521L12.1561 5.10311L12.1691 4.87811L11.1708 4.82021L10.1725 4.76231L10.1594 4.98731L11.1578 5.04521ZM11.1708 4.82021L12.1691 4.87811C12.1776 4.73211 12.2259 4.57848 12.3493 4.40417L11.5331 3.82643L10.7169 3.24868C10.3978 3.69942 10.2046 4.20832 10.1725 4.76231L11.1708 4.82021ZM11.5331 3.82643L12.3493 4.40417L12.4915 4.20326L11.6753 3.62552L10.8591 3.04777L10.7169 3.24868L11.5331 3.82643ZM11.6753 3.62552L12.4915 4.20326L12.6337 4.00235L11.8175 3.42461L11.0013 2.84686L10.8591 3.04777L11.6753 3.62552ZM11.8175 3.42461L12.6337 4.00235C12.893 3.63602 13.1053 3.25858 13.261 2.8698L12.3326 2.49804L11.4043 2.12629C11.3156 2.34788 11.1844 2.58815 11.0013 2.84686L11.8175 3.42461ZM12.3326 2.49804L13.261 2.8698L13.3395 2.67361L12.4112 2.30185L11.4829 1.9301L11.4043 2.12629L12.3326 2.49804ZM12.4112 2.30185L13.3395 2.67361L13.4181 2.47742L12.4898 2.10566L11.5614 1.73391L11.4829 1.9301L12.4112 2.30185ZM12.4898 2.10566L13.4181 2.47742C13.423 2.46506 13.4086 2.50515 13.3527 2.54735C13.2968 2.58956 13.2543 2.59257 13.2674 2.59119L13.1634 1.59661L13.0594 0.602036C12.7457 0.634842 12.4274 0.739777 12.147 0.951672C11.8666 1.16356 11.6787 1.44108 11.5614 1.73391L12.4898 2.10566ZM13.1634 1.59661L13.2674 2.59119L13.4776 2.56922L13.3736 1.57464L13.2696 0.580063L13.0594 0.602036L13.1634 1.59661ZM13.3736 1.57464L13.4776 2.56922L13.6877 2.54725L13.5837 1.55267L13.4798 0.55809L13.2696 0.580063L13.3736 1.57464ZM13.5837 1.55267L13.6877 2.54725C13.8963 2.52544 14.1208 2.48558 14.3313 2.40663C14.5303 2.33197 14.8243 2.18212 15.0266 1.871L14.1882 1.32591L13.3498 0.780814C13.4147 0.681102 13.4876 0.618962 13.5376 0.584292C13.5864 0.550442 13.6218 0.536695 13.6288 0.53406C13.6368 0.531054 13.6298 0.534406 13.602 0.540173C13.575 0.545791 13.535 0.552314 13.4798 0.55809L13.5837 1.55267ZM14.1882 1.32591L15.0266 1.871L15.0755 1.79579L14.2371 1.2507L13.3987 0.705604L13.3498 0.780814L14.1882 1.32591ZM14.2371 1.2507L15.0755 1.79579L15.1244 1.72058L14.286 1.17549L13.4476 0.630394L13.3987 0.705604L14.2371 1.2507ZM14.286 1.17549L15.1244 1.72058C15.0257 1.87242 14.871 2.00011 14.6788 2.06427C14.5052 2.1222 14.3639 2.10771 14.2988 2.09594C14.1898 2.07625 14.1699 2.04226 14.2766 2.1114L14.8202 1.27202L15.3637 0.432637C15.1904 0.320427 14.9414 0.179683 14.6544 0.127815C14.5002 0.0999551 14.2826 0.0880287 14.0456 0.167153C13.7898 0.252527 13.5844 0.420067 13.4476 0.630394L14.286 1.17549ZM14.8202 1.27202L14.2766 2.1114L14.4567 2.22798L15.0002 1.3886L15.5437 0.549216L15.3637 0.432637L14.8202 1.27202Z" fill="#848484"/>
</svg>
