<svg width="454" height="436" viewBox="0 0 454 436" fill="none" xmlns="http://www.w3.org/2000/svg">
<path fill-rule="evenodd" clip-rule="evenodd" d="M212.188 4.43075C216.973 1.27413 222.864 -1.19207 228.781 0.609457L230.504 1.13387C230.565 1.15245 230.625 1.16884 230.682 1.18563C232.585 0.175811 234.512 0.227765 235.345 0.309652C236.779 0.450608 238.056 0.918895 238.926 1.28426C240.774 2.06049 242.946 3.31953 245.28 4.81844L248.04 6.59188C253.062 9.81727 257.606 13.6668 261.665 18.1251L263.907 20.5889C266.984 23.9696 270.535 26.6827 274.589 28.755L277.548 30.2677C282.571 32.8349 287.429 35.6301 292.118 38.6554L294.875 40.4347C299.785 43.6021 304.321 47.2644 308.479 51.4122L310.819 53.7452C314.407 57.3242 318.192 60.632 322.176 63.67L324.779 65.6554C328.76 68.691 332.947 71.4576 337.342 73.9561L340.211 75.588C345.245 78.4496 349.974 81.7272 354.394 85.419L356.909 87.5196C361.296 91.1841 365.396 95.2123 369.211 99.5977L371.408 102.122C374.193 105.324 377.591 107.679 381.712 109.222L384.909 110.418C390.924 112.669 396.287 115.912 400.93 120.153L403.357 122.371C406.937 125.641 410.824 128.5 415.025 130.951L417.872 132.613C423.195 135.72 427.893 139.651 431.95 144.375L434.133 146.916C437.555 150.9 441.04 154.614 444.587 158.061L446.867 160.274C452.286 165.54 454.417 172.306 453.225 179.759L452.708 182.988C451.848 188.367 450.844 193.737 449.699 199.097L449.01 202.317C447.674 208.57 445.043 214.358 441.194 219.643L439.171 222.419C436.739 225.758 435.523 229.395 435.457 233.52L435.401 236.95C435.293 243.618 433.711 249.901 430.624 255.693L429.064 258.624C426.815 262.845 425.169 267.25 424.116 271.851L423.382 275.056C421.999 281.098 419.579 286.78 416.16 292.072L414.326 294.911C412.097 298.361 410.983 302.138 410.984 306.42L410.985 309.87C410.986 316.419 409.721 322.654 407.146 328.493L405.82 331.501C403.713 336.278 401.743 341.099 399.91 345.965L398.754 349.03C396.932 353.867 395.277 358.76 393.79 363.708L392.848 366.844C391.141 372.526 388.725 377.957 385.616 383.127L383.887 386C381.536 389.91 380.018 394.057 379.309 398.483L378.785 401.757C377.783 408.009 375.615 413.803 372.273 419.067L370.546 421.787C368.531 424.962 365.818 427.565 362.319 429.148C358.834 430.724 355.086 431.055 351.364 430.543L348.077 430.09C343.687 429.486 339.304 429.769 334.873 430.966L331.6 431.85C325.497 433.499 319.335 434.067 313.154 433.523L309.88 433.234C304.52 432.762 299.16 432.251 293.8 431.701L290.528 431.365C285.784 430.879 281.04 430.98 276.287 431.67L273.014 432.146C267.383 432.964 261.745 433.407 256.104 433.476L252.831 433.516C246.893 433.588 240.974 432.9 235.088 431.465L231.816 430.667C227.795 429.687 223.807 429.837 219.702 431.172L216.429 432.235C209.753 434.406 202.963 434.511 196.251 432.525L192.979 431.556C188.378 430.194 183.839 429.636 179.334 429.844L176.062 429.994C171.277 430.215 166.468 430.983 161.628 432.31L158.355 433.207C152.427 434.832 146.457 435.638 140.459 435.6L137.186 435.578C131.248 435.54 125.333 434.741 119.455 433.197L116.18 432.338C111.046 430.99 106.125 429.928 101.415 429.15L98.3745 428.648C90.869 427.407 85.4339 422.828 82.4848 415.863L81.2124 412.858C79.0404 407.729 77.154 402.484 75.5532 397.127L74.6147 393.986C73.0956 388.903 71.5477 383.829 69.9721 378.765L68.9995 375.637C67.3998 370.496 65.859 365.334 64.3764 360.151L63.4741 356.998C62.2038 352.558 60.2769 348.332 57.6704 344.306L55.8422 341.481C52.4607 336.257 49.993 330.666 48.4682 324.729L47.6518 321.547C46.4592 316.903 44.7405 312.444 42.4907 308.162L40.9516 305.234C38.0615 299.733 36.1918 293.866 35.3452 287.671L34.894 284.359C34.2375 279.555 33.0076 274.977 31.2114 270.612L29.9643 267.582C27.8921 262.546 25.9421 257.467 24.1147 252.344L23.0151 249.261C21.293 244.433 19.3648 239.677 17.2309 234.992L15.8696 232.002C13.5331 226.872 11.5222 221.625 9.83834 216.262L8.85787 213.137C7.26006 208.048 5.66658 202.956 4.07857 197.863L3.10299 194.737C1.33504 189.067 0.33869 183.32 0.131309 177.513L0.0170511 174.343C-0.241863 167.087 2.45346 160.733 7.72018 155.705L10.0922 153.441C14.0526 149.66 18.119 145.998 22.2905 142.455L24.7885 140.333C28.9826 136.771 33.2952 133.365 37.7241 130.113L40.3628 128.176C44.6967 124.994 49.0648 121.858 53.4672 118.768L56.1479 116.886C60.847 113.587 65.8381 110.693 71.1147 108.202L74.1381 106.776C78.5387 104.699 82.5584 102.156 86.2133 99.1466L88.7417 97.0636C92.5985 93.8882 96.2485 90.4263 99.6899 86.6729L101.939 84.2188C105.883 79.9173 110.152 76.024 114.743 72.546L117.351 70.5694C121.843 67.1666 126.554 64.06 131.481 61.2481L134.346 59.6124C138.862 57.0351 143.264 54.3081 147.55 51.4317L150.272 49.6055C154.656 46.6642 159.002 43.6729 163.311 40.6329L165.987 38.7452C170.346 35.6696 174.711 32.6005 179.08 29.5362L181.759 27.6544C185.936 24.7242 189.966 21.5982 193.849 18.2755L196.34 16.1436C200.61 12.4899 205.015 9.16293 209.555 6.16805L212.188 4.43075Z" fill="#F6B4B9"/>
</svg>
