<svg width="113" height="115" viewBox="0 0 113 115" fill="none" xmlns="http://www.w3.org/2000/svg">
<path d="M80.9324 93.6616L96.0938 44.6705C96.4891 43.393 95.9911 42.008 94.8728 41.2748L52.0189 13.1782C50.9244 12.4606 49.4911 12.5353 48.4772 13.3627L9.92344 44.8254C8.93799 45.6296 8.56679 46.9678 8.99716 48.1647L25.8187 94.9476C26.2556 96.1627 27.4211 96.9619 28.712 96.9317L78.1367 95.7739C79.4257 95.7437 80.5512 94.8933 80.9324 93.6616Z" fill="#FFA6FC" fill-opacity="0.3"/>
<path d="M97.6719 42.6549C97.8378 42.9093 98.1782 43.5258 98.0498 44.2252L97.7368 44.9479L97.6794 45.0308L97.611 45.1176C97.506 45.2665 97.2264 45.7921 96.7397 46.8506L96.5914 47.1655L96.4581 47.4874C96.0276 48.4237 95.7021 49.3898 95.4845 50.3904L95.3299 51.0686C95.0927 52.1593 94.8707 53.2553 94.6693 54.3572L94.5446 55.0496C94.3304 56.2202 94.0605 57.3757 93.7212 58.5088L93.6139 58.8338L93.5216 59.1659C93.1677 60.3474 92.685 61.4943 92.0895 62.5949L91.9262 62.9027L91.7519 63.2144C91.2878 64.0724 90.9899 64.9768 90.848 65.9304L90.8007 66.2837L90.7494 66.6259C90.5724 67.8206 90.3171 69.0008 89.9868 70.1504L89.8945 70.4825L89.7912 70.8185C89.4759 71.9158 89.139 73.0063 88.7892 74.0929L88.6859 74.4289L88.5786 74.7539C88.2472 75.7831 87.9735 76.8346 87.7403 77.8947L87.5857 78.5729C87.3201 79.7798 86.9263 80.9504 86.4187 82.081L86.2814 82.3919L86.137 82.7177C85.6926 83.7075 85.3055 84.7179 84.9698 85.7402L84.8625 86.0652L84.7441 86.3942C84.3832 87.4928 84.002 88.5857 83.579 89.6649L83.4456 89.9868L83.3234 90.3048C82.9136 91.35 82.5124 92.392 82.1358 93.4092L82.0245 93.7232L81.9022 94.0412C81.3598 95.5007 80.2902 96.5138 78.8177 97.0307L78.1561 97.2686C76.9245 97.7003 75.65 97.9106 74.3492 97.9027L74.0118 97.8994L73.6634 97.9002C72.5451 97.8933 71.4231 97.8984 70.3053 97.9121L69.6085 97.9136C68.4655 97.9277 67.3161 97.9347 66.1723 97.9163L65.831 97.902L65.4825 97.9028C64.3915 97.8852 63.2964 97.9058 62.2073 97.9721L61.8668 97.9949L61.5153 98.0217C60.2438 98.0987 58.9684 97.9852 57.7009 97.6996L57.3618 97.6223L57.0076 97.5379C56.0416 97.3203 55.0878 97.2749 54.1427 97.3974L53.7881 97.4502L53.4445 97.499C52.361 97.6402 51.2783 97.8262 50.1956 98.057L49.5022 98.2067C48.1886 98.4866 46.8613 98.5 45.5372 98.2625L44.8448 98.1379C43.8623 97.9617 42.8872 97.9416 41.9185 98.0693L41.571 98.1071L41.2274 98.1559C40.0029 98.3178 38.7652 98.3597 37.5345 98.2758L36.8439 98.2252C35.8647 98.1585 34.8864 98.2427 33.9064 98.472L33.5597 98.5468L33.217 98.6327C31.7895 98.9666 30.378 98.8476 29.0493 98.2633L28.4276 97.9887C27.1987 97.4478 26.1709 96.672 25.4034 95.639L25.227 95.391L25.0397 95.1471C24.3525 94.2216 23.7914 93.1617 23.346 91.9952L23.22 91.6794L23.101 91.3485C22.7025 90.3048 22.2871 89.2666 21.8677 88.2303L21.6078 87.5766C21.1869 86.5366 20.7588 85.4992 20.3264 84.4633L20.1964 84.1364L20.0594 83.8245C19.6159 82.7619 19.1879 81.6864 18.7904 80.6071L18.5565 79.9565C18.1245 78.7833 17.837 77.5612 17.6886 76.2959L17.6468 75.9373L17.609 75.5898C17.5079 74.7274 17.1739 73.9444 16.5973 73.2263L16.3721 72.9462L16.1428 72.655C15.222 71.5076 14.6685 70.1928 14.5129 68.7454L14.4751 68.3979L14.4334 68.0393C14.3177 66.9647 14.1242 65.9225 13.8449 64.9134L13.748 64.5746L13.655 64.2469C13.4044 63.3415 12.9914 62.4789 12.3938 61.6743L12.1795 61.3902L11.9613 61.095C11.1788 60.0413 10.5614 58.918 10.1142 57.7243L9.98425 57.3975L9.86926 57.0777C9.40778 55.8453 9.17064 54.5352 9.16244 53.1724L9.16876 52.809L9.16008 52.4385C9.15384 51.4642 8.9492 50.5934 8.54981 49.8061L8.38674 49.4912L8.22764 49.1872C7.87078 48.4855 7.67455 47.6963 7.7844 46.8809C7.89628 46.0587 8.29753 45.3624 8.85516 44.8022L9.0943 44.5668L9.3224 44.3353C10.0195 43.636 10.6993 42.8472 11.3614 41.9708L11.5846 41.6913L11.7929 41.4047C12.6365 40.2882 13.6981 39.4188 14.9571 38.8099L15.276 38.6579L15.591 38.4948C16.5406 38.0355 17.4175 37.4934 18.218 36.8653L18.7642 36.4448C19.5207 35.8509 20.1882 35.1244 20.7594 34.2703L20.9597 33.9617L21.164 33.664C21.8916 32.5749 22.7402 31.6134 23.7025 30.7837L23.9566 30.5553L24.2257 30.334C25.1811 29.5102 26.2434 28.8106 27.398 28.2469L27.717 28.0949L28.0319 27.9318C28.9092 27.5034 29.6711 26.9484 30.3167 26.251L30.5479 25.9935L30.7902 25.7321C31.6471 24.8061 32.6014 23.9958 33.6543 23.3075L34.2384 22.9231C35.1155 22.3497 35.9329 21.706 36.6953 20.9936L36.9605 20.7613L37.2106 20.5219C38.0884 19.7015 39.0238 18.9478 40.0081 18.2582L40.2852 18.059L40.5733 17.8558C41.4274 17.2572 42.2269 16.5914 42.9654 15.8499L43.4577 15.3491C44.3608 14.443 45.3763 13.6943 46.4965 13.0983L46.7965 12.9282L47.1114 12.7651C48.3766 12.094 49.7268 11.8689 51.077 12.2608L51.3531 12.3358L51.6331 12.422C52.7085 12.7341 53.7702 13.2477 54.8155 13.9302L55.1092 14.1235L55.3989 14.3058C56.2762 14.8789 57.2011 15.3902 58.1738 15.8236L58.4957 15.9569L58.8216 16.1012L62.2849 17.7327L62.5927 17.896C63.7153 18.4501 64.7696 19.122 65.7352 19.9167L65.9997 20.1329L66.2682 20.3601C67.08 21.028 67.9457 21.6251 68.8529 22.1456L69.1497 22.3128L69.4504 22.4911C70.5724 23.1351 71.5749 23.9532 72.4583 24.9339L72.7016 25.1951L72.9339 25.4602C73.5942 26.1933 74.3483 26.7746 75.1914 27.2015L75.5062 27.3498L75.814 27.5131C76.8057 28.0148 77.816 28.4946 78.8355 28.9547L79.1614 29.099L79.4762 29.2473C80.6537 29.7786 81.7336 30.4728 82.7016 31.3254L82.9591 31.5566L83.2276 31.7839C84.0094 32.4725 84.844 33.0798 85.7351 33.5971L86.0358 33.7754L86.3326 33.9426C87.3051 34.5069 88.287 35.0745 89.2671 35.6272L89.5749 35.7905L89.8716 35.9578C90.9607 36.5719 91.9721 37.3123 92.8963 38.1703L93.1578 38.4126L93.4042 38.6477C94.2277 39.4123 95.0749 40.1703 95.9371 40.9126L96.2096 41.1508L96.4781 41.3781C96.9484 41.7829 97.3852 42.2151 97.6719 42.6549ZM94.5296 43.6478L94.2611 43.4206L93.9886 43.1823C93.0972 42.415 92.2212 41.6404 91.3688 40.8491L91.1074 40.6068L90.8499 40.3756C90.096 39.6757 89.2801 39.0769 88.3984 38.5797L88.0977 38.4014L87.7899 38.2381C86.7998 37.6797 85.8189 37.1054 84.8365 36.5354L84.5397 36.3681L84.228 36.1938C83.1667 35.5778 82.1761 34.8556 81.2491 34.0395L80.9806 33.8122L80.7192 33.57C80.0694 32.998 79.3538 32.5236 78.579 32.1405L77.928 31.8339L77.6022 31.6895C76.5422 31.2112 75.4926 30.7135 74.4608 30.1914L74.153 30.0281L73.8381 29.8798C72.655 29.2811 71.6175 28.4666 70.7161 27.4657L70.2293 26.9433C69.5519 26.1911 68.7957 25.5758 67.9582 25.0949L67.3568 24.7383C66.3036 24.1341 65.3023 23.4511 64.3616 22.6771L64.0931 22.4498L63.8286 22.2336C63.0409 21.5854 62.1821 21.0299 61.2654 20.5774L60.9506 20.4291L60.6428 20.2658C59.6408 19.7712 58.6189 19.3045 57.5922 18.8471L57.2774 18.6988L56.9515 18.5545C55.838 18.0582 54.774 17.4835 53.7639 16.8239L53.1766 16.4373C52.334 15.8873 51.5416 15.5147 50.7998 15.2994L50.5237 15.2244L50.2437 15.1382C49.7766 15.0027 49.2241 15.0337 48.5116 15.4123L48.2116 15.5825L47.9077 15.7416C47.0521 16.1963 46.2761 16.776 45.5797 17.4753L45.3295 17.7147L45.0833 17.9651C44.2213 18.8303 43.2897 19.6145 42.2915 20.3139L42.0144 20.5131L41.7264 20.7163C40.8571 21.3254 40.0313 21.9885 39.2562 22.7129L38.7559 23.1917C37.866 24.0234 36.8986 24.7668 35.8764 25.435L35.2923 25.8194C34.4472 26.3722 33.6814 27.0221 32.9915 27.7674L32.7493 28.0289L32.5181 28.2864C31.6162 29.261 30.5567 30.0444 29.3518 30.6328L29.0329 30.7849L28.7029 30.9409C27.7751 31.3941 26.9419 31.9546 26.1879 32.6048L25.9188 32.8261L25.6647 33.0545C24.9165 33.6996 24.2411 34.4587 23.657 35.333L23.4527 35.6306L23.2634 35.9353C22.5236 37.0428 21.6393 38.0039 20.6209 38.8033L20.0747 39.2238C19.0997 39.9892 18.0386 40.649 16.8998 41.1998L16.2619 41.5039C15.4322 41.9052 14.7424 42.4725 14.1853 43.2095L13.966 43.5L13.7577 43.7866C13.0203 44.7626 12.2469 45.6566 11.4443 46.4615L11.2162 46.693L10.9841 46.9134C10.7976 47.1005 10.7638 47.2251 10.7555 47.282C10.7467 47.3476 10.7455 47.5199 10.9018 47.8272L11.0609 48.1312L11.2239 48.4461C11.8468 49.6729 12.1458 51.0067 12.1548 52.4203L12.1721 53.1612C12.1786 54.19 12.3473 55.1381 12.6764 56.0185L12.7954 56.3493L12.9254 56.6762C13.2697 57.594 13.7478 58.4702 14.3697 59.3075L14.5879 59.6027L14.8021 59.8868C15.6108 60.9756 16.2 62.1648 16.5534 63.4414L16.6393 63.7841L16.7322 64.1118C17.0566 65.2834 17.2884 66.4908 17.4211 67.7246L17.4589 68.0722L17.5006 68.4308C17.5933 69.2923 17.9092 70.0664 18.4824 70.7801L18.7116 71.0713L18.9369 71.3515C19.8552 72.495 20.416 73.8025 20.5849 75.2421L20.6227 75.5896L20.6644 75.9482C20.786 76.9847 21.0235 77.9741 21.3716 78.9193L21.6056 79.57C21.9883 80.6093 22.4038 81.6427 22.8309 82.6661L22.9569 82.9819L23.0979 83.3048C23.5348 84.3515 23.9659 85.4004 24.3912 86.4513L24.5212 86.7781L24.6472 87.094C25.0747 88.1503 25.498 89.2143 25.9042 90.2783L26.0232 90.6091L26.1492 90.925C26.5092 91.8679 26.944 92.6808 27.448 93.3596L27.6354 93.6036L27.8117 93.8515C28.2346 94.4202 28.8256 94.8948 29.6349 95.2507L29.9568 95.384L30.2677 95.5213C30.9774 95.8327 31.7147 95.9063 32.5297 95.7167L32.8834 95.6269L33.2301 95.552C34.494 95.2569 35.7713 95.149 37.0519 95.2364L37.7425 95.2869C38.7736 95.3573 39.8048 95.3206 40.8316 95.1849L41.1752 95.1361L41.5227 95.0983C42.8037 94.929 44.0924 94.952 45.3761 95.1822L46.0685 95.3069C47.0116 95.476 47.9482 95.4659 48.881 95.2669L49.2277 95.1921L49.5633 95.1212C50.7254 94.8734 51.8939 94.6759 53.0597 94.5241L53.7469 94.4264C55.0515 94.2566 56.3635 94.3302 57.6659 94.6237L58.3662 94.7704C59.366 94.9956 60.3533 95.0828 61.3339 95.0234L61.6854 94.9966L62.0299 94.9849C63.1958 94.9138 64.3664 94.8765 65.5344 94.8953L65.8758 94.9096L66.2242 94.9088C67.3377 94.9268 68.4514 94.9295 69.5642 94.9159L70.261 94.9144C71.3991 94.9003 72.5397 94.8866 73.6782 94.8936L74.0306 94.9039L74.368 94.9071C75.3224 94.913 76.2546 94.756 77.1631 94.4376L77.8247 94.1997C78.4929 93.965 78.8792 93.5846 79.0976 92.9948L79.2089 92.6808L79.3311 92.3629C79.7144 91.3279 80.1127 90.2791 80.5289 89.2174L80.6472 88.8884L80.7805 88.5665C81.1831 87.5395 81.5618 86.505 81.9051 85.4598L82.0084 85.1238L82.1157 84.7988C82.4844 83.6762 82.9151 82.5692 83.4022 81.4844L83.5394 81.1735L83.6838 80.8477C84.1074 79.9041 84.4284 78.9276 84.6495 77.9226L84.8041 77.2443C85.0574 76.0931 85.3613 74.9572 85.7214 73.8385L85.8287 73.5135L86.9137 69.9852L87.0983 69.321C87.3916 68.3004 87.6196 67.2526 87.7774 66.1877L87.8287 65.8455L87.876 65.4922C88.0695 64.1889 88.4901 62.9463 89.1199 61.7822L89.2832 61.4744L89.4575 61.1627C89.9562 60.2403 90.3538 59.2863 90.6472 58.3065L90.7395 57.9744L90.8468 57.6494C91.1548 56.6212 91.4014 55.5679 91.596 54.5033L91.6583 54.1571L91.7246 53.822C91.9321 52.6873 92.1533 51.5528 92.3976 50.4293L92.5523 49.751C92.8162 48.5378 93.2058 47.3602 93.7263 46.228L94.6515 44.264C94.7134 44.1438 94.7863 44.0379 94.8439 43.9333C94.7562 43.8489 94.6517 43.7529 94.5296 43.6478Z" fill="#F16CEC"/>
<circle cx="23.5" cy="28.5" r="12.5" fill="#F16CEC"/>
<path d="M24.0781 14.8516C25.7242 14.5989 27.292 14.9224 28.707 15.8008L29.3867 16.2227C30.523 16.928 31.6423 17.6682 32.7383 18.4492L33.0781 18.6953L33.4062 18.9297C34.7602 19.8965 35.6742 21.2118 36.1016 22.8203L36.1953 23.207L36.3008 23.5938C36.6453 24.8906 36.8808 25.9799 36.9688 26.8164L37.0156 27.2617C37.0339 27.4363 37.0472 27.5714 37.0625 27.6719C37.188 27.8538 37.2857 27.9993 37.3086 28.0703C37.3872 28.3172 37.3908 28.5397 37.3906 28.6211C37.3901 28.8219 37.36 29.0351 37.332 29.207C37.2711 29.5806 37.1587 30.1065 37.0039 30.7422L36.8164 31.5156C36.4929 32.8436 36.0587 34.1631 35.5273 35.4766L35.375 35.8633L35.2109 36.25C34.5898 37.7831 33.5731 39.023 32.1875 39.9414L31.4844 40.4102C30.1533 41.2913 28.6914 41.821 27.125 41.9922L26.7266 42.0391L26.3164 42.0859C24.9592 42.2343 23.5873 42.3315 22.2031 42.3906L21.793 42.4141L21.3711 42.4258C19.6128 42.5007 18.0512 41.9178 16.7773 40.7031L16.4727 40.4102L16.168 40.1289C15.183 39.1883 14.2313 38.2606 13.3086 37.3516L12.7461 36.7891C11.6311 35.6897 10.8817 34.3647 10.5078 32.8398L10.4141 32.4531L10.3086 32.0664C9.9694 30.682 9.82097 29.2738 9.85156 27.8477L9.86328 27.4492V27.0508C9.89621 25.5183 10.2833 24.0664 11.0117 22.7148L11.2109 22.3633L11.3984 22.0117C12.0598 20.7865 12.8357 19.5995 13.7305 18.4727L13.9883 18.1562L14.2461 17.8281C15.3461 16.4428 16.83 15.6456 18.5938 15.4961L19.0039 15.4609L19.4258 15.4258C20.7445 15.3139 22.0371 15.1615 23.293 14.9688L23.6797 14.9102L24.0781 14.8516ZM24.5352 17.8164L23.7383 17.9336C22.4124 18.137 21.0561 18.3084 19.6719 18.4258L19.2617 18.4609L18.8398 18.4961C17.8998 18.5765 17.185 18.9578 16.6016 19.6914L16.3438 20.0195L16.0742 20.3477C15.2866 21.3401 14.6083 22.3681 14.0352 23.4297L13.6602 24.1328C13.155 25.0688 12.886 26.0636 12.8633 27.1211V27.5195L12.8516 27.9062C12.8266 29.0707 12.9498 30.222 13.2266 31.3516L13.4141 32.125C13.6566 33.1144 14.1376 33.949 14.8555 34.6562L15.1367 34.9375L15.418 35.207C16.3281 36.1038 17.2688 37.0197 18.2422 37.9492L18.8516 38.5352C19.535 39.1853 20.302 39.4772 21.2422 39.4375L21.6641 39.4141L22.0742 39.4023C23.3933 39.346 24.6979 39.2386 25.9883 39.0977L26.3984 39.0625L26.8086 39.0156C27.8869 38.897 28.89 38.5265 29.832 37.9023L30.1836 37.668L30.5352 37.4453C31.4218 36.8572 32.0427 36.0898 32.4336 35.125L32.5859 34.7383L32.75 34.3516C33.2293 33.1667 33.6109 31.9819 33.8984 30.8008L34.0859 30.0273C34.2009 29.555 34.2705 29.194 34.3203 28.9375C34.2643 28.7975 34.2135 28.676 34.1914 28.5859C34.1226 28.3048 34.0668 27.9542 34.0273 27.5781L33.9805 27.1328C33.917 26.5273 33.7378 25.6152 33.4062 24.3672L33.3008 23.9805L33.1953 23.582C32.9463 22.649 32.4462 21.9275 31.6602 21.3672L31.0039 20.8984C29.9575 20.1526 28.8886 19.4385 27.8047 18.7656L27.125 18.3438C26.3177 17.8427 25.4738 17.6723 24.5352 17.8164Z" fill="#F16CEC"/>
</svg>
