<svg width="69" height="142" viewBox="0 0 69 142" fill="none" xmlns="http://www.w3.org/2000/svg">
<path d="M15.0083 18C15.0083 16.3431 16.3514 15 18.0083 15H63.0083C64.6652 15 66.0083 16.3431 66.0083 18V137C66.0083 138.657 64.6652 140 63.0083 140H18.0083C16.3514 140 15.0083 138.657 15.0083 137V18Z" fill="#7CA6FF" fill-opacity="0.3"/>
<path d="M44.5513 12.8438L44.9028 12.8555C46.1115 12.8777 47.3189 12.993 48.5239 13.207L48.8755 13.2656L49.2153 13.3242C50.2484 13.5077 51.2805 13.5892 52.3091 13.5703H52.6606L53.0122 13.5586C54.1405 13.5376 55.2707 13.5184 56.3989 13.5H56.7388L57.0903 13.4883C58.2901 13.4687 59.4898 13.537 60.688 13.6875L61.0396 13.7344L61.3794 13.7812C62.6911 13.946 63.8765 14.3438 64.8364 15.0703L65.0474 15.2344L65.27 15.3984C66.2734 16.1598 66.9441 17.2622 67.3677 18.5508L67.4731 18.8906L67.5903 19.2188C68.0302 20.558 68.1079 21.9372 67.8247 23.3203L67.7544 23.6719L67.6841 24.0117C67.4869 24.9735 67.4539 25.9382 67.5903 26.8945L67.6372 27.2344L67.6841 27.5859C67.8626 28.8389 67.8859 30.0933 67.7427 31.3477L67.7075 31.6992L67.6606 32.0391C67.5401 33.0927 67.505 34.1508 67.5435 35.2031L67.5552 35.5547L67.5669 35.8945C67.6091 37.0453 67.6225 38.2008 67.6138 39.3516V40.043C67.6058 41.0917 67.678 42.144 67.8364 43.1953L67.8833 43.5469L67.9419 43.8867C68.1291 45.1282 68.1705 46.3807 68.0708 47.625L68.0474 47.9648L68.0122 48.3164C67.9221 49.4412 67.8414 50.5666 67.7544 51.6914L67.7192 52.043L67.6958 52.3945C67.6069 53.543 67.4951 54.6916 67.356 55.8398L67.3091 56.1914L67.2739 56.5312C67.1549 57.5134 67.1733 58.4989 67.3442 59.4844L67.4028 59.8359L67.4731 60.1758C67.6782 61.3576 67.8115 62.5426 67.8833 63.7266L67.9067 64.0781L67.9302 64.418C68.0027 65.6153 67.9909 66.8186 67.895 68.0156L67.8599 68.3672L67.8364 68.7188C67.752 69.7731 67.7429 70.8286 67.813 71.8828L67.8364 72.2227L67.8599 72.5742C67.9455 73.863 67.827 75.154 67.5083 76.4297L67.4263 76.7695L67.3325 77.1211C67.1132 78.0016 67.1211 78.8743 67.356 79.7578L67.4497 80.0977L67.5435 80.4492C67.9071 81.8177 67.9243 83.2017 67.5903 84.5742L67.4966 84.9258L67.4146 85.2656C67.1611 86.3057 67.0106 87.3504 66.9575 88.3828L66.9341 88.7227L66.9224 89.0742C66.8728 90.0445 66.9718 91.0194 67.2271 92.0039L67.3208 92.3555L67.4028 92.6953C67.7162 93.904 67.9335 95.1239 68.0356 96.3398L68.0591 96.6797L68.0942 97.0312C68.1937 98.2166 68.2259 99.4079 68.188 100.594L68.1763 100.934L68.1646 101.285C68.124 102.545 67.9192 103.803 67.5552 105.047L67.4497 105.387L67.3442 105.738C67.0716 106.672 67.0022 107.59 67.1216 108.504L67.1685 108.855L67.2153 109.195C67.3819 110.467 67.361 111.745 67.1567 113.016L67.0981 113.367L67.0396 113.707C66.8735 114.738 66.8117 115.773 66.8521 116.801L66.8638 117.152L66.8872 117.492C66.9295 118.568 67.0233 119.649 67.1802 120.727L67.2271 121.066L67.2856 121.418C67.4515 122.557 67.6001 123.701 67.7427 124.84L67.7896 125.18L67.8364 125.531C67.9965 126.813 67.9562 128.097 67.7192 129.375L67.6489 129.727L67.5903 130.066C67.3868 131.164 67.2108 132.262 67.0747 133.359L67.0396 133.711L66.9927 134.062C66.8541 135.181 66.7356 136.251 66.6294 137.273L66.5591 137.906C66.4785 138.681 66.1975 139.429 65.6333 140.027C65.0729 140.62 64.3413 140.949 63.5825 141.105L63.2544 141.176L62.9146 141.246C61.6367 141.509 60.3341 141.512 59.0239 141.27L58.6841 141.211L58.3325 141.141C57.3587 140.96 56.3846 140.941 55.4146 141.07L55.0747 141.117L54.7231 141.164C53.4702 141.331 52.215 141.339 50.9614 141.188L50.6099 141.141L50.27 141.105C49.231 140.98 48.1904 140.948 47.1528 141.012L46.8013 141.035L46.4614 141.059C45.3687 141.126 44.2736 141.232 43.1802 141.375L42.8286 141.41L42.4771 141.457C41.3017 141.611 40.1262 141.713 38.9497 141.75L38.5981 141.762L38.2583 141.773C36.9978 141.813 35.7356 141.686 34.4849 141.398L34.1333 141.316L33.7935 141.234C32.9008 141.029 32.0072 141.038 31.1099 141.27L30.77 141.363L30.4185 141.457C29.1398 141.787 27.8443 141.91 26.5513 141.82L26.2114 141.797L25.8599 141.773C24.7308 141.696 23.6022 141.609 22.4731 141.527L22.1216 141.504L21.7817 141.48C20.6986 141.402 19.574 141.37 18.4185 141.387H18.0552L17.6802 141.398C16.8339 141.41 16.0029 141.217 15.2896 140.719C14.5793 140.223 14.1128 139.507 13.813 138.715L13.6724 138.363L13.5435 138C12.9934 136.544 12.9268 135.057 13.3911 133.594L13.5083 133.242L13.6138 132.891C13.9236 131.914 14.0707 130.949 14.0474 129.996L14.0356 129.656L14.0239 129.305C13.9994 128.314 13.8404 127.312 13.5435 126.305L13.438 125.965L13.3442 125.613C12.9509 124.279 12.852 122.924 13.063 121.57L13.1099 121.23L13.1685 120.879C13.3459 119.74 13.5399 118.596 13.7427 117.457L13.8013 117.117L13.8599 116.766C14.0438 115.732 14.1331 114.701 14.1177 113.672L14.106 113.32V112.969C14.0896 111.916 13.9968 110.861 13.8247 109.805L13.7661 109.465L13.7075 109.113C13.508 107.889 13.4293 106.661 13.4731 105.434L13.4849 105.082L13.4966 104.742C13.5355 103.659 13.5326 102.568 13.4731 101.484L13.4497 101.145L13.438 100.793C13.3746 99.6376 13.3343 98.4797 13.3325 97.3242V96.6328C13.3308 95.5487 13.2784 94.4596 13.1802 93.375L13.1567 93.0352L13.1216 92.6836C13.0089 91.4368 13.0415 90.1896 13.2271 88.9453L13.2856 88.5938L13.3325 88.2539C13.4984 87.1427 13.6406 86.0251 13.7661 84.9141L13.813 84.5742L13.8481 84.2227C13.9621 83.2147 13.9544 82.2078 13.8247 81.1992L13.7778 80.8477L13.731 80.5078C13.5783 79.3228 13.4998 78.1317 13.4849 76.9453V76.5938L13.4731 76.2539C13.4585 75.0884 13.4843 73.9153 13.5552 72.75L13.5786 72.4102L13.6021 72.0586C13.6671 70.9882 13.6726 69.918 13.6138 68.8477L13.5903 68.4961L13.5786 68.1562C13.5126 66.9553 13.5298 65.7473 13.6372 64.5469L13.6724 64.207L13.6958 63.8555C13.7947 62.7502 13.8709 61.6442 13.9185 60.5391L13.9302 60.1875L13.9419 59.8477C13.9886 58.7621 13.9985 57.6754 13.9536 56.5898L13.9302 56.2383L13.9185 55.8984C13.8724 54.7879 13.8059 53.6693 13.7192 52.5586L13.6958 52.2188L13.6724 51.8672C13.581 50.6959 13.5344 49.5232 13.5435 48.3516V48.0117L13.5552 47.6602C13.5641 46.4965 13.6058 45.3313 13.6958 44.168L13.731 43.8164L13.7544 43.4766C13.8318 42.4761 13.7816 41.4701 13.6021 40.4648L13.5317 40.125L13.4731 39.7734C13.2486 38.5149 13.1923 37.2514 13.3091 35.9883L13.3442 35.6367L13.3794 35.2969C13.4709 34.3088 13.4259 33.3139 13.2388 32.3203L13.1685 31.9805L13.1099 31.6289C12.8758 30.3865 12.7796 29.1388 12.8403 27.8906L12.8638 27.5391L12.8755 27.1992C12.9353 25.9697 13.1216 24.7406 13.4263 23.5195L13.5083 23.1797L13.6021 22.8281C13.8402 21.8733 13.8995 20.9262 13.7896 19.9805L13.7427 19.6289L13.7075 19.2773C13.6198 18.5253 13.6756 17.768 13.9653 17.0625C14.2625 16.3416 14.7673 15.7601 15.4067 15.3398L15.6528 15.1758L15.9106 15.0117C16.2693 14.776 16.5145 14.5948 16.6724 14.4727C16.8417 14.1558 17.0922 13.9545 17.27 13.8516C17.5148 13.7102 17.7462 13.6589 17.856 13.6406C18.0914 13.6015 18.3306 13.6085 18.5005 13.6172C18.8717 13.6366 19.3666 13.7099 19.9419 13.8047L20.2935 13.8516L20.6333 13.9102C21.6356 14.0754 22.6462 14.1108 23.645 14.0156L23.9849 13.9805L24.3364 13.957C25.4302 13.8527 26.5231 13.7017 27.6177 13.5234L27.9692 13.4766L28.3091 13.418C29.6204 13.2043 30.9398 13.227 32.2466 13.5L32.5981 13.582L32.938 13.6523C33.9041 13.8544 34.873 13.8949 35.8325 13.7695L36.1724 13.7227L36.5239 13.6758C37.64 13.5299 38.7593 13.3681 39.8755 13.1953L40.2153 13.1367L40.5669 13.0898C41.7794 12.9022 42.9959 12.8214 44.2114 12.8438H44.5513ZM19.3208 15.8438C19.3756 15.7358 19.4225 15.6183 19.4497 15.4805C19.4287 15.6272 19.3634 15.7394 19.3208 15.8438ZM16.4849 15.1289L16.4966 15.0938V15.0703C16.4941 15.0889 16.4867 15.1094 16.4849 15.1289ZM16.3325 97.3242C16.3343 98.4257 16.3659 99.5273 16.4263 100.629L16.4497 100.98L16.4614 101.32C16.5258 102.494 16.5387 103.674 16.4966 104.848L16.4849 105.188L16.4731 105.539C16.4363 106.568 16.5041 107.601 16.6724 108.633L16.731 108.973L16.7896 109.324C16.9849 110.524 17.0876 111.731 17.106 112.934V113.273L17.1177 113.625C17.1362 114.85 17.0302 116.073 16.813 117.293L16.7544 117.645L16.6958 117.984C16.4967 119.103 16.3075 120.23 16.1333 121.348L16.0747 121.688L16.0278 122.039C15.8878 122.941 15.9436 123.848 16.2153 124.77L16.3208 125.109L16.4263 125.461C16.7943 126.71 16.993 127.969 17.0239 129.234L17.0356 129.586V129.926C17.0675 131.229 16.8799 132.525 16.4731 133.805L16.3677 134.156L16.2505 134.496C15.9989 135.287 16.0198 136.088 16.3442 136.945L16.4849 137.297L16.6138 137.66C16.7516 138.023 16.906 138.184 17.0122 138.258C17.1151 138.329 17.2998 138.403 17.645 138.398L18.0083 138.387H18.3716C19.6084 138.369 20.8188 138.407 21.9927 138.492L22.3442 138.516L22.6841 138.539C23.8112 138.621 24.9436 138.696 26.0708 138.773L26.4224 138.797L26.7622 138.82C27.7241 138.887 28.6922 138.802 29.6685 138.551L30.02 138.457L30.3599 138.363C31.7199 138.012 33.0968 138.002 34.4614 138.316L34.813 138.387L35.1528 138.469C36.1591 138.701 37.1681 138.805 38.1646 138.773L38.5044 138.762L38.856 138.75C39.9338 138.716 41.0113 138.622 42.0903 138.48L42.4419 138.445L42.7817 138.398C43.9443 138.246 45.1107 138.13 46.2739 138.059L46.6255 138.035L46.9653 138.012C48.1839 137.937 49.4045 137.982 50.6216 138.129L50.9731 138.164L51.3247 138.211C52.3248 138.331 53.324 138.321 54.3247 138.188L54.6763 138.141L55.0161 138.094C56.3031 137.922 57.6001 137.962 58.8833 138.199L59.2231 138.258L59.5747 138.328C60.5198 138.503 61.4326 138.487 62.3169 138.305L62.645 138.234L62.9731 138.176C63.2965 138.109 63.4192 138.001 63.4536 137.965C63.4835 137.932 63.5453 137.843 63.5708 137.602L63.6411 136.969C63.7497 135.924 63.8751 134.825 64.0161 133.688L64.063 133.348L64.0981 132.996C64.2418 131.837 64.4225 130.674 64.6372 129.516L64.7075 129.176L64.7661 128.824C64.9468 127.849 64.9808 126.878 64.8599 125.906L64.7661 125.203C64.6262 124.086 64.4718 122.969 64.3091 121.852L64.2622 121.5L64.2153 121.16C64.0434 119.98 63.9337 118.791 63.8872 117.609L63.8755 117.27L63.8638 116.918C63.8155 115.69 63.8893 114.463 64.0864 113.238L64.1333 112.887L64.1919 112.547C64.3504 111.562 64.367 110.576 64.2388 109.594L64.145 108.891C63.9702 107.55 64.087 106.215 64.4731 104.895L64.5669 104.543L64.6724 104.203C64.968 103.192 65.1323 102.187 65.1646 101.191L65.188 100.488C65.222 99.419 65.1841 98.3471 65.0942 97.2773L65.0708 96.9375L65.0474 96.5859C64.9599 95.5443 64.7803 94.4943 64.5083 93.4453L64.4146 93.1055L64.3208 92.7539C63.9921 91.4847 63.8569 90.2053 63.9224 88.9219L63.9458 88.5703L63.9575 88.2188C64.0207 86.9966 64.2009 85.777 64.4966 84.5625L64.5903 84.2109L64.6724 83.8711C64.8876 82.9879 64.8727 82.1098 64.6372 81.2227L64.5435 80.8711L64.4614 80.5312C64.0967 79.1593 64.0833 77.7695 64.4263 76.3945L64.5083 76.043L64.6021 75.6914C64.8461 74.7117 64.9241 73.7401 64.8599 72.7734L64.8481 72.4219L64.8247 72.082C64.7448 70.88 64.7517 69.6744 64.8481 68.4727L64.8716 68.1328L64.895 67.7812C64.98 66.7226 64.9942 65.6638 64.9302 64.6055L64.9067 64.2539L64.895 63.9141C64.8301 62.8416 64.6948 61.7661 64.5083 60.6914L64.4497 60.3398L64.3911 60C64.1704 58.728 64.1428 57.4433 64.2974 56.168L64.3325 55.8281L64.3794 55.4766C64.5133 54.371 64.622 53.2654 64.7075 52.1602L64.731 51.8086L64.7544 51.4688C64.8418 50.3386 64.9334 49.2005 65.0239 48.0703L65.0591 47.7305L65.0825 47.3789C65.1633 46.3683 65.1294 45.3571 64.9771 44.3438L64.9185 43.9922L64.8716 43.6406C64.6901 42.436 64.6046 41.2268 64.6138 40.0195V39.3281C64.6222 38.2227 64.6074 37.1172 64.5669 36.0117L64.5552 35.6602L64.5435 35.3203C64.4993 34.1158 64.5464 32.9024 64.6841 31.6992L64.7192 31.3594L64.7661 31.0078C64.8803 30.0081 64.8619 29.0089 64.7192 28.0078L64.6724 27.6562L64.6255 27.3164C64.4399 26.0154 64.4772 24.7096 64.7427 23.4141L64.813 23.0625L64.8833 22.7227C65.0624 21.8488 65.0191 20.9978 64.7427 20.1562L64.6255 19.8281L64.52 19.4883C64.2274 18.5976 63.8414 18.083 63.4536 17.7891L63.0317 17.4609C62.5992 17.1331 61.9488 16.8764 61.0044 16.7578L60.6646 16.7109L60.313 16.6641C59.2543 16.5312 58.1942 16.471 57.1372 16.4883L56.7974 16.5H56.4458C55.3182 16.5184 54.1867 16.5376 53.0591 16.5586L52.7192 16.5703H52.3677C51.1407 16.5931 49.9105 16.5062 48.688 16.2891L48.3481 16.2188L47.9966 16.1602C46.945 15.9735 45.8923 15.8747 44.8442 15.8555L44.5044 15.8438H44.1528C43.1114 15.8247 42.0684 15.893 41.0239 16.0547L40.6724 16.1016L40.3325 16.1602C39.1923 16.3367 38.051 16.5033 36.9106 16.6523L36.5591 16.6875L36.2192 16.7344C34.9212 16.904 33.6201 16.8522 32.3286 16.582L31.9771 16.5117L31.6372 16.4414C30.6892 16.2431 29.7447 16.2181 28.8013 16.3711L28.0981 16.4883C26.9385 16.6771 25.7781 16.823 24.6177 16.9336L24.2661 16.9688L23.9263 17.0039C22.6682 17.1238 21.4075 17.0817 20.1528 16.875L19.8013 16.8164L19.4614 16.7578C19.1617 16.7084 18.9139 16.6875 18.7231 16.6641C18.6779 16.7028 18.6372 16.7469 18.5942 16.7812C18.3322 16.9907 17.9833 17.2432 17.563 17.5195L17.0474 17.8477C16.8682 17.9658 16.7899 18.0858 16.7427 18.1992C16.6901 18.3268 16.641 18.5518 16.6841 18.9258L16.731 19.2773L16.7661 19.6289C16.9196 20.9431 16.8326 22.2549 16.5083 23.5547L16.4263 23.9062L16.3325 24.2461C16.0743 25.2812 15.9257 26.3131 15.8755 27.3398L15.8521 27.6914L15.8403 28.043C15.7917 29.0506 15.8604 30.0648 16.0513 31.0781L16.1216 31.418L16.1802 31.7695C16.4178 33.0319 16.4848 34.2986 16.3677 35.5664L16.3325 35.918L16.2974 36.2578C16.2054 37.2504 16.2484 38.2489 16.4263 39.2461L16.4966 39.5977L16.5552 39.9375C16.7788 41.1898 16.8399 42.4538 16.7427 43.7109L16.7192 44.0508L16.6841 44.4023C16.5996 45.4958 16.5636 46.5905 16.5552 47.6836L16.5435 48.0352V48.375C16.5351 49.4604 16.576 50.547 16.6606 51.6328L16.6841 51.9844L16.7075 52.3242C16.797 53.4711 16.8709 54.6225 16.9185 55.7695L16.9302 56.1211L16.9419 56.4609C16.9904 57.6319 16.9923 58.8056 16.9419 59.9766L16.9302 60.3164L16.9185 60.668C16.8689 61.8199 16.7871 62.9732 16.6841 64.125L16.6606 64.4766L16.6255 64.8164C16.5309 65.8736 16.5088 66.9356 16.5669 67.9922L16.5903 68.332L16.6021 68.6836C16.6672 69.8698 16.6742 71.0599 16.6021 72.2461L16.5786 72.5859L16.5552 72.9375C16.4889 74.0275 16.4596 75.1173 16.4731 76.207L16.4849 76.5586V76.9102C16.4985 77.9792 16.5696 79.0507 16.7075 80.1211L16.7544 80.4609L16.8013 80.8125C16.9621 82.0606 16.9776 83.3137 16.8364 84.5625L16.7896 84.9023L16.7544 85.2539C16.625 86.3989 16.4682 87.5428 16.2974 88.6875L16.2505 89.0391L16.1919 89.3906C16.0417 90.3999 16.0188 91.4073 16.1099 92.4141L16.145 92.7656L16.1685 93.1055C16.2746 94.2783 16.3307 95.4595 16.3325 96.6328V97.3242Z" fill="#4681FF"/>
<circle cx="14.5" cy="14.5" r="12.5" fill="#4680FF"/>
<path d="M15.0781 0.851562C16.7242 0.598874 18.292 0.922393 19.707 1.80078L20.3867 2.22266C21.523 2.92804 22.6423 3.66823 23.7383 4.44922L24.0781 4.69531L24.4062 4.92969C25.7602 5.89648 26.6742 7.21176 27.1016 8.82031L27.1953 9.20703L27.3008 9.59375C27.6453 10.8906 27.8808 11.9799 27.9688 12.8164L28.0156 13.2617C28.0339 13.4363 28.0472 13.5714 28.0625 13.6719C28.188 13.8538 28.2857 13.9993 28.3086 14.0703C28.3872 14.3172 28.3908 14.5397 28.3906 14.6211C28.3901 14.8219 28.36 15.0351 28.332 15.207C28.2711 15.5806 28.1587 16.1065 28.0039 16.7422L27.8164 17.5156C27.4929 18.8436 27.0587 20.1631 26.5273 21.4766L26.375 21.8633L26.2109 22.25C25.5898 23.7831 24.5731 25.023 23.1875 25.9414L22.4844 26.4102C21.1533 27.2913 19.6914 27.821 18.125 27.9922L17.7266 28.0391L17.3164 28.0859C15.9592 28.2343 14.5873 28.3315 13.2031 28.3906L12.793 28.4141L12.3711 28.4258C10.6128 28.5007 9.05115 27.9178 7.77734 26.7031L7.47266 26.4102L7.16797 26.1289C6.18297 25.1883 5.23126 24.2606 4.30859 23.3516L3.74609 22.7891C2.63111 21.6897 1.88173 20.3647 1.50781 18.8398L1.41406 18.4531L1.30859 18.0664C0.969404 16.682 0.820972 15.2738 0.851562 13.8477L0.863281 13.4492V13.0508C0.896207 11.5183 1.28332 10.0664 2.01172 8.71484L2.21094 8.36328L2.39844 8.01172C3.05977 6.78645 3.83571 5.59951 4.73047 4.47266L4.98828 4.15625L5.24609 3.82812C6.34609 2.4428 7.83003 1.6456 9.59375 1.49609L10.0039 1.46094L10.4258 1.42578C11.7445 1.31388 13.0371 1.16154 14.293 0.96875L14.6797 0.910156L15.0781 0.851562ZM15.5352 3.81641L14.7383 3.93359C13.4124 4.13704 12.0561 4.30845 10.6719 4.42578L10.2617 4.46094L9.83984 4.49609C8.89985 4.57648 8.18498 4.95782 7.60156 5.69141L7.34375 6.01953L7.07422 6.34766C6.28662 7.34013 5.60826 8.36808 5.03516 9.42969L4.66016 10.1328C4.15496 11.0688 3.88596 12.0636 3.86328 13.1211V13.5195L3.85156 13.9062C3.82658 15.0707 3.9498 16.222 4.22656 17.3516L4.41406 18.125C4.65664 19.1144 5.1376 19.949 5.85547 20.6562L6.13672 20.9375L6.41797 21.207C7.32812 22.1038 8.26884 23.0197 9.24219 23.9492L9.85156 24.5352C10.535 25.1853 11.302 25.4772 12.2422 25.4375L12.6641 25.4141L13.0742 25.4023C14.3933 25.346 15.6979 25.2386 16.9883 25.0977L17.3984 25.0625L17.8086 25.0156C18.8869 24.897 19.89 24.5265 20.832 23.9023L21.1836 23.668L21.5352 23.4453C22.4218 22.8572 23.0427 22.0898 23.4336 21.125L23.5859 20.7383L23.75 20.3516C24.2293 19.1667 24.6109 17.9819 24.8984 16.8008L25.0859 16.0273C25.2009 15.555 25.2705 15.194 25.3203 14.9375C25.2643 14.7975 25.2135 14.676 25.1914 14.5859C25.1226 14.3048 25.0668 13.9542 25.0273 13.5781L24.9805 13.1328C24.917 12.5273 24.7378 11.6152 24.4062 10.3672L24.3008 9.98047L24.1953 9.58203C23.9463 8.64904 23.4462 7.92749 22.6602 7.36719L22.0039 6.89844C20.9575 6.15258 19.8886 5.4385 18.8047 4.76562L18.125 4.34375C17.3177 3.84266 16.4738 3.67231 15.5352 3.81641Z" fill="#4680FF"/>
</svg>
