<svg width="57" height="130" viewBox="0 0 57 130" fill="none" xmlns="http://www.w3.org/2000/svg">
<path d="M3.0083 6C3.0083 4.34314 4.35145 3 6.0083 3H51.0083C52.6652 3 54.0083 4.34315 54.0083 6V125C54.0083 126.657 52.6652 128 51.0083 128H6.0083C4.35145 128 3.0083 126.657 3.0083 125V6Z" fill="#323232" fill-opacity="0.3"/>
<path d="M8.0483 3.33628L7.80433 4.8163L8.0483 3.33628ZM12.4751 3.44513L12.3328 1.9519L12.4751 3.44513ZM16.2083 2.95141L15.9671 1.47093L16.2083 2.95141ZM24.3683 3.20586L24.1739 1.71851L24.3683 3.20586ZM24.7151 3.16053L24.9095 4.64788L24.7151 3.16053ZM28.7951 2.56975L28.5656 1.08741L28.7951 2.56975ZM32.5283 2.34511L32.5007 3.84485L32.5283 2.34511ZM36.2615 2.6833L35.9992 4.16019L36.2615 2.6833ZM36.6083 2.74489L36.8706 1.26801L36.6083 2.74489ZM36.9551 2.80649L36.6928 4.28338L36.9551 2.80649ZM40.3415 3.07563L40.3135 1.57589L40.3415 3.07563ZM48.5015 3.17725L48.6884 1.68895L48.5015 3.17725ZM48.8483 3.22081L48.6614 4.70912L48.8483 3.22081ZM49.1951 3.26437L49.382 1.77606L49.1951 3.26437ZM52.361 4.59332L53.2671 3.39792L52.361 4.59332ZM53.9431 7.02124L55.3682 6.55319L53.9431 7.02124ZM54.1632 7.69141L52.7381 8.15946L54.1632 7.69141ZM54.3534 11.0206L55.8229 11.3218L54.3534 11.0206ZM54.2823 11.3674L52.8129 11.0662L54.2823 11.3674ZM54.2112 11.7142L55.6807 12.0154L54.2112 11.7142ZM54.1552 15.4474L55.6401 15.2356L54.1552 15.4474ZM54.2046 15.7942L52.7197 16.006L54.2046 15.7942ZM54.2524 19.1806L55.7427 19.3511L54.2524 19.1806ZM54.1731 19.8742L52.6828 19.7037L54.1731 19.8742ZM54.0414 23.2606L55.5404 23.2057L54.0414 23.2606ZM54.0541 23.6074L52.5551 23.6624L54.0541 23.6074ZM54.0668 23.9542L55.5658 23.8993L54.0668 23.9542ZM54.116 27.3406L52.6161 27.3292L54.116 27.3406ZM54.1134 27.6874L55.6133 27.6988L54.1134 27.6874ZM54.1107 28.0342L52.6108 28.0228L54.1107 28.0342ZM54.3532 31.4206L52.87 31.6443L54.3532 31.4206ZM54.4578 32.1142L55.9411 31.8905L54.4578 32.1142ZM54.5776 35.5006L53.0823 35.3808L54.5776 35.5006ZM54.5498 35.8474L56.045 35.9672L54.5498 35.8474ZM54.522 36.1942L53.0268 36.0744L54.522 36.1942ZM54.2554 39.5806L52.7599 39.465L54.2554 39.5806ZM54.2018 40.2742L55.6973 40.3899L54.2018 40.2742ZM53.8657 43.6606L52.3766 43.4801L53.8657 43.6606ZM53.8236 44.0074L55.3127 44.1879L53.8236 44.0074ZM53.7816 44.3542L52.2925 44.1737L53.7816 44.3542ZM53.8701 47.7406L55.3481 47.4842L53.8701 47.7406ZM53.9303 48.0874L52.4524 48.3439L53.9303 48.0874ZM53.9905 48.4342L55.4684 48.1778L53.9905 48.4342ZM54.3868 51.8206L52.8895 51.9113L54.3868 51.8206ZM54.4078 52.1674L55.905 52.0768L54.4078 52.1674ZM54.4288 52.5142L52.9315 52.6049L54.4288 52.5142ZM54.3954 55.9006L55.8906 56.0207L54.3954 55.9006ZM54.3675 56.2474L52.8723 56.1274L54.3675 56.2474ZM54.3397 56.5942L55.8349 56.7143L54.3397 56.5942ZM54.3163 59.9806L52.8196 60.0801L54.3163 59.9806ZM54.3393 60.3274L55.836 60.2279L54.3393 60.3274ZM54.3624 60.6742L52.8657 60.7737L54.3624 60.6742ZM54.052 64.0606L55.5073 64.4241L54.052 64.0606ZM53.8787 64.7542L52.4235 64.3907L53.8787 64.7542ZM53.906 68.1406L55.3556 67.7552L53.906 68.1406ZM54.0904 68.8342L52.6407 69.2196L54.0904 68.8342ZM54.1279 72.2206L55.5853 72.5758L54.1279 72.2206ZM53.9589 72.9142L52.5016 72.5591L53.9589 72.9142ZM53.4592 76.3006L51.9612 76.2236L53.4592 76.3006ZM53.4414 76.6474L54.9394 76.7245L53.4414 76.6474ZM53.4235 76.9942L51.9255 76.9172L53.4235 76.9942ZM53.7755 80.3806L52.3235 80.7571L53.7755 80.3806ZM53.8654 80.7274L55.3174 80.3509L53.8654 80.7274ZM53.9553 81.0742L52.5033 81.4507L53.9553 81.0742ZM54.5366 84.4606L53.0418 84.5862L54.5366 84.4606ZM54.5657 84.8074L56.0604 84.6819L54.5657 84.8074ZM54.5948 85.1542L56.0896 85.0287L54.5948 85.1542ZM54.6829 88.5406L56.1821 88.5886L54.6829 88.5406ZM54.6607 89.2342L53.1615 89.1863L54.6607 89.2342ZM54.1112 92.6206L55.5509 93.0418L54.1112 92.6206ZM53.9083 93.3142L52.4687 92.8931L53.9083 93.3142ZM53.6347 96.7006L55.122 96.5059L53.6347 96.7006ZM53.6801 97.0474L52.1928 97.2422L53.6801 97.0474ZM53.7255 97.3942L55.2128 97.1995L53.7255 97.3942ZM53.6745 100.781L55.1555 101.019L53.6745 100.781ZM53.6187 101.127L52.1378 100.889L53.6187 101.127ZM53.5629 101.474L55.0438 101.713L53.5629 101.474ZM53.3568 104.861L54.8557 104.802L53.3568 104.861ZM53.3705 105.207L54.8693 105.148L53.3705 105.207ZM53.3841 105.554L51.8853 105.613L53.3841 105.554ZM53.6973 108.941L52.213 109.157L53.6973 108.941ZM53.7478 109.287L55.2322 109.071L53.7478 109.287ZM53.7983 109.634L52.314 109.85L53.7983 109.634ZM54.2568 113.021L52.7685 113.207L54.2568 113.021ZM54.3002 113.367L55.7886 113.181L54.3002 113.367ZM54.3437 113.714L52.8553 113.901L54.3437 113.714ZM54.2416 117.101L55.7164 117.374L54.2416 117.101ZM54.1773 117.447L52.7024 117.174L54.1773 117.447ZM54.113 117.794L55.5878 118.068L54.113 117.794ZM53.5891 121.181L55.0777 121.365L53.5891 121.181ZM53.5461 121.527L52.0575 121.343L53.5461 121.527ZM53.5031 121.874L54.9917 122.059L53.5031 121.874ZM53.132 125.119L54.624 125.274L53.132 125.119ZM53.099 125.437L54.591 125.592L53.099 125.437ZM53.066 125.754L54.5579 125.909L53.066 125.754ZM51.2816 127.64L50.979 126.171L51.2816 127.64ZM50.9491 127.708L51.2517 129.178L50.9491 127.708ZM50.6167 127.777L50.3141 126.308L50.6167 127.777ZM47.3003 127.798L47.5734 126.323L47.3003 127.798ZM46.9535 127.733L46.6803 129.208L46.9535 127.733ZM46.6067 127.669L46.3335 129.144L46.6067 127.669ZM43.2203 127.582L43.0215 126.095L43.2203 127.582ZM42.8735 127.628L43.0723 129.115L42.8735 127.628ZM42.5267 127.675L42.3279 126.188L42.5267 127.675ZM39.1403 127.697L39.3197 126.208L39.1403 127.697ZM38.4467 127.614L38.2672 129.103L38.4467 127.614ZM35.0603 127.514L35.1523 129.011L35.0603 127.514ZM34.7135 127.535L34.6214 126.038L34.7135 127.535ZM34.3667 127.556L34.4587 129.053L34.3667 127.556ZM30.9803 127.882L31.1752 129.37L30.9803 127.882ZM30.6335 127.928L30.4385 126.44L30.6335 127.928ZM30.2867 127.973L30.4816 129.46L30.2867 127.973ZM26.9003 128.248L26.8531 126.749L26.9003 128.248ZM22.8203 127.933L22.4835 129.395L22.8203 127.933ZM22.4735 127.853L22.8102 126.392L22.4735 127.853ZM22.1267 127.774L21.7899 129.235L22.1267 127.774ZM18.7403 127.821L18.3652 126.368L18.7403 127.821ZM18.3935 127.91L18.7685 129.363L18.3935 127.91ZM18.0467 128L17.6716 126.548L18.0467 128ZM14.6603 128.32L14.557 129.817L14.6603 128.32ZM14.3135 128.296L14.4167 126.8L14.3135 128.296ZM13.9667 128.272L13.8634 129.769L13.9667 128.272ZM10.5803 128.033L10.6885 126.537L10.5803 128.033ZM10.2335 128.008L10.1253 129.504L10.2335 128.008ZM9.88666 127.983L9.99486 126.487L9.88666 127.983ZM6.39876 127.887L6.42069 129.387L6.39876 127.887ZM6.03117 127.892L6.00924 126.392L6.03117 127.892ZM5.66358 127.897L5.68552 129.397L5.66358 127.897ZM3.21167 126.187L4.61463 125.656L3.21167 126.187ZM3.07707 125.831L1.67411 126.361L3.07707 125.831ZM2.94246 125.475L4.34541 124.944L2.94246 125.475ZM2.82364 122.045L1.39416 121.59L2.82364 122.045ZM3.04418 121.351L4.47366 121.805L3.04418 121.351ZM3.53263 117.618L2.03308 117.654L3.53263 117.618ZM2.98351 113.885L4.42229 113.46L2.98351 113.885ZM2.77902 113.191L1.34025 113.615L2.77902 113.191ZM2.54363 109.805L4.02575 110.035L2.54363 109.805ZM2.65169 109.111L4.13381 109.342L2.65169 109.111ZM3.21689 105.725L1.7401 105.462L3.21689 105.725ZM3.27862 105.378L4.75541 105.641L3.27862 105.378ZM3.34036 105.031L1.86357 104.768L3.34036 105.031ZM3.61587 101.645L5.11569 101.622L3.61587 101.645ZM3.61056 101.298L2.11074 101.321L3.61056 101.298ZM3.30342 97.5645L1.82295 97.8058L3.30342 97.5645ZM3.24691 97.2177L4.72738 96.9765L3.24691 97.2177ZM3.19039 96.8709L1.70992 97.1122L3.19039 96.8709ZM2.94904 89.0577L1.4513 89.1399L2.94904 89.0577ZM2.93003 88.7109L4.42777 88.6288L2.93003 88.7109ZM2.83398 84.9777L1.33398 84.9801L2.83398 84.9777ZM2.67748 81.2445L1.18359 81.3798L2.67748 81.2445ZM2.64608 80.8977L4.13997 80.7625L2.64608 80.8977ZM2.61468 80.5509L1.12079 80.6862L2.61468 80.5509ZM2.71415 77.1645L4.19771 77.386L2.71415 77.1645ZM2.8177 76.4709L1.33414 76.2495L2.8177 76.4709ZM3.26182 73.0845L1.77131 72.9161L3.26182 73.0845ZM3.34021 72.3909L4.83072 72.5594L3.34021 72.3909ZM3.31337 69.0045L1.82568 69.1962L3.31337 69.0045ZM3.05758 60.8445L1.56035 60.7535L3.05758 60.8445ZM3.07867 60.4977L4.57591 60.5888L3.07867 60.4977ZM3.10965 56.7645L1.61191 56.8469L3.10965 56.7645ZM3.12991 52.6845L4.62394 52.8182L3.12991 52.6845ZM3.16094 52.3377L1.6669 52.2041L3.16094 52.3377ZM3.19197 51.9909L4.686 52.1246L3.19197 51.9909ZM3.43123 48.2577L1.93262 48.1933L3.43123 48.2577ZM3.44881 44.5245L1.95009 44.5867L3.44881 44.5245ZM3.16363 39.7509L1.66817 39.8676L3.16363 39.7509ZM3.0499 35.6709L1.54995 35.6594L3.0499 35.6709ZM3.1939 32.2845L1.69836 32.1689L3.1939 32.2845ZM3.07615 28.2045L1.5995 28.4682L3.07615 28.2045ZM2.87103 23.4309L1.37742 23.2926L2.87103 23.4309ZM2.64355 19.6977L1.16948 19.9754L2.64355 19.6977ZM2.57822 19.3509L4.05229 19.0732L2.57822 19.3509ZM3.05335 11.1909L1.59796 10.8278L3.05335 11.1909ZM3.23651 7.45292L1.74668 7.62725L3.23651 7.45292ZM4.48129 4.43278L3.65747 3.17926L4.48129 4.43278ZM5.98317 3.26761L4.48974 3.12736L5.98317 3.26761ZM5.98682 3.22873L7.48025 3.36898L5.98682 3.22873ZM5.99047 3.18984L4.49704 3.04959L5.99047 3.18984ZM8.0483 3.33628L7.80433 4.8163L8.15113 4.87347L8.3951 3.39344L8.63907 1.91342L8.29227 1.85625L8.0483 3.33628ZM8.3951 3.39344L8.15113 4.87347C9.40642 5.08039 10.665 5.12439 11.9238 5.00446L11.7815 3.51122L11.6392 2.01798C10.6404 2.11316 9.64138 2.07864 8.63907 1.91342L8.3951 3.39344ZM11.7815 3.51122L11.9238 5.00446L12.2706 4.97141L12.1283 3.47818L11.986 1.98494L11.6392 2.01798L11.7815 3.51122ZM12.1283 3.47818L12.2706 4.97141L12.6174 4.93837L12.4751 3.44513L12.3328 1.9519L11.986 1.98494L12.1283 3.47818ZM12.4751 3.44513L12.6174 4.93837C13.7796 4.82763 14.9414 4.67762 16.1027 4.48839L15.8615 3.00792L15.6203 1.52744C14.524 1.70606 13.4282 1.84752 12.3328 1.9519L12.4751 3.44513ZM15.8615 3.00792L16.1027 4.48839L16.4495 4.43189L16.2083 2.95141L15.9671 1.47093L15.6203 1.52744L15.8615 3.00792ZM16.2083 2.95141L16.4495 4.43189L16.7963 4.37538L16.5551 2.8949L16.3139 1.41443L15.9671 1.47093L16.2083 2.95141ZM16.5551 2.8949L16.7963 4.37538C17.7416 4.22136 18.6845 4.24273 19.6344 4.44143L19.9415 2.9732L20.2486 1.50498C18.9409 1.23143 17.6262 1.2006 16.3139 1.41443L16.5551 2.8949ZM19.9415 2.9732L19.6344 4.44143L19.9812 4.51397L20.2883 3.04575L20.5954 1.57752L20.2486 1.50498L19.9415 2.9732ZM20.2883 3.04575L19.9812 4.51397L20.328 4.58651L20.6351 3.11829L20.9422 1.65007L20.5954 1.57752L20.2883 3.04575ZM20.6351 3.11829L20.328 4.58651C21.6195 4.85667 22.9178 4.90818 24.2159 4.73853L24.0215 3.25118L23.8271 1.76383C22.8676 1.88924 21.9083 1.85215 20.9422 1.65007L20.6351 3.11829ZM24.0215 3.25118L24.2159 4.73853L24.5627 4.69321L24.3683 3.20586L24.1739 1.71851L23.8271 1.76383L24.0215 3.25118ZM24.3683 3.20586L24.5627 4.69321L24.9095 4.64788L24.7151 3.16053L24.5207 1.67318L24.1739 1.71851L24.3683 3.20586ZM24.7151 3.16053L24.9095 4.64788C26.05 4.49882 27.1905 4.33601 28.331 4.15946L28.1015 2.67712L27.872 1.19478C26.7549 1.36772 25.6378 1.52719 24.5207 1.67318L24.7151 3.16053ZM28.1015 2.67712L28.331 4.15946L28.6778 4.10578L28.4483 2.62344L28.2188 1.14109L27.872 1.19478L28.1015 2.67712ZM28.4483 2.62344L28.6778 4.10578L29.0246 4.05209L28.7951 2.56975L28.5656 1.08741L28.2188 1.14109L28.4483 2.62344ZM28.7951 2.56975L29.0246 4.05209C30.0694 3.89035 31.1122 3.81934 32.1539 3.83848L32.1815 2.33873L32.2091 0.838988C30.9932 0.816653 29.7784 0.899654 28.5656 1.08741L28.7951 2.56975ZM32.1815 2.33873L32.1539 3.83848L32.5007 3.84485L32.5283 2.34511L32.5559 0.845359L32.2091 0.838988L32.1815 2.33873ZM32.5283 2.34511L32.5007 3.84485L32.8476 3.85122L32.8751 2.35148L32.9027 0.851729L32.5559 0.845359L32.5283 2.34511ZM32.8751 2.35148L32.8476 3.85122C33.8964 3.87049 34.9467 3.97326 35.9992 4.16019L36.2615 2.6833L36.5238 1.20641C35.3187 0.992376 34.1114 0.873934 32.9027 0.851729L32.8751 2.35148ZM36.2615 2.6833L35.9992 4.16019L36.346 4.22178L36.6083 2.74489L36.8706 1.26801L36.5238 1.20641L36.2615 2.6833ZM36.6083 2.74489L36.346 4.22178L36.6928 4.28338L36.9551 2.80649L37.2174 1.3296L36.8706 1.26801L36.6083 2.74489ZM36.9551 2.80649L36.6928 4.28338C37.9159 4.5006 39.1419 4.59826 40.3695 4.57537L40.3415 3.07563L40.3135 1.57589C39.2835 1.5951 38.2519 1.51333 37.2174 1.3296L36.9551 2.80649ZM40.3415 3.07563L40.3695 4.57537L40.7163 4.5689L40.6883 3.06917L40.6603 1.56943L40.3135 1.57589L40.3415 3.07563ZM40.6883 3.06917L40.7163 4.5689L41.0631 4.56244L41.0351 3.0627L41.0071 1.56296L40.6603 1.56943L40.6883 3.06917ZM41.0351 3.0627L41.0631 4.56244C42.1907 4.54141 43.3183 4.5217 44.446 4.50332L44.4215 3.00352L44.397 1.50372C43.2671 1.52214 42.1371 1.54189 41.0071 1.56296L41.0351 3.0627ZM44.4215 3.00352L44.446 4.50332L44.7928 4.49766L44.7683 2.99786L44.7438 1.49806L44.397 1.50372L44.4215 3.00352ZM44.7683 2.99786L44.7928 4.49766L45.1396 4.49201L45.1151 2.99221L45.0906 1.49241L44.7438 1.49806L44.7683 2.99786ZM45.1151 2.99221L45.1396 4.49201C46.1972 4.47476 47.2553 4.53253 48.3146 4.66556L48.5015 3.17725L48.6884 1.68895C47.4901 1.53844 46.2906 1.47284 45.0906 1.49241L45.1151 2.99221ZM48.5015 3.17725L48.3146 4.66556L48.6614 4.70912L48.8483 3.22081L49.0352 1.7325L48.6884 1.68895L48.5015 3.17725ZM48.8483 3.22081L48.6614 4.70912L49.0082 4.75267L49.1951 3.26437L49.382 1.77606L49.0352 1.7325L48.8483 3.22081ZM49.1951 3.26437L49.0082 4.75267C49.9525 4.87128 50.5944 5.13649 51.027 5.46433L51.933 4.26893L52.8391 3.07353C51.8787 2.34549 50.6953 1.94099 49.382 1.77606L49.1951 3.26437ZM51.933 4.26893L51.027 5.46433L51.2409 5.62653L52.147 4.43113L53.0531 3.23572L52.8391 3.07353L51.933 4.26893ZM52.147 4.43113L51.2409 5.62653L51.4549 5.78873L52.361 4.59332L53.2671 3.39792L53.0531 3.23572L52.147 4.43113ZM52.361 4.59332L51.4549 5.78873C51.8428 6.08272 52.2254 6.59838 52.518 7.48929L53.9431 7.02124L55.3682 6.55319C54.9444 5.26276 54.2723 4.1598 53.2671 3.39792L52.361 4.59332ZM53.9431 7.02124L52.518 7.48929L52.628 7.82437L54.0531 7.35633L55.4782 6.88828L55.3682 6.55319L53.9431 7.02124ZM54.0531 7.35633L52.628 7.82437L52.7381 8.15946L54.1632 7.69141L55.5883 7.22337L55.4782 6.88828L54.0531 7.35633ZM54.1632 7.69141L52.7381 8.15946C53.0145 9.00098 53.0631 9.84551 52.884 10.7194L54.3534 11.0206L55.8229 11.3218C56.1065 9.93813 56.0283 8.56319 55.5883 7.22337L54.1632 7.69141ZM54.3534 11.0206L52.884 10.7194L52.8129 11.0662L54.2823 11.3674L55.7518 11.6686L55.8229 11.3218L54.3534 11.0206ZM54.2823 11.3674L52.8129 11.0662L52.7418 11.413L54.2112 11.7142L55.6807 12.0154L55.7518 11.6686L54.2823 11.3674ZM54.2112 11.7142L52.7418 11.413C52.4762 12.7088 52.4351 14.0112 52.6207 15.3124L54.1057 15.1006L55.5907 14.8888C55.4542 13.9325 55.4835 12.9772 55.6807 12.0154L54.2112 11.7142ZM54.1057 15.1006L52.6207 15.3124L52.6702 15.6592L54.1552 15.4474L55.6401 15.2356L55.5907 14.8888L54.1057 15.1006ZM54.1552 15.4474L52.6702 15.6592L52.7197 16.006L54.2046 15.7942L55.6896 15.5824L55.6401 15.2356L54.1552 15.4474ZM54.2046 15.7942L52.7197 16.006C52.8627 17.0086 52.8767 18.0089 52.7621 19.0101L54.2524 19.1806L55.7427 19.3511C55.8865 18.0947 55.8686 16.8374 55.6896 15.5824L54.2046 15.7942ZM54.2524 19.1806L52.7621 19.0101L52.7225 19.3569L54.2127 19.5274L55.703 19.6979L55.7427 19.3511L54.2524 19.1806ZM54.2127 19.5274L52.7225 19.3569L52.6828 19.7037L54.1731 19.8742L55.6633 20.0447L55.703 19.6979L54.2127 19.5274ZM54.1731 19.8742L52.6828 19.7037C52.5451 20.9069 52.4982 22.1111 52.5424 23.3156L54.0414 23.2606L55.5404 23.2057C55.5018 22.1526 55.5427 21.0991 55.6633 20.0447L54.1731 19.8742ZM54.0414 23.2606L52.5424 23.3156L52.5551 23.6624L54.0541 23.6074L55.5531 23.5525L55.5404 23.2057L54.0414 23.2606ZM54.0541 23.6074L52.5551 23.6624L52.5678 24.0092L54.0668 23.9542L55.5658 23.8993L55.5531 23.5525L54.0541 23.6074ZM54.0668 23.9542L52.5678 24.0092C52.6084 25.1159 52.6245 26.2226 52.6161 27.3292L54.116 27.3406L55.616 27.352C55.6247 26.2011 55.608 25.0502 55.5658 23.8993L54.0668 23.9542ZM54.116 27.3406L52.6161 27.3292L52.6134 27.676L54.1134 27.6874L55.6133 27.6988L55.616 27.352L54.116 27.3406ZM54.1134 27.6874L52.6134 27.676L52.6108 28.0228L54.1107 28.0342L55.6107 28.0456L55.6133 27.6988L54.1134 27.6874ZM54.1107 28.0342L52.6108 28.0228C52.6016 29.2312 52.6882 30.4386 52.87 31.6443L54.3532 31.4206L55.8365 31.1969C55.6778 30.1451 55.6027 29.0949 55.6107 28.0456L54.1107 28.0342ZM54.3532 31.4206L52.87 31.6443L52.9223 31.9911L54.4055 31.7674L55.8888 31.5437L55.8365 31.1969L54.3532 31.4206ZM54.4055 31.7674L52.9223 31.9911L52.9746 32.3379L54.4578 32.1142L55.9411 31.8905L55.8888 31.5437L54.4055 31.7674ZM54.4578 32.1142L52.9746 32.3379C53.1278 33.354 53.1635 34.3675 53.0823 35.3808L54.5776 35.5006L56.0728 35.6204C56.1724 34.3761 56.1283 33.1321 55.9411 31.8905L54.4578 32.1142ZM54.5776 35.5006L53.0823 35.3808L53.0546 35.7276L54.5498 35.8474L56.045 35.9672L56.0728 35.6204L54.5776 35.5006ZM54.5498 35.8474L53.0546 35.7276L53.0268 36.0744L54.522 36.1942L56.0172 36.314L56.045 35.9672L54.5498 35.8474ZM54.522 36.1942L53.0268 36.0744C52.9362 37.2046 52.8473 38.3348 52.7599 39.465L54.2554 39.5806L55.751 39.6963C55.8381 38.5688 55.9269 37.4414 56.0172 36.314L54.522 36.1942ZM54.2554 39.5806L52.7599 39.465L52.7331 39.8118L54.2286 39.9274L55.7242 40.0431L55.751 39.6963L54.2554 39.5806ZM54.2286 39.9274L52.7331 39.8118L52.7063 40.1586L54.2018 40.2742L55.6973 40.3899L55.7242 40.0431L54.2286 39.9274ZM54.2018 40.2742L52.7063 40.1586C52.6207 41.2656 52.5108 42.3728 52.3766 43.4801L53.8657 43.6606L55.3548 43.8411C55.4942 42.6908 55.6084 41.5404 55.6973 40.3899L54.2018 40.2742ZM53.8657 43.6606L52.3766 43.4801L52.3345 43.8269L53.8236 44.0074L55.3127 44.1879L55.3548 43.8411L53.8657 43.6606ZM53.8236 44.0074L52.3345 43.8269L52.2925 44.1737L53.7816 44.3542L55.2707 44.5347L55.3127 44.1879L53.8236 44.0074ZM53.7816 44.3542L52.2925 44.1737C52.1379 45.449 52.1715 46.725 52.3922 47.9971L53.8701 47.7406L55.3481 47.4842C55.177 46.4986 55.1516 45.517 55.2707 44.5347L53.7816 44.3542ZM53.8701 47.7406L52.3922 47.9971L52.4524 48.3439L53.9303 48.0874L55.4082 47.831L55.3481 47.4842L53.8701 47.7406ZM53.9303 48.0874L52.4524 48.3439L52.5126 48.6907L53.9905 48.4342L55.4684 48.1778L55.4082 47.831L53.9303 48.0874ZM53.9905 48.4342L52.5126 48.6907C52.699 49.7653 52.8246 50.8388 52.8895 51.9113L54.3868 51.8206L55.884 51.73C55.8123 50.5449 55.6737 49.3607 55.4684 48.1778L53.9905 48.4342ZM54.3868 51.8206L52.8895 51.9113L52.9105 52.2581L54.4078 52.1674L55.905 52.0768L55.884 51.73L54.3868 51.8206ZM54.4078 52.1674L52.9105 52.2581L52.9315 52.6049L54.4288 52.5142L55.926 52.4236L55.905 52.0768L54.4078 52.1674ZM54.4288 52.5142L52.9315 52.6049C52.9956 53.6634 52.9852 54.7218 52.9002 55.7806L54.3954 55.9006L55.8906 56.0207C55.9868 54.8219 55.9986 53.6227 55.926 52.4236L54.4288 52.5142ZM54.3954 55.9006L52.9002 55.7806L52.8723 56.1274L54.3675 56.2474L55.8627 56.3675L55.8906 56.0207L54.3954 55.9006ZM54.3675 56.2474L52.8723 56.1274L52.8445 56.4742L54.3397 56.5942L55.8349 56.7143L55.8627 56.3675L54.3675 56.2474ZM54.3397 56.5942L52.8445 56.4742C52.748 57.6759 52.7397 58.8781 52.8196 60.0801L54.3163 59.9806L55.813 59.8811C55.7428 58.8255 55.7501 57.7701 55.8349 56.7143L54.3397 56.5942ZM54.3163 59.9806L52.8196 60.0801L52.8426 60.4269L54.3393 60.3274L55.836 60.2279L55.813 59.8811L54.3163 59.9806ZM54.3393 60.3274L52.8426 60.4269L52.8657 60.7737L54.3624 60.6742L55.8591 60.5747L55.836 60.2279L54.3393 60.3274ZM54.3624 60.6742L52.8657 60.7737C52.9301 61.7425 52.842 62.7152 52.5967 63.6971L54.052 64.0606L55.5073 64.4241C55.8259 63.1484 55.9448 61.8635 55.8591 60.5747L54.3624 60.6742ZM54.052 64.0606L52.5967 63.6971L52.5101 64.0439L53.9654 64.4074L55.4207 64.7709L55.5073 64.4241L54.052 64.0606ZM53.9654 64.4074L52.5101 64.0439L52.4235 64.3907L53.8787 64.7542L55.334 65.1177L55.4207 64.7709L53.9654 64.4074ZM53.8787 64.7542L52.4235 64.3907C52.0798 65.7666 52.0913 67.1531 52.4563 68.526L53.906 68.1406L55.3556 67.7552C55.1204 66.8706 55.1138 65.9994 55.334 65.1177L53.8787 64.7542ZM53.906 68.1406L52.4563 68.526L52.5485 68.8728L53.9982 68.4874L55.4478 68.102L55.3556 67.7552L53.906 68.1406ZM53.9982 68.4874L52.5485 68.8728L52.6407 69.2196L54.0904 68.8342L55.54 68.4488L55.4478 68.102L53.9982 68.4874ZM54.0904 68.8342L52.6407 69.2196C52.8768 70.1075 52.886 70.9817 52.6706 71.8655L54.1279 72.2206L55.5853 72.5758C55.9201 71.202 55.9042 69.8186 55.54 68.4488L54.0904 68.8342ZM54.1279 72.2206L52.6706 71.8655L52.5861 72.2123L54.0434 72.5674L55.5008 72.9226L55.5853 72.5758L54.1279 72.2206ZM54.0434 72.5674L52.5861 72.2123L52.5016 72.5591L53.9589 72.9142L55.4163 73.2694L55.5008 72.9226L54.0434 72.5674ZM53.9589 72.9142L52.5016 72.5591C52.2049 73.7766 52.0242 74.9984 51.9612 76.2236L53.4592 76.3006L54.9572 76.3777C55.0103 75.3452 55.1628 74.3095 55.4163 73.2694L53.9589 72.9142ZM53.4592 76.3006L51.9612 76.2236L51.9433 76.5704L53.4414 76.6474L54.9394 76.7245L54.9572 76.3777L53.4592 76.3006ZM53.4414 76.6474L51.9433 76.5704L51.9255 76.9172L53.4235 76.9942L54.9216 77.0713L54.9394 76.7245L53.4414 76.6474ZM53.4235 76.9942L51.9255 76.9172C51.8594 78.2034 51.9937 79.4851 52.3235 80.7571L53.7755 80.3806L55.2275 80.0041C54.9719 79.0186 54.8716 78.0426 54.9216 77.0713L53.4235 76.9942ZM53.7755 80.3806L52.3235 80.7571L52.4134 81.1039L53.8654 80.7274L55.3174 80.3509L55.2275 80.0041L53.7755 80.3806ZM53.8654 80.7274L52.4134 81.1039L52.5033 81.4507L53.9553 81.0742L55.4073 80.6977L55.3174 80.3509L53.8654 80.7274ZM53.9553 81.0742L52.5033 81.4507C52.7753 82.4996 52.9543 83.5445 53.0418 84.5862L54.5366 84.4606L56.0313 84.3351C55.9291 83.1191 55.7207 81.9064 55.4073 80.6977L53.9553 81.0742ZM54.5366 84.4606L53.0418 84.5862L53.071 84.933L54.5657 84.8074L56.0604 84.6819L56.0313 84.3351L54.5366 84.4606ZM54.5657 84.8074L53.071 84.933L53.1001 85.2798L54.5948 85.1542L56.0896 85.0287L56.0604 84.6819L54.5657 84.8074ZM54.5948 85.1542L53.1001 85.2798C53.1901 86.3511 53.2179 87.4219 53.1837 88.4927L54.6829 88.5406L56.1821 88.5886C56.2201 87.4017 56.1892 86.215 56.0896 85.0287L54.5948 85.1542ZM54.6829 88.5406L53.1837 88.4927L53.1726 88.8395L54.6718 88.8874L56.1711 88.9354L56.1821 88.5886L54.6829 88.5406ZM54.6718 88.8874L53.1726 88.8395L53.1615 89.1863L54.6607 89.2342L56.16 89.2822L56.1711 88.9354L54.6718 88.8874ZM54.6607 89.2342L53.1615 89.1863C53.1296 90.1835 52.9678 91.187 52.6716 92.1995L54.1112 92.6206L55.5509 93.0418C55.9152 91.7966 56.1196 90.5425 56.16 89.2822L54.6607 89.2342ZM54.1112 92.6206L52.6716 92.1995L52.5701 92.5463L54.0098 92.9674L55.4494 93.3886L55.5509 93.0418L54.1112 92.6206ZM54.0098 92.9674L52.5701 92.5463L52.4687 92.8931L53.9083 93.3142L55.348 93.7354L55.4494 93.3886L54.0098 92.9674ZM53.9083 93.3142L52.4687 92.8931C52.082 94.2149 51.9717 95.5533 52.1474 96.8954L53.6347 96.7006L55.122 96.5059C55.0021 95.5903 55.0742 94.6712 55.348 93.7354L53.9083 93.3142ZM53.6347 96.7006L52.1474 96.8954L52.1928 97.2422L53.6801 97.0474L55.1674 96.8527L55.122 96.5059L53.6347 96.7006ZM53.6801 97.0474L52.1928 97.2422L52.2382 97.589L53.7255 97.3942L55.2128 97.1995L55.1674 96.8527L53.6801 97.0474ZM53.7255 97.3942L52.2382 97.589C52.3671 98.5732 52.3524 99.556 52.1936 100.542L53.6745 100.781L55.1555 101.019C55.3602 99.7476 55.3796 98.4729 55.2128 97.1995L53.7255 97.3942ZM53.6745 100.781L52.1936 100.542L52.1378 100.889L53.6187 101.127L55.0996 101.366L55.1555 101.019L53.6745 100.781ZM53.6187 101.127L52.1378 100.889L52.0819 101.236L53.5629 101.474L55.0438 101.713L55.0996 101.366L53.6187 101.127ZM53.5629 101.474L52.0819 101.236C51.8845 102.462 51.8096 103.69 51.858 104.92L53.3568 104.861L54.8557 104.802C54.8152 103.774 54.8776 102.744 55.0438 101.713L53.5629 101.474ZM53.3568 104.861L51.858 104.92L51.8716 105.266L53.3705 105.207L54.8693 105.148L54.8557 104.802L53.3568 104.861ZM53.3705 105.207L51.8716 105.266L51.8853 105.613L53.3841 105.554L54.8829 105.495L54.8693 105.148L53.3705 105.207ZM53.3841 105.554L51.8853 105.613C51.9318 106.795 52.0411 107.976 52.213 109.157L53.6973 108.941L55.1817 108.724C55.0248 107.647 54.9253 106.571 54.8829 105.495L53.3841 105.554ZM53.6973 108.941L52.213 109.157L52.2635 109.504L53.7478 109.287L55.2322 109.071L55.1817 108.724L53.6973 108.941ZM53.7478 109.287L52.2635 109.504L52.314 109.85L53.7983 109.634L55.2827 109.418L55.2322 109.071L53.7478 109.287ZM53.7983 109.634L52.314 109.85C52.4769 110.969 52.6284 112.088 52.7685 113.207L54.2568 113.021L55.7452 112.834C55.6027 111.696 55.4485 110.557 55.2827 109.418L53.7983 109.634ZM54.2568 113.021L52.7685 113.207L52.8119 113.554L54.3002 113.367L55.7886 113.181L55.7452 112.834L54.2568 113.021ZM54.3002 113.367L52.8119 113.554L52.8553 113.901L54.3437 113.714L55.832 113.528L55.7886 113.181L54.3002 113.367ZM54.3437 113.714L52.8553 113.901C52.9772 114.875 52.9482 115.849 52.7667 116.827L54.2416 117.101L55.7164 117.374C55.9536 116.095 55.9927 114.811 55.832 113.528L54.3437 113.714ZM54.2416 117.101L52.7667 116.827L52.7024 117.174L54.1773 117.447L55.6521 117.721L55.7164 117.374L54.2416 117.101ZM54.1773 117.447L52.7024 117.174L52.6381 117.521L54.113 117.794L55.5878 118.068L55.6521 117.721L54.1773 117.447ZM54.113 117.794L52.6381 117.521C52.4234 118.679 52.2441 119.837 52.1005 120.996L53.5891 121.181L55.0777 121.365C55.2139 120.266 55.3839 119.167 55.5878 118.068L54.113 117.794ZM53.5891 121.181L52.1005 120.996L52.0575 121.343L53.5461 121.527L55.0347 121.712L55.0777 121.365L53.5891 121.181ZM53.5461 121.527L52.0575 121.343L52.0145 121.69L53.5031 121.874L54.9917 122.059L55.0347 121.712L53.5461 121.527ZM53.5031 121.874L52.0145 121.69C51.8735 122.827 51.7486 123.919 51.64 124.964L53.132 125.119L54.624 125.274C54.7303 124.25 54.8529 123.179 54.9917 122.059L53.5031 121.874ZM53.132 125.119L51.64 124.964L51.607 125.281L53.099 125.437L54.591 125.592L54.624 125.274L53.132 125.119ZM53.099 125.437L51.607 125.281L51.574 125.599L53.066 125.754L54.5579 125.909L54.591 125.592L53.099 125.437ZM53.066 125.754L51.574 125.599C51.5473 125.856 51.4773 125.941 51.4498 125.97C51.4153 126.007 51.3023 126.104 50.979 126.171L51.2816 127.64L51.5842 129.109C52.343 128.953 53.0684 128.625 53.6288 128.032C54.1961 127.433 54.4772 126.686 54.5579 125.909L53.066 125.754ZM51.2816 127.64L50.979 126.171L50.6465 126.239L50.9491 127.708L51.2517 129.178L51.5842 129.109L51.2816 127.64ZM50.9491 127.708L50.6465 126.239L50.3141 126.308L50.6167 127.777L50.9193 129.246L51.2517 129.178L50.9491 127.708ZM50.6167 127.777L50.3141 126.308C49.4291 126.49 48.5193 126.498 47.5734 126.323L47.3003 127.798L47.0271 129.273C48.3388 129.515 49.64 129.51 50.9193 129.246L50.6167 127.777ZM47.3003 127.798L47.5734 126.323L47.2266 126.258L46.9535 127.733L46.6803 129.208L47.0271 129.273L47.3003 127.798ZM46.9535 127.733L47.2266 126.258L46.8798 126.194L46.6067 127.669L46.3335 129.144L46.6803 129.208L46.9535 127.733ZM46.6067 127.669L46.8798 126.194C45.5966 125.957 44.3085 125.923 43.0215 126.095L43.2203 127.582L43.4191 129.069C44.3896 128.939 45.3591 128.964 46.3335 129.144L46.6067 127.669ZM43.2203 127.582L43.0215 126.095L42.6746 126.142L42.8735 127.628L43.0723 129.115L43.4191 129.069L43.2203 127.582ZM42.8735 127.628L42.6746 126.142L42.3279 126.188L42.5267 127.675L42.7255 129.162L43.0723 129.115L42.8735 127.628ZM42.5267 127.675L42.3279 126.188C41.3243 126.322 40.3226 126.329 39.3197 126.208L39.1403 127.697L38.9608 129.186C40.2155 129.338 41.4714 129.329 42.7255 129.162L42.5267 127.675ZM39.1403 127.697L39.3197 126.208L38.9729 126.166L38.7935 127.655L38.614 129.145L38.9608 129.186L39.1403 127.697ZM38.7935 127.655L38.9729 126.166L38.6261 126.124L38.4467 127.614L38.2672 129.103L38.614 129.145L38.7935 127.655ZM38.4467 127.614L38.6261 126.124C37.4077 125.977 36.1881 125.941 34.9682 126.016L35.0603 127.514L35.1523 129.011C36.1901 128.947 37.228 128.978 38.2672 129.103L38.4467 127.614ZM35.0603 127.514L34.9682 126.016L34.6214 126.038L34.7135 127.535L34.8055 129.032L35.1523 129.011L35.0603 127.514ZM34.7135 127.535L34.6214 126.038L34.2746 126.059L34.3667 127.556L34.4587 129.053L34.8055 129.032L34.7135 127.535ZM34.3667 127.556L34.2746 126.059C33.1112 126.131 31.9481 126.243 30.7853 126.395L30.9803 127.882L31.1752 129.37C32.2701 129.226 33.3645 129.121 34.4587 129.053L34.3667 127.556ZM30.9803 127.882L30.7853 126.395L30.4385 126.44L30.6335 127.928L30.8284 129.415L31.1752 129.37L30.9803 127.882ZM30.6335 127.928L30.4385 126.44L30.0917 126.486L30.2867 127.973L30.4816 129.46L30.8284 129.415L30.6335 127.928ZM30.2867 127.973L30.0917 126.486C29.0116 126.627 27.9321 126.715 26.8531 126.749L26.9003 128.248L26.9474 129.748C28.126 129.711 29.3042 129.615 30.4816 129.46L30.2867 127.973ZM26.9003 128.248L26.8531 126.749L26.5063 126.76L26.5535 128.259L26.6006 129.759L26.9474 129.748L26.9003 128.248ZM26.5535 128.259L26.5063 126.76L26.1595 126.771L26.2067 128.27L26.2538 129.769L26.6006 129.759L26.5535 128.259ZM26.2067 128.27L26.1595 126.771C25.163 126.802 24.1632 126.703 23.157 126.472L22.8203 127.933L22.4835 129.395C23.7349 129.683 24.9927 129.809 26.2538 129.769L26.2067 128.27ZM22.8203 127.933L23.157 126.472L22.8102 126.392L22.4735 127.853L22.1367 129.315L22.4835 129.395L22.8203 127.933ZM22.4735 127.853L22.8102 126.392L22.4634 126.312L22.1267 127.774L21.7899 129.235L22.1367 129.315L22.4735 127.853ZM22.1267 127.774L22.4634 126.312C21.0984 125.997 19.7255 126.017 18.3652 126.368L18.7403 127.821L19.1153 129.273C20.0126 129.041 20.8973 129.03 21.7899 129.235L22.1267 127.774ZM18.7403 127.821L18.3652 126.368L18.0184 126.458L18.3935 127.91L18.7685 129.363L19.1153 129.273L18.7403 127.821ZM18.3935 127.91L18.0184 126.458L17.6716 126.548L18.0467 128L18.4217 129.452L18.7685 129.363L18.3935 127.91ZM18.0467 128L17.6716 126.548C16.6941 126.8 15.7267 126.89 14.7635 126.824L14.6603 128.32L14.557 129.817C15.8514 129.906 17.1417 129.783 18.4217 129.452L18.0467 128ZM14.6603 128.32L14.7635 126.824L14.4167 126.8L14.3135 128.296L14.2102 129.793L14.557 129.817L14.6603 128.32ZM14.3135 128.296L14.4167 126.8L14.0699 126.776L13.9667 128.272L13.8634 129.769L14.2102 129.793L14.3135 128.296ZM13.9667 128.272L14.0699 126.776C12.9428 126.698 11.8156 126.618 10.6885 126.537L10.5803 128.033L10.4721 129.529C11.6025 129.611 12.7329 129.691 13.8634 129.769L13.9667 128.272ZM10.5803 128.033L10.6885 126.537L10.3417 126.512L10.2335 128.008L10.1253 129.504L10.4721 129.529L10.5803 128.033ZM10.2335 128.008L10.3417 126.512L9.99486 126.487L9.88666 127.983L9.77846 129.479L10.1253 129.504L10.2335 128.008ZM9.88666 127.983L9.99486 126.487C8.82037 126.402 7.61425 126.369 6.37683 126.387L6.39876 127.887L6.42069 129.387C7.5762 129.37 8.69534 129.401 9.77846 129.479L9.88666 127.983ZM6.39876 127.887L6.37683 126.387L6.00924 126.392L6.03117 127.892L6.05311 129.392L6.42069 129.387L6.39876 127.887ZM6.03117 127.892L6.00924 126.392L5.64165 126.398L5.66358 127.897L5.68552 129.397L6.05311 129.392L6.03117 127.892ZM5.66358 127.897L5.64165 126.398C5.2933 126.403 5.11403 126.324 5.01163 126.253C4.90508 126.178 4.75286 126.021 4.61463 125.656L3.21167 126.187L1.80872 126.717C2.10863 127.51 2.58413 128.217 3.29488 128.713C4.00978 129.212 4.8374 129.41 5.68552 129.397L5.66358 127.897ZM3.21167 126.187L4.61463 125.656L4.48002 125.3L3.07707 125.831L1.67411 126.361L1.80872 126.717L3.21167 126.187ZM3.07707 125.831L4.48002 125.3L4.34541 124.944L2.94246 125.475L1.5395 126.006L1.67411 126.361L3.07707 125.831ZM2.94246 125.475L4.34541 124.944C4.021 124.087 4.00148 123.29 4.25311 122.499L2.82364 122.045L1.39416 121.59C0.927938 123.056 0.98763 124.547 1.5395 126.006L2.94246 125.475ZM2.82364 122.045L4.25311 122.499L4.36339 122.152L2.93391 121.698L1.50444 121.243L1.39416 121.59L2.82364 122.045ZM2.93391 121.698L4.36339 122.152L4.47366 121.805L3.04418 121.351L1.61471 120.896L1.50444 121.243L2.93391 121.698ZM3.04418 121.351L4.47366 121.805C4.88056 120.526 5.07258 119.231 5.04067 117.928L3.54112 117.965L2.04157 118.001C2.06493 118.956 1.92566 119.918 1.61471 120.896L3.04418 121.351ZM3.54112 117.965L5.04067 117.928L5.03218 117.581L3.53263 117.618L2.03308 117.654L2.04157 118.001L3.54112 117.965ZM3.53263 117.618L5.03218 117.581L5.02369 117.234L3.52414 117.271L2.02459 117.308L2.03308 117.654L3.53263 117.618ZM3.52414 117.271L5.02369 117.234C4.99271 115.969 4.79063 114.71 4.42229 113.46L2.98351 113.885L1.54473 114.309C1.84196 115.317 2.0003 116.316 2.02459 117.308L3.52414 117.271ZM2.98351 113.885L4.42229 113.46L4.32004 113.114L2.88127 113.538L1.44249 113.962L1.54473 114.309L2.98351 113.885ZM2.88127 113.538L4.32004 113.114L4.2178 112.767L2.77902 113.191L1.34025 113.615L1.44249 113.962L2.88127 113.538ZM2.77902 113.191L4.2178 112.767C3.94571 111.844 3.88503 110.939 4.02575 110.035L2.54363 109.805L1.06151 109.574C0.850508 110.928 0.946762 112.28 1.34025 113.615L2.77902 113.191ZM2.54363 109.805L4.02575 110.035L4.07978 109.689L2.59766 109.458L1.11554 109.227L1.06151 109.574L2.54363 109.805ZM2.59766 109.458L4.07978 109.689L4.13381 109.342L2.65169 109.111L1.16956 108.88L1.11554 109.227L2.59766 109.458ZM2.65169 109.111L4.13381 109.342C4.30799 108.224 4.49461 107.106 4.69367 105.987L3.21689 105.725L1.7401 105.462C1.53727 106.601 1.34709 107.741 1.16956 108.88L2.65169 109.111ZM3.21689 105.725L4.69367 105.987L4.75541 105.641L3.27862 105.378L1.80184 105.115L1.7401 105.462L3.21689 105.725ZM3.27862 105.378L4.75541 105.641L4.81714 105.294L3.34036 105.031L1.86357 104.768L1.80184 105.115L3.27862 105.378ZM3.34036 105.031L4.81714 105.294C5.03461 104.072 5.13445 102.848 5.11569 101.622L3.61587 101.645L2.11604 101.667C2.13182 102.699 2.04799 103.732 1.86357 104.768L3.34036 105.031ZM3.61587 101.645L5.11569 101.622L5.11039 101.275L3.61056 101.298L2.11074 101.321L2.11604 101.667L3.61587 101.645ZM3.61056 101.298L5.11039 101.275L5.10508 100.928L3.60526 100.951L2.10543 100.974L2.11074 101.321L3.61056 101.298ZM3.60526 100.951L5.10508 100.928C5.08668 99.7251 4.97946 98.5233 4.78389 97.3233L3.30342 97.5645L1.82295 97.8058C1.9953 98.8633 2.0893 99.9192 2.10543 100.974L3.60526 100.951ZM3.30342 97.5645L4.78389 97.3233L4.72738 96.9765L3.24691 97.2177L1.76644 97.459L1.82295 97.8058L3.30342 97.5645ZM3.24691 97.2177L4.72738 96.9765L4.67086 96.6297L3.19039 96.8709L1.70992 97.1122L1.76644 97.459L3.24691 97.2177ZM3.19039 96.8709L4.67086 96.6297C4.5026 95.5971 4.43734 94.5672 4.47428 93.5383L2.97524 93.4845L1.47621 93.4307C1.4321 94.6595 1.51028 95.8871 1.70992 97.1122L3.19039 96.8709ZM2.97524 93.4845L4.47428 93.5383L4.48673 93.1915L2.98769 93.1377L1.48866 93.0839L1.47621 93.4307L2.97524 93.4845ZM2.98769 93.1377L4.48673 93.1915L4.49918 92.8447L3.00014 92.7909L1.50111 92.7371L1.48866 93.0839L2.98769 93.1377ZM3.00014 92.7909L4.49918 92.8447C4.54132 91.6706 4.5302 90.4964 4.46581 89.3224L2.96806 89.4045L1.47031 89.4867C1.52974 90.5702 1.54 91.6537 1.50111 92.7371L3.00014 92.7909ZM2.96806 89.4045L4.46581 89.3224L4.44679 88.9756L2.94904 89.0577L1.4513 89.1399L1.47031 89.4867L2.96806 89.4045ZM2.94904 89.0577L4.44679 88.9756L4.42777 88.6288L2.93003 88.7109L1.43228 88.7931L1.4513 89.1399L2.94904 89.0577ZM2.93003 88.7109L4.42777 88.6288C4.36732 87.5265 4.33624 86.4243 4.33452 85.3222L2.83452 85.3245L1.33452 85.3269C1.33633 86.4823 1.36891 87.6377 1.43228 88.7931L2.93003 88.7109ZM2.83452 85.3245L4.33452 85.3222L4.33398 84.9754L2.83398 84.9777L1.33398 84.9801L1.33452 85.3269L2.83452 85.3245ZM2.83398 84.9777L4.33398 84.9754L4.33343 84.6286L2.83344 84.6309L1.33344 84.6333L1.33398 84.9801L2.83398 84.9777ZM2.83344 84.6309L4.33343 84.6286C4.3316 83.4552 4.27756 82.2821 4.17137 81.1093L2.67748 81.2445L1.18359 81.3798C1.28181 82.4646 1.33174 83.549 1.33344 84.6333L2.83344 84.6309ZM2.67748 81.2445L4.17137 81.1093L4.13997 80.7625L2.64608 80.8977L1.15219 81.033L1.18359 81.3798L2.67748 81.2445ZM2.64608 80.8977L4.13997 80.7625L4.10857 80.4157L2.61468 80.5509L1.12079 80.6862L1.15219 81.033L2.64608 80.8977ZM2.61468 80.5509L4.10857 80.4157C4.01721 79.4066 4.0467 78.3976 4.19771 77.386L2.71415 77.1645L1.23059 76.9431C1.04457 78.1891 1.00775 79.4377 1.12079 80.6862L2.61468 80.5509ZM2.71415 77.1645L4.19771 77.386L4.24948 77.0392L2.76592 76.8177L1.28236 76.5963L1.23059 76.9431L2.71415 77.1645ZM2.76592 76.8177L4.24948 77.0392L4.30126 76.6924L2.8177 76.4709L1.33414 76.2495L1.28236 76.5963L2.76592 76.8177ZM2.8177 76.4709L4.30126 76.6924C4.47239 75.5461 4.62276 74.3996 4.75234 73.253L3.26182 73.0845L1.77131 72.9161C1.64576 74.0271 1.50003 75.1382 1.33414 76.2495L2.8177 76.4709ZM3.26182 73.0845L4.75234 73.253L4.79153 72.9062L3.30102 72.7377L1.8105 72.5693L1.77131 72.9161L3.26182 73.0845ZM3.30102 72.7377L4.79153 72.9062L4.83072 72.5594L3.34021 72.3909L1.8497 72.2225L1.8105 72.5693L3.30102 72.7377ZM3.34021 72.3909L4.83072 72.5594C4.97185 71.3106 4.9619 70.0609 4.80107 68.8128L3.31337 69.0045L1.82568 69.1962C1.95576 70.2058 1.96371 71.2136 1.8497 72.2225L3.34021 72.3909ZM3.31337 69.0045L4.80107 68.8128L4.75639 68.466L3.26869 68.6577L1.78099 68.8494L1.82568 69.1962L3.31337 69.0045ZM3.26869 68.6577L4.75639 68.466L4.7117 68.1192L3.224 68.3109L1.7363 68.5026L1.78099 68.8494L3.26869 68.6577ZM3.224 68.3109L4.7117 68.1192C4.57357 67.0473 4.49787 65.9762 4.48443 64.9057L2.98455 64.9245L1.48467 64.9434C1.49957 66.1304 1.58351 67.317 1.7363 68.5026L3.224 68.3109ZM2.98455 64.9245L4.48443 64.9057L4.48008 64.5589L2.9802 64.5777L1.48032 64.5966L1.48467 64.9434L2.98455 64.9245ZM2.9802 64.5777L4.48008 64.5589L4.47573 64.2121L2.97584 64.2309L1.47596 64.2498L1.48032 64.5966L2.9802 64.5777ZM2.97584 64.2309L4.47573 64.2121C4.46202 63.12 4.48837 62.0279 4.55481 60.9356L3.05758 60.8445L1.56035 60.7535C1.48946 61.9188 1.46133 63.0842 1.47596 64.2498L2.97584 64.2309ZM3.05758 60.8445L4.55481 60.9356L4.57591 60.5888L3.07867 60.4977L1.58144 60.4067L1.56035 60.7535L3.05758 60.8445ZM3.07867 60.4977L4.57591 60.5888L4.597 60.242L3.09977 60.1509L1.60253 60.0599L1.58144 60.4067L3.07867 60.4977ZM3.09977 60.1509L4.597 60.242C4.66917 59.0555 4.67264 57.8688 4.60739 56.6822L3.10965 56.7645L1.61191 56.8469C1.67081 57.9179 1.66768 58.9888 1.60253 60.0599L3.09977 60.1509ZM3.10965 56.7645L4.60739 56.6822L4.58832 56.3354L3.09058 56.4177L1.59284 56.5001L1.61191 56.8469L3.10965 56.7645ZM3.09058 56.4177L4.58832 56.3354L4.56925 55.9886L3.07151 56.0709L1.57377 56.1533L1.59284 56.5001L3.09058 56.4177ZM3.07151 56.0709L4.56925 55.9886C4.51115 54.932 4.52935 53.8754 4.62394 52.8182L3.12991 52.6845L1.63587 52.5509C1.52846 53.7513 1.50773 54.9523 1.57377 56.1533L3.07151 56.0709ZM3.12991 52.6845L4.62394 52.8182L4.65497 52.4714L3.16094 52.3377L1.6669 52.2041L1.63587 52.5509L3.12991 52.6845ZM3.16094 52.3377L4.65497 52.4714L4.686 52.1246L3.19197 51.9909L1.69793 51.8573L1.6669 52.2041L3.16094 52.3377ZM3.19197 51.9909L4.686 52.1246C4.78905 50.9729 4.86537 49.821 4.91492 48.669L3.41631 48.6045L1.9177 48.5401C1.87013 49.6457 1.79688 50.7514 1.69793 51.8573L3.19197 51.9909ZM3.41631 48.6045L4.91492 48.669L4.92984 48.3222L3.43123 48.2577L1.93262 48.1933L1.9177 48.5401L3.41631 48.6045ZM3.43123 48.2577L4.92984 48.3222L4.94476 47.9754L3.44615 47.9109L1.94754 47.8465L1.93262 48.1933L3.43123 48.2577ZM3.44615 47.9109L4.94476 47.9754C4.99514 46.8044 4.99606 45.6334 4.94752 44.4624L3.44881 44.5245L1.95009 44.5867C1.99514 45.6733 1.99428 46.7598 1.94754 47.8465L3.44615 47.9109ZM3.44881 44.5245L4.94752 44.4624L4.93314 44.1156L3.43443 44.1777L1.93572 44.2399L1.95009 44.5867L3.44881 44.5245ZM3.43443 44.1777L4.93314 44.1156L4.91877 43.7688L3.42006 43.8309L1.92134 43.8931L1.93572 44.2399L3.43443 44.1777ZM3.42006 43.8309L4.91877 43.7688C4.87122 42.6218 4.8027 41.4748 4.7132 40.3278L3.21775 40.4445L1.7223 40.5612C1.80896 41.6719 1.87531 42.7825 1.92134 43.8931L3.42006 43.8309ZM3.21775 40.4445L4.7132 40.3278L4.68614 39.981L3.19069 40.0977L1.69524 40.2144L1.7223 40.5612L3.21775 40.4445ZM3.19069 40.0977L4.68614 39.981L4.65908 39.6342L3.16363 39.7509L1.66817 39.8676L1.69524 40.2144L3.19069 40.0977ZM3.16363 39.7509L4.65908 39.6342C4.57432 38.548 4.53614 37.462 4.54451 36.3761L3.04456 36.3645L1.5446 36.353C1.53557 37.5247 1.57677 38.6963 1.66817 39.8676L3.16363 39.7509ZM3.04456 36.3645L4.54451 36.3761L4.54719 36.0293L3.04723 36.0177L1.54728 36.0062L1.5446 36.353L3.04456 36.3645ZM3.04723 36.0177L4.54719 36.0293L4.54986 35.6825L3.0499 35.6709L1.54995 35.6594L1.54728 36.0062L3.04723 36.0177ZM3.0499 35.6709L4.54986 35.6825C4.55829 34.5885 4.60481 33.4945 4.68943 32.4002L3.1939 32.2845L1.69836 32.1689C1.6084 33.3322 1.55892 34.4957 1.54995 35.6594L3.0499 35.6709ZM3.1939 32.2845L4.68943 32.4002L4.71625 32.0534L3.22072 31.9377L1.72518 31.8221L1.69836 32.1689L3.1939 32.2845ZM3.22072 31.9377L4.71625 32.0534L4.74307 31.7066L3.24754 31.5909L1.752 31.4753L1.72518 31.8221L3.22072 31.9377ZM3.24754 31.5909L4.74307 31.7066C4.84029 30.4494 4.7764 29.1932 4.55279 27.9409L3.07615 28.2045L1.5995 28.4682C1.779 29.4735 1.82937 30.4748 1.752 31.4753L3.24754 31.5909ZM3.07615 28.2045L4.55279 27.9409L4.49087 27.5941L3.01422 27.8577L1.53758 28.1214L1.5995 28.4682L3.07615 28.2045ZM3.01422 27.8577L4.49087 27.5941L4.42895 27.2473L2.9523 27.5109L1.47566 27.7746L1.53758 28.1214L3.01422 27.8577ZM2.9523 27.5109L4.42895 27.2473C4.2508 26.2496 4.20842 25.256 4.3004 24.2629L2.80679 24.1245L1.31318 23.9862C1.19607 25.2507 1.2507 26.5147 1.47566 27.7746L2.9523 27.5109ZM2.80679 24.1245L4.3004 24.2629L4.33252 23.9161L2.83891 23.7777L1.3453 23.6394L1.31318 23.9862L2.80679 24.1245ZM2.83891 23.7777L4.33252 23.9161L4.36464 23.5693L2.87103 23.4309L1.37742 23.2926L1.3453 23.6394L2.83891 23.7777ZM2.87103 23.4309L4.36464 23.5693C4.48222 22.2997 4.42108 21.0309 4.18295 19.7668L2.70888 20.0445L1.23481 20.3222C1.42197 21.3158 1.46893 22.3046 1.37742 23.2926L2.87103 23.4309ZM2.70888 20.0445L4.18295 19.7668L4.11762 19.42L2.64355 19.6977L1.16948 19.9754L1.23481 20.3222L2.70888 20.0445ZM2.64355 19.6977L4.11762 19.42L4.05229 19.0732L2.57822 19.3509L1.10415 19.6286L1.16948 19.9754L2.64355 19.6977ZM2.57822 19.3509L4.05229 19.0732C3.86105 18.0581 3.79076 17.0469 3.8399 16.0375L2.34168 15.9645L0.843451 15.8916C0.782693 17.1397 0.8701 18.3862 1.10415 19.6286L2.57822 19.3509ZM2.34168 15.9645L3.8399 16.0375L3.85678 15.6907L2.35856 15.6177L0.860333 15.5448L0.843451 15.8916L2.34168 15.9645ZM2.35856 15.6177L3.85678 15.6907L3.87367 15.3439L2.37544 15.2709L0.877214 15.198L0.860333 15.5448L2.35856 15.6177ZM2.37544 15.2709L3.87367 15.3439C3.92371 14.3158 4.07709 13.2841 4.33569 12.2476L2.8803 11.8845L1.42491 11.5214C1.12026 12.7425 0.937067 13.9685 0.877214 15.198L2.37544 15.2709ZM2.8803 11.8845L4.33569 12.2476L4.42221 11.9008L2.96683 11.5377L1.51144 11.1746L1.42491 11.5214L2.8803 11.8845ZM2.96683 11.5377L4.42221 11.9008L4.50874 11.554L3.05335 11.1909L1.59796 10.8278L1.51144 11.1746L2.96683 11.5377ZM3.05335 11.1909L4.50874 11.554C4.83323 10.2534 4.92091 8.94128 4.76703 7.6262L3.27719 7.80054L1.78736 7.97487C1.89827 8.92272 1.83673 9.87082 1.59796 10.8278L3.05335 11.1909ZM3.27719 7.80054L4.76703 7.6262L4.72635 7.27859L3.23651 7.45292L1.74668 7.62725L1.78736 7.97487L3.27719 7.80054ZM3.23651 7.45292L4.72635 7.27859L4.68567 6.93097L3.19584 7.1053L1.706 7.27963L1.74668 7.62725L3.23651 7.45292ZM3.19584 7.1053L4.68567 6.93097C4.64153 6.55377 4.68883 6.3298 4.74166 6.20162C4.7889 6.08699 4.87114 5.97151 5.05282 5.85211L4.229 4.59859L3.40518 3.34506C2.76569 3.76534 2.26515 4.33749 1.96801 5.05843C1.67645 5.76583 1.61774 6.52537 1.706 7.27963L3.19584 7.1053ZM4.229 4.59859L5.05282 5.85211L5.30511 5.6863L4.48129 4.43278L3.65747 3.17926L3.40518 3.34506L4.229 4.59859ZM4.48129 4.43278L5.30511 5.6863L5.5574 5.5205L4.73358 4.26698L3.90976 3.01345L3.65747 3.17926L4.48129 4.43278ZM4.73358 4.26698L5.5574 5.5205C5.98038 5.24251 6.33567 4.99419 6.59872 4.78382C6.72645 4.68167 6.86985 4.55899 6.99571 4.42395C7.05818 4.35692 7.14502 4.25651 7.22638 4.12827C7.2937 4.02214 7.44293 3.76638 7.4766 3.40787L5.98317 3.26761L4.48974 3.12736C4.50622 2.95187 4.5517 2.81406 4.58829 2.72481C4.62562 2.63373 4.66538 2.56495 4.69311 2.52124C4.7462 2.43755 4.79214 2.38815 4.80106 2.37858C4.81981 2.35846 4.80553 2.37652 4.72499 2.44093C4.57151 2.56368 4.30795 2.75176 3.90976 3.01345L4.73358 4.26698ZM5.98317 3.26761L7.4766 3.40787L7.48025 3.36898L5.98682 3.22873L4.49339 3.08847L4.48974 3.12736L5.98317 3.26761ZM5.98682 3.22873L7.48025 3.36898L7.4839 3.3301L5.99047 3.18984L4.49704 3.04959L4.49339 3.08847L5.98682 3.22873ZM5.99047 3.18984L7.4839 3.3301C7.42415 3.96635 7.00169 4.3156 6.7712 4.44869C6.56319 4.56881 6.38648 4.59787 6.35013 4.60392C6.25798 4.61924 6.23407 4.60921 6.34899 4.6152C6.54762 4.62556 6.90514 4.66808 7.45753 4.75914L7.7015 3.27911L7.94547 1.79908C7.36906 1.70407 6.87701 1.63867 6.50529 1.61928C6.33505 1.61039 6.09577 1.60502 5.85807 1.64455C5.74893 1.66269 5.5169 1.70874 5.27101 1.85073C5.00265 2.00569 4.55977 2.3817 4.49704 3.04959L5.99047 3.18984ZM7.7015 3.27911L7.45753 4.75914L7.80433 4.8163L8.0483 3.33628L8.29227 1.85625L7.94547 1.79908L7.7015 3.27911Z" fill="#323232"/>
</svg>
