<svg width="57" height="130" viewBox="0 0 57 130" fill="none" xmlns="http://www.w3.org/2000/svg">
<path d="M3.0083 6C3.0083 4.34314 4.35145 3 6.0083 3H51.0083C52.6652 3 54.0083 4.34315 54.0083 6V125C54.0083 126.657 52.6652 128 51.0083 128H6.0083C4.35145 128 3.0083 126.657 3.0083 125V6Z" fill="#7CA6FF" fill-opacity="0.3"/>
<path d="M32.5513 0.84375L32.9028 0.855469C34.1115 0.877685 35.3189 0.993009 36.5239 1.20703L36.8755 1.26562L37.2153 1.32422C38.2484 1.50769 39.2805 1.58921 40.3091 1.57031H40.6606L41.0122 1.55859C42.1405 1.53756 43.2707 1.5184 44.3989 1.5H44.7388L45.0903 1.48828C46.2901 1.46872 47.4898 1.53705 48.688 1.6875L49.0396 1.73438L49.3794 1.78125C50.6911 1.946 51.8765 2.34383 52.8364 3.07031L53.0474 3.23438L53.27 3.39844C54.2734 4.1598 54.9441 5.26224 55.3677 6.55078L55.4731 6.89062L55.5903 7.21875C56.0302 8.55799 56.1079 9.93723 55.8247 11.3203L55.7544 11.6719L55.6841 12.0117C55.4869 12.9735 55.4539 13.9382 55.5903 14.8945L55.6372 15.2344L55.6841 15.5859C55.8626 16.8389 55.8859 18.0933 55.7427 19.3477L55.7075 19.6992L55.6606 20.0391C55.5401 21.0927 55.505 22.1508 55.5435 23.2031L55.5552 23.5547L55.5669 23.8945C55.6091 25.0453 55.6225 26.2008 55.6138 27.3516V28.043C55.6058 29.0917 55.678 30.144 55.8364 31.1953L55.8833 31.5469L55.9419 31.8867C56.1291 33.1282 56.1705 34.3807 56.0708 35.625L56.0474 35.9648L56.0122 36.3164C55.9221 37.4412 55.8414 38.5666 55.7544 39.6914L55.7192 40.043L55.6958 40.3945C55.6069 41.543 55.4951 42.6916 55.356 43.8398L55.3091 44.1914L55.2739 44.5312C55.1549 45.5134 55.1733 46.4989 55.3442 47.4844L55.4028 47.8359L55.4731 48.1758C55.6782 49.3576 55.8115 50.5426 55.8833 51.7266L55.9067 52.0781L55.9302 52.418C56.0027 53.6153 55.9909 54.8186 55.895 56.0156L55.8599 56.3672L55.8364 56.7188C55.752 57.7731 55.7429 58.8286 55.813 59.8828L55.8364 60.2227L55.8599 60.5742C55.9455 61.863 55.827 63.154 55.5083 64.4297L55.4263 64.7695L55.3325 65.1211C55.1132 66.0016 55.1211 66.8743 55.356 67.7578L55.4497 68.0977L55.5435 68.4492C55.9071 69.8177 55.9243 71.2017 55.5903 72.5742L55.4966 72.9258L55.4146 73.2656C55.1611 74.3057 55.0106 75.3504 54.9575 76.3828L54.9341 76.7227L54.9224 77.0742C54.8728 78.0445 54.9718 79.0194 55.2271 80.0039L55.3208 80.3555L55.4028 80.6953C55.7162 81.904 55.9335 83.1239 56.0356 84.3398L56.0591 84.6797L56.0942 85.0312C56.1937 86.2166 56.2259 87.4079 56.188 88.5938L56.1763 88.9336L56.1646 89.2852C56.124 90.5446 55.9192 91.8026 55.5552 93.0469L55.4497 93.3867L55.3442 93.7383C55.0716 94.6721 55.0022 95.5902 55.1216 96.5039L55.1685 96.8555L55.2153 97.1953C55.3819 98.4675 55.361 99.7453 55.1567 101.016L55.0981 101.367L55.0396 101.707C54.8735 102.738 54.8117 103.773 54.8521 104.801L54.8638 105.152L54.8872 105.492C54.9295 106.568 55.0233 107.649 55.1802 108.727L55.2271 109.066L55.2856 109.418C55.4515 110.557 55.6001 111.701 55.7427 112.84L55.7896 113.18L55.8364 113.531C55.9965 114.813 55.9562 116.097 55.7192 117.375L55.6489 117.727L55.5903 118.066C55.3868 119.164 55.2108 120.262 55.0747 121.359L55.0396 121.711L54.9927 122.062C54.8541 123.181 54.7356 124.251 54.6294 125.273L54.5591 125.906C54.4785 126.681 54.1975 127.429 53.6333 128.027C53.0729 128.62 52.3413 128.949 51.5825 129.105L51.2544 129.176L50.9146 129.246C49.6367 129.509 48.3341 129.512 47.0239 129.27L46.6841 129.211L46.3325 129.141C45.3587 128.96 44.3846 128.941 43.4146 129.07L43.0747 129.117L42.7231 129.164C41.4702 129.331 40.215 129.339 38.9614 129.188L38.6099 129.141L38.27 129.105C37.231 128.98 36.1904 128.948 35.1528 129.012L34.8013 129.035L34.4614 129.059C33.3687 129.126 32.2736 129.232 31.1802 129.375L30.8286 129.41L30.4771 129.457C29.3017 129.611 28.1262 129.713 26.9497 129.75L26.5981 129.762L26.2583 129.773C24.9978 129.813 23.7356 129.686 22.4849 129.398L22.1333 129.316L21.7935 129.234C20.9008 129.029 20.0072 129.038 19.1099 129.27L18.77 129.363L18.4185 129.457C17.1398 129.787 15.8443 129.91 14.5513 129.82L14.2114 129.797L13.8599 129.773C12.7308 129.696 11.6022 129.609 10.4731 129.527L10.1216 129.504L9.78174 129.48C8.69862 129.402 7.57397 129.37 6.41846 129.387H6.05518L5.68018 129.398C4.83393 129.41 4.00294 129.217 3.28955 128.719C2.57928 128.223 2.11278 127.507 1.81299 126.715L1.67236 126.363L1.54346 126C0.993409 124.544 0.926755 123.057 1.39111 121.594L1.5083 121.242L1.61377 120.891C1.92361 119.914 2.07069 118.949 2.04736 117.996L2.03564 117.656L2.02393 117.305C1.99939 116.314 1.84039 115.312 1.54346 114.305L1.43799 113.965L1.34424 113.613C0.950899 112.279 0.85202 110.924 1.06299 109.57L1.10986 109.23L1.16846 108.879C1.34594 107.74 1.5399 106.596 1.74268 105.457L1.80127 105.117L1.85986 104.766C2.0438 103.732 2.13314 102.701 2.11768 101.672L2.10596 101.32V100.969C2.0896 99.9158 1.99677 98.8605 1.82471 97.8047L1.76611 97.4648L1.70752 97.1133C1.50804 95.8892 1.42927 94.6614 1.47314 93.4336L1.48486 93.082L1.49658 92.7422C1.53548 91.6587 1.53257 90.5679 1.47314 89.4844L1.44971 89.1445L1.43799 88.793C1.37463 87.6376 1.33433 86.4797 1.33252 85.3242V84.6328C1.33081 83.5487 1.27838 82.4596 1.18018 81.375L1.15674 81.0352L1.12158 80.6836C1.0089 79.4368 1.04151 78.1896 1.22705 76.9453L1.28564 76.5938L1.33252 76.2539C1.49842 75.1427 1.64056 74.0251 1.76611 72.9141L1.81299 72.5742L1.84814 72.2227C1.96205 71.2147 1.95445 70.2078 1.82471 69.1992L1.77783 68.8477L1.73096 68.5078C1.57825 67.3228 1.49983 66.1317 1.48486 64.9453V64.5938L1.47314 64.2539C1.45851 63.0884 1.48429 61.9153 1.55518 60.75L1.57861 60.4102L1.60205 60.0586C1.66711 58.9882 1.67259 57.918 1.61377 56.8477L1.59033 56.4961L1.57861 56.1562C1.51257 54.9553 1.52979 53.7473 1.63721 52.5469L1.67236 52.207L1.6958 51.8555C1.79468 50.7502 1.87091 49.6442 1.91846 48.5391L1.93018 48.1875L1.94189 47.8477C1.98859 46.7621 1.99852 45.6754 1.95361 44.5898L1.93018 44.2383L1.91846 43.8984C1.87242 42.7879 1.8059 41.6693 1.71924 40.5586L1.6958 40.2188L1.67236 39.8672C1.58097 38.6959 1.53443 37.5232 1.54346 36.3516V36.0117L1.55518 35.6602C1.56415 34.4965 1.60584 33.3313 1.6958 32.168L1.73096 31.8164L1.75439 31.4766C1.83176 30.4761 1.78155 29.4701 1.60205 28.4648L1.53174 28.125L1.47314 27.7734C1.24856 26.5149 1.19231 25.2514 1.30908 23.9883L1.34424 23.6367L1.37939 23.2969C1.4709 22.3088 1.42593 21.3139 1.23877 20.3203L1.16846 19.9805L1.10986 19.6289C0.875815 18.3865 0.779574 17.1388 0.840332 15.8906L0.86377 15.5391L0.875488 15.1992C0.935341 13.9697 1.12162 12.7406 1.42627 11.5195L1.5083 11.1797L1.60205 10.8281C1.84019 9.87329 1.89951 8.92617 1.78955 7.98047L1.74268 7.62891L1.70752 7.27734C1.61979 6.52534 1.67562 5.76798 1.96533 5.0625C2.26247 4.34156 2.76725 3.76012 3.40674 3.33984L3.65283 3.17578L3.91064 3.01172C4.2693 2.77597 4.51448 2.59485 4.67236 2.47266C4.84171 2.15576 5.0922 1.95446 5.27002 1.85156C5.51485 1.71019 5.74624 1.65893 5.85596 1.64062C6.09139 1.60148 6.33057 1.60846 6.50049 1.61719C6.87166 1.63655 7.3666 1.7099 7.94189 1.80469L8.29346 1.85156L8.6333 1.91016C9.63561 2.07538 10.6462 2.1108 11.645 2.01562L11.9849 1.98047L12.3364 1.95703C13.4302 1.85275 14.5231 1.70174 15.6177 1.52344L15.9692 1.47656L16.3091 1.41797C17.6204 1.2043 18.9398 1.22702 20.2466 1.5L20.5981 1.58203L20.938 1.65234C21.9041 1.85443 22.873 1.89494 23.8325 1.76953L24.1724 1.72266L24.5239 1.67578C25.64 1.52989 26.7593 1.36811 27.8755 1.19531L28.2153 1.13672L28.5669 1.08984C29.7794 0.902188 30.9959 0.821421 32.2114 0.84375H32.5513ZM7.3208 3.84375C7.37557 3.73579 7.42251 3.61831 7.44971 3.48047C7.42871 3.62724 7.36343 3.73935 7.3208 3.84375ZM4.48486 3.12891L4.49658 3.09375V3.07031C4.49409 3.08887 4.48669 3.10941 4.48486 3.12891ZM4.33252 85.3242C4.33428 86.4257 4.36586 87.5273 4.42627 88.6289L4.44971 88.9805L4.46143 89.3203C4.52581 90.4943 4.53873 91.6735 4.49658 92.8477L4.48486 93.1875L4.47314 93.5391C4.43627 94.5676 4.50414 95.6005 4.67236 96.6328L4.73096 96.9727L4.78955 97.3242C4.98493 98.5237 5.08756 99.7313 5.10596 100.934V101.273L5.11768 101.625C5.13619 102.85 5.03024 104.073 4.81299 105.293L4.75439 105.645L4.6958 105.984C4.49675 107.103 4.30749 108.23 4.1333 109.348L4.07471 109.688L4.02783 110.039C3.88776 110.941 3.94357 111.848 4.21533 112.77L4.3208 113.109L4.42627 113.461C4.79431 114.71 4.99296 115.969 5.02393 117.234L5.03564 117.586V117.926C5.06755 119.229 4.87992 120.525 4.47314 121.805L4.36768 122.156L4.25049 122.496C3.99886 123.287 4.01983 124.088 4.34424 124.945L4.48486 125.297L4.61377 125.66C4.75164 126.023 4.906 126.184 5.01221 126.258C5.11507 126.329 5.29978 126.403 5.64502 126.398L6.0083 126.387H6.37158C7.60838 126.369 8.81875 126.407 9.99268 126.492L10.3442 126.516L10.6841 126.539C11.8112 126.621 12.9436 126.696 14.0708 126.773L14.4224 126.797L14.7622 126.82C15.7241 126.887 16.6922 126.802 17.6685 126.551L18.02 126.457L18.3599 126.363C19.7199 126.012 21.0968 126.002 22.4614 126.316L22.813 126.387L23.1528 126.469C24.1591 126.701 25.1681 126.805 26.1646 126.773L26.5044 126.762L26.856 126.75C27.9338 126.716 29.0113 126.622 30.0903 126.48L30.4419 126.445L30.7817 126.398C31.9443 126.246 33.1107 126.13 34.2739 126.059L34.6255 126.035L34.9653 126.012C36.1839 125.937 37.4045 125.982 38.6216 126.129L38.9731 126.164L39.3247 126.211C40.3248 126.331 41.324 126.321 42.3247 126.188L42.6763 126.141L43.0161 126.094C44.3031 125.922 45.6001 125.962 46.8833 126.199L47.2231 126.258L47.5747 126.328C48.5198 126.503 49.4326 126.487 50.3169 126.305L50.645 126.234L50.9731 126.176C51.2965 126.109 51.4192 126.001 51.4536 125.965C51.4835 125.932 51.5453 125.843 51.5708 125.602L51.6411 124.969C51.7497 123.924 51.8751 122.825 52.0161 121.688L52.063 121.348L52.0981 120.996C52.2418 119.837 52.4225 118.674 52.6372 117.516L52.7075 117.176L52.7661 116.824C52.9468 115.849 52.9808 114.878 52.8599 113.906L52.7661 113.203C52.6262 112.086 52.4718 110.969 52.3091 109.852L52.2622 109.5L52.2153 109.16C52.0434 107.98 51.9337 106.791 51.8872 105.609L51.8755 105.27L51.8638 104.918C51.8155 103.69 51.8893 102.463 52.0864 101.238L52.1333 100.887L52.1919 100.547C52.3504 99.5624 52.367 98.5764 52.2388 97.5938L52.145 96.8906C51.9702 95.5503 52.087 94.2147 52.4731 92.8945L52.5669 92.543L52.6724 92.2031C52.968 91.1924 53.1323 90.187 53.1646 89.1914L53.188 88.4883C53.222 87.419 53.1841 86.3471 53.0942 85.2773L53.0708 84.9375L53.0474 84.5859C52.9599 83.5443 52.7803 82.4943 52.5083 81.4453L52.4146 81.1055L52.3208 80.7539C51.9921 79.4847 51.8569 78.2053 51.9224 76.9219L51.9458 76.5703L51.9575 76.2188C52.0207 74.9966 52.2009 73.777 52.4966 72.5625L52.5903 72.2109L52.6724 71.8711C52.8876 70.9879 52.8727 70.1098 52.6372 69.2227L52.5435 68.8711L52.4614 68.5312C52.0967 67.1593 52.0833 65.7695 52.4263 64.3945L52.5083 64.043L52.6021 63.6914C52.8461 62.7117 52.9241 61.7401 52.8599 60.7734L52.8481 60.4219L52.8247 60.082C52.7448 58.88 52.7517 57.6744 52.8481 56.4727L52.8716 56.1328L52.895 55.7812C52.98 54.7226 52.9942 53.6638 52.9302 52.6055L52.9067 52.2539L52.895 51.9141C52.8301 50.8416 52.6948 49.7661 52.5083 48.6914L52.4497 48.3398L52.3911 48C52.1704 46.728 52.1428 45.4433 52.2974 44.168L52.3325 43.8281L52.3794 43.4766C52.5133 42.371 52.622 41.2654 52.7075 40.1602L52.731 39.8086L52.7544 39.4688C52.8418 38.3386 52.9334 37.2005 53.0239 36.0703L53.0591 35.7305L53.0825 35.3789C53.1633 34.3683 53.1294 33.3571 52.9771 32.3438L52.9185 31.9922L52.8716 31.6406C52.6901 30.436 52.6046 29.2268 52.6138 28.0195V27.3281C52.6222 26.2227 52.6074 25.1172 52.5669 24.0117L52.5552 23.6602L52.5435 23.3203C52.4993 22.1158 52.5464 20.9024 52.6841 19.6992L52.7192 19.3594L52.7661 19.0078C52.8803 18.0081 52.8619 17.0089 52.7192 16.0078L52.6724 15.6562L52.6255 15.3164C52.4399 14.0154 52.4772 12.7096 52.7427 11.4141L52.813 11.0625L52.8833 10.7227C53.0624 9.84876 53.0191 8.99777 52.7427 8.15625L52.6255 7.82812L52.52 7.48828C52.2274 6.59756 51.8414 6.08303 51.4536 5.78906L51.0317 5.46094C50.5992 5.1331 49.9488 4.87642 49.0044 4.75781L48.6646 4.71094L48.313 4.66406C47.2543 4.53119 46.1942 4.47105 45.1372 4.48828L44.7974 4.5H44.4458C43.3182 4.51839 42.1867 4.53757 41.0591 4.55859L40.7192 4.57031H40.3677C39.1407 4.59308 37.9105 4.50619 36.688 4.28906L36.3481 4.21875L35.9966 4.16016C34.945 3.97352 33.8923 3.87472 32.8442 3.85547L32.5044 3.84375H32.1528C31.1114 3.82468 30.0684 3.893 29.0239 4.05469L28.6724 4.10156L28.3325 4.16016C27.1923 4.33667 26.051 4.5033 24.9106 4.65234L24.5591 4.6875L24.2192 4.73438C22.9212 4.90402 21.6201 4.85219 20.3286 4.58203L19.9771 4.51172L19.6372 4.44141C18.6892 4.2431 17.7447 4.21805 16.8013 4.37109L16.0981 4.48828C14.9385 4.67713 13.7781 4.82301 12.6177 4.93359L12.2661 4.96875L11.9263 5.00391C10.6682 5.12378 9.40749 5.08165 8.15283 4.875L7.80127 4.81641L7.46143 4.75781C7.1617 4.70841 6.91387 4.68751 6.72314 4.66406C6.67789 4.70277 6.63721 4.74688 6.59424 4.78125C6.33224 4.99065 5.98327 5.24322 5.56299 5.51953L5.04736 5.84766C4.86817 5.96581 4.78993 6.08575 4.74268 6.19922C4.69009 6.3268 4.641 6.55178 4.68408 6.92578L4.73096 7.27734L4.76611 7.62891C4.91958 8.94313 4.83258 10.2549 4.5083 11.5547L4.42627 11.9062L4.33252 12.2461C4.07426 13.2812 3.92574 14.3131 3.87549 15.3398L3.85205 15.6914L3.84033 16.043C3.79171 17.0506 3.86037 18.0648 4.05127 19.0781L4.12158 19.418L4.18018 19.7695C4.41778 21.0319 4.48481 22.2986 4.36768 23.5664L4.33252 23.918L4.29736 24.2578C4.20543 25.2504 4.24836 26.2489 4.42627 27.2461L4.49658 27.5977L4.55518 27.9375C4.77878 29.1898 4.8399 30.4538 4.74268 31.7109L4.71924 32.0508L4.68408 32.4023C4.59958 33.4958 4.5636 34.5905 4.55518 35.6836L4.54346 36.0352V36.375C4.53509 37.4604 4.57595 38.547 4.66064 39.6328L4.68408 39.9844L4.70752 40.3242C4.79701 41.4711 4.87091 42.6225 4.91846 43.7695L4.93018 44.1211L4.94189 44.4609C4.99043 45.6319 4.99227 46.8056 4.94189 47.9766L4.93018 48.3164L4.91846 48.668C4.8689 49.8199 4.78714 50.9732 4.68408 52.125L4.66064 52.4766L4.62549 52.8164C4.5309 53.8736 4.50879 54.9356 4.56689 55.9922L4.59033 56.332L4.60205 56.6836C4.66724 57.8698 4.6742 59.0599 4.60205 60.2461L4.57861 60.5859L4.55518 60.9375C4.48892 62.0275 4.45959 63.1173 4.47314 64.207L4.48486 64.5586V64.9102C4.49846 65.9792 4.56958 67.0507 4.70752 68.1211L4.75439 68.4609L4.80127 68.8125C4.9621 70.0606 4.97755 71.3137 4.83643 72.5625L4.78955 72.9023L4.75439 73.2539C4.62499 74.3989 4.4682 75.5428 4.29736 76.6875L4.25049 77.0391L4.19189 77.3906C4.04165 78.3999 4.01882 79.4073 4.10986 80.4141L4.14502 80.7656L4.16846 81.1055C4.27465 82.2783 4.33069 83.4595 4.33252 84.6328V85.3242Z" fill="#4681FF"/>
</svg>
