<svg width="56" height="129" viewBox="0 0 56 129" fill="none" xmlns="http://www.w3.org/2000/svg">
<path d="M2.18359 5.16455C2.18359 3.5077 3.52674 2.16455 5.18359 2.16455H50.1836C51.8404 2.16455 53.1836 3.5077 53.1836 5.16455V124.165C53.1836 125.821 51.8404 127.165 50.1836 127.165H5.18359C3.52674 127.165 2.18359 125.821 2.18359 124.165V5.16455Z" fill="#323232" fill-opacity="0.3"/>
<path d="M7.22359 2.50083L6.97962 3.98085L7.22359 2.50083ZM11.6504 2.60968L11.5081 1.11645L11.6504 2.60968ZM15.3836 2.11596L15.1424 0.635485L15.3836 2.11596ZM23.5436 2.37041L23.3492 0.883056L23.5436 2.37041ZM23.8904 2.32508L24.0848 3.81243L23.8904 2.32508ZM27.9704 1.7343L27.7409 0.251956L27.9704 1.7343ZM31.7036 1.50966L31.676 3.0094L31.7036 1.50966ZM35.4368 1.84785L35.1745 3.32474L35.4368 1.84785ZM35.7836 1.90944L36.0459 0.432557L35.7836 1.90944ZM36.1304 1.97104L35.8681 3.44793L36.1304 1.97104ZM39.5168 2.24018L39.4888 0.740444L39.5168 2.24018ZM47.6768 2.34181L47.8637 0.853498L47.6768 2.34181ZM48.0236 2.38536L47.8367 3.87367L48.0236 2.38536ZM48.3704 2.42892L48.5573 0.940609L48.3704 2.42892ZM51.5363 3.75787L52.4424 2.56247L51.5363 3.75787ZM53.1184 6.18579L54.5435 5.71774L53.1184 6.18579ZM53.3385 6.85596L51.9134 7.32401L53.3385 6.85596ZM53.5287 10.1852L54.9982 10.4864L53.5287 10.1852ZM53.4576 10.532L51.9882 10.2308L53.4576 10.532ZM53.3865 10.8788L54.856 11.18V11.18L53.3865 10.8788ZM53.3305 14.612L54.8154 14.4002L53.3305 14.612ZM53.3799 14.9588L51.895 15.1706L53.3799 14.9588ZM53.4277 18.3452L54.918 18.5157L53.4277 18.3452ZM53.3484 19.0388L51.8581 18.8683L53.3484 19.0388ZM53.2167 22.4252L54.7157 22.3702L53.2167 22.4252ZM53.2294 22.772L51.7304 22.8269L53.2294 22.772ZM53.2421 23.1188L54.7411 23.0638L53.2421 23.1188ZM53.2913 26.5052L51.7914 26.4938L53.2913 26.5052ZM53.2887 26.852L54.7886 26.8634L53.2887 26.852ZM53.286 27.1988L51.7861 27.1874L53.286 27.1988ZM53.5285 30.5852L52.0453 30.8089L53.5285 30.5852ZM53.6331 31.2788L55.1164 31.0551L53.6331 31.2788ZM53.7528 34.6652L52.2576 34.5454L53.7528 34.6652ZM53.7251 35.012L55.2203 35.1318L53.7251 35.012ZM53.6973 35.3588L52.2021 35.239L53.6973 35.3588ZM53.4307 38.7452L51.9352 38.6295L53.4307 38.7452ZM53.3771 39.4388L54.8726 39.5544L53.3771 39.4388ZM53.041 42.8252L51.5519 42.6447L53.041 42.8252ZM52.9989 43.172L54.488 43.3525L52.9989 43.172ZM52.9569 43.5188L51.4678 43.3383L52.9569 43.5188ZM53.0454 46.9052L54.5233 46.6487L53.0454 46.9052ZM53.1056 47.252L51.6277 47.5084L53.1056 47.252ZM53.1658 47.5988L54.6437 47.3423L53.1658 47.5988ZM53.5621 50.9852L52.0648 51.0758L53.5621 50.9852ZM53.5831 51.332L55.0803 51.2413L53.5831 51.332ZM53.6041 51.6788L52.1068 51.7694V51.7694L53.6041 51.6788ZM53.5707 55.0652L55.0658 55.1852L53.5707 55.0652ZM53.5428 55.412L52.0476 55.2919L53.5428 55.412ZM53.515 55.7588L55.0102 55.8788L53.515 55.7588ZM53.4916 59.1452L51.9949 59.2447L53.4916 59.1452ZM53.5146 59.492L55.0113 59.3925L53.5146 59.492ZM53.5377 59.8388L52.041 59.9383L53.5377 59.8388ZM53.2273 63.2252L54.6826 63.5887L53.2273 63.2252ZM53.054 63.9188L51.5988 63.5553L53.054 63.9188ZM53.0813 67.3052L54.5309 66.9198L53.0813 67.3052ZM53.2657 67.9988L51.816 68.3842L53.2657 67.9988ZM53.3032 71.3852L54.7606 71.7403L53.3032 71.3852ZM53.1342 72.0788L51.6768 71.7236L53.1342 72.0788ZM52.6345 75.4652L51.1365 75.3881L52.6345 75.4652ZM52.6167 75.812L54.1147 75.889L52.6167 75.812ZM52.5988 76.1588L51.1008 76.0817L52.5988 76.1588ZM52.9508 79.5452L51.4988 79.9216L52.9508 79.5452ZM53.0407 79.892L54.4927 79.5155L53.0407 79.892ZM53.1306 80.2388L51.6786 80.6152L53.1306 80.2388ZM53.7119 83.6252L52.2171 83.7507L53.7119 83.6252ZM53.741 83.972L55.2357 83.8464L53.741 83.972ZM53.7701 84.3188L55.2649 84.1932L53.7701 84.3188ZM53.8582 87.7052L55.3574 87.7531L53.8582 87.7052ZM53.836 88.3988L52.3368 88.3508L53.836 88.3988ZM53.2865 91.7852L54.7262 92.2063L53.2865 91.7852ZM53.0836 92.4788L51.644 92.0576L53.0836 92.4788ZM52.81 95.8652L54.2973 95.6704L52.81 95.8652ZM52.8554 96.212L51.3681 96.4067L52.8554 96.212ZM52.9008 96.5588L54.3881 96.364L52.9008 96.5588ZM52.8498 99.9452L54.3308 100.184V100.184L52.8498 99.9452ZM52.794 100.292L51.3131 100.053L52.794 100.292ZM52.7381 100.639L54.2191 100.877L52.7381 100.639ZM52.5321 104.025L54.0309 103.966L52.5321 104.025ZM52.5457 104.372L54.0446 104.313L52.5457 104.372ZM52.5594 104.719L51.0606 104.778L52.5594 104.719ZM52.8726 108.105L51.3883 108.321L52.8726 108.105ZM52.9231 108.452L54.4075 108.236L52.9231 108.452ZM52.9736 108.799L51.4893 109.015L52.9736 108.799ZM53.4321 112.185L51.9437 112.371V112.371L53.4321 112.185ZM53.4755 112.532L54.9639 112.346L53.4755 112.532ZM53.519 112.879L52.0306 113.065V113.065L53.519 112.879ZM53.4169 116.265L54.8917 116.539L53.4169 116.265ZM53.3526 116.612L51.8777 116.338L53.3526 116.612ZM53.2883 116.959L54.7631 117.232L53.2883 116.959ZM52.7644 120.345L54.253 120.53L52.7644 120.345ZM52.7214 120.692L51.2328 120.507L52.7214 120.692ZM52.6784 121.039L54.167 121.223L52.6784 121.039ZM52.3073 124.283L53.7993 124.438L52.3073 124.283ZM52.2743 124.601L53.7662 124.756L52.2743 124.601ZM52.2413 124.919L53.7332 125.074L52.2413 124.919ZM50.4569 126.804L50.1543 125.335L50.4569 126.804ZM50.1244 126.873L50.427 128.342L50.1244 126.873ZM49.7919 126.941L49.4893 125.472L49.7919 126.941ZM46.4755 126.962L46.7487 125.487L46.4755 126.962ZM46.1287 126.898L45.8556 128.373L46.1287 126.898ZM45.7819 126.834L45.5088 128.309L45.7819 126.834ZM42.3955 126.747L42.1967 125.26L42.3955 126.747ZM42.0487 126.793L42.2476 128.28V128.28L42.0487 126.793ZM41.702 126.839L41.5031 125.353L41.702 126.839ZM38.3155 126.862L38.495 125.372L38.3155 126.862ZM37.6219 126.778L37.4425 128.267L37.6219 126.778ZM34.2355 126.678L34.3276 128.175L34.2355 126.678ZM33.8887 126.699L33.7967 125.202L33.8887 126.699ZM33.5419 126.721L33.634 128.218L33.5419 126.721ZM30.1556 127.047L30.3505 128.534L30.1556 127.047ZM29.8088 127.092L29.6138 125.605L29.8088 127.092ZM29.462 127.138L29.6569 128.625L29.462 127.138ZM26.0756 127.413L26.0284 125.914L26.0756 127.413ZM21.9956 127.098L21.6588 128.56L21.9956 127.098ZM21.6488 127.018L21.9855 125.556L21.6488 127.018ZM21.3019 126.938L20.9652 128.4L21.3019 126.938ZM17.9156 126.985L17.5405 125.533L17.9156 126.985ZM17.5688 127.075L17.9438 128.527L17.5688 127.075ZM17.222 127.164L16.8469 125.712L17.222 127.164ZM13.8355 127.485L13.7323 128.981L13.8355 127.485ZM13.4887 127.461L13.592 125.964L13.4887 127.461ZM13.1419 127.437L13.0387 128.933L13.1419 127.437ZM9.75555 127.198L9.86375 125.702L9.75555 127.198ZM9.40875 127.173L9.30055 128.669V128.669L9.40875 127.173ZM9.06195 127.147L9.17015 125.651L9.06195 127.147ZM5.57405 127.051L5.59599 128.551L5.57405 127.051ZM5.20646 127.057L5.18453 125.557L5.20646 127.057ZM4.83888 127.062L4.86081 128.562L4.83888 127.062ZM2.38697 125.351L3.78992 124.82L2.38697 125.351ZM2.25236 124.995L0.849402 125.526L2.25236 124.995ZM2.11775 124.639L3.52071 124.109L2.11775 124.639ZM1.99893 121.209L0.569456 120.755L1.99893 121.209ZM2.21948 120.515L3.64895 120.97L2.21948 120.515ZM2.70793 116.782L1.20838 116.819L2.70793 116.782ZM2.1588 113.049L3.59758 112.625L2.1588 113.049ZM1.95432 112.355L0.515542 112.78L1.95432 112.355ZM1.71892 108.969L3.20104 109.2L1.71892 108.969ZM1.82698 108.275L3.3091 108.506L1.82698 108.275ZM2.39218 104.889L0.915396 104.626L2.39218 104.889ZM2.45391 104.542L3.9307 104.805L2.45391 104.542ZM2.51565 104.195L1.03887 103.933L2.51565 104.195ZM2.79116 100.809L4.29099 100.786L2.79116 100.809ZM2.78586 100.462L1.28603 100.485L2.78586 100.462ZM2.47872 96.7291L0.998247 96.9703L2.47872 96.7291ZM2.4222 96.3823L3.90267 96.141L2.4222 96.3823ZM2.36568 96.0355L0.885214 96.2767L2.36568 96.0355ZM2.12434 88.2223L0.626588 88.3044L2.12434 88.2223ZM2.10532 87.8755L3.60307 87.7933L2.10532 87.8755ZM2.00927 84.1423L0.509272 84.1446L2.00927 84.1423ZM1.85278 80.4091L0.358886 80.5443L1.85278 80.4091ZM1.82138 80.0623L3.31526 79.927L1.82138 80.0623ZM1.78998 79.7155L0.296086 79.8507L1.78998 79.7155ZM1.88944 76.3291L3.373 76.5506L1.88944 76.3291ZM1.99299 75.6355L0.509431 75.414L1.99299 75.6355ZM2.43712 72.2491L0.946605 72.0806L2.43712 72.2491ZM2.5155 71.5555L4.00601 71.7239L2.5155 71.5555ZM2.48867 68.1691L1.00097 68.3608L2.48867 68.1691ZM2.23287 60.0091L0.735638 59.918L2.23287 60.0091ZM2.25397 59.6623L3.7512 59.7534L2.25397 59.6623ZM2.28494 55.9291L0.787207 56.0114L2.28494 55.9291ZM2.3052 51.8491L3.79923 51.9828L2.3052 51.8491ZM2.33623 51.5023L0.842197 51.3686L2.33623 51.5023ZM2.36726 51.1555L3.86129 51.2892L2.36726 51.1555ZM2.60652 47.4223L1.10791 47.3578L2.60652 47.4223ZM2.6241 43.6891L1.12539 43.7512L2.6241 43.6891ZM2.33892 38.9155L0.843467 39.0322L2.33892 38.9155ZM2.2252 34.8355L0.725242 34.8239L2.2252 34.8355ZM2.36919 31.4491L0.873655 31.3334L2.36919 31.4491ZM2.25144 27.3691L0.774794 27.6327L2.25144 27.3691ZM2.04632 22.5955L0.552715 22.4571L2.04632 22.5955ZM1.81884 18.8623L0.344772 19.14L1.81884 18.8623ZM1.75351 18.5155L3.22759 18.2378L1.75351 18.5155ZM2.22864 10.3555L0.773255 9.99238L2.22864 10.3555ZM2.41181 6.61747L0.921973 6.7918L2.41181 6.61747ZM3.65658 3.59733L2.83276 2.34381L3.65658 3.59733ZM5.15846 2.43216L3.66503 2.29191L5.15846 2.43216ZM5.16211 2.39328L6.65554 2.53353L5.16211 2.39328ZM5.16576 2.35439L3.67234 2.21414L5.16576 2.35439ZM7.22359 2.50083L6.97962 3.98085L7.32642 4.03802L7.57039 2.55799L7.81436 1.07797L7.46756 1.0208L7.22359 2.50083ZM7.57039 2.55799L7.32642 4.03802C8.58171 4.24494 9.84034 4.28894 11.0991 4.16901L10.9568 2.67577L10.8145 1.18253C9.81565 1.27771 8.81667 1.24319 7.81436 1.07797L7.57039 2.55799ZM10.9568 2.67577L11.0991 4.16901L11.4459 4.13596L11.3036 2.64273L11.1613 1.14949L10.8145 1.18253L10.9568 2.67577ZM11.3036 2.64273L11.4459 4.13596L11.7927 4.10292L11.6504 2.60968L11.5081 1.11645L11.1613 1.14949L11.3036 2.64273ZM11.6504 2.60968L11.7927 4.10292C12.9549 3.99218 14.1167 3.84217 15.278 3.65294L15.0368 2.17247L14.7956 0.691992C13.6993 0.870611 12.6035 1.01207 11.5081 1.11645L11.6504 2.60968ZM15.0368 2.17247L15.278 3.65294L15.6248 3.59644L15.3836 2.11596L15.1424 0.635485L14.7956 0.691992L15.0368 2.17247ZM15.3836 2.11596L15.6248 3.59644L15.9716 3.53993L15.7304 2.05946L15.4892 0.578979L15.1424 0.635485L15.3836 2.11596ZM15.7304 2.05946L15.9716 3.53993C16.9169 3.38591 17.8598 3.40728 18.8097 3.60598L19.1168 2.13775L19.4239 0.669532C18.1162 0.395981 16.8015 0.365152 15.4892 0.578979L15.7304 2.05946ZM19.1168 2.13775L18.8097 3.60598L19.1565 3.67852L19.4636 2.2103L19.7707 0.742075L19.4239 0.669532L19.1168 2.13775ZM19.4636 2.2103L19.1565 3.67852L19.5033 3.75106L19.8104 2.28284L20.1175 0.814619L19.7707 0.742075L19.4636 2.2103ZM19.8104 2.28284L19.5033 3.75106C20.7948 4.02122 22.0931 4.07273 23.3912 3.90308L23.1968 2.41573L23.0024 0.928381C22.0429 1.05379 21.0836 1.0167 20.1175 0.814619L19.8104 2.28284ZM23.1968 2.41573L23.3912 3.90308L23.738 3.85776L23.5436 2.37041L23.3492 0.883056L23.0024 0.928381L23.1968 2.41573ZM23.5436 2.37041L23.738 3.85776L24.0848 3.81243L23.8904 2.32508L23.696 0.837731L23.3492 0.883056L23.5436 2.37041ZM23.8904 2.32508L24.0848 3.81243C25.2253 3.66337 26.3658 3.50056 27.5063 3.32402L27.2768 1.84167L27.0473 0.359329C25.9302 0.532273 24.813 0.691739 23.696 0.837731L23.8904 2.32508ZM27.2768 1.84167L27.5063 3.32402L27.8531 3.27033L27.6236 1.78799L27.3941 0.305643L27.0473 0.359329L27.2768 1.84167ZM27.6236 1.78799L27.8531 3.27033L28.1999 3.21664L27.9704 1.7343L27.7409 0.251956L27.3941 0.305643L27.6236 1.78799ZM27.9704 1.7343L28.1999 3.21664C29.2447 3.0549 30.2875 2.9839 31.3292 3.00303L31.3568 1.50329L31.3843 0.00353861C30.1685 -0.0187957 28.9537 0.0642049 27.7409 0.251956L27.9704 1.7343ZM31.3568 1.50329L31.3292 3.00303L31.676 3.0094L31.7036 1.50966L31.7311 0.00990939L31.3843 0.00353861L31.3568 1.50329ZM31.7036 1.50966L31.676 3.0094L32.0228 3.01577L32.0504 1.51603L32.0779 0.0162799L31.7311 0.00990939L31.7036 1.50966ZM32.0504 1.51603L32.0228 3.01577C33.0717 3.03504 34.122 3.13781 35.1745 3.32474L35.4368 1.84785L35.6991 0.370964C34.494 0.156927 33.2867 0.0384843 32.0779 0.0162799L32.0504 1.51603ZM35.4368 1.84785L35.1745 3.32474L35.5213 3.38633L35.7836 1.90944L36.0459 0.432557L35.6991 0.370964L35.4368 1.84785ZM35.7836 1.90944L35.5213 3.38633L35.8681 3.44793L36.1304 1.97104L36.3927 0.49415L36.0459 0.432557L35.7836 1.90944ZM36.1304 1.97104L35.8681 3.44793C37.0912 3.66515 38.3172 3.76281 39.5448 3.73992L39.5168 2.24018L39.4888 0.740444C38.4588 0.759653 37.4272 0.677883 36.3927 0.49415L36.1304 1.97104ZM39.5168 2.24018L39.5448 3.73992L39.8916 3.73346L39.8636 2.23372L39.8356 0.733977L39.4888 0.740444L39.5168 2.24018ZM39.8636 2.23372L39.8916 3.73346L40.2384 3.72699L40.2104 2.22725L40.1824 0.72751L39.8356 0.733977L39.8636 2.23372ZM40.2104 2.22725L40.2384 3.72699C41.366 3.70596 42.4936 3.68625 43.6213 3.66787L43.5968 2.16807L43.5723 0.668267C42.4424 0.68669 41.3124 0.706438 40.1824 0.72751L40.2104 2.22725ZM43.5968 2.16807L43.6213 3.66787L43.968 3.66221L43.9436 2.16241L43.9191 0.662612L43.5723 0.668267L43.5968 2.16807ZM43.9436 2.16241L43.968 3.66221L44.3148 3.65656L44.2904 2.15676L44.2659 0.656958L43.9191 0.662612L43.9436 2.16241ZM44.2904 2.15676L44.3148 3.65656C45.3725 3.63931 46.4306 3.69708 47.4899 3.83011L47.6768 2.34181L47.8637 0.853498C46.6654 0.702992 45.4659 0.637392 44.2659 0.656958L44.2904 2.15676ZM47.6768 2.34181L47.4899 3.83011L47.8367 3.87367L48.0236 2.38536L48.2105 0.897053L47.8637 0.853498L47.6768 2.34181ZM48.0236 2.38536L47.8367 3.87367L48.1835 3.91722L48.3704 2.42892L48.5573 0.940609L48.2105 0.897053L48.0236 2.38536ZM48.3704 2.42892L48.1835 3.91722C49.1278 4.03583 49.7697 4.30104 50.2022 4.62888L51.1083 3.43348L52.0144 2.23808C51.0539 1.51004 49.8705 1.10554 48.5573 0.940609L48.3704 2.42892ZM51.1083 3.43348L50.2022 4.62888L50.4162 4.79108L51.3223 3.59568L52.2284 2.40027L52.0144 2.23808L51.1083 3.43348ZM51.3223 3.59568L50.4162 4.79108L50.6302 4.95328L51.5363 3.75787L52.4424 2.56247L52.2284 2.40027L51.3223 3.59568ZM51.5363 3.75787L50.6302 4.95328C51.0181 5.24727 51.4007 5.76293 51.6933 6.65384L53.1184 6.18579L54.5435 5.71774C54.1197 4.42731 53.4475 3.32435 52.4424 2.56247L51.5363 3.75787ZM53.1184 6.18579L51.6933 6.65384L51.8033 6.98892L53.2284 6.52088L54.6535 6.05283L54.5435 5.71774L53.1184 6.18579ZM53.2284 6.52088L51.8033 6.98892L51.9134 7.32401L53.3385 6.85596L54.7636 6.38792L54.6535 6.05283L53.2284 6.52088ZM53.3385 6.85596L51.9134 7.32401C52.1898 8.16553 52.2384 9.01006 52.0593 9.88396L53.5287 10.1852L54.9982 10.4864C55.2818 9.10268 55.2036 7.72775 54.7636 6.38792L53.3385 6.85596ZM53.5287 10.1852L52.0593 9.88396L51.9882 10.2308L53.4576 10.532L54.9271 10.8332L54.9982 10.4864L53.5287 10.1852ZM53.4576 10.532L51.9882 10.2308L51.9171 10.5776L53.3865 10.8788L54.856 11.18L54.9271 10.8332L53.4576 10.532ZM53.3865 10.8788L51.9171 10.5776C51.6515 11.8734 51.6104 13.1757 51.796 14.477L53.281 14.2652L54.766 14.0534C54.6295 13.097 54.6588 12.1418 54.856 11.18L53.3865 10.8788ZM53.281 14.2652L51.796 14.477L51.8455 14.8238L53.3305 14.612L54.8154 14.4002L54.766 14.0534L53.281 14.2652ZM53.3305 14.612L51.8455 14.8238L51.895 15.1706L53.3799 14.9588L54.8649 14.747L54.8154 14.4002L53.3305 14.612ZM53.3799 14.9588L51.895 15.1706C52.038 16.1732 52.052 17.1735 51.9374 18.1747L53.4277 18.3452L54.918 18.5157C55.0618 17.2593 55.0439 16.002 54.8649 14.747L53.3799 14.9588ZM53.4277 18.3452L51.9374 18.1747L51.8978 18.5215L53.388 18.692L54.8783 18.8625L54.918 18.5157L53.4277 18.3452ZM53.388 18.692L51.8978 18.5215L51.8581 18.8683L53.3484 19.0388L54.8386 19.2093L54.8783 18.8625L53.388 18.692ZM53.3484 19.0388L51.8581 18.8683C51.7204 20.0714 51.6735 21.2756 51.7177 22.4801L53.2167 22.4252L54.7157 22.3702C54.6771 21.3171 54.718 20.2637 54.8386 19.2093L53.3484 19.0388ZM53.2167 22.4252L51.7177 22.4801L51.7304 22.8269L53.2294 22.772L54.7284 22.717L54.7157 22.3702L53.2167 22.4252ZM53.2294 22.772L51.7304 22.8269L51.7431 23.1737L53.2421 23.1188L54.7411 23.0638L54.7284 22.717L53.2294 22.772ZM53.2421 23.1188L51.7431 23.1737C51.7837 24.2804 51.7998 25.3871 51.7914 26.4938L53.2913 26.5052L54.7913 26.5166C54.8 25.3656 54.7833 24.2147 54.7411 23.0638L53.2421 23.1188ZM53.2913 26.5052L51.7914 26.4938L51.7887 26.8406L53.2887 26.852L54.7886 26.8634L54.7913 26.5166L53.2913 26.5052ZM53.2887 26.852L51.7887 26.8406L51.7861 27.1874L53.286 27.1988L54.786 27.2102L54.7886 26.8634L53.2887 26.852ZM53.286 27.1988L51.7861 27.1874C51.7769 28.3957 51.8635 29.6031 52.0453 30.8089L53.5285 30.5852L55.0117 30.3615C54.8531 29.3096 54.778 28.2594 54.786 27.2102L53.286 27.1988ZM53.5285 30.5852L52.0453 30.8089L52.0976 31.1557L53.5808 30.932L55.064 30.7083L55.0117 30.3615L53.5285 30.5852ZM53.5808 30.932L52.0976 31.1557L52.1499 31.5025L53.6331 31.2788L55.1164 31.0551L55.064 30.7083L53.5808 30.932ZM53.6331 31.2788L52.1499 31.5025C52.3031 32.5185 52.3388 33.5321 52.2576 34.5454L53.7528 34.6652L55.2481 34.785C55.3477 33.5407 55.3036 32.2966 55.1164 31.0551L53.6331 31.2788ZM53.7528 34.6652L52.2576 34.5454L52.2299 34.8922L53.7251 35.012L55.2203 35.1318L55.2481 34.785L53.7528 34.6652ZM53.7251 35.012L52.2299 34.8922L52.2021 35.239L53.6973 35.3588L55.1925 35.4786L55.2203 35.1318L53.7251 35.012ZM53.6973 35.3588L52.2021 35.239C52.1115 36.3692 52.0226 37.4994 51.9352 38.6295L53.4307 38.7452L54.9263 38.8608C55.0134 37.7334 55.1022 36.606 55.1925 35.4786L53.6973 35.3588ZM53.4307 38.7452L51.9352 38.6295L51.9084 38.9763L53.4039 39.092L54.8995 39.2076L54.9263 38.8608L53.4307 38.7452ZM53.4039 39.092L51.9084 38.9763L51.8816 39.3231L53.3771 39.4388L54.8726 39.5544L54.8995 39.2076L53.4039 39.092ZM53.3771 39.4388L51.8816 39.3231C51.796 40.4302 51.6861 41.5374 51.5519 42.6447L53.041 42.8252L54.5301 43.0057C54.6695 41.8554 54.7837 40.705 54.8726 39.5544L53.3771 39.4388ZM53.041 42.8252L51.5519 42.6447L51.5098 42.9915L52.9989 43.172L54.488 43.3525L54.5301 43.0057L53.041 42.8252ZM52.9989 43.172L51.5098 42.9915L51.4678 43.3383L52.9569 43.5188L54.446 43.6993L54.488 43.3525L52.9989 43.172ZM52.9569 43.5188L51.4678 43.3383C51.3132 44.6136 51.3468 45.8896 51.5675 47.1616L53.0454 46.9052L54.5233 46.6487C54.3523 45.6631 54.3269 44.6815 54.446 43.6993L52.9569 43.5188ZM53.0454 46.9052L51.5675 47.1616L51.6277 47.5084L53.1056 47.252L54.5835 46.9955L54.5233 46.6487L53.0454 46.9052ZM53.1056 47.252L51.6277 47.5084L51.6879 47.8552L53.1658 47.5988L54.6437 47.3423L54.5835 46.9955L53.1056 47.252ZM53.1658 47.5988L51.6879 47.8552C51.8743 48.9299 51.9999 50.0033 52.0648 51.0758L53.5621 50.9852L55.0593 50.8945C54.9876 49.7094 54.849 48.5253 54.6437 47.3423L53.1658 47.5988ZM53.5621 50.9852L52.0648 51.0758L52.0858 51.4226L53.5831 51.332L55.0803 51.2413L55.0593 50.8945L53.5621 50.9852ZM53.5831 51.332L52.0858 51.4226L52.1068 51.7694L53.6041 51.6788L55.1013 51.5881L55.0803 51.2413L53.5831 51.332ZM53.6041 51.6788L52.1068 51.7694C52.1709 52.8279 52.1605 53.8863 52.0755 54.9451L53.5707 55.0652L55.0658 55.1852C55.1621 53.9864 55.1739 52.7872 55.1013 51.5881L53.6041 51.6788ZM53.5707 55.0652L52.0755 54.9451L52.0476 55.2919L53.5428 55.412L55.038 55.532L55.0658 55.1852L53.5707 55.0652ZM53.5428 55.412L52.0476 55.2919L52.0198 55.6387L53.515 55.7588L55.0102 55.8788L55.038 55.532L53.5428 55.412ZM53.515 55.7588L52.0198 55.6387C51.9233 56.8405 51.915 58.0427 51.9949 59.2447L53.4916 59.1452L54.9883 59.0457C54.9181 57.9901 54.9254 56.9346 55.0102 55.8788L53.515 55.7588ZM53.4916 59.1452L51.9949 59.2447L52.0179 59.5915L53.5146 59.492L55.0113 59.3925L54.9883 59.0457L53.4916 59.1452ZM53.5146 59.492L52.0179 59.5915L52.041 59.9383L53.5377 59.8388L55.0344 59.7393L55.0113 59.3925L53.5146 59.492ZM53.5377 59.8388L52.041 59.9383C52.1054 60.9071 52.0173 61.8797 51.772 62.8617L53.2273 63.2252L54.6826 63.5887C55.0012 62.313 55.1201 61.028 55.0344 59.7393L53.5377 59.8388ZM53.2273 63.2252L51.772 62.8617L51.6854 63.2085L53.1407 63.572L54.596 63.9355L54.6826 63.5887L53.2273 63.2252ZM53.1407 63.572L51.6854 63.2085L51.5988 63.5553L53.054 63.9188L54.5093 64.2823L54.596 63.9355L53.1407 63.572ZM53.054 63.9188L51.5988 63.5553C51.2551 64.9312 51.2666 66.3176 51.6316 67.6906L53.0813 67.3052L54.5309 66.9198C54.2957 66.0351 54.2891 65.164 54.5093 64.2823L53.054 63.9188ZM53.0813 67.3052L51.6316 67.6906L51.7238 68.0374L53.1735 67.652L54.6231 67.2666L54.5309 66.9198L53.0813 67.3052ZM53.1735 67.652L51.7238 68.0374L51.816 68.3842L53.2657 67.9988L54.7153 67.6134L54.6231 67.2666L53.1735 67.652ZM53.2657 67.9988L51.816 68.3842C52.0521 69.272 52.0613 70.1462 51.8459 71.03L53.3032 71.3852L54.7606 71.7403C55.0954 70.3665 55.0795 68.9831 54.7153 67.6134L53.2657 67.9988ZM53.3032 71.3852L51.8459 71.03L51.7614 71.3768L53.2187 71.732L54.6761 72.0871L54.7606 71.7403L53.3032 71.3852ZM53.2187 71.732L51.7614 71.3768L51.6768 71.7236L53.1342 72.0788L54.5916 72.4339L54.6761 72.0871L53.2187 71.732ZM53.1342 72.0788L51.6768 71.7236C51.3802 72.9411 51.1995 74.163 51.1365 75.3881L52.6345 75.4652L54.1325 75.5422C54.1856 74.5098 54.3381 73.474 54.5916 72.4339L53.1342 72.0788ZM52.6345 75.4652L51.1365 75.3881L51.1186 75.7349L52.6167 75.812L54.1147 75.889L54.1325 75.5422L52.6345 75.4652ZM52.6167 75.812L51.1186 75.7349L51.1008 76.0817L52.5988 76.1588L54.0968 76.2358L54.1147 75.889L52.6167 75.812ZM52.5988 76.1588L51.1008 76.0817C51.0347 77.368 51.169 78.6496 51.4988 79.9216L52.9508 79.5452L54.4027 79.1687C54.1472 78.1831 54.0469 77.2072 54.0968 76.2358L52.5988 76.1588ZM52.9508 79.5452L51.4988 79.9216L51.5887 80.2684L53.0407 79.892L54.4927 79.5155L54.4027 79.1687L52.9508 79.5452ZM53.0407 79.892L51.5887 80.2684L51.6786 80.6152L53.1306 80.2388L54.5826 79.8623L54.4927 79.5155L53.0407 79.892ZM53.1306 80.2388L51.6786 80.6152C51.9506 81.6642 52.1296 82.7091 52.2171 83.7507L53.7119 83.6252L55.2066 83.4996C55.1044 82.2837 54.896 81.071 54.5826 79.8623L53.1306 80.2388ZM53.7119 83.6252L52.2171 83.7507L52.2463 84.0975L53.741 83.972L55.2357 83.8464L55.2066 83.4996L53.7119 83.6252ZM53.741 83.972L52.2463 84.0975L52.2754 84.4443L53.7701 84.3188L55.2649 84.1932L55.2357 83.8464L53.741 83.972ZM53.7701 84.3188L52.2754 84.4443C52.3654 85.5156 52.3932 86.5865 52.359 87.6572L53.8582 87.7052L55.3574 87.7531C55.3954 86.5663 55.3645 85.3795 55.2649 84.1932L53.7701 84.3188ZM53.8582 87.7052L52.359 87.6572L52.3479 88.004L53.8471 88.052L55.3463 88.0999L55.3574 87.7531L53.8582 87.7052ZM53.8471 88.052L52.3479 88.004L52.3368 88.3508L53.836 88.3988L55.3353 88.4467L55.3463 88.0999L53.8471 88.052ZM53.836 88.3988L52.3368 88.3508C52.3049 89.3481 52.1431 90.3516 51.8469 91.364L53.2865 91.7852L54.7262 92.2063C55.0905 90.9612 55.2949 89.7071 55.3353 88.4467L53.836 88.3988ZM53.2865 91.7852L51.8469 91.364L51.7454 91.7108L53.1851 92.132L54.6247 92.5531L54.7262 92.2063L53.2865 91.7852ZM53.1851 92.132L51.7454 91.7108L51.644 92.0576L53.0836 92.4788L54.5233 92.8999L54.6247 92.5531L53.1851 92.132ZM53.0836 92.4788L51.644 92.0576C51.2573 93.3794 51.147 94.7178 51.3227 96.0599L52.81 95.8652L54.2973 95.6704C54.1774 94.7549 54.2495 93.8357 54.5233 92.8999L53.0836 92.4788ZM52.81 95.8652L51.3227 96.0599L51.3681 96.4067L52.8554 96.212L54.3427 96.0172L54.2973 95.6704L52.81 95.8652ZM52.8554 96.212L51.3681 96.4067L51.4135 96.7535L52.9008 96.5588L54.3881 96.364L54.3427 96.0172L52.8554 96.212ZM52.9008 96.5588L51.4135 96.7535C51.5424 97.7377 51.5277 98.7206 51.3689 99.7067L52.8498 99.9452L54.3308 100.184C54.5355 98.9121 54.5549 97.6374 54.3881 96.364L52.9008 96.5588ZM52.8498 99.9452L51.3689 99.7067L51.3131 100.053L52.794 100.292L54.2749 100.53L54.3308 100.184L52.8498 99.9452ZM52.794 100.292L51.3131 100.053L51.2572 100.4L52.7381 100.639L54.2191 100.877L54.2749 100.53L52.794 100.292ZM52.7381 100.639L51.2572 100.4C51.0598 101.626 50.9849 102.855 51.0333 104.084L52.5321 104.025L54.0309 103.966C53.9905 102.938 54.0529 101.909 54.2191 100.877L52.7381 100.639ZM52.5321 104.025L51.0333 104.084L51.0469 104.431L52.5457 104.372L54.0446 104.313L54.0309 103.966L52.5321 104.025ZM52.5457 104.372L51.0469 104.431L51.0606 104.778L52.5594 104.719L54.0582 104.66L54.0446 104.313L52.5457 104.372ZM52.5594 104.719L51.0606 104.778C51.1071 105.96 51.2164 107.141 51.3883 108.321L52.8726 108.105L54.3569 107.889C54.2001 106.812 54.1006 105.735 54.0582 104.66L52.5594 104.719ZM52.8726 108.105L51.3883 108.321L51.4388 108.668L52.9231 108.452L54.4075 108.236L54.3569 107.889L52.8726 108.105ZM52.9231 108.452L51.4388 108.668L51.4893 109.015L52.9736 108.799L54.458 108.583L54.4075 108.236L52.9231 108.452ZM52.9736 108.799L51.4893 109.015C51.6522 110.134 51.8037 111.253 51.9437 112.371L53.4321 112.185L54.9205 111.999C54.778 110.86 54.6238 109.721 54.458 108.583L52.9736 108.799ZM53.4321 112.185L51.9437 112.371L51.9872 112.718L53.4755 112.532L54.9639 112.346L54.9205 111.999L53.4321 112.185ZM53.4755 112.532L51.9872 112.718L52.0306 113.065L53.519 112.879L55.0073 112.692L54.9639 112.346L53.4755 112.532ZM53.519 112.879L52.0306 113.065C52.1525 114.039 52.1235 115.013 51.942 115.992L53.4169 116.265L54.8917 116.539C55.1289 115.26 55.168 113.976 55.0073 112.692L53.519 112.879ZM53.4169 116.265L51.942 115.992L51.8777 116.338L53.3526 116.612L54.8274 116.885L54.8917 116.539L53.4169 116.265ZM53.3526 116.612L51.8777 116.338L51.8134 116.685L53.2883 116.959L54.7631 117.232L54.8274 116.885L53.3526 116.612ZM53.2883 116.959L51.8134 116.685C51.5987 117.843 51.4194 119.002 51.2758 120.161L52.7644 120.345L54.253 120.53C54.3892 119.431 54.5592 118.332 54.7631 117.232L53.2883 116.959ZM52.7644 120.345L51.2758 120.161L51.2328 120.507L52.7214 120.692L54.21 120.877L54.253 120.53L52.7644 120.345ZM52.7214 120.692L51.2328 120.507L51.1898 120.854L52.6784 121.039L54.167 121.223L54.21 120.877L52.7214 120.692ZM52.6784 121.039L51.1898 120.854C51.0487 121.992 50.9239 123.083 50.8153 124.128L52.3073 124.283L53.7993 124.438C53.9056 123.415 54.0282 122.343 54.167 121.223L52.6784 121.039ZM52.3073 124.283L50.8153 124.128L50.7823 124.446L52.2743 124.601L53.7662 124.756L53.7993 124.438L52.3073 124.283ZM52.2743 124.601L50.7823 124.446L50.7493 124.764L52.2413 124.919L53.7332 125.074L53.7662 124.756L52.2743 124.601ZM52.2413 124.919L50.7493 124.764C50.7226 125.021 50.6526 125.106 50.6251 125.135C50.5906 125.171 50.4776 125.269 50.1543 125.335L50.4569 126.804L50.7595 128.274C51.5183 128.117 52.2437 127.789 52.8041 127.197C53.3714 126.597 53.6525 125.851 53.7332 125.074L52.2413 124.919ZM50.4569 126.804L50.1543 125.335L49.8218 125.404L50.1244 126.873L50.427 128.342L50.7595 128.274L50.4569 126.804ZM50.1244 126.873L49.8218 125.404L49.4893 125.472L49.7919 126.941L50.0945 128.411L50.427 128.342L50.1244 126.873ZM49.7919 126.941L49.4893 125.472C48.6044 125.655 47.6946 125.662 46.7487 125.487L46.4755 126.962L46.2024 128.437C47.5141 128.68 48.8153 128.674 50.0945 128.411L49.7919 126.941ZM46.4755 126.962L46.7487 125.487L46.4019 125.423L46.1287 126.898L45.8556 128.373L46.2024 128.437L46.4755 126.962ZM46.1287 126.898L46.4019 125.423L46.0551 125.359L45.7819 126.834L45.5088 128.309L45.8556 128.373L46.1287 126.898ZM45.7819 126.834L46.0551 125.359C44.7719 125.121 43.4838 125.088 42.1967 125.26L42.3955 126.747L42.5944 128.233C43.5649 128.104 44.5344 128.128 45.5088 128.309L45.7819 126.834ZM42.3955 126.747L42.1967 125.26L41.8499 125.306L42.0487 126.793L42.2476 128.28L42.5944 128.233L42.3955 126.747ZM42.0487 126.793L41.8499 125.306L41.5031 125.353L41.702 126.839L41.9008 128.326L42.2476 128.28L42.0487 126.793ZM41.702 126.839L41.5031 125.353C40.4996 125.487 39.4979 125.493 38.495 125.372L38.3155 126.862L38.1361 128.351C39.3908 128.502 40.6467 128.494 41.9008 128.326L41.702 126.839ZM38.3155 126.862L38.495 125.372L38.1482 125.331L37.9688 126.82L37.7893 128.309L38.1361 128.351L38.3155 126.862ZM37.9688 126.82L38.1482 125.331L37.8014 125.289L37.6219 126.778L37.4425 128.267L37.7893 128.309L37.9688 126.82ZM37.6219 126.778L37.8014 125.289C36.583 125.142 35.3633 125.106 34.1435 125.181L34.2355 126.678L34.3276 128.175C35.3654 128.111 36.4033 128.142 37.4425 128.267L37.6219 126.778ZM34.2355 126.678L34.1435 125.181L33.7967 125.202L33.8887 126.699L33.9808 128.197L34.3276 128.175L34.2355 126.678ZM33.8887 126.699L33.7967 125.202L33.4499 125.224L33.5419 126.721L33.634 128.218L33.9808 128.197L33.8887 126.699ZM33.5419 126.721L33.4499 125.224C32.2865 125.295 31.1233 125.407 29.9606 125.56L30.1556 127.047L30.3505 128.534C31.4454 128.391 32.5398 128.285 33.634 128.218L33.5419 126.721ZM30.1556 127.047L29.9606 125.56L29.6138 125.605L29.8088 127.092L30.0037 128.58L30.3505 128.534L30.1556 127.047ZM29.8088 127.092L29.6138 125.605L29.267 125.65L29.462 127.138L29.6569 128.625L30.0037 128.58L29.8088 127.092ZM29.462 127.138L29.267 125.65C28.1868 125.792 27.1074 125.88 26.0284 125.914L26.0756 127.413L26.1227 128.912C27.3013 128.875 28.4795 128.779 29.6569 128.625L29.462 127.138ZM26.0756 127.413L26.0284 125.914L25.6816 125.925L25.7288 127.424L25.7759 128.923L26.1227 128.912L26.0756 127.413ZM25.7288 127.424L25.6816 125.925L25.3348 125.935L25.3819 127.435L25.4291 128.934L25.7759 128.923L25.7288 127.424ZM25.3819 127.435L25.3348 125.935C24.3383 125.967 23.3385 125.868 22.3323 125.636L21.9956 127.098L21.6588 128.56C22.9102 128.848 24.168 128.974 25.4291 128.934L25.3819 127.435ZM21.9956 127.098L22.3323 125.636L21.9855 125.556L21.6488 127.018L21.312 128.48L21.6588 128.56L21.9956 127.098ZM21.6488 127.018L21.9855 125.556L21.6387 125.476L21.3019 126.938L20.9652 128.4L21.312 128.48L21.6488 127.018ZM21.3019 126.938L21.6387 125.476C20.2737 125.162 18.9008 125.182 17.5405 125.533L17.9156 126.985L18.2906 128.438C19.1879 128.206 20.0726 128.194 20.9652 128.4L21.3019 126.938ZM17.9156 126.985L17.5405 125.533L17.1937 125.623L17.5688 127.075L17.9438 128.527L18.2906 128.438L17.9156 126.985ZM17.5688 127.075L17.1937 125.623L16.8469 125.712L17.222 127.164L17.597 128.617L17.9438 128.527L17.5688 127.075ZM17.222 127.164L16.8469 125.712C15.8693 125.965 14.902 126.055 13.9388 125.988L13.8355 127.485L13.7323 128.981C15.0267 129.071 16.317 128.947 17.597 128.617L17.222 127.164ZM13.8355 127.485L13.9388 125.988L13.592 125.964L13.4887 127.461L13.3855 128.957L13.7323 128.981L13.8355 127.485ZM13.4887 127.461L13.592 125.964L13.2452 125.941L13.1419 127.437L13.0387 128.933L13.3855 128.957L13.4887 127.461ZM13.1419 127.437L13.2452 125.941C12.1181 125.863 10.9909 125.783 9.86375 125.702L9.75555 127.198L9.64735 128.694C10.7778 128.775 11.9082 128.855 13.0387 128.933L13.1419 127.437ZM9.75555 127.198L9.86375 125.702L9.51695 125.676L9.40875 127.173L9.30055 128.669L9.64735 128.694L9.75555 127.198ZM9.40875 127.173L9.51695 125.676L9.17015 125.651L9.06195 127.147L8.95375 128.644L9.30055 128.669L9.40875 127.173ZM9.06195 127.147L9.17015 125.651C7.99567 125.566 6.78954 125.533 5.55212 125.551L5.57405 127.051L5.59599 128.551C6.7515 128.534 7.87064 128.565 8.95375 128.644L9.06195 127.147ZM5.57405 127.051L5.55212 125.551L5.18453 125.557L5.20646 127.057L5.2284 128.556L5.59599 128.551L5.57405 127.051ZM5.20646 127.057L5.18453 125.557L4.81694 125.562L4.83888 127.062L4.86081 128.562L5.2284 128.556L5.20646 127.057ZM4.83888 127.062L4.81694 125.562C4.46859 125.567 4.28933 125.489 4.18692 125.417C4.08037 125.343 3.92815 125.186 3.78992 124.82L2.38697 125.351L0.984011 125.882C1.28392 126.675 1.75942 127.382 2.47018 127.878C3.18507 128.376 4.01269 128.574 4.86081 128.562L4.83888 127.062ZM2.38697 125.351L3.78992 124.82L3.65531 124.465L2.25236 124.995L0.849402 125.526L0.984011 125.882L2.38697 125.351ZM2.25236 124.995L3.65531 124.465L3.52071 124.109L2.11775 124.639L0.714792 125.17L0.849402 125.526L2.25236 124.995ZM2.11775 124.639L3.52071 124.109C3.1963 123.251 3.17678 122.455 3.42841 121.664L1.99893 121.209L0.569456 120.755C0.103231 122.221 0.162923 123.711 0.714792 125.17L2.11775 124.639ZM1.99893 121.209L3.42841 121.664L3.53868 121.317L2.1092 120.862L0.679729 120.408L0.569456 120.755L1.99893 121.209ZM2.1092 120.862L3.53868 121.317L3.64895 120.97L2.21948 120.515L0.790002 120.061L0.679729 120.408L2.1092 120.862ZM2.21948 120.515L3.64895 120.97C4.05585 119.69 4.24787 118.396 4.21597 117.092L2.71642 117.129L1.21687 117.166C1.24023 118.12 1.10096 119.083 0.790002 120.061L2.21948 120.515ZM2.71642 117.129L4.21597 117.092L4.20748 116.746L2.70793 116.782L1.20838 116.819L1.21687 117.166L2.71642 117.129ZM2.70793 116.782L4.20748 116.746L4.19899 116.399L2.69944 116.435L1.19989 116.472L1.20838 116.819L2.70793 116.782ZM2.69944 116.435L4.19899 116.399C4.16801 115.133 3.96592 113.874 3.59758 112.625L2.1588 113.049L0.720026 113.473C1.01726 114.481 1.1756 115.48 1.19989 116.472L2.69944 116.435ZM2.1588 113.049L3.59758 112.625L3.49534 112.278L2.05656 112.702L0.617784 113.126L0.720026 113.473L2.1588 113.049ZM2.05656 112.702L3.49534 112.278L3.39309 111.931L1.95432 112.355L0.515542 112.78L0.617784 113.126L2.05656 112.702ZM1.95432 112.355L3.39309 111.931C3.121 111.008 3.06033 110.103 3.20104 109.2L1.71892 108.969L0.2368 108.738C0.0258007 110.093 0.122055 111.445 0.515542 112.78L1.95432 112.355ZM1.71892 108.969L3.20104 109.2L3.25507 108.853L1.77295 108.622L0.290829 108.391L0.2368 108.738L1.71892 108.969ZM1.77295 108.622L3.25507 108.853L3.3091 108.506L1.82698 108.275L0.344857 108.045L0.290829 108.391L1.77295 108.622ZM1.82698 108.275L3.3091 108.506C3.48329 107.388 3.66991 106.27 3.86896 105.152L2.39218 104.889L0.915396 104.626C0.712565 105.766 0.522385 106.905 0.344857 108.045L1.82698 108.275ZM2.39218 104.889L3.86896 105.152L3.9307 104.805L2.45391 104.542L0.977131 104.279L0.915396 104.626L2.39218 104.889ZM2.45391 104.542L3.9307 104.805L3.99243 104.458L2.51565 104.195L1.03887 103.933L0.977131 104.279L2.45391 104.542ZM2.51565 104.195L3.99243 104.458C4.2099 103.237 4.30974 102.012 4.29099 100.786L2.79116 100.809L1.29134 100.832C1.30712 101.864 1.22328 102.897 1.03887 103.933L2.51565 104.195ZM2.79116 100.809L4.29099 100.786L4.28568 100.439L2.78586 100.462L1.28603 100.485L1.29134 100.832L2.79116 100.809ZM2.78586 100.462L4.28568 100.439L4.28038 100.093L2.78055 100.115L1.28073 100.138L1.28603 100.485L2.78586 100.462ZM2.78055 100.115L4.28038 100.093C4.26197 98.8896 4.15475 97.6879 3.95919 96.4878L2.47872 96.7291L0.998247 96.9703C1.17059 98.0279 1.26459 99.0837 1.28073 100.138L2.78055 100.115ZM2.47872 96.7291L3.95919 96.4878L3.90267 96.141L2.4222 96.3823L0.94173 96.6236L0.998247 96.9703L2.47872 96.7291ZM2.4222 96.3823L3.90267 96.141L3.84615 95.7942L2.36568 96.0355L0.885214 96.2767L0.94173 96.6236L2.4222 96.3823ZM2.36568 96.0355L3.84615 95.7942C3.67789 94.7617 3.61264 93.7317 3.64957 92.7029L2.15054 92.6491L0.651501 92.5953C0.607391 93.824 0.68557 95.0517 0.885214 96.2767L2.36568 96.0355ZM2.15054 92.6491L3.64957 92.7029L3.66202 92.3561L2.16298 92.3023L0.66395 92.2485L0.651501 92.5953L2.15054 92.6491ZM2.16298 92.3023L3.66202 92.3561L3.67447 92.0093L2.17543 91.9555L0.676399 91.9017L0.66395 92.2485L2.16298 92.3023ZM2.17543 91.9555L3.67447 92.0093C3.71662 90.8351 3.70549 89.661 3.64111 88.4869L2.14336 88.5691L0.645608 88.6512C0.705033 89.7348 0.715293 90.8182 0.676399 91.9017L2.17543 91.9555ZM2.14336 88.5691L3.64111 88.4869L3.62209 88.1401L2.12434 88.2223L0.626588 88.3044L0.645608 88.6512L2.14336 88.5691ZM2.12434 88.2223L3.62209 88.1401L3.60307 87.7933L2.10532 87.8755L0.607569 87.9576L0.626588 88.3044L2.12434 88.2223ZM2.10532 87.8755L3.60307 87.7933C3.54262 86.6911 3.51153 85.5889 3.50981 84.4867L2.00981 84.4891L0.509814 84.4914C0.51162 85.6469 0.544208 86.8023 0.607569 87.9576L2.10532 87.8755ZM2.00981 84.4891L3.50981 84.4867L3.50927 84.1399L2.00927 84.1423L0.509272 84.1446L0.509814 84.4914L2.00981 84.4891ZM2.00927 84.1423L3.50927 84.1399L3.50873 83.7931L2.00873 83.7955L0.50873 83.7978L0.509272 84.1446L2.00927 84.1423ZM2.00873 83.7955L3.50873 83.7931C3.50689 82.6198 3.45285 81.4466 3.34666 80.2738L1.85278 80.4091L0.358886 80.5443C0.457105 81.6291 0.507035 82.7136 0.50873 83.7978L2.00873 83.7955ZM1.85278 80.4091L3.34666 80.2738L3.31526 79.927L1.82138 80.0623L0.327486 80.1975L0.358886 80.5443L1.85278 80.4091ZM1.82138 80.0623L3.31526 79.927L3.28386 79.5802L1.78998 79.7155L0.296086 79.8507L0.327486 80.1975L1.82138 80.0623ZM1.78998 79.7155L3.28386 79.5802C3.1925 78.5712 3.22199 77.5621 3.373 76.5506L1.88944 76.3291L0.405885 76.1076C0.219865 77.3537 0.183041 78.6022 0.296086 79.8507L1.78998 79.7155ZM1.88944 76.3291L3.373 76.5506L3.42478 76.2038L1.94122 75.9823L0.457658 75.7608L0.405885 76.1076L1.88944 76.3291ZM1.94122 75.9823L3.42478 76.2038L3.47655 75.857L1.99299 75.6355L0.509431 75.414L0.457658 75.7608L1.94122 75.9823ZM1.99299 75.6355L3.47655 75.857C3.64769 74.7106 3.79805 73.5641 3.92763 72.4175L2.43712 72.2491L0.946605 72.0806C0.821048 73.1916 0.675327 74.3028 0.509431 75.414L1.99299 75.6355ZM2.43712 72.2491L3.92763 72.4175L3.96682 72.0707L2.47631 71.9023L0.985798 71.7338L0.946605 72.0806L2.43712 72.2491ZM2.47631 71.9023L3.96682 72.0707L4.00601 71.7239L2.5155 71.5555L1.02499 71.387L0.985798 71.7338L2.47631 71.9023ZM2.5155 71.5555L4.00601 71.7239C4.14714 70.4752 4.13719 69.2254 3.97637 67.9774L2.48867 68.1691L1.00097 68.3608C1.13106 69.3703 1.139 70.3782 1.02499 71.387L2.5155 71.5555ZM2.48867 68.1691L3.97637 67.9774L3.93168 67.6306L2.44398 67.8223L0.95628 68.014L1.00097 68.3608L2.48867 68.1691ZM2.44398 67.8223L3.93168 67.6306L3.88699 67.2838L2.39929 67.4755L0.911591 67.6672L0.95628 68.014L2.44398 67.8223ZM2.39929 67.4755L3.88699 67.2838C3.74886 66.2118 3.67317 65.1408 3.65973 64.0703L2.15985 64.0891L0.659964 64.1079C0.674867 65.295 0.758805 66.4815 0.911591 67.6672L2.39929 67.4755ZM2.15985 64.0891L3.65973 64.0703L3.65537 63.7235L2.15549 63.7423L0.655609 63.7611L0.659964 64.1079L2.15985 64.0891ZM2.15549 63.7423L3.65537 63.7235L3.65102 63.3767L2.15114 63.3955L0.651255 63.4143L0.655609 63.7611L2.15549 63.7423ZM2.15114 63.3955L3.65102 63.3767C3.63731 62.2846 3.66366 61.1924 3.7301 60.1002L2.23287 60.0091L0.735638 59.918C0.664755 61.0833 0.636622 62.2488 0.651255 63.4143L2.15114 63.3955ZM2.23287 60.0091L3.7301 60.1002L3.7512 59.7534L2.25397 59.6623L0.756733 59.5712L0.735638 59.918L2.23287 60.0091ZM2.25397 59.6623L3.7512 59.7534L3.77229 59.4066L2.27506 59.3155L0.777827 59.2244L0.756733 59.5712L2.25397 59.6623ZM2.27506 59.3155L3.77229 59.4066C3.84447 58.22 3.84793 57.0333 3.78268 55.8467L2.28494 55.9291L0.787207 56.0114C0.846101 57.0825 0.842977 58.1533 0.777827 59.2244L2.27506 59.3155ZM2.28494 55.9291L3.78268 55.8467L3.76361 55.4999L2.26587 55.5823L0.768137 55.6646L0.787207 56.0114L2.28494 55.9291ZM2.26587 55.5823L3.76361 55.4999L3.74454 55.1531L2.2468 55.2355L0.749067 55.3178L0.768137 55.6646L2.26587 55.5823ZM2.2468 55.2355L3.74454 55.1531C3.68644 54.0965 3.70464 53.0399 3.79923 51.9828L2.3052 51.8491L0.811167 51.7154C0.703755 52.9159 0.683025 54.1169 0.749067 55.3178L2.2468 55.2355ZM2.3052 51.8491L3.79923 51.9828L3.83026 51.636L2.33623 51.5023L0.842197 51.3686L0.811167 51.7154L2.3052 51.8491ZM2.33623 51.5023L3.83026 51.636L3.86129 51.2892L2.36726 51.1555L0.873228 51.0218L0.842197 51.3686L2.33623 51.5023ZM2.36726 51.1555L3.86129 51.2892C3.96435 50.1374 4.04066 48.9855 4.09022 47.8336L2.5916 47.7691L1.09299 47.7046C1.04542 48.8102 0.972175 49.916 0.873228 51.0218L2.36726 51.1555ZM2.5916 47.7691L4.09022 47.8336L4.10514 47.4868L2.60652 47.4223L1.10791 47.3578L1.09299 47.7046L2.5916 47.7691ZM2.60652 47.4223L4.10514 47.4868L4.12006 47.14L2.62144 47.0755L1.12283 47.011L1.10791 47.3578L2.60652 47.4223ZM2.62144 47.0755L4.12006 47.14C4.17043 45.969 4.17135 44.7979 4.12281 43.627L2.6241 43.6891L1.12539 43.7512C1.17043 44.8378 1.16958 45.9244 1.12283 47.011L2.62144 47.0755ZM2.6241 43.6891L4.12281 43.627L4.10844 43.2802L2.60972 43.3423L1.11101 43.4044L1.12539 43.7512L2.6241 43.6891ZM2.60972 43.3423L4.10844 43.2802L4.09406 42.9334L2.59535 42.9955L1.09664 43.0576L1.11101 43.4044L2.60972 43.3423ZM2.59535 42.9955L4.09406 42.9334C4.04652 41.7863 3.97799 40.6393 3.8885 39.4924L2.39304 39.6091L0.897589 39.7258C0.984255 40.8364 1.0506 41.9471 1.09664 43.0576L2.59535 42.9955ZM2.39304 39.6091L3.8885 39.4924L3.86144 39.1456L2.36598 39.2623L0.870528 39.379L0.897589 39.7258L2.39304 39.6091ZM2.36598 39.2623L3.86144 39.1456L3.83438 38.7988L2.33892 38.9155L0.843467 39.0322L0.870528 39.379L2.36598 39.2623ZM2.33892 38.9155L3.83438 38.7988C3.74961 37.7125 3.71144 36.6265 3.71981 35.5406L2.21985 35.5291L0.719896 35.5175C0.710865 36.6892 0.752067 37.8608 0.843467 39.0322L2.33892 38.9155ZM2.21985 35.5291L3.71981 35.5406L3.72248 35.1938L2.22252 35.1823L0.722569 35.1707L0.719896 35.5175L2.21985 35.5291ZM2.22252 35.1823L3.72248 35.1938L3.72515 34.847L2.2252 34.8355L0.725242 34.8239L0.722569 35.1707L2.22252 35.1823ZM2.2252 34.8355L3.72515 34.847C3.73359 33.7531 3.7801 32.659 3.86472 31.5647L2.36919 31.4491L0.873655 31.3334C0.783691 32.4968 0.734212 33.6603 0.725242 34.8239L2.2252 34.8355ZM2.36919 31.4491L3.86472 31.5647L3.89154 31.2179L2.39601 31.1023L0.900475 30.9866L0.873655 31.3334L2.36919 31.4491ZM2.39601 31.1023L3.89154 31.2179L3.91836 30.8711L2.42283 30.7555L0.927294 30.6398L0.900475 30.9866L2.39601 31.1023ZM2.42283 30.7555L3.91836 30.8711C4.01558 29.614 3.95169 28.3577 3.72809 27.1054L2.25144 27.3691L0.774794 27.6327C0.954294 28.638 1.00466 29.6394 0.927294 30.6398L2.42283 30.7555ZM2.25144 27.3691L3.72809 27.1054L3.66616 26.7586L2.18952 27.0223L0.712871 27.2859L0.774794 27.6327L2.25144 27.3691ZM2.18952 27.0223L3.66616 26.7586L3.60424 26.4118L2.12759 26.6755L0.650948 26.9391L0.712871 27.2859L2.18952 27.0223ZM2.12759 26.6755L3.60424 26.4118C3.42609 25.4141 3.38371 24.4205 3.47569 23.4274L1.98208 23.2891L0.488475 23.1507C0.371361 24.4152 0.425988 25.6793 0.650948 26.9391L2.12759 26.6755ZM1.98208 23.2891L3.47569 23.4274L3.50781 23.0806L2.0142 22.9423L0.520595 22.8039L0.488475 23.1507L1.98208 23.2891ZM2.0142 22.9423L3.50781 23.0806L3.53993 22.7338L2.04632 22.5955L0.552715 22.4571L0.520595 22.8039L2.0142 22.9423ZM2.04632 22.5955L3.53993 22.7338C3.65751 21.4643 3.59637 20.1954 3.35825 18.9314L1.88417 19.2091L0.410102 19.4868C0.597268 20.4803 0.644224 21.4691 0.552715 22.4571L2.04632 22.5955ZM1.88417 19.2091L3.35825 18.9314L3.29292 18.5846L1.81884 18.8623L0.344772 19.14L0.410102 19.4868L1.88417 19.2091ZM1.81884 18.8623L3.29292 18.5846L3.22759 18.2378L1.75351 18.5155L0.279441 18.7932L0.344772 19.14L1.81884 18.8623ZM1.75351 18.5155L3.22759 18.2378C3.03634 17.2226 2.96606 16.2115 3.0152 15.202L1.51697 15.1291L0.0187438 15.0562C-0.0420141 16.3043 0.045393 17.5508 0.279441 18.7932L1.75351 18.5155ZM1.51697 15.1291L3.0152 15.202L3.03208 14.8552L1.53385 14.7823L0.0356257 14.7094L0.0187438 15.0562L1.51697 15.1291ZM1.53385 14.7823L3.03208 14.8552L3.04896 14.5084L1.55073 14.4355L0.0525074 14.3626L0.0356257 14.7094L1.53385 14.7823ZM1.55073 14.4355L3.04896 14.5084C3.099 13.4803 3.25238 12.4487 3.51098 11.4122L2.0556 11.0491L0.600208 10.686C0.295555 11.9071 0.11236 13.133 0.0525074 14.3626L1.55073 14.4355ZM2.0556 11.0491L3.51098 11.4122L3.59751 11.0654L2.14212 10.7023L0.686731 10.3392L0.600208 10.686L2.0556 11.0491ZM2.14212 10.7023L3.59751 11.0654L3.68403 10.7186L2.22864 10.3555L0.773255 9.99238L0.686731 10.3392L2.14212 10.7023ZM2.22864 10.3555L3.68403 10.7186C4.00852 9.41799 4.0962 8.10583 3.94232 6.79076L2.45248 6.96509L0.962649 7.13942C1.07356 8.08727 1.01202 9.03537 0.773255 9.99238L2.22864 10.3555ZM2.45248 6.96509L3.94232 6.79076L3.90164 6.44314L2.41181 6.61747L0.921973 6.7918L0.962649 7.13942L2.45248 6.96509ZM2.41181 6.61747L3.90164 6.44314L3.86097 6.09552L2.37113 6.26985L0.881296 6.44419L0.921973 6.7918L2.41181 6.61747ZM2.37113 6.26985L3.86097 6.09552C3.81683 5.71832 3.86412 5.49435 3.91695 5.36617C3.96419 5.25154 4.04643 5.13607 4.22812 5.01666L3.40429 3.76314L2.58047 2.50962C1.94099 2.92989 1.44044 3.50204 1.1433 4.22298C0.851741 4.93038 0.793036 5.68992 0.881296 6.44419L2.37113 6.26985ZM3.40429 3.76314L4.22812 5.01666L4.4804 4.85085L3.65658 3.59733L2.83276 2.34381L2.58047 2.50962L3.40429 3.76314ZM3.65658 3.59733L4.4804 4.85085L4.73269 4.68505L3.90887 3.43153L3.08505 2.178L2.83276 2.34381L3.65658 3.59733ZM3.90887 3.43153L4.73269 4.68505C5.15568 4.40706 5.51096 4.15875 5.77402 3.94837C5.90174 3.84622 6.04515 3.72354 6.171 3.5885C6.23347 3.52147 6.32032 3.42106 6.40167 3.29282C6.469 3.18669 6.61822 2.93093 6.65189 2.57242L5.15846 2.43216L3.66503 2.29191C3.68151 2.11642 3.72699 1.97861 3.76358 1.88936C3.80092 1.79829 3.84067 1.7295 3.8684 1.68579C3.92149 1.6021 3.96743 1.5527 3.97635 1.54313C3.9951 1.52301 3.98082 1.54107 3.90028 1.60548C3.7468 1.72823 3.48324 1.91631 3.08505 2.178L3.90887 3.43153ZM5.15846 2.43216L6.65189 2.57242L6.65554 2.53353L5.16211 2.39328L3.66868 2.25302L3.66503 2.29191L5.15846 2.43216ZM5.16211 2.39328L6.65554 2.53353L6.65919 2.49465L5.16576 2.35439L3.67234 2.21414L3.66868 2.25302L5.16211 2.39328ZM5.16576 2.35439L6.65919 2.49465C6.59944 3.1309 6.17698 3.48015 5.94649 3.61325C5.73848 3.73336 5.56178 3.76242 5.52542 3.76847C5.43327 3.78379 5.40936 3.77376 5.52429 3.77975C5.72291 3.79011 6.08043 3.83263 6.63282 3.92369L6.87679 2.44366L7.12076 0.963633C6.54436 0.868618 6.05231 0.803219 5.68059 0.783826C5.51034 0.774945 5.27106 0.769574 5.03336 0.809097C4.92423 0.827243 4.69219 0.873291 4.44631 1.01528C4.17794 1.17024 3.73506 1.54625 3.67234 2.21414L5.16576 2.35439ZM6.87679 2.44366L6.63282 3.92369L6.97962 3.98085L7.22359 2.50083L7.46756 1.0208L7.12076 0.963633L6.87679 2.44366Z" fill="#323232"/>
</svg>
