<svg width="237" height="517" viewBox="0 0 237 517" fill="none" xmlns="http://www.w3.org/2000/svg">
<path fill-rule="evenodd" clip-rule="evenodd" d="M129.292 2.15446C135.365 0.414277 141.499 -0.281476 147.662 0.102702L150.935 0.306804C156.297 0.641091 161.66 1.01678 167.023 1.43376L170.296 1.68864C175.101 2.06222 179.907 1.90468 184.723 1.21501L187.996 0.747233C194.086 -0.12486 200.187 0.000612032 206.27 1.11637L209.549 1.71696C216.494 2.99105 222.324 6.38467 226.662 11.8722L228.642 14.3771C232.91 19.7758 234.979 26.0887 234.843 33.0109L234.778 36.2843C234.666 41.9982 234.085 47.7053 233.041 53.4006L232.441 56.673C231.55 61.5342 231.161 66.3801 231.269 71.2179L231.341 74.4923C231.449 79.3781 232.012 84.275 233.033 89.1877L233.713 92.4611C234.892 98.1338 235.632 103.819 235.928 109.513L236.099 112.785C236.402 118.618 236.081 124.447 235.142 130.262L234.612 133.535C233.766 138.771 233.025 144.006 232.388 149.24L231.99 152.513C231.456 156.908 231.777 161.316 232.987 165.787L233.873 169.06C235.67 175.694 235.534 182.388 233.494 188.982L232.482 192.254C231.175 196.478 230.966 200.603 231.803 204.736L232.466 208.01C233.66 213.907 234.109 219.828 233.804 225.758L233.636 229.03C233.361 234.374 233.065 239.719 232.749 245.063L232.556 248.336C232.272 253.138 232.522 257.944 233.305 262.763L233.836 266.036C234.751 271.669 235.288 277.309 235.445 282.953L235.537 286.227C235.697 291.954 235.372 297.678 234.565 303.394L234.102 306.666C233.466 311.166 233.62 315.662 234.577 320.192L235.27 323.464C236.643 329.959 236.367 336.474 234.481 342.901L233.521 346.174C232.231 350.569 231.907 354.885 232.505 359.185L232.96 362.458C233.798 368.488 233.726 374.527 232.746 380.549L232.213 383.822C231.455 388.481 231.374 393.124 231.965 397.773L232.381 401.045C233.078 406.534 233.581 412.025 233.891 417.518L234.076 420.791C234.392 426.389 234.386 431.987 234.057 437.584L233.864 440.857C233.562 446.008 233.451 451.159 233.532 456.31L233.584 459.582C233.671 465.06 233.582 470.538 233.317 476.015L233.16 479.287C232.873 485.238 231.814 490.839 229.915 496.034L228.916 498.766C227.715 502.052 225.771 504.964 222.949 507.163C220.144 509.35 216.85 510.538 213.391 510.996L210.371 511.396C205.304 512.067 200.04 512.593 194.58 512.977L191.307 513.207C186.053 513.577 180.798 514.028 175.544 514.56L172.272 514.89C166.933 515.43 161.593 515.958 156.254 516.469L152.981 516.782C146.712 517.383 140.47 516.74 134.305 514.902L131.03 513.926C126.338 512.527 121.698 511.847 117.093 511.859L113.818 511.867C108.801 511.88 103.781 512.22 98.756 512.889L95.4825 513.324C90.1875 514.029 84.8919 514.77 79.5968 515.547L76.3243 516.028C70.5093 516.881 64.6833 517.118 58.8556 516.737L55.5821 516.523C50.1632 516.168 44.7443 515.707 39.3263 515.139L36.0538 514.795C30.3122 514.193 24.6548 513.089 19.087 511.485L15.9093 510.569C12.1771 509.493 8.69228 507.452 6.35361 503.98C4.0311 500.531 3.42675 496.542 3.74716 492.686L4.02744 489.301C4.47133 483.959 4.71897 478.714 4.7706 473.567L4.80283 470.293C4.85207 465.38 4.47482 460.46 3.66708 455.53L3.13095 452.257C2.15668 446.311 1.98202 440.348 2.6124 434.388L2.95908 431.115C3.44076 426.561 3.18326 422 2.17099 417.403L1.44931 414.13C0.0583783 407.815 0.0398741 401.463 1.3956 395.144L2.09873 391.871C3.1475 386.983 3.70977 382.113 3.79306 377.255L3.8497 373.983C3.93283 369.134 3.52871 364.276 2.63291 359.403L2.03037 356.131C0.890452 349.931 0.926317 343.711 2.13486 337.517L2.77353 334.242C3.71847 329.399 4.13992 324.573 4.04501 319.758L3.98056 316.486C3.88477 311.626 3.31094 306.754 2.25205 301.864L1.54306 298.592C0.207999 292.427 0.0155017 286.225 0.975678 280.03L1.48251 276.757C2.25881 271.749 2.68515 266.748 2.76376 261.751L2.81552 258.478C2.9012 253.032 3.12418 247.587 3.48544 242.142L3.70322 238.868C4.03839 233.817 4.07906 228.766 3.82431 223.715L3.6583 220.442C3.36968 214.719 3.56129 208.997 4.23154 203.281L4.61533 200.008C5.21152 194.924 5.54183 189.842 5.60654 184.763L5.64853 181.49C5.70597 176.98 5.00058 172.426 3.48935 167.799L2.42001 164.527C0.400163 158.343 -0.371533 152.065 0.166108 145.748L0.445405 142.476C0.898724 137.15 1.35132 131.823 1.8038 126.497L2.08212 123.225C2.52713 117.987 2.87272 112.748 3.11923 107.511L3.27255 104.238C3.50433 99.3139 3.31797 94.3875 2.71201 89.4552L2.31064 86.1828C1.56389 80.1048 1.79056 74.025 2.98154 67.9728L3.62607 64.7004C4.5739 59.8838 4.97234 55.0862 4.82919 50.299L4.73056 47.0265C4.56518 41.4959 4.64365 36.0751 4.96689 30.7668L5.15732 27.6418C5.5518 21.165 7.77661 15.3469 12.3741 10.9523L14.2491 9.15934C15.7758 7.7001 16.924 6.6034 17.6915 5.87223C18.0741 5.50774 18.3677 5.22925 18.5675 5.0402C18.6653 4.94767 18.7513 4.86659 18.8175 4.80485C18.8463 4.77799 18.8944 4.73408 18.9444 4.68864C18.9602 4.67433 19.0276 4.61275 19.1124 4.5402C19.1323 4.52314 19.2743 4.39983 19.463 4.25798C19.493 4.23537 19.8439 3.96385 20.3311 3.69841C20.375 3.67451 21.3843 3.08074 22.8028 2.89567C23.6928 2.84137 25.9177 3.2589 27.3946 3.92887C26.9357 3.65271 26.4777 3.40714 26.2306 3.30387C25.4845 3.0207 24.8619 2.93414 24.7149 2.91325C24.2885 2.85262 23.9496 2.84541 23.8858 2.84391C23.6695 2.83885 23.5001 2.84583 23.4718 2.84684C23.3723 2.85042 23.2969 2.85596 23.2872 2.85661C23.3456 2.85186 23.4465 2.84263 23.5987 2.82926C23.9181 2.80122 24.407 2.75717 25.0704 2.69645C26.3952 2.5752 28.388 2.39032 31.0499 2.14176L34.3233 1.8361C40.052 1.30121 45.7845 1.25843 51.5147 1.70817L54.7872 1.96598C59.6068 2.34422 64.4271 2.20489 69.256 1.54606L72.5284 1.0988C78.5439 0.278073 84.5676 0.346804 90.5763 1.30192L93.8487 1.82145C99.0623 2.65018 104.275 3.34958 109.486 3.91911L112.759 4.27653C117.141 4.75546 121.544 4.37411 126.019 3.09196L129.292 2.15446ZM27.9151 4.257C29.1161 5.46962 30.2831 7.77897 30.671 9.26774C30.2555 7.54285 29.0972 5.33758 28.3165 4.53923C28.1984 4.44874 28.0606 4.354 27.9151 4.257Z" fill="#345983"/>
</svg>
