<svg width="38" height="37" viewBox="0 0 38 37" fill="none" xmlns="http://www.w3.org/2000/svg">
<path d="M36 19C36 23.7458 34.3531 27.7656 31.0594 31.0594C27.7656 34.3531 23.7458 36 19 36C14.2542 36 10.2344 34.3531 6.94063 31.0594C3.64687 27.7656 2 23.7458 2 19C2 16.5562 2.50469 14.2188 3.51406 11.9875C4.52344 9.75625 5.96667 7.84375 7.84375 6.25L4.125 6.25C2.95139 6.25 2 5.2986 2 4.125C2 2.95139 2.95139 2 4.125 2L13.875 2C15.5319 2 16.875 3.34315 16.875 5L16.875 14.75C16.875 15.9236 15.9236 16.875 14.75 16.875C13.5764 16.875 12.625 15.9236 12.625 14.75L12.625 13.1195C12.625 10.8161 10.1483 9.4942 8.77377 11.3426C8.47794 11.7404 8.20335 12.159 7.95 12.5984C6.81667 14.5641 6.25 16.6979 6.25 19C6.25 22.5417 7.48958 25.5521 9.96875 28.0312C12.4479 30.5104 15.4583 31.75 19 31.75C22.5417 31.75 25.5521 30.5104 28.0312 28.0312C30.5104 25.5521 31.75 22.5417 31.75 19C31.75 16.2729 30.9708 13.8115 29.4125 11.6156C28.1632 9.85523 26.5952 8.51595 24.7085 7.59778C23.8583 7.18402 23.25 6.35985 23.25 5.4143C23.25 3.9576 24.6373 2.89079 25.9686 3.48197C28.5112 4.61097 30.6685 6.31281 32.4406 8.5875C34.8135 11.6333 36 15.1042 36 19Z" fill="#434343" fill-opacity="0.3"/>
<path d="M35.8328 19.9644L34.8475 19.7936L35.8328 19.9644ZM35.6906 21.0003L34.6957 20.8997L35.6906 21.0003ZM35.6682 21.2217L36.6631 21.3224L35.6682 21.2217ZM35.6458 21.4432L34.6509 21.3426L35.6458 21.4432ZM35.5379 22.4811L36.5323 22.5872L35.5379 22.4811ZM35.4902 22.9279L36.4846 23.034L35.4902 22.9279ZM35.2624 23.9432L34.3181 23.614L35.2624 23.9432ZM35.1885 24.155L36.1328 24.4842L35.1885 24.155ZM35.1147 24.3667L36.059 24.6959L35.1147 24.3667ZM34.7438 25.3433L35.6685 25.7241L34.7438 25.3433ZM34.5735 25.7569L33.6488 25.3761L34.5735 25.7569ZM34.0134 26.6314L33.2782 25.9535L34.0134 26.6314ZM33.8585 26.7994L33.1233 26.1215L33.8585 26.7994ZM33.7036 26.9674L34.4387 27.6452L33.7036 26.9674ZM33.3124 27.965L34.3112 28.014L33.3124 27.965ZM33.2869 28.484L32.2881 28.435L33.2869 28.484ZM32.8585 29.454L33.5332 30.1921L32.8585 29.454ZM32.6876 29.6102L33.3623 30.3483L32.6876 29.6102ZM32.5168 29.7664L31.8421 29.0283L32.5168 29.7664ZM31.7339 30.4942L32.421 31.2207L31.7339 30.4942ZM31.5692 30.6499L30.8821 29.9234L31.5692 30.6499ZM31.4046 30.8057L32.0917 31.5322L31.4046 30.8057ZM30.5812 31.4639L30.0238 30.6336L30.5812 31.4639ZM30.2048 31.7165L30.7622 32.5468L30.2048 31.7165ZM29.3252 32.287L29.8557 33.1347L29.3252 32.287ZM29.1364 32.4052L29.6669 33.2529L29.1364 32.4052ZM28.9476 32.5234L28.417 31.6758L28.9476 32.5234ZM28.0845 33.0957L27.5101 32.2771L28.0845 33.0957ZM27.9034 33.2228L28.4779 34.0413L27.9034 33.2228ZM27.7223 33.3498L27.1479 32.5313L27.7223 33.3498ZM26.8737 33.9564L26.2854 33.1477L26.8737 33.9564ZM26.691 34.0892L27.2793 34.8979L26.691 34.0892ZM26.5084 34.2221L27.0967 35.0308L26.5084 34.2221ZM25.6283 34.8233L26.1681 35.665L25.6283 34.8233ZM25.4337 34.9481L24.8938 34.1063L25.4337 34.9481ZM25.2391 35.0728L25.779 35.9146L25.2391 35.0728ZM23.833 35.642L24.1133 36.602L23.833 35.642ZM22.2924 35.611L22.4655 34.6261L22.2924 35.611ZM21.2214 35.5108L21.2157 36.5107L21.2214 35.5108ZM20.7778 35.5082L20.7722 36.5082L20.7778 35.5082ZM19.7458 35.6839L19.4178 34.7392L19.7458 35.6839ZM19.5253 35.7605L19.8532 36.7052L19.5253 35.7605ZM19.3047 35.837L18.9768 34.8924L19.3047 35.837ZM18.2813 35.8121L17.9099 36.7406L18.2813 35.8121ZM17.8451 35.6377L18.2165 34.7092L17.8451 35.6377ZM16.3297 35.6948L16.5805 36.6629L16.3297 35.6948ZM15.3236 35.5298L14.7739 36.3652L15.3236 35.5298ZM15.1246 35.3989L15.6743 34.5635L15.1246 35.3989ZM14.9257 35.268L14.376 36.1034L14.9257 35.268ZM13.6545 35.0464L13.7579 36.0411L13.6545 35.0464ZM12.4423 34.7502L11.7582 35.4796L12.4423 34.7502ZM12.2686 34.5873L12.9527 33.8579L12.2686 34.5873ZM12.0949 34.4244L11.4108 35.1539L12.0949 34.4244ZM11.1535 33.9401L11.3444 32.9585L11.1535 33.9401ZM10.694 33.8507L10.5031 34.8324L10.694 33.8507ZM9.7539 33.405L10.3994 32.6413L9.7539 33.405ZM9.58076 33.2587L8.93523 34.0224L9.58076 33.2587ZM9.40763 33.1123L10.0532 32.3486L9.40763 33.1123ZM8.39139 32.3362L7.81246 33.1515L8.39139 32.3362ZM8.20772 32.2057L8.78665 31.3904L8.20772 32.2057ZM7.37627 31.5596L6.72928 32.3221L7.37627 31.5596ZM7.20362 31.4131L7.85061 30.6506L7.20362 31.4131ZM6.25843 30.2523L7.13475 29.7706L6.25843 30.2523ZM6.14753 30.0506L5.27121 30.5323L6.14753 30.0506ZM5.61326 29.1412L6.46009 28.6093L5.61326 29.1412ZM5.49518 28.9532L4.64834 29.485L5.49518 28.9532ZM5.3771 28.7652L6.22394 28.2333L5.3771 28.7652ZM4.67408 27.9766L4.0407 28.7504L4.67408 27.9766ZM4.30764 27.6767L4.94102 26.9028L4.30764 27.6767ZM3.49679 26.42L2.57571 26.8094L3.49679 26.42ZM3.09373 25.4414L2.1656 25.8137L3.09373 25.4414ZM2.92517 25.0212L1.99704 25.3934L2.92517 25.0212ZM2.22511 23.6399L1.35447 24.1318L2.22511 23.6399ZM2.14296 22.5896L3.09228 22.9039L2.14296 22.5896ZM2.22392 22.3451L1.2746 22.0308L2.22392 22.3451ZM2.30488 22.1005L3.2542 22.4149L2.30488 22.1005ZM2.19875 20.8093L3.1242 20.4304L2.19875 20.8093ZM2.11023 20.593L1.18478 20.9719L2.11023 20.593ZM1.77145 19.5572L0.801054 19.7987L1.77145 19.5572ZM1.83573 18.0626L2.68931 18.5836L1.83573 18.0626ZM1.96853 17.845L1.11495 17.3241L1.96853 17.845ZM2.10134 17.6274L2.95492 18.1484L2.10134 17.6274ZM2.42244 16.5968L3.42221 16.6182L2.42244 16.5968ZM2.4335 15.0789L1.43366 15.0968L2.4335 15.0789ZM3.06917 12.1112L3.91457 12.6453L3.06917 12.1112ZM3.19291 11.9153L2.34751 11.3812L3.19291 11.9153ZM3.31665 11.7195L4.16205 12.2536L3.31665 11.7195ZM3.99244 10.8773L3.28704 10.1685L3.99244 10.8773ZM4.15832 10.7122L4.86373 11.421L4.15832 10.7122ZM4.32421 10.5471L3.61881 9.83829L4.32421 10.5471ZM4.90751 9.6605L5.83873 10.025L4.90751 9.6605ZM4.99162 9.44561L4.0604 9.08114L4.99162 9.44561ZM5.07572 9.23073L6.00694 9.59519L5.07572 9.23073ZM5.67573 8.38156L5.02314 7.62386L5.67573 8.38156ZM5.84878 8.23252L5.19619 7.47482L5.84878 8.23252ZM6.02183 8.08348L6.67442 8.84119L6.02183 8.08348ZM6.69675 7.2585L5.82729 6.76449L6.69675 7.2585ZM6.81296 7.05398L7.68241 7.54798L6.81296 7.05398ZM6.92916 6.84945L6.0597 6.35544L6.92916 6.84945ZM7.09609 6.17182L7.98331 5.71047L7.09609 6.17182ZM7.05143 6.08592L6.16421 6.54728L7.05143 6.08592ZM7.00677 6.00003L7.89398 5.53868L7.00677 6.00003ZM6.37755 5.92569L6.14405 4.95333L6.37755 5.92569ZM6.15255 5.97972L6.38605 6.95208L6.15255 5.97972ZM5.92755 6.03375L5.69405 5.06139L5.92755 6.03375ZM4.89189 6.05047L5.10128 5.07264L4.89189 6.05047ZM3.58227 5.64846L4.06464 4.77249L3.58227 5.64846ZM3.27262 5.47794L2.79025 6.35391L3.27262 5.47794ZM2.56001 4.91736L3.27724 4.22053L2.56001 4.91736ZM2.25884 4.60738L1.54161 5.30422L2.25884 4.60738ZM2.03792 3.7111L1.06642 3.47408L2.03792 3.7111ZM2.14973 3.25283L3.12123 3.48986L2.14973 3.25283ZM2.74365 2.36977L3.34454 3.1691L2.74365 2.36977ZM2.94228 2.22045L2.34139 1.42112L2.94228 2.22045ZM3.14092 2.07112L3.74181 2.87046L3.14092 2.07112ZM4.15282 1.85661L4.39002 0.885155L4.15282 1.85661ZM4.62288 1.97139L4.38568 2.94285L4.62288 1.97139ZM5.6963 1.94107L5.39774 0.986675L5.6963 1.94107ZM6.1463 1.8003L6.44485 2.75469L6.1463 1.8003ZM7.1963 1.75935L7.4249 0.785827L7.1963 1.75935ZM7.6463 1.86502L7.41769 2.83854L7.6463 1.86502ZM8.6963 2.0715L8.53977 3.05917L8.6963 2.0715ZM9.1463 2.14282L9.30283 1.15514L9.1463 2.14282ZM10.1963 1.99517L10.5988 2.91058L10.1963 1.99517ZM10.6463 1.7973L10.2438 0.881885L10.6463 1.7973ZM11.6963 1.57164L11.7062 0.571685L11.6963 1.57164ZM11.9213 1.57386L11.9114 2.57381L11.9213 1.57386ZM12.1463 1.57609L12.1562 0.576133L12.1463 1.57609ZM13.2129 1.56211L13.2482 2.56148L13.2129 1.56211ZM13.6771 1.54568L13.6417 0.546306L13.6771 1.54568ZM14.7585 1.77488L15.1765 0.866405L14.7585 1.77488ZM14.9899 1.88132L14.5719 2.78979L14.9899 1.88132ZM15.2212 1.98776L15.6392 1.07929L15.2212 1.98776ZM15.8868 2.80238L14.9106 3.01916L15.8868 2.80238ZM15.9407 3.04505L16.9169 2.82826L15.9407 3.04505ZM15.9946 3.28773L15.0184 3.50453L15.9946 3.28773ZM16.4563 4.2844L15.6679 4.89961L16.4563 4.2844ZM16.6002 4.46886L17.3886 3.85364L16.6002 4.46886ZM16.7441 4.65332L17.5325 4.0381L16.7441 4.65332ZM17.0734 5.60872L16.0735 5.59606L17.0734 5.60872ZM17.0705 5.83372L18.0705 5.84638L17.0705 5.83372ZM17.0677 6.05872L16.0678 6.04606L17.0677 6.05872ZM16.837 7.10872L15.9172 6.71624L16.837 7.10872ZM16.645 7.55872L17.5647 7.9512L16.645 7.55872ZM16.6759 8.60872L17.5755 8.17186L16.6759 8.60872ZM16.7852 8.83372L17.6847 8.39686L16.7852 8.83372ZM16.8945 9.05872L15.9949 9.49559L16.8945 9.05872ZM17.1061 10.1087L16.1095 10.0264L17.1061 10.1087ZM17.0875 10.3337L18.0841 10.4161L17.0875 10.3337ZM17.0689 10.5587L18.0655 10.6411L17.0689 10.5587ZM17.0429 11.6087L18.0423 11.5757L17.0429 11.6087ZM17.0503 11.8337L16.0508 11.8667L17.0503 11.8337ZM17.0577 12.0587L18.0572 12.0257L17.0577 12.0587ZM17.0939 13.1087L18.0933 13.0728L17.0939 13.1087ZM17.102 13.3337L16.1027 13.3696L17.102 13.3337ZM17.1101 13.5587L18.1095 13.5228L17.1101 13.5587ZM16.8778 14.5575L15.9943 14.089L16.8778 14.5575ZM16.7701 14.7605L17.6536 15.2289L16.7701 14.7605ZM16.6625 14.9635L15.779 14.4951L16.6625 14.9635ZM16.2468 16.0119L17.2082 16.2871L16.2468 16.0119ZM15.3763 16.8865L15.6991 15.94L15.3763 16.8865ZM15.1342 16.8039L14.8114 17.7504L15.1342 16.8039ZM14.8921 16.7213L14.5693 17.6678L14.8921 16.7213ZM14.0035 16.2511L13.3525 17.0101L14.0035 16.2511ZM13.8648 16.1321L14.5158 15.3731L13.8648 16.1321ZM13.7261 16.0132L14.3771 15.2541L13.7261 16.0132ZM13.0043 15.3355L12.2954 16.0408L13.0043 15.3355ZM12.8337 15.164L13.5425 14.4587L12.8337 15.164ZM12.5476 14.066L13.4286 14.539L12.5476 14.066ZM12.7898 13.6147L11.9087 13.1417L12.7898 13.6147ZM12.7343 12.6156L11.921 13.1974L12.7343 12.6156ZM12.4445 12.2105L11.6312 12.7923L12.4445 12.2105ZM11.753 11.4095L12.4337 10.6769L11.753 11.4095ZM11.4501 11.1281L10.7695 11.8607L11.4501 11.1281ZM10.5636 10.6095L10.2275 11.5513L10.5636 10.6095ZM10.3352 10.5279L10.6713 9.58613L10.3352 10.5279ZM10.1067 10.4464L9.77058 11.3882L10.1067 10.4464ZM9.30483 10.7682L10.1902 11.233L9.30483 10.7682ZM9.07444 11.207L8.18904 10.7422L9.07444 11.207ZM8.39326 12.0791L7.73558 11.3258L8.39326 12.0791ZM8.03977 12.3877L8.69745 13.141L8.03977 12.3877ZM7.38715 13.2247L6.49403 12.7749L7.38715 13.2247ZM7.2842 13.4291L8.17733 13.8789L7.2842 13.4291ZM7.18125 13.6336L8.07437 14.0834L7.18125 13.6336ZM6.75111 14.6123L5.81585 14.2584L6.75111 14.6123ZM6.58833 15.0425L7.52359 15.3964L6.58833 15.0425ZM6.47865 16.0978L5.48899 16.2413L6.47865 16.0978ZM6.54743 16.5723L7.53708 16.4289L6.54743 16.5723ZM6.58996 17.6391L5.59264 17.5659L6.58996 17.6391ZM6.55764 18.0791L7.55495 18.1523L6.55764 18.0791ZM6.3888 19.1181L7.35908 19.3601L6.3888 19.1181ZM6.2764 19.5687L7.24668 19.8107L6.2764 19.5687ZM6.42634 20.58L7.29179 20.079L6.42634 20.58ZM6.5468 20.7881L5.68134 21.2891L6.5468 20.7881ZM6.66725 20.9962L7.53271 20.4952L6.66725 20.9962ZM6.94273 22.0123L7.94267 22.0229L6.94273 22.0123ZM6.94033 22.2397L5.94039 22.2292L6.94033 22.2397ZM6.93794 22.4671L7.93788 22.4777L6.93794 22.4671ZM6.9688 23.5546L7.96666 23.4893L6.9688 23.5546ZM7.00004 24.032L6.00218 24.0973L7.00004 24.032ZM7.53481 24.9145L6.9878 25.7517L7.53481 24.9145ZM7.74837 25.0541L7.20136 25.8912L7.74837 25.0541ZM7.96193 25.1936L8.50894 24.3565L7.96193 25.1936ZM8.89423 26.1001L9.69533 25.5016L8.89423 26.1001ZM9.02442 26.2744L8.22333 26.8729L9.02442 26.2744ZM9.54719 27.1813L10.4633 26.7804L9.54719 27.1813ZM10.6904 28.3937L10.3316 29.3271L10.6904 28.3937ZM10.9113 28.4786L11.2701 27.5452L10.9113 28.4786ZM11.7972 29.0345L12.492 28.3153L11.7972 29.0345ZM11.9559 29.1878L11.2611 29.907L11.9559 29.1878ZM12.1146 29.3411L12.8094 28.6219L12.1146 29.3411ZM12.9508 29.9108L13.3649 29.0006L12.9508 29.9108ZM13.3501 30.0925L13.7642 29.1822L13.3501 30.0925ZM14.2796 30.5218L13.855 31.4272L14.2796 30.5218ZM15.6047 31.2375L16.1626 30.4076L15.6047 31.2375ZM15.8036 31.3712L15.2458 32.2012L15.8036 31.3712ZM16.0025 31.5049L16.5604 30.6749L16.0025 31.5049ZM17.006 31.7772L16.9327 30.7799L17.006 31.7772ZM17.4683 31.7433L17.5415 32.7406L17.4683 31.7433ZM18.5265 31.5505L18.2433 30.5914L18.5265 31.5505ZM18.9712 31.4191L19.2544 32.3782L18.9712 31.4191ZM20.0348 31.4998L20.4292 30.5809L20.0348 31.4998ZM20.2682 31.6L19.8737 32.5189L20.2682 31.6ZM21.5394 31.6987L21.1088 30.7962L21.5394 31.6987ZM21.9621 31.497L22.3928 32.3995L21.9621 31.497ZM22.9501 31.0939L23.2711 32.041L22.9501 31.0939ZM23.3742 30.9502L23.6952 31.8972L23.3742 30.9502ZM24.4166 30.6917L24.2532 29.7052L24.4166 30.6917ZM24.6513 30.6529L24.8147 31.6394L24.6513 30.6529ZM24.886 30.614L24.7226 29.6274L24.886 30.614ZM25.7171 29.9974L24.8369 29.5228L25.7171 29.9974ZM25.9602 29.5466L26.8404 30.0211L25.9602 29.5466ZM26.7577 28.8285L27.1079 29.7652L26.7577 28.8285ZM26.978 28.7461L26.6279 27.8094L26.978 28.7461ZM27.1983 28.6638L27.5485 29.6005L27.1983 28.6638ZM28.0926 28.103L28.7886 28.821L28.0926 28.103ZM28.2555 27.9451L27.5594 27.2271L28.2555 27.9451ZM28.4184 27.7871L29.1145 28.5051L28.4184 27.7871ZM29.0913 26.9771L29.9247 27.5298L29.0913 26.9771ZM29.2168 26.7879L30.0502 27.3406L29.2168 26.7879ZM29.9341 25.7212L29.1095 25.1556L29.9341 25.7212ZM30.0623 25.5343L30.887 26.0999L30.0623 25.5343ZM30.1905 25.3474L29.3659 24.7818L30.1905 25.3474ZM30.7793 24.4542L31.624 24.9894L30.7793 24.4542ZM31.0275 24.0624L30.1828 23.5271L31.0275 24.0624ZM31.2109 23.0276L32.1944 22.8467L31.2109 23.0276ZM31.1198 22.5325L30.1363 22.7134L31.1198 22.5325ZM31.3281 21.4795L32.1621 22.0314L31.3281 21.4795ZM31.4629 21.2758L30.629 20.724L31.4629 21.2758ZM31.5977 21.0721L32.4317 21.6239L31.5977 21.0721ZM31.7028 20.0626L30.7718 20.4275L31.7028 20.0626ZM31.5234 19.6047L32.4544 19.2397L31.5234 19.6047ZM31.4972 18.541L32.4422 18.8681L31.4972 18.541ZM31.5757 18.3141L30.6307 17.987L31.5757 18.3141ZM31.6543 18.0872L32.5993 18.4143L31.6543 18.0872ZM31.5327 17.083L30.6912 17.6232L31.5327 17.083ZM31.4021 16.8795L32.2436 16.3393L31.4021 16.8795ZM31.2715 16.676L30.43 17.2162L31.2715 16.676ZM30.8391 15.7124L31.8066 15.4598L30.8391 15.7124ZM30.7844 15.5029L29.8168 15.7556L30.7844 15.5029ZM30.7297 15.2934L31.6972 15.0408L30.7297 15.2934ZM30.542 14.269L31.5358 14.1577L30.542 14.269ZM30.5163 14.0395L29.5225 14.1508L30.5163 14.0395ZM30.4906 13.8099L31.4844 13.6986L30.4906 13.8099ZM30.0874 12.8726L29.3271 13.5222L30.0874 12.8726ZM29.9403 12.7005L30.7006 12.0509L29.9403 12.7005ZM29.7932 12.5283L30.5535 11.8787L29.7932 12.5283ZM29.2562 11.619L30.1904 11.2622L29.2562 11.619ZM29.09 11.1838L28.1558 11.5406L29.09 11.1838ZM28.424 10.4035L27.9239 11.2695L28.424 10.4035ZM28.0194 10.1698L27.5193 11.0358L28.0194 10.1698ZM27.2455 9.44393L28.0778 8.88969L27.2455 9.44393ZM27.1161 9.24968L26.2838 9.80392L27.1161 9.24968ZM26.9868 9.05542L27.8191 8.50118L26.9868 9.05542ZM26.2317 8.3256L25.7108 9.17921L26.2317 8.3256ZM26.0375 8.20707L26.5584 7.35346L26.0375 8.20707ZM25.8433 8.08855L26.3642 7.23494L25.8433 8.08855ZM24.9906 7.50385L24.3798 8.29566L24.9906 7.50385ZM24.6482 7.23972L25.2589 6.4479L24.6482 7.23972ZM24.0251 6.5394L23.1564 7.03462L24.0251 6.5394ZM23.9293 6.37132L23.0606 6.86654L23.9293 6.37132ZM23.8335 6.20325L24.7023 5.70803L23.8335 6.20325ZM23.5963 5.33878L22.5967 5.36771L23.5963 5.33878ZM23.5904 5.13637L24.59 5.10745L23.5904 5.13637ZM23.5846 4.93396L22.585 4.96289L23.5846 4.93396ZM23.9834 3.71421L23.1079 3.23101L23.9834 3.71421ZM24.1072 3.48997L24.9827 3.97318L24.1072 3.48997ZM25.0377 2.99843L24.9883 3.99721L25.0377 2.99843ZM25.5877 3.02559L25.637 2.0268L25.5877 3.02559ZM26.6356 3.43635L27.3178 2.70524L26.6356 3.43635ZM26.8097 3.59881L26.1274 4.32993L26.8097 3.59881ZM26.9837 3.76128L26.3015 4.49239L26.9837 3.76128ZM27.8279 4.43156L27.2741 5.26424L27.8279 4.43156ZM28.0155 4.55636L27.4618 5.38904L28.0155 4.55636ZM28.2032 4.68116L28.7569 3.84848L28.2032 4.68116ZM29.0598 5.289L29.6629 4.4914L29.0598 5.289ZM29.2392 5.42471L28.636 6.22231L29.2392 5.42471ZM29.4186 5.56041L30.0218 4.76281L29.4186 5.56041ZM30.2961 6.15958L29.7718 7.01108L30.2961 6.15958ZM30.4928 6.28067L31.0171 5.42918L30.4928 6.28067ZM30.6894 6.40176L30.165 7.25326L30.6894 6.40176ZM31.4797 7.10207L32.2631 6.48049L31.4797 7.10207ZM31.6218 7.28111L32.4051 6.65953L31.6218 7.28111ZM31.7638 7.46015L30.9805 8.08173L31.7638 7.46015ZM32.2811 8.39627L31.3398 8.73367L32.2811 8.39627ZM32.3607 8.61842L33.3021 8.28102L32.3607 8.61842ZM32.4404 8.84057L31.499 9.17796L32.4404 8.84057ZM33.1484 9.6478L32.6643 10.5228L33.1484 9.6478ZM33.3722 9.77161L33.8562 8.89659L33.3722 9.77161ZM33.596 9.89543L33.1119 10.7704L33.596 9.89543ZM34.1457 10.769L35.1446 10.722L34.1457 10.769ZM34.1693 11.2702L33.1704 11.3172L34.1693 11.2702ZM34.5008 12.2936L33.6787 12.863L34.5008 12.2936ZM34.631 12.4816L35.4531 11.9122L34.631 12.4816ZM34.7613 12.6697L33.9392 13.2391L34.7613 12.6697ZM35.3513 13.5777L36.2051 13.057L35.3513 13.5777ZM35.5966 13.9799L34.7429 14.5006L35.5966 13.9799ZM35.7353 15.0206L34.767 14.7706L35.7353 15.0206ZM35.6088 15.5104L36.5771 15.7604L35.6088 15.5104ZM35.7601 16.5746L34.905 17.093L35.7601 16.5746ZM35.8882 16.7859L36.7433 16.2675L35.8882 16.7859ZM36.0162 16.9971L35.1611 17.5155L36.0162 16.9971ZM36.0345 18.0185L35.1512 17.5496L36.0345 18.0185ZM35.9143 18.245L36.7975 18.7138L35.9143 18.245ZM35.794 18.4715L34.9108 18.0026L35.794 18.4715ZM35.8714 19.7418L34.8861 19.571L34.8475 19.7936L35.8328 19.9644L36.8181 20.1351L36.8567 19.9126L35.8714 19.7418ZM35.8328 19.9644L34.8475 19.7936C34.7836 20.1627 34.7329 20.5314 34.6957 20.8997L35.6906 21.0003L36.6855 21.1009C36.7179 20.7803 36.7621 20.4584 36.8181 20.1351L35.8328 19.9644ZM35.6906 21.0003L34.6957 20.8997L34.6733 21.1211L35.6682 21.2217L36.6631 21.3224L36.6855 21.1009L35.6906 21.0003ZM35.6682 21.2217L34.6733 21.1211L34.6509 21.3426L35.6458 21.4432L36.6407 21.5438L36.6631 21.3224L35.6682 21.2217ZM35.6458 21.4432L34.6509 21.3426C34.6162 21.6852 34.5804 22.0293 34.5436 22.375L35.5379 22.4811L36.5323 22.5872C36.5695 22.2379 36.6057 21.8901 36.6407 21.5438L35.6458 21.4432ZM35.5379 22.4811L34.5436 22.375L34.5197 22.5984L35.5141 22.7045L36.5084 22.8106L36.5323 22.5872L35.5379 22.4811ZM35.5141 22.7045L34.5197 22.5984L34.4959 22.8218L35.4902 22.9279L36.4846 23.034L36.5084 22.8106L35.5141 22.7045ZM35.4902 22.9279L34.4959 22.8218C34.4669 23.0934 34.4077 23.357 34.3181 23.614L35.2624 23.9432L36.2066 24.2725C36.3467 23.8707 36.4394 23.4574 36.4846 23.034L35.4902 22.9279ZM35.2624 23.9432L34.3181 23.614L34.2443 23.8258L35.1885 24.155L36.1328 24.4842L36.2066 24.2725L35.2624 23.9432ZM35.1885 24.155L34.2443 23.8258L34.1705 24.0375L35.1147 24.3667L36.059 24.6959L36.1328 24.4842L35.1885 24.155ZM35.1147 24.3667L34.1705 24.0375C34.0617 24.3496 33.9445 24.6579 33.8191 24.9625L34.7438 25.3433L35.6685 25.7241C35.8079 25.3853 35.9381 25.0426 36.059 24.6959L35.1147 24.3667ZM34.7438 25.3433L33.8191 24.9625L33.734 25.1693L34.6586 25.5501L35.5833 25.9308L35.6685 25.7241L34.7438 25.3433ZM34.6586 25.5501L33.734 25.1693L33.6488 25.3761L34.5735 25.7569L35.4982 26.1376L35.5833 25.9308L34.6586 25.5501ZM34.5735 25.7569L33.6488 25.3761C33.5624 25.5859 33.4407 25.7773 33.2782 25.9535L34.0134 26.6314L34.7485 27.3092C35.068 26.9628 35.3196 26.5712 35.4982 26.1376L34.5735 25.7569ZM34.0134 26.6314L33.2782 25.9535L33.1233 26.1215L33.8585 26.7994L34.5936 27.4772L34.7485 27.3092L34.0134 26.6314ZM33.8585 26.7994L33.1233 26.1215L32.9684 26.2895L33.7036 26.9674L34.4387 27.6452L34.5936 27.4772L33.8585 26.7994ZM33.7036 26.9674L32.9684 26.2895C32.5469 26.7466 32.3432 27.3122 32.3136 27.9159L33.3124 27.965L34.3112 28.014C34.3212 27.8103 34.3782 27.7109 34.4387 27.6452L33.7036 26.9674ZM33.3124 27.965L32.3136 27.9159L32.3008 28.1754L33.2996 28.2245L34.2984 28.2735L34.3112 28.014L33.3124 27.965ZM33.2996 28.2245L32.3008 28.1754L32.2881 28.435L33.2869 28.484L34.2857 28.5331L34.2984 28.2735L33.2996 28.2245ZM33.2869 28.484L32.2881 28.435C32.2795 28.6105 32.2303 28.6734 32.1838 28.7159L32.8585 29.454L33.5332 30.1921C34.0182 29.7488 34.2547 29.165 34.2857 28.5331L33.2869 28.484ZM32.8585 29.454L32.1838 28.7159L32.0129 28.8721L32.6876 29.6102L33.3623 30.3483L33.5332 30.1921L32.8585 29.454ZM32.6876 29.6102L32.0129 28.8721L31.8421 29.0283L32.5168 29.7664L33.1915 30.5045L33.3623 30.3483L32.6876 29.6102ZM32.5168 29.7664L31.8421 29.0283C31.5722 29.275 31.3071 29.5214 31.0468 29.7677L31.7339 30.4942L32.421 31.2207C32.673 30.9825 32.9298 30.7437 33.1915 30.5045L32.5168 29.7664ZM31.7339 30.4942L31.0468 29.7677L30.8821 29.9234L31.5692 30.6499L32.2563 31.3765L32.421 31.2207L31.7339 30.4942ZM31.5692 30.6499L30.8821 29.9234L30.7174 30.0791L31.4046 30.8057L32.0917 31.5322L32.2563 31.3765L31.5692 30.6499ZM31.4046 30.8057L30.7174 30.0791C30.5016 30.2833 30.2705 30.468 30.0238 30.6336L30.5812 31.4639L31.1386 32.2941C31.4774 32.0667 31.7952 31.8126 32.0917 31.5322L31.4046 30.8057ZM30.5812 31.4639L30.0238 30.6336L29.8356 30.7599L30.393 31.5902L30.9504 32.4205L31.1386 32.2941L30.5812 31.4639ZM30.393 31.5902L29.8356 30.7599L29.6474 30.8862L30.2048 31.7165L30.7622 32.5468L30.9504 32.4205L30.393 31.5902ZM30.2048 31.7165L29.6474 30.8862C29.3634 31.0769 29.0791 31.2613 28.7946 31.4394L29.3252 32.287L29.8557 33.1347C30.1586 32.9451 30.4607 32.7491 30.7622 32.5468L30.2048 31.7165ZM29.3252 32.287L28.7946 31.4394L28.6058 31.5576L29.1364 32.4052L29.6669 33.2529L29.8557 33.1347L29.3252 32.287ZM29.1364 32.4052L28.6058 31.5576L28.417 31.6758L28.9476 32.5234L29.4781 33.371L29.6669 33.2529L29.1364 32.4052ZM28.9476 32.5234L28.417 31.6758C28.1085 31.8688 27.8062 32.0693 27.5101 32.2771L28.0845 33.0957L28.659 33.9142C28.9262 33.7267 29.1992 33.5456 29.4781 33.371L28.9476 32.5234ZM28.0845 33.0957L27.5101 32.2771L27.329 32.4042L27.9034 33.2228L28.4779 34.0413L28.659 33.9142L28.0845 33.0957ZM27.9034 33.2228L27.329 32.4042L27.1479 32.5313L27.7223 33.3498L28.2968 34.1684L28.4779 34.0413L27.9034 33.2228ZM27.7223 33.3498L27.1479 32.5313C26.8615 32.7323 26.574 32.9378 26.2854 33.1477L26.8737 33.9564L27.4619 34.765C27.7415 34.5616 28.0198 34.3628 28.2968 34.1684L27.7223 33.3498ZM26.8737 33.9564L26.2854 33.1477L26.1028 33.2806L26.691 34.0892L27.2793 34.8979L27.4619 34.765L26.8737 33.9564ZM26.691 34.0892L26.1028 33.2806L25.9201 33.4134L26.5084 34.2221L27.0967 35.0308L27.2793 34.8979L26.691 34.0892ZM26.5084 34.2221L25.9201 33.4134C25.6522 33.6083 25.375 33.7977 25.0884 33.9815L25.6283 34.8233L26.1681 35.665C26.4869 35.4606 26.7964 35.2492 27.0967 35.0308L26.5084 34.2221ZM25.6283 34.8233L25.0884 33.9815L24.8938 34.1063L25.4337 34.9481L25.9736 35.7898L26.1681 35.665L25.6283 34.8233ZM25.4337 34.9481L24.8938 34.1063L24.6993 34.2311L25.2391 35.0728L25.779 35.9146L25.9736 35.7898L25.4337 34.9481ZM25.2391 35.0728L24.6993 34.2311C24.4762 34.3741 24.2413 34.4811 23.9921 34.5538L24.2724 35.5137L24.5527 36.4736C24.9872 36.3468 25.3967 36.1598 25.779 35.9146L25.2391 35.0728ZM24.2724 35.5137L23.9921 34.5538L23.7724 34.618L24.0527 35.5779L24.333 36.5378L24.5527 36.4736L24.2724 35.5137ZM24.0527 35.5779L23.7724 34.618L23.5527 34.6821L23.833 35.642L24.1133 36.602L24.333 36.5378L24.0527 35.5779ZM23.833 35.642L23.5527 34.6821C23.3658 34.7367 23.166 34.7493 22.94 34.7095L22.7668 35.6944L22.5936 36.6793C23.1056 36.7693 23.6165 36.747 24.1133 36.602L23.833 35.642ZM22.7668 35.6944L22.94 34.7095L22.7028 34.6678L22.5296 35.6527L22.3564 36.6376L22.5936 36.6793L22.7668 35.6944ZM22.5296 35.6527L22.7028 34.6678L22.4655 34.6261L22.2924 35.611L22.1192 36.5959L22.3564 36.6376L22.5296 35.6527ZM22.2924 35.611L22.4655 34.6261C22.0459 34.5523 21.6328 34.5131 21.2271 34.5108L21.2214 35.5108L21.2157 36.5107C21.5 36.5124 21.8009 36.5399 22.1192 36.5959L22.2924 35.611ZM21.2214 35.5108L21.2271 34.5108L21.0053 34.5095L20.9996 35.5095L20.9939 36.5095L21.2157 36.5107L21.2214 35.5108ZM20.9996 35.5095L21.0053 34.5095L20.7835 34.5082L20.7778 35.5082L20.7722 36.5082L20.9939 36.5095L20.9996 35.5095ZM20.7778 35.5082L20.7835 34.5082C20.3191 34.5056 19.8625 34.5849 19.4178 34.7392L19.7458 35.6839L20.0738 36.6286C20.3152 36.5448 20.5466 36.5069 20.7722 36.5082L20.7778 35.5082ZM19.7458 35.6839L19.4178 34.7392L19.1973 34.8158L19.5253 35.7605L19.8532 36.7052L20.0738 36.6286L19.7458 35.6839ZM19.5253 35.7605L19.1973 34.8158L18.9768 34.8924L19.3047 35.837L19.6327 36.7817L19.8532 36.7052L19.5253 35.7605ZM19.3047 35.837L18.9768 34.8924C18.8628 34.9319 18.7699 34.9305 18.6527 34.8836L18.2813 35.8121L17.9099 36.7406C18.4712 36.9651 19.0606 36.9803 19.6327 36.7817L19.3047 35.837ZM18.2813 35.8121L18.6527 34.8836L18.4346 34.7964L18.0632 35.7249L17.6918 36.6534L17.9099 36.7406L18.2813 35.8121ZM18.0632 35.7249L18.4346 34.7964L18.2165 34.7092L17.8451 35.6377L17.4737 36.5661L17.6918 36.6534L18.0632 35.7249ZM17.8451 35.6377L18.2165 34.7092C17.6748 34.4925 17.1063 34.4606 16.5435 34.6064L16.7942 35.5745L17.045 36.5425C17.2047 36.5012 17.3368 36.5114 17.4737 36.5661L17.8451 35.6377ZM16.7942 35.5745L16.5435 34.6064L16.3112 34.6666L16.562 35.6347L16.8127 36.6027L17.045 36.5425L16.7942 35.5745ZM16.562 35.6347L16.3112 34.6666L16.079 34.7268L16.3297 35.6948L16.5805 36.6629L16.8127 36.6027L16.562 35.6347ZM16.3297 35.6948L16.079 34.7268C15.9889 34.7501 15.9446 34.7413 15.8732 34.6944L15.3236 35.5298L14.7739 36.3652C15.3215 36.7254 15.948 36.8267 16.5805 36.6629L16.3297 35.6948ZM15.3236 35.5298L15.8732 34.6944L15.6743 34.5635L15.1246 35.3989L14.575 36.2343L14.7739 36.3652L15.3236 35.5298ZM15.1246 35.3989L15.6743 34.5635L15.4753 34.4326L14.9257 35.268L14.376 36.1034L14.575 36.2343L15.1246 35.3989ZM14.9257 35.268L15.4753 34.4326C14.9685 34.0991 14.3938 33.9642 13.7932 34.0266L13.8966 35.0213L14 36.0159C14.1525 36 14.2639 36.0296 14.376 36.1034L14.9257 35.268ZM13.8966 35.0213L13.7932 34.0266L13.5511 34.0518L13.6545 35.0464L13.7579 36.0411L14 36.0159L13.8966 35.0213ZM13.6545 35.0464L13.5511 34.0518L13.309 34.0769L13.4124 35.0716L13.5158 36.0662L13.7579 36.0411L13.6545 35.0464ZM13.4124 35.0716L13.309 34.0769C13.2137 34.0869 13.1796 34.0708 13.1264 34.0208L12.4423 34.7502L11.7582 35.4796C12.2453 35.9364 12.858 36.1346 13.5158 36.0662L13.4124 35.0716ZM12.4423 34.7502L13.1264 34.0208L12.9527 33.8579L12.2686 34.5873L11.5845 35.3168L11.7582 35.4796L12.4423 34.7502ZM12.2686 34.5873L12.9527 33.8579L12.779 33.695L12.0949 34.4244L11.4108 35.1539L11.5845 35.3168L12.2686 34.5873ZM12.0949 34.4244L12.779 33.695C12.3739 33.3152 11.89 33.0646 11.3444 32.9585L11.1535 33.9401L10.9626 34.9217C11.1318 34.9546 11.2755 35.0269 11.4108 35.1539L12.0949 34.4244ZM11.1535 33.9401L11.3444 32.9585L11.1147 32.9138L10.9238 33.8954L10.7329 34.877L10.9626 34.9217L11.1535 33.9401ZM10.9238 33.8954L11.1147 32.9138L10.8849 32.8691L10.694 33.8507L10.5031 34.8324L10.7329 34.877L10.9238 33.8954ZM10.694 33.8507L10.8849 32.8691C10.6895 32.8311 10.534 32.755 10.3994 32.6413L9.7539 33.405L9.10836 34.1687C9.51248 34.5103 9.9837 34.7313 10.5031 34.8324L10.694 33.8507ZM9.7539 33.405L10.3994 32.6413L10.2263 32.4949L9.58076 33.2587L8.93523 34.0224L9.10836 34.1687L9.7539 33.405ZM9.58076 33.2587L10.2263 32.4949L10.0532 32.3486L9.40763 33.1123L8.76209 33.8761L8.93523 34.0224L9.58076 33.2587ZM9.40763 33.1123L10.0532 32.3486C9.76252 32.1029 9.46279 31.8704 9.154 31.6512L8.57507 32.4666L7.99614 33.282C8.2588 33.4684 8.5141 33.6665 8.76209 33.8761L9.40763 33.1123ZM8.57507 32.4666L9.154 31.6512L8.97033 31.5208L8.39139 32.3362L7.81246 33.1515L7.99614 33.282L8.57507 32.4666ZM8.39139 32.3362L8.97033 31.5208L8.78665 31.3904L8.20772 32.2057L7.62879 33.0211L7.81246 33.1515L8.39139 32.3362ZM8.20772 32.2057L8.78665 31.3904C8.52449 31.2042 8.27004 31.0065 8.02326 30.7971L7.37627 31.5596L6.72928 32.3221C7.01966 32.5685 7.31951 32.8015 7.62879 33.0211L8.20772 32.2057ZM7.37627 31.5596L8.02326 30.7971L7.85061 30.6506L7.20362 31.4131L6.55663 32.1756L6.72928 32.3221L7.37627 31.5596ZM7.20362 31.4131L7.85061 30.6506L7.67795 30.5041L7.03096 31.2666L6.38397 32.0291L6.55663 32.1756L7.20362 31.4131ZM7.03096 31.2666L7.67795 30.5041C7.50385 30.3564 7.36045 30.1812 7.24564 29.9723L6.36933 30.4541L5.49301 30.9358C5.72322 31.3546 6.02092 31.7211 6.38397 32.0291L7.03096 31.2666ZM6.36933 30.4541L7.24564 29.9723L7.13475 29.7706L6.25843 30.2523L5.38211 30.7341L5.49301 30.9358L6.36933 30.4541ZM6.25843 30.2523L7.13475 29.7706L7.02385 29.5689L6.14753 30.0506L5.27121 30.5323L5.38211 30.7341L6.25843 30.2523ZM6.14753 30.0506L7.02385 29.5689C6.84234 29.2387 6.65445 28.9188 6.46009 28.6093L5.61326 29.1412L4.76642 29.6731C4.93941 29.9485 5.1077 30.2349 5.27121 30.5323L6.14753 30.0506ZM5.61326 29.1412L6.46009 28.6093L6.34202 28.4213L5.49518 28.9532L4.64834 29.485L4.76642 29.6731L5.61326 29.1412ZM5.49518 28.9532L6.34202 28.4213L6.22394 28.2333L5.3771 28.7652L4.53027 29.297L4.64834 29.485L5.49518 28.9532ZM5.3771 28.7652L6.22394 28.2333C5.97896 27.8433 5.67066 27.5 5.30746 27.2028L4.67408 27.9766L4.0407 28.7504C4.24751 28.9197 4.40789 29.1022 4.53027 29.297L5.3771 28.7652ZM4.67408 27.9766L5.30746 27.2028L5.12424 27.0528L4.49086 27.8266L3.85748 28.6005L4.0407 28.7504L4.67408 27.9766ZM4.49086 27.8266L5.12424 27.0528L4.94102 26.9028L4.30764 27.6767L3.67426 28.4505L3.85748 28.6005L4.49086 27.8266ZM4.30764 27.6767L4.94102 26.9028C4.77623 26.768 4.66645 26.6186 4.59479 26.4491L3.67372 26.8385L2.75264 27.2279C2.9562 27.7094 3.26903 28.1188 3.67426 28.4505L4.30764 27.6767ZM3.67372 26.8385L4.59479 26.4491L4.50633 26.2399L3.58525 26.6292L2.66418 27.0186L2.75264 27.2279L3.67372 26.8385ZM3.58525 26.6292L4.50633 26.2399L4.41787 26.0306L3.49679 26.42L2.57571 26.8094L2.66418 27.0186L3.58525 26.6292ZM3.49679 26.42L4.41787 26.0306C4.28266 25.7108 4.15065 25.3903 4.02186 25.0692L3.09373 25.4414L2.1656 25.8137C2.29901 26.1463 2.43571 26.4782 2.57571 26.8094L3.49679 26.42ZM3.09373 25.4414L4.02186 25.0692L3.93758 24.859L3.00945 25.2313L2.08132 25.6035L2.1656 25.8137L3.09373 25.4414ZM3.00945 25.2313L3.93758 24.859L3.8533 24.6489L2.92517 25.0212L1.99704 25.3934L2.08132 25.6035L3.00945 25.2313ZM2.92517 25.0212L3.8533 24.6489C3.70501 24.2792 3.52966 23.9159 3.32809 23.5592L2.45745 24.0511L1.58681 24.543C1.74666 24.826 1.88312 25.1094 1.99704 25.3934L2.92517 25.0212ZM2.45745 24.0511L3.32809 23.5592L3.21192 23.3536L2.34128 23.8455L1.47064 24.3374L1.58681 24.543L2.45745 24.0511ZM2.34128 23.8455L3.21192 23.3536L3.09575 23.148L2.22511 23.6399L1.35447 24.1318L1.47064 24.3374L2.34128 23.8455ZM2.22511 23.6399L3.09575 23.148C3.06731 23.0976 3.046 23.0437 3.09228 22.9039L2.14296 22.5896L1.19364 22.2753C0.988027 22.8963 1.02149 23.5425 1.35447 24.1318L2.22511 23.6399ZM2.14296 22.5896L3.09228 22.9039L3.17324 22.6594L2.22392 22.3451L1.2746 22.0308L1.19364 22.2753L2.14296 22.5896ZM2.22392 22.3451L3.17324 22.6594L3.2542 22.4149L2.30488 22.1005L1.35556 21.7862L1.2746 22.0308L2.22392 22.3451ZM2.30488 22.1005L3.2542 22.4149C3.44689 21.8329 3.45027 21.2269 3.21271 20.6466L2.28726 21.0255L1.36181 21.4043C1.39963 21.4967 1.41476 21.6074 1.35556 21.7862L2.30488 22.1005ZM2.28726 21.0255L3.21271 20.6466L3.1242 20.4304L2.19875 20.8093L1.27329 21.1881L1.36181 21.4043L2.28726 21.0255ZM2.19875 20.8093L3.1242 20.4304L3.03568 20.2142L2.11023 20.593L1.18478 20.9719L1.27329 21.1881L2.19875 20.8093ZM2.11023 20.593L3.03568 20.2142C2.91635 19.9227 2.81842 19.6233 2.74185 19.3157L1.77145 19.5572L0.801054 19.7987C0.900815 20.1995 1.02873 20.5907 1.18478 20.9719L2.11023 20.593ZM1.77145 19.5572L2.74185 19.3157L2.68517 19.0879L1.71477 19.3294L0.744376 19.571L0.801054 19.7987L1.77145 19.5572ZM1.71477 19.3294L2.68517 19.0879L2.62849 18.8602L1.6581 19.1017L0.687699 19.3432L0.744376 19.571L1.71477 19.3294ZM1.6581 19.1017L2.62849 18.8602C2.61083 18.7892 2.60878 18.7155 2.68931 18.5836L1.83573 18.0626L0.982148 17.5417C0.649502 18.0867 0.529028 18.7057 0.687699 19.3432L1.6581 19.1017ZM1.83573 18.0626L2.68931 18.5836L2.82211 18.366L1.96853 17.845L1.11495 17.3241L0.982148 17.5417L1.83573 18.0626ZM1.96853 17.845L2.82211 18.366L2.95492 18.1484L2.10134 17.6274L1.24776 17.1065L1.11495 17.3241L1.96853 17.845ZM2.10134 17.6274L2.95492 18.1484C3.24062 17.6803 3.41044 17.1665 3.42221 16.6182L2.42244 16.5968L1.42267 16.5753C1.41947 16.7243 1.37523 16.8976 1.24776 17.1065L2.10134 17.6274ZM2.42244 16.5968L3.42221 16.6182L3.42702 16.3941L2.42725 16.3727L1.42748 16.3512L1.42267 16.5753L2.42244 16.5968ZM2.42725 16.3727L3.42702 16.3941L3.43183 16.17L2.43206 16.1486L1.43229 16.1271L1.42748 16.3512L2.42725 16.3727ZM2.43206 16.1486L3.43183 16.17C3.4396 15.8077 3.44008 15.438 3.43334 15.0611L2.4335 15.0789L1.43366 15.0968C1.43996 15.4488 1.43947 15.7922 1.43229 16.1271L2.43206 16.1486ZM2.4335 15.0789L3.43334 15.0611L3.42916 14.8268L2.42932 14.8446L1.42948 14.8625L1.43366 15.0968L2.4335 15.0789ZM2.42932 14.8446L3.42916 14.8268L3.42497 14.5925L2.42513 14.6103L1.42529 14.6282L1.42948 14.8625L2.42932 14.8446ZM2.42513 14.6103L3.42497 14.5925C3.41997 14.3126 3.45009 14.0416 3.51461 13.7774L2.54314 13.5402L1.57167 13.303C1.46581 13.7367 1.41726 14.1791 1.42529 14.6282L2.42513 14.6103ZM2.54314 13.5402L3.51461 13.7774L3.56937 13.5531L2.5979 13.3159L1.62643 13.0787L1.57167 13.303L2.54314 13.5402ZM2.5979 13.3159L3.56937 13.5531L3.62413 13.3287L2.65266 13.0916L1.68119 12.8544L1.62643 13.0787L2.5979 13.3159ZM2.65266 13.0916L3.62413 13.3287C3.68356 13.0853 3.77972 12.8587 3.91457 12.6453L3.06917 12.1112L2.22377 11.577C1.97366 11.9729 1.79214 12.3999 1.68119 12.8544L2.65266 13.0916ZM3.06917 12.1112L3.91457 12.6453L4.03831 12.4494L3.19291 11.9153L2.34751 11.3812L2.22377 11.577L3.06917 12.1112ZM3.19291 11.9153L4.03831 12.4494L4.16205 12.2536L3.31665 11.7195L2.47125 11.1853L2.34751 11.3812L3.19291 11.9153ZM3.31665 11.7195L4.16205 12.2536C4.31414 12.0129 4.49231 11.7906 4.69784 11.5861L3.99244 10.8773L3.28704 10.1685C2.97648 10.4775 2.70412 10.8167 2.47125 11.1853L3.31665 11.7195ZM3.99244 10.8773L4.69784 11.5861L4.86373 11.421L4.15832 10.7122L3.45292 10.0034L3.28704 10.1685L3.99244 10.8773ZM4.15832 10.7122L4.86373 11.421L5.02961 11.2559L4.32421 10.5471L3.61881 9.83829L3.45292 10.0034L4.15832 10.7122ZM4.32421 10.5471L5.02961 11.2559C5.38456 10.9027 5.6566 10.4903 5.83873 10.025L4.90751 9.6605L3.9763 9.29603C3.89677 9.49922 3.77994 9.67793 3.61881 9.83829L4.32421 10.5471ZM4.90751 9.6605L5.83873 10.025L5.92283 9.81008L4.99162 9.44561L4.0604 9.08114L3.9763 9.29603L4.90751 9.6605ZM4.99162 9.44561L5.92283 9.81008L6.00694 9.59519L5.07572 9.23073L4.1445 8.86626L4.0604 9.08114L4.99162 9.44561ZM5.07572 9.23073L6.00694 9.59519C6.07898 9.41111 6.18403 9.26356 6.32833 9.13927L5.67573 8.38156L5.02314 7.62386C4.62908 7.96325 4.33411 8.38181 4.1445 8.86626L5.07572 9.23073ZM5.67573 8.38156L6.32833 9.13927L6.50138 8.99023L5.84878 8.23252L5.19619 7.47482L5.02314 7.62386L5.67573 8.38156ZM5.84878 8.23252L6.50138 8.99023L6.67442 8.84119L6.02183 8.08348L5.36923 7.32577L5.19619 7.47482L5.84878 8.23252ZM6.02183 8.08348L6.67442 8.84119C7.03308 8.53228 7.33053 8.1673 7.56621 7.75251L6.69675 7.2585L5.82729 6.76449C5.70144 6.98599 5.54894 7.17099 5.36923 7.32577L6.02183 8.08348ZM6.69675 7.2585L7.56621 7.75251L7.68241 7.54798L6.81296 7.05398L5.9435 6.55997L5.82729 6.76449L6.69675 7.2585ZM6.81296 7.05398L7.68241 7.54798L7.79862 7.34346L6.92916 6.84945L6.0597 6.35544L5.9435 6.55997L6.81296 7.05398ZM6.92916 6.84945L7.79862 7.34346C7.91161 7.14459 8.01883 6.91856 8.07744 6.68063C8.13304 6.45495 8.17738 6.08369 7.98331 5.71047L7.09609 6.17182L6.20888 6.63317C6.14618 6.51259 6.12834 6.40203 6.12548 6.32778C6.12274 6.2566 6.13322 6.21148 6.1355 6.20224C6.13809 6.19172 6.13706 6.19983 6.12413 6.22959C6.11158 6.25846 6.09119 6.30002 6.0597 6.35544L6.92916 6.84945ZM7.09609 6.17182L7.98331 5.71047L7.93865 5.62457L7.05143 6.08592L6.16421 6.54728L6.20888 6.63317L7.09609 6.17182ZM7.05143 6.08592L7.93865 5.62457L7.89398 5.53868L7.00677 6.00003L6.11955 6.46138L6.16421 6.54728L7.05143 6.08592ZM7.00677 6.00003L7.89398 5.53868C7.65015 5.06977 7.20502 4.92245 6.91469 4.88815C6.63824 4.85548 6.36474 4.90034 6.14405 4.95333L6.37755 5.92569L6.61105 6.89805C6.74036 6.86699 6.74673 6.88221 6.68002 6.87433C6.63984 6.86958 6.54628 6.85318 6.43495 6.79003C6.31348 6.72112 6.19721 6.61073 6.11955 6.46138L7.00677 6.00003ZM6.37755 5.92569L6.14405 4.95333L5.91905 5.00736L6.15255 5.97972L6.38605 6.95208L6.61105 6.89805L6.37755 5.92569ZM6.15255 5.97972L5.91905 5.00736L5.69405 5.06139L5.92755 6.03375L6.16105 7.00611L6.38605 6.95208L6.15255 5.97972ZM5.92755 6.03375L5.69405 5.06139C5.48435 5.11175 5.29052 5.11316 5.10128 5.07264L4.89189 6.05047L4.6825 7.0283C5.17414 7.13358 5.67076 7.12384 6.16105 7.00611L5.92755 6.03375ZM4.89189 6.05047L5.10128 5.07264L4.88243 5.02577L4.67304 6.00361L4.46365 6.98144L4.6825 7.0283L4.89189 6.05047ZM4.67304 6.00361L4.88243 5.02577L4.66357 4.97891L4.45418 5.95674L4.24479 6.93457L4.46365 6.98144L4.67304 6.00361ZM4.45418 5.95674L4.66357 4.97891C4.39447 4.92129 4.20072 4.84743 4.06464 4.77249L3.58227 5.64846L3.0999 6.52442C3.44549 6.71473 3.83301 6.8464 4.24479 6.93457L4.45418 5.95674ZM3.58227 5.64846L4.06464 4.77249L3.90982 4.68723L3.42745 5.5632L2.94507 6.43917L3.0999 6.52442L3.58227 5.64846ZM3.42745 5.5632L3.90982 4.68723L3.755 4.60198L3.27262 5.47794L2.79025 6.35391L2.94507 6.43917L3.42745 5.5632ZM3.27262 5.47794L3.755 4.60198C3.61766 4.52635 3.45724 4.4058 3.27724 4.22053L2.56001 4.91736L1.84278 5.6142C2.13125 5.91112 2.44592 6.16429 2.79025 6.35391L3.27262 5.47794ZM2.56001 4.91736L3.27724 4.22053L3.12666 4.06554L2.40943 4.76237L1.6922 5.45921L1.84278 5.6142L2.56001 4.91736ZM2.40943 4.76237L3.12666 4.06554L2.97607 3.91055L2.25884 4.60738L1.54161 5.30422L1.6922 5.45921L2.40943 4.76237ZM2.25884 4.60738L2.97607 3.91055C2.97152 3.90586 2.97539 3.90886 2.98194 3.92035C2.98875 3.93229 2.99496 3.9473 2.99887 3.96317C3.0027 3.97871 3.00261 3.98804 3.00261 3.98793C3.00262 3.98717 3.00297 3.97456 3.00943 3.94812L2.03792 3.7111L1.06642 3.47408C0.906816 4.12825 1.04249 4.79049 1.54161 5.30422L2.25884 4.60738ZM2.03792 3.7111L3.00943 3.94812L3.06533 3.71899L2.09382 3.48197L1.12232 3.24495L1.06642 3.47408L2.03792 3.7111ZM2.09382 3.48197L3.06533 3.71899L3.12123 3.48986L2.14973 3.25283L1.17822 3.01582L1.12232 3.24495L2.09382 3.48197ZM2.14973 3.25283L3.12123 3.48986C3.15029 3.37076 3.20968 3.27048 3.34454 3.1691L2.74365 2.36977L2.14276 1.57044C1.65964 1.93362 1.32308 2.42206 1.17822 3.01582L2.14973 3.25283ZM2.74365 2.36977L3.34454 3.1691L3.54317 3.01978L2.94228 2.22045L2.34139 1.42112L2.14276 1.57044L2.74365 2.36977ZM2.94228 2.22045L3.54317 3.01978L3.74181 2.87046L3.14092 2.07112L2.54003 1.2718L2.34139 1.42112L2.94228 2.22045ZM3.14092 2.07112L3.74181 2.87046C3.79394 2.83127 3.82342 2.82358 3.83302 2.82155C3.84178 2.81969 3.86507 2.81573 3.91561 2.82807L4.15282 1.85661L4.39002 0.885155C3.72435 0.722614 3.08098 0.865143 2.54003 1.2718L3.14092 2.07112ZM4.15282 1.85661L3.91561 2.82807L4.15065 2.88546L4.38785 1.914L4.62506 0.942543L4.39002 0.885155L4.15282 1.85661ZM4.38785 1.914L4.15065 2.88546L4.38568 2.94285L4.62288 1.97139L4.86009 0.999931L4.62506 0.942543L4.38785 1.914ZM4.62288 1.97139L4.38568 2.94285C4.92322 3.0741 5.46642 3.06077 5.99485 2.89546L5.6963 1.94107L5.39774 0.986675C5.22618 1.04034 5.05376 1.04722 4.86009 0.999931L4.62288 1.97139ZM5.6963 1.94107L5.99485 2.89546L6.21985 2.82507L5.9213 1.87068L5.62274 0.91629L5.39774 0.986675L5.6963 1.94107ZM5.9213 1.87068L6.21985 2.82507L6.44485 2.75469L6.1463 1.8003L5.84774 0.845905L5.62274 0.91629L5.9213 1.87068ZM6.1463 1.8003L6.44485 2.75469C6.62761 2.69752 6.79559 2.69245 6.96769 2.73287L7.1963 1.75935L7.4249 0.785827C6.897 0.661865 6.36498 0.684101 5.84774 0.845905L6.1463 1.8003ZM7.1963 1.75935L6.96769 2.73287L7.19269 2.7857L7.4213 1.81218L7.6499 0.838661L7.4249 0.785827L7.1963 1.75935ZM7.4213 1.81218L7.19269 2.7857L7.41769 2.83854L7.6463 1.86502L7.8749 0.891494L7.6499 0.838661L7.4213 1.81218ZM7.6463 1.86502L7.41769 2.83854C7.79119 2.92624 8.16523 2.99982 8.53977 3.05917L8.6963 2.0715L8.85283 1.08383C8.52736 1.03225 8.2014 0.968166 7.8749 0.891494L7.6463 1.86502ZM8.6963 2.0715L8.53977 3.05917L8.76477 3.09483L8.9213 2.10716L9.07783 1.11948L8.85283 1.08383L8.6963 2.0715ZM8.9213 2.10716L8.76477 3.09483L8.98977 3.13049L9.1463 2.14282L9.30283 1.15514L9.07783 1.11948L8.9213 2.10716ZM9.1463 2.14282L8.98977 3.13049C9.54421 3.21836 10.0877 3.13532 10.5988 2.91058L10.1963 1.99517L9.79378 1.07976C9.60488 1.16282 9.44838 1.17821 9.30283 1.15514L9.1463 2.14282ZM10.1963 1.99517L10.5988 2.91058L10.8238 2.81165L10.4213 1.89623L10.0188 0.980823L9.79378 1.07976L10.1963 1.99517ZM10.4213 1.89623L10.8238 2.81165L11.0488 2.71271L10.6463 1.7973L10.2438 0.881885L10.0188 0.980823L10.4213 1.89623ZM10.6463 1.7973L11.0488 2.71271C11.281 2.6106 11.491 2.56966 11.6864 2.57159L11.6963 1.57164L11.7062 0.571685C11.2016 0.566696 10.7116 0.676193 10.2438 0.881885L10.6463 1.7973ZM11.6963 1.57164L11.6864 2.57159L11.9114 2.57381L11.9213 1.57386L11.9312 0.573909L11.7062 0.571685L11.6963 1.57164ZM11.9213 1.57386L11.9114 2.57381L12.1364 2.57604L12.1463 1.57609L12.1562 0.576133L11.9312 0.573909L11.9213 1.57386ZM12.1463 1.57609L12.1364 2.57604C12.502 2.57965 12.8726 2.57478 13.2482 2.56148L13.2129 1.56211L13.1775 0.562736C12.8311 0.574996 12.4906 0.579441 12.1562 0.576133L12.1463 1.57609ZM13.2129 1.56211L13.2482 2.56148L13.4804 2.55327L13.445 1.5539L13.4096 0.554523L13.1775 0.562736L13.2129 1.56211ZM13.445 1.5539L13.4804 2.55327L13.7125 2.54505L13.6771 1.54568L13.6417 0.546306L13.4096 0.554523L13.445 1.5539ZM13.6771 1.54568L13.7125 2.54505C13.9027 2.53832 14.1087 2.57666 14.3406 2.68335L14.7585 1.77488L15.1765 0.866405C14.6886 0.641944 14.1736 0.527484 13.6417 0.546306L13.6771 1.54568ZM14.7585 1.77488L14.3406 2.68335L14.5719 2.78979L14.9899 1.88132L15.4078 0.972846L15.1765 0.866405L14.7585 1.77488ZM14.9899 1.88132L14.5719 2.78979L14.8033 2.89622L15.2212 1.98776L15.6392 1.07929L15.4078 0.972846L14.9899 1.88132ZM15.2212 1.98776L14.8033 2.89622C14.863 2.92372 14.8804 2.94486 14.8832 2.94831C14.8854 2.95108 14.899 2.967 14.9106 3.01916L15.8868 2.80238L16.8631 2.58558C16.7095 1.89429 16.2749 1.37175 15.6392 1.07929L15.2212 1.98776ZM15.8868 2.80238L14.9106 3.01916L14.9645 3.26185L15.9407 3.04505L16.9169 2.82826L16.8631 2.58558L15.8868 2.80238ZM15.9407 3.04505L14.9645 3.26185L15.0184 3.50453L15.9946 3.28773L16.9708 3.07095L16.9169 2.82826L15.9407 3.04505ZM15.9946 3.28773L15.0184 3.50453C15.1324 4.01789 15.3469 4.48823 15.6679 4.89961L16.4563 4.2844L17.2446 3.66918C17.1178 3.50669 17.0245 3.31259 16.9708 3.07095L15.9946 3.28773ZM16.4563 4.2844L15.6679 4.89961L15.8118 5.08407L16.6002 4.46886L17.3886 3.85364L17.2446 3.66918L16.4563 4.2844ZM16.6002 4.46886L15.8118 5.08407L15.9558 5.26853L16.7441 4.65332L17.5325 4.0381L17.3886 3.85364L16.6002 4.46886ZM16.7441 4.65332L15.9558 5.26853C16.0459 5.38401 16.0749 5.4829 16.0735 5.59606L17.0734 5.60872L18.0733 5.62138C18.0807 5.03454 17.8902 4.49649 17.5325 4.0381L16.7441 4.65332ZM17.0734 5.60872L16.0735 5.59606L16.0706 5.82106L17.0705 5.83372L18.0705 5.84638L18.0733 5.62138L17.0734 5.60872ZM17.0705 5.83372L16.0706 5.82106L16.0678 6.04606L17.0677 6.05872L18.0676 6.07138L18.0705 5.84638L17.0705 5.83372ZM17.0677 6.05872L16.0678 6.04606C16.0651 6.25444 16.0198 6.47585 15.9172 6.71624L16.837 7.10872L17.7568 7.5012C17.9529 7.04159 18.0614 6.563 18.0676 6.07138L17.0677 6.05872ZM16.837 7.10872L15.9172 6.71624L15.8212 6.94124L16.741 7.33372L17.6608 7.7262L17.7568 7.5012L16.837 7.10872ZM16.741 7.33372L15.8212 6.94124L15.7252 7.16624L16.645 7.55872L17.5647 7.9512L17.6608 7.7262L16.741 7.33372ZM16.645 7.55872L15.7252 7.16624C15.4593 7.78937 15.4832 8.44183 15.7764 9.04559L16.6759 8.60872L17.5755 8.17186C17.5287 8.07562 17.5319 8.02807 17.5647 7.9512L16.645 7.55872ZM16.6759 8.60872L15.7764 9.04559L15.8857 9.27059L16.7852 8.83372L17.6847 8.39686L17.5755 8.17186L16.6759 8.60872ZM16.7852 8.83372L15.8857 9.27059L15.9949 9.49559L16.8945 9.05872L17.794 8.62186L17.6847 8.39686L16.7852 8.83372ZM16.8945 9.05872L15.9949 9.49559C16.0953 9.70223 16.1221 9.87385 16.1095 10.0264L17.1061 10.1087L18.1027 10.1911C18.1479 9.6436 18.0336 9.11522 17.794 8.62186L16.8945 9.05872ZM17.1061 10.1087L16.1095 10.0264L16.0909 10.2514L17.0875 10.3337L18.0841 10.4161L18.1027 10.1911L17.1061 10.1087ZM17.0875 10.3337L16.0909 10.2514L16.0723 10.4764L17.0689 10.5587L18.0655 10.6411L18.0841 10.4161L17.0875 10.3337ZM17.0689 10.5587L16.0723 10.4764C16.0402 10.8646 16.0306 11.2532 16.0434 11.6417L17.0429 11.6087L18.0423 11.5757C18.032 11.2643 18.0398 10.9528 18.0655 10.6411L17.0689 10.5587ZM17.0429 11.6087L16.0434 11.6417L16.0508 11.8667L17.0503 11.8337L18.0498 11.8007L18.0423 11.5757L17.0429 11.6087ZM17.0503 11.8337L16.0508 11.8667L16.0583 12.0917L17.0577 12.0587L18.0572 12.0257L18.0498 11.8007L17.0503 11.8337ZM17.0577 12.0587L16.0583 12.0917C16.0699 12.4427 16.082 12.7937 16.0946 13.1446L17.0939 13.1087L18.0933 13.0728C18.0807 12.7238 18.0687 12.3747 18.0572 12.0257L17.0577 12.0587ZM17.0939 13.1087L16.0946 13.1446L16.1027 13.3696L17.102 13.3337L18.1014 13.2978L18.0933 13.0728L17.0939 13.1087ZM17.102 13.3337L16.1027 13.3696L16.1107 13.5946L17.1101 13.5587L18.1095 13.5228L18.1014 13.2978L17.102 13.3337ZM17.1101 13.5587L16.1107 13.5946C16.1169 13.7655 16.0813 13.9249 15.9943 14.089L16.8778 14.5575L17.7613 15.0259C18.0091 14.5584 18.1285 14.052 18.1095 13.5228L17.1101 13.5587ZM16.8778 14.5575L15.9943 14.089L15.8866 14.292L16.7701 14.7605L17.6536 15.2289L17.7613 15.0259L16.8778 14.5575ZM16.7701 14.7605L15.8866 14.292L15.779 14.4951L16.6625 14.9635L17.546 15.432L17.6536 15.2289L16.7701 14.7605ZM16.6625 14.9635L15.779 14.4951C15.5754 14.879 15.4121 15.2942 15.2854 15.7367L16.2468 16.0119L17.2082 16.2871C17.3008 15.9634 17.4146 15.6797 17.546 15.432L16.6625 14.9635ZM16.2468 16.0119L15.2854 15.7367L15.2149 15.983L16.1763 16.2582L17.1377 16.5334L17.2082 16.2871L16.2468 16.0119ZM16.1763 16.2582L15.2149 15.983L15.1444 16.2293L16.1058 16.5045L17.0672 16.7797L17.1377 16.5334L16.1763 16.2582ZM16.1058 16.5045L15.1444 16.2293C15.1305 16.2777 15.1646 16.1128 15.3773 16.0015C15.5903 15.8899 15.7458 15.956 15.6991 15.94L15.3763 16.8865L15.0535 17.833C15.3835 17.9455 15.8489 18.0121 16.3051 17.7732C16.7609 17.5345 16.9714 17.1144 17.0672 16.7797L16.1058 16.5045ZM15.3763 16.8865L15.6991 15.94L15.457 15.8574L15.1342 16.8039L14.8114 17.7504L15.0535 17.833L15.3763 16.8865ZM15.1342 16.8039L15.457 15.8574L15.2149 15.7749L14.8921 16.7213L14.5693 17.6678L14.8114 17.7504L15.1342 16.8039ZM14.8921 16.7213L15.2149 15.7749C14.9139 15.6722 14.7435 15.5683 14.6545 15.492L14.0035 16.2511L13.3525 17.0101C13.695 17.3039 14.1169 17.5135 14.5693 17.6678L14.8921 16.7213ZM14.0035 16.2511L14.6545 15.492L14.5158 15.3731L13.8648 16.1321L13.2137 16.8912L13.3525 17.0101L14.0035 16.2511ZM13.8648 16.1321L14.5158 15.3731L14.3771 15.2541L13.7261 16.0132L13.075 16.7722L13.2137 16.8912L13.8648 16.1321ZM13.7261 16.0132L14.3771 15.2541C14.1865 15.0906 13.9655 14.8838 13.7132 14.6301L13.0043 15.3355L12.2954 16.0408C12.5739 16.3207 12.8341 16.5656 13.075 16.7722L13.7261 16.0132ZM13.0043 15.3355L13.7132 14.6301L13.5425 14.4587L12.8337 15.164L12.1248 15.8693L12.2954 16.0408L13.0043 15.3355ZM12.8337 15.164L13.5425 14.4587L13.3719 14.2872L12.6631 14.9925L11.9542 15.6979L12.1248 15.8693L12.8337 15.164ZM12.6631 14.9925L13.3719 14.2872C13.3649 14.2801 13.3759 14.2894 13.3908 14.3177C13.4067 14.3477 13.4214 14.3889 13.4274 14.4371C13.4402 14.5393 13.405 14.583 13.4286 14.539L12.5476 14.066L11.6665 13.593C11.5017 13.8999 11.3916 14.2736 11.4428 14.6845C11.4948 15.102 11.6988 15.4412 11.9542 15.6979L12.6631 14.9925ZM12.5476 14.066L13.4286 14.539L13.5497 14.3134L12.6687 13.8404L11.7876 13.3674L11.6665 13.593L12.5476 14.066ZM12.6687 13.8404L13.5497 14.3134L13.6709 14.0877L12.7898 13.6147L11.9087 13.1417L11.7876 13.3674L12.6687 13.8404ZM12.7898 13.6147L13.6709 14.0877C13.835 13.782 13.937 13.4293 13.9157 13.0463C13.8943 12.6614 13.7526 12.3203 13.5477 12.0338L12.7343 12.6156L11.921 13.1974C11.9326 13.2136 11.9322 13.217 11.9287 13.2075C11.9247 13.197 11.92 13.1793 11.9188 13.1572C11.9176 13.1352 11.9204 13.1197 11.9218 13.1138C11.923 13.1089 11.9215 13.1179 11.9087 13.1417L12.7898 13.6147ZM12.7343 12.6156L13.5477 12.0338L13.4028 11.8313L12.5894 12.4131L11.7761 12.9948L11.921 13.1974L12.7343 12.6156ZM12.5894 12.4131L13.4028 11.8313L13.2579 11.6287L12.4445 12.2105L11.6312 12.7923L11.7761 12.9948L12.5894 12.4131ZM12.4445 12.2105L13.2579 11.6287C13.0011 11.2697 12.7273 10.9496 12.4337 10.6769L11.753 11.4095L11.0724 12.1421C11.25 12.3071 11.4372 12.5211 11.6312 12.7923L12.4445 12.2105ZM11.753 11.4095L12.4337 10.6769L12.2822 10.5362L11.6016 11.2688L10.9209 12.0014L11.0724 12.1421L11.753 11.4095ZM11.6016 11.2688L12.2822 10.5362L12.1308 10.3955L11.4501 11.1281L10.7695 11.8607L10.9209 12.0014L11.6016 11.2688ZM11.4501 11.1281L12.1308 10.3955C11.78 10.0696 11.3611 9.83232 10.8998 9.66767L10.5636 10.6095L10.2275 11.5513C10.4769 11.6403 10.6491 11.7488 10.7695 11.8607L11.4501 11.1281ZM10.5636 10.6095L10.8998 9.66767L10.6713 9.58613L10.3352 10.5279L9.99905 11.4698L10.2275 11.5513L10.5636 10.6095ZM10.3352 10.5279L10.6713 9.58613L10.4428 9.50459L10.1067 10.4464L9.77058 11.3882L9.99905 11.4698L10.3352 10.5279ZM10.1067 10.4464L10.4428 9.50459C10.108 9.3851 9.69026 9.33394 9.26731 9.50364C8.84789 9.67193 8.58182 9.99401 8.41943 10.3033L9.30483 10.7682L10.1902 11.233C10.207 11.201 10.1642 11.2988 10.0121 11.3598C9.85642 11.4223 9.75 11.3809 9.77058 11.3882L10.1067 10.4464ZM9.30483 10.7682L8.41943 10.3033L8.30423 10.5228L9.18964 10.9876L10.075 11.4524L10.1902 11.233L9.30483 10.7682ZM9.18964 10.9876L8.30423 10.5228L8.18904 10.7422L9.07444 11.207L9.95985 11.6718L10.075 11.4524L9.18964 10.9876ZM9.07444 11.207L8.18904 10.7422C8.06401 10.9803 7.91228 11.1715 7.73558 11.3258L8.39326 12.0791L9.05094 12.8324C9.42411 12.5066 9.7265 12.1163 9.95985 11.6718L9.07444 11.207ZM8.39326 12.0791L7.73558 11.3258L7.55884 11.4801L8.21652 12.2334L8.8742 12.9867L9.05094 12.8324L8.39326 12.0791ZM8.21652 12.2334L7.55884 11.4801L7.38209 11.6344L8.03977 12.3877L8.69745 13.141L8.8742 12.9867L8.21652 12.2334ZM8.03977 12.3877L7.38209 11.6344C7.0123 11.9572 6.71378 12.3386 6.49403 12.7749L7.38715 13.2247L8.28028 13.6745C8.38082 13.4749 8.51738 13.2982 8.69745 13.141L8.03977 12.3877ZM7.38715 13.2247L6.49403 12.7749L6.39107 12.9793L7.2842 13.4291L8.17733 13.8789L8.28028 13.6745L7.38715 13.2247ZM7.2842 13.4291L6.39107 12.9793L6.28812 13.1837L7.18125 13.6336L8.07437 14.0834L8.17733 13.8789L7.2842 13.4291ZM7.18125 13.6336L6.28812 13.1837C6.11219 13.5331 5.95476 13.8913 5.81585 14.2584L6.75111 14.6123L7.68637 14.9663C7.80067 14.6643 7.93001 14.37 8.07437 14.0834L7.18125 13.6336ZM6.75111 14.6123L5.81585 14.2584L5.73446 14.4734L6.66972 14.8274L7.60498 15.1814L7.68637 14.9663L6.75111 14.6123ZM6.66972 14.8274L5.73446 14.4734L5.65306 14.6885L6.58833 15.0425L7.52359 15.3964L7.60498 15.1814L6.66972 14.8274ZM6.58833 15.0425L5.65306 14.6885C5.46387 15.1884 5.41226 15.7119 5.48899 16.2413L6.47865 16.0978L7.46831 15.9544C7.43805 15.7457 7.45956 15.5656 7.52359 15.3964L6.58833 15.0425ZM6.47865 16.0978L5.48899 16.2413L5.52338 16.4785L6.51304 16.3351L7.5027 16.1916L7.46831 15.9544L6.47865 16.0978ZM6.51304 16.3351L5.52338 16.4785L5.55777 16.7158L6.54743 16.5723L7.53708 16.4289L7.5027 16.1916L6.51304 16.3351ZM6.54743 16.5723L5.55777 16.7158C5.60175 17.0192 5.61203 17.3019 5.59264 17.5659L6.58996 17.6391L7.58727 17.7124C7.61816 17.292 7.60008 16.8635 7.53708 16.4289L6.54743 16.5723ZM6.58996 17.6391L5.59264 17.5659L5.57648 17.7858L6.5738 17.8591L7.57111 17.9324L7.58727 17.7124L6.58996 17.6391ZM6.5738 17.8591L5.57648 17.7858L5.56032 18.0058L6.55764 18.0791L7.55495 18.1523L7.57111 17.9324L6.5738 17.8591ZM6.55764 18.0791L5.56032 18.0058C5.53958 18.2881 5.49286 18.578 5.41852 18.8761L6.3888 19.1181L7.35908 19.3601C7.45958 18.9571 7.52541 18.5543 7.55495 18.1523L6.55764 18.0791ZM6.3888 19.1181L5.41852 18.8761L5.36232 19.1014L6.3326 19.3434L7.30288 19.5854L7.35908 19.3601L6.3888 19.1181ZM6.3326 19.3434L5.36232 19.1014L5.30612 19.3267L6.2764 19.5687L7.24668 19.8107L7.30288 19.5854L6.3326 19.3434ZM6.2764 19.5687L5.30612 19.3267C5.15346 19.9388 5.24857 20.5415 5.56089 21.081L6.42634 20.58L7.29179 20.079C7.22936 19.9712 7.22451 19.8996 7.24668 19.8107L6.2764 19.5687ZM6.42634 20.58L5.56089 21.081L5.68134 21.2891L6.5468 20.7881L7.41225 20.2871L7.29179 20.079L6.42634 20.58ZM6.5468 20.7881L5.68134 21.2891L5.8018 21.4972L6.66725 20.9962L7.53271 20.4952L7.41225 20.2871L6.5468 20.7881ZM6.66725 20.9962L5.8018 21.4972C5.90461 21.6748 5.94451 21.838 5.94278 22.0018L6.94273 22.0123L7.94267 22.0229C7.9484 21.4792 7.80465 20.965 7.53271 20.4952L6.66725 20.9962ZM6.94273 22.0123L5.94278 22.0018L5.94039 22.2292L6.94033 22.2397L7.94028 22.2503L7.94267 22.0229L6.94273 22.0123ZM6.94033 22.2397L5.94039 22.2292L5.93799 22.4566L6.93794 22.4671L7.93788 22.4777L7.94028 22.2503L6.94033 22.2397ZM6.93794 22.4671L5.93799 22.4566C5.93399 22.8369 5.94507 23.2247 5.97094 23.62L6.9688 23.5546L7.96666 23.4893C7.94393 23.142 7.93444 22.8048 7.93788 22.4777L6.93794 22.4671ZM6.9688 23.5546L5.97094 23.62L5.98656 23.8586L6.98442 23.7933L7.98229 23.728L7.96666 23.4893L6.9688 23.5546ZM6.98442 23.7933L5.98656 23.8586L6.00218 24.0973L7.00004 24.032L7.99791 23.9667L7.98229 23.728L6.98442 23.7933ZM7.00004 24.032L6.00218 24.0973C6.04856 24.806 6.41269 25.3759 6.9878 25.7517L7.53481 24.9145L8.08182 24.0774C8.02179 24.0382 8.00766 24.0136 8.0072 24.0129C8.00624 24.0113 8.00516 24.0093 8.0038 24.0048C8.00234 24 7.99932 23.9882 7.99791 23.9667L7.00004 24.032ZM7.53481 24.9145L6.9878 25.7517L7.20136 25.8912L7.74837 25.0541L8.29538 24.2169L8.08182 24.0774L7.53481 24.9145ZM7.74837 25.0541L7.20136 25.8912L7.41492 26.0307L7.96193 25.1936L8.50894 24.3565L8.29538 24.2169L7.74837 25.0541ZM7.96193 25.1936L7.41492 26.0307C7.6657 26.1946 7.84144 26.3618 7.96293 26.5244L8.76403 25.9258L9.56513 25.3273C9.28158 24.9478 8.92257 24.6268 8.50894 24.3565L7.96193 25.1936ZM8.76403 25.9258L7.96293 26.5244L8.09313 26.6986L8.89423 26.1001L9.69533 25.5016L9.56513 25.3273L8.76403 25.9258ZM8.89423 26.1001L8.09313 26.6986L8.22333 26.8729L9.02442 26.2744L9.82552 25.6758L9.69533 25.5016L8.89423 26.1001ZM9.02442 26.2744L8.22333 26.8729C8.37676 27.0783 8.51344 27.3134 8.63108 27.5823L9.54719 27.1813L10.4633 26.7804C10.289 26.3821 10.0771 26.0126 9.82552 25.6758L9.02442 26.2744ZM9.54719 27.1813L8.63108 27.5823L8.72493 27.7967L9.64104 27.3958L10.5572 26.9948L10.4633 26.7804L9.54719 27.1813ZM9.64104 27.3958L8.72493 27.7967L8.81877 28.0111L9.73489 27.6102L10.651 27.2093L10.5572 26.9948L9.64104 27.3958ZM9.73489 27.6102L8.81877 28.0111C9.07326 28.5926 9.52062 29.0154 10.1106 29.2422L10.4694 28.3087L10.8282 27.3753C10.7308 27.3379 10.6885 27.2949 10.651 27.2093L9.73489 27.6102ZM10.4694 28.3087L10.1106 29.2422L10.3316 29.3271L10.6904 28.3937L11.0491 27.4602L10.8282 27.3753L10.4694 28.3087ZM10.6904 28.3937L10.3316 29.3271L10.5525 29.412L10.9113 28.4786L11.2701 27.5452L11.0491 27.4602L10.6904 28.3937ZM10.9113 28.4786L10.5525 29.412C10.7802 29.4995 10.9589 29.6151 11.1024 29.7537L11.7972 29.0345L12.492 28.3153C12.1417 27.9769 11.7298 27.7219 11.2701 27.5452L10.9113 28.4786ZM11.7972 29.0345L11.1024 29.7537L11.2611 29.907L11.9559 29.1878L12.6507 28.4686L12.492 28.3153L11.7972 29.0345ZM11.9559 29.1878L11.2611 29.907L11.4198 30.0603L12.1146 29.3411L12.8094 28.6219L12.6507 28.4686L11.9559 29.1878ZM12.1146 29.3411L11.4198 30.0603C11.7482 30.3775 12.1217 30.6322 12.5367 30.821L12.9508 29.9108L13.3649 29.0006C13.1587 28.9068 12.9748 28.7817 12.8094 28.6219L12.1146 29.3411ZM12.9508 29.9108L12.5367 30.821L12.7363 30.9118L13.1504 30.0016L13.5646 29.0914L13.3649 29.0006L12.9508 29.9108ZM13.1504 30.0016L12.7363 30.9118L12.936 31.0027L13.3501 30.0925L13.7642 29.1822L13.5646 29.0914L13.1504 30.0016ZM13.3501 30.0925L12.936 31.0027C13.243 31.1424 13.5494 31.2839 13.855 31.4272L14.2796 30.5218L14.7041 29.6164C14.3916 29.4698 14.0783 29.3251 13.7642 29.1822L13.3501 30.0925ZM14.2796 30.5218L13.855 31.4272L14.0537 31.5204L14.4783 30.615L14.9028 29.7096L14.7041 29.6164L14.2796 30.5218ZM14.4783 30.615L14.0537 31.5204L14.2524 31.6136L14.677 30.7082L15.1016 29.8028L14.9028 29.7096L14.4783 30.615ZM14.677 30.7082L14.2524 31.6136C14.5113 31.7349 14.7761 31.8855 15.0469 32.0675L15.6047 31.2375L16.1626 30.4076C15.8146 30.1737 15.4609 29.9713 15.1016 29.8028L14.677 30.7082ZM15.6047 31.2375L15.0469 32.0675L15.2458 32.2012L15.8036 31.3712L16.3615 30.5413L16.1626 30.4076L15.6047 31.2375ZM15.8036 31.3712L15.2458 32.2012L15.4447 32.3348L16.0025 31.5049L16.5604 30.6749L16.3615 30.5413L15.8036 31.3712ZM16.0025 31.5049L15.4447 32.3348C15.933 32.663 16.4884 32.8179 17.0792 32.7745L17.006 31.7772L16.9327 30.7799C16.8044 30.7893 16.6909 30.7627 16.5604 30.6749L16.0025 31.5049ZM17.006 31.7772L17.0792 32.7745L17.3104 32.7576L17.2371 31.7602L17.1639 30.7629L16.9327 30.7799L17.006 31.7772ZM17.2371 31.7602L17.3104 32.7576L17.5415 32.7406L17.4683 31.7433L17.395 30.746L17.1639 30.7629L17.2371 31.7602ZM17.4683 31.7433L17.5415 32.7406C17.9722 32.709 18.3954 32.6319 18.8097 32.5095L18.5265 31.5505L18.2433 30.5914C17.9658 30.6733 17.6834 30.7248 17.395 30.746L17.4683 31.7433ZM18.5265 31.5505L18.8097 32.5095L19.032 32.4439L18.7488 31.4848L18.4657 30.5257L18.2433 30.5914L18.5265 31.5505ZM18.7488 31.4848L19.032 32.4439L19.2544 32.3782L18.9712 31.4191L18.688 30.4601L18.4657 30.5257L18.7488 31.4848ZM18.9712 31.4191L19.2544 32.3782C19.3548 32.3486 19.4695 32.3454 19.6403 32.4187L20.0348 31.4998L20.4292 30.5809C19.8738 30.3424 19.2795 30.2854 18.688 30.4601L18.9712 31.4191ZM20.0348 31.4998L19.6403 32.4187L19.8737 32.5189L20.2682 31.6L20.6627 30.6811L20.4292 30.5809L20.0348 31.4998ZM20.2682 31.6L19.8737 32.5189L20.1071 32.6191L20.5016 31.7002L20.8961 30.7813L20.6627 30.6811L20.2682 31.6ZM20.5016 31.7002L20.1071 32.6191C20.7096 32.8777 21.3576 32.8934 21.9701 32.6012L21.5394 31.6987L21.1088 30.7962C21.0637 30.8177 21.0199 30.8344 20.8961 30.7813L20.5016 31.7002ZM21.5394 31.6987L21.9701 32.6012L22.1815 32.5003L21.7508 31.5978L21.3201 30.6953L21.1088 30.7962L21.5394 31.6987ZM21.7508 31.5978L22.1815 32.5003L22.3928 32.3995L21.9621 31.497L21.5315 30.5944L21.3201 30.6953L21.7508 31.5978ZM21.9621 31.497L22.3928 32.3995C22.6876 32.2588 22.9803 32.1396 23.2711 32.041L22.9501 31.0939L22.629 30.1468C22.2601 30.2719 21.8943 30.4213 21.5315 30.5944L21.9621 31.497ZM22.9501 31.0939L23.2711 32.041L23.4832 31.9691L23.1621 31.022L22.8411 30.075L22.629 30.1468L22.9501 31.0939ZM23.1621 31.022L23.4832 31.9691L23.6952 31.8972L23.3742 30.9502L23.0531 30.0031L22.8411 30.075L23.1621 31.022ZM23.3742 30.9502L23.6952 31.8972C23.9706 31.8039 24.2651 31.7304 24.58 31.6783L24.4166 30.6917L24.2532 29.7052C23.8379 29.774 23.4375 29.8728 23.0531 30.0031L23.3742 30.9502ZM24.4166 30.6917L24.58 31.6783L24.8147 31.6394L24.6513 30.6529L24.4879 29.6663L24.2532 29.7052L24.4166 30.6917ZM24.6513 30.6529L24.8147 31.6394L25.0494 31.6006L24.886 30.614L24.7226 29.6274L24.4879 29.6663L24.6513 30.6529ZM24.886 30.614L25.0494 31.6006C25.7457 31.4852 26.2744 31.0709 26.5974 30.4719L25.7171 29.9974L24.8369 29.5228C24.8012 29.589 24.7756 29.6085 24.7717 29.6114C24.7688 29.6136 24.7657 29.6155 24.7606 29.6176C24.7552 29.6198 24.7434 29.624 24.7226 29.6274L24.886 30.614ZM25.7171 29.9974L26.5974 30.4719L26.7189 30.2465L25.8387 29.772L24.9584 29.2974L24.8369 29.5228L25.7171 29.9974ZM25.8387 29.772L26.7189 30.2465L26.8404 30.0211L25.9602 29.5466L25.0799 29.072L24.9584 29.2974L25.8387 29.772ZM25.9602 29.5466L26.8404 30.0211C26.9255 29.8632 27.0129 29.8007 27.1079 29.7652L26.7577 28.8285L26.4076 27.8918C25.8172 28.1125 25.3729 28.5287 25.0799 29.072L25.9602 29.5466ZM26.7577 28.8285L27.1079 29.7652L27.3282 29.6828L26.978 28.7461L26.6279 27.8094L26.4076 27.8918L26.7577 28.8285ZM26.978 28.7461L27.3282 29.6828L27.5485 29.6005L27.1983 28.6638L26.8482 27.7271L26.6279 27.8094L26.978 28.7461ZM27.1983 28.6638L27.5485 29.6005C28.0155 29.4259 28.4325 29.1662 28.7886 28.821L28.0926 28.103L27.3965 27.3851C27.2456 27.5313 27.0665 27.6455 26.8482 27.7271L27.1983 28.6638ZM28.0926 28.103L28.7886 28.821L28.9516 28.663L28.2555 27.9451L27.5594 27.2271L27.3965 27.3851L28.0926 28.103ZM28.2555 27.9451L28.9516 28.663L29.1145 28.5051L28.4184 27.7871L27.7224 27.0691L27.5594 27.2271L28.2555 27.9451ZM28.4184 27.7871L29.1145 28.5051C29.4195 28.2093 29.6899 27.8839 29.9247 27.5298L29.0913 26.9771L28.258 26.4244C28.1025 26.6588 27.9242 26.8734 27.7224 27.0691L28.4184 27.7871ZM29.0913 26.9771L29.9247 27.5298L30.0502 27.3406L29.2168 26.7879L28.3834 26.2352L28.258 26.4244L29.0913 26.9771ZM29.2168 26.7879L30.0502 27.3406L30.1757 27.1514L29.3423 26.5987L28.5089 26.0461L28.3834 26.2352L29.2168 26.7879ZM29.3423 26.5987L30.1757 27.1514C30.3679 26.8615 30.5623 26.5733 30.7588 26.2868L29.9341 25.7212L29.1095 25.1556C28.9071 25.4506 28.7069 25.7475 28.5089 26.0461L29.3423 26.5987ZM29.9341 25.7212L30.7588 26.2868L30.887 26.0999L30.0623 25.5343L29.2377 24.9687L29.1095 25.1556L29.9341 25.7212ZM30.0623 25.5343L30.887 26.0999L31.0152 25.913L30.1905 25.3474L29.3659 24.7818L29.2377 24.9687L30.0623 25.5343ZM30.1905 25.3474L31.0152 25.913C31.2216 25.612 31.4246 25.3041 31.624 24.9894L30.7793 24.4542L29.9346 23.9189C29.7478 24.2137 29.5582 24.5013 29.3659 24.7818L30.1905 25.3474ZM30.7793 24.4542L31.624 24.9894L31.7481 24.7935L30.9034 24.2583L30.0587 23.723L29.9346 23.9189L30.7793 24.4542ZM30.9034 24.2583L31.7481 24.7935L31.8722 24.5976L31.0275 24.0624L30.1828 23.5271L30.0587 23.723L30.9034 24.2583ZM31.0275 24.0624L31.8722 24.5976C32.2121 24.0611 32.3066 23.4564 32.1944 22.8467L31.2109 23.0276L30.2274 23.2085C30.2569 23.369 30.2291 23.4541 30.1828 23.5271L31.0275 24.0624ZM31.2109 23.0276L32.1944 22.8467L32.1489 22.5992L31.1654 22.7801L30.1819 22.9609L30.2274 23.2085L31.2109 23.0276ZM31.1654 22.7801L32.1489 22.5992L32.1033 22.3516L31.1198 22.5325L30.1363 22.7134L30.1819 22.9609L31.1654 22.7801ZM31.1198 22.5325L32.1033 22.3516C32.0777 22.2123 32.0999 22.1253 32.1621 22.0314L31.3281 21.4795L30.4942 20.9277C30.137 21.4675 30.0203 22.0825 30.1363 22.7134L31.1198 22.5325ZM31.3281 21.4795L32.1621 22.0314L32.2969 21.8276L31.4629 21.2758L30.629 20.724L30.4942 20.9277L31.3281 21.4795ZM31.4629 21.2758L32.2969 21.8276L32.4317 21.6239L31.5977 21.0721L30.7638 20.5203L30.629 20.724L31.4629 21.2758ZM31.5977 21.0721L32.4317 21.6239C32.8225 21.0333 32.8913 20.3545 32.6339 19.6976L31.7028 20.0626L30.7718 20.4275C30.7819 20.4533 30.785 20.4689 30.786 20.4753C30.7869 20.4811 30.7863 20.4815 30.7866 20.4785C30.7869 20.4755 30.7875 20.4754 30.7858 20.48C30.7839 20.485 30.7782 20.4985 30.7638 20.5203L31.5977 21.0721ZM31.7028 20.0626L32.6339 19.6976L32.5441 19.4687L31.6131 19.8336L30.6821 20.1986L30.7718 20.4275L31.7028 20.0626ZM31.6131 19.8336L32.5441 19.4687L32.4544 19.2397L31.5234 19.6047L30.5923 19.9696L30.6821 20.1986L31.6131 19.8336ZM31.5234 19.6047L32.4544 19.2397C32.3994 19.0994 32.3999 18.9902 32.4422 18.8681L31.4972 18.541L30.5522 18.2139C30.3501 18.7978 30.3681 19.3977 30.5923 19.9696L31.5234 19.6047ZM31.4972 18.541L32.4422 18.8681L32.5207 18.6412L31.5757 18.3141L30.6307 17.987L30.5522 18.2139L31.4972 18.541ZM31.5757 18.3141L32.5207 18.6412L32.5993 18.4143L31.6543 18.0872L30.7093 17.7601L30.6307 17.987L31.5757 18.3141ZM31.6543 18.0872L32.5993 18.4143C32.8225 17.7693 32.7417 17.1152 32.3743 16.5428L31.5327 17.083L30.6912 17.6232C30.7209 17.6694 30.7226 17.6904 30.7228 17.6916C30.7229 17.6926 30.7261 17.7115 30.7093 17.7601L31.6543 18.0872ZM31.5327 17.083L32.3743 16.5428L32.2436 16.3393L31.4021 16.8795L30.5606 17.4197L30.6912 17.6232L31.5327 17.083ZM31.4021 16.8795L32.2436 16.3393L32.113 16.1358L31.2715 16.676L30.43 17.2162L30.5606 17.4197L31.4021 16.8795ZM31.2715 16.676L32.113 16.1358C31.9602 15.8977 31.8622 15.6726 31.8066 15.4598L30.8391 15.7124L29.8715 15.9651C29.9861 16.404 30.1765 16.8213 30.43 17.2162L31.2715 16.676ZM30.8391 15.7124L31.8066 15.4598L31.7519 15.2503L30.7844 15.5029L29.8168 15.7556L29.8715 15.9651L30.8391 15.7124ZM30.7844 15.5029L31.7519 15.2503L31.6972 15.0408L30.7297 15.2934L29.7621 15.5461L29.8168 15.7556L30.7844 15.5029ZM30.7297 15.2934L31.6972 15.0408C31.625 14.7643 31.5708 14.4702 31.5358 14.1577L30.542 14.269L29.5483 14.3803C29.5932 14.7819 29.6641 15.1708 29.7621 15.5461L30.7297 15.2934ZM30.542 14.269L31.5358 14.1577L31.5101 13.9281L30.5163 14.0395L29.5225 14.1508L29.5483 14.3803L30.542 14.269ZM30.5163 14.0395L31.5101 13.9281L31.4844 13.6986L30.4906 13.8099L29.4968 13.9212L29.5225 14.1508L30.5163 14.0395ZM30.4906 13.8099L31.4844 13.6986C31.4226 13.147 31.2092 12.6461 30.8477 12.223L30.0874 12.8726L29.3271 13.5222C29.4233 13.6347 29.4786 13.7586 29.4968 13.9212L30.4906 13.8099ZM30.0874 12.8726L30.8477 12.223L30.7006 12.0509L29.9403 12.7005L29.18 13.3501L29.3271 13.5222L30.0874 12.8726ZM29.9403 12.7005L30.7006 12.0509L30.5535 11.8787L29.7932 12.5283L29.033 13.1779L29.18 13.3501L29.9403 12.7005ZM29.7932 12.5283L30.5535 11.8787C30.4011 11.7004 30.28 11.4969 30.1904 11.2622L29.2562 11.619L28.322 11.9757C28.4908 12.4179 28.7277 12.8207 29.033 13.1779L29.7932 12.5283ZM29.2562 11.619L30.1904 11.2622L30.1073 11.0447L29.1731 11.4014L28.2389 11.7582L28.322 11.9757L29.2562 11.619ZM29.1731 11.4014L30.1073 11.0447L30.0242 10.8271L29.09 11.1838L28.1558 11.5406L28.2389 11.7582L29.1731 11.4014ZM29.09 11.1838L30.0242 10.8271C29.8128 10.2734 29.4371 9.83379 28.9241 9.53758L28.424 10.4035L27.9239 11.2695C28.0405 11.3368 28.1088 11.4175 28.1558 11.5406L29.09 11.1838ZM28.424 10.4035L28.9241 9.53758L28.7218 9.42073L28.2217 10.2867L27.7216 11.1527L27.9239 11.2695L28.424 10.4035ZM28.2217 10.2867L28.7218 9.42073L28.5195 9.30388L28.0194 10.1698L27.5193 11.0358L27.7216 11.1527L28.2217 10.2867ZM28.0194 10.1698L28.5195 9.30388C28.3378 9.19898 28.1936 9.06363 28.0778 8.88969L27.2455 9.44393L26.4131 9.99817C26.6997 10.4286 27.0714 10.7772 27.5193 11.0358L28.0194 10.1698ZM27.2455 9.44393L28.0778 8.88969L27.9485 8.69544L27.1161 9.24968L26.2838 9.80392L26.4131 9.99817L27.2455 9.44393ZM27.1161 9.24968L27.9485 8.69544L27.8191 8.50118L26.9868 9.05542L26.1544 9.60966L26.2838 9.80392L27.1161 9.24968ZM26.9868 9.05542L27.8191 8.50118C27.5393 8.08092 27.1824 7.73424 26.7527 7.47198L26.2317 8.3256L25.7108 9.17921C25.8853 9.28569 26.0318 9.42556 26.1544 9.60966L26.9868 9.05542ZM26.2317 8.3256L26.7527 7.47198L26.5584 7.35346L26.0375 8.20707L25.5166 9.06069L25.7108 9.17921L26.2317 8.3256ZM26.0375 8.20707L26.5584 7.35346L26.3642 7.23494L25.8433 8.08855L25.3224 8.94216L25.5166 9.06069L26.0375 8.20707ZM25.8433 8.08855L26.3642 7.23494C26.0915 7.06854 25.8374 6.89412 25.6014 6.71203L24.9906 7.50385L24.3798 8.29566C24.6764 8.52443 24.9908 8.73983 25.3224 8.94216L25.8433 8.08855ZM24.9906 7.50385L25.6014 6.71203L25.4301 6.57997L24.8194 7.37178L24.2086 8.1636L24.3798 8.29566L24.9906 7.50385ZM24.8194 7.37178L25.4301 6.57997L25.2589 6.4479L24.6482 7.23972L24.0374 8.03154L24.2086 8.1636L24.8194 7.37178ZM24.6482 7.23972L25.2589 6.4479C25.0851 6.31378 24.9701 6.17787 24.8939 6.04418L24.0251 6.5394L23.1564 7.03462C23.3782 7.42382 23.6786 7.75479 24.0374 8.03154L24.6482 7.23972ZM24.0251 6.5394L24.8939 6.04418L24.7981 5.8761L23.9293 6.37132L23.0606 6.86654L23.1564 7.03462L24.0251 6.5394ZM23.9293 6.37132L24.7981 5.8761L24.7023 5.70803L23.8335 6.20325L22.9647 6.69847L23.0606 6.86654L23.9293 6.37132ZM23.8335 6.20325L24.7023 5.70803C24.6382 5.59566 24.6005 5.46882 24.5959 5.30986L23.5963 5.33878L22.5967 5.36771C22.6103 5.83846 22.7307 6.28793 22.9647 6.69847L23.8335 6.20325ZM23.5963 5.33878L24.5959 5.30986L24.59 5.10745L23.5904 5.13637L22.5909 5.1653L22.5967 5.36771L23.5963 5.33878ZM23.5904 5.13637L24.59 5.10745L24.5842 4.90504L23.5846 4.93396L22.585 4.96289L22.5909 5.1653L23.5904 5.13637ZM23.5846 4.93396L24.5842 4.90504C24.5814 4.81044 24.6065 4.65481 24.7352 4.42166L23.8597 3.93845L22.9842 3.45525C22.7278 3.91972 22.5695 4.42777 22.585 4.96289L23.5846 4.93396ZM23.8597 3.93845L24.7352 4.42166L24.859 4.19742L23.9834 3.71421L23.1079 3.23101L22.9842 3.45525L23.8597 3.93845ZM23.9834 3.71421L24.859 4.19742L24.9827 3.97318L24.1072 3.48997L23.2317 3.00677L23.1079 3.23101L23.9834 3.71421ZM24.1072 3.48997L24.9827 3.97318C24.9918 3.95667 24.9948 3.95593 24.9877 3.96315C24.9843 3.96663 24.9792 3.97124 24.9726 3.97623C24.9659 3.98123 24.9587 3.9858 24.9513 3.98967C24.944 3.99354 24.9378 3.99608 24.9333 3.99763C24.9289 3.99916 24.9271 3.99939 24.9288 3.99908C24.9322 3.99842 24.9506 3.99535 24.9883 3.99721L25.0377 2.99843L25.087 1.99965C24.7333 1.98218 24.3626 2.03875 24.0171 2.22127C23.6671 2.40617 23.4089 2.68563 23.2317 3.00677L24.1072 3.48997ZM25.0377 2.99843L24.9883 3.99721L25.2633 4.01079L25.3127 3.01201L25.362 2.01323L25.087 1.99965L25.0377 2.99843ZM25.3127 3.01201L25.2633 4.01079L25.5383 4.02437L25.5877 3.02559L25.637 2.0268L25.362 2.01323L25.3127 3.01201ZM25.5877 3.02559L25.5383 4.02437C25.7691 4.03577 25.8817 4.10068 25.9533 4.16746L26.6356 3.43635L27.3178 2.70524C26.8477 2.26658 26.2618 2.05766 25.637 2.0268L25.5877 3.02559ZM26.6356 3.43635L25.9533 4.16746L26.1274 4.32993L26.8097 3.59881L27.4919 2.8677L27.3178 2.70524L26.6356 3.43635ZM26.8097 3.59881L26.1274 4.32993L26.3015 4.49239L26.9837 3.76128L27.666 3.03016L27.4919 2.8677L26.8097 3.59881ZM26.9837 3.76128L26.3015 4.49239C26.6101 4.78033 26.9342 5.03816 27.2741 5.26424L27.8279 4.43156L28.3816 3.59888C28.1377 3.43668 27.8991 3.24766 27.666 3.03016L26.9837 3.76128ZM27.8279 4.43156L27.2741 5.26424L27.4618 5.38904L28.0155 4.55636L28.5693 3.72368L28.3816 3.59888L27.8279 4.43156ZM28.0155 4.55636L27.4618 5.38904L27.6494 5.51384L28.2032 4.68116L28.7569 3.84848L28.5693 3.72368L28.0155 4.55636ZM28.2032 4.68116L27.6494 5.51384C27.9245 5.6968 28.1936 5.88772 28.4566 6.08661L29.0598 5.289L29.6629 4.4914C29.3677 4.2681 29.0657 4.05379 28.7569 3.84848L28.2032 4.68116ZM29.0598 5.289L28.4566 6.08661L28.636 6.22231L29.2392 5.42471L29.8424 4.6271L29.6629 4.4914L29.0598 5.289ZM29.2392 5.42471L28.636 6.22231L28.8154 6.35801L29.4186 5.56041L30.0218 4.76281L29.8424 4.6271L29.2392 5.42471ZM29.4186 5.56041L28.8154 6.35801C29.1206 6.58881 29.4395 6.80646 29.7718 7.01108L30.2961 6.15958L30.8205 5.30809C30.541 5.13599 30.2749 4.95419 30.0218 4.76281L29.4186 5.56041ZM30.2961 6.15958L29.7718 7.01108L29.9684 7.13217L30.4928 6.28067L31.0171 5.42918L30.8205 5.30809L30.2961 6.15958ZM30.4928 6.28067L29.9684 7.13217L30.165 7.25326L30.6894 6.40176L31.2138 5.55026L31.0171 5.42918L30.4928 6.28067ZM30.6894 6.40176L30.165 7.25326C30.3729 7.38127 30.5484 7.53721 30.6964 7.72365L31.4797 7.10207L32.2631 6.48049C31.969 6.1099 31.6176 5.79897 31.2138 5.55026L30.6894 6.40176ZM31.4797 7.10207L30.6964 7.72365L30.8384 7.90269L31.6218 7.28111L32.4051 6.65953L32.2631 6.48049L31.4797 7.10207ZM31.6218 7.28111L30.8384 7.90269L30.9805 8.08173L31.7638 7.46015L32.5472 6.83857L32.4051 6.65953L31.6218 7.28111ZM31.7638 7.46015L30.9805 8.08173C31.1315 8.27201 31.2515 8.48744 31.3398 8.73367L32.2811 8.39627L33.2225 8.05887C33.063 7.61397 32.8382 7.20532 32.5472 6.83857L31.7638 7.46015ZM32.2811 8.39627L31.3398 8.73367L31.4194 8.95581L32.3607 8.61842L33.3021 8.28102L33.2225 8.05887L32.2811 8.39627ZM32.3607 8.61842L31.4194 8.95581L31.499 9.17796L32.4404 8.84057L33.3817 8.50317L33.3021 8.28102L32.3607 8.61842ZM32.4404 8.84057L31.499 9.17796C31.712 9.7723 32.1227 10.2232 32.6643 10.5228L33.1484 9.6478L33.6324 8.77278C33.4777 8.68719 33.4164 8.59996 33.3817 8.50317L32.4404 8.84057ZM33.1484 9.6478L32.6643 10.5228L32.8881 10.6466L33.3722 9.77161L33.8562 8.89659L33.6324 8.77278L33.1484 9.6478ZM33.3722 9.77161L32.8881 10.6466L33.1119 10.7704L33.596 9.89543L34.08 9.0204L33.8562 8.89659L33.3722 9.77161ZM33.596 9.89543L33.1119 10.7704C33.138 10.7849 33.1498 10.795 33.1529 10.7978C33.1555 10.8002 33.1525 10.7979 33.1481 10.7909C33.1437 10.7838 33.1421 10.7787 33.1421 10.779C33.1424 10.7799 33.1456 10.7911 33.1468 10.8161L34.1457 10.769L35.1446 10.722C35.1095 9.97734 34.7245 9.37696 34.08 9.0204L33.596 9.89543ZM34.1457 10.769L33.1468 10.8161L33.1586 11.0667L34.1575 11.0196L35.1564 10.9725L35.1446 10.722L34.1457 10.769ZM34.1575 11.0196L33.1586 11.0667L33.1704 11.3172L34.1693 11.2702L35.1682 11.2231L35.1564 10.9725L34.1575 11.0196ZM34.1693 11.2702L33.1704 11.3172C33.1967 11.8755 33.3592 12.4017 33.6787 12.863L34.5008 12.2936L35.3228 11.7242C35.2372 11.6005 35.1786 11.4444 35.1682 11.2231L34.1693 11.2702ZM34.5008 12.2936L33.6787 12.863L33.809 13.0511L34.631 12.4816L35.4531 11.9122L35.3228 11.7242L34.5008 12.2936ZM34.631 12.4816L33.809 13.0511L33.9392 13.2391L34.7613 12.6697L35.5833 12.1003L35.4531 11.9122L34.631 12.4816ZM34.7613 12.6697L33.9392 13.2391C34.1305 13.5152 34.3166 13.8016 34.4976 14.0983L35.3513 13.5777L36.2051 13.057C36.0045 12.7281 35.7973 12.4092 35.5833 12.1003L34.7613 12.6697ZM35.3513 13.5777L34.4976 14.0983L34.6202 14.2995L35.474 13.7788L36.3278 13.2582L36.2051 13.057L35.3513 13.5777ZM35.474 13.7788L34.6202 14.2995L34.7429 14.5006L35.5966 13.9799L36.4504 13.4593L36.3278 13.2582L35.474 13.7788ZM35.5966 13.9799L34.7429 14.5006C34.7818 14.5644 34.8033 14.63 34.767 14.7706L35.7353 15.0206L36.7035 15.2706C36.8639 14.6493 36.7931 14.0212 36.4504 13.4593L35.5966 13.9799ZM35.7353 15.0206L34.767 14.7706L34.7038 15.0155L35.672 15.2655L36.6403 15.5155L36.7035 15.2706L35.7353 15.0206ZM35.672 15.2655L34.7038 15.0155L34.6406 15.2604L35.6088 15.5104L36.5771 15.7604L36.6403 15.5155L35.672 15.2655ZM35.6088 15.5104L34.6406 15.2604C34.4767 15.8952 34.5624 16.5279 34.905 17.093L35.7601 16.5746L36.6152 16.0562C36.5594 15.9642 36.5443 15.8874 36.5771 15.7604L35.6088 15.5104ZM35.7601 16.5746L34.905 17.093L35.033 17.3043L35.8882 16.7859L36.7433 16.2675L36.6152 16.0562L35.7601 16.5746ZM35.8882 16.7859L35.033 17.3043L35.1611 17.5155L36.0162 16.9971L36.8713 16.4787L36.7433 16.2675L35.8882 16.7859ZM36.0162 16.9971L35.1611 17.5155C35.1722 17.5339 35.1742 17.5417 35.1734 17.5391C35.1724 17.5359 35.1705 17.5276 35.1703 17.5168C35.1702 17.5061 35.1717 17.5009 35.171 17.5038C35.1701 17.5073 35.1657 17.5224 35.1512 17.5496L36.0345 18.0185L36.9178 18.4873C37.2622 17.8384 37.2615 17.1222 36.8713 16.4787L36.0162 16.9971ZM36.0345 18.0185L35.1512 17.5496L35.031 17.7761L35.9143 18.245L36.7975 18.7138L36.9178 18.4873L36.0345 18.0185ZM35.9143 18.245L35.031 17.7761L34.9108 18.0026L35.794 18.4715L36.6773 18.9403L36.7975 18.7138L35.9143 18.245ZM35.794 18.4715L34.9108 18.0026C34.8133 18.1862 34.6969 18.4259 34.6473 18.6636C34.6275 18.7586 34.572 19.0497 34.7101 19.3664C34.7916 19.5535 34.9351 19.7342 35.1466 19.8568C35.3469 19.973 35.5438 20 35.6838 20L35.6838 19L35.6838 18C35.7953 18 35.9686 18.0215 36.1499 18.1267C36.3424 18.2383 36.4716 18.4025 36.5436 18.5675C36.6624 18.8402 36.6065 19.0653 36.6051 19.0721C36.5923 19.1337 36.5877 19.1092 36.6773 18.9403L35.794 18.4715ZM35.6838 19L35.6838 20L35.7567 20L35.7567 19L35.7567 18L35.6838 18L35.6838 19ZM35.7567 19L35.7567 20L35.8297 20L35.8297 19L35.8297 18L35.7567 18L35.7567 19ZM35.8297 19L35.8297 20C35.7141 20 35.5788 19.9772 35.442 19.9127C35.3045 19.848 35.1983 19.7566 35.1217 19.6621C34.9815 19.489 34.9529 19.3232 34.9467 19.2826C34.934 19.2009 34.9509 19.1972 34.9247 19.3485L35.91 19.5193L36.8953 19.6901C36.9291 19.4951 36.9626 19.2318 36.9232 18.977C36.9035 18.8499 36.8508 18.6191 36.6755 18.4028C36.4639 18.1418 36.153 18 35.8297 18L35.8297 19ZM35.91 19.5193L34.9247 19.3485L34.8861 19.571L35.8714 19.7418L36.8567 19.9126L36.8953 19.6901L35.91 19.5193Z" fill="#434343"/>
</svg>
