<svg width="308" height="19" viewBox="0 0 308 19" fill="none" xmlns="http://www.w3.org/2000/svg">
<path d="M199.68 16.3203C199.689 16.3167 199.704 16.3099 199.727 16.2969L200.18 16.0313C200.697 15.726 201.28 15.5838 201.891 15.6797L202.117 15.7188L202.344 15.75C202.646 15.7979 202.949 15.8249 203.25 15.8281L203.477 15.8281L203.695 15.8359C204.043 15.8396 204.394 15.8413 204.742 15.8438L205.195 15.8438C205.577 15.8464 205.962 15.8665 206.344 15.9063L206.562 15.9297L206.789 15.9531C207.022 15.9774 207.259 15.9646 207.5 15.9063L207.953 15.7969C208.394 15.6901 208.841 15.6493 209.289 15.6719L209.516 15.6797L209.734 15.6953C210.048 15.7112 210.366 15.7044 210.68 15.6875L210.906 15.6797L211.133 15.6641C211.622 15.6375 212.104 15.7166 212.57 15.8828L213.023 16.0391C213.203 16.103 213.364 16.1136 213.523 16.0781L213.742 16.0313L213.969 15.9766C214.415 15.8771 214.868 15.8445 215.32 15.8828L215.547 15.9063L215.773 15.9219C216.146 15.9537 216.519 15.9974 216.891 16.0547L217.117 16.0938L217.344 16.125C217.693 16.1788 218.042 16.2352 218.391 16.2891L218.617 16.3203L218.844 16.3594C218.931 16.3721 219.048 16.363 219.227 16.2578L219.68 15.9922C220.163 15.7057 220.693 15.5422 221.258 15.5547L221.484 15.5547L221.711 15.5625C222.124 15.5721 222.536 15.6162 222.945 15.7031L223.172 15.7578L223.398 15.8047C223.651 15.8581 223.901 15.8742 224.148 15.8516L224.375 15.8281L224.594 15.8047C225.014 15.7663 225.44 15.7776 225.859 15.8281L226.086 15.8516L226.305 15.8828C226.625 15.9213 226.946 15.944 227.266 15.9531L227.492 15.9609L227.719 15.9609C228.153 15.9735 228.583 16.0446 229.008 16.1641L229.461 16.2891C229.593 16.3256 229.721 16.326 229.875 16.2656L230.094 16.1719L230.32 16.0859C230.768 15.9102 231.232 15.8059 231.703 15.7891L231.93 15.7813L232.148 15.7734C232.631 15.7562 233.109 15.837 233.57 16L234.023 16.1563C234.165 16.206 234.285 16.2098 234.422 16.1641L234.648 16.0859L234.875 16.0156C235.329 15.8647 235.794 15.7904 236.266 15.8047L236.719 15.8203C237.19 15.835 237.653 15.935 238.102 16.1094L238.328 16.1953L238.547 16.2813C238.66 16.3252 238.752 16.3274 238.867 16.2813L239.094 16.1875L239.32 16.1016C239.836 15.896 240.382 15.8325 240.93 15.9375L241.148 15.9844L241.375 16.0234C241.564 16.0596 241.753 16.0517 241.953 15.9922L242.18 15.9219L242.406 15.8594C242.849 15.728 243.302 15.6636 243.758 15.6719L243.984 15.6719L244.203 15.6797C244.682 15.6884 245.156 15.7892 245.609 15.9688L245.828 16.0547L246.055 16.1485C246.237 16.2208 246.395 16.2321 246.547 16.2031L247 16.1094C247.473 16.0185 247.949 16.0198 248.422 16.1094L248.648 16.1563L248.875 16.1953C249.201 16.2573 249.526 16.3129 249.852 16.3516L250.305 16.3985C250.526 16.4247 250.753 16.4131 250.984 16.3516L251.203 16.2891L251.43 16.2344C251.786 16.1396 252.144 16.047 252.5 15.961L252.953 15.8516C253.376 15.7495 253.805 15.6973 254.234 15.6953L254.461 15.6953L254.68 15.6875C255.219 15.685 255.734 15.8363 256.211 16.0938L256.437 16.211L256.664 16.336C256.841 16.4316 256.968 16.4396 257.07 16.4219L257.289 16.3828L257.516 16.3438C257.862 16.2836 258.208 16.2198 258.555 16.1563L259.008 16.0781C259.375 16.0108 259.742 15.9532 260.109 15.9063L260.562 15.8438C260.954 15.7939 261.349 15.7723 261.742 15.7735L262.187 15.7735C262.556 15.7745 262.928 15.7895 263.297 15.8125L263.523 15.8281L263.75 15.836C264.108 15.8584 264.47 15.8905 264.828 15.9219L265.047 15.9375L265.273 15.961C265.585 15.9882 265.9 15.9933 266.211 15.9844L266.437 15.9844L266.656 15.9766C267.051 15.9652 267.449 15.9814 267.844 16.0235L268.297 16.0703C268.576 16.0998 268.854 16.0986 269.133 16.0703L269.586 16.0235C269.894 15.992 270.205 15.9387 270.516 15.8672L270.734 15.8203L270.961 15.7656C271.481 15.6457 272.011 15.6614 272.523 15.8125L272.742 15.8828L272.969 15.9453C273.149 15.9984 273.318 16.0046 273.492 15.961L273.719 15.9063L273.945 15.8438C274.559 15.6897 275.166 15.7881 275.711 16.0781L275.93 16.2031L276.156 16.3203C276.267 16.3795 276.32 16.3677 276.383 16.3438L276.602 16.2578L276.828 16.1719C277.363 15.9667 277.926 15.9277 278.484 16.0703L278.711 16.1328L278.937 16.1875C279.193 16.2527 279.442 16.2781 279.687 16.2656L279.914 16.2578L280.141 16.2422C280.407 16.2284 280.677 16.1827 280.953 16.1016L281.18 16.0391L281.406 15.9688C281.877 15.8302 282.359 15.7841 282.844 15.836L283.297 15.8828C283.641 15.9196 283.984 15.9523 284.328 15.9844L284.781 16.0313C284.973 16.049 285.173 16.0247 285.391 15.9453L285.617 15.8594L285.844 15.7813C286.491 15.5436 287.144 15.6185 287.727 15.9453L288.18 16.1953L288.25 16.2266C288.256 16.2253 288.273 16.2225 288.297 16.211L288.75 15.9922C289.284 15.7303 289.862 15.6354 290.453 15.7656L290.68 15.8203L290.906 15.8672C291.277 15.9491 291.646 16.048 292.016 16.1563L292.242 16.2188L292.469 16.2891C292.7 16.3568 292.923 16.3718 293.141 16.3516L293.367 16.336L293.594 16.3125C293.849 16.2884 294.112 16.2271 294.383 16.125L294.836 15.9531C295.278 15.7866 295.733 15.6907 296.195 15.6719L296.648 15.6563C297.125 15.6372 297.597 15.7071 298.055 15.8594L298.281 15.9297L298.5 16.0078C298.764 16.0957 299.024 16.1395 299.273 16.1485L299.727 16.1641C300.031 16.1748 300.336 16.1694 300.641 16.1406L301.094 16.0938C301.57 16.0487 302.048 16.0986 302.516 16.2266L302.742 16.2891L302.977 16.3516C303.052 16.3717 303.113 16.3693 303.219 16.3047L303.43 16.1719L303.648 16.0469C303.94 15.8683 304.206 15.6729 304.453 15.4688L304.641 15.3125L304.82 15.1641C304.96 15.0481 305.072 14.8969 305.148 14.6875L305.234 14.4453L305.32 14.211C305.357 14.1086 305.357 14.0397 305.305 13.9375L305.07 13.4844C304.796 12.9557 304.687 12.3775 304.805 11.7813L304.852 11.5547L304.891 11.3281C304.966 10.9503 305.063 10.5714 305.172 10.1953L305.234 9.97658L305.297 9.75002C305.349 9.56801 305.356 9.39535 305.312 9.21877L305.203 8.76564C305.086 8.29417 305.057 7.81498 305.125 7.33595L305.187 6.88283C305.223 6.63581 305.222 6.38893 305.18 6.14064L305.141 5.91408L305.102 5.69533C305.07 5.50894 305.054 5.26888 305.078 5.03908L305.008 4.97658C304.714 4.68182 304.456 4.37931 304.242 4.07033L304.125 3.90627L304.016 3.7422C303.93 3.61847 303.81 3.50616 303.641 3.40627L303.453 3.29689L303.273 3.18752C303.103 3.08747 302.905 3.01433 302.672 2.97658L302.445 2.94533L302.227 2.90627C301.973 2.86523 301.716 2.86582 301.461 2.89845L301.242 2.92189L301.016 2.95314C300.56 3.01158 300.101 2.993 299.648 2.90626L299.422 2.8672L299.195 2.82033C298.959 2.77555 298.726 2.77679 298.492 2.81251L298.039 2.87501C297.704 2.92648 297.366 2.98726 297.031 3.0547L296.812 3.10158L296.586 3.14845C296.152 3.23587 295.712 3.26238 295.273 3.23439L295.047 3.22658L294.82 3.21095C294.376 3.1823 293.937 3.08838 293.508 2.93751L293.055 2.78126C292.895 2.72515 292.756 2.71706 292.609 2.75783L292.156 2.88283C291.626 3.03157 291.083 3.02882 290.555 2.87501L290.336 2.81251L290.109 2.75001C289.889 2.68583 289.676 2.66749 289.469 2.69533L289.242 2.72658L289.023 2.75783C288.627 2.81105 288.226 2.83265 287.828 2.82814L287.602 2.82814L287.375 2.82033C287.016 2.81614 286.656 2.8112 286.297 2.79689L285.844 2.78126C285.57 2.77061 285.293 2.78519 285.016 2.83595L284.789 2.88283L284.57 2.92189C284.164 2.9962 283.753 3.02951 283.344 3.03126L283.117 3.03908L282.891 3.03908C282.532 3.04047 282.171 3.03127 281.812 3.02345L281.594 3.02345L281.367 3.01564C280.929 3.00607 280.491 2.94224 280.062 2.82033L279.836 2.75783L279.617 2.68751C279.358 2.6137 279.1 2.58194 278.852 2.58595L278.625 2.59376L278.406 2.59376C278.228 2.59664 278.027 2.6472 277.797 2.76564L277.57 2.87501L277.344 2.9922C276.751 3.29719 276.1 3.35063 275.469 3.10158L275.242 3.00783L275.023 2.92189C274.868 2.86051 274.734 2.85383 274.602 2.89064L274.383 2.95314L274.156 3.01564C273.596 3.1709 273.026 3.1405 272.484 2.93751L272.258 2.85939L272.039 2.77345C271.839 2.69842 271.657 2.67776 271.484 2.70314L271.258 2.7422L271.031 2.77345C270.577 2.84046 270.117 2.8362 269.664 2.75783L269.445 2.71876L269.219 2.6797C269.067 2.65339 268.906 2.66588 268.719 2.7422L268.492 2.83595L268.266 2.92189C267.807 3.10976 267.332 3.21584 266.844 3.21876L266.391 3.21876C265.979 3.221 265.565 3.18352 265.156 3.10939L264.937 3.07033L264.711 3.03126C264.339 2.96381 263.965 2.88371 263.594 2.78908L263.367 2.72658L263.141 2.67189C262.915 2.61433 262.694 2.60155 262.477 2.63283L262.258 2.66408L262.031 2.70314C261.769 2.74097 261.497 2.80886 261.219 2.92189L260.766 3.10939C260.245 3.32169 259.695 3.38487 259.141 3.27345L258.687 3.1797C258.409 3.12373 258.133 3.10336 257.859 3.10939L257.633 3.10939L257.406 3.1172C257.114 3.12381 256.819 3.15471 256.523 3.21095L256.297 3.25001L256.07 3.29689C255.612 3.38363 255.148 3.38889 254.687 3.32033L254.469 3.28908L254.242 3.25783C253.935 3.21213 253.626 3.18446 253.32 3.1797L253.094 3.1797L251.781 3.13283L251.555 3.12501L251.328 3.10939C250.97 3.08914 250.608 3.06136 250.25 3.03126L250.031 3.01564L249.805 3.00001C249.417 2.96744 249.027 2.91233 248.641 2.83595L248.422 2.78908L248.195 2.7422C248.1 2.72324 247.982 2.72929 247.812 2.82033L247.586 2.94533L247.359 3.06251C246.786 3.37132 246.149 3.4506 245.516 3.23439L245.062 3.07814C244.732 2.9648 244.4 2.86519 244.07 2.77345L243.617 2.64845C243.438 2.59896 243.271 2.59473 243.094 2.64064L242.867 2.70314L242.641 2.75782C242.256 2.85858 241.871 2.93595 241.484 2.9922L241.258 3.03126L241.031 3.06251C240.616 3.12277 240.198 3.14029 239.781 3.1172L239.555 3.10157L239.328 3.09376C239.079 3.08036 238.827 3.10213 238.57 3.16407L238.344 3.21876L238.125 3.27345C237.702 3.37554 237.273 3.42724 236.844 3.4297L236.391 3.4297C235.94 3.43199 235.493 3.37163 235.055 3.2422L234.828 3.17189L234.602 3.10939C234.313 3.02426 234.031 2.96226 233.75 2.93751L233.523 2.92189L233.297 2.89845C232.987 2.87125 232.677 2.86585 232.367 2.87501L231.914 2.89064C231.662 2.89838 231.405 2.93998 231.141 3.02345L230.687 3.16407C230.22 3.31163 229.742 3.36792 229.258 3.32814L228.805 3.29689C228.326 3.2571 227.86 3.12284 227.414 2.91407L227.187 2.8047L226.961 2.70314C226.756 2.60784 226.585 2.57941 226.43 2.59376L225.977 2.64064C225.705 2.66604 225.43 2.72057 225.148 2.81251L224.922 2.88282L224.695 2.96095C224.205 3.12093 223.696 3.16935 223.187 3.09376L222.969 3.06251L222.742 3.02345C222.501 2.98756 222.259 2.99546 222.016 3.03907L221.562 3.1172C221.089 3.20219 220.613 3.19726 220.141 3.10157L219.687 3.00782C219.37 2.94318 219.051 2.8996 218.734 2.8672L218.508 2.84376L218.289 2.82032C218.012 2.79193 217.731 2.78811 217.453 2.82032L217.227 2.85157L217 2.87501C216.631 2.91782 216.26 2.94801 215.891 2.96876L215.672 2.98439L215.445 3.00001C215.034 3.02314 214.621 3.00576 214.211 2.95314L213.984 2.92189L213.758 2.89845C213.596 2.87796 213.425 2.89421 213.227 2.97657L212.773 3.16407C212.281 3.36973 211.764 3.45451 211.234 3.39845L210.781 3.35157C210.401 3.31085 210.02 3.25609 209.641 3.1797L209.187 3.08595C208.94 3.03626 208.697 3.02673 208.453 3.0547L208.227 3.07814L208 3.10939C207.652 3.14957 207.301 3.18533 206.953 3.22657L206.727 3.25782L206.508 3.28126C206.016 3.33949 205.523 3.29227 205.047 3.14845L204.82 3.07814L204.602 3.01564C204.406 2.95648 204.216 2.94716 204.031 2.98439L203.812 3.03126L203.586 3.07814C203.139 3.1684 202.686 3.18673 202.234 3.14064L202.008 3.1172L201.789 3.09376C201.472 3.06142 201.152 3.04799 200.836 3.04689L200.383 3.04689C199.944 3.04535 199.508 2.98207 199.078 2.8672L198.852 2.8047L198.633 2.75001C198.352 2.67485 198.071 2.6288 197.797 2.6172L197.344 2.60157C197.04 2.58891 196.734 2.59596 196.43 2.62501L196.211 2.64845L195.984 2.66407C195.658 2.69525 195.327 2.74221 195 2.79689L194.773 2.83595L194.555 2.87501C194.176 2.93834 193.794 2.97975 193.414 3.00782L192.961 3.03907C192.534 3.0705 192.104 3.05858 191.68 2.9922L191.461 2.95314L191.234 2.92189C191.061 2.89478 190.879 2.90349 190.68 2.97657L190.453 3.06251L190.234 3.14845C189.786 3.31304 189.321 3.40074 188.852 3.40626L188.398 3.40626C187.956 3.41107 187.512 3.35673 187.078 3.2422L186.859 3.18751L186.633 3.12501C186.46 3.0793 186.294 3.0816 186.117 3.13282L185.891 3.19532L185.664 3.26563C185.137 3.41807 184.599 3.42041 184.07 3.27345L183.617 3.14845C183.282 3.05494 182.944 2.96767 182.609 2.89063L182.391 2.83595L182.164 2.78907C182.002 2.75186 181.843 2.75881 181.664 2.82032L181.437 2.89845L181.211 2.96876C180.608 3.17643 179.994 3.13814 179.422 2.87501L179.195 2.77345L178.969 2.66407C178.782 2.57771 178.63 2.56448 178.492 2.58595L178.266 2.6172L178.039 2.65626C177.657 2.71589 177.274 2.7603 176.891 2.78126L176.664 2.78907L176.445 2.8047C176.058 2.82588 175.668 2.81954 175.281 2.79688L175.055 2.78907L174.828 2.77345C174.49 2.75355 174.151 2.73625 173.812 2.72657L173.586 2.71876L173.359 2.71876C173.08 2.71079 172.799 2.73121 172.516 2.78126L172.062 2.85938C171.696 2.92441 171.327 2.97689 170.961 3.02345L170.734 3.0547L170.516 3.08595C170.084 3.14072 169.65 3.13869 169.219 3.08595L168.992 3.06251L168.766 3.03126C168.549 3.00466 168.329 3.02324 168.102 3.08595L167.875 3.14845L167.656 3.20313C167.218 3.32383 166.769 3.3822 166.32 3.37501L165.875 3.37501C165.402 3.36743 164.935 3.27093 164.484 3.10157L164.031 2.9297C163.804 2.8447 163.592 2.81714 163.391 2.82813L163.164 2.83595L162.945 2.85157C162.619 2.86941 162.288 2.89678 161.961 2.93751L161.734 2.96876L161.508 2.9922C161.154 3.03629 160.8 3.07958 160.445 3.1172L159.992 3.16407C159.464 3.22007 158.945 3.13351 158.453 2.9297L158.227 2.83595L158.008 2.75001C157.934 2.71945 157.881 2.70889 157.781 2.75782L157.555 2.87501L157.328 2.98438C156.857 3.21716 156.356 3.35135 155.836 3.35157L155.391 3.35157C154.987 3.35174 154.581 3.31385 154.18 3.25001L153.953 3.21876L153.727 3.1797C153.399 3.12764 153.069 3.0854 152.742 3.0547L152.516 3.03126L152.297 3.01563C151.954 2.98348 151.608 2.95556 151.266 2.9297L151.039 2.90626L150.812 2.89063C150.52 2.86855 150.223 2.87012 149.93 2.89845L149.711 2.92188L149.484 2.94532C149.196 2.97319 148.904 3.02699 148.609 3.10938L148.156 3.23438C147.699 3.36251 147.235 3.41685 146.766 3.38282L146.312 3.35157C145.977 3.32711 145.641 3.30775 145.305 3.29688L144.852 3.28126C144.39 3.26594 143.935 3.17 143.492 3.00782L143.266 2.9297L143.047 2.84376C142.944 2.8059 142.855 2.80713 142.734 2.85938L142.508 2.95313L142.281 3.0547C141.731 3.29217 141.145 3.33978 140.562 3.17188L140.336 3.10938L140.109 3.03907C139.904 2.97948 139.71 2.97347 139.516 3.00782L139.062 3.08595C138.673 3.15554 138.282 3.19816 137.891 3.21876L137.664 3.23438L137.437 3.2422C136.984 3.2658 136.53 3.22321 136.086 3.10938L135.867 3.0547L135.641 2.9922C135.499 2.95585 135.359 2.96214 135.195 3.02345L134.742 3.19532C134.199 3.40119 133.632 3.43048 133.07 3.27345L132.617 3.14845C132.45 3.10159 132.294 3.1063 132.125 3.15626L131.898 3.21876L131.672 3.28907C131.008 3.48604 130.362 3.35088 129.805 3.00001L129.352 2.71876C129.179 2.61005 129.084 2.60549 129.023 2.6172L128.797 2.66407L128.578 2.71095C128.144 2.7942 127.704 2.82033 127.266 2.78907L127.039 2.77344L126.812 2.75001C126.505 2.72824 126.198 2.72705 125.891 2.74219L125.664 2.75782L125.437 2.76563C125.213 2.77681 124.978 2.8329 124.727 2.93751L124.273 3.12501C123.605 3.40418 122.919 3.31999 122.32 2.96094L122.102 2.82813L121.875 2.69532C121.831 2.66887 121.804 2.65775 121.797 2.65626C121.794 2.65688 121.779 2.66209 121.758 2.67188L121.531 2.77344L121.312 2.88282C120.853 3.09681 120.365 3.21779 119.867 3.23438L119.648 3.24219L119.422 3.25001C119.092 3.261 118.76 3.2814 118.43 3.31251L118.203 3.33594L117.984 3.35938C117.473 3.40756 116.967 3.33069 116.484 3.14844L116.031 2.97657C115.81 2.89346 115.608 2.86824 115.414 2.88282L114.961 2.91407C114.68 2.93555 114.397 2.99029 114.109 3.07032L113.656 3.19532C113.116 3.34593 112.565 3.32747 112.031 3.15626L111.578 3.01563C111.276 2.91881 110.977 2.84494 110.68 2.79688L110.453 2.75782L110.227 2.72657C109.981 2.68703 109.737 2.68039 109.492 2.71876L109.266 2.75782L109.039 2.78907C108.56 2.86377 108.082 2.84648 107.609 2.73438L107.156 2.62501C106.91 2.56636 106.668 2.54951 106.43 2.57032L106.203 2.59376L105.977 2.60938C105.782 2.62669 105.565 2.69446 105.32 2.82813L104.867 3.07813C104.305 3.38529 103.678 3.47322 103.047 3.28126L102.82 3.21094L102.594 3.14844C102.26 3.04692 101.927 2.9521 101.594 2.86719L101.367 2.80469L101.141 2.75001C100.866 2.68007 100.595 2.64298 100.328 2.64063L99.875 2.64063C99.568 2.63808 99.2609 2.65249 98.9531 2.68751L98.7266 2.71094L98.5 2.74219C98.1484 2.78231 97.7969 2.82143 97.4453 2.85938L96.9922 2.90626C96.5812 2.95046 96.1692 2.95602 95.7578 2.92188L95.5312 2.89844L95.3047 2.88282C95.1182 2.86723 94.9204 2.89151 94.7031 2.97657L94.4766 3.07032L94.25 3.15626C93.782 3.33949 93.2936 3.4252 92.7969 3.40626L92.5703 3.39844L92.3516 3.39063C91.8841 3.37281 91.4219 3.27294 90.9766 3.10157L90.75 3.01563L90.5312 2.92969C90.2633 2.82658 90 2.77131 89.75 2.75001L89.5234 2.72657L89.3047 2.71094C89.0006 2.68502 88.6944 2.67966 88.3906 2.69532L88.1641 2.70313L87.9375 2.71876C87.5468 2.73892 87.1561 2.73214 86.7656 2.70313L86.3125 2.67188C86.1367 2.6588 85.9491 2.6891 85.7344 2.78126L85.2812 2.96876C84.8268 3.16408 84.3523 3.28088 83.8672 3.29688L83.6484 3.30469L83.4219 3.31251C83.027 3.32552 82.6286 3.30558 82.2344 3.26563L82.0078 3.25001L81.7891 3.22657C81.5166 3.19896 81.2419 3.19944 80.9687 3.23438L80.5156 3.29688C80.0925 3.35145 79.6662 3.35234 79.2422 3.31251L79.0156 3.29688L78.7969 3.27344C78.3864 3.23488 77.9751 3.15938 77.5703 3.04688L77.1172 2.92188C76.991 2.8871 76.8707 2.89169 76.7187 2.95313L76.4922 3.03907L76.2656 3.13282C75.8058 3.32038 75.325 3.42125 74.8359 3.42188L74.3906 3.42188C73.9217 3.42248 73.4577 3.34434 73.0078 3.18751L72.5547 3.03126C72.4367 2.99055 72.3328 2.98756 72.2031 3.03907L71.9844 3.13282L71.7578 3.21876C71.0995 3.48029 70.4284 3.39819 69.8359 3.05469L69.6094 2.92969L69.3828 2.79688C69.3675 2.78816 69.359 2.77644 69.3516 2.77344C69.3454 2.77564 69.3367 2.78788 69.3203 2.79688L69.0937 2.91407L68.8672 3.03907C68.3467 3.32514 67.7709 3.45119 67.1719 3.35157L66.9453 3.3125L66.7266 3.28125C66.3889 3.2251 66.0484 3.16832 65.7109 3.125L65.4844 3.10157L65.2578 3.07032C64.8466 3.0174 64.4355 2.92537 64.0312 2.79688L63.8125 2.72657L63.5859 2.65625C63.3504 2.5814 63.1246 2.55511 62.9062 2.57032L62.4531 2.60157C62.1412 2.62343 61.8289 2.663 61.5156 2.71875L61.0625 2.79688C60.6526 2.86993 60.2409 2.90279 59.8281 2.89844L59.375 2.89844C59.0662 2.89517 58.7548 2.91093 58.4453 2.94532L58.2187 2.96875L58 2.99219C57.6931 3.02629 57.3801 3.0812 57.0703 3.15625L56.8516 3.21094L56.625 3.26563C56.0411 3.40711 55.4607 3.33329 54.9219 3.08594L54.4687 2.88282C54.4171 2.85909 54.392 2.85919 54.3828 2.85938C54.373 2.8596 54.3455 2.86266 54.2891 2.89063L53.8359 3.10938C53.2426 3.40669 52.5946 3.45245 51.9687 3.20313L51.7422 3.10938L51.5156 3.02344C51.2526 2.91821 50.9997 2.85476 50.7578 2.83594L50.5312 2.82032L50.3125 2.80469C50.0086 2.78105 49.7022 2.77864 49.3984 2.79688L49.1719 2.8125L48.9453 2.82032C48.6209 2.83989 48.2937 2.87007 47.9687 2.91407L47.75 2.94532L47.5234 2.97657C47.2211 3.01751 46.9157 3.08564 46.6094 3.17188L46.1562 3.29688C45.5569 3.46508 44.9581 3.39719 44.4062 3.13282L43.9531 2.91407C43.7667 2.82471 43.616 2.80805 43.4844 2.82813L43.2656 2.86719L43.0391 2.89844C42.5327 2.97567 42.0289 2.92808 41.5391 2.77344L41.0859 2.63282C40.9902 2.60257 40.8993 2.60206 40.7656 2.66407L40.5391 2.77344L40.3125 2.875C39.7725 3.12864 39.1897 3.20588 38.6016 3.0625L38.1484 2.95313C37.8346 2.87643 37.5226 2.81378 37.2109 2.77344L36.9844 2.75L36.7578 2.71875C36.4551 2.67968 36.1532 2.66069 35.8516 2.66407L35.625 2.66407L35.3984 2.67188C35.0166 2.6763 34.6315 2.65712 34.25 2.625L34.0312 2.60938L33.8047 2.59375C33.5461 2.57198 33.2858 2.58363 33.0234 2.63282L32.7969 2.67188L32.5703 2.71875C32.1028 2.80635 31.6322 2.80243 31.1641 2.71875L30.7109 2.64063C30.6005 2.6208 30.4719 2.62965 30.2969 2.71875L29.8437 2.95313C29.3639 3.19936 28.8493 3.33432 28.3125 3.32032L27.8594 3.30469C27.4868 3.29468 27.1144 3.27115 26.7422 3.23438L26.2891 3.1875C26.0438 3.16322 25.7975 3.18115 25.5469 3.23438L25.0937 3.32813C24.544 3.44487 23.998 3.39059 23.4766 3.1875L23.0234 3.01563C22.8694 2.95553 22.7419 2.9481 22.6094 2.98438L22.1562 3.10938C21.5624 3.27521 20.9655 3.21637 20.4141 2.96094L20.1953 2.85938L19.9687 2.75C19.7496 2.64848 19.5568 2.61735 19.3828 2.625L18.9297 2.64063C18.6257 2.65433 18.3216 2.69537 18.0156 2.75L17.5625 2.82813C17.2716 2.8802 16.9781 2.96222 16.6797 3.07032L16.4531 3.14844L16.2266 3.23438C15.7322 3.41309 15.2148 3.4715 14.6953 3.39844L14.4766 3.36719L14.25 3.33594C13.8075 3.27371 13.3695 3.14845 12.9453 2.96875L12.7187 2.875L12.5 2.78125C12.4039 2.74054 12.3341 2.73777 12.2344 2.78125L12.0156 2.875L11.7891 2.97656C11.2633 3.2057 10.6993 3.27341 10.1328 3.15625L9.90625 3.10938L9.6875 3.0625C9.31082 2.98459 8.92982 2.89078 8.55469 2.78125L8.32812 2.71875L8.10937 2.65625C7.95825 2.61213 7.81494 2.61095 7.65625 2.66406L7.42969 2.74219L7.20312 2.8125C6.66613 2.99246 6.10894 3.00966 5.5625 2.85938L5.10937 2.73438C5.03646 2.71459 4.98734 2.71734 4.89844 2.77344L4.69531 2.90625L4.49219 3.03125C4.23036 3.19646 4.00862 3.37354 3.82812 3.55469L3.51562 3.86719C3.35188 4.03216 3.2003 4.23186 3.07031 4.47656L2.85156 4.89844C2.79233 5.01007 2.7862 5.09554 2.8125 5.20313L2.92187 5.65625C3.05658 6.2012 3.02869 6.75241 2.84375 7.28125L2.76562 7.50781L2.6875 7.72656C2.61063 7.94636 2.58183 8.15468 2.60156 8.35156L2.625 8.57813L2.64844 8.79688C2.67033 9.01527 2.73497 9.25417 2.85937 9.50781L2.97656 9.73438L3.08594 9.96094C3.32224 10.4425 3.44331 10.9584 3.42187 11.4922L3.41406 11.7188L3.40625 11.9375C3.38588 12.4445 3.24605 12.9367 3.01562 13.3984L2.90625 13.625L2.78906 13.8438C2.71365 13.9949 2.70148 14.136 2.73437 14.2969L2.78125 14.5391L2.83594 14.7891C2.87373 14.9715 2.94762 15.1161 3.07812 15.2422L3.4375 15.5859C3.54914 15.6935 3.6439 15.7294 3.75 15.7344L3.99219 15.7422L4.22656 15.75C4.55941 15.7636 4.87956 15.7614 5.1875 15.7422L5.41406 15.7266L5.63281 15.7109C6.10797 15.6813 6.57942 15.7449 7.03906 15.8906L7.26562 15.9688L7.49219 16.0391C7.79659 16.1356 8.09877 16.2079 8.39844 16.2578L8.85156 16.3359C9.11311 16.3793 9.37343 16.3868 9.63281 16.3594L9.85937 16.3281L10.0859 16.3047C10.4465 16.2666 10.8112 16.236 11.1719 16.2109L11.3906 16.1953L11.6172 16.1797C12.0021 16.1529 12.3883 16.1503 12.7734 16.1641L13.2266 16.1797C13.6071 16.1934 13.9875 16.2228 14.3672 16.2734L14.8203 16.3359C15.0121 16.3615 15.21 16.3443 15.4219 16.2734L15.6484 16.1953L15.8672 16.125C16.2546 15.9954 16.6477 15.8913 17.0391 15.8125L17.4922 15.7188C17.9643 15.624 18.4405 15.6175 18.9141 15.7031L19.1406 15.7422L19.3672 15.7891C19.7083 15.8509 20.0496 15.9071 20.3906 15.9609L20.6172 15.9922L20.8437 16.0313C21.0836 16.0691 21.3216 16.0661 21.5625 16.0234L22.0156 15.9453C22.4687 15.8652 22.928 15.8568 23.3828 15.9219L23.6016 15.9531L23.8281 15.9844C24.0969 16.0228 24.3652 16.0282 24.6328 16L25.0859 15.9531C25.4427 15.9156 25.7994 15.8799 26.1562 15.8516L26.6094 15.8203C27.0649 15.7843 27.5206 15.8164 27.9687 15.9219L28.1953 15.9766L28.4141 16.0313C28.6074 16.0767 28.797 16.0727 28.9922 16.0234L29.4453 15.9141C29.8614 15.8091 30.2806 15.7486 30.7031 15.7344L31.1562 15.7188C31.4808 15.7078 31.8078 15.6834 32.1328 15.6484L32.3594 15.625L32.5781 15.6016C32.9925 15.5569 33.4134 15.5497 33.8281 15.5859L34.0469 15.6094L34.2734 15.625C34.7115 15.6633 35.1457 15.7567 35.5703 15.9063L35.7969 15.9922L36.0234 16.0703C36.1998 16.1318 36.3575 16.1377 36.5156 16.1016L36.7422 16.0469L36.9609 16C37.3128 15.9196 37.6715 15.8361 38.0234 15.7578L38.2422 15.7109L38.4687 15.6641C39.0601 15.5326 39.6448 15.6129 40.1797 15.875L40.4062 15.9922L40.625 16.1016C40.8132 16.1938 40.9632 16.2061 41.0937 16.1875L41.5469 16.125C41.9724 16.0638 42.4011 16.0479 42.8281 16.0859L43.0547 16.1094L43.2734 16.1328C43.6558 16.1669 44.0408 16.2177 44.4219 16.2891L44.6484 16.3281L44.875 16.375C44.9428 16.387 45.0428 16.3841 45.2109 16.2813L45.6641 16C46.1482 15.7021 46.6848 15.5268 47.2578 15.5391L47.7109 15.5547C48.1017 15.5634 48.4933 15.5918 48.8828 15.6484L49.1094 15.6797L49.3281 15.7109C49.5686 15.7459 49.812 15.7483 50.0547 15.7031L50.2812 15.6563L50.5078 15.6172C51.0071 15.5246 51.5089 15.5469 52 15.6797L52.2266 15.7422L52.4453 15.7969C52.8109 15.8957 53.182 16.0074 53.5469 16.125L53.7656 16.1953L53.9922 16.2656C54.2464 16.3475 54.4957 16.392 54.7344 16.3906L54.9531 16.3828L55.1797 16.3828C55.3593 16.3818 55.5609 16.3394 55.7891 16.2266L56.0156 16.1094L56.2422 16C56.8173 15.7142 57.4444 15.6609 58.0625 15.875L58.5156 16.0313C58.8204 16.1372 59.1227 16.2166 59.4219 16.2734L59.6484 16.3203L59.875 16.3594C60.1671 16.4148 60.461 16.4428 60.75 16.4453L60.9687 16.4453L61.1953 16.4531C61.4482 16.4553 61.7055 16.4171 61.9687 16.3438L62.4219 16.2188C62.9238 16.0794 63.4361 16.0635 63.9453 16.1719L64.3984 16.2656C64.5369 16.2947 64.6782 16.2832 64.8516 16.2109L65.3047 16.0234C65.901 15.7758 66.5295 15.7816 67.125 16.0313L67.5781 16.2188C67.7711 16.299 67.9383 16.3199 68.0937 16.2969L68.3125 16.2578L68.5391 16.2266C68.9348 16.1681 69.3372 16.1355 69.7344 16.1328L70.1797 16.1328C70.4934 16.1307 70.8105 16.1144 71.125 16.0781L71.3516 16.0469L71.5703 16.0234C71.9339 15.9816 72.3003 15.9477 72.6641 15.9219L73.1172 15.8906C73.6019 15.8563 74.0806 15.9183 74.5469 16.0703L74.7734 16.1406L75 16.2188C75.2215 16.2906 75.4299 16.3105 75.6328 16.2891L76.0859 16.2422C76.5325 16.1954 76.9787 16.2134 77.4219 16.2969L77.6484 16.3359L77.875 16.3828C77.9941 16.4049 78.1299 16.3972 78.3047 16.3125L78.5234 16.2031L78.75 16.0938C79.3662 15.795 80.0315 15.7827 80.6562 16.0703L81.1094 16.2734C81.1938 16.312 81.2387 16.3176 81.3203 16.2813L81.5469 16.1797L81.7734 16.0703C82.3847 15.793 83.0363 15.7943 83.6484 16.0703L84.1016 16.2734C84.3311 16.3768 84.5362 16.4158 84.7266 16.4141L85.1797 16.4141C85.3712 16.4119 85.5799 16.3666 85.8125 16.2578L86.0391 16.1484L86.2656 16.0469C86.8446 15.7761 87.469 15.7336 88.0781 15.9531L88.3047 16.0313L88.5234 16.1172C88.7812 16.2101 89.0343 16.2577 89.2734 16.2656L89.4922 16.2734L89.7187 16.2813C89.9722 16.2896 90.2305 16.2605 90.4922 16.1953L90.7187 16.1406L90.9453 16.0781C91.4443 15.9535 91.9512 15.9514 92.4531 16.0625L92.9062 16.1563C93.2176 16.2251 93.5268 16.282 93.8359 16.3125L94.0625 16.3281L94.2891 16.3516C94.5832 16.3805 94.8781 16.387 95.1719 16.3672L95.3984 16.3516L95.6172 16.3359C96.024 16.3085 96.4375 16.3174 96.8437 16.3594L97.0625 16.3828L97.2891 16.4063C97.4802 16.426 97.6819 16.3989 97.8984 16.3203L98.125 16.2422L98.3437 16.1641C98.7905 16.0019 99.2519 15.9069 99.7187 15.8984L99.9453 15.8984L100.172 15.8906C100.59 15.8833 101.007 15.9217 101.422 16L101.648 16.0391L101.875 16.0859C102.031 16.1151 102.191 16.1024 102.375 16.0313L102.828 15.8594C103.381 15.6455 103.961 15.6155 104.531 15.7891L104.758 15.8594L104.977 15.9297C105.215 16.0023 105.449 16.0234 105.672 16.0078L105.891 15.9922L106.117 15.9766C106.528 15.9479 106.942 15.9538 107.352 16L107.578 16.0313L107.797 16.0547C108.157 16.0953 108.522 16.1431 108.883 16.1953L109.109 16.2266L109.328 16.2578C109.604 16.2978 109.882 16.3115 110.156 16.2891L110.383 16.2656L110.609 16.25C110.987 16.2192 111.364 16.2012 111.742 16.2031L111.969 16.2031L112.195 16.2109C112.457 16.2121 112.723 16.1774 112.992 16.1094L113.219 16.0547L113.445 15.9922C113.917 15.8735 114.396 15.847 114.875 15.9141L115.328 15.9766C115.546 16.0069 115.766 15.9954 115.992 15.9375L116.211 15.8828L116.437 15.8203C116.921 15.6965 117.415 15.6812 117.906 15.7656L118.359 15.8438C118.634 15.8908 118.908 15.8991 119.18 15.8828L119.406 15.875L119.625 15.8594C120.051 15.8338 120.483 15.8586 120.906 15.9297L121.125 15.9688L121.352 16C121.629 16.0465 121.905 16.0618 122.18 16.0469L122.406 16.0391L122.633 16.0234C123.042 16.001 123.451 16.0193 123.859 16.0703L124.086 16.0938L124.312 16.125C124.551 16.1547 124.789 16.1448 125.031 16.0938L125.484 16C125.929 15.9066 126.378 15.8806 126.828 15.9219L127.055 15.9375L127.281 15.9609C127.633 15.9933 127.984 16.0269 128.336 16.0625L128.789 16.1094C129.172 16.1481 129.556 16.2047 129.937 16.2813L130.156 16.3281L130.383 16.375C130.563 16.4112 130.744 16.3969 130.937 16.3359L131.391 16.1953C131.843 16.0537 132.306 15.9913 132.773 16.0078L133.227 16.0234C133.478 16.032 133.732 16.0021 133.992 15.9375L134.445 15.8281C134.911 15.712 135.386 15.6773 135.859 15.7344L136.086 15.7656L136.305 15.7891C136.65 15.8306 136.999 15.8699 137.344 15.9063L137.57 15.9297L137.789 15.9531C138.17 15.9933 138.558 16.0567 138.937 16.1328L139.156 16.1719L139.383 16.2188C139.546 16.2515 139.713 16.2453 139.898 16.1797L140.125 16.0938L140.352 16.0156C140.892 15.8225 141.454 15.7972 142.008 15.9531L142.461 16.0781C142.582 16.112 142.701 16.1105 142.852 16.0469L143.07 15.9531L143.297 15.8594C143.968 15.576 144.658 15.6608 145.258 16.0234L145.477 16.1563L145.703 16.2891C145.867 16.3879 145.959 16.3888 146.023 16.375L146.25 16.3203L146.477 16.2734C146.928 16.1751 147.387 16.1474 147.844 16.1953L148.07 16.2188L148.289 16.2422C148.589 16.2737 148.896 16.2873 149.195 16.2734L149.414 16.2578L149.641 16.25C149.955 16.2355 150.27 16.2035 150.586 16.1563L151.039 16.0938C151.344 16.048 151.652 15.9796 151.961 15.8906L152.187 15.8203L152.414 15.7578C152.867 15.6276 153.331 15.5746 153.797 15.6016L154.023 15.6172L154.242 15.625C154.623 15.6471 155.011 15.6848 155.391 15.7422L155.609 15.7813L155.836 15.8125C156.102 15.8526 156.368 15.8564 156.633 15.8281L156.859 15.8047L157.078 15.7813C157.46 15.7405 157.845 15.7227 158.227 15.7188L158.453 15.7109L158.68 15.7109C159.143 15.7065 159.6 15.7841 160.047 15.9297L160.5 16.0703C160.603 16.1035 160.696 16.1057 160.828 16.0469L161.281 15.8438C161.796 15.6143 162.346 15.5361 162.906 15.6328L163.359 15.7109C163.805 15.7885 164.241 15.9315 164.664 16.1328L164.891 16.2422L165.117 16.3438C165.333 16.4466 165.52 16.4839 165.687 16.4766L165.914 16.4688L166.141 16.4531C166.508 16.4359 166.875 16.4345 167.242 16.4375L167.695 16.4375C168.031 16.4403 168.367 16.4329 168.703 16.4219L168.93 16.4141L169.156 16.4141C169.38 16.4066 169.618 16.3506 169.867 16.25L170.086 16.1641L170.312 16.0703C170.839 15.8577 171.395 15.8059 171.953 15.9297L172.18 15.9766L172.406 16.0313C172.716 16.1001 173.028 16.1423 173.336 16.1719L173.555 16.1953L173.781 16.2188C174.083 16.2478 174.386 16.2573 174.687 16.2422L174.914 16.2266L175.141 16.2188C175.482 16.2016 175.823 16.1801 176.164 16.1563L176.617 16.125C176.968 16.1005 177.321 16.0767 177.672 16.0547L178.125 16.0234C178.51 15.9993 178.896 15.9975 179.281 16.0156L179.508 16.0313L179.734 16.0391C179.983 16.0509 180.235 16.0249 180.492 15.9609L180.945 15.8516C181.504 15.712 182.067 15.754 182.602 15.9609L182.82 16.0469L183.047 16.1328C183.228 16.2031 183.386 16.2101 183.539 16.1797L183.766 16.1406L183.992 16.0938C184.445 16.0031 184.902 15.9826 185.359 16.0391L185.586 16.0703L185.812 16.0938C186.027 16.1201 186.243 16.1092 186.469 16.0469L186.922 15.9219C187.409 15.7869 187.909 15.7599 188.406 15.8438L188.625 15.875L188.852 15.9141C189.062 15.9496 189.275 15.9443 189.492 15.8906L189.945 15.7813C190.467 15.6512 190.999 15.6565 191.516 15.8047L191.734 15.8672L191.961 15.9375C192.231 16.015 192.498 16.0565 192.758 16.0625L192.984 16.0625L193.211 16.0703C193.616 16.0794 194.02 16.1198 194.422 16.1953L194.648 16.2422L194.875 16.2813C195.135 16.3299 195.392 16.3421 195.648 16.3203L195.875 16.3047L196.102 16.2813C196.363 16.2588 196.632 16.2054 196.906 16.1094L197.133 16.0234L197.359 15.9453C197.982 15.7283 198.612 15.7937 199.187 16.0859L199.414 16.1953L199.641 16.3125C199.663 16.3239 199.677 16.3198 199.68 16.3203ZM261.734 17.7735C261.428 17.7726 261.12 17.7889 260.812 17.8281L260.586 17.8594L260.367 17.8906C260.035 17.9329 259.699 17.9859 259.367 18.0469L259.141 18.086L258.922 18.125C258.569 18.1898 258.212 18.2512 257.859 18.3125L257.406 18.3906C256.809 18.4939 256.233 18.376 255.711 18.0938L255.484 17.9766L255.266 17.8516C255.044 17.7318 254.855 17.6873 254.695 17.6875L254.469 17.6953L254.242 17.6953C253.972 17.6966 253.699 17.7301 253.422 17.7969L252.969 17.9063C252.628 17.9886 252.286 18.0733 251.945 18.1641L251.719 18.2266L251.492 18.2813C251.024 18.4055 250.548 18.4472 250.07 18.3906L249.844 18.3594L249.617 18.336C249.245 18.2917 248.872 18.2348 248.5 18.1641L248.273 18.1172L248.047 18.0781C247.822 18.0359 247.6 18.0348 247.375 18.0781L247.148 18.1172L246.93 18.1641C246.383 18.2697 245.836 18.212 245.32 18.0078L245.094 17.9141L244.867 17.8281C244.622 17.7309 244.392 17.684 244.172 17.6797L243.945 17.6719L243.719 17.6719C243.476 17.6675 243.224 17.6975 242.969 17.7735L242.75 17.8438L242.523 17.9063C242.024 18.0547 241.511 18.0824 241 17.9844L240.773 17.9453L240.547 17.8984C240.396 17.8701 240.237 17.8882 240.055 17.9609L239.836 18.0469L239.609 18.1406C239.026 18.3734 238.414 18.3754 237.828 18.1484L237.602 18.0547L237.375 17.9688C237.123 17.871 236.885 17.8274 236.656 17.8203L236.203 17.8047C235.978 17.7981 235.743 17.8331 235.5 17.9141L235.281 17.9844L235.055 18.0625C234.492 18.2501 233.91 18.2445 233.352 18.0469L233.133 17.9688L232.906 17.8828C232.669 17.7988 232.443 17.7662 232.227 17.7734L231.773 17.7891C231.545 17.7972 231.306 17.8468 231.055 17.9453L230.828 18.0391L230.602 18.125C230.057 18.3387 229.481 18.3781 228.914 18.2188L228.695 18.1484L228.469 18.0859C228.195 18.0089 227.921 17.9685 227.656 17.9609L227.437 17.9531L227.211 17.9531C226.831 17.9423 226.45 17.9128 226.07 17.8672L225.844 17.8359L225.617 17.8125C225.338 17.779 225.06 17.7716 224.781 17.7969L224.328 17.8438C223.877 17.885 223.423 17.8527 222.977 17.7578L222.758 17.7109L222.531 17.6641C222.241 17.6023 221.951 17.5691 221.664 17.5625L221.211 17.5469C221.077 17.5445 220.909 17.5844 220.695 17.7109L220.469 17.8438L220.25 17.9766C219.732 18.2834 219.144 18.4305 218.531 18.3359L218.312 18.2969L218.086 18.2656C217.737 18.2118 217.388 18.1553 217.039 18.1016L216.812 18.0703L216.586 18.0313C216.258 17.9808 215.929 17.942 215.602 17.9141L215.375 17.8984L215.156 17.875C214.91 17.854 214.659 17.8736 214.406 17.9297L214.18 17.9766L213.953 18.0313C213.413 18.1512 212.872 18.1075 212.352 17.9219L211.898 17.7656C211.667 17.6833 211.451 17.6528 211.242 17.6641L211.016 17.6719L210.789 17.6875C210.406 17.7082 210.023 17.7067 209.641 17.6875L209.414 17.6797L209.187 17.6641C208.936 17.6514 208.681 17.6793 208.422 17.7422L208.195 17.7969L207.977 17.8516C207.519 17.9627 207.052 17.9936 206.586 17.9453L206.133 17.8984C205.815 17.8654 205.497 17.846 205.18 17.8438L204.734 17.8438C204.384 17.8413 204.03 17.8397 203.68 17.8359L203.453 17.8281L203.227 17.8281C202.827 17.8239 202.429 17.7895 202.031 17.7266L201.805 17.6953L201.578 17.6563C201.491 17.6431 201.374 17.6523 201.195 17.7578L200.742 18.0234C200.111 18.3944 199.4 18.4323 198.734 18.0938L198.508 17.9844L198.281 17.8672C198.16 17.806 198.091 17.8094 198.016 17.8359L197.797 17.9141L197.57 17.9922C197.146 18.1408 196.711 18.2358 196.273 18.2734L196.047 18.2969L195.82 18.3125C195.38 18.3501 194.937 18.3321 194.5 18.25L194.281 18.2031L194.055 18.1641C193.757 18.1082 193.459 18.0769 193.164 18.0703L192.937 18.0625L192.719 18.0547C192.28 18.0449 191.842 17.982 191.414 17.8594L191.187 17.7969L190.961 17.7266C190.779 17.6746 190.607 17.6746 190.43 17.7188L189.977 17.8281C189.497 17.9474 189.01 17.9723 188.523 17.8906L188.07 17.8125C187.868 17.7786 187.665 17.785 187.453 17.8438L187.227 17.9063L187.008 17.9688C186.535 18.0999 186.047 18.1382 185.562 18.0781L185.336 18.0547L185.117 18.0234C184.875 17.9934 184.629 18.0054 184.383 18.0547L184.156 18.1016L183.937 18.1406C183.392 18.2499 182.845 18.1999 182.328 18L182.102 17.9141L181.875 17.8203C181.71 17.7569 181.57 17.7539 181.43 17.7891L180.977 17.8984C180.536 18.0083 180.09 18.0604 179.641 18.0391L179.414 18.0234L179.187 18.0156C178.875 18.0009 178.563 18.0039 178.25 18.0234L178.023 18.0391L177.797 18.0469C177.45 18.0686 177.104 18.093 176.758 18.1172L176.305 18.1484C175.949 18.1733 175.59 18.1931 175.234 18.2109L175.016 18.2266L174.789 18.2344C174.391 18.2544 173.991 18.2491 173.594 18.2109L173.141 18.1641C172.75 18.1264 172.357 18.063 171.969 17.9766L171.742 17.9297L171.523 17.8828C171.382 17.8513 171.235 17.8599 171.062 17.9297L170.836 18.0156L170.609 18.1094C170.16 18.2904 169.694 18.3907 169.219 18.4063L168.992 18.4141L168.773 18.4219C168.41 18.4338 168.043 18.4406 167.68 18.4375L167.453 18.4375L167.227 18.4297C166.896 18.427 166.565 18.4376 166.234 18.4531L166.008 18.4609L165.781 18.4766C165.252 18.5009 164.739 18.385 164.258 18.1563L163.805 17.9375C163.53 17.8072 163.267 17.7234 163.016 17.6797L162.789 17.6406L162.57 17.6016C162.432 17.5775 162.277 17.59 162.094 17.6719L161.867 17.7734L161.648 17.875C161.083 18.1275 160.471 18.1707 159.875 17.9766L159.656 17.8984L159.43 17.8281C159.178 17.746 158.931 17.7085 158.695 17.7109L158.477 17.7109L158.25 17.7188C157.933 17.722 157.614 17.7396 157.297 17.7734L156.844 17.8203C156.408 17.8668 155.973 17.8545 155.539 17.7891L155.086 17.7266C154.768 17.6786 154.45 17.6435 154.133 17.625L153.68 17.5938C153.447 17.5803 153.207 17.609 152.961 17.6797L152.742 17.7422L152.516 17.8125C152.125 17.9251 151.731 18.0111 151.336 18.0703L150.883 18.1328C150.5 18.1901 150.118 18.2323 149.734 18.25L149.281 18.2656C148.882 18.2839 148.484 18.276 148.086 18.2344L147.633 18.1875C147.391 18.1622 147.146 18.1725 146.898 18.2266L146.68 18.2813L146.453 18.3281C145.817 18.4671 145.208 18.3239 144.672 18L144.219 17.7344C144.163 17.7006 144.134 17.6889 144.125 17.6875L144.117 17.6875C144.113 17.6883 144.098 17.6947 144.078 17.7031L143.625 17.8906C143.076 18.1222 142.492 18.171 141.914 18.0078L141.687 17.9453L141.469 17.8828C141.323 17.8418 141.182 17.8416 141.023 17.8984L140.797 17.9766L140.578 18.0625C140.065 18.246 139.527 18.2868 138.992 18.1797L138.766 18.1328L138.539 18.0938C138.22 18.0299 137.903 17.9789 137.586 17.9453L137.133 17.8984C136.779 17.8611 136.425 17.8161 136.07 17.7734L135.844 17.75L135.617 17.7188C135.391 17.6917 135.164 17.7072 134.93 17.7656L134.703 17.8203L134.477 17.8828C134.04 17.9914 133.593 18.0391 133.148 18.0234L132.93 18.0156L132.703 18.0078C132.472 17.9997 132.231 18.0318 131.984 18.1094L131.766 18.1797L131.539 18.25C131.034 18.4088 130.511 18.4399 129.992 18.3359L129.539 18.2422C129.221 18.1784 128.903 18.1336 128.586 18.1016L128.359 18.0781L128.141 18.0547C127.794 18.0196 127.441 17.9851 127.094 17.9531L126.867 17.9297L126.648 17.9141C126.4 17.8912 126.145 17.8997 125.891 17.9531L125.672 18L125.445 18.0547C124.988 18.1509 124.524 18.1672 124.062 18.1094L123.836 18.0781L123.617 18.0547C123.326 18.0183 123.032 18.0075 122.742 18.0234L122.516 18.0313L122.289 18.0469C121.866 18.0699 121.444 18.047 121.023 17.9766L120.57 17.8984C120.295 17.8524 120.022 17.8432 119.75 17.8594L119.523 17.8672L119.297 17.8828C118.869 17.9084 118.44 17.8856 118.016 17.8125L117.789 17.7734L117.57 17.7344C117.362 17.6986 117.153 17.7031 116.937 17.7578L116.711 17.8203L116.484 17.875C116.011 17.996 115.529 18.0286 115.047 17.9609L114.82 17.9297L114.602 17.8984C114.382 17.8677 114.157 17.8723 113.93 17.9297L113.711 17.9922L113.484 18.0469C113.055 18.1553 112.617 18.2132 112.18 18.2109L111.961 18.2031L111.734 18.2031C111.413 18.2014 111.087 18.2159 110.766 18.2422L110.547 18.2578L110.32 18.2813C109.896 18.316 109.47 18.3033 109.047 18.2422L108.82 18.2031L108.594 18.1719C108.255 18.1228 107.917 18.0772 107.578 18.0391L107.125 17.9922C106.836 17.9596 106.547 17.9487 106.258 17.9688L106.031 17.9922L105.805 18.0078C105.329 18.0407 104.859 17.9761 104.398 17.8359L104.172 17.7734L103.945 17.7031C103.816 17.6637 103.694 17.6619 103.547 17.7188L103.32 17.8125L103.102 17.8984C102.587 18.0976 102.043 18.1496 101.5 18.0469L101.273 18.0078L101.055 17.9688C100.771 17.915 100.484 17.8856 100.203 17.8906L99.9766 17.8984L99.7578 17.8984C99.5258 17.9026 99.2832 17.948 99.0312 18.0391L98.8047 18.125L98.5781 18.2031C98.0952 18.3784 97.5943 18.4507 97.0859 18.3984L96.6328 18.3516C96.3406 18.3215 96.0495 18.3165 95.7578 18.3359L95.5312 18.3516L95.3047 18.3594C94.8994 18.3867 94.4908 18.3838 94.0859 18.3438L93.8672 18.3203L93.6406 18.2969C93.2503 18.2583 92.8568 18.1953 92.4687 18.1094L92.25 18.0625L92.0234 18.0156C91.8258 17.9719 91.6303 17.9732 91.4297 18.0234L90.9766 18.1328C90.5408 18.2416 90.1002 18.2957 89.6562 18.2813L89.2031 18.2656C88.744 18.2503 88.2922 18.1585 87.8516 18L87.625 17.9141L87.3984 17.8359C87.3081 17.8034 87.23 17.8029 87.1094 17.8594L86.8906 17.9609L86.6641 18.0703C86.1979 18.2887 85.7029 18.4091 85.1953 18.4141L84.75 18.4141C84.2412 18.4191 83.7428 18.3057 83.2734 18.0938L83.0547 17.9922L82.8281 17.8906C82.7407 17.8512 82.6898 17.8584 82.6016 17.8984L82.1484 18.1016C81.5342 18.3795 80.8776 18.3755 80.2656 18.0938L80.0469 17.9922L79.8203 17.8828C79.7693 17.8594 79.7395 17.8594 79.7266 17.8594C79.7143 17.8595 79.6819 17.8632 79.625 17.8906L79.1719 18.1094C78.6481 18.3629 78.0797 18.4532 77.5 18.3438L77.2734 18.3047L77.0547 18.2656C76.7992 18.2174 76.541 18.2 76.2891 18.2266L76.0703 18.2578L75.8437 18.2813C75.3475 18.3336 74.8524 18.2729 74.375 18.1172L74.1562 18.0469L73.9297 17.9688C73.6962 17.8926 73.4728 17.8676 73.2578 17.8828L72.8047 17.9141C72.4714 17.9377 72.1381 17.9694 71.8047 18.0078L71.5781 18.0391L71.3516 18.0625C70.9666 18.1068 70.581 18.1302 70.1953 18.1328L69.7422 18.1328C69.4409 18.1349 69.1387 18.1585 68.8359 18.2031L68.6094 18.2422L68.3828 18.2734C67.8408 18.3533 67.3088 18.2733 66.8047 18.0625L66.3516 17.875C66.248 17.8316 66.1732 17.8321 66.0703 17.875L65.8437 17.9688L65.625 18.0625C65.0993 18.2816 64.5374 18.346 63.9766 18.2266L63.7578 18.1719L63.5312 18.125C63.3415 18.0846 63.1502 18.0935 62.9531 18.1484L62.7344 18.2109L62.5078 18.2734C62.0713 18.395 61.6265 18.4569 61.1797 18.4531L60.9531 18.4453L60.7266 18.4453C60.3166 18.4416 59.9068 18.4053 59.5 18.3281L59.2734 18.2813L59.0547 18.2422C58.6549 18.1663 58.2535 18.0589 57.8594 17.9219L57.4062 17.7656C57.3263 17.7381 57.2551 17.7286 57.1328 17.7891L56.9062 17.9063L56.6797 18.0156C56.2105 18.2485 55.7133 18.3795 55.1953 18.3828L54.9687 18.3828L54.7422 18.3906C54.2818 18.3932 53.8277 18.3151 53.3828 18.1719L52.9297 18.0313C52.5953 17.9235 52.2635 17.8169 51.9297 17.7266L51.7031 17.6719L51.4766 17.6094C51.2687 17.5532 51.0669 17.5409 50.8672 17.5781L50.6484 17.625L50.4219 17.6641C49.9657 17.7491 49.5052 17.7616 49.0469 17.6953L48.8203 17.6641L48.5937 17.625C48.2838 17.5799 47.9728 17.5538 47.6641 17.5469L47.4375 17.5469L47.2187 17.5391C47.093 17.5363 46.9259 17.5707 46.7109 17.7031L46.4844 17.8438L46.2656 17.9844C45.7389 18.3087 45.1317 18.4542 44.5 18.3359L44.2812 18.2969L44.0547 18.25C43.7368 18.1905 43.4182 18.1533 43.1016 18.125L42.6484 18.0781C42.3763 18.0539 42.1017 18.0621 41.8281 18.1016L41.6016 18.1328L41.3828 18.1719C40.8147 18.2538 40.2604 18.1479 39.75 17.8984L39.5234 17.7813L39.2969 17.6719C39.1337 17.5923 39.014 17.5858 38.9062 17.6094L38.6797 17.6641L38.4531 17.7109C38.1068 17.788 37.7604 17.8662 37.4141 17.9453L36.9609 18.0547C36.4203 18.1782 35.8735 18.1371 35.3516 17.9531L35.1328 17.875L34.9062 17.7969C34.6314 17.7 34.363 17.6401 34.1016 17.6172L33.875 17.6016L33.6484 17.5781C33.3647 17.5535 33.081 17.5555 32.7969 17.5859L32.3437 17.6328C31.9697 17.6731 31.5932 17.7062 31.2187 17.7188L31 17.7188L30.7734 17.7266C30.4969 17.7359 30.2127 17.7801 29.9297 17.8516L29.7109 17.9063L29.4844 17.9609C28.9804 18.0882 28.4668 18.0952 27.9609 17.9766L27.5078 17.8672C27.2568 17.8083 27.0093 17.7932 26.7656 17.8125L26.5391 17.8281L26.3203 17.8516C25.9789 17.8787 25.6306 17.9094 25.2891 17.9453L25.0703 17.9688L24.8437 17.9922C24.4118 18.0376 23.9776 18.0303 23.5469 17.9688L23.3203 17.9297L23.0937 17.8984C22.8502 17.8638 22.6046 17.8706 22.3594 17.9141L22.1406 17.9531L21.9141 17.9922C21.4552 18.0735 20.9912 18.0804 20.5312 18.0078L20.3047 17.9688L20.0781 17.9375C19.7216 17.8812 19.3642 17.8224 19.0078 17.7578L18.7812 17.7109L18.5625 17.6719C18.3373 17.631 18.1094 17.6341 17.8828 17.6797L17.6562 17.7266L17.4375 17.7734C17.1307 17.8352 16.8186 17.9118 16.5078 18.0156L16.0547 18.1719C15.567 18.3349 15.0625 18.3882 14.5547 18.3203L14.1016 18.2578C13.7845 18.2156 13.4647 18.191 13.1484 18.1797L12.9297 18.1719L12.7031 18.1641C12.3885 18.1528 12.0727 18.1578 11.7578 18.1797L11.3047 18.2109C10.9675 18.2344 10.6263 18.2612 10.2891 18.2969L10.0703 18.3203L9.84375 18.3438C9.4034 18.3904 8.96162 18.3774 8.52344 18.3047L8.07031 18.2266C7.67302 18.1604 7.27534 18.07 6.88281 17.9453L6.65625 17.875L6.4375 17.7969C6.19824 17.7209 5.97193 17.6976 5.75781 17.7109L5.53906 17.7266L5.3125 17.7422C4.93128 17.766 4.53892 17.7663 4.14062 17.75L3.90625 17.7422L3.67187 17.7266C3.04702 17.7009 2.49877 17.4512 2.05469 17.0234L1.69531 16.6797C1.27029 16.2702 0.99323 15.7654 0.874999 15.1875L0.820312 14.9453L0.773437 14.6953C0.651052 14.0947 0.726663 13.5012 1 12.9531L1.11719 12.7266L1.22656 12.5C1.34459 12.2627 1.39852 12.0517 1.40625 11.8594L1.42187 11.4063C1.42783 11.2423 1.39461 11.0591 1.28906 10.8438L1.07031 10.3906C0.851303 9.94515 0.704452 9.48096 0.65625 9L0.640625 8.77344L0.617187 8.54688C0.567274 8.04473 0.62927 7.54962 0.796875 7.07031L0.953125 6.61719C1.01196 6.44771 1.01502 6.29768 0.976562 6.14063L0.867187 5.6875C0.720077 5.09238 0.800027 4.49977 1.08594 3.96094L1.30469 3.53906C1.51947 3.13466 1.78751 2.76901 2.10156 2.45313L2.40625 2.14844C2.70426 1.84869 3.04582 1.58106 3.42188 1.34375L3.625 1.21094L3.83594 1.08594C4.38465 0.740178 5.00768 0.631035 5.64063 0.80469L6.09375 0.92969C6.25486 0.973999 6.40771 0.976452 6.57031 0.921877L6.79688 0.843752L7.01563 0.765627C7.55567 0.584374 8.11635 0.575074 8.66406 0.734377L8.89063 0.796877L9.11719 0.86719C9.44084 0.961682 9.76382 1.04266 10.0859 1.10938L10.5391 1.20313C10.6721 1.23064 10.8111 1.21573 10.9844 1.14063L11.2109 1.04688L11.4375 0.945315C12.0368 0.684216 12.6704 0.682893 13.2734 0.937502L13.7266 1.125C14.0012 1.24134 14.267 1.31519 14.5234 1.35157L14.9766 1.41407C15.1562 1.43933 15.342 1.42578 15.5469 1.35157L15.7734 1.26563L16 1.1875C16.3999 1.04277 16.8035 0.932267 17.2109 0.859378L17.6641 0.781253C18.0561 0.711253 18.4498 0.666071 18.8438 0.64844L19.0703 0.632815L19.2891 0.625003C19.814 0.601509 20.3249 0.71568 20.8047 0.937503L21.0313 1.03907L21.2578 1.14844C21.4052 1.2165 21.5117 1.21672 21.6172 1.1875L22.0703 1.0625C22.6354 0.905061 23.2065 0.936725 23.75 1.14844L23.9766 1.24219L24.2031 1.32813C24.3796 1.39648 24.5312 1.40661 24.6797 1.375L24.9063 1.32813L25.1328 1.27344C25.58 1.17871 26.0319 1.15846 26.4844 1.20313L26.7109 1.22657L26.9375 1.24219C27.2633 1.2744 27.5886 1.29596 27.9141 1.30469L28.3672 1.32032C28.5287 1.3241 28.7118 1.28369 28.9297 1.17188L29.1563 1.05469L29.3828 0.945316C29.9054 0.677232 30.4744 0.566662 31.0625 0.671878L31.5156 0.750003C31.7455 0.791141 31.9727 0.793306 32.2031 0.750003L32.4297 0.710941L32.6563 0.664066C33.0913 0.582659 33.53 0.557056 33.9688 0.593753L34.1953 0.617191L34.4219 0.632816C34.7398 0.659568 35.0574 0.675549 35.375 0.671878L35.6016 0.664066L35.8281 0.664066C36.2244 0.659579 36.6205 0.683304 37.0156 0.734379L37.4688 0.796879C37.855 0.846946 38.241 0.913946 38.625 1.00782L39.0781 1.11719C39.1881 1.14356 39.3038 1.14369 39.4609 1.07032L39.6875 0.960941L39.9141 0.859379C40.4777 0.594764 41.0848 0.536288 41.6875 0.726566L42.1406 0.867191C42.349 0.93298 42.5425 0.950805 42.7344 0.921879L42.9609 0.882816L43.1875 0.851566C43.755 0.765263 44.3078 0.863369 44.8203 1.10938L45.2734 1.32813C45.4186 1.39725 45.5188 1.39488 45.6172 1.36719L45.8438 1.30469L46.0625 1.24219C46.4549 1.13169 46.8536 1.05385 47.25 1L47.7031 0.937504C48.0775 0.886804 48.4532 0.850703 48.8281 0.828129L49.0547 0.812504L49.2734 0.796879C49.6682 0.773116 50.0664 0.781975 50.4609 0.812504L50.9141 0.843754C51.3719 0.879371 51.821 0.989347 52.2578 1.16407L52.4844 1.25L52.7109 1.34375C52.7824 1.37209 52.8346 1.37915 52.9375 1.32813L53.1641 1.21094L53.3906 1.10157C54.0066 0.79305 54.674 0.772761 55.3047 1.0625L55.5313 1.16407L55.7578 1.27344C55.9155 1.34517 56.0346 1.34732 56.1484 1.32032L56.6016 1.21094C56.9906 1.11669 57.3817 1.0515 57.7734 1.00782L58 0.976567L58.2266 0.953129C58.6166 0.909802 59.0077 0.894226 59.3984 0.898442L59.8516 0.898442C60.1367 0.901299 60.4229 0.879426 60.7109 0.82813L61.1641 0.750005C61.548 0.681629 61.9349 0.628417 62.3203 0.601567L62.5391 0.585942L62.7656 0.570317C63.2466 0.536802 63.7236 0.602795 64.1875 0.750005L64.6406 0.89063C64.9356 0.984381 65.2277 1.04898 65.5156 1.08594L65.7422 1.11719L65.9609 1.14063C66.3233 1.18714 66.6925 1.24446 67.0547 1.30469L67.2734 1.34375L67.5 1.38282C67.6006 1.39956 67.727 1.3877 67.9063 1.28907L68.1328 1.16407L68.3516 1.03907C69.0135 0.674929 69.7421 0.694322 70.3906 1.07032L70.6172 1.19532L70.8359 1.32813C70.9041 1.36767 70.9433 1.3741 70.9531 1.375C70.9605 1.37568 70.9775 1.37426 71.0156 1.35938L71.2422 1.27344L71.4688 1.17969C72.038 0.953829 72.6381 0.938149 73.2188 1.14063L73.4453 1.21876L73.6641 1.29688C73.913 1.38368 74.1528 1.42182 74.3828 1.42188L74.8359 1.42188C75.0466 1.42161 75.268 1.37892 75.5078 1.28126L75.7344 1.18751L75.9609 1.10157C76.507 0.878932 77.0838 0.832988 77.6563 0.992193L77.8828 1.05469L78.1016 1.11719C78.3964 1.19919 78.6953 1.2541 78.9844 1.28126L79.2031 1.30469L79.4297 1.32813C79.7051 1.354 79.9816 1.34799 80.2578 1.31251L80.7109 1.25001C81.1348 1.19549 81.5598 1.19163 81.9844 1.23438L82.4375 1.28126C82.7423 1.31215 83.0473 1.32241 83.3516 1.31251L83.8047 1.29688C84.0194 1.28975 84.2468 1.2383 84.4922 1.13282L84.7188 1.03907L84.9453 0.937506C85.4289 0.730286 85.9387 0.633085 86.4609 0.671881L86.6875 0.695318L86.9141 0.710943C87.2213 0.733755 87.5289 0.734656 87.8359 0.718756L88.0625 0.710943L88.2891 0.695318C88.6825 0.675111 89.0757 0.685391 89.4688 0.718756L89.6953 0.734381L89.9219 0.757818C90.3719 0.796183 90.818 0.89627 91.25 1.06251L91.4688 1.14844L91.6953 1.23438C91.9486 1.33185 92.1904 1.3814 92.4219 1.39063L92.6484 1.39844L92.875 1.41407C93.0774 1.42179 93.2922 1.38761 93.5234 1.29688L93.75 1.20313L93.9688 1.11719C94.4505 0.928184 94.9561 0.848045 95.4688 0.890631L95.6953 0.906256L95.9219 0.929694C96.2077 0.953487 96.495 0.944975 96.7813 0.914069L97.0078 0.890631L97.2266 0.867194C97.5745 0.829637 97.9255 0.789707 98.2734 0.750006L98.7266 0.703131C99.1161 0.658778 99.5081 0.637208 99.8984 0.640631L100.344 0.640631C100.776 0.644425 101.208 0.704366 101.633 0.812506L101.859 0.867194L102.086 0.929694C102.45 1.02245 102.816 1.12377 103.18 1.23438L103.406 1.29688L103.625 1.36719C103.693 1.38782 103.769 1.3956 103.906 1.32032L104.359 1.07032C104.813 0.822629 105.294 0.662164 105.797 0.617194L106.023 0.601569L106.25 0.578132C106.709 0.537508 107.166 0.572543 107.617 0.679694L108.07 0.789069C108.295 0.842465 108.515 0.854633 108.734 0.820319L108.961 0.781257L109.18 0.750007C109.634 0.678836 110.093 0.676726 110.547 0.750007L110.773 0.789069L111 0.820319C111.4 0.885093 111.8 0.982669 112.195 1.10938L112.414 1.17969L112.641 1.25782C112.806 1.31097 112.958 1.30968 113.117 1.26563L113.57 1.14063C113.981 1.02634 114.396 0.953553 114.813 0.921882L115.039 0.906257L115.258 0.882819C115.763 0.844442 116.265 0.929012 116.742 1.10938L116.969 1.18751L117.188 1.27344C117.404 1.35533 117.608 1.38498 117.797 1.36719L118.016 1.34376L118.242 1.32032C118.611 1.28551 118.982 1.26237 119.352 1.25001L119.805 1.23438C120.007 1.22753 120.229 1.18219 120.469 1.07032L120.688 0.960945L120.914 0.859382C121.584 0.547384 122.284 0.608827 122.898 0.97657L123.125 1.10938L123.352 1.25001C123.417 1.28936 123.45 1.28881 123.453 1.28907L123.461 1.28907C123.466 1.28824 123.481 1.28892 123.5 1.28126L123.953 1.09376C124.401 0.906878 124.862 0.789411 125.336 0.765632L125.563 0.75782L125.789 0.742195C126.179 0.722863 126.571 0.730026 126.961 0.75782L127.18 0.773445L127.406 0.78907C127.667 0.807672 127.931 0.792679 128.195 0.742195L128.422 0.703132L128.648 0.656258C129.287 0.533712 129.894 0.690783 130.422 1.02345L130.648 1.16407L130.867 1.3047C131.009 1.39428 131.066 1.37769 131.102 1.3672L131.328 1.3047L131.555 1.23438C132.084 1.0776 132.625 1.07731 133.156 1.22657L133.609 1.35157C133.746 1.38937 133.877 1.38635 134.031 1.32813L134.484 1.15626C135.018 0.953884 135.577 0.912904 136.133 1.0547L136.359 1.1172L136.586 1.17188C136.841 1.23706 137.09 1.2629 137.336 1.25001L137.563 1.23438L137.781 1.22657C138.089 1.21041 138.401 1.1725 138.711 1.1172L139.164 1.03907C139.668 0.94946 140.172 0.974747 140.664 1.1172L140.891 1.18751L141.117 1.25001C141.232 1.28322 141.345 1.28227 141.492 1.21876L141.719 1.1172L141.938 1.02345C142.517 0.772891 143.138 0.750061 143.734 0.968758L143.953 1.04688L144.18 1.13282C144.436 1.2268 144.685 1.2736 144.922 1.28126L145.148 1.28907L145.367 1.29688C145.731 1.30864 146.098 1.32509 146.461 1.35157L146.688 1.3672L146.906 1.38282C147.137 1.39961 147.375 1.38053 147.617 1.31251L148.07 1.18751C148.474 1.07444 148.88 0.992797 149.289 0.953133L149.516 0.929696L149.742 0.914071C150.148 0.874884 150.555 0.867884 150.961 0.898446L151.414 0.929696C151.77 0.956522 152.129 0.990085 152.484 1.02345L152.703 1.04688L152.93 1.06251C153.301 1.09736 153.676 1.14414 154.047 1.20313L154.266 1.2422L154.492 1.27345C154.791 1.32093 155.094 1.3517 155.391 1.35157L155.836 1.35157C156.015 1.3515 156.217 1.30834 156.445 1.19532L156.672 1.07813L156.891 0.968759C157.49 0.672001 158.148 0.63922 158.773 0.898446L158.992 0.992196L159.219 1.08595C159.426 1.17189 159.61 1.19772 159.781 1.1797L160.008 1.15626L160.234 1.12501C160.577 1.08859 160.923 1.05053 161.266 1.00782L161.492 0.984384L161.711 0.953134C162.084 0.906717 162.463 0.871953 162.836 0.851572L163.055 0.843759L163.281 0.828134C163.779 0.800964 164.271 0.885324 164.742 1.06251L164.961 1.14845L165.188 1.22657C165.437 1.32057 165.679 1.37136 165.906 1.37501L166.352 1.37501C166.603 1.37904 166.863 1.35334 167.125 1.28126L167.344 1.21876L167.57 1.15626C168.042 1.02631 168.525 0.987652 169.008 1.04688L169.234 1.07032L169.461 1.10157C169.727 1.13412 169.992 1.13506 170.258 1.10157L170.711 1.03907C171.044 0.996766 171.378 0.949822 171.711 0.890634L172.164 0.812509C172.579 0.738854 172.996 0.70696 173.414 0.718759L173.641 0.726572L173.867 0.726572C174.227 0.736819 174.586 0.75233 174.945 0.773447L175.398 0.804697C175.71 0.822907 176.025 0.821742 176.336 0.804697L176.555 0.789072L176.781 0.78126C177.097 0.763951 177.417 0.729316 177.734 0.679697L177.961 0.648447L178.18 0.609385C178.742 0.521512 179.292 0.615191 179.805 0.851572L180.258 1.0547C180.384 1.11312 180.467 1.11093 180.563 1.07813L180.789 1.00782L181.008 0.929697C181.528 0.75039 182.072 0.712717 182.609 0.835947L182.836 0.890635L183.063 0.93751C183.428 1.02152 183.792 1.11708 184.156 1.21876L184.609 1.34376C184.779 1.39045 184.938 1.3934 185.109 1.34376L185.336 1.27345L185.555 1.21095C186.077 1.05931 186.615 1.04919 187.141 1.18751L187.594 1.31251C187.859 1.38232 188.119 1.40892 188.375 1.40626L188.828 1.40626C189.056 1.40358 189.291 1.35644 189.539 1.26564L189.766 1.18751L189.992 1.10157C190.492 0.918181 191.013 0.863506 191.539 0.945323L191.766 0.976573L191.992 1.01564C192.267 1.05851 192.54 1.06685 192.813 1.04689L193.266 1.01564C193.583 0.992218 193.9 0.951559 194.219 0.898448L194.672 0.820323C195.044 0.758166 195.417 0.715352 195.789 0.679698L196.242 0.632823C196.638 0.595067 197.034 0.584972 197.43 0.601573L197.883 0.617198C198.307 0.635259 198.731 0.701048 199.148 0.812511L199.367 0.875011L199.594 0.937511C199.864 1.0096 200.13 1.04603 200.391 1.04689L200.844 1.04689C201.226 1.04824 201.611 1.07045 201.992 1.10939L202.211 1.13282L202.438 1.14845C202.685 1.17374 202.935 1.16789 203.188 1.1172L203.641 1.02345C204.156 0.919638 204.676 0.949608 205.18 1.10157L205.398 1.16407L205.625 1.23439C205.848 1.30181 206.065 1.32156 206.273 1.29689L206.492 1.26564L206.719 1.2422C207.07 1.20063 207.422 1.1577 207.773 1.1172L208 1.09376L208.219 1.07032C208.674 1.01776 209.135 1.03404 209.586 1.12501L209.813 1.17189L210.031 1.21876C210.351 1.28324 210.674 1.33307 210.992 1.3672L211.445 1.41407C211.614 1.43183 211.794 1.40613 212 1.32032L212.453 1.13282C212.952 0.924405 213.479 0.845095 214.016 0.914074L214.242 0.937511L214.461 0.968761C214.749 1.00584 215.041 1.01599 215.328 1.00001L215.555 0.984386L215.781 0.976574C216.111 0.958012 216.443 0.929033 216.773 0.890636L217 0.867199L217.219 0.835949C217.641 0.786896 218.07 0.784901 218.492 0.828136L218.711 0.851574L218.938 0.875011C219.32 0.914197 219.705 0.969365 220.086 1.04689L220.539 1.14064C220.765 1.18627 220.987 1.18875 221.211 1.14845L221.664 1.07032C222.118 0.989006 222.575 0.979482 223.031 1.04689L223.258 1.07814L223.484 1.1172C223.674 1.14531 223.87 1.13069 224.078 1.06251L224.305 0.984387L224.523 0.914074C224.941 0.77749 225.369 0.688136 225.797 0.648449L226.023 0.625012L226.242 0.601574C226.786 0.551081 227.318 0.65926 227.813 0.890637L228.039 1.00001L228.258 1.10157C228.511 1.21984 228.749 1.27842 228.969 1.29689L229.195 1.32032L229.422 1.33595C229.636 1.35349 229.855 1.33085 230.086 1.25782L230.539 1.1172C230.972 0.980619 231.414 0.903847 231.859 0.890637L232.086 0.882825L232.305 0.875012C232.694 0.863475 233.088 0.872007 233.477 0.906262L233.703 0.9297L233.922 0.945325C234.341 0.982217 234.761 1.06592 235.172 1.18751L235.398 1.25782L235.617 1.32032C235.877 1.39724 236.135 1.43108 236.383 1.4297L236.828 1.4297C237.099 1.42819 237.379 1.39507 237.656 1.32814L237.875 1.27345L238.102 1.21876C238.544 1.11192 238.995 1.06884 239.445 1.09376L239.664 1.10939L239.891 1.1172C240.173 1.13285 240.458 1.11935 240.742 1.07814L241.195 1.01564C241.506 0.970445 241.819 0.910306 242.133 0.828137L242.586 0.703137C243.107 0.567084 243.638 0.574592 244.156 0.718763L244.383 0.781263L244.602 0.843763C244.971 0.94639 245.343 1.0614 245.711 1.18751L246.164 1.34376C246.228 1.36518 246.291 1.37094 246.414 1.3047L246.641 1.1797L246.859 1.06251C247.388 0.777826 247.975 0.66278 248.578 0.781263L248.805 0.828138L249.031 0.8672C249.345 0.929197 249.657 0.973744 249.969 1.00001L250.195 1.02345L250.422 1.03908C250.763 1.06769 251.105 1.09016 251.445 1.10939L251.672 1.12501L251.891 1.14064C252.227 1.15963 252.57 1.16665 252.906 1.17189L253.125 1.1797L253.352 1.1797C253.745 1.18583 254.139 1.22299 254.531 1.28126L254.984 1.34376C255.223 1.37924 255.463 1.37391 255.703 1.32814L255.922 1.28908L256.148 1.2422C256.552 1.16542 256.961 1.12615 257.367 1.1172L257.594 1.10939L257.813 1.10939C258.238 1.10003 258.665 1.13391 259.086 1.21876L259.313 1.26564L259.531 1.31251C259.676 1.34175 259.83 1.33016 260.008 1.25783L260.461 1.07033C260.88 0.899705 261.308 0.781554 261.742 0.718763L262.195 0.656263C262.678 0.586855 263.159 0.61364 263.633 0.734388L263.859 0.789076L264.086 0.851576C264.412 0.934723 264.738 1.00356 265.063 1.06251L265.289 1.10158L265.516 1.14845C265.806 1.20098 266.096 1.22043 266.383 1.21876L266.828 1.21876C267.04 1.21754 267.267 1.17649 267.508 1.07814L267.961 0.890639C268.471 0.682051 269.009 0.609532 269.555 0.703139L270.008 0.781264C270.254 0.823737 270.498 0.833067 270.742 0.796889L270.969 0.757826L271.188 0.726576C271.713 0.648753 272.236 0.712318 272.734 0.898451L273.188 1.07033C273.344 1.12892 273.479 1.13156 273.617 1.09376L274.07 0.968764C274.638 0.81148 275.213 0.847914 275.758 1.06251L275.977 1.14845L276.203 1.2422C276.271 1.26887 276.323 1.2734 276.43 1.21876L276.883 0.984389C277.35 0.744161 277.848 0.602808 278.367 0.593764L278.594 0.593764L278.82 0.585952C279.272 0.578648 279.724 0.640387 280.164 0.765639L280.383 0.828139L280.609 0.898452C280.88 0.97532 281.146 1.00971 281.406 1.01564L281.859 1.03126C282.2 1.0387 282.542 1.04041 282.883 1.03908L283.109 1.03908L283.336 1.03126C283.625 1.02998 283.919 1.00655 284.211 0.953139L284.43 0.914077L284.656 0.867202C285.078 0.790139 285.505 0.764343 285.93 0.781264L286.148 0.789077L286.375 0.796889C286.715 0.810454 287.058 0.824172 287.398 0.828139L287.852 0.828139C288.152 0.831507 288.456 0.813921 288.758 0.773452L288.977 0.742202L289.203 0.710952C289.695 0.644947 290.185 0.689157 290.664 0.82814L290.891 0.89064L291.117 0.960952C291.288 1.01034 291.448 1.00842 291.617 0.960952L292.07 0.835952C292.622 0.681845 293.18 0.701275 293.719 0.89064L294.172 1.04689C294.44 1.14096 294.7 1.19483 294.953 1.21095L295.18 1.22658L295.398 1.2422C295.659 1.2588 295.923 1.24062 296.188 1.18751L296.641 1.09376C297.005 1.02043 297.37 0.954551 297.734 0.898452L298.188 0.835952C298.651 0.764949 299.117 0.771123 299.578 0.85939L299.797 0.898452L300.023 0.945327C300.27 0.992514 300.515 0.999699 300.758 0.968765L300.984 0.937515L301.211 0.914078C301.656 0.857054 302.104 0.857928 302.547 0.929703L302.766 0.968765L302.992 1.00783C303.455 1.08278 303.89 1.23352 304.289 1.46877L304.477 1.57814L304.656 1.68752C305.055 1.92311 305.394 2.22958 305.656 2.60939L305.773 2.76564L305.883 2.9297C306.017 3.12385 306.195 3.33522 306.422 3.56252L306.586 3.73439L306.758 3.89845C306.887 4.02793 307.048 4.20427 307.156 4.38283C307.187 4.43391 307.238 4.51526 307.273 4.6172C307.305 4.70874 307.357 4.91159 307.312 5.15627C307.283 5.31652 307.207 5.45848 307.109 5.58595L307.148 5.8047C307.225 6.25535 307.236 6.71216 307.172 7.16408L307.141 7.39064L307.102 7.6172C307.071 7.83585 307.085 8.05519 307.141 8.28127L307.25 8.73439C307.379 9.25647 307.368 9.78799 307.219 10.3047L307.156 10.5235L307.094 10.75C307.001 11.0729 306.923 11.3975 306.859 11.7188L306.766 12.1719C306.746 12.2747 306.756 12.3931 306.844 12.5625L307.078 13.0156C307.386 13.6104 307.431 14.2591 307.203 14.8906L307.117 15.1328L307.031 15.3672C306.841 15.8925 306.531 16.3468 306.102 16.7031L305.914 16.8594L305.734 17.0078C305.41 17.2759 305.057 17.5237 304.687 17.75L304.477 17.8828L304.266 18.0078C303.712 18.347 303.083 18.4555 302.445 18.2813L302.219 18.2188L301.984 18.1563C301.737 18.0885 301.504 18.0648 301.281 18.086L300.828 18.1328C300.436 18.1698 300.041 18.1781 299.648 18.1641L299.43 18.1563L299.203 18.1485C298.754 18.1324 298.31 18.0504 297.875 17.9063L297.648 17.8281L297.422 17.7578C297.18 17.6775 296.95 17.6395 296.727 17.6485L296.5 17.6641L296.281 17.6719C296.045 17.6814 295.796 17.7314 295.539 17.8281L295.312 17.9141L295.094 17.9922C294.666 18.1535 294.225 18.2628 293.781 18.3047L293.555 18.3203L293.328 18.3438C292.848 18.3886 292.372 18.3397 291.906 18.2031L291.68 18.1406L291.453 18.0703C291.126 17.9745 290.795 17.8923 290.469 17.8203L290.25 17.7735L290.023 17.7188C289.915 17.6948 289.791 17.6999 289.625 17.7813L289.406 17.8906L289.18 18.0078C288.524 18.3296 287.822 18.297 287.195 17.9453L286.977 17.8125L286.75 17.6875C286.633 17.6218 286.584 17.6369 286.531 17.6563L286.305 17.7344L286.086 17.8203C285.605 17.997 285.101 18.0708 284.594 18.0235L284.367 18L284.148 17.9766C283.794 17.9435 283.433 17.913 283.078 17.875L282.859 17.8516L282.633 17.8203C282.418 17.7974 282.197 17.8233 281.969 17.8906L281.742 17.9531L281.523 18.0235C281.101 18.148 280.666 18.2204 280.234 18.2422L280.016 18.25L279.789 18.2656C279.335 18.2886 278.882 18.2389 278.437 18.125L278.211 18.0703L277.992 18.0078C277.851 17.9718 277.71 17.9769 277.547 18.0391L277.094 18.211C276.457 18.4551 275.807 18.3988 275.219 18.086L274.992 17.9688L274.766 17.8438C274.613 17.763 274.514 17.7678 274.43 17.7891L274.211 17.8438L273.984 17.8985C273.459 18.0308 272.925 18.02 272.406 17.8672L272.18 17.7969L271.953 17.7344C271.767 17.6796 271.592 17.6703 271.414 17.711L270.961 17.8203C270.572 17.9099 270.181 17.9756 269.789 18.0156L269.336 18.0625C268.918 18.105 268.496 18.0992 268.078 18.0547L267.859 18.0313L267.633 18.0078C267.328 17.9754 267.023 17.9679 266.719 17.9766L266.492 17.9766L266.266 17.9844C265.877 17.9955 265.489 17.987 265.102 17.9531L264.875 17.9297L264.648 17.9141C264.307 17.8842 263.966 17.8573 263.625 17.836L263.172 17.8047C262.844 17.7842 262.516 17.7744 262.187 17.7735L261.734 17.7735Z" fill="#05EE0D"/>
</svg>
