<svg width="308" height="20" viewBox="0 0 308 20" fill="none" xmlns="http://www.w3.org/2000/svg">
<path d="M303 2.00004C304.657 2.00004 306 3.34318 306 5.00004L306 15C306 16.6569 304.657 18.0001 303 18.0001L5.00001 18C3.34315 18 2 16.6569 2 15L2 5.00003C2 3.34317 3.34315 2.00002 5 2.00002L303 2.00004Z" fill="#EEEE05" fill-opacity="0.1"/>
<path d="M200.68 17.3203C200.689 17.3167 200.704 17.3099 200.727 17.2969L201.18 17.0313C201.697 16.726 202.28 16.5839 202.891 16.6797L203.117 16.7188L203.344 16.75C203.646 16.7979 203.949 16.825 204.25 16.8282L204.477 16.8282L204.695 16.836C205.043 16.8397 205.394 16.8414 205.742 16.8438L206.195 16.8438C206.577 16.8465 206.962 16.8666 207.344 16.9063L207.562 16.9297L207.789 16.9532C208.022 16.9774 208.259 16.9646 208.5 16.9063L208.953 16.7969C209.394 16.6901 209.841 16.6493 210.289 16.6719L210.516 16.6797L210.734 16.6953C211.048 16.7112 211.366 16.7044 211.68 16.6875L211.906 16.6797L212.133 16.6641C212.622 16.6375 213.104 16.7167 213.57 16.8828L214.023 17.0391C214.203 17.103 214.364 17.1136 214.523 17.0782L214.742 17.0313L214.969 16.9766C215.415 16.8772 215.868 16.8445 216.32 16.8828L216.547 16.9063L216.773 16.9219C217.146 16.9537 217.519 16.9974 217.891 17.0547L218.117 17.0938L218.344 17.125C218.693 17.1788 219.042 17.2352 219.391 17.2891L219.617 17.3203L219.844 17.3594C219.931 17.3721 220.048 17.363 220.227 17.2578L220.68 16.9922C221.163 16.7057 221.693 16.5423 222.258 16.5547L222.484 16.5547L222.711 16.5625C223.124 16.5721 223.536 16.6162 223.945 16.7032L224.172 16.7578L224.398 16.8047C224.651 16.8581 224.901 16.8742 225.148 16.8516L225.375 16.8282L225.594 16.8047C226.014 16.7663 226.44 16.7777 226.859 16.8282L227.086 16.8516L227.305 16.8828C227.625 16.9213 227.946 16.944 228.266 16.9532L228.492 16.961L228.719 16.961C229.153 16.9736 229.583 17.0447 230.008 17.1641L230.461 17.2891C230.593 17.3257 230.721 17.326 230.875 17.2657L231.094 17.1719L231.32 17.086C231.768 16.9103 232.232 16.8059 232.703 16.7891L232.93 16.7813L233.148 16.7735C233.631 16.7562 234.109 16.837 234.57 17L235.023 17.1563C235.165 17.206 235.285 17.2098 235.422 17.1641L235.648 17.086L235.875 17.0157C236.329 16.8647 236.794 16.7904 237.266 16.8047L237.719 16.8203C238.19 16.835 238.653 16.9351 239.102 17.1094L239.328 17.1953L239.547 17.2813C239.66 17.3252 239.752 17.3275 239.867 17.2813L240.094 17.1875L240.32 17.1016C240.836 16.896 241.382 16.8325 241.93 16.9375L242.148 16.9844L242.375 17.0235C242.564 17.0597 242.753 17.0518 242.953 16.9922L243.18 16.9219L243.406 16.8594C243.849 16.7281 244.302 16.6636 244.758 16.6719L244.984 16.6719L245.203 16.6797C245.682 16.6884 246.156 16.7892 246.609 16.9688L246.828 17.0547L247.055 17.1485C247.237 17.2208 247.395 17.2321 247.547 17.2032L248 17.1094C248.473 17.0185 248.949 17.0199 249.422 17.1094L249.648 17.1563L249.875 17.1953C250.201 17.2574 250.526 17.3129 250.852 17.3516L251.305 17.3985C251.526 17.4247 251.753 17.4131 251.984 17.3516L252.203 17.2891L252.43 17.2344C252.786 17.1396 253.144 17.047 253.5 16.961L253.953 16.8516C254.376 16.7495 254.805 16.6973 255.234 16.6953L255.461 16.6953L255.68 16.6875C256.219 16.685 256.734 16.8363 257.211 17.0938L257.437 17.211L257.664 17.336C257.841 17.4316 257.968 17.4396 258.07 17.4219L258.289 17.3828L258.516 17.3438C258.862 17.2837 259.208 17.2198 259.555 17.1563L260.008 17.0782C260.375 17.0108 260.742 16.9532 261.109 16.9063L261.562 16.8438C261.954 16.7939 262.349 16.7724 262.742 16.7735L263.187 16.7735C263.556 16.7745 263.928 16.7895 264.297 16.8125L264.523 16.8282L264.75 16.836C265.108 16.8584 265.47 16.8906 265.828 16.9219L266.047 16.9375L266.273 16.961C266.585 16.9882 266.9 16.9934 267.211 16.9844L267.437 16.9844L267.656 16.9766C268.051 16.9652 268.449 16.9815 268.844 17.0235L269.297 17.0703C269.576 17.0998 269.854 17.0986 270.133 17.0703L270.586 17.0235C270.894 16.992 271.205 16.9387 271.516 16.8672L271.734 16.8203L271.961 16.7657C272.481 16.6457 273.011 16.6614 273.523 16.8125L273.742 16.8828L273.969 16.9453C274.149 16.9984 274.318 17.0046 274.492 16.961L274.719 16.9063L274.945 16.8438C275.559 16.6897 276.166 16.7882 276.711 17.0782L276.93 17.2032L277.156 17.3203C277.267 17.3795 277.32 17.3677 277.383 17.3438L277.602 17.2578L277.828 17.1719C278.363 16.9667 278.926 16.9278 279.484 17.0703L279.711 17.1328L279.937 17.1875C280.193 17.2528 280.442 17.2781 280.687 17.2657L280.914 17.2578L281.141 17.2422C281.407 17.2285 281.677 17.1827 281.953 17.1016L282.18 17.0391L282.406 16.9688C282.877 16.8302 283.359 16.7841 283.844 16.836L284.297 16.8828C284.641 16.9196 284.984 16.9523 285.328 16.9844L285.781 17.0313C285.973 17.049 286.173 17.0248 286.391 16.9453L286.617 16.8594L286.844 16.7813C287.491 16.5436 288.144 16.6185 288.727 16.9453L289.18 17.1953L289.25 17.2266C289.256 17.2253 289.273 17.2225 289.297 17.211L289.75 16.9922C290.284 16.7303 290.862 16.6354 291.453 16.7657L291.68 16.8204L291.906 16.8672C292.277 16.9491 292.646 17.048 293.016 17.1563L293.242 17.2188L293.469 17.2891C293.7 17.3569 293.923 17.3718 294.141 17.3516L294.367 17.336L294.594 17.3125C294.849 17.2885 295.112 17.2271 295.383 17.125L295.836 16.9532C296.278 16.7866 296.733 16.6908 297.195 16.6719L297.648 16.6563C298.125 16.6372 298.597 16.7071 299.055 16.8594L299.281 16.9297L299.5 17.0079C299.764 17.0958 300.024 17.1395 300.273 17.1485L300.727 17.1641C301.031 17.1749 301.336 17.1695 301.641 17.1407L302.094 17.0938C302.511 17.0543 302.942 17.0618 303.383 17.1016L303.625 17.1172L303.875 17.1407C303.902 17.1431 303.924 17.1414 303.93 17.1407C303.935 17.1361 303.946 17.1269 303.961 17.1094L304.117 16.9141L304.281 16.7188C304.498 16.4542 304.685 16.1805 304.852 15.9063L305.102 15.5C305.224 15.2978 305.297 15.0897 305.328 14.8672L305.367 14.6329L305.398 14.4063C305.418 14.2689 305.398 14.1185 305.305 13.9375L305.07 13.4844C304.796 12.9557 304.687 12.3775 304.805 11.7813L304.852 11.5547L304.891 11.3282C304.966 10.9504 305.063 10.5715 305.172 10.1954L305.234 9.9766L305.297 9.75004C305.349 9.56803 305.356 9.39538 305.312 9.21879L305.203 8.76566C305.086 8.29419 305.057 7.81501 305.125 7.33598L305.187 6.88285C305.223 6.63583 305.222 6.38896 305.18 6.14066L305.141 5.9141L305.102 5.69535C305.07 5.50837 305.044 5.33315 305.031 5.18754C305.022 5.08538 305.002 4.85957 305.055 4.64066L305.062 4.61723C305.054 4.53601 305.03 4.40902 305 4.23441L304.961 3.99223L304.945 3.8516L304.773 3.82816L304.523 3.78129C304.108 3.69999 303.728 3.60353 303.391 3.50004L303.203 3.44535L303.016 3.38285C302.771 3.30762 302.489 3.24413 302.18 3.19535L301.953 3.1641L301.734 3.12504C301.389 3.07064 301.041 3.01961 300.695 2.96879L300.469 2.93754L300.242 2.89848C299.982 2.86026 299.72 2.86526 299.461 2.89848L299.242 2.92191L299.016 2.95316C298.56 3.0116 298.101 2.99302 297.648 2.90629L297.422 2.86723L297.195 2.82035C296.959 2.77557 296.726 2.77681 296.492 2.81254L296.039 2.87504C295.704 2.92651 295.366 2.98728 295.031 3.05473L294.812 3.1016L294.586 3.14848C294.152 3.23589 293.712 3.2624 293.273 3.23441L293.047 3.2266L292.82 3.21098C292.376 3.18232 291.937 3.08841 291.508 2.93754L291.055 2.78129C290.895 2.72518 290.756 2.71709 290.609 2.75785L290.156 2.88285C289.626 3.03159 289.083 3.02884 288.555 2.87504L288.336 2.81254L288.109 2.75004C287.889 2.68586 287.676 2.66752 287.469 2.69535L287.242 2.7266L287.023 2.75785C286.627 2.81108 286.226 2.83267 285.828 2.82816L285.602 2.82816L285.375 2.82035C285.016 2.81616 284.656 2.81122 284.297 2.79691L283.844 2.78129C283.57 2.77063 283.293 2.78522 283.016 2.83597L282.789 2.88285L282.57 2.92191C282.164 2.99622 281.753 3.02953 281.344 3.03129L281.117 3.0391L280.891 3.0391C280.532 3.0405 280.171 3.03129 279.812 3.02347L279.594 3.02347L279.367 3.01566C278.929 3.00609 278.491 2.94227 278.062 2.82035L277.836 2.75785L277.617 2.68754C277.358 2.61372 277.1 2.58196 276.852 2.58597L276.625 2.59379L276.406 2.59379C276.228 2.59666 276.027 2.64722 275.797 2.76566L275.57 2.87504L275.344 2.99222C274.751 3.29722 274.1 3.35066 273.469 3.1016L273.242 3.00785L273.023 2.92191C272.868 2.86053 272.734 2.85385 272.602 2.89066L272.383 2.95316L272.156 3.01566C271.596 3.17092 271.026 3.14052 270.484 2.93754L270.258 2.85941L270.039 2.77347C269.839 2.69845 269.657 2.67778 269.484 2.70316L269.258 2.74222L269.031 2.77347C268.577 2.84048 268.117 2.83623 267.664 2.75785L267.445 2.71879L267.219 2.67972C267.067 2.65341 266.906 2.6659 266.719 2.74222L266.492 2.83597L266.266 2.92191C265.807 3.10978 265.332 3.21586 264.844 3.21879L264.391 3.21879C263.979 3.22102 263.565 3.18354 263.156 3.10941L262.937 3.07035L262.711 3.03129C262.339 2.96383 261.965 2.88373 261.594 2.7891L261.367 2.7266L261.141 2.67191C260.915 2.61436 260.694 2.60157 260.477 2.63285L260.258 2.6641L260.031 2.70316C259.769 2.74099 259.497 2.80889 259.219 2.92191L258.766 3.10941C258.245 3.32171 257.695 3.38489 257.141 3.27347L256.687 3.17972C256.409 3.12376 256.133 3.10338 255.859 3.10941L255.633 3.10941L255.406 3.11722C255.114 3.12384 254.819 3.15473 254.523 3.21097L254.297 3.25004L254.07 3.29691C253.612 3.38365 253.148 3.38891 252.687 3.32035L252.469 3.2891L252.242 3.25785C251.935 3.21216 251.626 3.18448 251.32 3.17972L251.094 3.17972L249.781 3.13285L249.555 3.12504L249.328 3.10941C248.97 3.08916 248.608 3.06138 248.25 3.03129L248.031 3.01566L247.805 3.00004C247.417 2.96747 247.027 2.91235 246.641 2.83597L246.422 2.7891L246.195 2.74222C246.1 2.72326 245.982 2.72931 245.812 2.82035L245.586 2.94535L245.359 3.06254C244.786 3.37134 244.149 3.45063 243.516 3.23441L243.062 3.07816C242.732 2.96482 242.4 2.86521 242.07 2.77347L241.617 2.64847C241.438 2.59898 241.271 2.59475 241.094 2.64066L240.867 2.70316L240.641 2.75785C240.256 2.85861 239.871 2.93597 239.484 2.99222L239.258 3.03129L239.031 3.06254C238.616 3.12279 238.198 3.14031 237.781 3.11722L237.555 3.1016L237.328 3.09379C237.079 3.08038 236.827 3.10215 236.57 3.1641L236.344 3.21879L236.125 3.27347C235.702 3.37556 235.273 3.42726 234.844 3.42972L234.391 3.42972C233.94 3.43201 233.493 3.37165 233.055 3.24222L232.828 3.17191L232.602 3.10941C232.313 3.02428 232.031 2.96228 231.75 2.93753L231.523 2.92191L231.297 2.89847C230.987 2.87127 230.677 2.86587 230.367 2.87503L229.914 2.89066C229.662 2.8984 229.405 2.94001 229.141 3.02347L228.687 3.1641C228.22 3.31166 227.742 3.36795 227.258 3.32816L226.805 3.29691C226.326 3.25713 225.86 3.12287 225.414 2.9141L225.187 2.80472L224.961 2.70316C224.756 2.60787 224.585 2.57943 224.43 2.59378L223.977 2.64066C223.705 2.66606 223.43 2.72059 223.148 2.81253L222.922 2.88285L222.695 2.96097C222.205 3.12096 221.696 3.16937 221.187 3.09378L220.969 3.06253L220.742 3.02347C220.501 2.98759 220.259 2.99548 220.016 3.0391L219.562 3.11722C219.089 3.20221 218.613 3.19728 218.141 3.1016L217.687 3.00785C217.37 2.9432 217.051 2.89962 216.734 2.86722L216.508 2.84378L216.289 2.82035C216.012 2.79196 215.731 2.78814 215.453 2.82035L215.227 2.8516L215 2.87503C214.631 2.91785 214.26 2.94803 213.891 2.96878L213.672 2.98441L213.445 3.00003C213.034 3.02316 212.621 3.00578 212.211 2.95316L211.984 2.92191L211.758 2.89847C211.596 2.87798 211.425 2.89423 211.227 2.9766L210.773 3.1641C210.281 3.36975 209.764 3.45453 209.234 3.39847L208.781 3.3516C208.401 3.31088 208.02 3.25611 207.641 3.17972L207.187 3.08597C206.94 3.03629 206.697 3.02675 206.453 3.05472L206.227 3.07816L206 3.10941C205.652 3.14959 205.301 3.18535 204.953 3.2266L204.727 3.25785L204.508 3.28128C204.016 3.33951 203.523 3.2923 203.047 3.14847L202.82 3.07816L202.602 3.01566C202.406 2.9565 202.216 2.94719 202.031 2.98441L201.812 3.03128L201.586 3.07816C201.139 3.16842 200.686 3.18675 200.234 3.14066L200.008 3.11722L199.789 3.09378C199.472 3.06144 199.152 3.04801 198.836 3.04691L198.383 3.04691C197.944 3.04537 197.508 2.98209 197.078 2.86722L196.852 2.80472L196.633 2.75003C196.352 2.67487 196.071 2.62882 195.797 2.61722L195.344 2.6016C195.04 2.58893 194.734 2.59598 194.43 2.62503L194.211 2.64847L193.984 2.6641C193.658 2.69527 193.327 2.74223 193 2.79691L192.773 2.83597L192.555 2.87503C192.176 2.93837 191.794 2.97977 191.414 3.00785L190.961 3.0391C190.534 3.07052 190.104 3.05861 189.68 2.99222L189.461 2.95316L189.234 2.92191C189.061 2.8948 188.879 2.90352 188.68 2.9766L188.453 3.06253L188.234 3.14847C187.786 3.31306 187.321 3.40077 186.852 3.40628L186.398 3.40628C185.956 3.4111 185.512 3.35676 185.078 3.24222L184.859 3.18753L184.633 3.12503C184.46 3.07933 184.294 3.08162 184.117 3.13285L183.891 3.19535L183.664 3.26566C183.137 3.41809 182.599 3.42043 182.07 3.27347L181.617 3.14847C181.282 3.05496 180.944 2.9677 180.609 2.89066L180.391 2.83597L180.164 2.7891C180.002 2.75188 179.843 2.75883 179.664 2.82035L179.437 2.89847L179.211 2.96878C178.608 3.17645 177.994 3.13816 177.422 2.87503L177.195 2.77347L176.969 2.6641C176.782 2.57773 176.63 2.5645 176.492 2.58597L176.266 2.61722L176.039 2.65628C175.657 2.71591 175.274 2.76032 174.891 2.78128L174.664 2.78909L174.445 2.80472C174.058 2.8259 173.668 2.81956 173.281 2.79691L173.055 2.78909L172.828 2.77347C172.49 2.75357 172.151 2.73627 171.812 2.72659L171.586 2.71878L171.359 2.71878C171.08 2.71081 170.799 2.73124 170.516 2.78128L170.062 2.85941C169.696 2.92444 169.327 2.97691 168.961 3.02347L168.734 3.05472L168.516 3.08597C168.084 3.14074 167.65 3.13871 167.219 3.08597L166.992 3.06253L166.766 3.03128C166.549 3.00468 166.329 3.02326 166.102 3.08597L165.875 3.14847L165.656 3.20316C165.218 3.32385 164.769 3.38223 164.32 3.37503L163.875 3.37503C163.402 3.36745 162.935 3.27095 162.484 3.10159L162.031 2.92972C161.804 2.84473 161.592 2.81717 161.391 2.82816L161.164 2.83597L160.945 2.85159C160.619 2.86944 160.288 2.8968 159.961 2.93753L159.734 2.96878L159.508 2.99222C159.154 3.03631 158.8 3.07961 158.445 3.11722L157.992 3.16409C157.464 3.2201 156.945 3.13353 156.453 2.92972L156.227 2.83597L156.008 2.75003C155.934 2.71947 155.881 2.70891 155.781 2.75784L155.555 2.87503L155.328 2.98441C154.857 3.21718 154.356 3.35138 153.836 3.35159L153.391 3.35159C152.987 3.35176 152.581 3.31387 152.18 3.25003L151.953 3.21878L151.727 3.17972C151.399 3.12767 151.069 3.08543 150.742 3.05472L150.516 3.03128L150.297 3.01566C149.954 2.98351 149.608 2.95558 149.266 2.92972L149.039 2.90628L148.812 2.89066C148.52 2.86857 148.223 2.87015 147.93 2.89847L147.711 2.92191L147.484 2.94534C147.196 2.97322 146.904 3.02702 146.609 3.10941L146.156 3.23441C145.699 3.36253 145.235 3.41688 144.766 3.38284L144.312 3.35159C143.977 3.32714 143.641 3.30777 143.305 3.29691L142.852 3.28128C142.39 3.26596 141.935 3.17003 141.492 3.00784L141.266 2.92972L141.047 2.84378C140.944 2.80593 140.855 2.80715 140.734 2.85941L140.508 2.95316L140.281 3.05472C139.731 3.29219 139.145 3.3398 138.562 3.17191L138.336 3.10941L138.109 3.03909C137.904 2.9795 137.71 2.97349 137.516 3.00784L137.062 3.08597C136.673 3.15556 136.282 3.19818 135.891 3.21878L135.664 3.23441L135.437 3.24222C134.984 3.26582 134.53 3.22323 134.086 3.10941L133.867 3.05472L133.641 2.99222C133.499 2.95587 133.359 2.96217 133.195 3.02347L132.742 3.19534C132.199 3.40121 131.632 3.4305 131.07 3.27347L130.617 3.14847C130.45 3.10161 130.294 3.10632 130.125 3.15628L129.898 3.21878L129.672 3.28909C129.008 3.48607 128.362 3.3509 127.805 3.00003L127.352 2.71878C127.179 2.61008 127.084 2.60552 127.023 2.61722L126.797 2.66409L126.578 2.71097C126.144 2.79422 125.704 2.82035 125.266 2.78909L125.039 2.77347L124.812 2.75003C124.505 2.72826 124.198 2.72708 123.891 2.74222L123.664 2.75784L123.437 2.76566C123.212 2.77687 122.971 2.83221 122.719 2.93753L122.5 3.03128L122.273 3.12503C121.605 3.40421 120.919 3.32001 120.32 2.96097L120.102 2.82816L119.875 2.69534C119.831 2.66889 119.804 2.65777 119.797 2.65628C119.794 2.6569 119.779 2.66212 119.758 2.67191L119.531 2.77347L119.312 2.88284C118.853 3.09684 118.365 3.21781 117.867 3.2344L117.648 3.24222L117.422 3.25003C117.092 3.26102 116.76 3.28143 116.43 3.31253L116.203 3.33597L115.984 3.3594C115.473 3.40758 114.967 3.33071 114.484 3.14847L114.031 2.97659C113.81 2.89348 113.608 2.86826 113.414 2.88284L112.961 2.91409C112.68 2.93557 112.397 2.99031 112.109 3.07034L111.656 3.19534C111.116 3.34596 110.565 3.32749 110.031 3.15628L109.578 3.01565C109.276 2.91884 108.977 2.84496 108.68 2.7969L108.453 2.75784L108.227 2.72659C107.981 2.68705 107.737 2.68042 107.492 2.71878L107.266 2.75784L107.039 2.78909C106.56 2.86379 106.082 2.8465 105.609 2.7344L105.156 2.62503C104.91 2.56638 104.668 2.54953 104.43 2.57034L104.203 2.59378L103.977 2.6094C103.782 2.62671 103.565 2.69449 103.32 2.82815L102.867 3.07815C102.305 3.38532 101.678 3.47324 101.047 3.28128L100.82 3.21097L100.594 3.14847C100.26 3.04694 99.927 2.95212 99.5937 2.86722L99.3672 2.80472L99.1406 2.75003C98.8659 2.68009 98.5953 2.643 98.3281 2.64065L97.875 2.64065C97.568 2.6381 97.2609 2.65251 96.9531 2.68753L96.7266 2.71097L96.5 2.74222C96.1484 2.78233 95.7969 2.82145 95.4453 2.8594L94.9922 2.90628C94.5812 2.95049 94.1692 2.95604 93.7578 2.9219L93.5312 2.89847L93.3047 2.88284C93.1182 2.86725 92.9204 2.89154 92.7031 2.97659L92.4766 3.07034L92.25 3.15628C91.782 3.33952 91.2936 3.42522 90.7969 3.40628L90.5703 3.39847L90.3516 3.39065C89.8841 3.37283 89.4219 3.27296 88.9766 3.10159L88.75 3.01565L88.5312 2.92972C88.2633 2.82661 88 2.77134 87.75 2.75003L87.5234 2.72659L87.3047 2.71097C87.0006 2.68504 86.6944 2.67968 86.3906 2.69534L86.1641 2.70315L85.9375 2.71878C85.5468 2.73894 85.1561 2.73217 84.7656 2.70315L84.3125 2.6719C84.1367 2.65882 83.9491 2.68913 83.7344 2.78128L83.2812 2.96878C82.8268 3.1641 82.3523 3.28091 81.8672 3.2969L81.6484 3.30472L81.4219 3.31253C81.027 3.32555 80.6286 3.30561 80.2344 3.26565L80.0078 3.25003L79.7891 3.22659C79.5166 3.19898 79.2419 3.19946 78.9687 3.2344L78.5156 3.2969C78.0925 3.35147 77.6662 3.35236 77.2422 3.31253L77.0156 3.2969L76.7969 3.27347C76.3864 3.2349 75.9751 3.1594 75.5703 3.0469L75.1172 2.9219C74.991 2.88712 74.8707 2.89171 74.7187 2.95315L74.4922 3.03909L74.2656 3.13284C73.8058 3.3204 73.325 3.42127 72.8359 3.4219L72.3906 3.4219C71.9217 3.42251 71.4577 3.34436 71.0078 3.18753L70.5547 3.03128C70.4367 2.99057 70.3328 2.98759 70.2031 3.03909L69.9844 3.13284L69.7578 3.21878C69.0995 3.48031 68.4284 3.39821 67.8359 3.05472L67.6094 2.92972L67.3828 2.7969C67.3675 2.78818 67.359 2.77646 67.3516 2.77347C67.3454 2.77566 67.3367 2.7879 67.3203 2.7969L67.0937 2.91409L66.8672 3.03909C66.3467 3.32517 65.7709 3.45121 65.1719 3.35159L64.9453 3.31253L64.7266 3.28128C64.3889 3.22512 64.0484 3.16834 63.7109 3.12503L63.4844 3.10159L63.2578 3.07034C62.8466 3.01743 62.4355 2.92539 62.0312 2.7969L61.8125 2.72659L61.5859 2.65628C61.3504 2.58143 61.1246 2.55513 60.9062 2.57034L60.4531 2.60159C60.1412 2.62346 59.8289 2.66302 59.5156 2.71878L59.0625 2.7969C58.6526 2.86996 58.2409 2.90281 57.8281 2.89846L57.375 2.89846C57.0662 2.89519 56.7548 2.91095 56.4453 2.94534L56.2187 2.96878L56 2.99221C55.6931 3.02632 55.3801 3.08122 55.0703 3.15628L54.8516 3.21096L54.625 3.26565C54.0411 3.40714 53.4607 3.33331 52.9219 3.08596L52.4687 2.88284C52.4171 2.85911 52.392 2.85921 52.3828 2.8594C52.373 2.85962 52.3455 2.86269 52.2891 2.89065L51.8359 3.1094C51.2426 3.40671 50.5946 3.45247 49.9687 3.20315L49.7422 3.1094L49.5156 3.02346C49.2526 2.91823 48.9997 2.85479 48.7578 2.83596L48.5312 2.82034L48.3125 2.80471C48.0086 2.78107 47.7022 2.77866 47.3984 2.7969L47.1719 2.81253L46.9453 2.82034C46.6209 2.83992 46.2937 2.87009 45.9687 2.91409L45.75 2.94534L45.5234 2.97659C45.2211 3.01753 44.9157 3.08567 44.6094 3.1719L44.1562 3.2969C43.5569 3.4651 42.9581 3.39722 42.4062 3.13284L41.9531 2.91409C41.7667 2.82474 41.616 2.80807 41.4844 2.82815L41.2656 2.86721L41.0391 2.89846C40.5327 2.97569 40.0289 2.9281 39.5391 2.77346L39.0859 2.63284C38.9902 2.60259 38.8993 2.60208 38.7656 2.66409L38.5391 2.77346L38.3125 2.87503C37.7725 3.12866 37.1897 3.2059 36.6016 3.06253L36.1484 2.95315C35.8346 2.87645 35.5226 2.8138 35.2109 2.77346L34.9844 2.75003L34.7578 2.71878C34.4551 2.6797 34.1532 2.66071 33.8516 2.66409L33.625 2.66409L33.3984 2.6719C33.0166 2.67632 32.6315 2.65714 32.25 2.62503L32.0312 2.6094L31.8047 2.59378C31.5461 2.572 31.2858 2.58365 31.0234 2.63284L30.7969 2.6719L30.5703 2.71878C30.1028 2.80638 29.6322 2.80245 29.1641 2.71878L28.7109 2.64065C28.6005 2.62082 28.4719 2.62967 28.2969 2.71878L27.8437 2.95315C27.3639 3.19939 26.8493 3.33434 26.3125 3.32034L25.8594 3.30471C25.4868 3.2947 25.1144 3.27117 24.7422 3.2344L24.2891 3.18753C24.0438 3.16324 23.7975 3.18117 23.5469 3.2344L23.0937 3.32815C22.544 3.44489 21.998 3.39061 21.4766 3.18753L21.0234 3.01565C20.8694 2.95555 20.7419 2.94812 20.6094 2.9844L20.1562 3.1094C19.5624 3.27524 18.9655 3.21639 18.4141 2.96096L18.1953 2.8594L17.9687 2.75003C17.7496 2.6485 17.5568 2.61737 17.3828 2.62503L16.9297 2.64065C16.6257 2.65435 16.3216 2.69539 16.0156 2.75003L15.5625 2.82815C15.2716 2.88022 14.9781 2.96224 14.6797 3.07034L14.4531 3.14846L14.2266 3.2344C13.7322 3.41311 13.2148 3.47152 12.6953 3.39846L12.4766 3.36721L12.25 3.33596C11.8075 3.27373 11.3695 3.14847 10.9453 2.96878L10.7187 2.87503L10.5 2.78128C10.4039 2.74056 10.3341 2.73779 10.2344 2.78128L10.0156 2.87503L9.78906 2.97659C9.26331 3.20573 8.69926 3.27343 8.13281 3.15628L7.90625 3.1094L7.6875 3.06253C7.31082 2.98462 6.92982 2.89081 6.55469 2.78128L6.32812 2.71878L6.10937 2.65628C5.97438 2.61686 5.84849 2.61687 5.70312 2.6719L5.25 2.84378C4.85535 2.99476 4.44908 3.1146 4.03125 3.20315L3.78906 3.25784L3.55469 3.30471L3.54687 3.31252L3.46094 3.53909L3.38281 3.77346C3.27745 4.07035 3.20761 4.35322 3.17187 4.61721L3.14062 4.82815L3.10937 5.0469C3.05923 5.41729 2.99298 5.79436 2.90625 6.1719L2.85156 6.39846L2.80469 6.62502C2.75974 6.82078 2.76323 7.01315 2.8125 7.21096L2.86719 7.42971L2.92187 7.65627C3.05753 8.20091 3.02858 8.75277 2.84375 9.28127L2.76562 9.50784L2.6875 9.72659C2.61063 9.94638 2.58183 10.1547 2.60156 10.3516L2.625 10.5781L2.64844 10.7969C2.67032 11.0153 2.73497 11.2542 2.85937 11.5078L2.97656 11.7344L3.08594 11.961C3.32224 12.4425 3.44331 12.9585 3.42187 13.4922L3.41406 13.7188L3.40625 13.9375C3.3875 14.4044 3.28598 14.8712 3.11719 15.3281L3.02344 15.5703L2.9375 15.8125C2.91488 15.8746 2.91287 15.9079 2.91406 15.9219C2.91523 15.9354 2.92286 15.9642 2.95312 16.0156L3.07812 16.2344L3.21094 16.4531C3.30755 16.6153 3.43036 16.7209 3.59375 16.7969L3.82031 16.9063L4.04687 17.0078C4.19926 17.0783 4.32426 17.0872 4.46094 17.0547L4.92969 16.9453C5.34309 16.846 5.7564 16.7788 6.16406 16.75L6.61719 16.7188C7.09818 16.6851 7.57514 16.7436 8.03906 16.8907L8.26562 16.9688L8.49219 17.0391C8.79659 17.1356 9.09877 17.2079 9.39844 17.2578L9.85156 17.336C10.1131 17.3793 10.3734 17.3869 10.6328 17.3594L10.8594 17.3282L11.0859 17.3047C11.4465 17.2666 11.8112 17.2361 12.1719 17.211L12.3906 17.1953L12.6172 17.1797C13.0021 17.1529 13.3883 17.1503 13.7734 17.1641L14.2266 17.1797C14.6071 17.1934 14.9875 17.2228 15.3672 17.2735L15.8203 17.336C16.0121 17.3615 16.2099 17.3444 16.4219 17.2735L16.6484 17.1953L16.8672 17.125C17.2545 16.9954 17.6477 16.8913 18.0391 16.8125L18.4922 16.7188C18.9643 16.624 19.4405 16.6176 19.9141 16.7032L20.1406 16.7422L20.3672 16.7891C20.7083 16.8509 21.0496 16.9071 21.3906 16.961L21.6172 16.9922L21.8437 17.0313C22.0836 17.0691 22.3216 17.0661 22.5625 17.0235L23.0156 16.9453C23.4687 16.8653 23.928 16.8568 24.3828 16.9219L24.6016 16.9532L24.8281 16.9844C25.0969 17.0229 25.3652 17.0282 25.6328 17L26.0859 16.9532C26.4427 16.9156 26.7994 16.8799 27.1562 16.8516L27.6094 16.8203C28.0649 16.7843 28.5206 16.8165 28.9687 16.9219L29.1953 16.9766L29.4141 17.0313C29.6074 17.0768 29.797 17.0727 29.9922 17.0235L30.4453 16.9141C30.8614 16.8092 31.2806 16.7487 31.7031 16.7344L32.1562 16.7188C32.4808 16.7078 32.8078 16.6835 33.1328 16.6485L33.3594 16.625L33.5781 16.6016C33.9925 16.557 34.4134 16.5498 34.8281 16.586L35.0469 16.6094L35.2734 16.625C35.7115 16.6633 36.1457 16.7567 36.5703 16.9063L36.7969 16.9922L37.0234 17.0703C37.1998 17.1318 37.3575 17.1377 37.5156 17.1016L37.7422 17.0469L37.9609 17C38.3128 16.9196 38.6715 16.8361 39.0234 16.7578L39.2422 16.711L39.4687 16.6641C40.0601 16.5326 40.6448 16.6129 41.1797 16.875L41.4062 16.9922L41.625 17.1016C41.8132 17.1938 41.9632 17.2062 42.0937 17.1875L42.5469 17.125C42.9724 17.0638 43.4011 17.0479 43.8281 17.086L44.0547 17.1094L44.2734 17.1328C44.6558 17.1669 45.0408 17.2178 45.4219 17.2891L45.6484 17.3282L45.875 17.375C45.9428 17.387 46.0428 17.3841 46.2109 17.2813L46.6641 17C47.1482 16.7021 47.6848 16.5268 48.2578 16.5391L48.7109 16.5547C49.1017 16.5635 49.4933 16.5918 49.8828 16.6485L50.1094 16.6797L50.3281 16.711C50.5686 16.7459 50.812 16.7484 51.0547 16.7032L51.2812 16.6563L51.5078 16.6172C52.0071 16.5246 52.5089 16.5469 53 16.6797L53.2266 16.7422L53.4453 16.7969C53.8109 16.8957 54.182 17.0074 54.5469 17.125L54.7656 17.1953L54.9922 17.2657C55.2464 17.3476 55.4957 17.392 55.7344 17.3907L55.9531 17.3828L56.1797 17.3828C56.3593 17.3818 56.561 17.3394 56.7891 17.2266L57.0156 17.1094L57.2422 17C57.8173 16.7142 58.4444 16.6609 59.0625 16.875L59.5156 17.0313C59.8204 17.1373 60.1227 17.2166 60.4219 17.2735L60.6484 17.3203L60.875 17.3594C61.1671 17.4148 61.461 17.4428 61.75 17.4453L61.9687 17.4453L62.1953 17.4532C62.4482 17.4553 62.7055 17.4171 62.9687 17.3438L63.4219 17.2188C63.9238 17.0794 64.4361 17.0635 64.9453 17.1719L65.3984 17.2657C65.5369 17.2947 65.6782 17.2832 65.8516 17.211L66.3047 17.0235C66.901 16.7758 67.5295 16.7816 68.125 17.0313L68.5781 17.2188C68.7711 17.299 68.9383 17.3199 69.0937 17.2969L69.3125 17.2578L69.5391 17.2266C69.9348 17.1681 70.3372 17.1355 70.7344 17.1328L71.1797 17.1328C71.4934 17.1307 71.8105 17.1144 72.125 17.0782L72.3516 17.0469L72.5703 17.0235C72.9339 16.9816 73.3003 16.9477 73.6641 16.9219L74.1172 16.8907C74.6019 16.8564 75.0806 16.9184 75.5469 17.0703L75.7734 17.1407L76 17.2188C76.2216 17.2906 76.4299 17.3105 76.6328 17.2891L77.0859 17.2422C77.5325 17.1954 77.9787 17.2134 78.4219 17.2969L78.6484 17.336L78.875 17.3828C78.9941 17.4049 79.1299 17.3973 79.3047 17.3125L79.5234 17.2032L79.75 17.0938C80.3662 16.795 81.0315 16.7827 81.6562 17.0703L82.1094 17.2735C82.1938 17.312 82.2387 17.3176 82.3203 17.2813L82.5469 17.1797L82.7734 17.0703C83.3847 16.793 84.0363 16.7943 84.6484 17.0703L85.1016 17.2735C85.3311 17.3768 85.5362 17.4158 85.7266 17.4141L86.1797 17.4141C86.3712 17.4119 86.5799 17.3666 86.8125 17.2578L87.0391 17.1485L87.2656 17.0469C87.8446 16.7761 88.469 16.7336 89.0781 16.9532L89.3047 17.0313L89.5234 17.1172C89.7812 17.2101 90.0343 17.2578 90.2734 17.2657L90.4922 17.2735L90.7187 17.2813C90.9723 17.2896 91.2305 17.2606 91.4922 17.1953L91.7187 17.1407L91.9453 17.0782C92.4443 16.9535 92.9512 16.9514 93.4531 17.0625L93.9062 17.1563C94.2176 17.2251 94.5268 17.282 94.8359 17.3125L95.0625 17.3282L95.2891 17.3516C95.5832 17.3805 95.8781 17.387 96.1719 17.3672L96.3984 17.3516L96.6172 17.336C97.024 17.3086 97.4375 17.3174 97.8437 17.3594L98.0625 17.3828L98.2891 17.4063C98.4802 17.426 98.6819 17.3989 98.8984 17.3203L99.125 17.2422L99.3437 17.1641C99.7905 17.0019 100.252 16.9069 100.719 16.8985L100.945 16.8985L101.172 16.8907C101.59 16.8833 102.007 16.9217 102.422 17L102.648 17.0391L102.875 17.086C103.031 17.1151 103.191 17.1025 103.375 17.0313L103.828 16.8594C104.381 16.6455 104.961 16.6156 105.531 16.7891L105.758 16.8594L105.977 16.9297C106.215 17.0023 106.449 17.0234 106.672 17.0078L106.891 16.9922L107.117 16.9766C107.528 16.9479 107.942 16.9538 108.352 17L108.578 17.0313L108.797 17.0547C109.157 17.0953 109.522 17.1431 109.883 17.1953L110.109 17.2266L110.328 17.2578C110.604 17.2979 110.882 17.3116 111.156 17.2891L111.383 17.2657L111.609 17.25C111.987 17.2192 112.364 17.2012 112.742 17.2032L112.969 17.2032L113.195 17.211C113.457 17.2121 113.723 17.1775 113.992 17.1094L114.219 17.0547L114.445 16.9922C114.917 16.8735 115.396 16.847 115.875 16.9141L116.328 16.9766C116.546 17.0069 116.766 16.9954 116.992 16.9375L117.211 16.8828L117.437 16.8203C117.921 16.6965 118.415 16.6812 118.906 16.7657L119.359 16.8438C119.634 16.8908 119.908 16.8991 120.18 16.8828L120.406 16.875L120.625 16.8594C121.051 16.8339 121.483 16.8586 121.906 16.9297L122.125 16.9688L122.352 17C122.629 17.0466 122.905 17.0618 123.18 17.0469L123.406 17.0391L123.633 17.0235C124.042 17.001 124.451 17.0194 124.859 17.0703L125.086 17.0938L125.312 17.125C125.551 17.1548 125.789 17.1449 126.031 17.0938L126.484 17C126.929 16.9066 127.378 16.8806 127.828 16.9219L128.055 16.9375L128.281 16.961C128.633 16.9933 128.984 17.027 129.336 17.0625L129.789 17.1094C130.172 17.1481 130.556 17.2047 130.937 17.2813L131.156 17.3282L131.383 17.375C131.563 17.4112 131.744 17.3969 131.937 17.336L132.391 17.1953C132.843 17.0537 133.306 16.9913 133.773 17.0078L134.227 17.0235C134.478 17.032 134.732 17.0021 134.992 16.9375L135.445 16.8282C135.911 16.712 136.386 16.6773 136.859 16.7344L137.086 16.7657L137.305 16.7891C137.65 16.8307 137.999 16.8699 138.344 16.9063L138.57 16.9297L138.789 16.9532C139.17 16.9933 139.558 17.0567 139.937 17.1328L140.156 17.1719L140.383 17.2188C140.546 17.2516 140.713 17.2453 140.898 17.1797L141.125 17.0938L141.352 17.0157C141.892 16.8225 142.454 16.7972 143.008 16.9532L143.461 17.0782C143.582 17.1121 143.701 17.1105 143.852 17.0469L144.07 16.9532L144.297 16.8594C144.968 16.576 145.658 16.6608 146.258 17.0235L146.477 17.1563L146.703 17.2891C146.867 17.3879 146.959 17.3889 147.023 17.375L147.25 17.3203L147.477 17.2735C147.928 17.1751 148.387 17.1474 148.844 17.1953L149.07 17.2188L149.289 17.2422C149.589 17.2737 149.896 17.2873 150.195 17.2735L150.414 17.2578L150.641 17.25C150.955 17.2355 151.27 17.2035 151.586 17.1563L152.039 17.0938C152.344 17.048 152.652 16.9796 152.961 16.8907L153.187 16.8203L153.414 16.7578C153.867 16.6277 154.331 16.5746 154.797 16.6016L155.023 16.6172L155.242 16.625C155.623 16.6471 156.011 16.6849 156.391 16.7422L156.609 16.7813L156.836 16.8125C157.102 16.8527 157.368 16.8564 157.633 16.8282L157.859 16.8047L158.078 16.7813C158.46 16.7405 158.845 16.7227 159.227 16.7188L159.453 16.711L159.68 16.711C160.143 16.7065 160.6 16.7841 161.047 16.9297L161.5 17.0703C161.603 17.1035 161.696 17.1057 161.828 17.0469L162.281 16.8438C162.796 16.6143 163.346 16.5361 163.906 16.6328L164.359 16.711C164.805 16.7885 165.241 16.9315 165.664 17.1328L165.891 17.2422L166.117 17.3438C166.333 17.4467 166.52 17.4839 166.687 17.4766L166.914 17.4688L167.141 17.4532C167.508 17.4359 167.875 17.4345 168.242 17.4375L168.695 17.4375C169.031 17.4403 169.367 17.4329 169.703 17.4219L169.93 17.4141L170.156 17.4141C170.38 17.4066 170.618 17.3506 170.867 17.25L171.086 17.1641L171.312 17.0703C171.839 16.8577 172.395 16.8059 172.953 16.9297L173.18 16.9766L173.406 17.0313C173.716 17.1001 174.028 17.1423 174.336 17.1719L174.555 17.1953L174.781 17.2188C175.083 17.2478 175.386 17.2574 175.687 17.2422L175.914 17.2266L176.141 17.2188C176.482 17.2016 176.823 17.1801 177.164 17.1563L177.617 17.125C177.968 17.1005 178.321 17.0767 178.672 17.0547L179.125 17.0235C179.51 16.9993 179.896 16.9975 180.281 17.0157L180.508 17.0313L180.734 17.0391C180.983 17.0509 181.235 17.0249 181.492 16.961L181.945 16.8516C182.504 16.712 183.067 16.7541 183.602 16.961L183.82 17.0469L184.047 17.1328C184.228 17.2031 184.386 17.2101 184.539 17.1797L184.766 17.1407L184.992 17.0938C185.445 17.0031 185.902 16.9826 186.359 17.0391L186.586 17.0703L186.812 17.0938C187.027 17.1201 187.243 17.1092 187.469 17.0469L187.922 16.9219C188.409 16.7869 188.909 16.7599 189.406 16.8438L189.625 16.875L189.852 16.9141C190.062 16.9497 190.275 16.9443 190.492 16.8907L190.945 16.7813C191.467 16.6513 191.999 16.6566 192.516 16.8047L192.734 16.8672L192.961 16.9375C193.231 17.015 193.498 17.0566 193.758 17.0625L193.984 17.0625L194.211 17.0703C194.616 17.0794 195.02 17.1198 195.422 17.1953L195.648 17.2422L195.875 17.2813C196.135 17.3299 196.392 17.3421 196.648 17.3203L196.875 17.3047L197.102 17.2813C197.363 17.2588 197.632 17.2054 197.906 17.1094L198.133 17.0235L198.359 16.9453C198.982 16.7283 199.612 16.7938 200.187 17.086L200.414 17.1953L200.641 17.3125C200.663 17.3239 200.677 17.3198 200.68 17.3203ZM262.734 18.7735C262.428 18.7726 262.12 18.789 261.812 18.8282L261.586 18.8594L261.367 18.8907C261.035 18.933 260.699 18.9859 260.367 19.0469L260.141 19.086L259.922 19.125C259.569 19.1898 259.212 19.2513 258.859 19.3125L258.406 19.3907C257.809 19.4939 257.233 19.376 256.711 19.0938L256.484 18.9766L256.266 18.8516C256.044 18.7318 255.855 18.6873 255.695 18.6875L255.469 18.6953L255.242 18.6953C254.972 18.6966 254.699 18.7301 254.422 18.7969L253.969 18.9063C253.628 18.9886 253.286 19.0734 252.945 19.1641L252.719 19.2266L252.492 19.2813C252.024 19.4055 251.548 19.4472 251.07 19.3907L250.844 19.3594L250.617 19.336C250.245 19.2917 249.872 19.2348 249.5 19.1641L249.273 19.1172L249.047 19.0782C248.822 19.0359 248.6 19.0348 248.375 19.0782L248.148 19.1172L247.93 19.1641C247.383 19.2698 246.836 19.212 246.32 19.0078L246.094 18.9141L245.867 18.8282C245.622 18.7309 245.392 18.684 245.172 18.6797L244.945 18.6719L244.719 18.6719C244.476 18.6676 244.224 18.6975 243.969 18.7735L243.75 18.8438L243.523 18.9063C243.024 19.0547 242.511 19.0825 242 18.9844L241.773 18.9453L241.547 18.8985C241.396 18.8702 241.237 18.8883 241.055 18.961L240.836 19.0469L240.609 19.1407C240.026 19.3734 239.414 19.3754 238.828 19.1485L238.602 19.0547L238.375 18.9688C238.123 18.871 237.885 18.8274 237.656 18.8203L237.203 18.8047C236.978 18.7981 236.743 18.8331 236.5 18.9141L236.281 18.9844L236.055 19.0625C235.492 19.2501 234.91 19.2445 234.352 19.0469L234.133 18.9688L233.906 18.8828C233.669 18.7988 233.443 18.7662 233.227 18.7735L232.773 18.7891C232.545 18.7973 232.306 18.8468 232.055 18.9453L231.828 19.0391L231.602 19.125C231.057 19.3387 230.481 19.3781 229.914 19.2188L229.695 19.1485L229.469 19.086C229.195 19.0089 228.921 18.9685 228.656 18.961L228.437 18.9532L228.211 18.9532C227.831 18.9423 227.45 18.9128 227.07 18.8672L226.844 18.836L226.617 18.8125C226.338 18.779 226.06 18.7716 225.781 18.7969L225.328 18.8438C224.877 18.885 224.423 18.8527 223.977 18.7578L223.758 18.711L223.531 18.6641C223.241 18.6023 222.951 18.5692 222.664 18.5625L222.211 18.5469C222.077 18.5445 221.909 18.5845 221.695 18.711L221.469 18.8438L221.25 18.9766C220.732 19.2834 220.144 19.4305 219.531 19.336L219.312 19.2969L219.086 19.2657C218.737 19.2118 218.388 19.1553 218.039 19.1016L217.812 19.0703L217.586 19.0313C217.258 18.9808 216.929 18.942 216.602 18.9141L216.375 18.8985L216.156 18.875C215.91 18.854 215.659 18.8736 215.406 18.9297L215.18 18.9766L214.953 19.0313C214.413 19.1512 213.872 19.1075 213.352 18.9219L212.898 18.7657C212.667 18.6833 212.451 18.6528 212.242 18.6641L212.016 18.6719L211.789 18.6875C211.406 18.7082 211.023 18.7067 210.641 18.6875L210.414 18.6797L210.187 18.6641C209.936 18.6514 209.681 18.6794 209.422 18.7422L209.195 18.7969L208.977 18.8516C208.519 18.9627 208.052 18.9936 207.586 18.9453L207.133 18.8985C206.815 18.8655 206.497 18.846 206.18 18.8438L205.734 18.8438C205.384 18.8414 205.03 18.8397 204.68 18.836L204.453 18.8282L204.227 18.8282C203.827 18.8239 203.429 18.7895 203.031 18.7266L202.805 18.6953L202.578 18.6563C202.491 18.6431 202.374 18.6523 202.195 18.7578L201.742 19.0235C201.111 19.3944 200.4 19.4323 199.734 19.0938L199.508 18.9844L199.281 18.8672C199.16 18.806 199.091 18.8095 199.016 18.836L198.797 18.9141L198.57 18.9922C198.146 19.1409 197.711 19.2358 197.273 19.2735L197.047 19.2969L196.82 19.3125C196.38 19.3502 195.937 19.3321 195.5 19.25L195.281 19.2032L195.055 19.1641C194.757 19.1082 194.459 19.0769 194.164 19.0703L193.937 19.0625L193.719 19.0547C193.28 19.045 192.842 18.982 192.414 18.8594L192.187 18.7969L191.961 18.7266C191.779 18.6746 191.607 18.6746 191.43 18.7188L190.977 18.8282C190.497 18.9474 190.01 18.9723 189.523 18.8907L189.07 18.8125C188.868 18.7786 188.665 18.785 188.453 18.8438L188.227 18.9063L188.008 18.9688C187.535 19.0999 187.047 19.1382 186.562 19.0782L186.336 19.0547L186.117 19.0235C185.875 18.9935 185.629 19.0054 185.383 19.0547L185.156 19.1016L184.937 19.1407C184.392 19.2499 183.845 19.1999 183.328 19L183.102 18.9141L182.875 18.8203C182.71 18.7569 182.57 18.7539 182.43 18.7891L181.977 18.8985C181.536 19.0083 181.09 19.0604 180.641 19.0391L180.414 19.0235L180.187 19.0157C179.875 19.0009 179.563 19.0039 179.25 19.0235L179.023 19.0391L178.797 19.0469C178.45 19.0686 178.104 19.093 177.758 19.1172L177.305 19.1485C176.949 19.1733 176.59 19.1931 176.234 19.211L176.016 19.2266L175.789 19.2344C175.391 19.2544 174.991 19.2491 174.594 19.211L174.141 19.1641C173.75 19.1264 173.357 19.063 172.969 18.9766L172.742 18.9297L172.523 18.8828C172.382 18.8513 172.235 18.86 172.062 18.9297L171.836 19.0157L171.609 19.1094C171.16 19.2904 170.694 19.3907 170.219 19.4063L169.992 19.4141L169.773 19.4219C169.41 19.4338 169.043 19.4406 168.68 19.4375L168.453 19.4375L168.227 19.4297C167.896 19.427 167.565 19.4376 167.234 19.4532L167.008 19.461L166.781 19.4766C166.252 19.5009 165.739 19.385 165.258 19.1563L164.805 18.9375C164.53 18.8073 164.267 18.7234 164.016 18.6797L163.789 18.6407L163.57 18.6016C163.432 18.5775 163.277 18.59 163.094 18.6719L162.867 18.7735L162.648 18.875C162.083 19.1276 161.471 19.1707 160.875 18.9766L160.656 18.8985L160.43 18.8282C160.178 18.746 159.931 18.7086 159.695 18.711L159.477 18.711L159.25 18.7188C158.933 18.722 158.614 18.7396 158.297 18.7735L157.844 18.8203C157.408 18.8669 156.973 18.8545 156.539 18.7891L156.086 18.7266C155.768 18.6786 155.45 18.6435 155.133 18.625L154.68 18.5938C154.447 18.5803 154.207 18.609 153.961 18.6797L153.742 18.7422L153.516 18.8125C153.125 18.9251 152.731 19.0112 152.336 19.0703L151.883 19.1328C151.5 19.1901 151.118 19.2323 150.734 19.25L150.281 19.2657C149.882 19.2839 149.484 19.276 149.086 19.2344L148.633 19.1875C148.391 19.1622 148.146 19.1725 147.898 19.2266L147.68 19.2813L147.453 19.3282C146.817 19.4671 146.208 19.3239 145.672 19L145.219 18.7344C145.163 18.7006 145.134 18.6889 145.125 18.6875L145.117 18.6875C145.113 18.6883 145.098 18.6947 145.078 18.7032L144.625 18.8907C144.076 19.1222 143.492 19.171 142.914 19.0078L142.687 18.9453L142.469 18.8828C142.323 18.8418 142.182 18.8416 142.023 18.8985L141.797 18.9766L141.578 19.0625C141.065 19.2461 140.527 19.2868 139.992 19.1797L139.766 19.1328L139.539 19.0938C139.22 19.03 138.903 18.9789 138.586 18.9453L138.133 18.8985C137.779 18.8611 137.425 18.8161 137.07 18.7735L136.844 18.75L136.617 18.7188C136.391 18.6917 136.164 18.7073 135.93 18.7657L135.703 18.8203L135.477 18.8828C135.04 18.9915 134.593 19.0392 134.148 19.0235L133.93 19.0157L133.703 19.0078C133.472 18.9997 133.231 19.0318 132.984 19.1094L132.766 19.1797L132.539 19.25C132.034 19.4088 131.511 19.4399 130.992 19.336L130.539 19.2422C130.221 19.1784 129.903 19.1336 129.586 19.1016L129.359 19.0782L129.141 19.0547C128.794 19.0196 128.441 18.9851 128.094 18.9532L127.867 18.9297L127.648 18.9141C127.4 18.8912 127.145 18.8997 126.891 18.9532L126.672 19L126.445 19.0547C125.988 19.151 125.524 19.1672 125.062 19.1094L124.836 19.0782L124.617 19.0547C124.326 19.0183 124.032 19.0075 123.742 19.0235L123.516 19.0313L123.289 19.0469C122.866 19.0699 122.444 19.0471 122.023 18.9766L121.57 18.8985C121.295 18.8524 121.022 18.8433 120.75 18.8594L120.523 18.8672L120.297 18.8828C119.869 18.9084 119.44 18.8856 119.016 18.8125L118.789 18.7735L118.57 18.7344C118.362 18.6986 118.153 18.7032 117.937 18.7578L117.711 18.8203L117.484 18.875C117.011 18.996 116.529 19.0286 116.047 18.961L115.82 18.9297L115.602 18.8985C115.382 18.8677 115.157 18.8723 114.93 18.9297L114.711 18.9922L114.484 19.0469C114.055 19.1553 113.617 19.2133 113.18 19.211L112.961 19.2032L112.734 19.2032C112.413 19.2015 112.087 19.2159 111.766 19.2422L111.547 19.2578L111.32 19.2813C110.896 19.3161 110.47 19.3033 110.047 19.2422L109.82 19.2032L109.594 19.1719C109.255 19.1228 108.917 19.0772 108.578 19.0391L108.125 18.9922C107.836 18.9596 107.547 18.9487 107.258 18.9688L107.031 18.9922L106.805 19.0078C106.329 19.0407 105.859 18.9761 105.398 18.836L105.172 18.7735L104.945 18.7032C104.816 18.6638 104.694 18.6619 104.547 18.7188L104.32 18.8125L104.102 18.8985C103.587 19.0976 103.043 19.1497 102.5 19.0469L102.273 19.0078L102.055 18.9688C101.771 18.9151 101.484 18.8856 101.203 18.8907L100.977 18.8985L100.758 18.8985C100.526 18.9026 100.283 18.948 100.031 19.0391L99.8047 19.125L99.5781 19.2032C99.0952 19.3784 98.5943 19.4508 98.0859 19.3985L97.6328 19.3516C97.3406 19.3215 97.0495 19.3165 96.7578 19.336L96.5312 19.3516L96.3047 19.3594C95.8994 19.3867 95.4908 19.3838 95.0859 19.3438L94.8672 19.3203L94.6406 19.2969C94.2503 19.2583 93.8568 19.1953 93.4687 19.1094L93.25 19.0625L93.0234 19.0157C92.8258 18.9719 92.6303 18.9733 92.4297 19.0235L91.9766 19.1328C91.5408 19.2416 91.1002 19.2958 90.6562 19.2813L90.2031 19.2657C89.744 19.2504 89.2922 19.1585 88.8516 19L88.625 18.9141L88.3984 18.836C88.3081 18.8034 88.23 18.8029 88.1094 18.8594L87.8906 18.961L87.6641 19.0703C87.1979 19.2887 86.7029 19.4091 86.1953 19.4141L85.75 19.4141C85.2412 19.4191 84.7428 19.3057 84.2734 19.0938L84.0547 18.9922L83.8281 18.8907C83.7407 18.8512 83.6898 18.8584 83.6016 18.8985L83.1484 19.1016C82.5342 19.3795 81.8776 19.3755 81.2656 19.0938L81.0469 18.9922L80.8203 18.8828C80.7693 18.8594 80.7395 18.8594 80.7266 18.8594C80.7143 18.8596 80.6819 18.8632 80.625 18.8907L80.1719 19.1094C79.6481 19.3629 79.0797 19.4532 78.5 19.3438L78.2734 19.3047L78.0547 19.2657C77.7992 19.2174 77.541 19.2 77.2891 19.2266L77.0703 19.2578L76.8437 19.2813C76.3475 19.3337 75.8524 19.2729 75.375 19.1172L75.1562 19.0469L74.9297 18.9688C74.6962 18.8926 74.4729 18.8676 74.2578 18.8828L73.8047 18.9141C73.4714 18.9377 73.1381 18.9695 72.8047 19.0078L72.5781 19.0391L72.3516 19.0625C71.9666 19.1069 71.581 19.1302 71.1953 19.1328L70.7422 19.1328C70.4409 19.1349 70.1387 19.1585 69.8359 19.2032L69.6094 19.2422L69.3828 19.2735C68.8408 19.3533 68.3088 19.2733 67.8047 19.0625L67.3516 18.875C67.248 18.8316 67.1732 18.8322 67.0703 18.875L66.8437 18.9688L66.625 19.0625C66.0993 19.2816 65.5374 19.346 64.9766 19.2266L64.7578 19.1719L64.5312 19.125C64.3415 19.0846 64.1502 19.0936 63.9531 19.1485L63.7344 19.211L63.5078 19.2735C63.0713 19.3951 62.6265 19.4569 62.1797 19.4532L61.9531 19.4453L61.7266 19.4453C61.3167 19.4417 60.9068 19.4053 60.5 19.3282L60.2734 19.2813L60.0547 19.2422C59.6549 19.1664 59.2535 19.0589 58.8594 18.9219L58.4062 18.7657C58.3263 18.7381 58.2551 18.7286 58.1328 18.7891L57.9062 18.9063L57.6797 19.0157C57.2105 19.2485 56.7133 19.3795 56.1953 19.3828L55.9687 19.3828L55.7422 19.3907C55.2818 19.3932 54.8277 19.3151 54.3828 19.1719L53.9297 19.0313C53.5953 18.9235 53.2635 18.8169 52.9297 18.7266L52.7031 18.6719L52.4766 18.6094C52.2687 18.5532 52.0669 18.5409 51.8672 18.5782L51.6484 18.625L51.4219 18.6641C50.9658 18.7491 50.5052 18.7616 50.0469 18.6953L49.8203 18.6641L49.5937 18.625C49.2838 18.58 48.9728 18.5538 48.6641 18.5469L48.4375 18.5469L48.2187 18.5391C48.093 18.5363 47.9259 18.5708 47.7109 18.7032L47.4844 18.8438L47.2656 18.9844C46.7389 19.3088 46.1317 19.4542 45.5 19.336L45.2812 19.2969L45.0547 19.25C44.7368 19.1905 44.4182 19.1534 44.1016 19.125L43.6484 19.0782C43.3763 19.0539 43.1017 19.0621 42.8281 19.1016L42.6016 19.1328L42.3828 19.1719C41.8147 19.2538 41.2604 19.1479 40.75 18.8985L40.5234 18.7813L40.2969 18.6719C40.1337 18.5923 40.014 18.5859 39.9062 18.6094L39.6797 18.6641L39.4531 18.711C39.1068 18.788 38.7604 18.8662 38.4141 18.9453L37.9609 19.0547C37.4203 19.1782 36.8735 19.1371 36.3516 18.9532L36.1328 18.875L35.9062 18.7969C35.6314 18.7 35.363 18.6401 35.1016 18.6172L34.875 18.6016L34.6484 18.5782C34.3647 18.5535 34.081 18.5555 33.7969 18.586L33.3437 18.6328C32.9697 18.6731 32.5932 18.7062 32.2187 18.7188L32 18.7188L31.7734 18.7266C31.4969 18.7359 31.2127 18.7801 30.9297 18.8516L30.7109 18.9063L30.4844 18.961C29.9804 19.0882 29.4668 19.0952 28.9609 18.9766L28.5078 18.8672C28.2568 18.8083 28.0093 18.7932 27.7656 18.8125L27.5391 18.8282L27.3203 18.8516C26.9789 18.8787 26.6306 18.9094 26.2891 18.9453L26.0703 18.9688L25.8437 18.9922C25.4118 19.0377 24.9776 19.0303 24.5469 18.9688L24.3203 18.9297L24.0937 18.8985C23.8502 18.8639 23.6046 18.8706 23.3594 18.9141L23.1406 18.9532L22.9141 18.9922C22.4552 19.0736 21.9912 19.0804 21.5312 19.0078L21.3047 18.9688L21.0781 18.9375C20.7217 18.8812 20.3642 18.8225 20.0078 18.7578L19.7812 18.711L19.5625 18.6719C19.3373 18.6311 19.1094 18.6341 18.8828 18.6797L18.6562 18.7266L18.4375 18.7735C18.1307 18.8352 17.8186 18.9118 17.5078 19.0157L17.0547 19.1719C16.567 19.3349 16.0625 19.3882 15.5547 19.3203L15.1016 19.2578C14.7846 19.2156 14.4647 19.191 14.1484 19.1797L13.9297 19.1719L13.7031 19.1641C13.3884 19.1528 13.0727 19.1578 12.7578 19.1797L12.3047 19.211C11.9675 19.2344 11.6263 19.2612 11.2891 19.2969L11.0703 19.3203L10.8437 19.3438C10.4034 19.3904 9.96162 19.3775 9.52344 19.3047L9.07031 19.2266C8.67302 19.1604 8.27534 19.07 7.88281 18.9453L7.65625 18.875L7.4375 18.7969C7.20229 18.7222 6.97591 18.6958 6.75781 18.711L6.53125 18.7344L6.30469 18.75C6.01444 18.7705 5.71155 18.8154 5.39844 18.8907L4.92969 19C4.33925 19.1417 3.75095 19.0818 3.20312 18.8281L2.97656 18.7188L2.75 18.6172C2.21388 18.3684 1.785 17.9772 1.48437 17.4688L1.35937 17.25L1.23437 17.0391C0.879573 16.4391 0.822662 15.7665 1.0625 15.1172L1.14844 14.875L1.24219 14.6406C1.34837 14.3537 1.39693 14.0915 1.40625 13.8594L1.42187 13.4063C1.42783 13.2423 1.39461 13.0591 1.28906 12.8438L1.07031 12.3906C0.851303 11.9452 0.704452 11.481 0.65625 11L0.640625 10.7735L0.617187 10.5469C0.567274 10.0448 0.62927 9.54964 0.796875 9.07034L0.953125 8.61721C1.01233 8.44668 1.01509 8.29531 0.976562 8.14065L0.921875 7.91409L0.867187 7.69534C0.742454 7.19457 0.736582 6.68256 0.851562 6.17971L0.960937 5.72659C1.03486 5.40499 1.09115 5.08904 1.13281 4.78127L1.16406 4.56252L1.1875 4.34377C1.24365 3.92972 1.35287 3.51566 1.5 3.10159L1.57812 2.87502L1.65625 2.64065C1.89947 1.95769 2.43115 1.50167 3.14063 1.35159L3.375 1.2969L3.61719 1.25002C3.93556 1.18256 4.24279 1.09009 4.53906 0.976587L4.75781 0.89065L4.98438 0.804712C5.53017 0.595689 6.10112 0.570692 6.66406 0.7344L6.89063 0.7969L7.11719 0.867213C7.44084 0.961705 7.76382 1.04269 8.08594 1.1094L8.53906 1.20315C8.67208 1.23066 8.8111 1.21576 8.98438 1.14065L9.21094 1.0469L9.4375 0.945338C10.0368 0.68424 10.6704 0.682915 11.2734 0.937525L11.7266 1.12503C12.0012 1.24136 12.267 1.31521 12.5234 1.35159L12.9766 1.41409C13.1562 1.43935 13.342 1.42581 13.5469 1.35159L13.7734 1.26565L14 1.18753C14.3999 1.04279 14.8035 0.93229 15.2109 0.8594L15.6641 0.781275C16.0561 0.711276 16.4498 0.666094 16.8438 0.648463L17.0703 0.632838L17.2891 0.625026C17.814 0.601532 18.3249 0.715702 18.8047 0.937526L19.0313 1.03909L19.2578 1.14846C19.4052 1.21652 19.5117 1.21674 19.6172 1.18753L20.0703 1.06253C20.6354 0.905085 21.2065 0.936747 21.75 1.14846L21.9766 1.24221L22.2031 1.32815C22.3796 1.3965 22.5312 1.40663 22.6797 1.37503L22.9063 1.32815L23.1328 1.27346C23.58 1.17873 24.0319 1.15848 24.4844 1.20315L24.7109 1.22659L24.9375 1.24221C25.2633 1.27443 25.5886 1.29599 25.9141 1.30471L26.3672 1.32034C26.5287 1.32412 26.7118 1.28371 26.9297 1.1719L27.1563 1.05471L27.3828 0.945338C27.9054 0.677255 28.4744 0.566684 29.0625 0.671901L29.5156 0.750026C29.7455 0.791164 29.9727 0.793329 30.2031 0.750026L30.4297 0.710964L30.6563 0.664089C31.0913 0.582682 31.53 0.557079 31.9688 0.593776L32.1953 0.617214L32.4219 0.632839C32.7398 0.65959 33.0574 0.675572 33.375 0.671901L33.6016 0.664089L33.8281 0.664089C34.2244 0.659602 34.6205 0.683327 35.0156 0.734401L35.4688 0.796901C35.855 0.846968 36.241 0.913968 36.625 1.00784L37.0781 1.11721C37.1881 1.14358 37.3038 1.14372 37.4609 1.07034L37.6875 0.960964L37.9141 0.859401C38.4777 0.594787 39.0848 0.536311 39.6875 0.726589L40.1406 0.867214C40.349 0.933003 40.5425 0.950828 40.7344 0.921902L40.9609 0.882839L41.1875 0.851589C41.755 0.765285 42.3078 0.863391 42.8203 1.1094L43.2734 1.32815C43.4186 1.39727 43.5188 1.39491 43.6172 1.36721L43.8438 1.30471L44.0625 1.24221C44.4549 1.13171 44.8536 1.05387 45.25 1.00003L45.7031 0.937527C46.0775 0.886827 46.4532 0.850725 46.8281 0.828152L47.0547 0.812527L47.2734 0.796902C47.6682 0.773139 48.0664 0.781997 48.4609 0.812527L48.9141 0.843777C49.3719 0.879394 49.821 0.98937 50.2578 1.16409L50.4844 1.25003L50.7109 1.34378C50.7824 1.37212 50.8346 1.37918 50.9375 1.32815L51.1641 1.21096L51.3906 1.10159C52.0066 0.793073 52.674 0.772784 53.3047 1.06253L53.5313 1.16409L53.7578 1.27346C53.9155 1.34519 54.0346 1.34735 54.1484 1.32034L54.6016 1.21096C54.9906 1.11671 55.3817 1.05153 55.7734 1.00784L56 0.97659L56.2266 0.953152C56.6166 0.909825 57.0077 0.894249 57.3984 0.898465L57.8516 0.898465C58.1367 0.901322 58.4229 0.879449 58.7109 0.828152L59.1641 0.750027C59.548 0.681652 59.9349 0.62844 60.3203 0.60159L60.5391 0.585965L60.7656 0.57034C61.2466 0.536825 61.7236 0.602818 62.1875 0.750027L62.6406 0.890653C62.9356 0.984403 63.2277 1.04901 63.5156 1.08597L63.7422 1.11722L63.9609 1.14065C64.3233 1.18716 64.6925 1.24448 65.0547 1.30472L65.2734 1.34378L65.5 1.38284C65.6006 1.39958 65.727 1.38772 65.9063 1.28909L66.1328 1.16409L66.3516 1.03909C67.0135 0.674951 67.7421 0.694345 68.3906 1.07034L68.6172 1.19534L68.8359 1.32815C68.9041 1.36769 68.9433 1.37413 68.9531 1.37503C68.9605 1.3757 68.9775 1.37428 69.0156 1.3594L69.2422 1.27347L69.4688 1.17972C70.038 0.953854 70.6381 0.938173 71.2188 1.14065L71.4453 1.21878L71.6641 1.2969C71.913 1.38371 72.1528 1.42184 72.3828 1.4219L72.8359 1.4219C73.0466 1.42163 73.268 1.37894 73.5078 1.28128L73.7344 1.18753L73.9609 1.10159C74.507 0.878957 75.0839 0.833011 75.6563 0.992216L75.8828 1.05472L76.1016 1.11722C76.3964 1.19922 76.6953 1.25412 76.9844 1.28128L77.2031 1.30472L77.4297 1.32815C77.7051 1.35402 77.9816 1.34801 78.2578 1.31253L78.7109 1.25003C79.1348 1.19551 79.5598 1.19166 79.9844 1.2344L80.4375 1.28128C80.7423 1.31217 81.0473 1.32244 81.3516 1.31253L81.8047 1.2969C82.0194 1.28977 82.2468 1.23832 82.4922 1.13284L82.7188 1.03909L82.9453 0.937528C83.4289 0.730311 83.9387 0.633106 84.4609 0.671903L84.6875 0.695341L84.9141 0.710966C85.2213 0.733778 85.5289 0.734679 85.8359 0.718779L86.0625 0.710966L86.2891 0.695341C86.6825 0.675134 87.0757 0.685414 87.4688 0.718779L87.6953 0.734404L87.9219 0.757841C88.3719 0.796206 88.818 0.896293 89.25 1.06253L89.4688 1.14847L89.6953 1.2344C89.9486 1.33188 90.1904 1.38142 90.4219 1.39065L90.6484 1.39847L90.875 1.41409C91.0774 1.42181 91.2922 1.38763 91.5234 1.2969L91.75 1.20315L91.9688 1.11722C92.4505 0.928206 92.9561 0.848065 93.4688 0.890654L93.6953 0.906279L93.9219 0.929716C94.2077 0.953509 94.495 0.944997 94.7813 0.914091L95.0078 0.890654L95.2266 0.867216C95.5745 0.82966 95.9255 0.78973 96.2734 0.750029L96.7266 0.703154C97.1161 0.658801 97.5081 0.637231 97.8984 0.640654L98.3438 0.640654C98.7763 0.644448 99.2078 0.704388 99.6328 0.812529L99.8594 0.867217L100.086 0.929717C100.45 1.02248 100.816 1.1238 101.18 1.2344L101.406 1.2969L101.625 1.36722C101.693 1.38784 101.769 1.39563 101.906 1.32034L102.359 1.07034C102.813 0.822653 103.294 0.662185 103.797 0.617217L104.023 0.601592L104.25 0.578154C104.709 0.537532 105.166 0.572565 105.617 0.679717L106.07 0.789092C106.295 0.842486 106.515 0.854655 106.734 0.820342L106.961 0.781279L107.18 0.750029C107.634 0.678859 108.093 0.676748 108.547 0.75003L108.773 0.789092L109 0.820342C109.4 0.885116 109.8 0.982693 110.195 1.1094L110.414 1.17972L110.641 1.25784C110.806 1.31099 110.958 1.3097 111.117 1.26565L111.57 1.14065C111.981 1.02637 112.396 0.953576 112.813 0.921905L113.039 0.90628L113.258 0.882842C113.763 0.844464 114.265 0.929035 114.742 1.1094L114.969 1.18753L115.188 1.27347C115.404 1.35536 115.608 1.385 115.797 1.36722L116.016 1.34378L116.242 1.32034C116.611 1.28553 116.982 1.2624 117.352 1.25003L117.805 1.2344C118.007 1.22755 118.229 1.18221 118.469 1.07034L118.688 0.960967L118.914 0.859405C119.584 0.547406 120.284 0.608848 120.898 0.976593L121.125 1.10941L121.352 1.25003C121.417 1.28941 121.45 1.28883 121.453 1.28909L121.461 1.28909C121.466 1.28826 121.481 1.28894 121.5 1.28128L121.953 1.09378C122.401 0.906898 122.862 0.789432 123.336 0.765655L123.563 0.757843L123.789 0.742218C124.179 0.722886 124.571 0.730049 124.961 0.757843L125.18 0.773468L125.406 0.789093C125.667 0.807694 125.931 0.792703 126.195 0.742218L126.422 0.703155L126.648 0.65628C127.287 0.533735 127.894 0.690806 128.422 1.02347L128.648 1.16409L128.867 1.30472C129.009 1.39431 129.066 1.37771 129.102 1.36722L129.328 1.30472L129.555 1.23441C130.084 1.07762 130.625 1.07734 131.156 1.22659L131.609 1.35159C131.746 1.38939 131.877 1.38638 132.031 1.32816L132.484 1.15628C133.018 0.953909 133.577 0.912926 134.133 1.05472L134.359 1.11722L134.586 1.17191C134.841 1.23709 135.09 1.26292 135.336 1.25003L135.563 1.23441L135.781 1.22659C136.089 1.21043 136.401 1.17252 136.711 1.11722L137.164 1.03909C137.668 0.949482 138.172 0.974771 138.664 1.11722L138.891 1.18753L139.117 1.25003C139.232 1.28324 139.345 1.2823 139.492 1.21878L139.719 1.11722L139.938 1.02347C140.517 0.772914 141.138 0.750083 141.734 0.968781L141.953 1.04691L142.18 1.13284C142.436 1.22683 142.685 1.27362 142.922 1.28128L143.148 1.28909L143.367 1.29691C143.731 1.30867 144.098 1.32511 144.461 1.35159L144.688 1.36722L144.906 1.38284C145.137 1.39963 145.375 1.38055 145.617 1.31253L146.07 1.18753C146.474 1.07446 146.88 0.992819 147.289 0.953156L147.516 0.929719L147.742 0.914094C148.148 0.874906 148.555 0.867907 148.961 0.898469L149.414 0.929719C149.77 0.956545 150.129 0.990107 150.484 1.02347L150.703 1.04691L150.93 1.06253C151.301 1.09738 151.676 1.14416 152.047 1.20316L152.266 1.24222L152.492 1.27347C152.791 1.32095 153.094 1.35172 153.391 1.35159L153.836 1.35159C154.015 1.35152 154.217 1.30837 154.445 1.19534L154.672 1.07816L154.891 0.968782C155.49 0.672024 156.148 0.639243 156.773 0.898469L156.992 0.992219L157.219 1.08597C157.426 1.17192 157.61 1.19775 157.781 1.17972L158.008 1.15628L158.234 1.12503C158.577 1.08862 158.923 1.05055 159.266 1.00784L159.492 0.984407L159.711 0.953157C160.084 0.90674 160.463 0.871976 160.836 0.851594L161.055 0.843782L161.281 0.828157C161.779 0.800987 162.271 0.885348 162.742 1.06253L162.961 1.14847L163.188 1.22659C163.437 1.3206 163.679 1.37138 163.906 1.37503L164.352 1.37503C164.603 1.37907 164.863 1.35337 165.125 1.28128L165.344 1.21878L165.57 1.15628C166.042 1.02634 166.525 0.987675 167.008 1.04691L167.234 1.07034L167.461 1.10159C167.727 1.13414 167.992 1.13508 168.258 1.10159L168.711 1.03909C169.044 0.996789 169.378 0.949845 169.711 0.890657L170.164 0.812532C170.579 0.738877 170.996 0.706982 171.414 0.718782L171.641 0.726595L171.867 0.726595C172.227 0.736842 172.586 0.752353 172.945 0.77347L173.398 0.80472C173.71 0.82293 174.025 0.821764 174.336 0.80472L174.555 0.789095L174.781 0.781282C175.097 0.763973 175.417 0.729339 175.734 0.67972L175.961 0.64847L176.18 0.609407C176.742 0.521534 177.292 0.615213 177.805 0.851595L178.258 1.05472C178.384 1.11314 178.467 1.11096 178.563 1.07816L178.789 1.00785L179.008 0.92972C179.528 0.750413 180.072 0.712739 180.609 0.83597L180.836 0.890658L181.063 0.937533C181.428 1.02155 181.792 1.1171 182.156 1.21878L182.609 1.34378C182.778 1.39047 182.938 1.39343 183.109 1.34378L183.336 1.27347L183.555 1.21097C184.077 1.05934 184.615 1.04922 185.141 1.18753L185.594 1.31253C185.859 1.38235 186.119 1.40895 186.375 1.40628L186.828 1.40628C187.056 1.40361 187.291 1.35647 187.539 1.26566L187.766 1.18753L187.992 1.1016C188.492 0.918202 189.013 0.863528 189.539 0.945346L189.766 0.976596L189.992 1.01566C190.267 1.05853 190.54 1.06688 190.813 1.04691L191.266 1.01566C191.583 0.992241 191.9 0.951582 192.219 0.898471L192.672 0.820346C193.044 0.758189 193.417 0.715375 193.789 0.679721L194.242 0.632846C194.638 0.59509 195.034 0.584995 195.43 0.601596L195.883 0.617221C196.307 0.635282 196.731 0.701071 197.148 0.812533L197.367 0.875033L197.594 0.937533C197.864 1.00963 198.13 1.04605 198.391 1.04691L198.844 1.04691C199.226 1.04827 199.611 1.07047 199.992 1.10941L200.211 1.13285L200.438 1.14847C200.685 1.17376 200.935 1.16791 201.188 1.11722L201.641 1.02347C202.156 0.919662 202.676 0.949633 203.18 1.1016L203.398 1.1641L203.625 1.23441C203.848 1.30183 204.065 1.32159 204.273 1.29691L204.492 1.26566L204.719 1.24222C205.07 1.20065 205.422 1.15772 205.773 1.11722L206 1.09378L206.219 1.07035C206.674 1.01779 207.135 1.03406 207.586 1.12503L207.813 1.17191L208.031 1.21878C208.351 1.28326 208.674 1.33309 208.992 1.36722L209.445 1.4141C209.614 1.43185 209.794 1.40616 210 1.32035L210.453 1.13285C210.952 0.924429 211.479 0.845118 212.016 0.914097L212.242 0.937534L212.461 0.968784C212.749 1.00587 213.041 1.01601 213.328 1.00003L213.555 0.984409L213.781 0.976597C214.111 0.958035 214.443 0.929056 214.773 0.890659L215 0.867222L215.219 0.835972C215.641 0.786919 216.07 0.784924 216.492 0.828159L216.711 0.851597L216.938 0.875034C217.32 0.91422 217.705 0.969388 218.086 1.04691L218.539 1.14066C218.765 1.1863 218.987 1.18877 219.211 1.14847L219.664 1.07035C220.118 0.989029 220.575 0.979504 221.031 1.04691L221.258 1.07816L221.484 1.11722C221.674 1.14533 221.87 1.13071 222.078 1.06253L222.305 0.984409L222.523 0.914097C222.941 0.777512 223.369 0.688158 223.797 0.648472L224.023 0.625035L224.242 0.601597C224.786 0.551104 225.318 0.659282 225.813 0.89066L226.039 1.00003L226.258 1.1016C226.511 1.21986 226.749 1.27844 226.969 1.29691L227.195 1.32035L227.422 1.33597C227.636 1.35351 227.855 1.33088 228.086 1.25785L228.539 1.11722C228.972 0.980641 229.414 0.90387 229.859 0.89066L230.086 0.882847L230.305 0.875035C230.694 0.863497 231.088 0.87203 231.477 0.906285L231.703 0.929722L231.922 0.945347C232.341 0.982239 232.761 1.06594 233.172 1.18753L233.398 1.25785L233.617 1.32035C233.877 1.39726 234.135 1.4311 234.383 1.42972L234.828 1.42972C235.099 1.42821 235.379 1.3951 235.656 1.32816L235.875 1.27347L236.102 1.21879C236.544 1.11194 236.995 1.06886 237.445 1.09379L237.664 1.10941L237.891 1.11722C238.173 1.13287 238.458 1.11937 238.742 1.07816L239.195 1.01566C239.506 0.970468 239.819 0.910329 240.133 0.82816L240.586 0.70316C241.107 0.567108 241.638 0.574616 242.156 0.718785L242.383 0.781285L242.602 0.843785C242.971 0.946413 243.343 1.06142 243.711 1.18754L244.164 1.34379C244.228 1.36521 244.291 1.37096 244.414 1.30472L244.641 1.17972L244.859 1.06254C245.388 0.77785 245.975 0.662807 246.578 0.781286L246.805 0.828161L247.031 0.867223C247.345 0.929219 247.657 0.973767 247.969 1.00004L248.195 1.02347L248.422 1.0391C248.763 1.06771 249.105 1.09018 249.445 1.10941L249.672 1.12504L249.891 1.14066C250.227 1.15966 250.57 1.16667 250.906 1.17191L251.125 1.17972L251.352 1.17972C251.745 1.18586 252.139 1.22301 252.531 1.28129L252.984 1.34379C253.223 1.37926 253.463 1.37393 253.703 1.32816L253.922 1.2891L254.148 1.24222C254.552 1.16545 254.961 1.12617 255.367 1.11722L255.594 1.10941L255.813 1.10941C256.238 1.10005 256.665 1.13394 257.086 1.21879L257.313 1.26566L257.531 1.31254C257.676 1.34177 257.83 1.33018 258.008 1.25785L258.461 1.07035C258.88 0.899728 259.308 0.781576 259.742 0.718786L260.195 0.656286C260.678 0.586878 261.159 0.613662 261.633 0.734411L261.859 0.789099L262.086 0.851599C262.412 0.934746 262.738 1.00358 263.063 1.06254L263.289 1.1016L263.516 1.14847C263.806 1.201 264.096 1.22045 264.383 1.21879L264.828 1.21879C265.04 1.21756 265.267 1.17651 265.508 1.07816L265.961 0.890661C266.471 0.682071 267.009 0.609557 267.555 0.703161L268.008 0.781286C268.254 0.82376 268.498 0.83309 268.742 0.796912L268.969 0.757849L269.188 0.726599C269.713 0.648775 270.236 0.71234 270.734 0.898474L271.188 1.07035C271.344 1.12894 271.479 1.13159 271.617 1.09379L272.07 0.968787C272.638 0.811503 273.213 0.847937 273.758 1.06254L273.977 1.14847L274.203 1.24222C274.271 1.26889 274.323 1.27342 274.43 1.21879L274.883 0.984412C275.35 0.744184 275.848 0.60283 276.367 0.593787L276.594 0.593787L276.82 0.585974C277.272 0.578671 277.724 0.640409 278.164 0.765662L278.383 0.828162L278.609 0.898474C278.88 0.975344 279.146 1.00973 279.406 1.01566L279.859 1.03129C280.2 1.03873 280.542 1.04043 280.883 1.0391L281.109 1.0391L281.336 1.03129C281.625 1.03 281.919 1.00657 282.211 0.953162L282.43 0.9141L282.656 0.867225C283.078 0.790162 283.505 0.764366 283.93 0.781287L284.148 0.7891L284.375 0.796912C284.715 0.810476 285.058 0.824194 285.398 0.828162L285.852 0.828162C286.152 0.83153 286.456 0.813944 286.758 0.773475L286.977 0.742225L287.203 0.710975C287.695 0.644971 288.185 0.689181 288.664 0.828162L288.891 0.890662L289.117 0.960975C289.288 1.01036 289.448 1.00844 289.617 0.960975L290.07 0.835975C290.622 0.681868 291.18 0.701297 291.719 0.890663L292.172 1.04691C292.44 1.14099 292.7 1.19485 292.953 1.21098L293.18 1.2266L293.398 1.24223C293.659 1.25882 293.923 1.24065 294.188 1.18754L294.641 1.09379C295.005 1.02045 295.37 0.954574 295.734 0.898475L296.188 0.835975C296.651 0.764973 297.117 0.771146 297.578 0.859413L297.797 0.898475L298.023 0.94535C298.27 0.992537 298.515 0.999722 298.758 0.968788L298.984 0.937538L299.211 0.9141C299.651 0.857736 300.092 0.857441 300.531 0.921913L300.758 0.953163L300.984 0.992225C301.336 1.04391 301.688 1.09316 302.039 1.14848L302.266 1.18754L302.492 1.21879C302.882 1.28023 303.254 1.36998 303.602 1.4766L303.789 1.53129L303.984 1.58598C304.238 1.6637 304.543 1.74145 304.906 1.81254L305.164 1.86723L305.414 1.9141C305.757 1.98155 306.107 2.13111 306.391 2.4141C306.677 2.69996 306.829 3.05434 306.891 3.40629L306.93 3.65629L306.977 3.89848C307.011 4.09858 307.032 4.27893 307.047 4.42973L307.031 5.00004L307.023 5.01566C307.03 5.08752 307.051 5.20015 307.078 5.35941L307.109 5.58598L307.148 5.80473C307.225 6.25537 307.236 6.71218 307.172 7.1641L307.141 7.39066L307.102 7.61723C307.071 7.83587 307.085 8.05521 307.141 8.28129L307.25 8.73441C307.379 9.2565 307.368 9.78801 307.219 10.3047L307.156 10.5235L307.094 10.75C307.001 11.073 306.923 11.3976 306.859 11.7188L306.766 12.1719C306.746 12.2747 306.756 12.3932 306.844 12.5625L307.078 13.0157C307.346 13.533 307.456 14.0972 307.375 14.6797L307.344 14.9141L307.312 15.1407C307.243 15.6386 307.074 16.108 306.812 16.5391L306.562 16.9454C306.344 17.3044 306.103 17.6575 305.828 17.9922L305.664 18.1797L305.508 18.375C305.052 18.9301 304.412 19.1975 303.695 19.1329L303.445 19.1094L303.203 19.0938C302.873 19.064 302.564 19.0591 302.281 19.086L301.828 19.1329C301.436 19.1698 301.041 19.1781 300.648 19.1641L300.43 19.1563L300.203 19.1485C299.754 19.1324 299.31 19.0504 298.875 18.9063L298.648 18.8282L298.422 18.7579C298.18 18.6775 297.95 18.6395 297.727 18.6485L297.5 18.6641L297.281 18.6719C297.045 18.6814 296.796 18.7314 296.539 18.8282L296.312 18.9141L296.094 18.9922C295.666 19.1535 295.225 19.2628 294.781 19.3047L294.555 19.3204L294.328 19.3438C293.848 19.3886 293.372 19.3397 292.906 19.2032L292.68 19.1407L292.453 19.0704C292.126 18.9745 291.795 18.8924 291.469 18.8204L291.25 18.7735L291.023 18.7188C290.915 18.6948 290.791 18.7 290.625 18.7813L290.406 18.8907L290.18 19.0078C289.524 19.3297 288.822 19.2971 288.195 18.9453L287.977 18.8125L287.75 18.6875C287.633 18.6218 287.584 18.6369 287.531 18.6563L287.305 18.7344L287.086 18.8203C286.605 18.997 286.101 19.0708 285.594 19.0235L285.367 19L285.148 18.9766C284.794 18.9435 284.433 18.913 284.078 18.875L283.859 18.8516L283.633 18.8203C283.418 18.7974 283.197 18.8233 282.969 18.8907L282.742 18.9532L282.523 19.0235C282.101 19.148 281.666 19.2204 281.234 19.2422L281.016 19.25L280.789 19.2657C280.335 19.2886 279.882 19.2389 279.437 19.125L279.211 19.0703L278.992 19.0078C278.851 18.9718 278.71 18.9769 278.547 19.0391L278.094 19.211C277.457 19.4551 276.807 19.3988 276.219 19.086L275.992 18.9688L275.766 18.8438C275.613 18.7631 275.514 18.7678 275.43 18.7891L275.211 18.8438L274.984 18.8985C274.459 19.0308 273.925 19.0201 273.406 18.8672L273.18 18.7969L272.953 18.7344C272.767 18.6796 272.592 18.6703 272.414 18.711L271.961 18.8203C271.572 18.9099 271.181 18.9756 270.789 19.0157L270.336 19.0625C269.918 19.105 269.496 19.0992 269.078 19.0547L268.859 19.0313L268.633 19.0078C268.328 18.9754 268.023 18.968 267.719 18.9766L267.492 18.9766L267.266 18.9844C266.877 18.9955 266.489 18.9871 266.102 18.9532L265.875 18.9297L265.648 18.9141C265.307 18.8843 264.966 18.8573 264.625 18.836L264.172 18.8047C263.844 18.7843 263.516 18.7745 263.187 18.7735L262.734 18.7735Z" fill="#EE0505"/>
</svg>
