<svg width="113" height="112" viewBox="0 0 113 112" fill="none" xmlns="http://www.w3.org/2000/svg">
<path d="M54.0753 4.5C55.23 2.5 58.1167 2.5 59.2714 4.5L102.573 79.5C103.727 81.5 102.284 84 99.9746 84H13.3721C11.0627 84 9.61929 81.5 10.774 79.5L54.0753 4.5Z" fill="#FFF07C" fill-opacity="0.3"/>
<path d="M58.7515 1.75781C59.1508 1.83555 59.7793 2.05072 60.1812 2.58984L60.4976 3.25781L60.521 3.375L60.5562 3.50391C60.6354 3.80216 60.8672 4.44835 61.3062 5.50781L61.4468 5.82422L61.5757 6.15234C61.97 7.10407 62.4662 7.9967 63.0522 8.83594L63.2515 9.11719L63.4507 9.41016C64.089 10.3243 64.7486 11.2334 65.4194 12.1289L65.6187 12.4102L65.8296 12.6797C66.544 13.6334 67.2085 14.6243 67.8101 15.6445L67.9858 15.9492L68.1616 16.2422C68.7878 17.3044 69.294 18.4328 69.6968 19.6172L69.814 19.9453L69.9312 20.2852C70.2458 21.2098 70.7095 22.0402 71.314 22.793L71.5249 23.0742L71.7476 23.3438C72.5037 24.2854 73.191 25.2734 73.8101 26.2969L73.9858 26.5898L74.1733 26.8828C74.7648 27.8607 75.3359 28.8517 75.896 29.8477L76.0718 30.1523L76.2358 30.457C76.7657 31.3993 77.3393 32.3196 77.9585 33.2109L78.1577 33.4922L78.3569 33.7852C79.0616 34.7997 79.6655 35.8793 80.1499 37.0195L80.2788 37.3359L80.4194 37.6523C80.8437 38.6512 81.3154 39.6291 81.8374 40.5703L82.0015 40.875L82.1772 41.1797C82.7374 42.19 83.2672 43.2191 83.771 44.2617L83.9233 44.5664L84.0757 44.8828C84.5373 45.8381 85.067 46.756 85.6577 47.6367L85.8452 47.9297L86.0444 48.2227C86.6484 49.1228 87.2995 49.9957 87.9897 50.8477L88.2124 51.1172L88.4351 51.3984C89.2112 52.357 89.8829 53.3811 90.4624 54.457L90.7905 55.0664C91.3216 56.0524 91.8705 57.0321 92.4194 58.0078L92.5835 58.3125L92.7593 58.6055C93.3198 59.6017 93.8676 60.6164 94.3999 61.6289L94.5522 61.9336L94.7163 62.2383C95.2241 63.2041 95.7764 64.1504 96.3569 65.0742L96.5327 65.3672L96.7202 65.6602C97.3987 66.74 97.9212 67.9134 98.2788 69.1641L98.4663 69.8438C98.7391 70.7976 99.158 71.6619 99.7202 72.4336L99.9312 72.7148L100.13 72.9961C100.775 73.8805 101.458 74.7453 102.181 75.5859L102.416 75.8438L102.65 76.1133C103.644 77.2695 104.121 78.6436 104.021 80.1562L103.974 80.8359C103.869 82.4209 103.103 83.7052 101.701 84.4688L101.408 84.6211L101.126 84.7734C99.9205 85.4287 98.5895 85.6754 97.189 85.5469L96.8491 85.5234L96.4976 85.4883C95.5208 85.3989 94.5406 85.458 93.5562 85.6641L93.2163 85.7344L92.8647 85.8047C91.465 86.0977 90.0663 85.9998 88.6929 85.5352L88.3413 85.418L88.0015 85.3008C87.0744 84.987 86.1666 84.9015 85.271 85.0078L84.9194 85.043L84.5796 85.0898C83.402 85.2301 82.2191 85.3129 81.0405 85.3359H80.689L80.3491 85.3477C79.2302 85.3695 78.1047 85.3973 76.9858 85.4414L76.646 85.4531L76.2944 85.4648C75.1733 85.509 74.0523 85.5609 72.9312 85.6172L72.5796 85.6406L72.228 85.6523C71.0796 85.71 69.9313 85.749 68.7827 85.7578H68.0913C66.8413 85.7674 65.5937 85.6244 64.353 85.3359L64.0015 85.2656L63.6616 85.1836C62.8158 84.987 61.966 85.0246 61.0952 85.3242L60.7554 85.4414L60.4038 85.5703C59.0128 86.0484 57.5878 86.1245 56.1733 85.7812L55.8335 85.6875L55.4819 85.6055C54.4321 85.3508 53.3849 85.1919 52.3413 85.1133L51.9897 85.0781L51.6499 85.0547C50.7131 84.9842 49.7616 85.0927 48.8022 85.3828L48.4624 85.4883L48.1108 85.5938C46.8552 85.9733 45.5878 86.1744 44.314 86.1914H43.9624L43.6226 86.2031C42.3067 86.2204 40.9937 85.9886 39.7085 85.5352L39.3687 85.418L39.0171 85.2891C38.1256 84.9749 37.2624 84.9094 36.4038 85.0664L36.0522 85.125L35.7124 85.1953C34.4235 85.4316 33.1252 85.4553 31.8335 85.2656L31.4819 85.2188L31.1421 85.1602C30.2089 85.0231 29.2734 85.0708 28.3296 85.3008L27.978 85.3828L27.6382 85.4648C26.28 85.7962 24.9074 85.7998 23.5483 85.4766L22.8452 85.3125C21.8212 85.0688 20.8019 84.9454 19.7866 84.9258L19.0835 84.9023C18.1221 84.8847 17.1499 85.023 16.1655 85.3242L15.8257 85.4297L15.4741 85.5352C13.8287 86.0387 12.2561 85.6792 10.9038 84.6094L10.5991 84.3633L10.2827 84.1172C9.60724 83.5817 9.04673 82.8771 8.85303 81.9727C8.65637 81.052 8.89655 80.1807 9.3335 79.4297L9.521 79.1016L9.7085 78.7852C10.2841 77.796 10.7634 76.8054 11.1616 75.8203L11.2905 75.4922L11.4312 75.1641C11.9036 73.9954 12.508 72.899 13.2476 71.8828L13.4585 71.6016L13.6577 71.3203C14.275 70.4722 14.8145 69.5744 15.2749 68.6367L15.4272 68.332L15.5796 68.0156C16.1085 66.9387 16.7098 65.9029 17.3843 64.9102L17.5835 64.6172L17.7827 64.3359C18.3692 63.473 18.8787 62.5611 19.3062 61.6055L19.5874 60.9727C20.1066 59.8118 20.7733 58.7339 21.5913 57.75L21.8257 57.4805L22.0483 57.2109C22.7427 56.3763 23.377 55.5065 23.9585 54.6094L24.3335 54.0234C24.9338 53.0971 25.5183 52.1547 26.0679 51.1992L26.2319 50.9062L26.4077 50.6016C26.9302 49.6932 27.3779 48.7379 27.7554 47.7422L28.0132 47.0859C28.4245 46.001 28.851 44.9255 29.3022 43.8633L29.4429 43.5352L29.5835 43.2188C30.0732 42.0663 30.6846 40.982 31.4233 39.9727L31.6226 39.6914L31.8335 39.4102C32.4548 38.5614 32.994 37.6624 33.4624 36.7266L33.6265 36.4219L33.7788 36.1055C34.3576 34.9505 35.113 33.9012 36.0405 32.9648L36.2983 32.707L36.5562 32.4609C37.2509 31.7598 37.7833 30.972 38.1616 30.1055L38.2905 29.7891L38.4312 29.4727C38.8767 28.4522 39.3063 27.4131 39.7085 26.3672L39.8374 26.0391L39.9546 25.7109C40.4182 24.5055 41.0569 23.3974 41.853 22.3828L42.064 22.1016L42.2866 21.832C42.9304 21.0117 43.4845 20.1387 43.9507 19.2188L44.103 18.9141L44.2554 18.5977L45.9194 15.2695L46.0718 14.9531C46.6231 13.8313 47.3068 12.7836 48.1108 11.8125L48.5562 11.2734C49.1556 10.5495 49.5933 9.73281 49.8687 8.8125L49.9741 8.47266L50.0679 8.12109C50.4518 6.83742 51.0602 5.66522 51.8726 4.60547L52.0835 4.32422L52.3062 4.04297C53.2632 2.79479 54.5771 2.06558 56.1499 1.86328L56.5249 1.81641L56.8882 1.76953C57.537 1.68643 58.1895 1.64963 58.7515 1.75781ZM57.2749 4.74609L56.8999 4.79297L56.5366 4.83984C55.7126 4.9454 55.1307 5.28982 54.6851 5.87109L54.4624 6.15234L54.2515 6.43359C53.6628 7.20234 53.2305 8.05173 52.9507 8.98828L52.7397 9.66797C52.3508 10.9696 51.7249 12.1447 50.8647 13.1836L50.4194 13.7227C49.7636 14.5148 49.2135 15.3691 48.7671 16.2773L48.6147 16.5938L48.4624 16.8984C47.9608 17.9193 47.4527 18.9431 46.939 19.957L46.7749 20.2617L46.6226 20.5781C46.0671 21.6737 45.4054 22.711 44.6421 23.6836L44.4312 23.9531L44.2085 24.2344C43.598 25.0129 43.1116 25.8626 42.7554 26.7891L42.6382 27.1172L42.5093 27.4453C42.0912 28.5326 41.6485 29.6065 41.1851 30.668L41.0444 30.9844L40.9038 31.3125C40.3733 32.526 39.6243 33.6147 38.6772 34.5703L38.4312 34.8281L38.1733 35.0742C37.4601 35.7939 36.8952 36.5888 36.4624 37.4531L36.3101 37.7695L36.146 38.0742C35.6028 39.1592 34.9781 40.1973 34.2593 41.1797L33.8374 41.7422C33.2353 42.565 32.737 43.4503 32.3374 44.3906L32.2085 44.707L32.0679 45.0352C31.6312 46.0629 31.2122 47.102 30.814 48.1523L30.6851 48.4805L30.5679 48.8086C30.1345 49.9516 29.6124 51.053 29.0093 52.1016L28.8335 52.3945L28.6577 52.6992C28.0826 53.699 27.481 54.6832 26.853 55.6523L26.478 56.2383C25.8318 57.2354 25.1252 58.1971 24.3569 59.1211L24.1226 59.3906L23.8999 59.6719C23.2567 60.4458 22.7356 61.2849 22.3296 62.1914L22.1772 62.5078L22.0366 62.8359C21.5378 63.9504 20.9403 65.0157 20.2554 66.0234L20.0679 66.3047L19.8687 66.5977C19.2728 67.4746 18.742 68.3887 18.2749 69.3398L18.1226 69.6562L17.9702 69.9609C17.4334 71.0543 16.8021 72.1024 16.0835 73.0898L15.8843 73.3711L15.6733 73.6523C15.0788 74.4695 14.5893 75.3467 14.2085 76.2891L13.9507 76.9453C13.4955 78.0718 12.9417 79.1914 12.2983 80.2969L12.1108 80.6133L11.9233 80.9414C11.7732 81.2007 11.7786 81.3151 11.7827 81.3398C11.7858 81.3544 11.8197 81.5152 12.146 81.7734L12.4507 82.0078L12.7671 82.2539C13.4216 82.7717 13.9808 82.8635 14.5952 82.6758L14.9468 82.5703L15.2866 82.4648C16.5599 82.0752 17.849 81.8782 19.1421 81.9023L19.8452 81.9258C21.0826 81.9497 22.3197 82.1017 23.5483 82.3945L23.8882 82.4766L24.2397 82.5586C25.1369 82.7724 26.0253 82.7777 26.9233 82.5586L27.2632 82.4648L27.6147 82.3828C28.9277 82.0625 30.2522 82.0009 31.5757 82.1953L31.9272 82.2422L32.2671 82.3008C33.231 82.4424 34.1948 82.4189 35.1616 82.2422L35.5132 82.1836L35.8647 82.1133C37.2599 81.8583 38.6509 81.9847 40.0132 82.4648L40.3647 82.582L40.7046 82.7109C41.6763 83.0537 42.6346 83.2152 43.5757 83.2031L43.9272 83.1914H44.2671C45.249 83.1785 46.2436 83.025 47.2437 82.7227L47.5952 82.6172L47.9351 82.5117C49.2333 82.1192 50.5517 81.9671 51.8726 82.0664L52.2124 82.0898L52.564 82.1133C53.7761 82.2044 54.9909 82.3949 56.1968 82.6875L56.5366 82.7812L56.8882 82.8633C57.729 83.0666 58.5668 83.0318 59.4312 82.7344L59.771 82.6055L60.1226 82.4883C61.5093 82.0111 62.9296 81.9257 64.3413 82.2539L64.6812 82.3359L65.0327 82.418C66.0489 82.6541 67.0609 82.7655 68.0679 82.7578H68.7593C69.8668 82.7493 70.9798 82.7197 72.0874 82.6641L72.4272 82.6406L72.7788 82.6289C73.9116 82.572 75.0444 82.5212 76.1772 82.4766L76.5288 82.4531L76.8687 82.4414C78.0073 82.3965 79.1518 82.3699 80.2905 82.3477L80.6304 82.3359H80.9819C82.0598 82.3148 83.1374 82.2299 84.2163 82.1016L84.5679 82.0664L84.9194 82.0195C86.2787 81.8586 87.6345 82.0155 88.9624 82.4648L89.3022 82.582L89.6538 82.6992C90.537 82.9978 91.3984 83.0544 92.2554 82.875L92.5952 82.793L92.9468 82.7227C94.218 82.4569 95.4999 82.3826 96.7788 82.5L97.1187 82.5352L97.4702 82.5586C98.3266 82.6369 99.0533 82.4864 99.6968 82.1367L100.259 81.832C100.704 81.5902 100.944 81.2615 100.986 80.6367L100.998 80.2969L101.021 79.957C101.067 79.2612 100.878 78.6543 100.376 78.0703L99.9077 77.5312C99.1342 76.6316 98.3958 75.7027 97.7046 74.7539L97.5054 74.4727L97.2944 74.1914C96.5224 73.1305 95.95 71.9559 95.5835 70.6758L95.4897 70.3242L95.3843 69.9844C95.1021 68.9977 94.7007 68.0869 94.1772 67.2539L94.0015 66.9609L93.814 66.668C93.1927 65.6792 92.6114 64.6664 92.0679 63.6328L91.7397 63.0234C91.221 62.0369 90.6921 61.0527 90.146 60.082L89.9702 59.7773L89.8062 59.4727C89.2483 58.4812 88.6934 57.4863 88.1538 56.4844L87.8257 55.875C87.3356 54.9651 86.7634 54.1006 86.103 53.2852L85.8804 53.0156L85.6577 52.7344C84.9107 51.8123 84.2035 50.8634 83.5483 49.8867L83.3608 49.6055L83.1616 49.3125C82.4935 48.3165 81.9027 47.2754 81.3804 46.1953L81.0757 45.5625C80.5959 44.5697 80.0855 43.5945 79.5522 42.6328L79.3882 42.3281L79.2124 42.0234C78.6399 40.9912 78.1183 39.9292 77.6538 38.8359L77.5249 38.5078L77.3843 38.1914C76.9801 37.24 76.4826 36.3408 75.896 35.4961L75.6968 35.2031L75.4976 34.9219C74.8243 33.9527 74.1992 32.9474 73.6226 31.9219L73.4585 31.6289L73.2827 31.3242C72.7379 30.3553 72.1822 29.3927 71.6069 28.4414L71.4194 28.1367L71.2437 27.8438C70.6942 26.9355 70.0776 26.0578 69.4038 25.2188L69.1929 24.9492L68.9702 24.6797C68.1448 23.6518 67.5216 22.4999 67.0952 21.2461L66.978 20.918L66.8608 20.5781C66.5228 19.5847 66.0916 18.6473 65.5718 17.7656L65.396 17.4727L65.2202 17.168C64.6753 16.2439 64.0757 15.35 63.4272 14.4844L63.2163 14.2031L63.0171 13.9219C62.3256 12.9987 61.648 12.0637 60.9897 11.1211L60.5913 10.5586C59.8809 9.54123 59.2869 8.45115 58.8101 7.30078L58.6694 6.97266L58.5405 6.65625C58.2119 5.86292 57.9793 5.18726 57.814 4.6875C57.6676 4.69306 57.4895 4.71868 57.2749 4.74609Z" fill="#FFE41A"/>
<circle cx="36.5" cy="24.5" r="12.5" fill="#FFE41A"/>
<path d="M37.0781 10.8516C38.7242 10.5989 40.292 10.9224 41.707 11.8008L42.3867 12.2227C43.523 12.928 44.6423 13.6682 45.7383 14.4492L46.0781 14.6953L46.4062 14.9297C47.7602 15.8965 48.6742 17.2118 49.1016 18.8203L49.1953 19.207L49.3008 19.5938C49.6453 20.8906 49.8808 21.9799 49.9688 22.8164L50.0156 23.2617C50.0339 23.4363 50.0472 23.5714 50.0625 23.6719C50.188 23.8538 50.2857 23.9993 50.3086 24.0703C50.3872 24.3172 50.3908 24.5397 50.3906 24.6211C50.3901 24.8219 50.36 25.0351 50.332 25.207C50.2711 25.5806 50.1587 26.1065 50.0039 26.7422L49.8164 27.5156C49.4929 28.8436 49.0587 30.1631 48.5273 31.4766L48.375 31.8633L48.2109 32.25C47.5898 33.7831 46.5731 35.023 45.1875 35.9414L44.4844 36.4102C43.1533 37.2913 41.6914 37.821 40.125 37.9922L39.7266 38.0391L39.3164 38.0859C37.9592 38.2343 36.5873 38.3315 35.2031 38.3906L34.793 38.4141L34.3711 38.4258C32.6128 38.5007 31.0512 37.9178 29.7773 36.7031L29.4727 36.4102L29.168 36.1289C28.183 35.1883 27.2313 34.2606 26.3086 33.3516L25.7461 32.7891C24.6311 31.6897 23.8817 30.3647 23.5078 28.8398L23.4141 28.4531L23.3086 28.0664C22.9694 26.682 22.821 25.2738 22.8516 23.8477L22.8633 23.4492V23.0508C22.8962 21.5183 23.2833 20.0664 24.0117 18.7148L24.2109 18.3633L24.3984 18.0117C25.0598 16.7865 25.8357 15.5995 26.7305 14.4727L26.9883 14.1562L27.2461 13.8281C28.3461 12.4428 29.83 11.6456 31.5938 11.4961L32.0039 11.4609L32.4258 11.4258C33.7445 11.3139 35.0371 11.1615 36.293 10.9688L36.6797 10.9102L37.0781 10.8516ZM37.5352 13.8164L36.7383 13.9336C35.4124 14.137 34.0561 14.3084 32.6719 14.4258L32.2617 14.4609L31.8398 14.4961C30.8998 14.5765 30.185 14.9578 29.6016 15.6914L29.3438 16.0195L29.0742 16.3477C28.2866 17.3401 27.6083 18.3681 27.0352 19.4297L26.6602 20.1328C26.155 21.0688 25.886 22.0636 25.8633 23.1211V23.5195L25.8516 23.9062C25.8266 25.0707 25.9498 26.222 26.2266 27.3516L26.4141 28.125C26.6566 29.1144 27.1376 29.949 27.8555 30.6562L28.1367 30.9375L28.418 31.207C29.3281 32.1038 30.2688 33.0197 31.2422 33.9492L31.8516 34.5352C32.535 35.1853 33.302 35.4772 34.2422 35.4375L34.6641 35.4141L35.0742 35.4023C36.3933 35.346 37.6979 35.2386 38.9883 35.0977L39.3984 35.0625L39.8086 35.0156C40.8869 34.897 41.89 34.5265 42.832 33.9023L43.1836 33.668L43.5352 33.4453C44.4218 32.8572 45.0427 32.0898 45.4336 31.125L45.5859 30.7383L45.75 30.3516C46.2293 29.1667 46.6109 27.9819 46.8984 26.8008L47.0859 26.0273C47.2009 25.555 47.2705 25.194 47.3203 24.9375C47.2643 24.7975 47.2135 24.676 47.1914 24.5859C47.1226 24.3048 47.0668 23.9542 47.0273 23.5781L46.9805 23.1328C46.917 22.5273 46.7378 21.6152 46.4062 20.3672L46.3008 19.9805L46.1953 19.582C45.9463 18.649 45.4462 17.9275 44.6602 17.3672L44.0039 16.8984C42.9575 16.1526 41.8886 15.4385 40.8047 14.7656L40.125 14.3438C39.3177 13.8427 38.4738 13.6723 37.5352 13.8164Z" fill="#FFE41A"/>
</svg>
