<svg width="96" height="86" viewBox="0 0 96 86" fill="none" xmlns="http://www.w3.org/2000/svg">
<path d="M45.4019 3.5C46.5566 1.5 49.4434 1.5 50.5981 3.5L93.8993 78.5C95.054 80.5 93.6107 83 91.3013 83H4.69873C2.38933 83 0.945954 80.5 2.10065 78.5L45.4019 3.5Z" fill="#FFF07C" fill-opacity="0.3"/>
<path d="M50.0781 0.757812C50.4775 0.835548 51.106 1.05072 51.5078 1.58984L51.8242 2.25781L51.8477 2.375L51.8828 2.50391C51.9621 2.80216 52.1939 3.44835 52.6328 4.50781L52.7734 4.82422L52.9023 5.15234C53.2967 6.10407 53.7929 6.9967 54.3789 7.83594L54.5781 8.11719L54.7773 8.41016C55.4157 9.32426 56.0753 10.2334 56.7461 11.1289L56.9453 11.4102L57.1562 11.6797C57.8706 12.6334 58.5352 13.6243 59.1367 14.6445L59.3125 14.9492L59.4883 15.2422C60.1145 16.3044 60.6207 17.4328 61.0234 18.6172L61.1406 18.9453L61.2578 19.2852C61.5724 20.2098 62.0361 21.0402 62.6406 21.793L62.8516 22.0742L63.0742 22.3438C63.8304 23.2854 64.5177 24.2734 65.1367 25.2969L65.3125 25.5898L65.5 25.8828C66.0914 26.8607 66.6625 27.8517 67.2227 28.8477L67.3984 29.1523L67.5625 29.457C68.0924 30.3993 68.666 31.3196 69.2852 32.2109L69.4844 32.4922L69.6836 32.7852C70.3882 33.7997 70.9922 34.8793 71.4766 36.0195L71.6055 36.3359L71.7461 36.6523C72.1704 37.6512 72.6421 38.6291 73.1641 39.5703L73.3281 39.875L73.5039 40.1797C74.0641 41.19 74.5938 42.2191 75.0977 43.2617L75.25 43.5664L75.4023 43.8828C75.864 44.8381 76.3937 45.756 76.9844 46.6367L77.1719 46.9297L77.3711 47.2227C77.9751 48.1228 78.6262 48.9957 79.3164 49.8477L79.5391 50.1172L79.7617 50.3984C80.5378 51.357 81.2096 52.3811 81.7891 53.457L82.1172 54.0664C82.6482 55.0524 83.1971 56.0321 83.7461 57.0078L83.9102 57.3125L84.0859 57.6055C84.6465 58.6017 85.1942 59.6164 85.7266 60.6289L85.8789 60.9336L86.043 61.2383C86.5508 62.2041 87.1031 63.1504 87.6836 64.0742L87.8594 64.3672L88.0469 64.6602C88.7254 65.74 89.2478 66.9134 89.6055 68.1641L89.793 68.8438C90.0657 69.7976 90.4847 70.6619 91.0469 71.4336L91.2578 71.7148L91.457 71.9961C92.1014 72.8805 92.7848 73.7453 93.5078 74.5859L93.7422 74.8438L93.9766 75.1133C94.9708 76.2695 95.4474 77.6436 95.3477 79.1562L95.3008 79.8359C95.1958 81.4209 94.43 82.7052 93.0273 83.4688L92.7344 83.6211L92.4531 83.7734C91.2472 84.4287 89.9162 84.6754 88.5156 84.5469L88.1758 84.5234L87.8242 84.4883C86.8475 84.3989 85.8672 84.458 84.8828 84.6641L84.543 84.7344L84.1914 84.8047C82.7917 85.0977 81.393 84.9998 80.0195 84.5352L79.668 84.418L79.3281 84.3008C78.4011 83.987 77.4933 83.9015 76.5977 84.0078L76.2461 84.043L75.9062 84.0898C74.7287 84.2301 73.5458 84.3129 72.3672 84.3359H72.0156L71.6758 84.3477C70.5569 84.3695 69.4314 84.3973 68.3125 84.4414L67.9727 84.4531L67.6211 84.4648C66.5 84.509 65.3789 84.5609 64.2578 84.6172L63.9062 84.6406L63.5547 84.6523C62.4062 84.71 61.2579 84.749 60.1094 84.7578H59.418C58.168 84.7674 56.9204 84.6244 55.6797 84.3359L55.3281 84.2656L54.9883 84.1836C54.1425 83.987 53.2927 84.0246 52.4219 84.3242L52.082 84.4414L51.7305 84.5703C50.3395 85.0484 48.9144 85.1245 47.5 84.7812L47.1602 84.6875L46.8086 84.6055C45.7588 84.3508 44.7116 84.1919 43.668 84.1133L43.3164 84.0781L42.9766 84.0547C42.0398 83.9842 41.0883 84.0927 40.1289 84.3828L39.7891 84.4883L39.4375 84.5938C38.1818 84.9733 36.9144 85.1744 35.6406 85.1914H35.2891L34.9492 85.2031C33.6334 85.2204 32.3204 84.9886 31.0352 84.5352L30.6953 84.418L30.3438 84.2891C29.4523 83.9749 28.5891 83.9094 27.7305 84.0664L27.3789 84.125L27.0391 84.1953C25.7502 84.4316 24.4519 84.4553 23.1602 84.2656L22.8086 84.2188L22.4688 84.1602C21.5355 84.0231 20.6 84.0708 19.6562 84.3008L19.3047 84.3828L18.9648 84.4648C17.6067 84.7962 16.2341 84.7998 14.875 84.4766L14.1719 84.3125C13.1478 84.0688 12.1286 83.9454 11.1133 83.9258L10.4102 83.9023C9.44876 83.8847 8.47651 84.023 7.49219 84.3242L7.15234 84.4297L6.80078 84.5352C5.15532 85.0387 3.58277 84.6792 2.23047 83.6094L1.92578 83.3633L1.60938 83.1172C0.933896 82.5817 0.37339 81.8771 0.179688 80.9727C-0.0169654 80.052 0.223213 79.1807 0.660156 78.4297L0.847656 78.1016L1.03516 77.7852C1.61076 76.796 2.0901 75.8054 2.48828 74.8203L2.61719 74.4922L2.75781 74.1641C3.2303 72.9954 3.83464 71.899 4.57422 70.8828L4.78516 70.6016L4.98438 70.3203C5.60164 69.4722 6.14115 68.5744 6.60156 67.6367L6.75391 67.332L6.90625 67.0156C7.43511 65.9387 8.03645 64.9029 8.71094 63.9102L8.91016 63.6172L9.10938 63.3359C9.69587 62.473 10.2054 61.5611 10.6328 60.6055L10.9141 59.9727C11.4333 58.8118 12.0999 57.7339 12.918 56.75L13.1523 56.4805L13.375 56.2109C14.0693 55.3763 14.7037 54.5065 15.2852 53.6094L15.6602 53.0234C16.2604 52.0971 16.845 51.1547 17.3945 50.1992L17.5586 49.9062L17.7344 49.6016C18.2568 48.6932 18.7045 47.7379 19.082 46.7422L19.3398 46.0859C19.7512 45.001 20.1776 43.9255 20.6289 42.8633L20.7695 42.5352L20.9102 42.2188C21.3998 41.0663 22.0112 39.982 22.75 38.9727L22.9492 38.6914L23.1602 38.4102C23.7814 37.5614 24.3206 36.6624 24.7891 35.7266L24.9531 35.4219L25.1055 35.1055C25.6842 33.9505 26.4397 32.9012 27.3672 31.9648L27.625 31.707L27.8828 31.4609C28.5776 30.7598 29.11 29.972 29.4883 29.1055L29.6172 28.7891L29.7578 28.4727C30.2034 27.4522 30.6329 26.4131 31.0352 25.3672L31.1641 25.0391L31.2812 24.7109C31.7448 23.5055 32.3836 22.3974 33.1797 21.3828L33.3906 21.1016L33.6133 20.832C34.2571 20.0117 34.8112 19.1387 35.2773 18.2188L35.4297 17.9141L35.582 17.5977L37.2461 14.2695L37.3984 13.9531C37.9498 12.8313 38.6335 11.7836 39.4375 10.8125L39.8828 10.2734C40.4822 9.54947 40.92 8.73281 41.1953 7.8125L41.3008 7.47266L41.3945 7.12109C41.7785 5.83742 42.3869 4.66522 43.1992 3.60547L43.4102 3.32422L43.6328 3.04297C44.5899 1.79479 45.9037 1.06558 47.4766 0.863281L47.8516 0.816406L48.2148 0.769531C48.8636 0.68643 49.5162 0.649633 50.0781 0.757812ZM48.6016 3.74609L48.2266 3.79297L47.8633 3.83984C47.0392 3.9454 46.4574 4.28982 46.0117 4.87109L45.7891 5.15234L45.5781 5.43359C44.9894 6.20234 44.5571 7.05173 44.2773 7.98828L44.0664 8.66797C43.6774 9.96958 43.0515 11.1447 42.1914 12.1836L41.7461 12.7227C41.0903 13.5148 40.5401 14.3691 40.0938 15.2773L39.9414 15.5938L39.7891 15.8984C39.2874 16.9193 38.7794 17.9431 38.2656 18.957L38.1016 19.2617L37.9492 19.5781C37.3938 20.6737 36.7321 21.711 35.9688 22.6836L35.7578 22.9531L35.5352 23.2344C34.9246 24.0129 34.4383 24.8626 34.082 25.7891L33.9648 26.1172L33.8359 26.4453C33.4178 27.5326 32.9752 28.6065 32.5117 29.668L32.3711 29.9844L32.2305 30.3125C31.7 31.526 30.9509 32.6147 30.0039 33.5703L29.7578 33.8281L29.5 34.0742C28.7868 34.7939 28.2218 35.5888 27.7891 36.4531L27.6367 36.7695L27.4727 37.0742C26.9295 38.1592 26.3048 39.1973 25.5859 40.1797L25.1641 40.7422C24.562 41.565 24.0636 42.4503 23.6641 43.3906L23.5352 43.707L23.3945 44.0352C22.9579 45.0629 22.5388 46.102 22.1406 47.1523L22.0117 47.4805L21.8945 47.8086C21.4612 48.9516 20.939 50.053 20.3359 51.1016L20.1602 51.3945L19.9844 51.6992C19.4093 52.699 18.8077 53.6832 18.1797 54.6523L17.8047 55.2383C17.1585 56.2354 16.4519 57.1971 15.6836 58.1211L15.4492 58.3906L15.2266 58.6719C14.5834 59.4458 14.0622 60.2849 13.6562 61.1914L13.5039 61.5078L13.3633 61.8359C12.8645 62.9504 12.267 64.0157 11.582 65.0234L11.3945 65.3047L11.1953 65.5977C10.5995 66.4746 10.0686 67.3887 9.60156 68.3398L9.44922 68.6562L9.29688 68.9609C8.76004 70.0543 8.12877 71.1024 7.41016 72.0898L7.21094 72.3711L7 72.6523C6.40548 73.4695 5.91597 74.3467 5.53516 75.2891L5.27734 75.9453C4.82214 77.0718 4.26834 78.1914 3.625 79.2969L3.4375 79.6133L3.25 79.9414C3.09987 80.2007 3.10529 80.3151 3.10938 80.3398C3.11249 80.3544 3.14639 80.5152 3.47266 80.7734L3.77734 81.0078L4.09375 81.2539C4.74823 81.7717 5.30745 81.8635 5.92188 81.6758L6.27344 81.5703L6.61328 81.4648C7.88661 81.0752 9.17566 80.8782 10.4688 80.9023L11.1719 80.9258C12.4093 80.9497 13.6464 81.1017 14.875 81.3945L15.2148 81.4766L15.5664 81.5586C16.4636 81.7724 17.3519 81.7777 18.25 81.5586L18.5898 81.4648L18.9414 81.3828C20.2543 81.0625 21.5788 81.0009 22.9023 81.1953L23.2539 81.2422L23.5938 81.3008C24.5577 81.4424 25.5215 81.4189 26.4883 81.2422L26.8398 81.1836L27.1914 81.1133C28.5866 80.8583 29.9775 80.9847 31.3398 81.4648L31.6914 81.582L32.0312 81.7109C33.0029 82.0537 33.9612 82.2152 34.9023 82.2031L35.2539 82.1914H35.5938C36.5757 82.1785 37.5702 82.025 38.5703 81.7227L38.9219 81.6172L39.2617 81.5117C40.56 81.1192 41.8784 80.9671 43.1992 81.0664L43.5391 81.0898L43.8906 81.1133C45.1028 81.2044 46.3175 81.3949 47.5234 81.6875L47.8633 81.7812L48.2148 81.8633C49.0557 82.0666 49.8935 82.0318 50.7578 81.7344L51.0977 81.6055L51.4492 81.4883C52.836 81.0111 54.2562 80.9257 55.668 81.2539L56.0078 81.3359L56.3594 81.418C57.3756 81.6541 58.3875 81.7655 59.3945 81.7578H60.0859C61.1934 81.7493 62.3065 81.7197 63.4141 81.6641L63.7539 81.6406L64.1055 81.6289C65.2383 81.572 66.3711 81.5212 67.5039 81.4766L67.8555 81.4531L68.1953 81.4414C69.334 81.3965 70.4785 81.3699 71.6172 81.3477L71.957 81.3359H72.3086C73.3865 81.3148 74.4641 81.2299 75.543 81.1016L75.8945 81.0664L76.2461 81.0195C77.6053 80.8586 78.9612 81.0155 80.2891 81.4648L80.6289 81.582L80.9805 81.6992C81.8636 81.9978 82.7251 82.0544 83.582 81.875L83.9219 81.793L84.2734 81.7227C85.5446 81.4569 86.8266 81.3826 88.1055 81.5L88.4453 81.5352L88.7969 81.5586C89.6532 81.6369 90.3799 81.4864 91.0234 81.1367L91.5859 80.832C92.031 80.5902 92.2711 80.2615 92.3125 79.6367L92.3242 79.2969L92.3477 78.957C92.3932 78.2612 92.2048 77.6543 91.7031 77.0703L91.2344 76.5312C90.4609 75.6316 89.7225 74.7027 89.0312 73.7539L88.832 73.4727L88.6211 73.1914C87.849 72.1305 87.2767 70.9559 86.9102 69.6758L86.8164 69.3242L86.7109 68.9844C86.4288 67.9977 86.0273 67.0869 85.5039 66.2539L85.3281 65.9609L85.1406 65.668C84.5193 64.6792 83.938 63.6664 83.3945 62.6328L83.0664 62.0234C82.5477 61.0369 82.0188 60.0527 81.4727 59.082L81.2969 58.7773L81.1328 58.4727C80.575 57.4812 80.0201 56.4863 79.4805 55.4844L79.1523 54.875C78.6623 53.9651 78.09 53.1006 77.4297 52.2852L77.207 52.0156L76.9844 51.7344C76.2374 50.8123 75.5302 49.8634 74.875 48.8867L74.6875 48.6055L74.4883 48.3125C73.8201 47.3165 73.2293 46.2754 72.707 45.1953L72.4023 44.5625C71.9226 43.5697 71.4122 42.5945 70.8789 41.6328L70.7148 41.3281L70.5391 41.0234C69.9666 39.9912 69.445 38.9292 68.9805 37.8359L68.8516 37.5078L68.7109 37.1914C68.3068 36.24 67.8092 35.3408 67.2227 34.4961L67.0234 34.2031L66.8242 33.9219C66.1509 32.9527 65.5259 31.9474 64.9492 30.9219L64.7852 30.6289L64.6094 30.3242C64.0645 29.3553 63.5089 28.3927 62.9336 27.4414L62.7461 27.1367L62.5703 26.8438C62.0209 25.9355 61.4043 25.0578 60.7305 24.2188L60.5195 23.9492L60.2969 23.6797C59.4714 22.6518 58.8482 21.4999 58.4219 20.2461L58.3047 19.918L58.1875 19.5781C57.8495 18.5847 57.4183 17.6473 56.8984 16.7656L56.7227 16.4727L56.5469 16.168C56.002 15.2439 55.4023 14.35 54.7539 13.4844L54.543 13.2031L54.3438 12.9219C53.6522 11.9987 52.9746 11.0637 52.3164 10.1211L51.918 9.55859C51.2076 8.54123 50.6136 7.45115 50.1367 6.30078L49.9961 5.97266L49.8672 5.65625C49.5385 4.86292 49.3059 4.18726 49.1406 3.6875C48.9943 3.69306 48.8162 3.71868 48.6016 3.74609Z" fill="#FFE41A"/>
</svg>
