<svg width="96" height="86" viewBox="0 0 96 86" fill="none" xmlns="http://www.w3.org/2000/svg">
<path d="M45.4019 3.5C46.5566 1.5 49.4434 1.5 50.5981 3.5L93.8993 78.5C95.054 80.5 93.6107 83 91.3013 83H4.69873C2.38933 83 0.945954 80.5 2.10065 78.5L45.4019 3.5Z" fill="#323232" fill-opacity="0.3"/>
<path d="M51.3856 5.40092L49.9998 5.97502L51.3856 5.40092ZM51.5195 5.72408L52.9052 5.14998L51.5195 5.72408ZM53.146 8.69525L54.3759 7.83649L53.146 8.69525ZM53.3453 8.98064L52.1155 9.8394L53.3453 8.98064ZM53.5446 9.26604L54.7745 8.40728L53.5446 9.26604ZM55.5399 12.0243L56.7405 11.125L55.5399 12.0243ZM55.7493 12.3039L54.5488 13.2031L55.7493 12.3039ZM55.9587 12.5834L57.1593 11.6842L55.9587 12.5834ZM57.8411 15.4069L59.1332 14.6451L57.8411 15.4069ZM58.1934 16.0044L59.4855 15.2426L58.1934 16.0044ZM59.6092 19.0973L61.0293 18.6144L59.6092 19.0973ZM59.723 19.432L61.1431 18.9491L59.723 19.432ZM59.8368 19.7668L61.2569 19.2838L59.8368 19.7668ZM61.4652 22.7369L60.2957 23.6761L61.4652 22.7369ZM61.9047 23.2841L63.0742 22.3449L61.9047 23.2841ZM63.8538 26.069L62.5703 26.8453L63.8538 26.069ZM64.0333 26.3658L65.3168 25.5895L64.0333 26.3658ZM64.2128 26.6626L62.9293 27.4389L64.2128 26.6626ZM65.9193 29.5877L64.6118 30.3229L65.9193 29.5877ZM66.0893 29.89L67.3967 29.1548L66.0893 29.89ZM66.2593 30.1923L67.5667 29.4571L66.2593 30.1923ZM68.0587 33.0637L69.2906 32.2078L68.0587 33.0637ZM68.4558 33.6353L67.2239 34.4911L68.4558 33.6353ZM70.0922 36.6008L71.4728 36.0143L70.0922 36.6008ZM70.2288 36.9224L68.8482 37.5088L70.2288 36.9224ZM70.3654 37.244L68.9848 37.8304L70.3654 37.244ZM71.8537 40.295L70.5419 41.0225L71.8537 40.295ZM72.0219 40.5983L70.7102 41.3258L72.0219 40.5983ZM72.1901 40.9016L73.5019 40.1741L72.1901 40.9016ZM73.7502 43.9112L75.1007 43.2586L73.7502 43.9112ZM73.9015 44.2243L72.5509 44.877L73.9015 44.2243ZM74.0528 44.5374L75.4033 43.8848L74.0528 44.5374ZM75.7369 47.4754L74.4912 48.311L75.7369 47.4754ZM75.9305 47.764L77.1762 46.9284L75.9305 47.764ZM78.1487 50.7941L79.3142 49.8498L78.1487 50.7941ZM78.3698 51.0669L77.2043 52.0112L78.3698 51.0669ZM78.5908 51.3397L79.7563 50.3955L78.5908 51.3397ZM80.4733 54.1632L81.7939 53.4519L80.4733 54.1632ZM80.6378 54.4687L79.3171 55.1799L80.6378 54.4687ZM80.8023 54.7741L82.1229 54.0628L80.8023 54.7741ZM82.4359 57.7413L81.1286 58.4768L82.4359 57.7413ZM82.6059 58.0435L83.9132 57.308L82.6059 58.0435ZM82.776 58.3458L81.4687 59.0813L82.776 58.3458ZM84.3949 61.3214L85.7226 60.6233L84.3949 61.3214ZM84.5564 61.6286L83.2287 62.3267L84.5564 61.6286ZM84.7179 61.9358L86.0456 61.2377L84.7179 61.9358ZM86.408 64.8703L87.6781 64.0722L86.408 64.8703ZM86.7773 65.458L85.5072 66.2561L86.7773 65.458ZM88.1587 68.5707L89.6008 68.1583L88.1587 68.5707ZM88.3552 69.2581L86.913 69.6706L88.3552 69.2581ZM89.8378 72.3125L91.0501 71.4292L89.8378 72.3125ZM90.0431 72.5944L88.8308 73.4776L90.0431 72.5944ZM90.2485 72.8762L91.4609 71.993L90.2485 72.8762ZM92.3748 75.5589L93.512 74.5808L92.3748 75.5589ZM92.6049 75.8265L91.4677 76.8046L92.6049 75.8265ZM92.835 76.0941L93.9723 75.116L92.835 76.0941ZM93.8263 79.3984L95.323 79.4976L93.8263 79.3984ZM93.8038 79.738L92.3071 79.6389L93.8038 79.738ZM92.3066 82.1501L93.0227 83.4681L92.3066 82.1501ZM91.7382 82.4589L91.0221 81.1409L91.7382 82.4589ZM88.6577 83.0574L88.7948 81.5636L88.6577 83.0574ZM87.9641 82.9937L87.827 84.4874L87.9641 82.9937ZM84.5777 83.1927L84.885 84.6609L84.5777 83.1927ZM84.2309 83.2653L83.9235 81.7971L84.2309 83.2653ZM83.8841 83.3379L84.1914 84.8061L83.8841 83.3379ZM80.4977 83.1193L80.9785 81.6985L80.4977 83.1193ZM80.1509 83.002L79.67 84.4228L80.1509 83.002ZM79.8041 82.8846L80.2849 81.4638L79.8041 82.8846ZM76.4177 82.5132L76.2403 81.0237L76.4177 82.5132ZM76.0709 82.5545L76.2482 84.044L76.0709 82.5545ZM75.7241 82.5958L75.5467 81.1063L75.7241 82.5958ZM72.3377 82.8305L72.3083 81.3308L72.3377 82.8305ZM71.9909 82.8373L71.9615 81.3376L71.9909 82.8373ZM71.6441 82.8441L71.6734 84.3438L71.6441 82.8441ZM68.2577 82.9439L68.3167 84.4428L68.2577 82.9439ZM67.9109 82.9576L67.8518 81.4588L67.9109 82.9576ZM67.5641 82.9713L67.6231 84.4701L67.5641 82.9713ZM64.1777 83.123L64.253 84.6212L64.1777 83.123ZM63.4841 83.1579L63.4088 81.6598L63.4841 83.1579ZM60.0977 83.2559L60.1091 84.7559L60.0977 83.2559ZM59.4041 83.2612L59.3926 81.7613L59.4041 83.2612ZM56.0177 82.8805L56.3573 81.4195L56.0177 82.8805ZM55.3241 82.7193L54.9844 84.1803L55.3241 82.7193ZM51.9377 82.9083L52.4258 84.3267L51.9377 82.9083ZM51.5909 83.0276L51.1028 81.6093L51.5909 83.0276ZM51.2441 83.147L51.7322 84.5654L51.2441 83.147ZM47.8577 83.3187L47.5039 84.7764L47.8577 83.3187ZM47.5109 83.2346L47.8646 81.7769L47.5109 83.2346ZM47.1641 83.1504L46.8103 84.6081L47.1641 83.1504ZM43.7777 82.6122L43.6652 84.108L43.7777 82.6122ZM43.0841 82.56L43.1965 81.0643L43.0841 82.56ZM39.6977 82.9447L40.1318 84.3805L39.6977 82.9447ZM39.3509 83.0496L39.785 84.4854L39.3509 83.0496ZM39.0041 83.1544L38.5699 81.7186L39.0041 83.1544ZM35.6177 83.6887L35.6374 85.1885L35.6177 83.6887ZM34.9241 83.6978L34.9044 82.1979L34.9241 83.6978ZM31.5377 83.1227L32.0367 81.7081L31.5377 83.1227ZM30.8441 82.878L30.345 84.2925L30.8441 82.878ZM27.4577 82.5911L27.7282 84.0665L27.4577 82.5911ZM27.1109 82.6546L26.8404 81.1792L27.1109 82.6546ZM26.7641 82.7182L27.0346 84.1936L26.7641 82.7182ZM23.3777 82.7799L23.1596 84.264L23.3777 82.7799ZM23.0309 82.729L22.8128 84.213L23.0309 82.729ZM22.6841 82.678L22.466 84.1621L22.6841 82.678ZM19.2977 82.8424L19.6532 84.2997L19.2977 82.8424ZM18.9509 82.927L18.5953 81.4698L18.9509 82.927ZM18.6041 83.0116L18.2485 81.5544L18.6041 83.0116ZM15.2177 83.0212L15.5654 81.5621L15.2177 83.0212ZM14.8709 82.9386L14.5231 84.3977L14.8709 82.9386ZM14.5241 82.8559L14.8718 81.3968L14.5241 82.8559ZM7.05526 82.8938L6.61635 81.4594L7.05526 82.8938ZM6.36068 83.1063L6.79959 84.5407L6.36068 83.1063ZM3.15942 82.4335L2.22853 83.6097L3.15942 82.4335ZM2.85104 82.1895L3.78193 81.0133L2.85104 82.1895ZM2.54265 81.9454L1.61176 83.1216L2.54265 81.9454ZM1.95218 79.1811L0.655718 78.4267L1.95218 79.1811ZM2.13962 78.859L3.43608 79.6134L2.13962 78.859ZM2.32707 78.5369L1.03061 77.7824L2.32707 78.5369ZM3.88267 75.3788L5.27348 75.9407L3.88267 75.3788ZM4.14501 74.7294L2.7542 74.1676L4.14501 74.7294ZM5.78735 71.7673L4.57453 70.8847L5.78735 71.7673ZM5.99256 71.4854L7.20537 72.368L5.99256 71.4854ZM6.19777 71.2034L4.98495 70.3207L6.19777 71.2034ZM7.94761 68.3034L6.60116 67.6423L7.94761 68.3034ZM8.254 67.6794L9.60046 68.3405L8.254 67.6794ZM9.95625 64.7519L11.1969 65.595L9.95625 64.7519ZM10.3472 64.1767L9.10658 63.3335L10.3472 64.1767ZM11.9965 61.2187L10.6273 60.6062L11.9965 61.2187ZM12.1389 60.9004L13.5082 61.5129L12.1389 60.9004ZM12.2812 60.5821L10.912 59.9697L12.2812 60.5821ZM14.075 57.7075L15.2282 58.6667L14.075 57.7075ZM14.3 57.437L13.1468 56.4777L14.3 57.437ZM14.5251 57.1664L15.6782 58.1257L14.5251 57.1664ZM16.5458 54.4228L15.287 53.6071L16.5458 54.4228ZM16.7346 54.1314L17.9934 54.9472L16.7346 54.1314ZM16.9235 53.84L15.6647 53.0242L16.9235 53.84ZM18.6897 50.9494L19.99 51.6973L18.6897 50.9494ZM18.8626 50.6488L17.5623 49.901L18.8626 50.6488ZM19.0355 50.3482L17.7352 49.6003L19.0355 50.3482ZM20.4878 47.2764L19.0852 46.7447L20.4878 47.2764ZM20.6124 46.9479L22.015 47.4796L20.6124 46.9479ZM20.7369 46.6193L19.3344 46.0876L20.7369 46.6193ZM22.0121 43.4453L20.6316 42.8587L22.0121 43.4453ZM22.2854 42.8022L23.666 43.3887L22.2854 42.8022ZM23.9585 39.8578L25.1689 40.7438L23.9585 39.8578ZM24.1645 39.5763L22.9541 38.6904L24.1645 39.5763ZM24.3705 39.2948L25.5809 40.1808L24.3705 39.2948ZM26.1358 36.4037L27.4771 37.0751L26.1358 36.4037ZM26.4468 35.7824L25.1054 35.1109L26.4468 35.7824ZM28.4384 33.022L29.5039 34.0778L28.4384 33.022ZM28.6908 32.7673L27.6254 31.7114L28.6908 32.7673ZM28.9433 32.5125L27.8778 31.4567L28.9433 32.5125ZM30.8574 29.7074L32.2321 30.3076L30.8574 29.7074ZM30.9971 29.3876L29.6224 28.7874L30.9971 29.3876ZM31.1367 29.0677L32.5114 29.6679L31.1367 29.0677ZM32.4337 25.9063L33.8338 26.4447L32.4337 25.9063ZM32.5597 25.5786L31.1597 25.0402L32.5597 25.5786ZM32.6858 25.2509L34.0858 25.7893L32.6858 25.2509ZM34.3569 22.3055L35.5369 23.2315L34.3569 22.3055ZM34.5732 22.0299L33.3932 21.1039L34.5732 22.0299ZM34.7895 21.7543L35.9695 22.6804L34.7895 21.7543ZM36.6118 18.8962L35.2738 18.2182L36.6118 18.8962ZM36.7688 18.5864L38.1069 19.2644L36.7688 18.5864ZM36.9258 18.2766L35.5878 17.5986L36.9258 18.2766ZM38.4407 15.2409L37.0944 14.5794L38.4407 15.2409ZM38.7472 14.617L40.0935 15.2785L38.7472 14.617ZM40.5909 11.7711L39.4355 10.8145L40.5909 11.7711ZM40.8152 11.5002L41.9706 12.4568L40.8152 11.5002ZM41.0395 11.2293L39.8841 10.2727L41.0395 11.2293ZM42.6329 8.23892L41.1957 7.80954L42.6329 8.23892ZM42.735 7.89738L44.1722 8.32676L42.735 7.89738ZM42.837 7.55584L41.3998 7.12646L42.837 7.55584ZM44.3878 4.51536L43.1973 3.60272L44.3878 4.51536ZM44.8189 3.95294L46.0094 4.86558L44.8189 3.95294ZM47.6705 2.34955L47.4799 0.861703L47.6705 2.34955ZM48.0389 2.30235L48.2295 3.79019L48.0389 2.30235ZM48.4074 2.25515L48.2168 0.76731L48.4074 2.25515ZM50.3689 2.63696L51.8187 2.25202L50.3689 2.63696ZM50.4022 2.76236L48.9525 3.14731L50.4022 2.76236ZM50.4355 2.88776L51.8853 2.50282L50.4355 2.88776ZM51.2517 5.07776L49.8659 5.65187L51.2517 5.07776ZM51.3856 5.40092L49.9998 5.97502L50.1337 6.29818L51.5195 5.72408L52.9052 5.14998L52.7714 4.82682L51.3856 5.40092ZM51.5195 5.72408L50.1337 6.29818C50.6108 7.44977 51.2051 8.53566 51.9162 9.554L53.146 8.69525L54.3759 7.83649C53.7897 6.99696 53.2997 6.10207 52.9052 5.14998L51.5195 5.72408ZM53.146 8.69525L51.9162 9.554L52.1155 9.8394L53.3453 8.98064L54.5752 8.12189L54.3759 7.83649L53.146 8.69525ZM53.3453 8.98064L52.1155 9.8394L52.3148 10.1248L53.5446 9.26604L54.7745 8.40728L54.5752 8.12189L53.3453 8.98064ZM53.5446 9.26604L52.3148 10.1248C52.973 11.0674 53.6478 12.0004 54.3394 12.9236L55.5399 12.0243L56.7405 11.125C56.0689 10.2284 55.4135 9.3225 54.7745 8.40728L53.5446 9.26604ZM55.5399 12.0243L54.3394 12.9236L54.5488 13.2031L55.7493 12.3039L56.9499 11.4046L56.7405 11.125L55.5399 12.0243ZM55.7493 12.3039L54.5488 13.2031L54.7582 13.4827L55.9587 12.5834L57.1593 11.6842L56.9499 11.4046L55.7493 12.3039ZM55.9587 12.5834L54.7582 13.4827C55.407 14.3488 56.0038 15.2441 56.549 16.1688L57.8411 15.4069L59.1332 14.6451C58.5317 13.6249 57.8736 12.6378 57.1593 11.6842L55.9587 12.5834ZM57.8411 15.4069L56.549 16.1688L56.7251 16.4675L58.0172 15.7057L59.3094 14.9438L59.1332 14.6451L57.8411 15.4069ZM58.0172 15.7057L56.7251 16.4675L56.9013 16.7663L58.1934 16.0044L59.4855 15.2426L59.3094 14.9438L58.0172 15.7057ZM58.1934 16.0044L56.9013 16.7663C57.4215 17.6486 57.8509 18.5859 58.189 19.5802L59.6092 19.0973L61.0293 18.6144C60.6264 17.4296 60.112 16.305 59.4855 15.2426L58.1934 16.0044ZM59.6092 19.0973L58.189 19.5802L58.3028 19.915L59.723 19.432L61.1431 18.9491L61.0293 18.6144L59.6092 19.0973ZM59.723 19.432L58.3028 19.915L58.4167 20.2497L59.8368 19.7668L61.2569 19.2838L61.1431 18.9491L59.723 19.432ZM59.8368 19.7668L58.4167 20.2497C58.843 21.5035 59.4702 22.6481 60.2957 23.6761L61.4652 22.7369L62.6348 21.7977C62.03 21.0445 61.5716 20.2091 61.2569 19.2838L59.8368 19.7668ZM61.4652 22.7369L60.2957 23.6761L60.5154 23.9497L61.685 23.0105L62.8545 22.0713L62.6348 21.7977L61.4652 22.7369ZM61.685 23.0105L60.5154 23.9497L60.7351 24.2233L61.9047 23.2841L63.0742 22.3449L62.8545 22.0713L61.685 23.0105ZM61.9047 23.2841L60.7351 24.2233C61.4092 25.0627 62.0207 25.9366 62.5703 26.8453L63.8538 26.069L65.1373 25.2927C64.5183 24.2692 63.8304 23.2865 63.0742 22.3449L61.9047 23.2841ZM63.8538 26.069L62.5703 26.8453L62.7498 27.1421L64.0333 26.3658L65.3168 25.5895L65.1373 25.2927L63.8538 26.069ZM64.0333 26.3658L62.7498 27.1421L62.9293 27.4389L64.2128 26.6626L65.4963 25.8863L65.3168 25.5895L64.0333 26.3658ZM64.2128 26.6626L62.9293 27.4389C63.5054 28.3914 64.0663 29.3528 64.6118 30.3229L65.9193 29.5877L67.2267 28.8525C66.6656 27.8547 66.0889 26.866 65.4963 25.8863L64.2128 26.6626ZM65.9193 29.5877L64.6118 30.3229L64.7818 30.6252L66.0893 29.89L67.3967 29.1548L67.2267 28.8525L65.9193 29.5877ZM66.0893 29.89L64.7818 30.6252L64.9518 30.9275L66.2593 30.1923L67.5667 29.4571L67.3967 29.1548L66.0893 29.89ZM66.2593 30.1923L64.9518 30.9275C65.5285 31.953 66.1535 32.9504 66.8268 33.9195L68.0587 33.0637L69.2906 32.2078C68.6713 31.3164 68.0967 30.3995 67.5667 29.4571L66.2593 30.1923ZM68.0587 33.0637L66.8268 33.9195L67.0254 34.2053L68.2573 33.3495L69.4891 32.4936L69.2906 32.2078L68.0587 33.0637ZM68.2573 33.3495L67.0254 34.2053L67.2239 34.4911L68.4558 33.6353L69.6877 32.7795L69.4891 32.4936L68.2573 33.3495ZM68.4558 33.6353L67.2239 34.4911C67.8113 35.3366 68.307 36.2348 68.7116 37.1873L70.0922 36.6008L71.4728 36.0143C70.9881 34.8733 70.3929 33.7945 69.6877 32.7795L68.4558 33.6353ZM70.0922 36.6008L68.7116 37.1873L68.8482 37.5088L70.2288 36.9224L71.6094 36.3359L71.4728 36.0143L70.0922 36.6008ZM70.2288 36.9224L68.8482 37.5088L68.9848 37.8304L70.3654 37.244L71.746 36.6575L71.6094 36.3359L70.2288 36.9224ZM70.3654 37.244L68.9848 37.8304C69.4498 38.925 69.9688 39.9891 70.5419 41.0225L71.8537 40.295L73.1655 39.5675C72.6435 38.6263 72.1703 37.6564 71.746 36.6575L70.3654 37.244ZM71.8537 40.295L70.5419 41.0225L70.7102 41.3258L72.0219 40.5983L73.3337 39.8708L73.1655 39.5675L71.8537 40.295ZM72.0219 40.5983L70.7102 41.3258L70.8784 41.6291L72.1901 40.9016L73.5019 40.1741L73.3337 39.8708L72.0219 40.5983ZM72.1901 40.9016L70.8784 41.6291C71.4123 42.5918 71.9193 43.57 72.3996 44.5639L73.7502 43.9112L75.1007 43.2586C74.5961 42.2142 74.0631 41.1861 73.5019 40.1741L72.1901 40.9016ZM73.7502 43.9112L72.3996 44.5639L72.5509 44.877L73.9015 44.2243L75.252 43.5717L75.1007 43.2586L73.7502 43.9112ZM73.9015 44.2243L72.5509 44.877L72.7022 45.1901L74.0528 44.5374L75.4033 43.8848L75.252 43.5717L73.9015 44.2243ZM74.0528 44.5374L72.7022 45.1901C73.2253 46.2725 73.8217 47.313 74.4912 48.311L75.7369 47.4754L76.9825 46.6398C76.3915 45.7587 75.8652 44.8405 75.4033 43.8848L74.0528 44.5374ZM75.7369 47.4754L74.4912 48.311L74.6848 48.5997L75.9305 47.764L77.1762 46.9284L76.9825 46.6398L75.7369 47.4754ZM75.9305 47.764L74.6848 48.5997L74.8784 48.8883L76.1241 48.0527L77.3698 47.2171L77.1762 46.9284L75.9305 47.764ZM76.1241 48.0527L74.8784 48.8883C75.534 49.8657 76.2357 50.8157 76.9832 51.7383L78.1487 50.7941L79.3142 49.8498C78.6228 48.9964 77.9747 48.1188 77.3698 47.2171L76.1241 48.0527ZM78.1487 50.7941L76.9832 51.7383L77.2043 52.0112L78.3698 51.0669L79.5353 50.1227L79.3142 49.8498L78.1487 50.7941ZM78.3698 51.0669L77.2043 52.0112L77.4253 52.284L78.5908 51.3397L79.7563 50.3955L79.5353 50.1227L78.3698 51.0669ZM78.5908 51.3397L77.4253 52.284C78.0866 53.1003 78.662 53.9635 79.1526 54.8745L80.4733 54.1632L81.7939 53.4519C81.2135 52.3743 80.5339 51.3553 79.7563 50.3955L78.5908 51.3397ZM80.4733 54.1632L79.1526 54.8745L79.3171 55.1799L80.6378 54.4687L81.9584 53.7574L81.7939 53.4519L80.4733 54.1632ZM80.6378 54.4687L79.3171 55.1799L79.4817 55.4854L80.8023 54.7741L82.1229 54.0628L81.9584 53.7574L80.6378 54.4687ZM80.8023 54.7741L79.4817 55.4854C80.0215 56.4878 80.5705 57.4849 81.1286 58.4768L82.4359 57.7413L83.7431 57.0057C83.1941 56.0299 82.6541 55.049 82.1229 54.0628L80.8023 54.7741ZM82.4359 57.7413L81.1286 58.4768L81.2986 58.7791L82.6059 58.0435L83.9132 57.308L83.7431 57.0057L82.4359 57.7413ZM82.6059 58.0435L81.2986 58.7791L81.4687 59.0813L82.776 58.3458L84.0833 57.6103L83.9132 57.308L82.6059 58.0435ZM82.776 58.3458L81.4687 59.0813C82.0153 60.0528 82.5481 61.0321 83.0672 62.0195L84.3949 61.3214L85.7226 60.6233C85.1902 59.6109 84.6438 58.6065 84.0833 57.6103L82.776 58.3458ZM84.3949 61.3214L83.0672 62.0195L83.2287 62.3267L84.5564 61.6286L85.8841 60.9305L85.7226 60.6233L84.3949 61.3214ZM84.5564 61.6286L83.2287 62.3267L83.3903 62.6339L84.7179 61.9358L86.0456 61.2377L85.8841 60.9305L84.5564 61.6286ZM84.7179 61.9358L83.3903 62.6339C83.9339 63.6678 84.5165 64.6793 85.1379 65.6684L86.408 64.8703L87.6781 64.0722C87.0976 63.1484 86.5534 62.2036 86.0456 61.2377L84.7179 61.9358ZM86.408 64.8703L85.1379 65.6684L85.3226 65.9622L86.5927 65.1641L87.8627 64.3661L87.6781 64.0722L86.408 64.8703ZM86.5927 65.1641L85.3226 65.9622L85.5072 66.2561L86.7773 65.458L88.0474 64.6599L87.8627 64.3661L86.5927 65.1641ZM86.7773 65.458L85.5072 66.2561C86.0307 67.0891 86.4343 67.9963 86.7165 68.9831L88.1587 68.5707L89.6008 68.1583C89.2432 66.9077 88.7259 65.7397 88.0474 64.6599L86.7773 65.458ZM88.1587 68.5707L86.7165 68.9831L86.8147 69.3269L88.2569 68.9144L89.6991 68.502L89.6008 68.1583L88.1587 68.5707ZM88.2569 68.9144L86.8147 69.3269L86.913 69.6706L88.3552 69.2581L89.7974 68.8457L89.6991 68.502L88.2569 68.9144ZM88.3552 69.2581L86.913 69.6706C87.2801 70.9542 87.8507 72.1324 88.6254 73.1958L89.8378 72.3125L91.0501 71.4292C90.4879 70.6575 90.0702 69.7995 89.7974 68.8457L88.3552 69.2581ZM89.8378 72.3125L88.6254 73.1958L88.8308 73.4776L90.0431 72.5944L91.2555 71.7111L91.0501 71.4292L89.8378 72.3125ZM90.0431 72.5944L88.8308 73.4776L89.0362 73.7595L90.2485 72.8762L91.4609 71.993L91.2555 71.7111L90.0431 72.5944ZM90.2485 72.8762L89.0362 73.7595C89.7286 74.71 90.4625 75.6358 91.2375 76.537L92.3748 75.5589L93.512 74.5808C92.789 73.7401 92.1053 72.8775 91.4609 71.993L90.2485 72.8762ZM92.3748 75.5589L91.2375 76.537L91.4677 76.8046L92.6049 75.8265L93.7422 74.8484L93.512 74.5808L92.3748 75.5589ZM92.6049 75.8265L91.4677 76.8046L91.6978 77.0722L92.835 76.0941L93.9723 75.116L93.7422 74.8484L92.6049 75.8265ZM92.835 76.0941L91.6978 77.0722C92.201 77.6573 92.3983 78.2622 92.3521 78.9596L93.8488 79.0588L95.3455 79.1579C95.4458 77.6443 94.9672 76.2728 93.9723 75.116L92.835 76.0941ZM93.8488 79.0588L92.3521 78.9596L92.3296 79.2993L93.8263 79.3984L95.323 79.4976L95.3455 79.1579L93.8488 79.0588ZM93.8263 79.3984L92.3296 79.2993L92.3071 79.6389L93.8038 79.738L95.3005 79.8372L95.323 79.4976L93.8263 79.3984ZM93.8038 79.738L92.3071 79.6389C92.2657 80.2637 92.0355 80.5903 91.5904 80.8321L92.3066 82.1501L93.0227 83.4681C94.4275 82.7048 95.1954 81.4234 95.3005 79.8372L93.8038 79.738ZM92.3066 82.1501L91.5904 80.8321L91.3063 80.9865L92.0224 82.3045L92.7385 83.6225L93.0227 83.4681L92.3066 82.1501ZM92.0224 82.3045L91.3063 80.9865L91.0221 81.1409L91.7382 82.4589L92.4544 83.7769L92.7385 83.6225L92.0224 82.3045ZM91.7382 82.4589L91.0221 81.1409C90.3782 81.4908 89.6518 81.6423 88.7948 81.5636L88.6577 83.0574L88.5206 84.5511C89.9211 84.6796 91.2485 84.4322 92.4544 83.7769L91.7382 82.4589ZM88.6577 83.0574L88.7948 81.5636L88.448 81.5318L88.3109 83.0255L88.1738 84.5192L88.5206 84.5511L88.6577 83.0574ZM88.3109 83.0255L88.448 81.5318L88.1012 81.5L87.9641 82.9937L87.827 84.4874L88.1738 84.5192L88.3109 83.0255ZM87.9641 82.9937L88.1012 81.5C86.8212 81.3825 85.5426 81.4582 84.2703 81.7245L84.5777 83.1927L84.885 84.6609C85.8703 84.4546 86.8493 84.3977 87.827 84.4874L87.9641 82.9937ZM84.5777 83.1927L84.2703 81.7245L83.9235 81.7971L84.2309 83.2653L84.5382 84.7335L84.885 84.6609L84.5777 83.1927ZM84.2309 83.2653L83.9235 81.7971L83.5767 81.8697L83.8841 83.3379L84.1914 84.8061L84.5382 84.7335L84.2309 83.2653ZM83.8841 83.3379L83.5767 81.8697C82.7192 82.0493 81.8624 81.9976 80.9785 81.6985L80.4977 83.1193L80.0168 84.5402C81.3906 85.0051 82.7914 85.0992 84.1914 84.8061L83.8841 83.3379ZM80.4977 83.1193L80.9785 81.6985L80.6317 81.5811L80.1509 83.002L79.67 84.4228L80.0168 84.5402L80.4977 83.1193ZM80.1509 83.002L80.6317 81.5811L80.2849 81.4638L79.8041 82.8846L79.3232 84.3054L79.67 84.4228L80.1509 83.002ZM79.8041 82.8846L80.2849 81.4638C78.955 81.0137 77.6016 80.8616 76.2403 81.0237L76.4177 82.5132L76.595 84.0027C77.4913 83.896 78.3955 83.9915 79.3232 84.3054L79.8041 82.8846ZM76.4177 82.5132L76.2403 81.0237L75.8935 81.065L76.0709 82.5545L76.2482 84.044L76.595 84.0027L76.4177 82.5132ZM76.0709 82.5545L75.8935 81.065L75.5467 81.1063L75.7241 82.5958L75.9014 84.0853L76.2482 84.044L76.0709 82.5545ZM75.7241 82.5958L75.5467 81.1063C74.4667 81.2349 73.3873 81.3097 72.3083 81.3308L72.3377 82.8305L72.367 84.3302C73.5456 84.3072 74.7238 84.2255 75.9014 84.0853L75.7241 82.5958ZM72.3377 82.8305L72.3083 81.3308L71.9615 81.3376L71.9909 82.8373L72.0202 84.337L72.367 84.3302L72.3377 82.8305ZM71.9909 82.8373L71.9615 81.3376L71.6147 81.3444L71.6441 82.8441L71.6734 84.3438L72.0202 84.337L71.9909 82.8373ZM71.6441 82.8441L71.6147 81.3444C70.476 81.3667 69.3373 81.4002 68.1986 81.4451L68.2577 82.9439L68.3167 84.4428C69.4356 84.3987 70.5545 84.3657 71.6734 84.3438L71.6441 82.8441ZM68.2577 82.9439L68.1986 81.4451L67.8518 81.4588L67.9109 82.9576L67.9699 84.4564L68.3167 84.4428L68.2577 82.9439ZM67.9109 82.9576L67.8518 81.4588L67.505 81.4724L67.5641 82.9713L67.6231 84.4701L67.9699 84.4564L67.9109 82.9576ZM67.5641 82.9713L67.505 81.4724C66.3708 81.5171 65.2366 81.5679 64.1024 81.6249L64.1777 83.123L64.253 84.6212C65.3763 84.5647 66.4997 84.5143 67.6231 84.4701L67.5641 82.9713ZM64.1777 83.123L64.1024 81.6249L63.7556 81.6424L63.8309 83.1405L63.9062 84.6386L64.253 84.6212L64.1777 83.123ZM63.8309 83.1405L63.7556 81.6424L63.4088 81.6598L63.4841 83.1579L63.5593 84.656L63.9062 84.6386L63.8309 83.1405ZM63.4841 83.1579L63.4088 81.6598C62.3012 81.7154 61.1937 81.7475 60.0862 81.756L60.0977 83.2559L60.1091 84.7559C61.2592 84.7471 62.4093 84.7138 63.5593 84.656L63.4841 83.1579ZM60.0977 83.2559L60.0862 81.756L59.7394 81.7586L59.7509 83.2586L59.7623 84.7586L60.1091 84.7559L60.0977 83.2559ZM59.7509 83.2586L59.7394 81.7586L59.3926 81.7613L59.4041 83.2612L59.4155 84.7612L59.7623 84.7586L59.7509 83.2586ZM59.4041 83.2612L59.3926 81.7613C58.3851 81.769 57.3741 81.6559 56.3573 81.4195L56.0177 82.8805L55.678 84.3416C56.9188 84.6301 58.1654 84.7708 59.4155 84.7612L59.4041 83.2612ZM56.0177 82.8805L56.3573 81.4195L56.0105 81.3389L55.6709 82.7999L55.3312 84.261L55.678 84.3416L56.0177 82.8805ZM55.6709 82.7999L56.0105 81.3389L55.6637 81.2583L55.3241 82.7193L54.9844 84.1803L55.3312 84.261L55.6709 82.7999ZM55.3241 82.7193L55.6637 81.2583C54.2519 80.93 52.8364 81.0127 51.4496 81.4899L51.9377 82.9083L52.4258 84.3267C53.2966 84.027 54.1386 83.9837 54.9844 84.1803L55.3241 82.7193ZM51.9377 82.9083L51.4496 81.4899L51.1028 81.6093L51.5909 83.0276L52.079 84.446L52.4258 84.3267L51.9377 82.9083ZM51.5909 83.0276L51.1028 81.6093L50.756 81.7286L51.2441 83.147L51.7322 84.5654L52.079 84.446L51.5909 83.0276ZM51.2441 83.147L50.756 81.7286C49.8903 82.0265 49.0536 82.0654 48.2114 81.861L47.8577 83.3187L47.5039 84.7764C48.9194 85.1199 50.3402 85.0443 51.7322 84.5654L51.2441 83.147ZM47.8577 83.3187L48.2114 81.861L47.8646 81.7769L47.5109 83.2346L47.1571 84.6923L47.5039 84.7764L47.8577 83.3187ZM47.5109 83.2346L47.8646 81.7769L47.5178 81.6927L47.1641 83.1504L46.8103 84.6081L47.1571 84.6923L47.5109 83.2346ZM47.1641 83.1504L47.5178 81.6927C46.3118 81.4001 45.1024 81.2076 43.8901 81.1164L43.7777 82.6122L43.6652 84.108C44.7106 84.1866 45.7587 84.3529 46.8103 84.6081L47.1641 83.1504ZM43.7777 82.6122L43.8901 81.1164L43.5433 81.0903L43.4309 82.5861L43.3184 84.0819L43.6652 84.108L43.7777 82.6122ZM43.4309 82.5861L43.5433 81.0903L43.1965 81.0643L43.0841 82.56L42.9716 84.0558L43.3184 84.0819L43.4309 82.5861ZM43.0841 82.56L43.1965 81.0643C41.8757 80.9649 40.5618 81.1163 39.2635 81.5089L39.6977 82.9447L40.1318 84.3805C41.0912 84.0904 42.0348 83.9854 42.9716 84.0558L43.0841 82.56ZM39.6977 82.9447L39.2635 81.5089L38.9167 81.6138L39.3509 83.0496L39.785 84.4854L40.1318 84.3805L39.6977 82.9447ZM39.3509 83.0496L38.9167 81.6138L38.5699 81.7186L39.0041 83.1544L39.4382 84.5902L39.785 84.4854L39.3509 83.0496ZM39.0041 83.1544L38.5699 81.7186C37.5696 82.0211 36.5801 82.1759 35.598 82.1888L35.6177 83.6887L35.6374 85.1885C36.9128 85.1718 38.181 84.9704 39.4382 84.5902L39.0041 83.1544ZM35.6177 83.6887L35.598 82.1888L35.2512 82.1934L35.2709 83.6932L35.2906 85.1931L35.6374 85.1885L35.6177 83.6887ZM35.2709 83.6932L35.2512 82.1934L34.9044 82.1979L34.9241 83.6978L34.9438 85.1976L35.2906 85.1931L35.2709 83.6932ZM34.9241 83.6978L34.9044 82.1979C33.9626 82.2103 33.0091 82.0512 32.0367 81.7081L31.5377 83.1227L31.0386 84.5372C32.3238 84.9906 33.6279 85.2149 34.9438 85.1976L34.9241 83.6978ZM31.5377 83.1227L32.0367 81.7081L31.6899 81.5858L31.1909 83.0003L30.6918 84.4149L31.0386 84.5372L31.5377 83.1227ZM31.1909 83.0003L31.6899 81.5858L31.3431 81.4634L30.8441 82.878L30.345 84.2925L30.6918 84.4149L31.1909 83.0003ZM30.8441 82.878L31.3431 81.4634C29.9786 80.982 28.5847 80.8594 27.1872 81.1156L27.4577 82.5911L27.7282 84.0665C28.5882 83.9088 29.452 83.9775 30.345 84.2925L30.8441 82.878ZM27.4577 82.5911L27.1872 81.1156L26.8404 81.1792L27.1109 82.6546L27.3814 84.1301L27.7282 84.0665L27.4577 82.5911ZM27.1109 82.6546L26.8404 81.1792L26.4936 81.2428L26.7641 82.7182L27.0346 84.1936L27.3814 84.1301L27.1109 82.6546ZM26.7641 82.7182L26.4936 81.2428C25.5251 81.4204 24.5613 81.4377 23.5957 81.2958L23.3777 82.7799L23.1596 84.264C24.4516 84.4538 25.7455 84.43 27.0346 84.1936L26.7641 82.7182ZM23.3777 82.7799L23.5957 81.2958L23.2489 81.2449L23.0309 82.729L22.8128 84.213L23.1596 84.264L23.3777 82.7799ZM23.0309 82.729L23.2489 81.2449L22.9021 81.194L22.6841 82.678L22.466 84.1621L22.8128 84.213L23.0309 82.729ZM22.6841 82.678L22.9021 81.194C21.5786 80.9995 20.2551 81.0648 18.9421 81.3852L19.2977 82.8424L19.6532 84.2997C20.5979 84.0692 21.5319 84.0249 22.466 84.1621L22.6841 82.678ZM19.2977 82.8424L18.9421 81.3852L18.5953 81.4698L18.9509 82.927L19.3064 84.3843L19.6532 84.2997L19.2977 82.8424ZM18.9509 82.927L18.5953 81.4698L18.2485 81.5544L18.6041 83.0116L18.9596 84.4689L19.3064 84.3843L18.9509 82.927ZM18.6041 83.0116L18.2485 81.5544C17.3504 81.7735 16.4626 81.7759 15.5654 81.5621L15.2177 83.0212L14.8699 84.4803C16.2303 84.8046 17.6002 84.8006 18.9596 84.4689L18.6041 83.0116ZM15.2177 83.0212L15.5654 81.5621L15.2186 81.4794L14.8709 82.9386L14.5231 84.3977L14.8699 84.4803L15.2177 83.0212ZM14.8709 82.9386L15.2186 81.4794L14.8718 81.3968L14.5241 82.8559L14.1763 84.315L14.5231 84.3977L14.8709 82.9386ZM14.5241 82.8559L14.8718 81.3968C13.6413 81.1035 12.4055 80.944 11.1661 80.9205L11.1377 82.4202L11.1092 83.9199C12.1275 83.9393 13.1493 84.0702 14.1763 84.315L14.5241 82.8559ZM11.1377 82.4202L11.1661 80.9205L10.8193 80.9139L10.7909 82.4136L10.7624 83.9134L11.1092 83.9199L11.1377 82.4202ZM10.7909 82.4136L10.8193 80.9139L10.4725 80.9073L10.4441 82.4071L10.4156 83.9068L10.7624 83.9134L10.7909 82.4136ZM10.4441 82.4071L10.4725 80.9073C9.17813 80.8828 7.89094 81.0694 6.61635 81.4594L7.05526 82.8938L7.49418 84.3281C8.48039 84.0263 9.4524 83.8885 10.4156 83.9068L10.4441 82.4071ZM7.05526 82.8938L6.61635 81.4594L6.26906 81.5657L6.70797 83L7.14689 84.4344L7.49418 84.3281L7.05526 82.8938ZM6.70797 83L6.26906 81.5657L5.92176 81.672L6.36068 83.1063L6.79959 84.5407L7.14689 84.4344L6.70797 83ZM6.36068 83.1063L5.92176 81.672C5.30683 81.8601 4.74532 81.7757 4.09032 81.2573L3.15942 82.4335L2.22853 83.6097C3.58106 84.6802 5.15372 85.0443 6.79959 84.5407L6.36068 83.1063ZM3.15942 82.4335L4.09032 81.2573L3.78193 81.0133L2.85104 82.1895L1.92014 83.3657L2.22853 83.6097L3.15942 82.4335ZM2.85104 82.1895L3.78193 81.0133L3.47355 80.7692L2.54265 81.9454L1.61176 83.1216L1.92014 83.3657L2.85104 82.1895ZM2.54265 81.9454L3.47355 80.7692C3.14727 80.511 3.11223 80.3597 3.10911 80.3452C3.10897 80.3445 3.07558 80.2329 3.24863 79.9356L1.95218 79.1811L0.655718 78.4267C0.21865 79.1777 -0.0213833 80.0511 0.175299 80.9718C0.369009 81.8787 0.934258 82.5854 1.61176 83.1216L2.54265 81.9454ZM1.95218 79.1811L3.24863 79.9356L3.43608 79.6134L2.13962 78.859L0.843163 78.1045L0.655718 78.4267L1.95218 79.1811ZM2.13962 78.859L3.43608 79.6134L3.62353 79.2913L2.32707 78.5369L1.03061 77.7824L0.843163 78.1045L2.13962 78.859ZM2.32707 78.5369L3.62353 79.2913C4.26737 78.1849 4.81807 77.068 5.27348 75.9407L3.88267 75.3788L2.49186 74.817C2.09337 75.8035 1.607 76.792 1.03061 77.7824L2.32707 78.5369ZM3.88267 75.3788L5.27348 75.9407L5.40465 75.6159L4.01384 75.0541L2.62303 74.4923L2.49186 74.817L3.88267 75.3788ZM4.01384 75.0541L5.40465 75.6159L5.53582 75.2912L4.14501 74.7294L2.7542 74.1676L2.62303 74.4923L4.01384 75.0541ZM4.14501 74.7294L5.53582 75.2912C5.91699 74.3476 6.40477 73.4681 7.00016 72.65L5.78735 71.7673L4.57453 70.8847C3.83404 71.9021 3.22693 72.9973 2.7542 74.1676L4.14501 74.7294ZM5.78735 71.7673L7.00016 72.65L7.20537 72.368L5.99256 71.4854L4.77974 70.6027L4.57453 70.8847L5.78735 71.7673ZM5.99256 71.4854L7.20537 72.368L7.41058 72.086L6.19777 71.2034L4.98495 70.3207L4.77974 70.6027L5.99256 71.4854ZM6.19777 71.2034L7.41058 72.086C8.1292 71.0986 8.75724 70.0578 9.29407 68.9645L7.94761 68.3034L6.60116 67.6423C6.14074 68.58 5.60221 69.4726 4.98495 70.3207L6.19777 71.2034ZM7.94761 68.3034L9.29407 68.9645L9.44726 68.6525L8.10081 67.9914L6.75435 67.3303L6.60116 67.6423L7.94761 68.3034ZM8.10081 67.9914L9.44726 68.6525L9.60046 68.3405L8.254 67.6794L6.90754 67.0183L6.75435 67.3303L8.10081 67.9914ZM8.254 67.6794L9.60046 68.3405C10.0681 67.388 10.6001 66.4731 11.1969 65.595L9.95625 64.7519L8.71565 63.9087C8.03995 64.9029 7.43716 65.9396 6.90754 67.0183L8.254 67.6794ZM9.95625 64.7519L11.1969 65.595L11.3923 65.3074L10.1517 64.4643L8.91112 63.6211L8.71565 63.9087L9.95625 64.7519ZM10.1517 64.4643L11.3923 65.3074L11.5878 65.0198L10.3472 64.1767L9.10658 63.3335L8.91112 63.6211L10.1517 64.4643ZM10.3472 64.1767L11.5878 65.0198C12.2737 64.0106 12.8665 62.9474 13.3658 61.8311L11.9965 61.2187L10.6273 60.6062C10.1998 61.5618 9.69307 62.4706 9.10658 63.3335L10.3472 64.1767ZM11.9965 61.2187L13.3658 61.8311L13.5082 61.5129L12.1389 60.9004L10.7696 60.2879L10.6273 60.6062L11.9965 61.2187ZM12.1389 60.9004L13.5082 61.5129L13.6505 61.1946L12.2812 60.5821L10.912 59.9697L10.7696 60.2879L12.1389 60.9004ZM12.2812 60.5821L13.6505 61.1946C14.0575 60.2848 14.5824 59.4431 15.2282 58.6667L14.075 57.7075L12.9218 56.7482C12.1027 57.733 11.4317 58.8077 10.912 59.9697L12.2812 60.5821ZM14.075 57.7075L15.2282 58.6667L15.4532 58.3962L14.3 57.437L13.1468 56.4777L12.9218 56.7482L14.075 57.7075ZM14.3 57.437L15.4532 58.3962L15.6782 58.1257L14.5251 57.1664L13.3719 56.2072L13.1468 56.4777L14.3 57.437ZM14.5251 57.1664L15.6782 58.1257C16.4482 57.2001 17.1571 56.2377 17.8046 55.2386L16.5458 54.4228L15.287 53.6071C14.7051 54.5051 14.0668 55.3717 13.3719 56.2072L14.5251 57.1664ZM16.5458 54.4228L17.8046 55.2386L17.9934 54.9472L16.7346 54.1314L15.4759 53.3157L15.287 53.6071L16.5458 54.4228ZM16.7346 54.1314L17.9934 54.9472L18.1823 54.6557L16.9235 53.84L15.6647 53.0242L15.4759 53.3157L16.7346 54.1314ZM16.9235 53.84L18.1823 54.6557C18.8114 53.685 19.414 52.6988 19.99 51.6973L18.6897 50.9494L17.3894 50.2016C16.8399 51.1571 16.265 52.0979 15.6647 53.0242L16.9235 53.84ZM18.6897 50.9494L19.99 51.6973L20.1629 51.3967L18.8626 50.6488L17.5623 49.901L17.3894 50.2016L18.6897 50.9494ZM18.8626 50.6488L20.1629 51.3967L20.3358 51.0961L19.0355 50.3482L17.7352 49.6003L17.5623 49.901L18.8626 50.6488ZM19.0355 50.3482L20.3358 51.0961C20.9389 50.0475 21.4571 48.9512 21.8904 47.8082L20.4878 47.2764L19.0852 46.7447C18.7078 47.7404 18.2577 48.6919 17.7352 49.6003L19.0355 50.3482ZM20.4878 47.2764L21.8904 47.8082L22.015 47.4796L20.6124 46.9479L19.2098 46.4161L19.0852 46.7447L20.4878 47.2764ZM20.6124 46.9479L22.015 47.4796L22.1395 47.1511L20.7369 46.6193L19.3344 46.0876L19.2098 46.4161L20.6124 46.9479ZM20.7369 46.6193L22.1395 47.1511C22.538 46.1 22.9557 45.0603 23.3927 44.0319L22.0121 43.4453L20.6316 42.8587C20.1791 43.9236 19.7467 44.9999 19.3344 46.0876L20.7369 46.6193ZM22.0121 43.4453L23.3927 44.0319L23.5293 43.7103L22.1488 43.1237L20.7682 42.5371L20.6316 42.8587L22.0121 43.4453ZM22.1488 43.1237L23.5293 43.7103L23.666 43.3887L22.2854 42.8022L20.9049 42.2156L20.7682 42.5371L22.1488 43.1237ZM22.2854 42.8022L23.666 43.3887C24.0657 42.4479 24.5663 41.5669 25.1689 40.7438L23.9585 39.8578L22.7481 38.9719C22.0093 39.9812 21.3945 41.0631 20.9049 42.2156L22.2854 42.8022ZM23.9585 39.8578L25.1689 40.7438L25.3749 40.4623L24.1645 39.5763L22.9541 38.6904L22.7481 38.9719L23.9585 39.8578ZM24.1645 39.5763L25.3749 40.4623L25.5809 40.1808L24.3705 39.2948L23.1601 38.4089L22.9541 38.6904L24.1645 39.5763ZM24.3705 39.2948L25.5809 40.1808C26.301 39.1971 26.9332 38.1617 27.4771 37.0751L26.1358 36.4037L24.7944 35.7323C24.326 36.6681 23.7814 37.5601 23.1601 38.4089L24.3705 39.2948ZM26.1358 36.4037L27.4771 37.0751L27.6326 36.7645L26.2913 36.093L24.9499 35.4216L24.7944 35.7323L26.1358 36.4037ZM26.2913 36.093L27.6326 36.7645L27.7881 36.4538L26.4468 35.7824L25.1054 35.1109L24.9499 35.4216L26.2913 36.093ZM26.4468 35.7824L27.7881 36.4538C28.221 35.5891 28.7904 34.7978 29.5039 34.0778L28.4384 33.022L27.373 31.9661C26.4433 32.9043 25.6849 33.9533 25.1054 35.1109L26.4468 35.7824ZM28.4384 33.022L29.5039 34.0778L29.7563 33.8231L28.6908 32.7673L27.6254 31.7114L27.373 31.9661L28.4384 33.022ZM28.6908 32.7673L29.7563 33.8231L30.0087 33.5684L28.9433 32.5125L27.8778 31.4567L27.6254 31.7114L28.6908 32.7673ZM28.9433 32.5125L30.0087 33.5684C30.957 32.6115 31.7015 31.523 32.2321 30.3076L30.8574 29.7074L29.4827 29.1072C29.1044 29.9739 28.5728 30.7554 27.8778 31.4567L28.9433 32.5125ZM30.8574 29.7074L32.2321 30.3076L32.3717 29.9878L30.9971 29.3876L29.6224 28.7874L29.4827 29.1072L30.8574 29.7074ZM30.9971 29.3876L32.3717 29.9878L32.5114 29.6679L31.1367 29.0677L29.762 28.4675L29.6224 28.7874L30.9971 29.3876ZM31.1367 29.0677L32.5114 29.6679C32.9749 28.6064 33.4157 27.532 33.8338 26.4447L32.4337 25.9063L31.0337 25.3679C30.6315 26.4139 30.2076 27.4471 29.762 28.4675L31.1367 29.0677ZM32.4337 25.9063L33.8338 26.4447L33.9598 26.117L32.5597 25.5786L31.1597 25.0402L31.0337 25.3679L32.4337 25.9063ZM32.5597 25.5786L33.9598 26.117L34.0858 25.7893L32.6858 25.2509L31.2857 24.7125L31.1597 25.0402L32.5597 25.5786ZM32.6858 25.2509L34.0858 25.7893C34.4425 24.8618 34.9254 24.0107 35.5369 23.2315L34.3569 22.3055L33.1769 21.3794C32.3805 22.3943 31.7494 23.5068 31.2857 24.7125L32.6858 25.2509ZM34.3569 22.3055L35.5369 23.2315L35.7532 22.956L34.5732 22.0299L33.3932 21.1039L33.1769 21.3794L34.3569 22.3055ZM34.5732 22.0299L35.7532 22.956L35.9695 22.6804L34.7895 21.7543L33.6095 20.8283L33.3932 21.1039L34.5732 22.0299ZM34.7895 21.7543L35.9695 22.6804C36.7336 21.7067 37.3941 20.671 37.9499 19.5742L36.6118 18.8962L35.2738 18.2182C34.8076 19.1382 34.2533 20.0079 33.6095 20.8283L34.7895 21.7543ZM36.6118 18.8962L37.9499 19.5742L38.1069 19.2644L36.7688 18.5864L35.4308 17.9084L35.2738 18.2182L36.6118 18.8962ZM36.7688 18.5864L38.1069 19.2644L38.2638 18.9545L36.9258 18.2766L35.5878 17.5986L35.4308 17.9084L36.7688 18.5864ZM36.9258 18.2766L38.2638 18.9545C38.7776 17.9406 39.2853 16.9233 39.7869 15.9024L38.4407 15.2409L37.0944 14.5794C36.5982 15.5892 36.096 16.5956 35.5878 17.5986L36.9258 18.2766ZM38.4407 15.2409L39.7869 15.9024L39.9402 15.5905L38.594 14.9289L37.2477 14.2674L37.0944 14.5794L38.4407 15.2409ZM38.594 14.9289L39.9402 15.5905L40.0935 15.2785L38.7472 14.617L37.401 13.9555L37.2477 14.2674L38.594 14.9289ZM38.7472 14.617L40.0935 15.2785C40.54 14.3699 41.0902 13.5202 41.7463 12.7277L40.5909 11.7711L39.4355 10.8145C38.6313 11.7858 37.9524 12.8333 37.401 13.9555L38.7472 14.617ZM40.5909 11.7711L41.7463 12.7277L41.9706 12.4568L40.8152 11.5002L39.6598 10.5436L39.4355 10.8145L40.5909 11.7711ZM40.8152 11.5002L41.9706 12.4568L42.1949 12.1859L41.0395 11.2293L39.8841 10.2727L39.6598 10.5436L40.8152 11.5002ZM41.0395 11.2293L42.1949 12.1859C43.0552 11.1468 43.6812 9.9702 44.0701 8.6683L42.6329 8.23892L41.1957 7.80954C40.9204 8.731 40.4842 9.54794 39.8841 10.2727L41.0395 11.2293ZM42.6329 8.23892L44.0701 8.6683L44.1722 8.32676L42.735 7.89738L41.2977 7.468L41.1957 7.80954L42.6329 8.23892ZM42.735 7.89738L44.1722 8.32676L44.2742 7.98522L42.837 7.55584L41.3998 7.12646L41.2977 7.468L42.735 7.89738ZM42.837 7.55584L44.2742 7.98522C44.5544 7.04723 44.9881 6.19769 45.5782 5.428L44.3878 4.51536L43.1973 3.60272C42.384 4.66365 41.7838 5.8411 41.3998 7.12646L42.837 7.55584ZM44.3878 4.51536L45.5782 5.428L45.7938 5.14679L44.6034 4.23415L43.4129 3.32151L43.1973 3.60272L44.3878 4.51536ZM44.6034 4.23415L45.7938 5.14679L46.0094 4.86558L44.8189 3.95294L43.6285 3.0403L43.4129 3.32151L44.6034 4.23415ZM44.8189 3.95294L46.0094 4.86558C46.455 4.28431 47.037 3.94294 47.8611 3.83739L47.6705 2.34955L47.4799 0.861703C45.9054 1.06339 44.5863 1.79096 43.6285 3.0403L44.8189 3.95294ZM47.6705 2.34955L47.8611 3.83739L48.2295 3.79019L48.0389 2.30235L47.8484 0.814507L47.4799 0.861703L47.6705 2.34955ZM48.0389 2.30235L48.2295 3.79019L48.598 3.743L48.4074 2.25515L48.2168 0.76731L47.8484 0.814507L48.0389 2.30235ZM48.4074 2.25515L48.598 3.743C48.8575 3.70975 49.0649 3.69474 49.2259 3.69245C49.3911 3.6901 49.4793 3.70166 49.5107 3.70776C49.5496 3.71533 49.4579 3.70561 49.3231 3.61093C49.1613 3.49727 48.9922 3.29685 48.9192 3.02191L50.3689 2.63696L51.8187 2.25202C51.5423 1.21106 50.6171 0.866821 50.0839 0.763025C49.5204 0.653353 48.8681 0.683888 48.2168 0.76731L48.4074 2.25515ZM50.3689 2.63696L48.9192 3.02191L48.9525 3.14731L50.4022 2.76236L51.852 2.37742L51.8187 2.25202L50.3689 2.63696ZM50.4022 2.76236L48.9525 3.14731L48.9857 3.2727L50.4355 2.88776L51.8853 2.50282L51.852 2.37742L50.4022 2.76236ZM50.4355 2.88776L48.9857 3.2727C49.1234 3.79095 49.4335 4.60812 49.8659 5.65187L51.2517 5.07776L52.6375 4.50367C52.1984 3.44373 51.9644 2.80089 51.8853 2.50282L50.4355 2.88776ZM51.2517 5.07776L49.8659 5.65187L49.9998 5.97502L51.3856 5.40092L52.7714 4.82682L52.6375 4.50367L51.2517 5.07776Z" fill="#323232"/>
</svg>
