<svg width="447" height="395" viewBox="0 0 447 395" fill="none" xmlns="http://www.w3.org/2000/svg">
<path fill-rule="evenodd" clip-rule="evenodd" d="M222.679 0.00291272C226.707 -0.0284971 230.825 0.179354 233.771 1.3535L234.227 1.53709L234.688 1.72166C237.057 2.66615 238.915 4.52518 240.144 5.89158C241.567 7.47519 243.086 9.49049 244.678 11.8271L245.6 13.1865L246.526 14.541C249.884 19.4732 252.557 24.7951 254.548 30.4853L255.101 32.0566L255.65 33.6279C257.159 37.9428 259.365 41.8303 262.285 45.3232L264.419 47.8721C268.038 52.1996 271.415 56.6725 274.547 61.291L275.464 62.6504L276.386 64.0098C279.665 68.8451 282.407 73.9889 284.611 79.4326L285.856 82.4922C287.758 87.1898 289.949 91.7176 292.427 96.0723L293.234 97.4961L294.044 98.916C296.52 103.267 299.29 107.454 302.358 111.473L304.361 114.095C307.874 118.697 310.945 123.563 313.568 128.688L314.316 130.149L315.062 131.605C317.666 136.694 319.865 142.008 321.66 147.536L322.693 150.716C324.003 154.751 326.208 158.251 329.398 161.282L330.637 162.457L331.872 163.632C336.528 168.057 340.192 173.142 342.807 178.861L343.489 180.354L344.176 181.853C346.191 186.262 348.651 190.414 351.558 194.312L353.526 196.953C357.209 201.894 359.994 207.35 361.88 213.284L362.387 214.883L362.899 216.478C364.358 221.069 366.369 225.308 368.94 229.21L370.746 231.947C373.682 236.405 376.617 240.864 379.548 245.324L380.446 246.693L381.35 248.062C384.21 252.414 387.191 256.699 390.294 260.913L392.247 263.567C396.039 268.716 398.626 274.527 400.026 280.913L400.395 282.59L400.759 284.268C401.644 288.302 403.56 291.624 406.602 294.41L409.132 296.728C414.049 301.232 417.702 306.584 419.988 312.736L421.14 315.847C422.806 320.33 425.014 324.485 427.758 328.325L428.711 329.666L429.665 331.003C433.269 336.047 435.918 341.628 437.609 347.698L438.513 350.951C439.909 355.961 441.615 360.854 443.628 365.628L444.282 367.177L444.937 368.729C446.447 372.313 447.169 376.698 445.153 380.927C443.186 385.053 439.404 387.336 435.776 388.613L432.426 389.793C426.203 391.983 419.924 392.999 413.634 392.756L411.998 392.696L410.361 392.632C405.197 392.432 400.029 392.408 394.864 392.562L393.229 392.613L391.593 392.659C385.664 392.836 379.749 392.264 373.861 390.949L372.226 390.581L370.589 390.217C366.137 389.222 361.722 389.094 357.3 389.82L355.664 390.093L354.024 390.359C348.355 391.29 342.678 391.798 336.996 391.876L335.36 391.898L333.725 391.917C327.882 391.997 322.048 391.445 316.236 390.263L314.597 389.927L312.96 389.595C308.731 388.734 304.521 388.868 300.242 390.023L296.966 390.908C290.863 392.557 284.701 393.125 278.52 392.581L275.248 392.295C269.888 391.823 264.525 391.311 259.165 390.761L257.529 390.595L255.894 390.424C251.15 389.937 246.407 390.038 241.654 390.728L240.019 390.968L238.383 391.203C232.751 392.021 227.112 392.467 221.471 392.535L219.835 392.553L218.199 392.576C212.263 392.648 206.344 391.96 200.458 390.525L197.182 389.724C193.162 388.744 189.172 388.896 185.068 390.23L183.432 390.766L181.795 391.295C175.12 393.465 168.331 393.571 161.621 391.585L159.981 391.102L158.345 390.613C153.744 389.252 149.205 388.695 144.7 388.903L143.065 388.978L141.429 389.056C136.644 389.277 131.836 390.042 126.996 391.369L125.36 391.815L123.724 392.268C117.796 393.893 111.824 394.697 105.826 394.659L104.191 394.649L102.555 394.636C96.6176 394.598 90.701 393.801 84.8224 392.258L83.1866 391.825L81.546 391.396C77.0155 390.207 72.5403 389.853 68.0812 390.305L64.8048 390.636C59.2662 391.196 53.7256 391.504 48.1837 391.558L44.9074 391.585C39.4434 391.637 33.9789 391.53 28.5167 391.263L25.2443 391.106C18.598 390.78 12.6114 388.673 7.78919 384.42L6.73352 383.493L5.68274 382.567C3.04696 380.242 1.03148 377.25 0.296024 373.582C-0.429675 369.96 0.242541 366.425 1.61927 363.236L2.21302 361.868L2.80286 360.494C4.60301 356.325 6.25104 351.74 7.73841 346.726L8.69641 343.5C10.466 337.534 13.108 332.022 16.6271 327.003L17.5724 325.657L18.5167 324.316C21.2692 320.391 23.5369 316.184 25.3273 311.69L25.9406 310.155L26.5529 308.616C28.8528 302.844 32.0933 297.607 36.2491 292.936L37.3595 291.691L38.4699 290.442C41.6931 286.819 44.3714 282.908 46.5197 278.705L47.2667 277.245L48.0128 275.788C50.4914 270.939 53.0834 266.154 55.7872 261.435L56.5978 260.015L57.4132 258.596C59.9609 254.149 62.3199 249.591 64.4913 244.924L65.1876 243.431L65.879 241.942C68.2568 236.832 70.9358 231.893 73.9152 227.127L74.7814 225.735L75.6525 224.349C78.4796 219.826 81.3094 215.304 84.1456 210.786L85.8868 208.013C88.7012 203.53 91.4806 199.026 94.2228 194.502L95.0714 193.101L95.9191 191.704C98.578 187.317 101.055 182.819 103.343 178.217L104.07 176.751L104.799 175.281C107.178 170.495 109.568 165.713 111.964 160.937L112.697 159.471L113.435 158.006C115.901 153.088 118.533 148.265 121.337 143.541L122.176 142.135L123.01 140.725C125.754 136.102 128.549 131.508 131.392 126.942L132.254 125.551L133.12 124.159C136.154 119.286 139.616 114.672 143.497 110.316L144.609 109.067L145.724 107.818C148.961 104.186 151.665 100.271 153.852 96.0723L155.363 93.1699C157.671 88.739 159.673 84.1227 161.372 79.3223L161.93 77.7558L162.483 76.1836C164.43 70.6821 166.84 65.4302 169.704 60.4336L170.515 59.0146L171.33 57.5947C174.132 52.7067 177.251 48.004 180.685 43.4892L182.685 40.8633C185.833 36.7248 188.819 32.492 191.639 28.168L193.426 25.4209C196.354 20.9317 199.256 16.5412 202.126 12.2471L203.877 9.6201C207.666 3.95143 213.109 0.0770549 220.153 0.0214674L222.679 0.00291272Z" fill="#F2AC32"/>
</svg>
